<?xml version="1.0" encoding="UTF-8" standalone="no"?>
<!-- Created with Inkscape (http://www.inkscape.org/) -->
<svg
   xmlns:dc="http://purl.org/dc/elements/1.1/"
   xmlns:cc="http://web.resource.org/cc/"
   xmlns:rdf="http://www.w3.org/1999/02/22-rdf-syntax-ns#"
   xmlns:svg="http://www.w3.org/2000/svg"
   xmlns="http://www.w3.org/2000/svg"
   xmlns:sodipodi="http://sodipodi.sourceforge.net/DTD/sodipodi-0.dtd"
   xmlns:inkscape="http://www.inkscape.org/namespaces/inkscape"
   width="500"
   height="100"
   id="svg2"
   sodipodi:version="0.32"
   inkscape:version="0.45.1"
   version="1.0"
   inkscape:output_extension="org.inkscape.output.svg.inkscape">
  <g
     inkscape:label="Layer 1"
     inkscape:groupmode="layer"
     id="layer1"
     transform="translate(-282.58973,-438.11181)">
    <g
       id="g3831"
       clip-path="url(#id711)"
       transform="matrix(17.638551,0,0,-17.638551,-1873.6173,5149.6898)">
      <path
         id="path3833"
         d="M 140.103,267.118 L 150.591,267.118 L 150.591,261.449 L 140.103,261.449 L 140.103,267.118 z "
         style="fill:#25a840;fill-rule:evenodd;stroke:none" />
      <path
         id="path3835"
         d="M 137.551,267.118 L 139.819,267.118 L 139.819,261.449 L 137.551,261.449 L 137.551,267.118 z "
         style="fill:#6d94d4;fill-rule:evenodd;stroke:none" />
      <path
         id="path3837"
         d="M 122.244,267.118 L 137.268,267.118 L 137.268,261.449 L 122.244,261.449 L 122.244,267.118 z "
         style="fill:#1969bc;fill-rule:evenodd;stroke:none" />
      <g
         id="g3839"
         transform="translate(125.6626,265.2404)">
        <path
           id="path3841"
           d="M 0,0 C -0.137,0.33 -0.517,0.615 -1.015,0.595 C -1.513,0.574 -1.835,0.235 -2.051,-0.11 L -2.051,0.484 L -3.418,0.484 L -3.418,0.139 L -2.929,0.139 C -2.691,0.139 -2.663,0.029 -2.663,-0.198 L -2.663,-1.623 C -2.663,-1.623 -2.129,-0.771 -1.986,-0.551 C -1.806,-0.276 -1.55,0.23 -1.022,0.25 C -0.223,0.279 -0.144,-0.595 -0.13,-0.756 L -0.122,-0.763 C -0.122,-0.763 0.249,0.216 0.957,0.25 C 1.664,0.283 1.809,-0.417 1.836,-0.684 C 1.846,-0.789 1.845,-1.041 1.845,-1.041 L 2.144,-1.041 C 2.146,-1.041 2.145,-0.935 2.145,-0.935 C 2.145,-0.095 1.915,0.621 0.964,0.595 C 0.521,0.582 0.209,0.301 0,0"
           style="fill:#ffffff;fill-rule:evenodd;stroke:none" />
      </g>
      <g
         id="g3843"
         transform="translate(128.7431,263.6602)">
        <path
           id="path3845"
           d="M 0,0 C 0,0.013 -0.025,0.131 -0.033,0.215 C -0.048,0.359 -0.038,0.542 -0.035,0.587 C 0.011,1.228 0.318,1.79 1,1.783 C 1.546,1.776 1.847,1.393 1.992,1.244 L 2.633,0.527 L 2.633,3.458 L 1.301,3.458 L 1.301,3.124 L 1.679,3.124 C 1.92,3.124 2.014,2.954 2.014,2.72 L 2.014,1.712 C 1.701,2.053 1.306,2.181 0.84,2.181 C -0.183,2.181 -0.669,1.39 -0.727,0.579 C -0.731,0.524 -0.741,0.32 -0.7,0 L 0,0 z "
           style="fill:#ffffff;fill-rule:evenodd;stroke:none" />
      </g>
      <g
         id="g3847"
         transform="translate(134.0892,265.4882)">
        <path
           id="path3849"
           d="M 0,0 C 0.155,0.006 0.374,-0.037 0.41,-0.207 C 0.156,-0.207 -0.014,-0.325 -0.014,-0.59 C -0.014,-0.804 0.191,-0.93 0.382,-0.93 C 0.664,-0.93 0.777,-0.716 0.777,-0.435 C 0.777,0.074 0.459,0.367 -0.021,0.347 C -0.519,0.326 -0.813,-0.015 -1.029,-0.36 L -1.029,0.235 L -2.396,0.235 L -2.396,-0.11 L -1.907,-0.11 C -1.669,-0.11 -1.641,-0.22 -1.641,-0.448 L -1.641,-1.872 C -1.641,-1.872 -1.107,-1.021 -0.964,-0.801 C -0.785,-0.526 -0.528,-0.02 0,0"
           style="fill:#ffffff;fill-rule:evenodd;stroke:none" />
      </g>
      <g
         id="g3851"
         transform="translate(142.6087,264.4977)">
        <path
           id="path3853"
           d="M 0,0 L -0.069,0 L -0.069,-0.267 L 0.002,-0.267 C 0.093,-0.267 0.146,-0.216 0.146,-0.131 C 0.146,-0.04 0.088,0 0,0 M 0.178,-0.882 L 0.093,-0.57 C 0.069,-0.483 0.037,-0.454 -0.016,-0.454 L -0.067,-0.454 L -0.067,-0.882 L -0.318,-0.882 L -0.318,0.186 L 0.074,0.186 C 0.246,0.186 0.403,0.097 0.403,-0.088 C 0.403,-0.227 0.328,-0.323 0.19,-0.35 C 0.267,-0.371 0.304,-0.414 0.336,-0.518 L 0.448,-0.882 L 0.178,-0.882 z "
           style="fill:#ffffff;fill-rule:evenodd;stroke:none" />
      </g>
      <g
         id="g3855"
         transform="translate(143.6037,264.4753)">
        <path
           id="path3857"
           d="M 0,0 L -0.112,-0.442 L 0.115,-0.442 L 0,0 z M 0.219,-0.859 L 0.158,-0.619 L -0.152,-0.619 L -0.211,-0.859 L -0.467,-0.859 L -0.137,0.208 L 0.154,0.208 L 0.483,-0.859 L 0.219,-0.859 z "
           style="fill:#ffffff;fill-rule:evenodd;stroke:none" />
      </g>
      <g
         id="g3859"
         transform="translate(144.5267,264.4897)">
        <path
           id="path3861"
           d="M 0,0 L -0.054,0 L -0.054,-0.68 L 0.006,-0.68 C 0.195,-0.68 0.254,-0.52 0.254,-0.341 C 0.254,-0.16 0.202,0 0,0 M 0.029,-0.874 L -0.309,-0.874 L -0.309,0.194 L 0.021,0.194 C 0.354,0.194 0.518,-0.022 0.518,-0.341 C 0.518,-0.642 0.344,-0.874 0.029,-0.874"
           style="fill:#ffffff;fill-rule:evenodd;stroke:none" />
      </g>
      <path
         id="path3863"
         d="M 145.218,264.683 L 145.472,264.683 L 145.472,263.616 L 145.218,263.616 L 145.218,264.683 z "
         style="fill:#ffffff;fill-rule:evenodd;stroke:none" />
      <g
         id="g3865"
         transform="translate(146.0926,264.5168)">
        <path
           id="path3867"
           d="M 0,0 C -0.154,0 -0.176,-0.213 -0.176,-0.368 C -0.176,-0.56 -0.141,-0.736 0,-0.736 C 0.162,-0.736 0.179,-0.522 0.179,-0.368 C 0.179,-0.211 0.165,0 0,0 M 0,-0.918 C -0.326,-0.918 -0.44,-0.65 -0.44,-0.368 C -0.44,-0.093 -0.309,0.182 0,0.182 C 0.33,0.182 0.443,-0.09 0.443,-0.368 C 0.443,-0.651 0.31,-0.918 0,-0.918"
           style="fill:#ffffff;fill-rule:evenodd;stroke:none" />
      </g>
      <g
         id="g3869"
         transform="translate(141.0167,263.6162)">
        <path
           id="path3871"
           d="M 0,0 L 0,2.116 L -0.344,1.764 L -0.572,2.104 L 0.08,2.668 L 0.476,2.668 L 0.476,0 L 0,0 z "
           style="fill:#ffffff;fill-rule:evenodd;stroke:none" />
      </g>
      <g
         id="g3873"
         transform="translate(142.54,261.9988)">
        <path
           id="path3875"
           d="M 0,0 C -0.091,0 -0.21,0.018 -0.286,0.043 L -0.277,0.248 C -0.197,0.203 -0.104,0.182 -0.04,0.182 C 0.077,0.182 0.11,0.254 0.11,0.312 C 0.11,0.387 0.058,0.419 -0.01,0.451 L -0.107,0.498 C -0.245,0.563 -0.293,0.661 -0.293,0.795 C -0.293,0.995 -0.115,1.101 0.083,1.101 C 0.181,1.101 0.248,1.083 0.331,1.064 L 0.321,0.861 C 0.262,0.891 0.178,0.918 0.11,0.918 C 0.035,0.918 -0.03,0.882 -0.03,0.806 C -0.03,0.742 0.006,0.713 0.074,0.683 L 0.165,0.642 C 0.298,0.581 0.373,0.512 0.373,0.333 C 0.373,0.136 0.214,0 0,0"
           style="fill:#ffffff;fill-rule:evenodd;stroke:none" />
      </g>
      <g
         id="g3877"
         transform="translate(143.449,262.8754)">
        <path
           id="path3879"
           d="M 0,0 L -0.112,-0.442 L 0.115,-0.442 L 0,0 z M 0.219,-0.859 L 0.158,-0.619 L -0.152,-0.619 L -0.211,-0.859 L -0.467,-0.859 L -0.138,0.208 L 0.154,0.208 L 0.483,-0.859 L 0.219,-0.859 z "
           style="fill:#ffffff;fill-rule:evenodd;stroke:none" />
      </g>
      <g
         id="g3881"
         transform="translate(144.4476,261.9988)">
        <path
           id="path3883"
           d="M 0,0 C -0.291,0 -0.482,0.216 -0.482,0.55 C -0.482,0.929 -0.221,1.101 -0.013,1.101 C 0.134,1.101 0.216,1.062 0.25,1.049 L 0.24,0.843 C 0.205,0.869 0.147,0.904 0.045,0.904 C -0.109,0.904 -0.218,0.768 -0.218,0.55 C -0.218,0.334 -0.114,0.197 0.042,0.197 C 0.165,0.197 0.224,0.245 0.246,0.254 L 0.256,0.037 C 0.205,0.022 0.134,0 0,0"
           style="fill:#ffffff;fill-rule:evenodd;stroke:none" />
      </g>
      <g
         id="g3885"
         transform="translate(145.3889,262.0164)">
        <path
           id="path3887"
           d="M 0,0 L 0,0.448 L -0.242,0.448 L -0.242,0 L -0.496,0 L -0.496,1.067 L -0.242,1.067 L -0.242,0.648 L 0,0.648 L 0,1.067 L 0.256,1.067 L 0.256,0 L 0,0 z "
           style="fill:#ffffff;fill-rule:evenodd;stroke:none" />
      </g>
      <g
         id="g3889"
         transform="translate(146.1304,261.9988)">
        <path
           id="path3891"
           d="M 0,0 C -0.091,0 -0.21,0.018 -0.286,0.043 L -0.277,0.248 C -0.197,0.203 -0.104,0.182 -0.04,0.182 C 0.077,0.182 0.11,0.254 0.11,0.312 C 0.11,0.387 0.058,0.419 -0.01,0.451 L -0.107,0.498 C -0.245,0.563 -0.293,0.661 -0.293,0.795 C -0.293,0.995 -0.115,1.101 0.083,1.101 C 0.181,1.101 0.248,1.083 0.331,1.064 L 0.321,0.861 C 0.262,0.891 0.177,0.918 0.11,0.918 C 0.035,0.918 -0.031,0.882 -0.031,0.806 C -0.031,0.742 0.006,0.713 0.074,0.683 L 0.165,0.642 C 0.298,0.581 0.373,0.512 0.373,0.333 C 0.373,0.136 0.214,0 0,0"
           style="fill:#ffffff;fill-rule:evenodd;stroke:none" />
      </g>
      <g
         id="g3893"
         transform="translate(146.6968,262.0164)">
        <path
           id="path3895"
           d="M 0,0 L 0,1.067 L 0.613,1.067 L 0.613,0.874 L 0.251,0.874 L 0.251,0.645 L 0.587,0.645 L 0.587,0.453 L 0.251,0.453 L 0.251,0.194 L 0.627,0.194 L 0.627,0 L 0,0 z "
           style="fill:#ffffff;fill-rule:evenodd;stroke:none" />
      </g>
      <g
         id="g3897"
         transform="translate(148.0005,262.0164)">
        <path
           id="path3899"
           d="M 0,0 L -0.262,0.776 L -0.262,0 L -0.478,0 L -0.478,1.067 L -0.152,1.067 L 0.112,0.29 L 0.112,1.067 L 0.328,1.067 L 0.328,0 L 0,0 z "
           style="fill:#ffffff;fill-rule:evenodd;stroke:none" />
      </g>
    </g>
    <g
       id="g5433"
       clip-path="url(#id818)"
       transform="matrix(1,0,0,-1,52.590412,886.55976)" />
    <g
       id="g5987"
       clip-path="url(#id852)"
       transform="matrix(1,0,0,-1,52.590412,886.55976)" />
    <g
       id="g6535"
       clip-path="url(#id889)"
       transform="matrix(1,0,0,-1,52.590412,886.55976)" />
  </g>
</svg>
