<?xml version="1.0" encoding="UTF-8" standalone="no"?>
<!-- Created with Inkscape (http://www.inkscape.org/) -->
<svg
   xmlns:svg="http://www.w3.org/2000/svg"
   xmlns="http://www.w3.org/2000/svg"
   version="1.0"
   width="581.98816"
   height="248.03149"
   id="svg3907">
  <defs
     id="defs3909" />
  <g
     id="layer1">
    <g
       transform="matrix(0.6376968,0,0,0.6376968,-25.659133,-49.491419)"
       id="g4044">
      <rect
         width="187.89629"
         height="247.79782"
         x="414.19098"
         y="150.25525"
         id="rect3959"
         style="opacity:1;fill:#ffffff;fill-opacity:1;fill-rule:nonzero;stroke:none;marker:none;marker-start:none;marker-mid:none;marker-end:none;visibility:visible;display:inline;overflow:visible" />
      <path
         d="M 68,115.65625 L 68,179.25 L 135.59375,179.25 L 135.59375,115.65625 L 68,115.65625 z M 145.875,115.65625 L 145.875,179.25 L 213.46875,179.25 L 213.46875,115.65625 L 145.875,115.65625 z M 223.71875,115.65625 L 223.71875,179.25 L 291.3125,179.25 L 291.3125,115.65625 L 223.71875,115.65625 z M 259.78125,124 C 260.05402,124 260.22724,124 260.5,124 C 261.11375,124 261.71578,123.98579 262.375,124.03125 C 262.73112,124.04641 263.11264,124.07954 263.46875,124.125 C 264.0143,124.17046 264.516,124.23673 265.03125,124.3125 L 265.40625,124.34375 C 265.68661,124.41194 266.02456,124.47063 266.3125,124.53125 C 266.68378,124.58429 267.0113,124.65813 267.375,124.71875 C 267.7387,124.77937 268.07286,124.86173 268.40625,124.9375 C 268.61083,125.0057 268.82666,125.03219 269.03125,125.0625 C 269.33433,125.16857 269.65052,125.24431 269.96875,125.3125 C 270.21879,125.38828 270.48481,125.46306 270.75,125.53125 L 270.96875,125.59375 C 271.23395,125.66952 271.48481,125.77555 271.75,125.84375 C 272.10612,125.93467 272.43176,126.04259 272.75,126.15625 C 273.03793,126.2396 273.28973,126.33048 273.5625,126.40625 C 273.89589,126.54264 274.23575,126.6676 274.53125,126.78125 C 275.08438,126.97068 275.55201,127.13728 275.96875,127.28125 C 276.87043,127.63737 277.40625,127.84375 277.40625,127.84375 L 277.40625,136.375 L 276.53125,135.90625 C 276.21301,135.7244 275.79744,135.49247 275.3125,135.25 C 275.05488,135.11361 274.74817,134.97163 274.4375,134.8125 C 274.05107,134.63065 273.66673,134.43941 273.25,134.25 C 272.76506,134.00753 272.2482,133.79739 271.6875,133.5625 C 271.28591,133.3958 270.85425,133.22163 270.4375,133.0625 C 270.4375,133.0625 270.14117,132.98677 269.65625,132.8125 C 269.39105,132.714 269.01048,132.62029 268.59375,132.46875 C 268.32097,132.39298 268.03698,132.28694 267.71875,132.21875 C 267.18835,132.07478 266.61375,131.96404 266,131.8125 C 265.59841,131.73673 265.15064,131.65436 264.71875,131.59375 C 264.21866,131.5104 263.68666,131.4432 263.15625,131.375 C 262.86832,131.35985 262.55307,131.36553 262.25,131.3125 C 261.81811,131.29734 261.42337,131.28125 260.96875,131.28125 C 260.76417,131.26609 260.5398,131.28124 260.3125,131.28125 C 259.72149,131.28125 259.1128,131.30679 258.46875,131.375 C 258.13536,131.39015 257.8334,131.41571 257.5,131.46875 C 257.15903,131.51421 256.80215,131.57955 256.46875,131.625 C 256.18082,131.68562 255.88074,131.73673 255.5625,131.8125 C 255.27457,131.89585 254.95933,131.97158 254.65625,132.0625 C 254.33043,132.17615 253.99815,132.23009 253.6875,132.34375 C 253.38442,132.44225 253.12316,132.55016 252.8125,132.65625 C 252.52457,132.77749 252.20933,132.90244 251.90625,133.03125 C 250.08017,133.87231 248.27111,135.08021 246.6875,136.65625 C 246.58142,136.76233 246.48866,136.90149 246.375,137 C 246.178,137.20458 246.00952,137.41284 245.8125,137.625 C 245.66854,137.79169 245.53507,137.9744 245.40625,138.15625 C 245.04255,138.65634 244.72543,139.14858 244.4375,139.65625 C 244.30869,139.86083 244.17615,140.08519 244.0625,140.3125 C 243.8958,140.60043 243.77749,140.87684 243.65625,141.1875 C 243.53501,141.39209 243.44319,141.61549 243.375,141.8125 C 243.23103,142.16105 243.1449,142.46301 243.03125,142.78125 C 242.93275,143.11464 242.84944,143.42418 242.78125,143.75 C 242.66002,144.25009 242.56061,144.72436 242.5,145.15625 C 242.40907,145.87607 242.3589,146.49991 242.34375,147 L 242.34375,147.5625 C 242.34375,147.78981 242.3286,148.07287 242.34375,148.40625 C 242.37406,148.64872 242.37594,148.9223 242.40625,149.1875 C 242.4896,149.89974 242.60035,150.74607 242.8125,151.625 C 242.911,151.95081 242.9801,152.27552 243.09375,152.59375 C 243.21499,153.0105 243.40431,153.44309 243.59375,153.875 C 243.69225,154.1402 243.81532,154.41379 243.90625,154.65625 C 244.0881,154.97449 244.22439,155.27457 244.40625,155.5625 C 244.51233,155.77466 244.66853,155.97535 244.8125,156.1875 C 244.95647,156.39208 245.05962,156.60792 245.21875,156.8125 C 245.4006,157.01709 245.58331,157.27176 245.75,157.46875 C 246.08339,157.86276 246.43365,158.26982 246.8125,158.65625 L 246.9375,158.75 L 247.03125,158.84375 L 247.15625,158.96875 L 247.4375,159.25 C 247.64208,159.40154 247.89011,159.57666 248.125,159.78125 C 248.37504,159.9631 248.63253,160.15338 248.875,160.3125 C 249.09473,160.47162 249.27175,160.62119 249.46875,160.75 C 249.69606,160.87124 249.89675,160.9962 250.09375,161.125 C 250.50291,161.34474 250.92795,161.56815 251.375,161.75 C 251.56443,161.8485 251.75565,161.93275 251.9375,162.03125 C 252.07389,162.07671 252.19885,162.12593 252.3125,162.15625 C 252.50951,162.23202 252.69316,162.31439 252.875,162.375 C 254.10249,162.80689 255.34352,163.14768 256.59375,163.375 C 257.4045,163.48108 258.12488,163.57954 258.875,163.625 C 259.52663,163.67046 260.16752,163.6875 260.78125,163.6875 C 261.06918,163.6875 261.3702,163.65625 261.71875,163.65625 C 262.20369,163.62595 262.77641,163.59186 263.375,163.53125 C 263.76901,163.50095 264.16186,163.43561 264.59375,163.375 C 264.7756,163.35985 264.95924,163.31913 265.15625,163.28125 C 266.67167,162.99332 268.39456,162.58062 270.28125,161.90625 C 271.26627,161.55771 272.30663,161.13266 273.375,160.625 C 273.97359,160.31434 274.6211,160.00574 275.25,159.6875 C 275.81828,159.36926 276.40142,159.02753 277,158.65625 L 277.59375,158.3125 C 277.69225,158.25947 277.79259,158.18562 277.90625,158.125 L 277.90625,166.8125 C 277.74713,166.86554 277.59,166.95547 277.46875,167.03125 C 277.09747,167.17522 276.74817,167.34088 276.4375,167.5 C 276.04349,167.65912 275.69987,167.81722 275.34375,167.96875 C 274.81335,168.23395 274.30024,168.40339 273.90625,168.5625 C 273.59558,168.67615 273.31443,168.78313 273.125,168.84375 L 272.75,168.96875 C 272.31811,169.10514 271.9319,169.26133 271.5,169.375 C 271.1363,169.49623 270.75291,169.62025 270.34375,169.71875 C 269.83608,169.83998 269.28609,169.99618 268.6875,170.125 C 268.31622,170.18561 267.92527,170.28313 267.53125,170.34375 C 266.90235,170.44983 266.26717,170.5568 265.5625,170.625 C 265.11545,170.69319 264.63359,170.75094 264.15625,170.78125 L 263.90625,170.8125 C 262.69392,170.91858 261.38566,170.96875 259.96875,170.96875 L 259.40625,170.96875 C 259.01981,170.95359 258.62034,170.96779 258.21875,170.9375 C 257.43831,170.90719 256.67248,170.80968 255.9375,170.71875 C 255.19494,170.64298 254.47077,170.52748 253.78125,170.40625 C 252.93261,170.2244 252.10051,170.02466 251.3125,169.8125 C 250.85787,169.68369 250.41674,169.53411 250,169.375 C 249.56053,169.22346 249.15158,169.09662 248.75,168.9375 C 247.66647,168.48288 246.68293,168.00009 245.78125,167.5 C 245.34936,167.24238 244.9319,166.96122 244.5,166.71875 C 244.11357,166.46871 243.76238,166.25762 243.40625,166 C 243.14106,165.79542 242.87505,165.56443 242.625,165.375 C 242.34465,165.14769 242.08622,164.94699 241.84375,164.75 C 241.48005,164.44691 241.14684,164.1241 240.84375,163.84375 L 240.6875,163.65625 C 240.33137,163.31528 239.98112,162.90916 239.625,162.5 C 239.34464,162.16661 239.02279,161.84002 238.75,161.46875 C 238.47723,161.11262 238.1866,160.76901 237.90625,160.375 C 237.7244,160.08707 237.53319,159.77941 237.34375,159.46875 C 237.10886,159.06716 236.85989,158.68284 236.625,158.28125 C 236.24614,157.58416 235.88832,156.80412 235.5625,156.03125 C 235.37307,155.53874 235.17427,155.05406 235,154.53125 C 234.85604,154.09936 234.74624,153.68188 234.625,153.25 C 234.54923,152.89388 234.4432,152.55973 234.375,152.21875 C 234.34469,152.0369 234.33429,151.89302 234.28125,151.71875 C 234.22063,151.32474 234.13922,150.90822 234.09375,150.46875 L 234.0625,150.21875 C 234.02461,149.83989 233.96781,149.48869 233.9375,149.125 C 233.91477,148.76887 233.90624,148.40253 233.90625,148.03125 C 233.90625,147.55389 233.93843,147.08721 233.96875,146.625 C 234.01421,145.9961 234.06438,145.37226 234.125,144.78125 C 234.38263,142.92486 234.83986,141.16032 235.46875,139.53125 C 235.99915,138.21283 236.58509,136.94908 237.3125,135.8125 C 237.41858,135.60035 237.52743,135.43185 237.65625,135.25 C 237.84568,134.96207 238.03026,134.64778 238.25,134.375 C 238.50004,134.01888 238.75942,133.67714 239.0625,133.34375 C 239.3277,133.02551 239.57949,132.69418 239.875,132.40625 C 240.12505,132.08043 240.392,131.79644 240.6875,131.53125 C 241.00574,131.20543 241.3702,130.88073 241.71875,130.5625 C 242.12791,130.2291 242.54442,129.87222 242.96875,129.53125 C 243.17333,129.37971 243.37308,129.25287 243.5625,129.09375 C 243.82012,128.91948 244.08612,128.74435 244.34375,128.5625 C 244.7908,128.25941 245.24139,127.99911 245.71875,127.71875 C 246.23399,127.44598 246.75179,127.17903 247.3125,126.90625 C 247.93382,126.58801 248.60025,126.2955 249.3125,126 C 250.66123,125.4696 252.15123,125.04362 253.75,124.6875 C 254.0152,124.64204 254.267,124.56913 254.5625,124.53125 C 254.74436,124.48578 254.92799,124.46023 255.125,124.4375 L 255.5625,124.34375 L 255.9375,124.28125 L 256.25,124.25 C 256.65917,124.18938 257.05958,124.15531 257.46875,124.125 C 257.74911,124.09469 258.01604,124.08523 258.28125,124.0625 C 258.76618,124.03219 259.26601,124.01516 259.78125,124 z M 85.75,124.5625 L 100.59375,124.5625 C 108.59517,124.5625 112.125,128.75 112.125,128.75 C 112.125,128.75 115.375,131.56447 115.375,136.40625 C 115.375,141.24044 113.1914,143.24516 112.5625,143.84375 C 111.25924,145.17732 109.53125,145.9375 109.53125,145.9375 C 109.53125,145.9375 113.31955,146.77977 116.3125,149.75 C 119.80555,153.25819 119.53125,157.78124 119.53125,157.78125 C 119.53125,157.78125 119.79707,162.18019 116.03125,165.96875 C 111.38649,170.59836 102.96875,170.37499 102.96875,170.375 L 85.75,170.375 L 85.75,124.5625 z M 163.59375,124.5625 L 178.46875,124.5625 C 186.46259,124.5625 190,128.75 190,128.75 C 190,128.75 193.24999,131.56447 193.25,136.40625 C 193.25,141.24044 191.05123,143.24516 190.4375,143.84375 C 189.10393,145.17732 187.375,145.9375 187.375,145.9375 C 187.375,145.9375 191.17087,146.77977 194.15625,149.75 C 197.64929,153.25819 197.40625,157.78124 197.40625,157.78125 C 197.40625,157.78125 197.67965,162.18019 193.90625,165.96875 C 189.26906,170.59836 180.84375,170.37499 180.84375,170.375 L 163.59375,170.375 L 163.59375,124.5625 z M 93.9375,131.8125 L 93.9375,143.65625 L 97.875,143.65625 C 97.874998,143.65626 98.127781,143.65625 98.46875,143.65625 C 98.741522,143.6411 99.08707,143.62406 99.375,143.59375 C 100.17059,143.53313 101.3,143.43566 102.40625,143.125 C 102.63356,143.0568 102.82761,142.9896 103.0625,142.90625 C 103.92629,142.58043 104.77829,142.15921 105.4375,141.5 C 105.94516,141.00748 106.29636,140.44328 106.53125,139.875 C 106.80403,139.20064 106.88446,138.55595 106.9375,138.09375 C 106.97539,137.67701 106.96875,137.40625 106.96875,137.40625 L 106.96875,136.90625 C 106.91571,136.39857 106.80783,135.56833 106.40625,134.75 C 106.20924,134.36357 105.95081,133.98113 105.625,133.625 C 105.14764,133.18553 104.60711,132.82864 104.03125,132.59375 C 102.92499,132.09368 101.6697,131.91194 100.59375,131.84375 C 100.1467,131.81344 99.708392,131.8125 99.375,131.8125 L 93.9375,131.8125 z M 171.8125,131.8125 L 171.8125,143.65625 L 175.71875,143.65625 C 175.71874,143.65626 176.00278,143.65625 176.34375,143.65625 C 176.63926,143.6411 176.93082,143.62406 177.21875,143.59375 C 178.02949,143.53313 179.16741,143.43566 180.28125,143.125 C 180.50098,143.0568 180.71682,142.9896 180.90625,142.90625 C 181.78519,142.58043 182.63814,142.15921 183.3125,141.5 C 183.82017,141.00748 184.14769,140.44328 184.375,139.875 C 184.66293,139.20064 184.76703,138.55595 184.8125,138.09375 C 184.82765,137.67701 184.84375,137.40625 184.84375,137.40625 C 184.84375,137.40626 184.84375,137.23206 184.84375,136.90625 C 184.8286,136.39857 184.69041,135.56833 184.28125,134.75 C 184.08424,134.36357 183.83245,133.98113 183.46875,133.625 C 183.03685,133.18553 182.48211,132.82864 181.90625,132.59375 C 180.79998,132.0861 179.52197,131.91952 178.46875,131.84375 C 177.9914,131.81344 177.59854,131.8125 177.25,131.8125 L 171.8125,131.8125 z M 93.9375,150.8125 L 93.9375,163.3125 L 102.0625,163.3125 C 102.0625,163.3125 102.21113,163.28125 102.46875,163.28125 C 102.7491,163.28125 103.15522,163.24906 103.625,163.21875 C 104.50394,163.1354 105.65984,162.98019 106.78125,162.59375 C 107.81174,162.25277 108.79721,161.75771 109.5625,161 C 109.85043,160.6969 110.0994,160.38925 110.28125,160.09375 C 110.91015,159.07084 111.05586,158.06828 111.09375,157.5 C 111.12406,157.22722 111.125,157.09375 111.125,157.09375 L 111.125,156.78125 C 111.09469,156.54636 111.06631,156.08532 110.9375,155.5625 C 110.79354,154.96391 110.51524,154.3003 110,153.65625 C 109.91665,153.5426 109.79358,153.43373 109.6875,153.3125 C 109.44503,153.09277 109.21121,152.87693 108.96875,152.6875 C 108.49139,152.36168 108.02188,152.06348 107.46875,151.84375 C 106.73377,151.51036 105.89409,151.2917 105,151.125 C 104.54537,151.04166 104.09384,150.96781 103.59375,150.9375 C 103.29825,150.88446 102.95933,150.87406 102.65625,150.84375 C 102.36074,150.82859 102.06918,150.8125 101.78125,150.8125 L 93.9375,150.8125 z M 171.8125,150.8125 L 171.8125,163.3125 L 179.90625,163.3125 C 179.90625,163.3125 180.09371,163.28125 180.34375,163.28125 C 180.62411,163.28125 181.02264,163.24906 181.5,163.21875 C 182.34863,163.1354 183.51969,162.98019 184.65625,162.59375 C 185.67159,162.25277 186.64096,161.75771 187.40625,161 C 187.69418,160.6969 187.92042,160.38925 188.125,160.09375 C 188.7539,159.07084 188.93844,158.06828 188.96875,157.5 C 188.98392,157.22722 188.96875,157.09375 188.96875,157.09375 C 188.96875,157.09375 188.96875,156.9631 188.96875,156.78125 C 188.96875,156.54636 188.94889,156.08532 188.8125,155.5625 C 188.65338,154.96391 188.38266,154.3003 187.875,153.65625 C 187.75377,153.5426 187.66858,153.43373 187.5625,153.3125 C 187.32761,153.09277 187.07012,152.87693 186.8125,152.6875 C 186.36545,152.36168 185.85805,152.06348 185.3125,151.84375 C 184.56994,151.51036 183.753,151.2917 182.84375,151.125 C 182.39669,151.04166 181.89118,150.96781 181.40625,150.9375 C 181.08801,150.88446 180.81066,150.87406 180.5,150.84375 C 180.21206,150.82859 179.91293,150.8125 179.625,150.8125 L 171.8125,150.8125 z M 267.46875,194.3125 C 250.42786,194.31251 239.25,206.72658 239.25,221.3125 C 239.25,235.58018 250.11155,248.28125 267.28125,248.28125 C 285.11016,248.28124 295.75,235.48168 295.75,221.3125 C 295.75001,206.66597 284.82031,194.3125 267.46875,194.3125 z M 130.78125,194.6875 L 108.34375,247.1875 C 104.99555,242.58129 103.62348,240.67282 101.4375,237.15625 C 97.436786,230.62479 94.538727,225.7695 89.75,222.625 C 95.364627,220.36703 98.53125,215.83441 98.53125,209.75 C 98.531247,200.64232 91.888248,195 81.25,195 L 68,195 L 68,247.59375 L 75.5625,247.59375 L 75.5625,224.75 L 78.71875,224.75 C 82.590645,224.75 85.731723,225.98388 92.6875,236.78125 L 99.625,247.59375 L 108.625,247.59375 C 108.61375,247.57827 108.60496,247.57792 108.59375,247.5625 L 115.90625,247.5625 L 122.53125,232.09375 L 144.875,232.09375 L 151.90625,247.5625 L 159.59375,247.5625 L 136.0625,194.6875 L 130.78125,194.6875 z M 165.875,195 L 165.875,247.5625 L 186.375,247.5625 C 203.72656,247.5625 214.28125,234.80732 214.28125,221.3125 C 214.28125,208.90879 205.73261,195 186.3125,195 L 165.875,195 z M 222.96875,195 L 222.96875,247.59375 L 230.53125,247.59375 L 230.53125,195 L 222.96875,195 z M 267.46875,201.28125 C 279.25873,201.28126 287.96875,209.73469 287.96875,221.3125 C 287.96874,232.78423 279.26629,241.34375 267.46875,241.34375 C 255.75457,241.34375 247.03125,232.77665 247.03125,221.3125 C 247.03125,209.73469 255.75456,201.28125 267.46875,201.28125 z M 75.5625,201.5 L 80.4375,201.5 C 87.741821,201.49999 90.658134,204.49723 90.71875,209.4375 C 90.802095,213.83979 88.514688,217.96875 80.4375,217.96875 L 75.5625,217.96875 L 75.5625,201.5 z M 173.4375,201.78125 L 185.0625,201.78125 C 199.79239,201.78125 206.5,210.72635 206.5,221.28125 C 206.49999,227.76724 202.57784,240.78125 185.46875,240.78125 L 173.4375,240.78125 L 173.4375,201.78125 z M 133.3125,206.28125 L 141.8125,225.3125 L 125.46875,225.3125 L 133.3125,206.28125 z"
         id="path326"
         style="fill:#000000;fill-opacity:1;fill-rule:evenodd" />
      <path
         d="M 507.59,105.39171 C 415.58886,105.39171 340.98474,180.01856 340.98474,272.07275 C 340.98474,364.14208 415.58886,438.77651 507.59,438.77651 C 599.61387,438.77651 674.18768,364.1345 674.18768,272.07275 C 674.18768,180.01099 599.60629,105.39171 507.59,105.39171 M 471.326,160.81819 C 504.23334,142.19368 566.03217,154.46859 568.22195,199.46898 C 570.16926,239.08963 521.23636,265.82922 491.76902,281.97601 C 490.97342,281.17284 485.2906,275.53548 484.08584,274.35345 C 510.49203,254.3878 540.04272,218.73754 526.9798,183.33733 C 517.9782,158.95423 477.55438,159.45432 466.95402,182.2235 C 477.06187,178.7153 491.48109,178.17733 499.26277,186.95161 C 507.37784,196.14263 502.58154,210.49366 492.44338,215.72943 C 476.60724,223.87482 448.7614,216.91146 447.45814,196.2866 C 447.05655,180.73839 457.89938,167.50877 471.326,160.81819 M 570.53296,374.09081 C 539.90633,397.72378 480.73676,402.33066 449.04175,379.25082 C 435.75152,369.57486 424.41618,358.11829 424.81777,342.41096 C 425.96191,300.58537 495.944,318.35367 479.13799,349.7759 C 472.22768,360.80058 455.55048,360.77027 444.70765,356.66348 C 463.4837,383.97135 514.31089,383.29699 535.76923,359.37608 C 546.53629,347.37396 547.80167,331.42416 546.4681,315.72441 C 544.86933,296.88017 535.78439,285.03716 524.33539,271.26957 C 531.39725,266.20807 535.55707,263.40454 542.331,257.9263 C 591.8625,269.92085 619.21583,336.56902 570.53296,374.09081 M 588.43765,230.48205 C 574.15482,230.48205 574.11693,208.64485 588.43765,208.64485 C 602.42498,208.64485 602.39467,230.48205 588.43765,230.48205 M 588.43765,193.52853 C 574.15482,193.52853 574.11693,171.72164 588.43765,171.72164 C 602.42498,171.72164 602.39467,193.52853 588.43765,193.52853"
         id="path350"
         style="fill:#d3021d" />
    </g>
  </g>
</svg>
