<?xml version="1.0" encoding="UTF-8" standalone="no"?>
<!-- Created with Inkscape (http://www.inkscape.org/) -->
<svg
   xmlns:svg="http://www.w3.org/2000/svg"
   xmlns="http://www.w3.org/2000/svg"
   version="1.0"
   width="581.98816"
   height="248.03149"
   id="svg3581">
  <defs
     id="defs3583" />
  <g
     id="layer1">
    <g
       transform="translate(-8.0983306,-18.607014)"
       id="g3594">
      <g
         transform="matrix(0.948042,0,0,0.948042,-42.217523,-176.5415)"
         id="g3517">
        <path
           d="M 351.90625,272.09375 L 326.625,310.53125 L 344.1875,310.53125 L 344.1875,405.84375 L 416.40625,405.84375 C 416.40625,405.84375 431.84984,382.22933 439.40625,370.6875 C 444.84731,379.02356 454.39084,393.64492 459.28125,401.125 C 468.10221,388.60461 474.40035,374.21413 477.5,358.65625 C 470.68505,348.2321 463.37502,337.00002 463.375,337 C 463.375,337 477.59774,315.40371 477.625,315.34375 C 474.61374,299.75859 468.40023,285.28865 459.65625,272.71875 C 457.38278,276.20255 445.79051,293.84712 439.40625,303.5625 C 432.28054,292.75126 418.71874,272.09376 418.71875,272.09375 L 351.90625,272.09375 z"
           id="path3503"
           style="fill:#ffffff;fill-opacity:1;fill-rule:nonzero;stroke:none;marker:none;marker-start:none;marker-mid:none;marker-end:none;visibility:visible;display:inline;overflow:visible" />
        <path
           d="M 367.59375,224.53125 C 305.70307,224.53126 255.53125,274.72742 255.53125,336.65625 C 255.53126,398.59056 305.70307,448.78125 367.59375,448.78125 C 405.49579,448.78125 439.00541,429.93862 459.28125,401.125 C 454.39084,393.64492 444.84731,379.02356 439.40625,370.6875 C 431.84984,382.22933 416.40625,405.84375 416.40625,405.84375 L 344.1875,405.84375 L 344.1875,310.53125 L 326.625,310.53125 L 351.90625,272.09375 L 418.71875,272.09375 C 418.71874,272.09376 432.28054,292.75126 439.40625,303.5625 C 445.79051,293.84712 457.38278,276.20255 459.65625,272.71875 C 439.42946,243.61072 405.73567,224.53125 367.59375,224.53125 z M 71.75,231.4375 L 71.75,274.25 L 117.21875,274.25 L 117.21875,231.4375 L 71.75,231.4375 z M 124.1875,231.4375 L 124.1875,274.25 L 169.65625,274.25 L 169.65625,231.4375 L 124.1875,231.4375 z M 176.59375,231.4375 L 176.59375,274.25 L 222.09375,274.25 L 222.09375,231.4375 L 176.59375,231.4375 z M 200.875,237.03125 C 201.04402,237.03126 201.17327,237.03126 201.375,237.03125 C 201.773,237.03126 202.18339,237.02979 202.625,237.0625 C 202.85943,237.07886 203.08751,237.09229 203.34375,237.125 C 203.69813,237.14681 204.06276,237.2064 204.40625,237.25 L 204.625,237.28125 C 204.83763,237.31942 205.05373,237.34229 205.25,237.375 C 205.49534,237.41862 205.7492,237.47274 206,237.5 C 206.2399,237.54361 206.45851,237.60174 206.6875,237.65625 C 206.81836,237.68897 206.95746,237.72819 207.09375,237.75 C 207.30094,237.79361 207.50069,237.88843 207.71875,237.9375 C 207.88231,237.99202 208.05519,238.01344 208.21875,238.0625 L 208.375,238.09375 C 208.56037,238.14827 208.72632,238.23217 208.90625,238.28125 C 209.13523,238.34668 209.37024,238.43458 209.59375,238.5 C 209.79548,238.55452 209.97088,238.60173 210.15625,238.65625 C 210.38523,238.73258 210.59987,238.82446 210.8125,238.90625 C 211.17778,239.03164 211.50321,239.14641 211.78125,239.25 C 212.39186,239.48989 212.75,239.625 212.75,239.625 L 212.75,245.375 L 212.125,245.03125 C 211.92327,244.90585 211.66542,244.7573 211.34375,244.59375 C 211.16384,244.50652 210.95173,244.41608 210.75,244.3125 C 210.4883,244.19255 210.22645,244.04255 209.9375,243.90625 C 209.60492,243.75359 209.26608,243.62686 208.90625,243.46875 C 208.62275,243.36516 208.31475,243.23404 208.03125,243.125 C 208.03125,243.125 207.85837,243.05199 207.53125,242.9375 C 207.32954,242.87208 207.09055,242.81689 206.8125,242.71875 C 206.63259,242.66424 206.42593,242.60612 206.21875,242.5625 C 205.85893,242.47528 205.47685,242.37393 205.0625,242.28125 C 204.79535,242.23764 204.49282,242.17406 204.1875,242.125 C 203.85493,242.07594 203.51609,242.04361 203.15625,242 C 202.95998,241.9782 202.76422,241.99056 202.5625,241.96875 C 202.26264,241.95786 201.99825,241.9375 201.6875,241.9375 C 201.54576,241.92116 201.40265,241.9375 201.25,241.9375 C 200.84111,241.93751 200.44162,241.9673 200,242 C 199.78194,242.02727 199.57274,242.04068 199.34375,242.0625 C 199.11477,242.09522 198.87979,242.12354 198.65625,242.15625 C 198.46543,242.19443 198.24387,242.23763 198.03125,242.28125 C 197.84044,242.33033 197.63378,242.40334 197.4375,242.46875 C 197.21397,242.52328 196.98296,242.59083 196.78125,242.65625 C 196.56862,242.73259 196.39467,242.79322 196.1875,242.875 C 195.98578,242.95678 195.79002,243.01196 195.59375,243.09375 C 194.36161,243.66076 193.16778,244.47358 192.09375,245.53125 C 192.02833,245.61848 191.95678,245.67911 191.875,245.75 C 191.7387,245.90811 191.58868,246.0879 191.46875,246.21875 C 191.37061,246.33869 191.30597,246.4371 191.21875,246.5625 C 190.97341,246.89506 190.74242,247.22449 190.5625,247.5625 C 190.46437,247.69881 190.38884,247.8786 190.3125,248.03125 C 190.20347,248.22754 190.11848,248.39749 190.03125,248.59375 C 189.97128,248.7464 189.88192,248.8895 189.84375,249.03125 C 189.75108,249.26024 189.69588,249.47488 189.625,249.6875 C 189.54323,249.91103 189.48112,250.12021 189.4375,250.34375 C 189.35573,250.68176 189.29362,250.9814 189.25,251.28125 C 189.19549,251.75557 189.15624,252.19869 189.15625,252.53125 L 189.15625,252.90625 C 189.15626,253.06435 189.15624,253.23975 189.15625,253.46875 C 189.17807,253.62139 189.1657,253.80917 189.1875,254 C 189.23113,254.48521 189.32699,255.02528 189.46875,255.625 C 189.53964,255.83218 189.59084,256.06862 189.65625,256.28125 C 189.74895,256.5702 189.84336,256.86729 189.96875,257.15625 C 190.03964,257.32526 190.12209,257.48177 190.1875,257.65625 C 190.30745,257.86888 190.41131,258.07952 190.53125,258.28125 C 190.60758,258.42299 190.68311,258.54574 190.78125,258.6875 C 190.86848,258.84015 191.00107,259.00358 191.09375,259.15625 C 191.2137,259.29799 191.3339,259.45201 191.4375,259.59375 C 191.66648,259.86088 191.89456,260.11331 192.15625,260.375 L 192.25,260.4375 L 192.28125,260.5 L 192.375,260.59375 L 192.59375,260.78125 C 192.73005,260.8794 192.86224,260.99961 193.03125,261.125 C 193.18936,261.25586 193.36769,261.39095 193.53125,261.5 C 193.673,261.61451 193.82701,261.68859 193.96875,261.78125 C 194.10505,261.85758 194.24416,261.94403 194.375,262.03125 C 194.64761,262.19481 194.9298,262.34335 195.21875,262.46875 C 195.35506,262.53962 195.46835,262.58537 195.59375,262.65625 C 195.68099,262.69441 195.77288,262.72273 195.84375,262.75 C 195.96371,262.78817 196.08246,262.8423 196.21875,262.875 C 197.042,263.18576 197.8737,263.39495 198.71875,263.53125 C 199.24759,263.61848 199.77423,263.68058 200.28125,263.71875 C 200.72287,263.75145 201.14816,263.78125 201.5625,263.78125 C 201.75878,263.78124 201.95306,263.76091 202.1875,263.75 C 202.52007,263.73908 202.9145,263.7053 203.3125,263.65625 C 203.59055,263.63444 203.83603,263.60065 204.125,263.5625 C 204.24494,263.54069 204.36916,263.5109 204.5,263.5 C 205.52497,263.30373 206.68754,263.02593 207.96875,262.5625 C 208.62299,262.33351 209.31705,262.0513 210.03125,261.71875 C 210.42924,261.51158 210.86144,261.28604 211.28125,261.0625 C 211.66287,260.85533 212.05986,260.62034 212.46875,260.375 L 212.84375,260.15625 C 212.92007,260.12355 212.99163,260.06543 213.0625,260 L 213.0625,265.875 C 212.96436,265.91317 212.87395,265.95637 212.78125,266 C 212.54136,266.10905 212.27513,266.2347 212.0625,266.34375 C 211.80625,266.45825 211.57274,266.56356 211.34375,266.65625 C 210.97301,266.83617 210.6476,266.95345 210.375,267.0625 C 210.17873,267.13884 210.01675,267.2064 209.875,267.25 L 209.59375,267.34375 C 209.31571,267.43099 209.05531,267.51741 208.75,267.59375 C 208.50466,267.67553 208.26714,267.74163 208,267.8125 C 207.64562,267.89428 207.2621,268.01198 206.875,268.09375 C 206.61331,268.13736 206.3609,268.21185 206.09375,268.25 C 205.6685,268.33178 205.22978,268.38842 204.75,268.4375 C 204.45014,268.48657 204.13415,268.5298 203.8125,268.5625 L 203.65625,268.5625 C 202.82209,268.63337 201.9283,268.68751 200.96875,268.6875 L 200.625,268.6875 C 200.35786,268.67659 200.07419,268.64681 199.8125,268.625 C 199.29456,268.60865 198.77739,268.56541 198.28125,268.5 C 197.78513,268.44002 197.27593,268.37393 196.8125,268.28125 C 196.24004,268.16676 195.71634,268.04255 195.1875,267.90625 C 194.87675,267.81902 194.56475,267.69732 194.28125,267.59375 C 193.99231,267.50106 193.70465,267.41608 193.4375,267.3125 C 192.69603,267.01265 192.03722,266.67633 191.4375,266.34375 C 191.14309,266.16929 190.86635,265.97061 190.59375,265.8125 C 190.32661,265.64895 190.08363,265.48698 189.84375,265.3125 C 189.65294,265.17619 189.48151,265.03709 189.3125,264.90625 C 189.12714,264.76449 188.95572,264.63085 188.78125,264.5 C 188.54137,264.29281 188.33217,264.06036 188.125,263.875 L 188,263.75 C 187.76011,263.50466 187.51023,263.24134 187.28125,262.96875 C 187.08498,262.73976 186.8674,262.53203 186.6875,262.28125 C 186.49669,262.04682 186.33071,261.79839 186.15625,261.53125 C 186.03631,261.33499 185.8863,261.15012 185.75,260.9375 C 185.58644,260.67036 185.4339,260.39761 185.28125,260.125 C 185.03591,259.65069 184.78058,259.14295 184.5625,258.625 C 184.43166,258.28151 184.29653,257.94267 184.1875,257.59375 C 184.08937,257.31025 184.00438,257.03896 183.90625,256.75 C 183.86264,256.51556 183.82487,256.29146 183.78125,256.0625 C 183.754,255.94802 183.70931,255.83325 183.6875,255.71875 C 183.63299,255.45706 183.60065,255.14361 183.5625,254.84375 L 183.5625,254.6875 C 183.53525,254.44761 183.49055,254.20863 183.46875,253.96875 C 183.45785,253.7234 183.46875,253.46409 183.46875,253.21875 C 183.46876,252.89707 183.47821,252.59746 183.5,252.28125 C 183.53273,251.85599 183.57592,251.4347 183.625,251.03125 C 183.79947,249.77185 184.0693,248.6122 184.5,247.5 C 184.84347,246.61679 185.27567,245.76329 185.75,245 C 185.82633,244.8637 185.90731,244.75039 186,244.625 C 186.12539,244.42873 186.24416,244.21663 186.375,244.03125 C 186.55491,243.79137 186.74123,243.57273 186.9375,243.34375 C 187.10651,243.12567 187.28339,242.90956 187.46875,242.71875 C 187.64867,242.50068 187.82953,242.31037 188.03125,242.125 C 188.24933,241.91783 188.47888,241.68683 188.71875,241.46875 C 188.98591,241.23433 189.2681,241.00478 189.5625,240.78125 C 189.69336,240.67767 189.83245,240.57779 189.96875,240.46875 C 190.14322,240.3488 190.31066,240.2395 190.46875,240.125 C 190.77407,239.91783 191.07913,239.74242 191.40625,239.5625 C 191.74427,239.37714 192.09802,239.17446 192.46875,239 C 192.89401,238.79283 193.34361,238.58617 193.8125,238.40625 C 194.72842,238.04097 195.73301,237.73443 196.8125,237.5 C 196.98151,237.46728 197.14747,237.43351 197.34375,237.40625 C 197.47459,237.37899 197.61916,237.36556 197.75,237.34375 L 198.03125,237.28125 L 198.28125,237.25 L 198.5,237.21875 C 198.76715,237.18059 199.03445,237.15226 199.3125,237.125 C 199.49787,237.10319 199.66383,237.10467 199.84375,237.09375 C 200.17086,237.07195 200.51516,237.03126 200.875,237.03125 z M 83.6875,237.4375 L 93.71875,237.4375 C 99.088931,237.4375 101.46875,240.25 101.46875,240.25 C 101.46875,240.25 103.65625,242.12962 103.65625,245.40625 C 103.65625,248.64471 102.1589,249.9919 101.75,250.40625 C 100.85589,251.30582 99.718753,251.84375 99.71875,251.84375 C 99.718748,251.84375 102.27493,252.37957 104.28125,254.375 C 106.6365,256.73025 106.4375,259.81251 106.4375,259.8125 C 106.4375,259.81249 106.62892,262.76097 104.09375,265.3125 C 100.97524,268.43101 95.281248,268.28124 95.28125,268.28125 L 83.6875,268.28125 L 83.6875,237.4375 z M 136.09375,237.4375 L 146.125,237.4375 C 151.5061,237.4375 153.875,240.25 153.875,240.25 C 153.875,240.25 156.0625,242.12963 156.0625,245.40625 C 156.0625,248.64472 154.58548,249.99191 154.1875,250.40625 C 153.28792,251.30583 152.125,251.84375 152.125,251.84375 C 152.12501,251.84375 154.67027,252.37958 156.6875,254.375 C 159.03183,256.73025 158.875,259.8125 158.875,259.8125 C 158.875,259.81249 159.04608,262.76642 156.5,265.3125 C 153.38693,268.43101 147.71876,268.28124 147.71875,268.28125 L 136.09375,268.28125 L 136.09375,237.4375 z M 89.21875,242.3125 L 89.21875,250.28125 L 91.875,250.28125 C 91.875002,250.28124 92.031921,250.29215 92.25,250.28125 C 92.435362,250.28125 92.669287,250.24601 92.84375,250.21875 C 93.394404,250.18604 94.159332,250.14467 94.90625,249.9375 C 95.053452,249.88843 95.191095,249.83577 95.34375,249.78125 C 95.921654,249.57407 96.495892,249.27446 96.9375,248.84375 C 97.286422,248.50027 97.513037,248.09493 97.6875,247.71875 C 97.861962,247.26625 97.926596,246.842 97.9375,246.53125 C 97.975667,246.2532 98,246.09375 98,246.09375 L 98,245.75 C 97.961833,245.40654 97.897597,244.82099 97.625,244.28125 C 97.488699,244.01411 97.296933,243.76569 97.0625,243.53125 C 96.746284,243.23139 96.392541,243.01276 96,242.84375 C 95.258532,242.52209 94.401708,242.38192 93.6875,242.34375 C 93.371287,242.32195 93.072732,242.3125 92.84375,242.3125 L 89.21875,242.3125 z M 141.625,242.3125 L 141.625,250.28125 L 144.25,250.28125 C 144.25,250.28124 144.45852,250.29215 144.6875,250.28125 C 144.88921,250.28125 145.08497,250.24601 145.28125,250.21875 C 145.83191,250.18604 146.56014,250.14467 147.3125,249.9375 C 147.46516,249.88843 147.60824,249.83577 147.75,249.78125 C 148.33881,249.57407 148.92249,249.27446 149.375,248.84375 C 149.71847,248.50027 149.94109,248.09493 150.09375,247.71875 C 150.27366,247.26625 150.33684,246.842 150.375,246.53125 C 150.3859,246.2532 150.40625,246.09375 150.40625,246.09375 C 150.40624,246.09376 150.38591,245.96263 150.375,245.75 C 150.37499,245.40652 150.30385,244.82099 150.03125,244.28125 C 149.90586,244.0141 149.72499,243.76568 149.46875,243.53125 C 149.17979,243.2314 148.82458,243.01276 148.4375,242.84375 C 147.69604,242.52209 146.8283,242.38191 146.125,242.34375 C 145.80335,242.32195 145.52113,242.3125 145.28125,242.3125 L 141.625,242.3125 z M 89.21875,255.09375 L 89.21875,263.5 L 94.6875,263.5 C 94.687502,263.50001 94.788836,263.5 94.96875,263.5 C 95.154116,263.5 95.41344,263.47965 95.71875,263.46875 C 96.318468,263.39788 97.085928,263.28749 97.84375,263.03125 C 98.525247,262.80771 99.200813,262.47578 99.71875,261.96875 C 99.915019,261.76702 100.05665,261.55093 100.1875,261.34375 C 100.6182,260.66227 100.72819,259.96992 100.75,259.59375 C 100.77181,259.41927 100.78125,259.34375 100.78125,259.34375 L 100.78125,259.125 C 100.75944,258.96143 100.73803,258.66143 100.65625,258.3125 C 100.54721,257.9145 100.36927,257.47286 100.03125,257.03125 C 99.976733,256.96036 99.888828,256.87792 99.8125,256.8125 C 99.65439,256.65983 99.518213,256.4855 99.34375,256.34375 C 99.032989,256.13657 98.672329,255.95026 98.3125,255.78125 C 97.821824,255.57408 97.261418,255.42154 96.65625,255.3125 C 96.367299,255.25252 96.030973,255.20931 95.6875,255.1875 C 95.480332,255.14932 95.264223,255.1359 95.0625,255.125 C 94.877129,255.1141 94.690819,255.09375 94.5,255.09375 L 89.21875,255.09375 z M 141.625,255.09375 L 141.625,263.5 L 147.09375,263.5 C 147.09374,263.50001 147.2169,263.5 147.375,263.5 C 147.56037,263.5 147.83458,263.47965 148.15625,263.46875 C 148.73415,263.39788 149.51797,263.28749 150.28125,263.03125 C 150.97365,262.80771 151.61797,262.47578 152.125,261.96875 C 152.32674,261.76702 152.50506,261.55093 152.625,261.34375 C 153.04481,260.66227 153.1657,259.96992 153.1875,259.59375 C 153.19841,259.41927 153.1875,259.34375 153.1875,259.34375 C 153.1875,259.34374 153.1875,259.2504 153.1875,259.125 C 153.1875,258.96143 153.17553,258.66143 153.09375,258.3125 C 152.99016,257.9145 152.79187,257.47286 152.4375,257.03125 C 152.36118,256.96036 152.30053,256.87792 152.21875,256.8125 C 152.07701,256.65983 151.89866,256.4855 151.71875,256.34375 C 151.41889,256.13657 151.08948,255.95026 150.71875,255.78125 C 150.22809,255.57408 149.68948,255.42154 149.0625,255.3125 C 148.77353,255.25252 148.43177,255.20931 148.09375,255.1875 C 147.88113,255.14932 147.69228,255.1359 147.46875,255.125 C 147.27248,255.1141 147.07127,255.09375 146.875,255.09375 L 141.625,255.09375 z M 206.03125,284.375 C 194.56034,284.37497 187.03125,292.75987 187.03125,302.5625 C 187.03125,312.16343 194.33174,320.71875 205.90625,320.71875 C 217.89514,320.71876 225.0625,312.10888 225.0625,302.5625 C 225.0625,292.71628 217.70936,284.375 206.03125,284.375 z M 114,284.65625 L 98.90625,320 C 96.647109,316.887 95.726095,315.61703 94.25,313.25 C 91.56219,308.84482 89.602562,305.5474 86.375,303.4375 C 90.164109,301.92185 92.28125,298.88113 92.28125,294.78125 C 92.281251,288.65869 87.845926,284.84375 80.6875,284.84375 L 71.75,284.84375 L 71.75,320.25 L 76.84375,320.25 L 76.84375,304.875 L 78.96875,304.875 C 81.580242,304.87499 83.697217,305.73798 88.375,313 L 93.03125,320.25 L 99.09375,320.25 L 104,320.25 L 108.46875,309.8125 L 123.5,309.8125 L 128.21875,320.25 L 133.40625,320.25 L 117.59375,284.65625 L 114,284.65625 z M 137.625,284.84375 L 137.625,320.25 L 151.4375,320.25 C 163.12651,320.25002 170.21875,311.61421 170.21875,302.53125 C 170.21874,294.1843 164.4488,284.84375 151.375,284.84375 L 137.625,284.84375 z M 176.09375,284.84375 L 176.09375,320.25 L 181.15625,320.25 L 181.15625,284.84375 L 176.09375,284.84375 z M 383.53125,288.59375 L 383.53125,385.59375 L 415.40625,337.03125 L 383.53125,288.59375 z M 206.03125,289.0625 C 213.97478,289.06248 219.84375,294.78255 219.84375,302.5625 C 219.84375,310.28796 213.97476,316.0625 206.03125,316.0625 C 198.14228,316.0625 192.28125,310.28793 192.28125,302.5625 C 192.28126,294.78258 198.14226,289.0625 206.03125,289.0625 z M 76.8125,289.21875 L 80.09375,289.21875 C 85.016872,289.21873 86.987634,291.2368 87.03125,294.5625 C 87.091215,297.51747 85.534808,300.3125 80.09375,300.3125 L 76.8125,300.3125 L 76.8125,289.21875 z M 142.71875,289.4375 L 150.53125,289.4375 C 160.44837,289.43749 164.96875,295.45314 164.96875,302.5625 C 164.96875,306.9132 162.32705,315.6875 150.8125,315.6875 L 142.71875,315.6875 L 142.71875,289.4375 z M 115.71875,292.4375 L 121.4375,305.25 L 110.4375,305.25 L 115.71875,292.4375 z M 499.5,293.5625 L 499.5,321.1875 L 489.90625,321.1875 L 489.90625,337.25 L 499.5,337.25 L 499.5,396.03125 L 518.21875,396.03125 L 518.21875,337.25 L 529.375,337.25 L 529.375,321.1875 L 518.21875,321.1875 L 518.21875,293.5625 L 499.5,293.5625 z M 477.625,315.34375 C 477.59774,315.40371 463.375,337 463.375,337 C 463.37502,337.00002 470.68505,348.2321 477.5,358.65625 C 478.92842,351.54689 479.6875,344.19086 479.6875,336.65625 C 479.6875,329.37243 478.94438,322.25139 477.625,315.34375 z M 567.78125,319.21875 C 561.57693,319.21877 555.54777,322.8614 552.03125,330.625 L 552.03125,321.1875 L 535.8125,321.1875 L 535.8125,396.03125 L 554.5625,396.03125 L 554.5625,365.75 C 554.5625,361.66103 554.54575,356.99522 554.6875,352.90625 C 555.10186,341.91509 559.33913,335.71875 564.6875,335.71875 C 566.65569,335.71873 568.76999,336.54125 570.1875,337.25 L 575.96875,321.1875 C 574.1424,320.33155 571.72847,319.21875 567.78125,319.21875 z M 606,319.21875 C 586.55284,319.21877 570.78125,335.29314 570.78125,358.6875 C 570.78126,381.67299 587.42651,398 606.4375,398 C 615.89118,398 622.90167,394.60194 629.53125,388.125 L 629.53125,396.03125 L 648.28125,396.03125 L 648.28125,321.1875 L 629.53125,321.1875 L 629.53125,329.375 C 622.76534,322.6091 615.02299,319.21875 606,319.21875 z M 609.8125,336.40625 C 621.65413,336.40626 630.40625,345.29974 630.40625,358.40625 C 630.4117,372.07976 621.37066,380.8125 609.8125,380.8125 C 598.11257,380.8125 589.65625,371.38006 589.65625,358.5625 C 589.65629,346.29558 597.40383,336.40625 609.8125,336.40625 z"
           id="path3430"
           style="fill:#000000;fill-opacity:1;fill-rule:evenodd" />
      </g>
    </g>
  </g>
</svg>
