<?xml version="1.0" encoding="UTF-8" standalone="no"?>
<!-- Created with Inkscape (http://www.inkscape.org/) -->
<svg
   xmlns:dc="http://purl.org/dc/elements/1.1/"
   xmlns:cc="http://web.resource.org/cc/"
   xmlns:rdf="http://www.w3.org/1999/02/22-rdf-syntax-ns#"
   xmlns:svg="http://www.w3.org/2000/svg"
   xmlns="http://www.w3.org/2000/svg"
   xmlns:sodipodi="http://sodipodi.sourceforge.net/DTD/sodipodi-0.dtd"
   xmlns:inkscape="http://www.inkscape.org/namespaces/inkscape"
   width="155"
   height="143"
   id="svg2"
   sodipodi:version="0.32"
   inkscape:version="0.45.1"
   version="1.0"
   inkscape:output_extension="org.inkscape.output.svg.inkscape">
  <g
     inkscape:label="Layer 1"
     inkscape:groupmode="layer"
     id="layer1"
     transform="translate(-377.64663,-224.03363)">
    <g
       id="g5405"
       clip-path="url(#id2246)"
       transform="matrix(9.0483422,0,0,-9.0483422,-8120.3754,2653.043)">
      <g
         id="g5407"
         clip-path="url(#id2247)">
        <path
           id="path5409"
           d="M 941.4,268.448 L 954.09,268.448 C 955.32,268.448 956.31,267.454 956.31,266.227 L 956.31,254.865 C 956.31,253.638 955.32,252.644 954.09,252.644 L 941.4,252.644 C 940.17,252.644 939.18,253.638 939.18,254.865 L 939.18,266.227 C 939.18,267.454 940.17,268.448 941.4,268.448"
           style="fill:#fab017;fill-rule:nonzero;stroke:none" />
        <path
           id="path5411"
           d="M 943.18,254.943 L 944.11,254.943 L 944.11,255.979 L 946.25,255.979 L 946.25,256.684 L 944.11,256.684 L 944.11,257.251 L 946.35,257.251 L 946.35,257.981 L 943.18,257.981 L 943.18,254.943"
           style="fill:#221e1f;fill-rule:nonzero;stroke:none" />
        <path
           id="path5413"
           d="M 946.75,254.969 L 947.57,254.969 L 947.57,257.151 L 948.68,254.969 L 949.3,254.969 L 950.41,257.151 L 950.41,254.969 L 951.23,254.969 L 951.23,258.007 L 949.94,258.007 L 948.99,256.051 L 948.04,258.007 L 946.75,258.007 L 946.75,254.969"
           style="fill:#221e1f;fill-rule:nonzero;stroke:none" />
        <path
           id="path5415"
           d="M 953.81,257.251 L 953.81,256.231 L 952.26,256.231 L 952.26,256.239 L 953.81,257.251 z M 951.57,255.551 L 953.81,255.551 L 953.81,254.943 L 954.65,254.943 L 954.65,255.551 L 955.08,255.551 L 955.08,256.231 L 954.65,256.231 L 954.65,257.981 L 953.63,257.981 L 951.57,256.663 L 951.57,255.551"
           style="fill:#221e1f;fill-rule:evenodd;stroke:none" />
        <path
           id="path5417"
           d="M 943.25,258.693 L 943.42,258.693 L 943.42,259.327 C 943.42,259.457 943.5,259.57 943.68,259.57 L 943.78,259.57 C 944.08,259.57 944.13,259.531 944.13,259.284 L 944.13,259.241 L 944.29,259.241 L 944.29,259.361 C 944.29,259.606 944.19,259.707 943.87,259.707 L 943.71,259.707 C 943.6,259.707 943.47,259.676 943.41,259.547 L 943.4,259.547 L 943.4,259.692 L 943.25,259.692 L 943.25,258.693"
           style="fill:#221e1f;fill-rule:nonzero;stroke:none" />
        <path
           id="path5419"
           stroke-miterlimit="3.864"
           d="M 943.25,258.693 L 943.42,258.693 L 943.42,259.327 C 943.42,259.457 943.5,259.57 943.68,259.57 L 943.78,259.57 C 944.08,259.57 944.13,259.531 944.13,259.284 L 944.13,259.241 L 944.29,259.241 L 944.29,259.361 C 944.29,259.606 944.19,259.707 943.87,259.707 L 943.71,259.707 C 943.6,259.707 943.47,259.676 943.41,259.547 L 943.4,259.547 L 943.4,259.692 L 943.25,259.692 L 943.25,258.693 z "
           style="fill:none;stroke:#221e1f;stroke-width:0.049;stroke-linecap:butt;stroke-linejoin:miter;stroke-miterlimit:3.86400008" />
        <path
           id="path5421"
           d="M 945.63,258.961 C 945.63,258.836 945.51,258.814 945.21,258.814 L 944.99,258.814 C 944.75,258.814 944.72,258.861 944.72,258.973 L 944.72,259.004 C 944.72,259.13 944.78,259.161 944.99,259.161 L 945.25,259.161 C 945.51,259.161 945.63,259.143 945.63,259.006 L 945.63,258.961 z M 945.63,258.693 L 945.8,258.693 L 945.8,259.363 C 945.8,259.66 945.59,259.707 945.27,259.707 L 945.01,259.707 C 944.71,259.707 944.59,259.633 944.59,259.451 L 944.59,259.402 L 944.76,259.402 L 944.76,259.437 C 944.76,259.519 944.8,259.57 945.01,259.57 L 945.26,259.57 C 945.52,259.57 945.63,259.547 945.63,259.367 L 945.63,259.179 C 945.57,259.275 945.49,259.298 945.27,259.298 L 945,259.298 C 944.71,259.298 944.55,259.271 944.55,259.043 L 944.55,258.977 C 944.55,258.789 944.61,258.677 944.87,258.677 L 945.27,258.677 C 945.53,258.677 945.58,258.703 945.63,258.793 L 945.63,258.693"
           style="fill:#221e1f;fill-rule:evenodd;stroke:none" />
        <path
           id="path5423"
           stroke-miterlimit="3.864"
           d="M 945.63,258.961 C 945.63,258.836 945.51,258.814 945.21,258.814 L 944.99,258.814 C 944.75,258.814 944.72,258.861 944.72,258.973 L 944.72,259.004 C 944.72,259.13 944.78,259.161 944.99,259.161 L 945.25,259.161 C 945.51,259.161 945.63,259.143 945.63,259.006 L 945.63,258.961 z M 945.63,258.693 L 945.8,258.693 L 945.8,259.363 C 945.8,259.66 945.59,259.707 945.27,259.707 L 945.01,259.707 C 944.71,259.707 944.59,259.633 944.59,259.451 L 944.59,259.402 L 944.76,259.402 L 944.76,259.437 C 944.76,259.519 944.8,259.57 945.01,259.57 L 945.26,259.57 C 945.52,259.57 945.63,259.547 945.63,259.367 L 945.63,259.179 C 945.57,259.275 945.49,259.298 945.27,259.298 L 945,259.298 C 944.71,259.298 944.55,259.271 944.55,259.043 L 944.55,258.977 C 944.55,258.789 944.61,258.677 944.87,258.677 L 945.27,258.677 C 945.53,258.677 945.58,258.703 945.63,258.793 L 945.63,258.693 z "
           style="fill:none;stroke:#221e1f;stroke-width:0.049;stroke-linecap:butt;stroke-linejoin:miter;stroke-miterlimit:3.86400008" />
        <path
           id="path5425"
           d="M 947.44,260.111 L 947.27,260.111 L 947.27,259.559 C 947.23,259.662 947.14,259.707 946.95,259.707 L 946.69,259.707 C 946.29,259.707 946.16,259.594 946.16,259.275 L 946.16,259.098 C 946.16,258.753 946.38,258.677 946.68,258.677 L 946.92,258.677 C 947.09,258.677 947.23,258.73 947.28,258.851 L 947.28,258.693 L 947.44,258.693 L 947.44,260.111 z M 946.33,259.296 C 946.33,259.527 946.45,259.57 946.68,259.57 L 946.91,259.57 C 947.13,259.57 947.27,259.531 947.27,259.292 L 947.27,259.102 C 947.27,258.92 947.19,258.814 946.94,258.814 L 946.67,258.814 C 946.39,258.814 946.33,258.906 946.33,259.1 L 946.33,259.296"
           style="fill:#221e1f;fill-rule:evenodd;stroke:none" />
        <path
           id="path5427"
           stroke-miterlimit="3.864"
           d="M 947.44,260.111 L 947.27,260.111 L 947.27,259.559 C 947.23,259.662 947.14,259.707 946.95,259.707 L 946.69,259.707 C 946.29,259.707 946.16,259.594 946.16,259.275 L 946.16,259.098 C 946.16,258.753 946.38,258.677 946.68,258.677 L 946.92,258.677 C 947.09,258.677 947.23,258.73 947.28,258.851 L 947.28,258.693 L 947.44,258.693 L 947.44,260.111 z M 946.33,259.296 C 946.33,259.527 946.45,259.57 946.68,259.57 L 946.91,259.57 C 947.13,259.57 947.27,259.531 947.27,259.292 L 947.27,259.102 C 947.27,258.92 947.19,258.814 946.94,258.814 L 946.67,258.814 C 946.39,258.814 946.33,258.906 946.33,259.1 L 946.33,259.296 z "
           style="fill:none;stroke:#221e1f;stroke-width:0.049;stroke-linecap:butt;stroke-linejoin:miter;stroke-miterlimit:3.86400008" />
        <path
           id="path5429"
           d="M 947.89,259.927 L 948.05846,259.927 L 948.05846,260.11117 L 947.89,260.11117 L 947.89,259.927 z M 947.89,258.693 L 948.06,258.693 L 948.06,259.692 L 947.89,259.692 L 947.89,258.693"
           style="fill:#221e1f;fill-rule:evenodd;stroke:none" />
        <path
           id="path5431"
           stroke-miterlimit="3.864"
           d="M 947.89,259.927 L 948.05846,259.927 L 948.05846,260.11117 L 947.89,260.11117 L 947.89,259.927 z M 947.89,258.693 L 948.05846,258.693 L 948.05846,259.69202 L 947.89,259.69202 L 947.89,258.693 z "
           style="fill:none;stroke:#221e1f;stroke-width:0.049;stroke-linecap:butt;stroke-linejoin:miter;stroke-miterlimit:3.86400008" />
        <path
           id="path5433"
           d="M 949.65,259.092 C 949.65,258.859 949.51,258.814 949.32,258.814 L 948.97,258.814 C 948.78,258.814 948.64,258.859 948.64,259.092 L 948.64,259.292 C 948.64,259.525 948.78,259.57 948.97,259.57 L 949.32,259.57 C 949.51,259.57 949.65,259.525 949.65,259.292 L 949.65,259.092 z M 948.47,259.083 C 948.47,258.753 948.7,258.677 949.02,258.677 L 949.26,258.677 C 949.58,258.677 949.82,258.753 949.82,259.083 L 949.82,259.302 C 949.82,259.631 949.58,259.707 949.26,259.707 L 949.02,259.707 C 948.7,259.707 948.47,259.631 948.47,259.302 L 948.47,259.083"
           style="fill:#221e1f;fill-rule:evenodd;stroke:none" />
        <path
           id="path5435"
           stroke-miterlimit="3.864"
           d="M 949.65,259.092 C 949.65,258.859 949.51,258.814 949.32,258.814 L 948.97,258.814 C 948.78,258.814 948.64,258.859 948.64,259.092 L 948.64,259.292 C 948.64,259.525 948.78,259.57 948.97,259.57 L 949.32,259.57 C 949.51,259.57 949.65,259.525 949.65,259.292 L 949.65,259.092 z M 948.47,259.083 C 948.47,258.753 948.7,258.677 949.02,258.677 L 949.26,258.677 C 949.58,258.677 949.82,258.753 949.82,259.083 L 949.82,259.302 C 949.82,259.631 949.58,259.707 949.26,259.707 L 949.02,259.707 C 948.7,259.707 948.47,259.631 948.47,259.302 L 948.47,259.083 z "
           style="fill:none;stroke:#221e1f;stroke-width:0.049;stroke-linecap:butt;stroke-linejoin:miter;stroke-miterlimit:3.86400008" />
      </g>
    </g>
  </g>
</svg>
