<?xml version="1.0" encoding="UTF-8" standalone="no"?>
<!-- Created with Inkscape (http://www.inkscape.org/) -->
<svg
   xmlns:svg="http://www.w3.org/2000/svg"
   xmlns="http://www.w3.org/2000/svg"
   version="1.0"
   width="566.92914"
   height="212.59842"
   id="svg1879">
  <defs
     id="defs1881" />
  <g
     id="layer1">
    <g
       transform="matrix(3.543307e-5,0,0,3.543307e-5,-1.063548e-4,-1.938241e-3)"
       style="fill-rule:evenodd"
       id="Ebene_x0020_1">
      <path
         d="M 9951170,1365630 L 9951170,4218550 L 9439980,4218550 L 8046910,2317540 L 8046910,4218550 L 7488520,4218550 L 7488520,1365630 L 7999750,1365630 L 9392650,3256030 L 9392650,1365630 L 9951170,1365630 L 9951170,1365630 z M 12753800,1365630 L 12753800,1818220 L 11206020,1818220 L 11206020,2592320 L 12524040,2592320 L 12524040,3045030 L 11206020,3045030 L 11206020,4218550 L 10610060,4218550 L 10610060,1365630 L 12753800,1365630 L 12753800,1365630 z M 15178410,1601350 C 14927530,1382200 14633060,1291720 14265930,1291720 C 13895560,1291720 13601370,1387920 13350450,1606940 C 13018090,1897970 13018540,2320860 13018540,2757000 L 13018540,2839340 C 13018540,3296790 13036850,3697360 13356330,4002530 C 13597350,4232860 13895560,4302590 14265930,4302590 C 14633060,4302590 14916390,4224270 15178410,3983400 C 15507770,3680340 15499910,3313940 15499910,2805580 L 15499910,2763850 C 15499910,2255660 15515230,1896270 15178410,1601350 L 15178410,1601350 z M 14720380,3671910 C 14611180,3781680 14449780,3836310 14265930,3836310 C 14081670,3836310 13914280,3780100 13807060,3672190 C 13663530,3532510 13632530,3377390 13632530,2798170 C 13632530,2218780 13663530,2063660 13806650,1924430 C 13914560,1815910 14081840,1753750 14265930,1753750 C 14449490,1753750 14610730,1814370 14720100,1924150 L 14719980,1924150 C 14720100,1924150 14720100,1924150 14720260,1924430 C 14856780,2057380 14899370,2195600 14899370,2798170 C 14899370,3401140 14856780,3539240 14720380,3671910 z M 6227670,1695440 L 6823670,1695440 L 6823670,1365550 L 6227670,1365550 L 6227670,1695440 z M 6823670,2160590 C 6823670,2214610 6823670,4218550 6823670,4218550 L 6227670,4218550 C 6227670,4218550 6227670,2214610 6227670,2160590 C 6276700,2160590 6774480,2160590 6823670,2160590 z M 14720260,1924430 C 14720100,1924430 14720100,1924150 14720100,1924150 L 14720380,1924590 C 14720260,1924430 14720260,1924430 14720260,1924430 z "
         style="fill:#00676d"
         id="path10" />
      <path
         d="M 1056080,572530 L 1055790,1776610 C 1055790,1776610 1434030,1697830 1766430,1701270 C 2319070,1706700 2595960,2003890 2615570,2391730 C 2620550,2490360 2619540,2544700 2619540,2650790 L 2619540,4218550 L 2036590,4218550 L 2036590,2617320 C 2036590,2421350 2049150,2177900 1608880,2180040 C 1295240,2181460 1073780,2241800 1073780,2241800 L 1073780,4218550 L 504970,4218550 L 504970,608840 L 1056080,572530 L 1056080,572530 z M 4618740,1698280 C 4611730,1696980 4098400,1710150 3795210,1779770 C 3441530,1860530 3214810,2074240 3183080,2400770 C 3176920,2463500 3174090,2503410 3174090,2646780 L 3174090,4218550 L 3756470,4218550 L 3756310,2611480 C 3756310,2470390 3767450,2380870 3859520,2298250 C 3963900,2204600 4202170,2191030 4338290,2179880 C 4431770,2172300 4618740,2163590 4618740,2163590 L 4618740,1698280 z M 3698400,5426360 C 2630560,5444960 1336410,5250080 499990,4889150 L 500110,4563920 C 1379160,4936890 2574800,5134310 3642680,5116000 C 4794730,5095980 5994100,4902280 6824520,4576200 L 6824520,4891710 C 5895470,5222080 4843480,5406900 3698400,5426360 L 3698400,5426360 z "
         style="fill:#007dc5"
         id="path12" />
    </g>
  </g>
</svg>
