<?xml version="1.0" encoding="UTF-8" standalone="no"?>
<!-- Created with Inkscape (http://www.inkscape.org/) -->
<svg
   xmlns:svg="http://www.w3.org/2000/svg"
   xmlns="http://www.w3.org/2000/svg"
   version="1.0"
   width="581.98816"
   height="248.03149"
   id="svg4069">
  <defs
     id="defs4071" />
  <g
     transform="translate(-19.71875,-182.15158)"
     id="layer1">
    <g
       transform="matrix(0.5544991,0,0,0.5544991,26.493737,193.57802)"
       id="g4127">
      <rect
         width="224.3526"
         height="276.17157"
         x="408.66327"
         y="61.913158"
         id="rect4125"
         style="opacity:1;fill:#ffffff;fill-opacity:1;fill-rule:nonzero;stroke:none;marker:none;marker-start:none;marker-mid:none;marker-end:none;visibility:visible;display:inline;overflow:visible" />
      <path
         d="M 19.71875,23.15625 L 19.71875,96.28125 L 97.4375,96.28125 L 97.4375,23.15625 L 19.71875,23.15625 z M 109.3125,23.15625 L 109.3125,96.28125 L 187.03125,96.28125 L 187.03125,23.15625 L 109.3125,23.15625 z M 198.84375,23.15625 L 198.84375,96.28125 L 276.5625,96.28125 L 276.5625,23.15625 L 198.84375,23.15625 z M 240.3125,32.75 C 240.62775,32.75 240.81473,32.750001 241.15625,32.75 C 241.84805,32.75 242.55066,32.791208 243.3125,32.84375 C 243.71532,32.861264 244.13341,32.88496 244.5625,32.9375 C 245.17549,32.981285 245.74827,33.03743 246.34375,33.125 L 246.78125,33.15625 C 247.11401,33.226306 247.47098,33.304943 247.8125,33.375 C 248.22408,33.427542 248.61969,33.488666 249.03125,33.59375 C 249.4691,33.663806 249.86468,33.747425 250.25,33.84375 C 250.48644,33.905049 250.72734,33.964974 250.9375,34 C 251.3053,34.096327 251.67719,34.216175 252.0625,34.3125 C 252.32521,34.382556 252.63479,34.434921 252.90625,34.53125 L 253.15625,34.625 C 253.4715,34.703812 253.79601,34.796187 254.09375,34.875 C 254.4703,34.98884 254.83346,35.118643 255.21875,35.25 C 255.55152,35.355083 255.88101,35.474932 256.1875,35.5625 C 256.57281,35.720126 256.92223,35.837395 257.28125,35.96875 C 257.903,36.196431 258.47337,36.396117 258.9375,36.5625 C 259.9971,36.974077 260.59375,37.218748 260.59375,37.21875 L 260.59375,47.03125 L 259.59375,46.46875 C 259.2172,46.26734 258.74795,45.990215 258.1875,45.71875 C 257.88976,45.561125 257.54653,45.371395 257.1875,45.1875 C 256.74965,45.003604 256.30788,44.772667 255.84375,44.5625 C 255.24828,44.282277 254.65677,44.021465 254,43.75 C 253.53588,43.574861 253.01786,43.371397 252.5625,43.1875 C 252.5625,43.1875 252.23918,43.116417 251.6875,42.90625 C 251.35473,42.81868 250.95038,42.688877 250.46875,42.53125 C 250.1535,42.41741 249.78777,42.297562 249.4375,42.21875 C 248.81576,42.061124 248.16433,41.92514 247.4375,41.75 C 246.99089,41.679944 246.49914,41.587571 246,41.5 C 245.41328,41.403673 244.78297,41.351307 244.1875,41.28125 C 243.85474,41.246222 243.51528,41.231285 243.15625,41.1875 C 242.6571,41.169986 242.18168,41.173765 241.65625,41.15625 C 241.41981,41.15625 241.18269,41.156251 240.9375,41.15625 C 240.2457,41.15625 239.55685,41.188701 238.8125,41.25 C 238.41844,41.267514 238.04157,41.308722 237.65625,41.34375 C 237.26219,41.405048 236.91656,41.452437 236.53125,41.53125 C 236.19849,41.583791 235.81903,41.679945 235.46875,41.75 C 235.13598,41.846326 234.76527,41.94368 234.40625,42.03125 C 234.03845,42.14509 233.66276,42.261159 233.3125,42.375 C 232.96222,42.506354 232.62278,42.596154 232.28125,42.71875 C 231.93973,42.841348 231.62278,42.998624 231.28125,43.15625 C 229.16207,44.119516 227.10269,45.491051 225.28125,47.3125 C 225.15865,47.435097 225.03761,47.587398 224.90625,47.71875 C 224.66106,47.955188 224.44643,48.223557 224.21875,48.46875 C 224.05237,48.67016 223.90761,48.869846 223.75,49.0625 C 223.32966,49.622945 222.97152,50.189557 222.65625,50.75 C 222.48987,51.003952 222.34135,51.268539 222.21875,51.53125 C 222.06112,51.864014 221.86762,52.189729 221.71875,52.53125 C 221.61366,52.785202 221.50756,53.036056 221.4375,53.28125 C 221.28863,53.666556 221.1626,54.015966 221.03125,54.375 C 220.90865,54.769064 220.79757,55.132207 220.71875,55.5 C 220.57864,56.069203 220.46755,56.594604 220.40625,57.09375 C 220.30117,57.925661 220.23625,58.667062 220.21875,59.21875 L 220.21875,59.84375 C 220.21875,60.13273 220.23249,60.489693 220.25,60.875 C 220.26751,61.137709 220.25994,61.403498 220.3125,61.71875 C 220.39131,62.533148 220.54481,63.497927 220.78125,64.53125 C 220.88634,64.890285 220.99364,65.288453 221.125,65.65625 C 221.28262,66.137883 221.42858,66.625854 221.65625,67.125 C 221.77885,67.422737 221.89989,67.702265 222.03125,68 C 222.20639,68.350279 222.40608,68.720975 222.625,69.0625 C 222.75636,69.333965 222.89611,69.536057 223.0625,69.78125 C 223.22889,70.017688 223.38736,70.268538 223.5625,70.53125 C 223.75515,70.767688 223.97235,71.018538 224.15625,71.28125 C 224.55032,71.727855 224.95965,72.187148 225.40625,72.625 L 225.53125,72.75 L 225.625,72.84375 L 225.78125,73 L 226.09375,73.28125 C 226.35646,73.465146 226.64852,73.709823 226.9375,73.9375 C 227.20021,74.13891 227.47854,74.364864 227.75,74.53125 C 227.9952,74.715146 228.24982,74.887357 228.46875,75.0625 C 228.71394,75.185097 228.92857,75.314904 229.15625,75.4375 C 229.63788,75.717723 230.12585,75.95982 230.625,76.1875 C 230.87895,76.283826 231.09357,76.38616 231.3125,76.5 C 231.46137,76.552542 231.57864,76.612468 231.71875,76.65625 C 231.92016,76.735062 232.13857,76.836198 232.375,76.90625 C 233.76736,77.414154 235.21136,77.768539 236.65625,78.03125 C 237.57574,78.162605 238.41432,78.291205 239.28125,78.34375 C 240.04311,78.405049 240.75945,78.437503 241.46875,78.4375 C 241.81903,78.4375 242.17719,78.392511 242.5625,78.375 C 243.11419,78.357486 243.7457,78.320053 244.4375,78.25 C 244.90162,78.214973 245.36213,78.141315 245.84375,78.0625 C 246.05392,78.044986 246.27232,78.003781 246.5,77.96875 C 248.24264,77.635985 250.23452,77.15437 252.40625,76.375 C 253.5359,75.97218 254.7378,75.484208 255.9375,74.90625 C 256.65557,74.547215 257.39816,74.180291 258.125,73.8125 C 258.78177,73.435951 259.40195,73.036574 260.09375,72.625 L 260.78125,72.25 C 260.88633,72.179945 261.02488,72.096325 261.15625,72 L 261.15625,82 C 260.9636,82.061298 260.80511,82.148696 260.65625,82.21875 C 260.23591,82.411403 259.79653,82.619849 259.4375,82.8125 C 259.00841,82.996396 258.62158,83.168608 258.21875,83.34375 C 257.597,83.623972 256.99537,83.838598 256.53125,84.03125 C 256.17222,84.153848 255.87518,84.269919 255.65625,84.375 L 255.21875,84.5 C 254.75463,84.666383 254.28038,84.837399 253.78125,84.96875 C 253.35216,85.126376 252.95536,85.212396 252.5,85.34375 C 251.88701,85.483861 251.2543,85.663634 250.5625,85.8125 C 250.14217,85.891312 249.68288,86.001205 249.21875,86.0625 C 248.49193,86.211369 247.75189,86.309923 246.9375,86.40625 C 246.42084,86.476306 245.8817,86.541205 245.3125,86.59375 L 245.03125,86.625 C 243.64765,86.73884 242.13755,86.812499 240.5,86.8125 L 239.875,86.8125 C 239.42839,86.777472 238.96411,86.753781 238.5,86.71875 C 237.60679,86.674966 236.73816,86.61384 235.90625,86.5 C 235.04806,86.421188 234.20312,86.273865 233.40625,86.125 C 232.44298,85.92359 231.47324,85.682695 230.5625,85.4375 C 230.03709,85.288632 229.56164,85.15265 229.0625,84.96875 C 228.56336,84.811125 228.05786,84.621394 227.59375,84.4375 C 226.35902,83.929596 225.21207,83.381704 224.1875,82.8125 C 223.68835,82.506006 223.1954,82.186471 222.6875,81.90625 C 222.25841,81.626027 221.87158,81.360235 221.46875,81.0625 C 221.1535,80.826062 220.84273,80.571428 220.5625,80.34375 C 220.23849,80.107312 219.93648,79.835166 219.65625,79.625 C 219.25343,79.257208 218.9078,78.90402 218.53125,78.5625 L 218.34375,78.375 C 217.93217,77.97218 217.51905,77.526617 217.125,77.0625 C 216.77472,76.677193 216.40901,76.295335 216.09375,75.875 C 215.76974,75.47218 215.49399,75.049114 215.1875,74.59375 C 214.95982,74.260985 214.71396,73.904025 214.46875,73.5625 C 214.2148,73.107138 213.95896,72.677886 213.6875,72.1875 C 213.26716,71.373102 212.83655,70.518212 212.46875,69.625 C 212.24107,69.073311 212.01392,68.492967 211.8125,67.90625 C 211.65487,67.407103 211.49261,66.905398 211.34375,66.40625 C 211.26493,66.012187 211.1638,65.60406 211.09375,65.21875 C 211.05872,65.01734 211.03503,64.857661 211,64.65625 C 210.91243,64.192131 210.82881,63.686647 210.75,63.1875 L 210.71875,62.90625 C 210.68373,62.485916 210.62877,62.045333 210.59375,61.625 C 210.57624,61.213423 210.5625,60.83534 210.5625,60.40625 C 210.5625,59.854562 210.58998,59.301688 210.625,58.75 C 210.6863,58.040686 210.73369,57.348049 210.8125,56.65625 C 211.10148,54.519552 211.64817,52.485255 212.375,50.59375 C 212.97923,49.078796 213.66808,47.657295 214.5,46.34375 C 214.60508,46.124826 214.73987,45.906424 214.90625,45.6875 C 215.11641,45.354736 215.2998,45.033999 215.5625,44.71875 C 215.86024,44.307173 216.14096,43.916556 216.5,43.53125 C 216.77147,43.163457 217.09598,42.796535 217.4375,42.4375 C 217.70021,42.06095 218.05975,41.721499 218.375,41.40625 C 218.76907,41.064729 219.15093,40.671536 219.5625,40.3125 C 220.02662,39.944708 220.4696,39.524044 220.96875,39.15625 C 221.21394,38.963597 221.4423,38.83139 221.6875,38.65625 C 221.97648,38.437326 222.28228,38.223903 222.5625,38.03125 C 223.07916,37.689729 223.61331,37.37775 224.15625,37.0625 C 224.75173,36.720978 225.32949,36.409 225.96875,36.09375 C 226.68682,35.743472 227.49812,35.404022 228.3125,35.0625 C 229.87124,34.467026 231.54977,33.947807 233.40625,33.5625 C 233.68647,33.501202 233.9885,33.418786 234.3125,33.375 C 234.51391,33.322458 234.74981,33.293784 234.96875,33.25 L 235.46875,33.15625 L 235.90625,33.125 L 236.28125,33.09375 C 236.74537,33.014937 237.19213,32.981286 237.65625,32.9375 C 237.96274,32.902472 238.26973,32.870022 238.59375,32.84375 C 239.13668,32.808722 239.71703,32.767515 240.3125,32.75 z M 40.125,33.40625 L 57.25,33.40625 C 66.436052,33.40625 70.500001,38.21875 70.5,38.21875 C 70.5,38.21875 74.218747,41.449286 74.21875,47.0625 C 74.21875,52.596899 71.695574,54.884437 70.96875,55.59375 C 69.462552,57.108704 67.500001,58.03125 67.5,58.03125 C 67.5,58.03125 71.848518,58.959787 75.28125,62.375 C 79.300695,66.403202 79.000003,71.625002 79,71.625 C 79,71.625 79.303444,76.679038 74.96875,81.03125 C 69.635761,86.355482 59.968752,86.093752 59.96875,86.09375 L 40.125,86.09375 L 40.125,33.40625 z M 129.6875,33.40625 L 146.78125,33.40625 C 155.97606,33.40625 160.0625,38.21875 160.0625,38.21875 C 160.0625,38.21875 163.78125,41.449286 163.78125,47.0625 C 163.78125,52.596899 161.23181,54.884437 160.53125,55.59375 C 158.99878,57.108704 157.03125,58.03125 157.03125,58.03125 C 157.03125,58.03125 161.3935,58.959787 164.84375,62.375 C 168.8632,66.403202 168.5625,71.625002 168.5625,71.625 C 168.5625,71.625 168.89222,76.679038 164.53125,81.03125 C 159.20702,86.355482 149.53125,86.093752 149.53125,86.09375 L 129.6875,86.09375 L 129.6875,33.40625 z M 49.5625,41.78125 L 49.5625,55.375 L 54.09375,55.375 C 54.093751,55.374999 54.395944,55.392514 54.78125,55.375 C 55.0965,55.374998 55.49725,55.347528 55.8125,55.3125 C 56.731981,55.259958 58.033983,55.131529 59.3125,54.78125 C 59.57521,54.702439 59.799792,54.601305 60.0625,54.53125 C 61.060794,54.163457 62.036909,53.650591 62.78125,52.90625 C 63.402993,52.310778 63.782277,51.652994 64.0625,51.03125 C 64.377748,50.251881 64.496223,49.507904 64.53125,49 C 64.575037,48.483341 64.59375,48.21875 64.59375,48.21875 L 64.59375,47.625 C 64.532453,47.047043 64.401619,46.058216 63.9375,45.15625 C 63.709818,44.70089 63.411577,44.246571 63,43.84375 C 62.474582,43.362118 61.861786,42.985236 61.1875,42.6875 C 59.908985,42.135812 58.462239,41.882556 57.21875,41.8125 C 56.693333,41.777474 56.197807,41.78125 55.8125,41.78125 L 49.5625,41.78125 z M 139.125,41.78125 L 139.125,55.375 L 143.625,55.375 C 143.62499,55.374999 143.93217,55.392514 144.34375,55.375 C 144.68527,55.374998 145.02472,55.347528 145.375,55.3125 C 146.29448,55.259958 147.57399,55.131529 148.84375,54.78125 C 149.10645,54.702439 149.37483,54.601305 149.59375,54.53125 C 150.60956,54.163457 151.56438,53.650591 152.34375,52.90625 C 152.93047,52.310778 153.29979,51.652994 153.5625,51.03125 C 153.89526,50.251881 154.00996,49.507904 154.0625,49 C 154.08003,48.483341 154.09375,48.21875 154.09375,48.21875 C 154.09374,48.218752 154.09375,47.992793 154.09375,47.625 C 154.07622,47.047043 153.94163,46.058216 153.46875,45.15625 C 153.24106,44.70089 152.94661,44.246571 152.5,43.84375 C 152.00085,43.362118 151.40677,42.985236 150.75,42.6875 C 149.46273,42.135812 147.98096,41.882556 146.78125,41.8125 C 146.22956,41.777474 145.74657,41.78125 145.34375,41.78125 L 139.125,41.78125 z M 49.5625,63.625 L 49.5625,78 L 58.90625,78 C 58.90625,77.999998 59.099757,77.96875 59.40625,77.96875 C 59.703987,77.951237 60.175818,77.923764 60.71875,77.90625 C 61.734558,77.792409 63.04772,77.594098 64.34375,77.15625 C 65.508425,76.779704 66.646797,76.179439 67.53125,75.3125 C 67.872767,74.953465 68.147319,74.600279 68.375,74.25 C 69.093074,73.102839 69.268715,71.951759 69.3125,71.3125 C 69.347528,70.997252 69.34375,70.8125 69.34375,70.8125 L 69.34375,70.5 C 69.308723,70.219774 69.278847,69.67171 69.15625,69.09375 C 68.989866,68.410706 68.657973,67.619342 68.0625,66.875 C 67.966172,66.743647 67.818855,66.631354 67.6875,66.5 C 67.424794,66.237294 67.16398,65.968924 66.875,65.75 C 66.349583,65.382208 65.764258,65.061472 65.125,64.78125 C 64.275577,64.413456 63.328308,64.13891 62.3125,63.9375 C 61.795839,63.841174 61.239188,63.753778 60.6875,63.71875 C 60.328463,63.666208 59.944028,63.660028 59.59375,63.625 C 59.269742,63.607486 58.909001,63.625 58.59375,63.625 L 49.5625,63.625 z M 139.125,63.625 L 139.125,78 L 148.46875,78 C 148.46875,77.999998 148.65728,77.96875 148.9375,77.96875 C 149.27901,77.951237 149.69831,77.923764 150.25,77.90625 C 151.23954,77.792409 152.60146,77.594098 153.90625,77.15625 C 155.07092,76.779704 156.1868,76.179439 157.0625,75.3125 C 157.39527,74.953465 157.66106,74.600279 157.90625,74.25 C 158.61556,73.102839 158.83122,71.951759 158.875,71.3125 C 158.89252,70.997252 158.875,70.8125 158.875,70.8125 C 158.875,70.812497 158.875,70.692653 158.875,70.5 C 158.875,70.219774 158.84513,69.67171 158.6875,69.09375 C 158.50361,68.410706 158.20296,67.619342 157.625,66.875 C 157.49364,66.743647 157.3501,66.631354 157.21875,66.5 C 156.98231,66.237294 156.70399,65.968924 156.40625,65.75 C 155.88959,65.382208 155.30925,65.061472 154.6875,64.78125 C 153.85559,64.413456 152.90334,64.13891 151.84375,63.9375 C 151.34461,63.841174 150.77919,63.753778 150.21875,63.71875 C 149.84219,63.666208 149.50155,63.660028 149.125,63.625 C 148.801,63.607486 148.48404,63.625 148.125,63.625 L 139.125,63.625 z M 249.125,113.625 C 229.51816,113.61625 216.6875,127.90418 216.6875,144.65625 C 216.68749,161.05803 229.18179,175.6875 248.9375,175.6875 C 269.41127,175.6875 281.65625,160.96171 281.65625,144.65625 C 281.65625,127.81661 269.07336,113.625 249.125,113.625 z M 91.9375,114.09375 L 66.15625,174.4375 C 62.285698,169.11447 60.693549,166.93625 58.1875,162.90625 C 53.581339,155.36651 50.231857,149.79915 44.75,146.15625 C 51.203881,143.59046 54.84375,138.34932 54.84375,131.34375 C 54.84375,120.87918 47.233474,114.40625 35,114.40625 L 19.75,114.40625 L 19.75,174.875 L 28.4375,174.875 L 28.4375,148.625 L 32.0625,148.625 C 36.519793,148.625 40.103624,150.06013 48.125,162.46875 L 56.09375,174.875 L 66.46875,174.875 L 74.8125,174.875 L 82.46875,157.0625 L 108.15625,157.0625 L 116.25,174.875 L 125.09375,174.875 L 98.0625,114.09375 L 91.9375,114.09375 z M 132.28125,114.40625 L 132.28125,174.90625 L 155.875,174.90625 C 175.83212,174.90625 187.96875,160.1911 187.96875,144.65625 C 187.96875,130.40868 178.14275,114.40625 155.8125,114.40625 L 132.28125,114.40625 z M 197.96875,114.40625 L 197.96875,174.875 L 206.65625,174.875 L 206.65625,114.40625 L 197.96875,114.40625 z M 249.15625,121.625 C 262.71201,121.625 272.71875,131.36318 272.71875,144.65625 C 272.71875,157.86174 262.71202,167.71875 249.15625,167.71875 C 235.66176,167.71875 225.625,157.85299 225.625,144.65625 C 225.62501,131.36318 235.67053,121.625 249.15625,121.625 z M 28.4375,121.875 L 34.03125,121.875 C 42.437931,121.875 45.836194,125.32549 45.90625,131 C 45.976305,136.07028 43.322385,140.84375 34.03125,140.84375 L 28.4375,140.84375 L 28.4375,121.875 z M 141,122.21875 L 154.34375,122.21875 C 171.29724,122.21875 179,132.52786 179,144.65625 C 179,152.12594 174.48561,167.09375 154.84375,167.09375 L 141,167.09375 L 141,122.21875 z M 94.875,127.375 L 104.625,149.25 L 85.8125,149.25 L 94.875,127.375 z"
         id="path352"
         style="fill:#000000;fill-opacity:1;fill-rule:evenodd" />
      <path
         d="M 525.3125,11.34375 C 419.46711,11.34375 333.6875,97.182089 333.6875,203.0625 C 333.68749,308.9429 419.46712,394.75 525.3125,394.75 C 631.13161,394.75 716.90625,308.94291 716.90625,203.0625 C 716.90625,97.182082 631.13162,11.34375 525.3125,11.34375 z M 545.375,66.875 L 590.4375,66.875 L 590.34375,221.75 L 629.3125,221.65625 L 629.28125,279.21875 L 590.3125,279.21875 L 590.4375,328.59375 L 520.59375,328.65625 L 520.5,284.25 C 520.50001,284.25 520.42966,279.35766 514.5625,279.15625 L 414.71875,279.21875 L 414.75,238.25 C 414.76752,232.27774 417.71717,223.49129 421.28125,218.71875 L 528.03125,75.53125 C 531.61286,70.749947 539.40276,66.857486 545.375,66.875 z M 526.46875,178.46875 C 511.31045,178.79276 499.24347,191.37295 499.59375,206.53125 C 499.92652,219.68419 509.76978,230.47817 522.625,232.78125 L 532.5,234.53125 C 529.92543,252.00139 523.41293,265.10016 508.71875,275.90625 C 528.51824,267.11425 543.70443,248.15097 550.71875,228.0625 C 557.74184,207.94777 553.74668,177.91706 526.46875,178.46875 z"
         id="path376"
         style="fill:#002c5a" />
    </g>
  </g>
</svg>
