<?xml version="1.0" encoding="UTF-8" standalone="no"?>
<!-- Created with Inkscape (http://www.inkscape.org/) -->

<svg
   xmlns:dc="http://purl.org/dc/elements/1.1/"
   xmlns:cc="http://creativecommons.org/ns#"
   xmlns:rdf="http://www.w3.org/1999/02/22-rdf-syntax-ns#"
   xmlns:svg="http://www.w3.org/2000/svg"
   xmlns="http://www.w3.org/2000/svg"
   xmlns:sodipodi="http://sodipodi.sourceforge.net/DTD/sodipodi-0.dtd"
   xmlns:inkscape="http://www.inkscape.org/namespaces/inkscape"
   width="473"
   height="181.36639"
   id="svg2"
   version="1.1"
   inkscape:version="0.48.4 r9939"
   sodipodi:docname="radio.jamfm.svg">
  <metadata
     id="metadata36">
    <rdf:RDF>
      <cc:Work
         rdf:about="">
        <dc:format>image/svg+xml</dc:format>
        <dc:type
           rdf:resource="http://purl.org/dc/dcmitype/StillImage" />
      </cc:Work>
    </rdf:RDF>
  </metadata>
  <defs
     id="defs34" />
  <sodipodi:namedview
     pagecolor="#ffffff"
     bordercolor="#666666"
     borderopacity="1"
     objecttolerance="10"
     gridtolerance="10"
     guidetolerance="10"
     inkscape:pageopacity="0"
     inkscape:pageshadow="2"
     inkscape:window-width="1600"
     inkscape:window-height="837"
     id="namedview32"
     showgrid="false"
     fit-margin-top="0"
     fit-margin-left="0"
     fit-margin-right="0"
     fit-margin-bottom="0"
     inkscape:zoom="0.74630021"
     inkscape:cx="10.049575"
     inkscape:cy="73.36718"
     inkscape:window-x="-8"
     inkscape:window-y="-8"
     inkscape:window-maximized="1"
     inkscape:current-layer="layer1" />
  <g
     inkscape:label="Layer 1"
     inkscape:groupmode="layer"
     id="layer1"
     transform="translate(-202.59073,-260.11317)">
    <path
       style="fill:#071118;fill-rule:nonzero;stroke:none"
       d="m 675.59074,357.51241 c 0,37.13914 -30.1084,67.25828 -67.25829,67.25828 l -338.47258,0 c -37.16074,0 -67.26914,-30.11914 -67.26914,-67.25828 l 0,-7.63834 c 0,-37.16074 30.1084,-67.27999 67.26914,-67.27999 l 338.47258,0 c 37.14989,0 67.25829,30.11925 67.25829,67.27999 l 0,7.63834"
       id="path35546"
       inkscape:connector-curvature="0" />
    <path
       style="fill:#ffdd00;fill-opacity:1;fill-rule:evenodd;stroke:none"
       d="m 476.47389,260.11317 -30.73769,75.18957 17.7395,-10.8932 -26.15904,62.60367 17.43581,-6.98734 -23.83715,61.45369 49.67069,-82.95811 -15.54793,4.05787 26.56048,-59.51156 -15.12467,3.50452 24.4556,-46.45911 -24.4556,0"
       id="path35550"
       inkscape:connector-curvature="0" />
    <path
       style="fill:#ffffff;fill-rule:nonzero;stroke:none"
       d="m 262.21068,365.92109 -2.06149,9.75407 c -0.61844,2.87523 0.35805,4.00351 2.86438,3.89501 2.69078,-0.0977 3.71067,-0.60759 4.06872,-2.77747 l 13.32358,-62.19148 18.06511,0 -11.38156,53.5875 c -1.15009,5.43581 -2.12658,11.38145 -5.88065,16.52431 -5.29476,7.09584 -12.42304,8.71248 -20.21328,8.71248 -8.62568,0 -15.25487,-4.10127 -15.58037,-12.72695 -0.1736,-3.47186 0.66185,-6.97638 1.38879,-10.37241 l 0.93309,-4.40506 14.47368,0"
       id="path35554"
       inkscape:connector-curvature="0" />
    <path
       style="fill:#ffffff;fill-rule:nonzero;stroke:none"
       d="m 325.00976,328.56495 -0.20615,0 -12.5642,34.49176 10.47017,0 2.30018,-34.49176 z m -41.11011,63.01607 33.21137,-76.9798 21.75397,0 0.35805,76.9798 -18.2603,0 0.6076,-14.98373 -14.16988,0 -5.31646,14.98373 -18.18435,0"
       id="path35558"
       inkscape:connector-curvature="0" />
    <path
       style="fill:#ffffff;fill-rule:nonzero;stroke:none"
       d="m 345.08199,391.57017 16.35071,-76.96895 25.46464,0 -0.33635,45.47177 0.20615,0 19.32369,-45.47177 25.23679,0 -16.35082,76.96895 -17.2404,0 14.66897,-60.34699 -0.217,0 -25.54058,60.34699 -13.45379,0 0.42315,-60.34699 -0.217,0 -11.18626,60.34699 -17.1319,0"
       id="path35562"
       inkscape:connector-curvature="0" />
    <path
       style="fill:#ffffff;fill-rule:nonzero;stroke:none"
       d="m 490.52453,391.57017 16.37241,-76.96895 42.4773,0 -3.25497,15.39591 -24.44475,0 -2.91863,13.6492 22.50262,0 -3.27668,15.39591 -22.49176,0 -6.90054,32.52793 -18.065,0"
       id="path35566"
       inkscape:connector-curvature="0" />
    <path
       style="fill:#ffffff;fill-rule:nonzero;stroke:none"
       d="m 541.8444,391.57017 16.36156,-76.96895 25.45379,0 -0.3255,45.47177 0.1953,0 19.31284,-45.47177 25.25849,0 -16.36166,76.96895 -17.22956,0 14.66898,-60.34699 -0.20615,0 -25.56229,60.34699 -13.44293,0 0.40144,-60.34699 -0.20614,0 -11.18626,60.34699 -17.13191,0"
       id="path35570"
       inkscape:connector-curvature="0" />
  </g>
</svg>
