<?xml version="1.0" encoding="UTF-8" standalone="no"?>
<!-- Created with Inkscape (http://www.inkscape.org/) -->
<svg
   xmlns:dc="http://purl.org/dc/elements/1.1/"
   xmlns:cc="http://web.resource.org/cc/"
   xmlns:rdf="http://www.w3.org/1999/02/22-rdf-syntax-ns#"
   xmlns:svg="http://www.w3.org/2000/svg"
   xmlns="http://www.w3.org/2000/svg"
   xmlns:xlink="http://www.w3.org/1999/xlink"
   xmlns:sodipodi="http://sodipodi.sourceforge.net/DTD/sodipodi-0.dtd"
   xmlns:inkscape="http://www.inkscape.org/namespaces/inkscape"
   width="394"
   height="298"
   id="svg2"
   sodipodi:version="0.32"
   inkscape:version="0.45.1"
   version="1.0">
  <g
     inkscape:label="Layer 1"
     inkscape:groupmode="layer"
     id="layer1"
     transform="translate(-295.58445,-204.4031)">
    <rect
       x="295.58444"
       y="204.40311"
       width="393.99442"
       height="298"
       id="rect1139"
       style="fill:#003181" />
    <path
       style="fill:#ffffff"
       id="path1149"
       d="M 98.264,498.027 L 103.798,498.027 L 103.798,503.234 L 98.264,503.234 L 98.264,498.027 z M 101.75,498.751 C 101.725,498.747 101.701,498.743 101.675,498.739 L 101.645,498.735 C 101.603,498.729 101.56,498.724 101.517,498.72 C 101.487,498.716 101.457,498.714 101.429,498.712 C 101.376,498.709 101.324,498.708 101.275,498.708 C 101.251,498.708 101.239,498.708 101.216,498.708 C 101.175,498.709 101.134,498.711 101.093,498.713 C 101.071,498.715 101.049,498.717 101.026,498.72 C 100.993,498.723 100.961,498.726 100.929,498.73 L 100.902,498.734 L 100.872,498.738 L 100.836,498.744 C 100.819,498.747 100.804,498.75 100.788,498.753 C 100.766,498.757 100.745,498.762 100.723,498.766 C 100.592,498.793 100.47,498.83 100.359,498.874 C 100.301,498.896 100.245,498.92 100.193,498.946 C 100.148,498.967 100.106,498.99 100.065,499.014 C 100.026,499.036 99.988,499.059 99.952,499.083 C 99.931,499.098 99.91,499.111 99.89,499.125 C 99.873,499.139 99.856,499.15 99.839,499.163 C 99.804,499.19 99.77,499.219 99.739,499.246 C 99.709,499.272 99.68,499.298 99.653,499.325 C 99.63,499.348 99.607,499.372 99.585,499.397 C 99.563,499.42 99.541,499.446 99.52,499.473 C 99.497,499.5 99.474,499.53 99.452,499.56 C 99.437,499.581 99.421,499.605 99.406,499.627 C 99.396,499.643 99.386,499.658 99.375,499.675 C 99.318,499.77 99.267,499.87 99.226,499.979 C 99.174,500.113 99.137,500.256 99.116,500.411 C 99.11,500.459 99.104,500.51 99.102,500.559 C 99.099,500.597 99.098,500.637 99.098,500.676 C 99.098,500.705 99.098,500.735 99.1,500.764 C 99.102,500.793 99.104,500.824 99.108,500.854 L 99.11,500.875 C 99.115,500.91 99.12,500.944 99.127,500.979 C 99.13,500.993 99.132,501.005 99.135,501.02 C 99.141,501.047 99.147,501.076 99.155,501.104 C 99.165,501.139 99.175,501.174 99.186,501.208 C 99.201,501.251 99.216,501.292 99.233,501.332 C 99.26,501.395 99.289,501.457 99.32,501.515 C 99.339,501.548 99.358,501.581 99.378,501.614 C 99.393,501.639 99.41,501.663 99.426,501.687 C 99.447,501.717 99.47,501.748 99.492,501.777 C 99.515,501.807 99.54,501.836 99.563,501.863 C 99.593,501.897 99.622,501.928 99.651,501.956 L 99.667,501.972 C 99.691,501.994 99.716,502.02 99.746,502.044 C 99.767,502.062 99.787,502.079 99.81,502.098 C 99.831,502.115 99.853,502.131 99.877,502.149 C 99.904,502.169 99.934,502.189 99.965,502.209 C 99.998,502.231 100.033,502.252 100.07,502.272 C 100.143,502.313 100.223,502.353 100.312,502.388 C 100.345,502.402 100.379,502.413 100.415,502.425 C 100.451,502.438 100.486,502.449 100.524,502.459 C 100.587,502.479 100.654,502.494 100.724,502.508 C 100.781,502.519 100.84,502.529 100.901,502.535 C 100.962,502.541 101.024,502.548 101.089,502.552 C 101.121,502.554 101.153,502.555 101.185,502.556 C 101.2,502.556 101.216,502.556 101.23,502.556 C 101.347,502.556 101.454,502.552 101.554,502.542 L 101.573,502.541 C 101.613,502.537 101.652,502.533 101.689,502.528 C 101.746,502.521 101.8,502.513 101.852,502.504 C 101.885,502.498 101.916,502.491 101.947,502.485 C 101.994,502.475 102.04,502.463 102.083,502.452 C 102.115,502.444 102.146,502.435 102.175,502.425 C 102.211,502.415 102.245,502.404 102.278,502.393 L 102.309,502.381 C 102.325,502.376 102.346,502.368 102.372,502.359 C 102.405,502.346 102.445,502.33 102.491,502.311 C 102.518,502.298 102.548,502.286 102.578,502.272 C 102.605,502.259 102.633,502.246 102.662,502.232 C 102.674,502.226 102.686,502.22 102.698,502.213 L 102.698,501.503 C 102.69,501.509 102.682,501.515 102.673,501.52 L 102.624,501.548 C 102.575,501.578 102.529,501.606 102.482,501.631 C 102.43,501.659 102.38,501.686 102.33,501.708 C 102.242,501.749 102.158,501.784 102.077,501.814 C 101.922,501.869 101.78,501.905 101.654,501.926 C 101.64,501.929 101.625,501.932 101.61,501.934 C 101.576,501.939 101.543,501.943 101.511,501.947 C 101.461,501.952 101.416,501.955 101.374,501.957 C 101.347,501.958 101.321,501.959 101.299,501.959 C 101.248,501.959 101.196,501.957 101.144,501.954 C 101.082,501.949 101.019,501.942 100.955,501.933 C 100.853,501.914 100.749,501.889 100.649,501.853 C 100.634,501.847 100.618,501.84 100.605,501.835 C 100.594,501.831 100.585,501.827 100.575,501.823 C 100.558,501.816 100.542,501.808 100.526,501.802 C 100.491,501.785 100.456,501.768 100.423,501.748 C 100.407,501.738 100.39,501.728 100.373,501.718 C 100.356,501.708 100.339,501.697 100.323,501.686 C 100.302,501.67 100.282,501.656 100.262,501.641 C 100.242,501.624 100.222,501.609 100.206,501.595 L 100.182,501.573 L 100.171,501.563 L 100.164,501.556 L 100.155,501.547 C 100.123,501.516 100.094,501.484 100.068,501.451 C 100.052,501.433 100.039,501.415 100.025,501.397 C 100.012,501.379 100,501.362 99.988,501.344 C 99.978,501.327 99.968,501.311 99.958,501.293 C 99.943,501.269 99.93,501.243 99.917,501.219 C 99.907,501.198 99.897,501.177 99.888,501.156 C 99.873,501.12 99.86,501.084 99.849,501.05 C 99.84,501.024 99.833,500.997 99.827,500.972 C 99.808,500.898 99.798,500.829 99.793,500.772 C 99.791,500.75 99.79,500.729 99.789,500.71 C 99.787,500.682 99.787,500.657 99.787,500.638 C 99.787,500.624 99.787,500.61 99.787,500.592 C 99.789,500.553 99.792,500.5 99.801,500.442 C 99.806,500.407 99.814,500.369 99.823,500.329 C 99.829,500.303 99.837,500.275 99.845,500.248 C 99.853,500.223 99.862,500.197 99.872,500.171 C 99.879,500.153 99.886,500.135 99.894,500.118 C 99.904,500.094 99.916,500.07 99.928,500.045 C 99.937,500.027 99.948,500.009 99.959,499.991 C 99.982,499.95 100.008,499.91 100.039,499.87 C 100.049,499.855 100.06,499.841 100.072,499.827 C 100.087,499.809 100.103,499.79 100.119,499.773 C 100.128,499.764 100.136,499.754 100.145,499.745 C 100.275,499.615 100.421,499.518 100.573,499.449 C 100.597,499.438 100.621,499.429 100.645,499.419 C 100.668,499.41 100.692,499.401 100.717,499.394 C 100.743,499.384 100.77,499.376 100.796,499.369 C 100.821,499.363 100.846,499.356 100.871,499.351 C 100.896,499.344 100.921,499.339 100.946,499.334 C 100.974,499.329 101.001,499.325 101.028,499.321 C 101.056,499.318 101.083,499.315 101.11,499.313 C 101.161,499.308 101.212,499.306 101.262,499.306 C 101.278,499.306 101.295,499.306 101.311,499.306 C 101.348,499.307 101.384,499.308 101.419,499.311 C 101.444,499.312 101.467,499.314 101.49,499.316 C 101.536,499.32 101.579,499.326 101.619,499.332 C 101.656,499.337 101.691,499.344 101.724,499.351 C 101.776,499.361 101.822,499.372 101.864,499.383 C 101.891,499.391 101.916,499.398 101.938,499.404 C 101.973,499.414 102.003,499.423 102.025,499.431 C 102.065,499.445 102.086,499.452 102.086,499.452 C 102.121,499.464 102.155,499.478 102.189,499.491 C 102.235,499.509 102.277,499.529 102.319,499.548 C 102.353,499.564 102.386,499.579 102.416,499.596 C 102.442,499.608 102.465,499.619 102.488,499.631 C 102.526,499.652 102.559,499.669 102.586,499.685 L 102.658,499.724 L 102.658,499.027 C 102.658,499.027 102.615,499.008 102.54,498.98 C 102.507,498.967 102.468,498.953 102.423,498.937 C 102.398,498.928 102.372,498.918 102.345,498.909 C 102.322,498.902 102.299,498.894 102.276,498.888 C 102.249,498.878 102.222,498.869 102.193,498.861 C 102.173,498.855 102.152,498.849 102.13,498.842 L 102.112,498.836 C 102.091,498.83 102.07,498.824 102.049,498.819 C 102.023,498.812 101.997,498.805 101.971,498.798 C 101.955,498.794 101.938,498.79 101.921,498.786 C 101.894,498.78 101.866,498.773 101.837,498.768 C 101.809,498.762 101.779,498.756 101.75,498.751"
       clip-path="url(#SVGID_48_)"
       transform="matrix(10.782256,0,0,10.782256,-528.00737,-5113.7074)" />
    <path
       style="fill:#ffffff"
       id="path1151"
       d="M 94.011,500.899 L 94.011,501.922 L 94.675,501.922 C 94.675,501.922 94.689,501.921 94.71,501.92 C 94.733,501.92 94.765,501.918 94.803,501.915 C 94.875,501.908 94.97,501.895 95.062,501.864 C 95.146,501.836 95.227,501.794 95.289,501.732 C 95.313,501.708 95.333,501.683 95.348,501.658 C 95.401,501.576 95.414,501.492 95.416,501.445 C 95.419,501.424 95.418,501.412 95.418,501.412 C 95.418,501.412 95.419,501.403 95.418,501.387 C 95.417,501.367 95.415,501.329 95.404,501.288 C 95.392,501.24 95.368,501.184 95.327,501.132 C 95.319,501.122 95.31,501.112 95.301,501.104 C 95.283,501.085 95.263,501.068 95.241,501.051 C 95.205,501.025 95.163,501.002 95.118,500.983 C 95.059,500.957 94.992,500.938 94.918,500.923 C 94.881,500.916 94.841,500.91 94.8,500.906 C 94.775,500.904 94.75,500.902 94.723,500.901 C 94.701,500.9 94.677,500.898 94.653,500.898 C 94.417,500.899 94.011,500.899 94.011,500.899"
       clip-path="url(#SVGID_48_)"
       transform="matrix(10.782256,0,0,10.782256,-528.00737,-5113.7074)" />
    <path
       style="fill:#ffffff"
       id="path1153"
       d="M 94.011,499.343 L 94.011,500.313 L 94.333,500.313 C 94.333,500.313 94.354,500.313 94.382,500.312 C 94.405,500.311 94.431,500.31 94.455,500.309 C 94.521,500.304 94.613,500.295 94.704,500.269 C 94.722,500.264 94.74,500.259 94.758,500.251 C 94.83,500.227 94.898,500.188 94.952,500.137 C 94.995,500.095 95.023,500.048 95.041,500.003 C 95.064,499.946 95.072,499.894 95.075,499.857 C 95.078,499.823 95.078,499.802 95.078,499.802 C 95.078,499.802 95.078,499.785 95.077,499.76 C 95.075,499.718 95.066,499.649 95.033,499.583 C 95.017,499.552 94.995,499.52 94.965,499.491 C 94.929,499.455 94.885,499.428 94.838,499.407 C 94.747,499.367 94.643,499.351 94.556,499.345 C 94.518,499.342 94.484,499.342 94.454,499.342 L 94.011,499.342 L 94.011,499.343 z "
       clip-path="url(#SVGID_48_)"
       transform="matrix(10.782256,0,0,10.782256,-528.00737,-5113.7074)" />
    <path
       style="fill:#ffffff"
       id="path1155"
       d="M 91.887,498.027 L 97.421,498.027 L 97.421,503.234 L 91.887,503.234 L 91.887,498.027 z M 93.339,498.757 L 93.339,502.507 L 94.751,502.507 C 94.751,502.507 95.439,502.526 95.819,502.146 C 96.129,501.837 96.106,501.479 96.106,501.479 C 96.106,501.479 96.129,501.105 95.842,500.82 C 95.598,500.575 95.287,500.509 95.287,500.509 C 95.287,500.509 95.427,500.443 95.535,500.335 C 95.586,500.284 95.766,500.122 95.766,499.727 C 95.766,499.33 95.501,499.1 95.501,499.1 C 95.501,499.1 95.211,498.757 94.556,498.757 L 93.339,498.757 L 93.339,498.757 z "
       clip-path="url(#SVGID_48_)"
       transform="matrix(10.782256,0,0,10.782256,-528.00737,-5113.7074)" />
    <path
       style="fill:#ffffff"
       id="path1157"
       d="M 87.635,500.899 L 87.635,501.922 L 88.299,501.922 C 88.299,501.922 88.313,501.921 88.334,501.92 C 88.357,501.92 88.388,501.918 88.427,501.915 C 88.499,501.908 88.594,501.895 88.686,501.864 C 88.77,501.836 88.85,501.794 88.913,501.732 C 88.936,501.708 88.956,501.683 88.972,501.658 C 89.025,501.576 89.037,501.492 89.04,501.445 C 89.042,501.424 89.042,501.412 89.042,501.412 C 89.042,501.412 89.042,501.403 89.042,501.387 C 89.041,501.367 89.038,501.329 89.028,501.288 C 89.016,501.24 88.992,501.184 88.951,501.132 C 88.943,501.122 88.934,501.112 88.925,501.104 C 88.906,501.085 88.887,501.068 88.865,501.051 C 88.829,501.025 88.787,501.002 88.742,500.983 C 88.682,500.957 88.615,500.938 88.542,500.923 C 88.505,500.916 88.465,500.91 88.424,500.906 C 88.399,500.904 88.373,500.902 88.348,500.901 C 88.325,500.9 88.301,500.898 88.277,500.898 C 88.041,500.899 87.635,500.899 87.635,500.899"
       clip-path="url(#SVGID_48_)"
       transform="matrix(10.782256,0,0,10.782256,-528.00737,-5113.7074)" />
    <path
       style="fill:#ffffff"
       id="path1159"
       d="M 87.635,499.343 L 87.635,500.313 L 87.956,500.313 C 87.956,500.313 87.978,500.313 88.006,500.312 C 88.029,500.311 88.055,500.31 88.079,500.309 C 88.145,500.304 88.237,500.295 88.328,500.269 C 88.346,500.264 88.364,500.259 88.381,500.251 C 88.453,500.227 88.522,500.188 88.576,500.137 C 88.618,500.095 88.647,500.048 88.665,500.003 C 88.688,499.946 88.696,499.894 88.699,499.857 C 88.702,499.823 88.702,499.802 88.702,499.802 C 88.702,499.802 88.703,499.785 88.701,499.76 C 88.699,499.718 88.69,499.649 88.657,499.583 C 88.641,499.552 88.619,499.52 88.589,499.491 C 88.553,499.455 88.509,499.428 88.462,499.407 C 88.371,499.367 88.267,499.351 88.18,499.345 C 88.142,499.342 88.107,499.342 88.078,499.342 L 87.635,499.342 L 87.635,499.343 z "
       clip-path="url(#SVGID_48_)"
       transform="matrix(10.782256,0,0,10.782256,-528.00737,-5113.7074)" />
    <path
       style="fill:#ffffff"
       id="path1161"
       d="M 85.511,498.027 L 91.045,498.027 L 91.045,503.234 L 85.511,503.234 L 85.511,498.027 z M 86.963,498.757 L 86.963,502.507 L 88.375,502.507 C 88.375,502.507 89.063,502.526 89.443,502.146 C 89.753,501.837 89.731,501.479 89.731,501.479 C 89.731,501.479 89.753,501.105 89.466,500.82 C 89.222,500.575 88.911,500.509 88.911,500.509 C 88.911,500.509 89.052,500.443 89.16,500.335 C 89.21,500.284 89.39,500.122 89.39,499.727 C 89.39,499.33 89.125,499.1 89.125,499.1 C 89.125,499.1 88.835,498.757 88.18,498.757 L 86.963,498.757 L 86.963,498.757 z "
       clip-path="url(#SVGID_48_)"
       transform="matrix(10.782256,0,0,10.782256,-528.00737,-5113.7074)" />
    <polygon
       points="87.494,509.669 87.364,509.669 85.833,505.855 84.288,509.669 84.158,509.669 82.272,504.966 82.942,504.966 84.227,508.179 85.519,504.966 86.154,504.966 87.453,508.179 88.724,504.966 89.387,504.966 87.494,509.669 "
       id="polygon1163"
       transform="matrix(10.782256,0,0,10.782256,-528.00737,-5113.7074)"
       style="fill:#ffffff" />
    <path
       style="fill:#ffffff"
       id="path1173"
       d="M 91.931,509.074 C 92.977,509.074 93.749,508.316 93.749,507.297 C 93.749,506.273 92.977,505.521 91.931,505.521 C 90.892,505.521 90.12,506.273 90.12,507.297 C 90.12,508.316 90.892,509.074 91.931,509.074 M 91.931,504.905 C 93.469,504.905 94.44,505.999 94.44,507.297 C 94.44,508.555 93.496,509.691 91.917,509.691 C 90.393,509.691 89.429,508.563 89.429,507.297 C 89.429,506.004 90.42,504.905 91.931,504.905"
       clip-path="url(#SVGID_50_)"
       transform="matrix(10.782256,0,0,10.782256,-528.00737,-5113.7074)" />
    <path
       style="fill:#ffffff"
       id="path1175"
       d="M 95.943,507.003 L 96.374,507.003 C 97.091,507.003 97.297,506.634 97.29,506.243 C 97.283,505.806 97.023,505.54 96.374,505.54 L 95.943,505.54 L 95.943,507.003 z M 96.45,504.966 C 97.393,504.966 97.981,505.465 97.981,506.272 C 97.981,506.812 97.701,507.215 97.202,507.414 C 97.626,507.693 97.885,508.125 98.241,508.706 C 98.439,509.026 98.555,509.184 98.876,509.629 L 98.077,509.629 L 97.462,508.672 C 96.846,507.715 96.566,507.605 96.224,507.605 L 95.944,507.605 L 95.944,509.629 L 95.274,509.629 L 95.274,504.967 L 96.45,504.967 L 96.45,504.966 z "
       clip-path="url(#SVGID_50_)"
       transform="matrix(10.782256,0,0,10.782256,-528.00737,-5113.7074)" />
    <polygon
       points="100.052,509.026 102.157,509.026 102.157,509.628 99.381,509.628 99.381,504.966 100.052,504.966 100.052,509.026 "
       id="polygon1177"
       transform="matrix(10.782256,0,0,10.782256,-528.00737,-5113.7074)"
       style="fill:#ffffff" />
    <path
       style="fill:#ffffff"
       id="path1187"
       d="M 103.415,509.026 L 104.481,509.026 C 105.999,509.026 106.347,507.872 106.347,507.297 C 106.347,506.359 105.753,505.567 104.447,505.567 L 103.415,505.567 L 103.415,509.026 z M 102.745,504.966 L 104.556,504.966 C 106.279,504.966 107.038,506.195 107.038,507.297 C 107.038,508.492 106.101,509.628 104.563,509.628 L 102.745,509.628 L 102.745,504.966 L 102.745,504.966 z "
       clip-path="url(#SVGID_52_)"
       transform="matrix(10.782256,0,0,10.782256,-528.00737,-5113.7074)" />
    <path
       style="fill:#ffffff"
       id="path1189"
       d="M 85.358,511.912 C 84.962,511.536 84.579,511.427 84.264,511.427 C 83.834,511.427 83.526,511.652 83.526,511.98 C 83.526,512.876 85.543,512.862 85.543,514.345 C 85.543,515.077 84.989,515.61 84.237,515.61 C 83.731,515.61 83.321,515.473 82.931,515.179 L 82.931,514.332 C 83.273,514.769 83.704,515.009 84.162,515.009 C 84.681,515.009 84.92,514.68 84.92,514.421 C 84.92,513.457 82.904,513.347 82.904,512.068 C 82.904,511.309 83.465,510.825 84.319,510.825 C 84.674,510.825 85.03,510.933 85.358,511.152 L 85.358,511.912 z "
       clip-path="url(#SVGID_52_)"
       transform="matrix(10.782256,0,0,10.782256,-528.00737,-5113.7074)" />
    <polygon
       points="88.919,511.488 86.944,511.488 86.944,512.895 88.851,512.895 88.851,513.498 86.944,513.498 86.944,514.947 88.981,514.947 88.981,515.547 86.274,515.547 86.274,510.885 88.919,510.885 88.919,511.488 "
       id="polygon1191"
       transform="matrix(10.782256,0,0,10.782256,-528.00737,-5113.7074)"
       style="fill:#ffffff" />
    <path
       style="fill:#ffffff"
       id="path1201"
       d="M 90.375,512.922 L 90.806,512.922 C 91.523,512.922 91.729,512.554 91.722,512.163 C 91.715,511.726 91.455,511.459 90.806,511.459 L 90.375,511.459 L 90.375,512.922 z M 90.88,510.886 C 91.823,510.886 92.411,511.384 92.411,512.192 C 92.411,512.732 92.131,513.134 91.632,513.333 C 92.056,513.614 92.315,514.044 92.671,514.625 C 92.869,514.946 92.985,515.104 93.306,515.548 L 92.507,515.548 L 91.892,514.591 C 91.276,513.634 90.996,513.526 90.654,513.526 L 90.374,513.526 L 90.374,515.548 L 89.704,515.548 L 89.704,510.887 L 90.88,510.887 L 90.88,510.886 z "
       clip-path="url(#SVGID_54_)"
       transform="matrix(10.782256,0,0,10.782256,-528.00737,-5113.7074)" />
    <polygon
       points="94.915,515.588 94.777,515.588 92.762,510.885 93.432,510.885 94.833,514.16 96.227,510.885 96.89,510.885 94.915,515.588 "
       id="polygon1203"
       transform="matrix(10.782256,0,0,10.782256,-528.00737,-5113.7074)"
       style="fill:#ffffff" />
    <rect
       x="522.29218"
       y="394.78522"
       width="7.2241116"
       height="50.26688"
       id="rect1205"
       style="fill:#ffffff" />
    <path
       style="fill:#ffffff"
       id="path1215"
       d="M 103.083,511.925 C 102.509,511.59 102.017,511.44 101.477,511.44 C 100.41,511.44 99.618,512.198 99.618,513.224 C 99.618,514.27 100.383,514.994 101.504,514.994 C 102.03,514.994 102.605,514.81 103.131,514.469 L 103.131,515.199 C 102.673,515.438 102.174,515.609 101.443,515.609 C 99.693,515.609 98.927,514.263 98.927,513.285 C 98.927,511.863 100,510.825 101.484,510.825 C 101.962,510.825 102.447,510.94 103.083,511.207 L 103.083,511.925 z "
       clip-path="url(#SVGID_56_)"
       transform="matrix(10.782256,0,0,10.782256,-528.00737,-5113.7074)" />
    <polygon
       points="106.596,511.488 104.621,511.488 104.621,512.895 106.528,512.895 106.528,513.498 104.621,513.498 104.621,514.947 106.657,514.947 106.657,515.547 103.951,515.547 103.951,510.885 106.596,510.885 106.596,511.488 "
       id="polygon1217"
       transform="matrix(10.782256,0,0,10.782256,-528.00737,-5113.7074)"
       style="fill:#ffffff" />
  </g>
</svg>
