<?xml version="1.0" encoding="UTF-8" standalone="no"?>
<!-- Created with Inkscape (http://www.inkscape.org/) -->
<svg
   xmlns:dc="http://purl.org/dc/elements/1.1/"
   xmlns:cc="http://web.resource.org/cc/"
   xmlns:rdf="http://www.w3.org/1999/02/22-rdf-syntax-ns#"
   xmlns:svg="http://www.w3.org/2000/svg"
   xmlns="http://www.w3.org/2000/svg"
   xmlns:sodipodi="http://sodipodi.sourceforge.net/DTD/sodipodi-0.dtd"
   xmlns:inkscape="http://www.inkscape.org/namespaces/inkscape"
   width="423"
   height="311"
   id="svg2"
   sodipodi:version="0.32"
   inkscape:version="0.45.1"
   version="1.0"
   inkscape:output_extension="org.inkscape.output.svg.inkscape">
  <g
     inkscape:label="Layer 1"
     inkscape:groupmode="layer"
     id="layer1"
     transform="translate(-393.44877,-270.15506)">
    <g
       clip-path="url(#id119)"
       id="g2556"
       transform="matrix(9.1732295,0,0,-9.1732295,-2571.8894,4937.1273)">
      <g
         transform="translate(356.282,482.91)"
         id="g2558">
        <path
           style="fill:#003169;fill-rule:evenodd;stroke:none"
           d="M 0,0 L -3.176,0 L -5.553,5.114 L -7.152,5.114 L -7.152,0 L -10.108,0 L -10.108,13.324 L -5.453,13.324 C -2.537,13.324 -0.619,12.365 -0.619,9.169 C -0.619,7.551 -1.258,6.252 -2.817,5.653 L 0,0 z M -3.456,9.329 C -3.456,10.627 -4.155,10.967 -5.334,10.967 L -7.212,10.967 L -7.212,7.531 L -5.334,7.531 C -4.215,7.531 -3.456,8.17 -3.456,9.329"
           id="path2560" />
      </g>
      <path
         style="fill:#003169;fill-rule:nonzero;stroke:none"
         d="M 335.107,508.76 L 333.529,508.76 L 333.529,496.234 L 335.107,496.234 L 335.107,508.76 z "
         id="path2562" />
      <g
         transform="translate(344.816,487.584)"
         id="g2564">
        <path
           style="fill:#003169;fill-rule:evenodd;stroke:none"
           d="M 0,0 C 0,-3.376 -1.758,-4.674 -4.995,-4.674 L -9.709,-4.674 L -9.709,8.65 L -4.995,8.65 C -1.878,8.65 0,7.272 0,4.015 L 0,0 z M -2.877,0.28 L -2.877,3.716 C -2.877,5.334 -3.616,6.133 -5.254,6.133 L -6.673,6.133 L -6.673,-2.158 L -5.254,-2.158 C -3.616,-2.158 -2.877,-1.338 -2.877,0.28"
           id="path2566" />
      </g>
      <g
         transform="translate(333.529,482.91)"
         id="g2568">
        <path
           style="fill:#003169;fill-rule:nonzero;stroke:none"
           d="M 0,0 L 0,13.324 L -2.817,13.324 L -2.817,5.034 L -7.312,13.324 L -10.269,13.324 L -10.269,0 L -7.452,0 L -7.452,7.77 L -3.137,0 L 0,0 z "
           id="path2570" />
      </g>
      <path
         style="fill:#003169;fill-rule:nonzero;stroke:none"
         d="M 335.107,482.91 L 333.529,482.91 L 333.529,477.216 L 335.107,477.216 L 335.107,482.91 z "
         id="path2572" />
      <g
         transform="translate(343.45,479.748)"
         id="g2574">
        <path
           style="fill:#003169;fill-rule:nonzero;stroke:none"
           d="M 0,0 L -0.561,0 L -1.251,-3.194 C -1.323,-3.524 -1.345,-3.712 -1.367,-4.021 C -1.438,-3.597 -1.46,-3.431 -1.518,-3.194 L -2.273,0 L -2.87,0 L -3.632,-3.194 C -3.697,-3.467 -3.74,-3.712 -3.776,-4.021 C -3.805,-3.726 -3.841,-3.424 -3.891,-3.194 L -4.575,0 L -5.164,0 L -4.086,-4.798 L -3.51,-4.798 L -2.726,-1.561 C -2.654,-1.259 -2.618,-1.036 -2.589,-0.676 C -2.561,-1.036 -2.532,-1.251 -2.46,-1.561 L -1.683,-4.798 L -1.1,-4.798 L 0,0 z "
           id="path2576" />
      </g>
      <g
         transform="translate(346.074,477.18)"
         id="g2578">
        <path
           style="fill:#003169;fill-rule:evenodd;stroke:none"
           d="M 0,0 L -1.727,0 C -1.662,0.77 -1.331,1.115 -0.82,1.115 C -0.345,1.115 -0.007,0.712 0,0 M 0.568,-1.402 L 0.1,-1.151 C -0.072,-1.575 -0.331,-1.863 -0.799,-1.863 C -1.424,-1.863 -1.719,-1.431 -1.727,-0.453 L 0.568,-0.453 L 0.568,-0.137 C 0.568,0.734 0.187,1.575 -0.806,1.575 C -1.69,1.575 -2.309,0.957 -2.309,-0.338 C -2.309,-1.604 -1.82,-2.323 -0.806,-2.323 C -0.036,-2.323 0.345,-1.913 0.568,-1.402"
           id="path2580" />
      </g>
      <path
         style="fill:#003169;fill-rule:nonzero;stroke:none"
         d="M 348.082,479.921 L 347.528,479.921 L 347.528,474.951 L 348.082,474.951 L 348.082,479.921 z "
         id="path2582" />
      <path
         style="fill:#003169;fill-rule:nonzero;stroke:none"
         d="M 349.814,479.921 L 349.26,479.921 L 349.26,474.951 L 349.814,474.951 L 349.814,479.921 z "
         id="path2584" />
      <g
         transform="translate(353.008,477.18)"
         id="g2586">
        <path
           style="fill:#003169;fill-rule:evenodd;stroke:none"
           d="M 0,0 L -1.727,0 C -1.662,0.77 -1.331,1.115 -0.82,1.115 C -0.345,1.115 -0.008,0.712 0,0 M 0.568,-1.402 L 0.1,-1.151 C -0.072,-1.575 -0.332,-1.863 -0.799,-1.863 C -1.424,-1.863 -1.719,-1.431 -1.727,-0.453 L 0.568,-0.453 L 0.568,-0.137 C 0.568,0.734 0.187,1.575 -0.806,1.575 C -1.691,1.575 -2.309,0.957 -2.309,-0.338 C -2.309,-1.604 -1.82,-2.323 -0.806,-2.323 C -0.036,-2.323 0.345,-1.913 0.568,-1.402"
           id="path2588" />
      </g>
      <g
         transform="translate(359.604,474.95)"
         id="g2590">
        <path
           style="fill:#003169;fill-rule:nonzero;stroke:none"
           d="M 0,0 L 0,4.798 L -0.568,4.798 L -0.568,1.288 C -0.568,0.914 -0.554,0.806 -0.532,0.669 C -0.576,0.835 -0.619,0.935 -0.806,1.31 L -2.561,4.798 L -3.323,4.798 L -3.323,0 L -2.747,0 L -2.747,3.402 C -2.747,3.813 -2.747,3.899 -2.784,4.122 C -2.733,3.913 -2.625,3.719 -2.467,3.41 L -0.734,0 L 0,0 z "
           id="path2592" />
      </g>
      <g
         transform="translate(361.037,476.792)"
         id="g2594">
        <path
           style="fill:#003169;fill-rule:evenodd;stroke:none"
           d="M 0,0 C 0,1.043 0.288,1.503 0.928,1.503 C 1.568,1.503 1.849,1.043 1.849,0.014 C 1.849,-1.029 1.568,-1.475 0.928,-1.475 C 0.295,-1.475 0,-1.007 0,0 M 0.956,1.963 C -0.208,1.963 -0.575,1.028 -0.575,0.014 C -0.575,-1.216 -0.072,-1.935 0.906,-1.935 C 2.093,-1.935 2.424,-1.014 2.424,0.014 C 2.424,1.287 1.928,1.963 0.956,1.963"
           id="path2596" />
      </g>
      <g
         transform="translate(366.112,478.158)"
         id="g2598">
        <path
           style="fill:#003169;fill-rule:nonzero;stroke:none"
           d="M 0,0 L 0,0.59 C -0.051,0.59 -0.115,0.583 -0.187,0.576 C -0.791,0.518 -1.021,0.194 -1.295,-0.266 L -1.295,0.504 L -1.834,0.504 L -1.834,-3.208 L -1.28,-3.208 L -1.28,-0.971 C -0.993,-0.388 -0.661,-0.093 -0.316,-0.028 C -0.208,-0.007 -0.101,-0.007 0,0"
           id="path2600" />
      </g>
      <g
         transform="translate(368.818,475.849)"
         id="g2602">
        <path
           style="fill:#003169;fill-rule:evenodd;stroke:none"
           d="M 0,0 C -0.273,-0.323 -0.525,-0.503 -0.841,-0.503 C -1.416,-0.503 -1.733,-0.028 -1.733,0.935 C -1.733,1.9 -1.424,2.424 -0.856,2.424 C -0.489,2.424 -0.259,2.245 0,2.015 L 0,0 z M 0.554,-0.899 L 0.554,4.072 L 0,4.072 L 0,2.446 C -0.265,2.705 -0.676,2.87 -1.028,2.87 C -1.863,2.87 -2.323,2.18 -2.323,0.943 C -2.323,-0.287 -1.841,-0.963 -1.007,-0.963 C -0.539,-0.963 -0.252,-0.726 0.007,-0.467 L 0.022,-0.899 L 0.554,-0.899 z "
           id="path2604" />
      </g>
      <g
         transform="translate(360.829,492.496)"
         id="g2606">
        <path
           style="fill:#279dd0;fill-rule:nonzero;stroke:none"
           d="M 0,0 L -1.948,0 L -1.948,1.891 L -1.716,1.936 C -0.814,2.113 -0.317,2.348 0.023,2.609 C 0.194,2.741 0.333,2.886 0.466,3.047 C 0.607,3.217 0.737,3.397 0.884,3.586 L 0.971,3.696 L 2.785,3.696 L 2.785,-7.204 L 4.748,-7.204 L 4.748,-9.593 L -1.972,-9.593 L -1.972,-7.204 L 0,-7.204 L 0,0 z "
           id="path2608" />
      </g>
    </g>
  </g>
</svg>
