<?xml version="1.0" encoding="UTF-8" standalone="no"?>
<!-- Created with Inkscape (http://www.inkscape.org/) -->
<svg
   xmlns:dc="http://purl.org/dc/elements/1.1/"
   xmlns:cc="http://web.resource.org/cc/"
   xmlns:rdf="http://www.w3.org/1999/02/22-rdf-syntax-ns#"
   xmlns:svg="http://www.w3.org/2000/svg"
   xmlns="http://www.w3.org/2000/svg"
   xmlns:xlink="http://www.w3.org/1999/xlink"
   xmlns:sodipodi="http://sodipodi.sourceforge.net/DTD/sodipodi-0.dtd"
   xmlns:inkscape="http://www.inkscape.org/namespaces/inkscape"
   width="499"
   height="100"
   id="svg2"
   sodipodi:version="0.32"
   inkscape:version="0.45.1"
   version="1.0"
   inkscape:output_extension="org.inkscape.output.svg.inkscape">
  <g
     inkscape:label="Layer 1"
     inkscape:groupmode="layer"
     id="layer1"
     transform="translate(-118.70474,-400.52884)">
    <g
       id="g3476"
       transform="matrix(20.163254,0,0,20.163648,-4544.523,-9386.2157)">
      <g
         transform="matrix(1,0,0,-1,-86.12744,658.86017)"
         clip-path="url(#id364)"
         id="g6223">
        <path
           style="fill:#173d7d;fill-rule:nonzero;stroke:none"
           d="M 333.022,168.536 L 342.1494,168.536 L 342.1494,173.4944 L 333.022,173.4944 L 333.022,168.536 z "
           id="path6225" />
      </g>
      <path
         style="fill:#6c99d7;fill-rule:nonzero;stroke:none"
         d="M 244.66257,490.32519 L 246.64617,490.32519 L 246.64617,485.36649 L 244.66257,485.36649 L 244.66257,490.32519 z "
         id="path6227" />
      <path
         style="fill:#1969bc;fill-rule:nonzero;stroke:none"
         d="M 231.27357,490.32519 L 244.41557,490.32519 L 244.41557,485.36659 L 231.27357,485.36659 L 231.27357,490.32519 z "
         id="path6229" />
      <path
         style="fill:#ffffff;fill-rule:evenodd;stroke:none"
         d="M 231.93457,487.73019 L 231.93457,488.42819 C 231.93457,488.42819 232.19057,488.02019 232.37357,487.73019 L 231.93457,487.73019 z M 235.87557,487.73019 C 235.87757,487.82219 235.87757,487.91919 235.87757,487.91919 L 236.13957,487.91919 C 236.14057,487.91919 236.13957,487.82719 236.13957,487.82719 C 236.13957,487.79419 236.13857,487.76219 236.13857,487.73019 L 235.87557,487.73019 z M 236.33957,487.73019 C 236.33157,487.78119 236.32557,487.83219 236.32157,487.88419 C 236.31857,487.93219 236.30957,488.11119 236.34557,488.39119 L 236.95757,488.39119 C 236.95757,488.37919 236.93657,488.27619 236.92957,488.20219 C 236.91657,488.07619 236.92457,487.91719 236.92757,487.87819 C 236.93057,487.82719 236.93657,487.77819 236.94357,487.72919 L 236.33957,487.73019 z M 239.08257,487.73019 L 239.26157,487.93019 L 239.26157,487.73019 L 239.08257,487.73019 z M 240.19957,487.73019 L 240.19957,488.42919 C 240.19957,488.42919 240.45557,488.02019 240.63957,487.72919 L 240.19957,487.73019"
         id="path6231" />
      <path
         style="fill:#ffffff;fill-rule:evenodd;stroke:none"
         d="M 232.37357,487.73019 C 232.43857,487.62819 232.49357,487.54119 232.52657,487.49119 C 232.68357,487.25019 232.90757,486.80719 233.36957,486.79019 C 234.06857,486.76419 234.13757,487.52919 234.14957,487.67019 C 234.15657,487.67619 234.48057,486.82019 235.10057,486.79019 C 235.71957,486.76119 235.84557,487.37319 235.86957,487.60719 C 235.87257,487.63719 235.87457,487.68319 235.87557,487.72919 L 236.13857,487.73019 C 236.12057,487.03719 235.90157,486.46719 235.10657,486.48819 C 234.71857,486.49919 234.44557,486.74519 234.26357,487.00819 C 234.14357,486.72019 233.81157,486.47019 233.37557,486.48819 C 232.94057,486.50719 232.65857,486.80319 232.46957,487.10519 L 232.46957,486.58519 L 231.27357,486.58519 L 231.27357,486.88619 L 231.70157,486.88619 C 231.90957,486.88619 231.93457,486.98319 231.93457,487.18219 L 231.93457,487.73019 L 232.37357,487.73019 z M 236.94357,487.73019 C 237.01757,487.23319 237.28957,486.82619 237.83257,486.83119 C 238.31057,486.83719 238.57357,487.17219 238.70057,487.30319 L 239.08257,487.73019 L 239.26157,487.73019 L 239.26157,485.36619 L 238.09557,485.36619 L 238.09557,485.65819 L 238.42657,485.65819 C 238.63757,485.65819 238.71957,485.80719 238.71957,486.01219 L 238.71957,486.89319 C 238.44657,486.59519 238.10057,486.48319 237.69257,486.48319 C 236.86357,486.48319 236.43757,487.07719 236.33957,487.72919 L 236.94357,487.73019 z M 240.63957,487.73019 C 240.70357,487.62819 240.75857,487.54219 240.79157,487.49219 C 240.94857,487.25219 241.17257,486.80919 241.63457,486.79219 C 241.77057,486.78719 241.96157,486.82419 241.99257,486.97219 C 241.77057,486.97219 241.62157,487.07619 241.62157,487.30819 C 241.62157,487.49519 241.80157,487.60519 241.96857,487.60519 C 242.21557,487.60519 242.31457,487.41819 242.31457,487.17319 C 242.31457,486.72719 242.03557,486.47119 241.61557,486.48819 C 241.18057,486.50719 240.92357,486.80419 240.73457,487.10619 L 240.73457,486.58619 L 239.53857,486.58619 L 239.53857,486.88819 L 239.96657,486.88819 C 240.17457,486.88819 240.19957,486.98419 240.19957,487.18319 L 240.19957,487.73019 L 240.63957,487.73019"
         id="path6233" />
      <path
         style="fill:#ffffff;fill-rule:evenodd;stroke:none"
         d="M 251.03057,489.84419 C 250.59257,489.84419 250.44057,489.48319 250.44057,489.10619 C 250.44057,488.73619 250.61657,488.36719 251.03057,488.36719 C 251.47257,488.36719 251.62557,488.73219 251.62557,489.10619 C 251.62557,489.48619 251.44757,489.84419 251.03057,489.84419 z M 251.03057,488.61219 C 250.82457,488.61219 250.79457,488.89719 250.79457,489.10619 C 250.79457,489.36319 250.84157,489.59919 251.03057,489.59919 C 251.24757,489.59919 251.27157,489.31219 251.27157,489.10619 C 251.27157,488.89519 251.25157,488.61219 251.03057,488.61219 z M 249.78557,488.64819 L 249.78557,488.97019 L 250.22157,488.97019 L 250.22157,489.22619 L 249.78557,489.22619 L 249.78557,489.82019 L 249.44457,489.82019 L 249.44457,488.38919 L 250.24257,488.38919 L 250.24257,488.64819 L 249.78557,488.64819 z M 248.68057,489.82019 L 248.32857,488.77919 L 248.32857,489.82019 L 248.03857,489.82019 L 248.03857,488.38919 L 248.47657,488.38919 L 248.83057,489.43219 L 248.83057,488.38919 L 249.12057,488.38919 L 249.12057,489.82019 L 248.68057,489.82019 z M 247.73157,489.82019 L 247.39026,489.82019 L 247.39026,488.38859 L 247.73157,488.38859 L 247.73157,489.82019 z "
         id="path6235" />
    </g>
  </g>
</svg>
