<?xml version="1.0" encoding="UTF-8" standalone="no"?>
<!-- Created with Inkscape (http://www.inkscape.org/) -->

<svg
   xmlns:dc="http://purl.org/dc/elements/1.1/"
   xmlns:cc="http://creativecommons.org/ns#"
   xmlns:rdf="http://www.w3.org/1999/02/22-rdf-syntax-ns#"
   xmlns:svg="http://www.w3.org/2000/svg"
   xmlns="http://www.w3.org/2000/svg"
   version="1.1"
   width="1000"
   height="413.78"
   id="svg11662">
  <defs
     id="defs11664" />
  <metadata
     id="metadata11667">
    <rdf:RDF>
      <cc:Work
         rdf:about="">
        <dc:format>image/svg+xml</dc:format>
        <dc:type
           rdf:resource="http://purl.org/dc/dcmitype/StillImage" />
        <dc:title></dc:title>
      </cc:Work>
    </rdf:RDF>
  </metadata>
  <g
     id="g2991">
    <path
       d="m 595.9859,50.200955 c -0.0881,0.04827 0.0831,0.353716 0,0.407732 -0.58168,0.377854 -1.2978,0.626146 -1.63092,1.223196 -0.38071,0.682381 -0.78992,1.468749 -1.2232,2.038661 -0.43328,0.569911 -0.96364,1.055536 -1.63093,1.223196 -3.1442,1.564504 -8.03403,1.643362 -12.63969,1.223196 a 0.65243654,0.65243654 0 0 0 -0.40773,0 c -4.57782,0.822118 -7.61644,0.815464 -11.4165,0.815464 -8.90097,0.427042 -18.19561,2.03866 -26.09485,2.03866 a 0.65243654,0.65243654 0 0 0 -0.40774,0 c -1.70808,0.37394 -3.20649,-0.287304 -4.89278,-0.815464 -1.68629,-0.52816 -3.21568,-0.87496 -5.30052,-0.407732 a 0.65243654,0.65243654 0 0 0 -0.40773,0 c -2.7669,3.164353 -6.5618,3.64275 -10.60103,1.630928 a 0.65243654,0.65243654 0 0 0 -0.40773,0 0.65243654,0.65243654 0 0 0 -0.40774,0 c -3.28086,2.054526 -6.05651,2.854125 -10.1933,2.854125 l 0,0.407732 c -0.8635,-0.529204 -1.98646,-0.51159 -2.85412,-0.815464 -1.17555,-0.411646 -2.09588,-1.029964 -3.26186,-0.815464 -2.15325,0.39612 -4.07392,1.581504 -6.11598,2.446392 -2.04206,0.864914 -4.22235,1.526614 -6.11598,1.630928 -1.89363,0.10438 -3.8178,-0.248292 -5.70825,-2.03866 a 0.65243654,0.65243654 0 0 0 0,-0.407732 0.65243654,0.65243654 0 0 0 -0.40773,0 0.65243654,0.65243654 0 0 0 -0.40773,0 0.65243654,0.65243654 0 0 0 0,0.407732 c -1.27786,1.480022 -2.20152,1.685988 -3.26186,1.630928 -1.06034,-0.0548 -2.44287,-0.544208 -3.66959,-1.223196 -1.22672,-0.678988 -2.2131,-1.322513 -3.66959,-1.630928 -0.7445,-0.157613 -1.5684,0.157874 -2.44639,0.407732 -0.53655,0.152655 -1.1297,0.122646 -1.63093,0.407732 -2.80609,-1.63312 -5.92552,-0.437872 -8.56237,0.407732 -1.31843,0.422867 -2.54552,0.694123 -3.66959,0.815464 -1.12408,0.121341 -1.95044,0.226242 -2.85412,-0.407732 a 0.65243654,0.65243654 0 0 0 0,-0.407732 0.65243654,0.65243654 0 0 0 -0.40774,0 c -3.96119,0 -7.47995,1.786767 -11.00876,3.261856 -3.40635,1.423905 -6.91374,2.760157 -10.60104,2.854125 -0.11129,-0.04436 -0.29208,0.03392 -0.40773,0 -1.28187,-0.380072 -3.00268,-0.359326 -4.48505,-0.407732 -1.61612,-0.05219 -2.78291,-0.386856 -3.66959,-1.630928 a 0.65243654,0.65243654 0 0 0 -0.40773,0 c -2.68741,-1.32648 -5.54964,-0.404601 -7.74691,0.815464 -0.52769,-0.08872 -0.99423,-0.127865 -1.2232,-0.407732 -0.22897,-0.280389 -0.22035,-0.802287 -0.40773,-1.223197 -0.37475,-0.841819 -0.76528,-2.125869 -1.2232,-3.261856 -1.42339,-1.211062 -3.00309,-2.863649 -4.48505,-4.077321 -1.48195,-1.213671 -3.01382,-2.03866 -5.30051,-2.03866 a 0.65243654,0.65243654 0 0 0 -0.40774,0 0.65243654,0.65243654 0 0 0 -0.40773,0 0.65243654,0.65243654 0 0 0 0,0.407732 c -0.45014,0.898315 -0.75257,1.603437 -1.2232,2.03866 -0.47062,0.435263 -1.10968,0.600573 -1.63092,0.815465 -1.04262,0.429782 -1.98266,0.535466 -3.26186,0.407732 -1.27917,-0.127865 -2.68263,-0.428217 -4.07732,-0.407732 -1.39469,0.02087 -2.78573,0.579566 -4.07732,1.630928 l 0,-0.407732 c -4.10798,0.831121 -8.24449,0.905361 -11.4165,4.07732 -2.31695,0.769799 -4.97797,-0.09003 -7.74691,-0.407732 -2.76894,-0.317705 -5.43583,-0.18449 -8.15464,1.630929 -4.78415,1.975393 -9.3443,0.0274 -13.04743,-3.261857 -0.80515,-0.805157 -0.70482,-2.129379 -0.81546,-3.669589 -0.0548,-0.770059 -0.003,-1.703824 -0.40773,-2.446392 -0.40499,-0.742529 -0.96473,-1.276038 -2.03866,-1.630928 -0.95325,-0.360892 -2.0896,-0.64637 -2.85413,-0.407732 -0.76458,0.238637 -1.47694,0.718 -2.03866,1.223196 -1.04314,0.93824 -1.4712,2.276711 -2.44639,2.854124 -0.14287,-0.09786 -0.26512,0.08742 -0.40773,0 -3.4274,-2.110068 -6.72397,-1.376216 -9.78557,-0.407732 -3.18896,1.008827 -5.85258,1.982648 -8.97011,0.815464 a 0.65243654,0.65243654 0 0 0 -0.40773,0 c -0.9826,0.127865 -2.00126,0.617013 -2.44639,1.223197 -0.44518,0.606183 -0.27126,1.378486 -0.40773,2.03866 -0.13648,0.6602 -0.24438,1.132517 -0.40773,1.630928 -0.16336,0.498412 -0.45849,1.007262 -0.81547,1.223196 a 0.65243654,0.65243654 0 0 0 -0.40773,0 0.65243654,0.65243654 0 0 0 0,0.407732 c -0.49254,1.973906 -1.54666,3.110663 -2.85413,4.077321 -1.30746,0.966684 -2.66877,1.655614 -4.48505,2.03866 -3.49966,0.738093 -7.54741,0.634236 -10.60103,1.223197 -0.0418,-0.105685 -0.36298,0.10177 -0.40773,0 -0.30231,-0.689818 -0.8567,-1.044708 -1.2232,-1.630929 -0.48889,-0.726089 -1.013,-1.476759 -1.63093,-2.03866 -1.15013,-1.23246 -2.19006,-2.457757 -3.66959,-3.261856 -3.02503,-1.644041 -6.37323,-3.157164 -8.15464,-6.115981 a 0.65243654,0.65243654 0 0 0 0,-0.407732 c -1.71832,-0.987299 -3.40681,-0.475449 -4.89278,0 -1.48597,0.475448 -2.86586,0.923105 -4.07732,0.407732 a 0.65243654,0.65243654 0 0 0 -0.40774,0 c -2.32013,1.160046 -5.18618,1.176747 -7.7469,0.407732 -2.56073,-0.769016 -4.73488,-2.198557 -6.93145,-2.854125 a 0.65243654,0.65243654 0 0 0 -0.40773,0 c -3.98474,1.395044 -7.90726,0.18423 -11.82423,-0.407732 -1.95849,-0.295915 -4.13687,-0.512372 -6.11598,0 -1.88551,0.488104 -3.5206,2.085396 -5.30052,4.077321 -0.89714,-0.727655 -1.91965,-0.732613 -2.85412,-1.223196 -2.70327,-1.419312 -5.42386,-2.549402 -8.15464,-2.854125 a 0.65243654,0.65243654 0 0 0 -0.40774,0 0.65243654,0.65243654 0 0 0 -0.40773,0 0.65243654,0.65243654 0 0 0 0,0.407732 c -0.298,0.949983 -0.45979,1.682544 -0.81546,2.038661 -0.35568,0.356064 -0.9051,0.33584 -1.2232,0.407732 -0.63606,0.143913 -1.38113,0.201582 -2.44639,-0.407732 -0.09,-0.05219 -0.31301,0.0548 -0.40773,0 -1.02057,-0.593658 -2.1405,-1.522413 -3.26186,-2.038661 -1.22541,-0.56417 -2.38002,-1.052536 -3.66959,-0.407732 a 0.65243654,0.65243654 0 0 0 -0.40773,0 c -1.93817,2.514383 -4.84622,3.21182 -8.15464,3.261857 -3.30842,0.04958 -7.02557,-0.509241 -9.78557,0.407732 a 0.65243654,0.65243654 0 0 0 0,0.407732 c -1.32265,1.322643 -3.2688,1.61942 -5.30052,2.03866 -0.97647,0.201452 -1.86613,0.875352 -2.85412,1.223196 -0.94424,0.332449 -1.98861,0.332057 -2.85413,0.815464 -0.11351,0.06263 -0.29709,-0.06915 -0.40773,0 -1.5821,0.25286 -2.95582,1.121035 -4.48505,1.630929 -0.12395,0.04175 -0.28431,-0.04045 -0.40773,0 -1.64536,0.543295 -3.39901,0.815464 -4.89279,0.815464 -4.14382,2.079968 -8.34756,3.454776 -11.4165,6.523713 -1.18509,1.980312 -3.06523,3.586816 -4.89278,4.892785 -1.66278,1.188229 -3.321,2.258352 -4.48505,3.669588 -0.11482,0.139869 -0.3031,0.260818 -0.40774,0.407732 -3.26266,1.962607 -6.20307,4.611887 -8.9701,6.931445 -2.90675,2.436685 -5.77572,4.485053 -9.78557,4.485053 -7.18039,2.535219 -15.78406,5.696246 -22.42526,6.931446 a 0.65243654,0.65243654 0 0 0 0,0.40773 c -5.07265,2.11088 -10.495275,4.43761 -15.901555,6.11598 a 0.65243654,0.65243654 0 0 0 -0.407732,0 0.65243654,0.65243654 0 0 0 0,0.40773 c -1.641027,2.88375 -2.409181,4.42332 -2.854124,7.74691 -5.380941,5.24294 -5.701908,12.17838 -6.115981,18.75568 a 0.65243654,0.65243654 0 0 0 0,0.40773 c 0.26969,0.71578 0.191797,1.49435 0,2.03866 -0.191797,0.54434 -0.724785,1.08333 -1.223196,1.63093 -0.996954,1.09533 -2.122177,1.78844 -2.854125,3.26186 -3.121544,1.56509 -4.737455,4.03332 -6.115981,6.52371 -1.378525,2.49039 -2.52328,4.94658 -4.892784,6.52371 a 0.65243654,0.65243654 0 0 0 0,0.40773 l 0.407732,5.70825 c -0.715391,0.84195 -1.176748,1.57898 -1.223197,2.44639 -0.05219,0.98652 0.168051,1.98135 0.407733,2.85413 0.239681,0.87274 0.401077,1.66321 0.407732,2.44639 0.0066,0.78324 -0.16218,1.20128 -0.815465,2.03866 a 0.65243654,0.65243654 0 0 0 0,0.40773 c -0.161527,0.80751 -0.971772,1.19071 -1.630928,1.63093 -0.329578,0.22011 -0.54212,0.38568 -0.815464,0.81547 -0.273343,0.42978 -0.537684,0.98599 -0.407732,1.63092 a 0.65243654,0.65243654 0 0 0 0,0.40774 0.65243654,0.65243654 0 0 0 0.407732,0 c 0.848866,0.66228 1.180531,1.08907 1.223196,1.63092 0.04306,0.54186 -0.445569,1.34954 -0.815464,2.03866 -0.739658,1.37826 -2.03866,2.64271 -2.03866,4.48506 a 0.65243654,0.65243654 0 0 0 0,0.40773 c 0.752836,1.49614 2.521728,2.6965 3.261856,3.66959 0.370025,0.48654 0.457704,0.84104 0.407732,1.22319 -0.04958,0.38216 -0.347322,0.94686 -1.223196,1.63093 a 0.65243654,0.65243654 0 0 0 -0.407732,0 0.65243654,0.65243654 0 0 0 0,0.40773 c 0.186839,1.11034 0.08742,2.1812 -0.407732,2.85413 -0.49515,0.67299 -1.099637,1.09703 -2.03866,1.63093 -1.878138,1.06793 -4.462885,1.91257 -5.708249,3.66959 a 0.65243654,0.65243654 0 0 0 0,0.40773 c 0.147958,0.44674 0.0835,1.13565 0,2.03866 -0.0835,0.90301 -0.380854,2.23586 -0.407732,3.26185 -0.0274,1.02605 0.349279,1.93245 0.815464,2.85413 0.382159,0.75545 1.097941,1.23089 2.03866,1.63093 0.206932,0.0874 0.173401,0.34419 0.407732,0.40773 0.469969,2.655 2.193116,4.54169 3.669589,6.11598 0.796415,0.84917 1.322422,1.56084 1.630928,2.44639 0.308572,0.88556 0.178098,1.90613 -0.407732,3.26186 -0.777626,1.9553 -2.049516,3.37599 -3.669588,4.89278 -1.620073,1.51679 -3.359243,2.86809 -4.485053,4.89279 l 0.407732,0.40773 c -0.833731,0.24781 -1.462956,0.79656 -2.03866,1.2232 -0.752837,0.55791 -1.357141,1.06691 -1.630929,2.03866 -0.511589,1.81572 -0.815464,4.02024 -0.815464,5.70825 a 0.65243654,0.65243654 0 0 0 0,0.40773 0.65243654,0.65243654 0 0 0 0.407732,0 c 3.72474,3.29312 6.24472,7.1684 10.601034,9.78557 0.755707,1.12984 0.5476,2.11904 0.407732,3.26185 -0.139868,1.14282 -0.608532,2.43233 -1.223196,3.66959 a 0.65243654,0.65243654 0 0 0 0,0.40774 0.65243654,0.65243654 0 0 0 0.407732,0 0.65243654,0.65243654 0 0 0 0,0.40773 c 4.245906,2.3173 5.706305,6.851 7.339177,11.41649 0,3.83599 2.025926,6.5524 4.077321,8.97011 2.051394,2.41771 3.866252,4.83403 3.669588,8.15464 a 0.65243654,0.65243654 0 0 0 0.407732,0 0.65243654,0.65243654 0 0 0 0,0.40773 l 5.708249,2.03866 0.407732,0.40774 c 0.339886,0.83524 0.564301,1.8686 0.815464,2.44639 0.151742,0.34908 0.469316,0.58395 0.407732,0.81546 -0.06132,0.23152 -0.267341,0.45125 -0.815464,0.81547 a 0.65243654,0.65243654 0 0 0 -0.407732,0 0.65243654,0.65243654 0 0 0 0,0.40773 0.65243654,0.65243654 0 0 0 0,0.40773 c 0.204192,0.20418 0.602139,0.20395 0.815464,0.40773 1.622448,1.55021 3.651336,2.90851 5.708249,4.07732 1.028529,0.58441 2.145323,1.2336 3.261857,1.63093 0.110903,0.0436 0.296698,-0.0412 0.407732,0 0.993561,0.32762 1.803311,0.68388 2.854124,0.81547 0.151089,0.4715 0.231983,0.87822 0,1.22319 -0.231983,0.34498 -0.620796,0.81639 -1.223196,1.2232 a 0.65243654,0.65243654 0 0 0 -0.407732,0 0.65243654,0.65243654 0 0 0 0,0.40773 0.65243654,0.65243654 0 0 0 0,0.40773 c 2.982916,5.53734 6.723036,10.41458 11.416496,14.67836 a 0.65243654,0.65243654 0 0 0 0,0.40773 0.65243654,0.65243654 0 0 0 0.40773,0 l 10.19331,2.85412 c 0.25259,0.27767 0.50728,0.74562 0.81546,0.81547 0.46227,0.10477 0.90784,0.0519 1.2232,0 0.31535,-0.0519 0.29291,-0.43457 0.40773,-0.40773 0.11482,0.0269 0.26186,0.11025 0.40773,0.40773 a 0.65243654,0.65243654 0 0 0 0,0.40773 0.65243654,0.65243654 0 0 0 0.40773,0 c 8.77708,3.33594 18.32492,4.58846 26.91032,8.9701 0.15683,0.08 0.25155,0.32561 0.40773,0.40774 1.05332,1.73311 2.27517,3.14734 3.66959,3.66959 1.54935,0.58026 3.26037,0.51448 4.89278,0.40773 3.26482,-0.21351 6.44264,-0.93282 9.37784,1.22319 1.77453,1.55056 4.06744,2.9462 5.70825,4.48506 0.82042,0.76942 1.73449,1.51327 2.03866,2.44639 0.30414,0.93312 0.0796,1.89481 -0.40773,3.26186 a 0.65243654,0.65243654 0 0 0 0,0.40773 0.65243654,0.65243654 0 0 0 0,0.40773 0.65243654,0.65243654 0 0 0 0.40773,0 c 3.84134,1.29149 8.00004,2.01782 11.82423,2.44639 1.19606,0.79741 2.3908,1.9635 3.66959,2.85413 1.17061,0.81526 2.54538,1.49632 4.07732,1.22319 0.14156,-0.0253 0.2633,0.0407 0.40773,0 3.91489,1.0821 6.81832,0.29228 9.37784,-1.22319 2.57333,-1.52366 4.63648,-3.87943 7.33918,-5.30052 2.73489,0.91751 6.99797,0.99506 9.78557,-0.40773 1.90874,-1.32655 3.64854,-0.97346 5.70824,-0.40773 1.9402,0.53289 4.31916,1.11523 6.52372,0.81546 0.13582,-0.0185 0.27099,0.0275 0.40773,0 5.01749,1.57142 9.4874,1.25445 14.27062,2.44639 a 0.65243654,0.65243654 0 0 0 0.40773,0 c 8.60469,-1.6322 16.95341,-0.83743 26.09486,-0.40773 l 0.40773,0 c 2.98351,2.39462 6.18664,3.20807 9.37783,3.26186 3.31553,0.0558 6.94036,-0.20008 10.60104,0.81546 a 0.65243654,0.65243654 0 0 0 0.40773,0 0.65243654,0.65243654 0 0 0 0,-0.40773 c 3.61917,-1.60679 7.44978,-1.56562 10.60103,0.40773 0.5129,0.8482 0.41374,2.3489 0.81547,3.66959 0.20093,0.66034 0.68355,1.12503 1.22319,1.63093 0.53965,0.5059 1.07224,0.81546 2.03866,0.81546 a 0.65243654,0.65243654 0 0 0 0.40774,0 0.65243654,0.65243654 0 0 0 0.40773,0 0.65243654,0.65243654 0 0 0 0,-0.40773 c 1.57369,-2.56199 3.63645,-3.09924 6.11598,-3.66959 2.31333,-0.53213 4.74725,-0.92938 6.93144,-2.44639 3.73859,0.87716 7.65914,0.27859 11.4165,-0.40773 3.75736,-0.68633 7.37078,-1.83429 10.60104,-1.63093 3.17852,0.84378 7.05064,2.09322 11.00876,2.03866 3.95812,-0.0545 7.92387,-1.14292 10.60104,-4.48505 2.85008,-1.52054 5.73626,0.008 8.9701,0.81546 1.61693,0.40397 3.35357,0.4899 4.89279,0 1.38529,-0.44091 2.71107,-1.76815 3.66958,-3.66959 2.15484,-2.3521 4.65346,-2.5464 7.33918,-2.03866 2.68572,0.50774 5.49517,1.60114 8.15464,2.03866 1.07511,1.34151 1.99815,3.17244 3.26186,4.48505 1.27369,1.32294 3.10007,2.0489 5.30052,2.03866 0.10438,-4.8e-4 0.35893,-0.10453 0.40773,0 1.07559,0.78133 2.49342,0.9472 3.66959,1.2232 1.49904,0.35176 2.75876,0.70487 4.07732,0.81546 1.23465,0.1036 2.39791,0.33686 3.26185,0.81547 0.86395,0.4786 1.55248,1.39179 2.03866,2.85412 a 0.65243654,0.65243654 0 0 0 0,0.40773 0.65243654,0.65243654 0 0 0 0.40774,0 c 4.90348,0.44891 9.02934,-2.06046 12.63969,-2.85412 1.81471,0.22794 3.40984,-0.25351 4.89278,-0.40773 1.48295,-0.15422 2.7081,0.0223 4.48506,0.81546 1.94878,1.26071 4.11228,1.20407 6.11598,0.81547 2.0037,-0.38861 3.80418,-1.30773 5.70825,-2.03866 1.90406,-0.73093 4.01971,-1.26973 5.70825,-1.2232 1.68854,0.0466 2.89712,0.56241 4.48505,2.44639 a 0.65243654,0.65243654 0 0 0 0.40773,0 0.65243654,0.65243654 0 0 0 0,0.40773 c 2.33689,0.942 4.50676,0.0509 6.11598,-1.22319 1.52876,-1.21036 2.37282,-3.08962 3.66959,-4.07732 l 0.40773,0 c 2.12036,-0.0304 4.05057,-0.58399 6.11598,-0.81547 2.1882,-0.24523 4.50538,-0.17434 6.52372,-0.40773 4.04884,-0.46818 7.97616,-0.60267 11.82423,1.63093 a 0.65243654,0.65243654 0 0 0 0,0.40773 c 3.46039,0 6.65366,-2.58797 9.37783,-4.07732 1.36209,-0.74467 2.43242,-1.1699 3.66959,-1.22319 1.23717,-0.0533 2.70394,0.35645 4.07732,1.63092 a 0.65243654,0.65243654 0 0 0 0.40773,0 c 4.39681,-1.59461 8.95379,-0.29502 13.45516,0.81547 2.18472,0.53897 4.26991,0.83178 6.52372,0.81546 0.12634,0.003 0.28141,-3.2e-4 0.40773,0 1.00403,-0.0301 2.25456,-0.15711 3.26185,-0.40773 1.13149,-0.28152 2.13426,-0.57861 3.26186,-1.2232 0.13619,-0.0778 0.27161,0.0842 0.40773,0 3.48042,-0.25572 7.95684,1.30763 12.23196,2.03866 2.20695,0.37738 4.44544,0.60709 6.52372,0 1.9927,-0.58209 3.80739,-1.828 5.30051,-4.07732 1.77168,-0.98511 3.19148,-1.3724 4.89279,-1.22319 1.70131,0.1492 3.38199,0.79318 5.30052,1.22319 a 0.65243654,0.65243654 0 0 0 0.40773,0 c 2.72786,0 4.84796,-1.04931 6.93144,-2.03866 2.08348,-0.98935 3.80363,-1.81247 6.11598,-1.22319 0.92865,0.37074 1.3724,0.65528 1.63093,1.22319 0.25854,0.56792 0.38189,1.21868 0.40773,2.03866 0.0258,0.81998 -0.18241,1.94346 0,2.85413 0.18242,0.91066 0.7767,1.70606 1.63093,2.44639 a 0.65243654,0.65243654 0 0 0 0.40773,0 c 5.474,1.74558 9.77466,0.52319 14.27063,-1.2232 4.49597,-1.74638 8.9869,-3.86728 14.27062,-3.26185 9.20743,1.68587 17.33268,1.21752 26.50258,-2.03866 0.11952,0.0508 0.28788,-0.0492 0.40774,0 5.94403,2.43971 12.357,3.00444 16.71701,7.74691 a 0.65243654,0.65243654 0 0 0 0,0.40773 c 4.36462,0.87969 8.38888,-0.35304 11.82423,-1.63093 a 0.65243654,0.65243654 0 0 0 0.40773,0 c 1.92819,-1.3475 3.81999,-1.46973 6.11598,-1.63093 2.296,-0.16119 4.89283,-0.17052 6.93145,-2.44639 0.30426,-0.30427 0.4333,-0.38283 0.81546,-0.40773 0.38216,-0.0249 1.12208,-0.081 1.63093,0 0.50885,0.081 1.04105,0.11415 1.63093,0 0.58987,-0.11415 0.83034,-0.56515 1.22319,-1.2232 a 0.65243654,0.65243654 0 0 0 0.40774,0 c 0.45248,-1.34016 0.45248,-2.32943 0,-3.66959 a 0.65243654,0.65243654 0 0 0 0,-0.40773 0.65243654,0.65243654 0 0 0 -0.40774,0 c -3.2225,-2.58966 -7.16684,-4.66843 -10.1933,-7.33918 -3.02645,-2.67075 -4.89278,-5.7359 -4.89278,-10.60103 a 0.65243654,0.65243654 0 0 0 0,-0.40773 0.65243654,0.65243654 0 0 0 -0.40773,0 c -1.50039,-2.0585 -0.8323,-4.89224 0,-7.74691 0.83229,-2.85468 2.0916,-5.76221 1.63092,-8.56238 l -0.40773,0 c 1.33337,-2.60896 1.57506,-5.1867 1.2232,-7.7469 -0.3699,-2.69184 -0.76341,-5.21574 0.40773,-7.74691 l -0.40773,0 c 5.50788,-6.36029 11.26055,-14.05167 16.71701,-21.20207 1.30879,-2.83712 2.0304,-6.04442 3.26186,-8.97011 1.23142,-2.92569 2.95605,-5.33778 6.11598,-6.52371 a 0.65243654,0.65243654 0 0 0 0,-0.40773 0.65243654,0.65243654 0 0 0 0.40773,0 c 0.81116,-3.62662 2.92936,-6.75922 4.89279,-9.78557 1.47257,-2.26976 2.427,-4.59057 2.85412,-7.33918 0.14235,-0.9162 0.46123,-1.80338 0.40773,-2.85412 0,-0.86112 0.23277,-1.42316 0.40774,-1.63093 0.17496,-0.20777 0.36898,-0.31406 0.81546,-0.40773 0.89297,-0.18732 2.43289,0.0136 3.66959,-1.2232 a 0.65243654,0.65243654 0 0 0 0,-0.40773 c 7.72178,-9.88055 8.64139,-21.52433 6.52371,-34.65723 -2.42741,-4.26563 -3.29184,-10.20965 -4.89278,-15.49381 -1.18849,-3.92287 -2.93284,-7.09183 -6.11598,-9.37784 -0.94425,-0.67808 -2.05013,-1.59966 -3.26186,-2.03866 l 0,-0.40773 c -1.69362,-1.29627 -2.70638,-2.44161 -2.85412,-3.66959 -0.1477,-1.22803 0.56234,-2.68096 1.22319,-4.07732 1.32163,-2.79274 3.44438,-5.70913 3.66959,-8.97011 a 0.65243654,0.65243654 0 0 0 0,-0.40773 c -1.02683,-1.37206 -2.10668,-2.03095 -3.26186,-2.03866 -1.15522,-0.008 -2.26885,0.71317 -3.26185,1.2232 -0.99304,0.51002 -1.97063,0.99812 -2.85413,1.22319 -0.88344,0.22507 -1.54575,0.22416 -2.44639,-0.40773 -7.1797,-8.84409 -15.49739,-18.6625 -16.30928,-30.17217 a 0.65243654,0.65243654 0 0 0 0,-0.40774 c -0.96264,-1.92538 -0.60018,-3.49617 0,-5.30051 0.60018,-1.80434 1.37256,-3.94055 2.03866,-5.70825 a 0.65243654,0.65243654 0 0 0 0,-0.40773 c -0.96147,-0.96891 -1.91065,-2.45165 -2.85413,-3.66959 -0.47166,-0.60879 -1.31545,-0.85148 -2.03866,-1.2232 -0.447,-0.22976 -0.71147,-0.6478 -1.22319,-0.81546 -1.8975,-3.03012 -1.67259,-6.9094 -2.03866,-11.008768 -0.0131,-0.146914 0.0144,-0.259252 0,-0.407732 0.7985,-2.061702 2.03181,-2.941346 3.66959,-3.261856 1.73412,-0.339364 3.9935,0.193884 6.11598,0.407732 0.55608,0 0.86948,-0.480798 1.22319,-0.815464 0.35372,-0.334667 0.69021,-0.376549 0.81547,-0.815465 0.25038,-0.87783 0.40773,-2.014196 0.40773,-2.854124 a 0.65243654,0.65243654 0 0 0 0,-0.407732 0.65243654,0.65243654 0 0 0 -0.40773,0 c -1.3692,-2.293842 -3.27456,-3.027316 -5.30052,-3.669589 -1.73653,-0.550471 -3.47311,-1.356671 -4.89279,-2.446392 0.67978,-4.846662 4.81085,-9.288619 7.74691,-13.047426 1.52106,-2.089611 4.87405,-3.382728 7.33918,-5.300517 1.23259,-0.958855 2.36399,-2.231214 2.85413,-3.669588 0.49019,-1.438375 0.18344,-2.890801 -0.81547,-4.892785 a 0.65243654,0.65243654 0 0 0 0,-0.407732 0.65243654,0.65243654 0 0 0 -0.40773,0 0.65243654,0.65243654 0 0 0 -0.40773,0 c -1.37811,0.590657 -2.92724,0.900794 -4.48506,1.223196 -1.55781,0.322402 -3.09529,0.474274 -4.48505,1.630928 -2.79353,1.19945 -5.57276,1.364409 -8.56237,1.630928 -2.82594,0.251946 -5.99965,0.73157 -8.56237,2.854125 -7.46551,0.417387 -13.90767,-1.24616 -21.6098,-0.815464 -2.64073,0.408645 -5.79109,0.405644 -8.56238,0.407732 -2.77129,0.0021 -5.26799,0.282738 -7.74691,1.630928 l 0,-0.407732 c -3.88311,0.425868 -7.91096,2.035725 -11.82423,2.446392 -3.91326,0.410733 -7.38932,-0.05349 -10.60103,-2.854124 a 0.65243654,0.65243654 0 0 0 0,-0.407732 0.65243654,0.65243654 0 0 0 -0.40773,0 c -1.5344,0 -2.59716,-0.49528 -3.26186,-1.223196 -0.6647,-0.727916 -1.18323,-1.798249 -1.63093,-2.854125 -0.44769,-1.055928 -0.75673,-2.082291 -1.63092,-2.854124 -0.78764,-0.695428 -2.20101,-0.685381 -3.66959,-0.407732 l -0.40774,0 c -3.09066,-0.435915 -5.41877,-1.852748 -6.93144,-4.892785 a 0.65243654,0.65243654 0 0 0 -0.40773,0 c -0.95886,-0.594702 -1.74176,-0.798502 -2.4464,-0.407732 z m 215.28253,8.154641 c -1.4347,0.03914 -2.70734,0.395468 -4.07732,0.815464 -5.0518,2.519785 -10.38059,2.617131 -15.08608,4.077321 -1.58532,0.468403 -3.00907,1.198798 -4.48506,2.03866 -5.05587,-2.103897 -10.04651,0 -15.08608,0 -1.15796,-0.945938 -2.33937,-1.630928 -3.66959,-2.03866 -3.95398,-1.204799 -8.52976,-0.317966 -12.63969,0 -1.89188,0 -3.69813,-0.299699 -5.30052,-0.407732 -1.582,-0.104379 -3.00091,-0.02479 -4.48505,0.815464 1.69616,6.328002 6.328,12.068869 11.82423,16.717015 l -0.81547,5.300516 c 3.80006,5.072187 5.56147,11.286024 10.1933,15.493816 1.27213,6.3117 5.25159,12.44399 6.52372,18.34795 1.25986,4.746 5.21667,7.70282 9.37783,9.37783 1.38859,0.55073 2.70734,0.90928 4.07732,1.2232 5.90396,-1.46784 9.5389,-5.96104 11.82423,-11.4165 2.31796,-5.47585 3.22109,-11.87316 4.48506,-16.71701 3.35971,-2.527942 5.70825,-6.800974 5.70825,-10.601037 4.20779,-0.424041 1.98973,-5.626702 3.26185,-8.562373 2.61184,-1.965216 5.63967,-4.632645 7.33918,-7.746909 0.56626,-1.027224 1.01117,-1.802176 1.2232,-2.854125 1.69616,-1.696165 -0.48928,-5.267898 2.03866,-6.115981 0,-0.979861 0.67116,-1.623713 0.81546,-2.446392 0.10568,-0.368981 0.0796,-0.433696 0,-0.815464 -0.0796,-0.367937 -0.39142,-0.8032 -0.81546,-1.223196 -1.123,-0.612968 -2.37989,-1.14439 -3.66959,-1.630929 -0.68264,-0.250119 -1.32664,-0.619361 -2.03866,-0.815464 -0.65785,-0.1871 -1.36463,-0.275431 -2.03866,-0.407732 -1.42095,-0.263036 -3.05035,-0.447005 -4.48506,-0.407732 z m 72.98404,30.987637 c -0.88305,-0.0048 -1.4026,0.285478 -2.03866,0.815464 3.80007,5.887651 4.61553,13.292063 1.2232,18.347943 -0.83177,2.52794 -0.3425,7.63274 -2.44639,11.00877 -1.27213,2.52793 -4.81124,3.65327 -7.33918,4.07732 -2.12021,2.95198 -0.44035,6.83359 0.81546,9.78557 -0.42404,1.27212 -1.66354,2.00604 -0.40773,2.85412 -3.78375,6.73573 -10.1933,12.78648 -10.1933,21.20207 0.42404,0.42404 -1.25581,1.22319 0,1.22319 -0.81103,3.7055 -5.52675,6.49959 -7.33918,9.37784 l 0,0.40773 c -2.74214,2.54485 -3.66266,6.49966 -5.30051,9.37784 -7.15978,6.73573 -12.08518,14.02598 -16.71702,22.01753 -2.52794,7.17609 1.36998,-0.57082 -3.26186,4.48505 2.93568,2.52794 -2.54424,6.83359 0.40774,10.19331 9.27998,1.25581 8.44821,18.11961 11.82423,25.27938 3.78375,4.63184 5.67563,10.82937 6.93144,16.30929 3.35971,3.80006 6.57264,9.63878 5.30052,14.27062 0.40773,2.52794 3.26186,3.58804 3.26186,6.11598 2.10389,6.31169 6.36062,8.04048 11.41649,11.4165 1.25582,4.63183 3.58805,8.02416 5.70825,11.82423 l 0.40773,-0.81547 3.66959,6.11598 c -0.44035,4.63184 2.08759,10.03021 0,15.08609 0.83178,2.54425 3.19662,2.03866 5.30052,2.03866 6.328,-3.80006 13.22683,-5.20266 20.3866,-8.15464 2.1039,-0.42404 4.89279,-1.97342 4.89279,-4.48505 5.05587,-3.37602 6.05074,-10.0139 8.15464,-15.49382 2.52794,-5.05588 5.65932,-5.12112 7.74691,-10.60104 -2.51163,-7.15977 1.09272,-13.69979 5.30051,-18.75567 0,-2.54425 0.3425,-4.82755 2.4464,-6.93145 0.44035,-5.49622 -0.45666,-8.39928 0.40773,-13.45515 -0.86439,-2.54425 0.0326,-6.86621 -0.40773,-8.56238 0.44035,-9.26367 11.66113,-18.02176 4.07732,-28.13351 0,-2.52794 -2.02235,-6.5074 -2.44639,-7.33918 -0.84809,-3.37602 -0.0652,-2.8215 2.03866,-4.07732 5.90396,-1.27212 3.45756,-9.37783 9.78556,-9.78557 3.80007,-2.10389 1.20689,-7.64905 2.03867,-10.60103 -1.25582,-2.52794 -4.0284,-4.02839 -5.70825,-5.70825 -2.1039,-0.84808 -4.0284,-2.39746 -5.70825,-4.07732 -6.328,-2.52794 -4.01209,-9.19843 -6.11598,-14.67835 -0.42404,-9.68772 -5.87135,-15.29811 -13.04743,-21.20207 -4.20779,-1.67986 -2.03866,-6.01813 -2.03866,-8.56237 -1.67986,-4.19149 -6.83359,-2.78889 -10.1933,-4.48506 -1.27213,-0.40773 -2.85413,-1.582 -2.85413,-3.26185 4.22411,-6.328 -2.34853,-11.62852 -5.70824,-17.532482 l -5.30052,-3.669589 c -2.53202,-1.259859 -6.32113,-3.247334 -8.97011,-3.261856 z M 780.2808,297.28658 c -0.63202,1.05195 -1.5685,1.73694 -2.4464,2.4464 -0.87783,0.70945 -1.89493,1.44337 -2.85412,2.03866 -0.94698,0.57898 -1.98744,1.34144 -2.85412,2.03866 -0.78963,0.6685 -1.46308,1.4821 -2.03866,2.44639 -1.27213,2.95198 -3.15382,5.42895 -4.89279,7.74691 -1.75937,2.29757 -3.41679,4.39535 -4.89278,7.33918 1.69616,3.37602 -1.59831,6.42585 -2.4464,9.37783 -1.25581,4.63999 -4.33827,8.44006 -7.33917,12.23197 -2.99276,3.79598 -5.88765,7.59197 -6.52372,12.63969 0.20393,0.63606 0.58923,0.70945 1.2232,0.81546 0.60553,0.0938 1.4026,0.19572 2.03866,0.40774 0.5219,0.83992 1.21706,1.29632 2.03866,1.63092 1.63899,0.6675 3.75136,0.6738 5.70825,0.81547 0.98821,0.0639 2.0142,0.0938 2.85412,0.40773 0.84195,-0.73595 1.57725,-1.26152 2.4464,-1.63093 2.59805,-1.10556 5.42844,-0.75073 8.15464,0 1.81746,0.50049 3.47515,1.11133 5.30051,1.63093 0.12135,0.0354 0.28653,-0.0341 0.40774,0 1.69674,0.46202 3.63207,0.91405 5.30051,0.81546 1.25582,0.21203 2.55037,-0.48724 4.07732,-1.22319 1.45765,-0.71965 3.00907,-1.44337 4.48506,-0.81547 1.90003,-1.26397 4.20983,-0.78488 6.52371,-0.40773 1.159,0.18451 2.56438,0.46559 3.66959,0.40773 0.9719,-0.0962 2.01185,-0.5697 2.85412,-1.22319 2.21399,0 5.03575,1.11133 7.33918,0.81546 0.75858,-0.0986 1.4026,-0.28949 2.03866,-0.81546 0.31392,-1.582 0.29709,-3.23281 0,-4.89279 -0.25925,-1.55754 -1.05749,-3.30647 -1.63093,-4.89278 -0.0457,-0.11628 0.047,-0.29147 0,-0.40773 -1.26808,-3.41272 -2.81335,-6.62157 -4.07732,-9.78557 0.34537,-0.92392 0.077,-1.77307 -0.40773,-2.85413 -0.89479,-1.9899 -2.50299,-3.89535 -3.26186,-6.11598 -0.39547,-1.07845 -0.72165,-1.80217 -0.40773,-2.85412 -1.67986,-8.4319 -8.85594,-13.22683 -12.23196,-20.38661 l -0.40773,-2.85412 c -1.66322,-1.99844 -3.37385,-3.87673 -5.70825,-4.48505 -0.74462,-0.21687 -1.19466,-0.51375 -2.03866,-0.40774 z"
       id="path1458"
       style="fill:#f68120;fill-opacity:1;fill-rule:nonzero" />
    <path
       d="m 189.88477,109.72984 -12.63969,4.48505 -2.85413,-2.85413 -15.90155,1.2232 -31.8031,1.63093 -6.93144,0.81546 -5.30052,0 -4.89279,4.07732 -4.07732,6.52372 -1.63092,0 10.60103,10.60103 5.30052,0 3.26185,2.85412 1.63093,-1.22319 2.03866,0 17.94021,-1.63093 4.89279,0 3.66959,5.30052 -2.03867,12.23196 5.70825,6.93144 0,6.52372 0,7.74691 0,15.90155 3.26186,4.89278 -3.26186,17.53248 1.63093,6.93145 1.63093,19.57113 3.66959,2.4464 0,4.48505 -1.63093,4.89278 -3.66959,3.66959 0,11.00877 -12.63969,7.74691 -1.2232,-0.81547 0,-2.03866 -5.30052,2.85413 -12.63969,-0.81547 0,-2.03866 -13.45516,2.85413 1.2232,4.07732 -3.66959,3.66959 3.66959,9.37783 22.83299,0 8.56238,0 11.00876,0 24.0562,-1.22319 4.07732,2.85412 1.63092,0 2.03866,-1.63093 31.39537,0 7.33918,0 6.93145,-10.60103 -4.07733,-5.30052 -5.30051,-2.03866 -35.06496,-2.03866 -8.9701,-7.33917 0,-15.08609 -3.66959,-2.03866 2.44639,-2.03866 0,-2.44639 1.2232,-13.45516 -3.66959,-3.66959 3.66959,-2.85412 -3.66959,-2.03866 2.44639,-4.48506 4.07732,-6.93144 1.2232,2.03866 1.63092,0 5.70825,0.81546 8.56238,-2.85412 8.9701,0 2.85413,-2.03866 5.70825,1.22319 5.30051,5.30052 -1.63093,6.52371 c 4.09363,1.36998 7.99155,2.07128 8.15464,1.63093 0.15488,-0.40773 -0.50154,-1.29862 -0.81546,-2.03866 -0.31392,-0.74004 -0.008,-1.23135 2.03866,-1.63093 2.77258,-0.55451 5.75718,-1.09272 7.74691,-1.22319 l 0,-22.833 0,-8.56237 c -2.56056,-2.51163 -5.05588,-5.41468 -6.93144,-6.93145 -2.267,-1.82664 -4.94172,-2.80519 -7.33918,-3.66959 l 0,1.2232 -12.23196,2.85412 -4.89279,8.56238 -2.03866,0 2.03866,0.81546 -4.07732,2.85413 -2.85412,-2.85413 -5.70825,1.2232 -1.63093,1.63093 -1.2232,-1.63093 0,-1.2232 -2.44639,1.2232 -3.26186,-2.03866 -5.70824,-2.85413 2.85412,-2.03866 1.2232,0 -1.2232,-10.1933 4.89278,-10.60103 -4.89278,-7.74691 2.85412,-4.48505 3.26186,-2.03866 0,-1.63093 -1.2232,-1.2232 0,-8.15464 1.2232,1.63093 3.66959,3.66959 3.66959,1.22319 3.66959,-2.03866 4.89278,-1.63093 2.03866,-4.89278 2.03866,0 17.53248,0.81546 4.89279,2.85413 8.9701,-5.70825 5.30052,0 3.66959,8.56237 10.1933,0 3.26185,2.4464 c 1.89188,-0.47297 3.94685,-0.65238 5.30052,-0.40774 2.7522,0.49946 5.02737,4.84565 8.15464,6.11598 0.6255,0.25404 1.36859,0.46997 2.03866,0.40774 1.34017,-0.12395 2.90713,-1.17832 4.48506,-3.26186 4.2241,-5.6267 4.56659,-7.46965 5.70824,-8.56237 l -0.40773,-1.2232 -2.03866,-1.2232 2.03866,-0.81546 0,-2.85412 -12.63969,-15.08609 -2.03866,1.63093 -11.4165,-3.66959 -15.08609,0 -6.52371,0 0,-1.63093 -4.89278,3.66959 -4.07732,-2.03866 -4.89279,0 -3.66959,-1.63093 -21.20207,0 -12.63969,-2.85412 z m 129.6588,2.44639 -2.85413,2.44639 -6.11598,0 -1.63093,-1.2232 -3.26185,2.4464 -1.63093,1.63093 -2.03866,0 2.03866,7.7469 1.63093,1.63093 -1.63093,1.2232 12.63969,1.2232 4.07732,2.03866 -12.23196,5.70824 0,9.37784 2.85413,4.89279 -1.63093,1.63092 1.63093,1.2232 -1.63093,1.63093 0,4.89278 1.63093,1.63093 -1.63093,1.2232 3.66959,6.52371 0,7.74691 -3.66959,0 3.66959,18.75568 -4.89279,7.7469 8.56237,13.45516 -7.33917,5.30052 0,28.94898 4.89278,10.60103 11.00877,9.37784 0,1.22319 6.52371,13.04743 7.74691,2.85412 9.78557,1.2232 0,1.63093 9.37784,2.85412 10.60103,0 8.56237,2.03866 9.37784,-2.03866 4.89279,3.66959 0,1.2232 4.89278,0 5.30052,-4.89279 11.00876,-1.63093 5.30052,-4.07732 1.2232,-1.22319 2.44639,1.22319 2.85412,-5.30051 2.03866,1.22319 6.93145,-3.66959 2.03866,-4.07732 3.66959,-8.9701 2.85412,-2.85413 0,-4.07732 3.66959,-2.85412 2.03866,0 1.63093,-5.30052 1.22319,0 0,-3.66959 -4.89278,-5.30051 2.03866,-11.82423 1.63093,-18.75568 1.22319,0 -2.85412,-2.44639 0,-17.53248 -3.26186,-8.9701 4.89279,-6.93145 1.22319,0 -1.22319,-14.27062 -1.63093,-9.37784 -2.03866,-14.27062 4.89278,-4.07732 -3.66958,-0.40773 9.78557,-1.2232 0,-9.37784 -7.33918,-5.70825 -4.48505,-0.40773 -4.07732,2.44639 -1.63093,0.40774 0,-1.63093 -3.66959,0 -4.89279,1.63093 -0.81546,-1.63093 -8.15464,0 -4.89279,6.52371 -2.44639,0 0,2.85413 -1.22319,0.81546 2.85412,4.48505 -3.26186,-0.40773 6.52372,4.07732 2.44639,4.07732 2.85412,2.44639 2.03866,6.52372 -4.89278,6.93144 -2.44639,5.30052 5.30051,6.52371 -1.63093,1.2232 -1.22319,0 1.22319,9.37783 1.63093,1.2232 -1.63093,1.63093 1.63093,3.66959 0,5.30051 3.66959,4.07733 -3.66959,2.44639 0,6.93144 -2.85412,9.37784 -2.44639,-1.63093 0,9.37784 3.66958,2.44639 1.63093,11.82423 2.03866,1.63093 -3.66959,2.85412 1.63093,2.4464 2.03866,1.22319 -7.33917,6.52372 -6.52372,0 -3.26185,2.85412 3.26185,2.44639 -11.00876,9.37784 -10.1933,1.63093 -26.50259,0.81546 -3.26185,-2.44639 0,-1.2232 -10.60104,-1.63092 -11.00876,-4.07732 0,-2.4464 -1.2232,-4.07732 3.66959,-2.44639 -2.44639,-1.2232 0,-4.07732 -3.66959,0 -1.2232,-1.22319 1.2232,-1.63093 -5.30052,1.63093 -3.66959,-8.15464 3.66959,-2.4464 -3.66959,-2.85412 2.03866,-1.2232 -3.26185,-2.44639 0,-9.37784 1.22319,0 2.03866,-9.37783 -3.26185,-6.52372 -1.63093,-1.22319 2.85412,-5.30052 0,-10.60103 3.66959,-13.45516 -4.89278,-3.66959 -1.63093,-1.63093 2.85412,-2.44639 -1.22319,-1.2232 7.33917,-6.52371 1.63093,-4.48505 -4.07732,-2.4464 -1.63093,-7.74691 5.70825,-6.93144 -1.2232,0 1.2232,-0.40773 2.03866,-1.2232 0,-11.82423 -9.37784,-3.66959 -0.40773,0.40774 -1.22319,0 -2.4464,-0.81547 2.85413,0 -4.07732,-0.40773 -0.81547,-0.40773 4.07732,0 -7.33917,-2.4464 0,-1.22319 z m 8.15464,4.48505 1.22319,0.40773 0.81547,-0.40773 -2.03866,0 z m 2.03866,0 7.74691,0.81547 -8.97011,-2.85413 2.03866,1.2232 -0.81546,0.81546 z m 92.96291,41.58867 -2.44639,-1.22319 -0.40774,1.22319 1.2232,0.81547 1.63093,-0.81547 z m 8.15464,-38.32681 2.44639,0 1.2232,-0.81547 -2.03866,0 2.85412,-0.81546 -0.81546,0.81546 8.9701,-0.81546 -2.85412,-1.2232 -0.40773,0 -0.40774,0 -4.89278,0 -3.66959,2.03866 -0.81546,0.40774 0.40773,0.40773 z m 15.08609,-1.2232 0.81546,-0.40773 -2.44639,0 1.63093,0.40773 z m 103.56394,-6.52371 -6.11598,4.48505 -12.23196,2.03866 -6.11598,3.66959 -1.2232,1.2232 -2.85412,-1.2232 -3.26186,5.70825 -2.44639,-1.63093 -7.33918,3.66959 -2.44639,4.48505 -4.07732,8.56238 -3.26186,2.85412 0,4.07732 -4.07732,2.85412 -2.44639,0 -2.03866,5.30052 -1.2232,0 0,4.07732 5.70825,5.30052 -2.44639,11.4165 -2.03866,19.1634 -1.2232,0 3.26186,2.4464 0,17.12474 3.66959,9.37784 -5.70825,6.52371 -1.2232,0 1.2232,14.67836 2.03866,8.9701 2.44639,14.67836 -5.70825,3.66959 4.48505,0.40773 -11.41649,1.22319 0,9.37784 8.56237,5.70825 4.89278,0.40773 4.48506,-2.44639 2.03866,0 0,1.2232 4.07732,0 5.70825,-1.2232 0.81546,1.2232 8.97011,0 5.70824,-6.52372 2.4464,0 0,-2.85412 1.63092,-0.81547 -3.26185,-4.48505 3.66959,0.40773 -7.33918,-4.07732 -2.85412,-4.07732 -3.26186,-2.44639 -2.44639,-6.52371 5.70825,-6.52372 2.85412,-5.30051 -6.11598,-6.93145 2.03866,-1.22319 1.2232,0 -1.2232,-8.97011 -2.03866,-1.63093 2.03866,-1.22319 -2.03866,-4.07732 0,-5.30052 -4.07732,-3.66959 4.07732,-2.85412 0,-6.93145 3.26186,-9.37784 2.85412,2.03866 0,-9.37783 -4.07732,-2.85413 -2.03866,-11.82423 -2.44639,-1.63093 4.48505,-2.85412 -2.03866,-2.03866 -2.44639,-1.63093 8.56237,-6.52371 7.33918,0 3.66959,-2.85413 -3.66959,-2.03866 12.23196,-9.37783 11.82423,-2.03866 29.76444,-0.81547 3.66959,2.85413 0,0.81546 11.4165,1.63093 12.63969,4.07732 0,2.85412 1.63093,3.66959 -4.07732,2.85413 2.44639,1.22319 0,3.66959 4.48505,0 1.2232,1.63093 -1.2232,1.2232 5.30052,-1.2232 4.48505,7.74691 -4.48505,2.85412 4.48505,2.44639 -2.44639,1.2232 3.66959,2.85413 0,9.37783 -1.2232,0 -2.44639,8.97011 3.66959,6.52371 2.03866,1.63093 -3.26186,4.89278 0,11.00877 -4.48505,13.04743 5.70825,4.07732 2.03866,1.22319 -3.26186,2.85413 1.2232,0.81546 -7.74691,6.52371 -2.03866,4.48506 4.07732,2.44639 2.03866,8.15464 -6.11598,6.52371 1.22319,0 -1.63092,0.40774 -2.03866,1.63092 0,11.82423 10.60103,3.26186 -0.81546,0.40773 2.03866,0 -0.81547,-0.40773 1.2232,0 1.63093,0.40773 0.40773,0.40773 0.81546,0 1.63093,0 0.40773,0 0.40773,0.40774 -4.89278,0 8.56237,2.44639 0,1.63093 3.26186,-2.85413 6.52371,0 2.03866,1.2232 3.66959,-2.44639 1.63093,-1.2232 2.44639,0 -2.44639,-8.15464 -1.63093,-1.63093 1.63093,-0.81546 -13.86289,-1.2232 -4.89279,-2.44639 14.27063,-5.30052 0,-9.37784 -3.26186,-5.30051 1.63093,-1.63093 -1.63093,-1.2232 1.63093,-1.63093 0,-4.89278 -1.63093,-1.63093 1.63093,-0.81546 -4.07732,-6.93145 0,-7.74691 4.07732,0 -4.07732,-18.34794 5.70825,-8.15464 -9.78557,-13.04743 8.15464,-5.30051 0,-29.35671 -5.30052,-10.60104 -12.63969,-9.37783 0,-1.2232 -7.74691,-13.04743 -8.15464,-2.85412 -11.4165,-0.81546 0,-2.03866 -10.1933,-2.85413 -12.23196,0 -9.78557,-2.03866 -10.1933,2.03866 -5.30052,-3.66959 0,-0.81546 -5.70825,0 z m 76.2459,182.66396 -8.56238,-0.40773 9.78557,2.44639 -2.44639,-1.22319 1.2232,-0.81547 z m -104.78714,-41.18094 2.85412,1.2232 0.40773,-1.2232 -1.22319,-1.22319 -2.03866,1.22319 z m -8.97011,37.91909 -2.85412,0 -1.2232,0.81546 2.44639,0 -3.26185,0.81546 0.81546,-0.81546 -10.60103,0.81546 3.66958,1.2232 0.81547,0 5.30052,0 4.48505,-2.03866 0.81546,-0.40773 -0.40773,-0.40773 z m -17.12475,1.22319 -0.81546,0.40773 2.44639,0 -1.63093,-0.40773 z m -183.47942,-176.95571 4.89278,0 -1.63093,1.63093 -1.22319,0 -2.03866,-1.63093 z m 331.48616,178.58664 1.2232,0 2.44639,1.2232 -5.70825,0 2.03866,-1.2232 z"
       id="path1484"
       style="fill:#552b8a;fill-opacity:1;fill-rule:nonzero" />
  </g>
</svg>
