<?xml version="1.0" encoding="UTF-8" standalone="no"?>
<!-- Created with Inkscape (http://www.inkscape.org/) -->
<svg
   xmlns:dc="http://purl.org/dc/elements/1.1/"
   xmlns:cc="http://web.resource.org/cc/"
   xmlns:rdf="http://www.w3.org/1999/02/22-rdf-syntax-ns#"
   xmlns:svg="http://www.w3.org/2000/svg"
   xmlns="http://www.w3.org/2000/svg"
   xmlns:sodipodi="http://sodipodi.sourceforge.net/DTD/sodipodi-0.dtd"
   xmlns:inkscape="http://www.inkscape.org/namespaces/inkscape"
   width="423"
   height="74"
   id="svg2"
   sodipodi:version="0.32"
   inkscape:version="0.45.1"
   inkscape:output_extension="org.inkscape.output.svg.inkscape"
   version="1.0">
  <g
     inkscape:label="Layer 1"
     inkscape:groupmode="layer"
     id="layer1"
     transform="translate(-359.74523,-472.28102)">
    <g
       id="g3771"
       clip-path="url(#id709)"
       transform="matrix(14.922319,0,0,-14.922319,-4383.096,4453.0036)">
      <g
         id="g3773"
         transform="translate(330.2094,264.2836)">
        <path
           id="path3775"
           d="M 0,0 C 0,2.269 -2.215,2.479 -2.215,2.479 L -9.894,2.479 C -11.263,2.479 -12.374,1.369 -12.374,0 C -12.374,-1.369 -11.263,-2.479 -9.894,-2.479 C -9.805,-2.479 -2.302,-2.474 -2.215,-2.465 L -2.215,-2.465 C -0.97,-2.333 0,-1.28 0,0"
           style="fill:#bdbcbc;fill-rule:nonzero;stroke:none" />
      </g>
      <g
         id="g3777"
         transform="translate(330.2094,264.2836)">
        <path
           id="path3779"
           d="M 0,0 C 0,-1.369 -1.11,-2.479 -2.479,-2.479 C -3.849,-2.479 -4.959,-1.369 -4.959,0 C -4.959,1.369 -3.849,2.479 -2.479,2.479 C -1.11,2.479 0,1.369 0,0"
           style="fill:#ef2728;fill-rule:nonzero;stroke:none" />
      </g>
      <g
         id="g3781"
         transform="translate(330.1978,266.6526)">
        <path
           id="path3783"
           d="M 0,0 C -1.306,0 -2.369,-1.063 -2.369,-2.369 C -2.369,-3.675 -1.306,-4.738 0,-4.738 C 0.134,-4.738 13.559,-4.733 13.763,-4.724 C 14.964,-4.596 15.874,-3.584 15.874,-2.369 C 15.874,-0.253 13.89,-0.013 13.764,0 L 0,0 z "
           style="fill:#ffffff;fill-rule:nonzero;stroke:none" />
      </g>
      <g
         id="g3785"
         transform="translate(343.9442,262.038)">
        <path
           id="path3787"
           d="M 0,0 C 0,0 0,0 0.001,0 C 0,0 0,0 0,0 M 0.011,0.001 C 0.011,0.001 0.012,0.001 0.012,0.001 C 0.012,0.001 0.011,0.001 0.011,0.001 M -13.746,-0.013 C -14.051,-0.013 -14.347,0.047 -14.626,0.164 C -14.894,0.278 -15.136,0.441 -15.343,0.649 C -15.551,0.856 -15.714,1.098 -15.828,1.367 C -15.945,1.645 -16.005,1.941 -16.005,2.246 C -16.005,2.551 -15.945,2.846 -15.828,3.125 C -15.714,3.394 -15.551,3.635 -15.343,3.843 C -15.136,4.05 -14.894,4.213 -14.626,4.327 C -14.347,4.445 -14.051,4.504 -13.746,4.504 L 0.011,4.504 C 0.082,4.495 0.561,4.428 1.029,4.14 C 1.317,3.962 1.546,3.736 1.709,3.467 C 1.914,3.129 2.017,2.718 2.017,2.246 C 2.017,1.684 1.81,1.146 1.434,0.731 C 1.062,0.32 0.555,0.061 0.007,0.001 C -0.383,-0.008 -13.614,-0.013 -13.746,-0.013 M 0.023,4.725 L -13.746,4.725 C -15.116,4.725 -16.226,3.615 -16.226,2.246 C -16.226,0.876 -15.116,-0.234 -13.746,-0.234 C -13.657,-0.234 -0.064,-0.229 0.023,-0.22 C 1.268,-0.088 2.238,0.966 2.238,2.246 C 2.238,4.515 0.023,4.725 0.023,4.725"
           style="fill:#221e1f;fill-rule:nonzero;stroke:none" />
      </g>
      <g
         id="g3789"
         transform="translate(344.6177,263.0402)">
        <path
           id="path3791"
           d="M 0,0 L -1.027,1.32 L -0.068,2.503 L -0.919,2.503 L -1.701,1.447 L -1.701,2.503 L -2.435,2.503 L -2.435,0 L -1.701,0 L -1.701,1.104 L -0.9,0 L 0,0 z "
           style="fill:#221e1f;fill-rule:nonzero;stroke:none" />
      </g>
      <path
         id="path3793"
         d="M 341.759,265.056 L 341.058,265.056 L 341.058,265.544 L 341.759,265.544 L 341.759,265.056 z "
         style="fill:#221e1f;fill-rule:nonzero;stroke:none" />
      <path
         id="path3795"
         d="M 341.745,264.832 L 341.065,264.832 L 341.065,263.041 L 341.745,263.041 L 341.745,264.832 z "
         style="fill:#221e1f;fill-rule:nonzero;stroke:none" />
      <g
         id="g3797"
         transform="translate(338.1302,265.0272)">
        <path
           id="path3799"
           d="M 0,0 L 0,0.516 L -1.843,0.516 L -1.843,0 L -1.316,0 L -1.316,-1.381 C -1.288,-2.053 -0.843,-2.039 -0.687,-2.039 C -0.53,-2.039 -0.196,-1.961 -0.196,-1.961 L -0.217,-1.452 C -0.283,-1.518 -0.438,-1.505 -0.438,-1.505 C -0.576,-1.505 -0.63,-1.381 -0.63,-1.381 L -0.63,0 L 0,0 z "
           style="fill:#221e1f;fill-rule:nonzero;stroke:none" />
      </g>
      <g
         id="g3801"
         transform="translate(339.4326,265.0237)">
        <path
           id="path3803"
           d="M 0,0 C -0.431,0 -0.423,-0.381 -0.423,-0.381 L -0.423,-1.983 L -1.164,-1.983 L -1.164,-0.281 C -1.039,0.605 0,0.559 0,0.559 C 0,0.559 1.039,0.605 1.164,-0.281 L 1.164,-1.983 L 0.423,-1.983 L 0.423,-0.381 C 0.423,-0.381 0.431,0 0,0"
           style="fill:#221e1f;fill-rule:nonzero;stroke:none" />
      </g>
      <g
         id="g3805"
         transform="translate(334.8619,263.5599)">
        <path
           id="path3807"
           d="M 0,0 C 0.431,0 0.423,0.381 0.423,0.381 L 0.423,1.983 L 1.164,1.983 L 1.164,0.281 C 1.039,-0.605 0,-0.559 0,-0.559 C 0,-0.559 -1.039,-0.605 -1.164,0.281 L -1.164,1.983 L -0.423,1.983 L -0.423,0.381 C -0.423,0.381 -0.431,0 0,0"
           style="fill:#221e1f;fill-rule:nonzero;stroke:none" />
      </g>
      <g
         id="g3809"
         transform="translate(332.3299,264.3176)">
        <path
           id="path3811"
           d="M 0,0 L -0.379,0 L -0.379,0.749 L -0.019,0.744 C -0.019,0.744 0.369,0.763 0.369,0.408 C 0.369,0.024 0,0 0,0 M 0.269,1.226 L -1.085,1.226 L -1.085,-1.277 L -0.379,-1.277 L -0.379,-0.446 L 0.374,-0.446 C 0.374,-0.446 1.086,-0.422 1.086,0.409 C 1.086,1.24 0.269,1.226 0.269,1.226"
           style="fill:#221e1f;fill-rule:nonzero;stroke:none" />
      </g>
      <g
         id="g3813"
         transform="translate(330.78,265.4932)">
        <path
           id="path3815"
           d="M 0,0 L -0.014,-0.518 C -0.014,-0.518 -0.273,-0.398 -0.662,-0.398 C -1.051,-0.398 -1.128,-0.566 -1.128,-0.619 C -1.128,-0.672 -1.113,-0.797 -0.806,-0.888 C -0.499,-0.979 0.178,-1.094 0.144,-1.703 C 0.11,-2.313 -0.461,-2.524 -0.969,-2.5 C -1.478,-2.476 -1.809,-2.404 -1.833,-2.38 L -1.799,-1.862 C -1.799,-1.862 -1.387,-2.063 -1.051,-2.035 C -0.715,-2.006 -0.585,-1.9 -0.585,-1.756 C -0.585,-1.612 -0.816,-1.502 -1.176,-1.396 C -1.535,-1.291 -1.852,-1.118 -1.852,-0.672 C -1.852,-0.226 -1.401,0.123 -0.758,0.086 C -0.115,0.05 0,0 0,0"
           style="fill:#221e1f;fill-rule:nonzero;stroke:none" />
      </g>
      <text
         id="text3817"
         transform="scale(1,-1)">
        <tspan
           id="tspan3819"
           x="319.565"
           y="-264.57101"
           letter-spacing="0"
           font-size="1.8153"
           style="font-size:1.81529999px;letter-spacing:0;fill:#ffffff;fill-rule:nonzero;stroke:none;font-family:font8">MDR</tspan>
      </text>
    </g>
    <g
       id="g5433"
       clip-path="url(#id818)"
       transform="matrix(1,0,0,-1,93.610562,886.55976)" />
    <g
       id="g5987"
       clip-path="url(#id852)"
       transform="matrix(1,0,0,-1,93.610562,886.55976)" />
    <g
       id="g6535"
       clip-path="url(#id889)"
       transform="matrix(1,0,0,-1,93.610562,886.55976)" />
  </g>
</svg>
