<?xml version="1.0" encoding="UTF-8" standalone="no"?>
<!-- Creator: CorelDRAW -->

<svg
   xmlns:dc="http://purl.org/dc/elements/1.1/"
   xmlns:cc="http://creativecommons.org/ns#"
   xmlns:rdf="http://www.w3.org/1999/02/22-rdf-syntax-ns#"
   xmlns:svg="http://www.w3.org/2000/svg"
   xmlns="http://www.w3.org/2000/svg"
   xmlns:sodipodi="http://sodipodi.sourceforge.net/DTD/sodipodi-0.dtd"
   xmlns:inkscape="http://www.inkscape.org/namespaces/inkscape"
   xml:space="preserve"
   width="3589px"
   height="661px"
   shape-rendering="geometricPrecision"
   text-rendering="geometricPrecision"
   image-rendering="optimizeQuality"
   fill-rule="evenodd"
   clip-rule="evenodd"
   viewBox="0 0 3709.84 682.689"
   id="svg2"
   version="1.1"
   inkscape:version="0.48.4 r9939"
   sodipodi:docname="20080405205956!Deutschlandfunk.svg"><metadata
   id="metadata42"><rdf:RDF><cc:Work
       rdf:about=""><dc:format>image/svg+xml</dc:format><dc:type
         rdf:resource="http://purl.org/dc/dcmitype/StillImage" /><dc:title></dc:title></cc:Work></rdf:RDF></metadata><defs
   id="defs40" /><sodipodi:namedview
   pagecolor="#ffffff"
   bordercolor="#666666"
   borderopacity="1"
   objecttolerance="10"
   gridtolerance="10"
   guidetolerance="10"
   inkscape:pageopacity="0"
   inkscape:pageshadow="2"
   inkscape:window-width="640"
   inkscape:window-height="480"
   id="namedview38"
   showgrid="false"
   inkscape:zoom="0.098356088"
   inkscape:cx="1794.5"
   inkscape:cy="330.5"
   inkscape:window-x="0"
   inkscape:window-y="0"
   inkscape:window-maximized="0"
   inkscape:current-layer="svg2" />
 <g
   id="Ebene_x0020_1">
  <metadata
   id="CorelCorpID_0Corel-Layer" />
  <polygon
   fill="#0068A9"
   points="0,0 3709.84,0 3709.84,682.689 0,682.689 "
   id="polygon6" />
  <path
   fill="white"
   d="M286.92 160.762l108.292 0c21.2118,0 38.5171,4.46917 51.9136,12.8411 12.835,8.93345 24.0012,21.7684 32.3718,37.9592 8.37679,16.7426 14.5159,35.7228 18.4236,58.054 3.90762,21.7684 6.13915,44.655 6.13915,69.2177 0,38.5171 -2.78819,68.0995 -8.92734,89.3113 -5.58249,21.2118 -13.3977,38.5171 -24.006,53.033 -10.0468,14.5098 -20.6563,23.9999 -32.378,28.4642 -16.1859,6.70192 -30.7019,10.0468 -43.5368,10.0468l-108.292 0 0 -358.927zm73.1254 80.9406l0 196.489 17.862 0c15.0726,0 25.6748,-2.78819 32.3767,-7.81402 6.13915,-5.02094 11.1601,-14.5111 15.0665,-26.7955 3.35096,-12.835 5.58371,-34.0467 5.58371,-62.5158 0,-37.9604 -4.46428,-64.1931 -12.2783,-78.1524 -8.3719,-13.9544 -21.7684,-21.2118 -40.7486,-21.2118l-17.862 0z"
   id="path8" />
  <path
   fill="white"
   d="M727.345 414.192l-131.179 0c1.11332,16.1859 3.90762,27.9076 8.37068,35.7216 6.14037,11.1662 14.5172,16.7487 24.5639,16.7487 6.69459,0 12.8398,-2.23153 18.4175,-7.25858 3.9064,-2.78819 7.25736,-8.37068 11.7277,-16.1859l64.1919 8.92857c-10.0468,26.2376 -21.7684,44.6611 -35.7277,56.3828 -13.9544,11.1601 -34.0467,16.7426 -59.7289,16.7426 -22.8878,0 -40.1859,-5.01972 -53.5836,-14.5098 -12.8411,-9.49011 -23.4494,-25.1194 -31.8201,-46.3311 -8.93467,-21.213 -12.8411,-45.7757 -12.8411,-74.2448 0,-40.7486 8.37679,-73.6832 25.6809,-98.8014 16.7426,-25.1194 40.192,-37.9604 70.3323,-37.9604 24.5627,0 44.0984,6.14526 58.0528,17.3041 13.9532,11.1662 25.1194,27.357 32.3767,48.57 7.25858,21.7684 11.1662,49.1193 11.1662,83.7276l0 11.1662zm-66.4308 -47.4506c-1.66877,-19.5357 -5.01972,-33.4901 -10.6022,-41.3041 -5.58371,-8.37801 -12.8411,-12.8411 -21.7684,-12.8411 -10.0529,0 -18.4236,6.13915 -24.5627,18.9802 -3.90762,7.81402 -6.70192,19.5357 -7.81524,35.1649l64.7486 0z"
   id="path10" />
  <path
   fill="white"
   d="M937.232 519.689l-61.4037 0 0 -42.4235c-8.93345,17.3041 -18.4236,29.5885 -27.3509,36.8459 -9.49011,7.81524 -20.6563,11.1601 -34.0528,11.1601 -18.4236,0 -32.378,-8.37068 -42.4247,-24.5566 -10.6083,-16.192 -15.6293,-41.8681 -15.6293,-75.9209l0 -165.225 65.868 0 0 142.901c0,16.1847 2.23153,27.9076 6.13915,34.6083 3.90762,7.25248 9.49011,10.6034 16.7487,10.6034 7.81402,0 13.9532,-4.46428 18.979,-13.9532 5.02094,-8.93467 7.25248,-25.676 7.25248,-49.1266l0 -125.033 65.8741 0 0 260.12z"
   id="path12" />
  <path
   fill="white"
   d="M1055.57 160.762l0 98.8075 35.7216 0 0 72.5626 -35.7216 0 0 92.1068c0,11.165 0.555441,18.979 2.23153,22.33 1.67487,5.57761 5.58249,8.3719 11.165,8.3719 4.46428,0 11.1662,-2.23275 20.0935,-6.70192l5.02583 69.2177c-16.192,5.02705 -31.2585,7.81524 -45.2178,7.81524 -16.7426,0 -28.4642,-3.34485 -36.2795,-9.49011 -7.81402,-6.13915 -13.3965,-16.1859 -17.3041,-29.027 -3.35096,-12.8337 -5.02583,-34.0467 -5.02583,-63.0725l0 -91.5501 -24.5627 0 0 -72.5626 24.5627 0 0 -48.0072 65.3113 -50.8003z"
   id="path14" />
  <path
   fill="white"
   d="M1110.83 447.682l65.3052 -9.49011c2.7943,11.7216 6.14526,20.0996 11.165,25.1194 4.46428,5.02583 11.165,7.81402 18.9802,7.81402 8.93345,0 15.6293,-2.78819 20.6551,-8.92734 3.90762,-3.9064 5.58249,-9.49011 5.58249,-15.6293 0,-7.25736 -2.23763,-12.8398 -7.25736,-16.7475 -3.90762,-2.7943 -12.8411,-6.13915 -28.4703,-10.0468 -22.3312,-6.14526 -38.5171,-11.7216 -46.8878,-16.7487 -8.93345,-5.58249 -16.7487,-13.9532 -22.3312,-26.2376 -6.13915,-12.2783 -9.49011,-26.2327 -9.49011,-41.862 0,-17.3041 3.35096,-31.8201 10.0468,-44.0984 6.70192,-12.8411 15.6354,-21.7684 26.7942,-27.9137 11.7229,-6.13915 26.7955,-9.49011 46.3311,-9.49011 20.0996,0 35.1722,2.7943 45.219,7.25858 9.49011,5.02583 17.3041,12.2844 23.9999,22.33 6.70192,9.49011 11.7216,23.4445 16.192,40.192l-61.9665 9.49011c-1.66999,-8.37679 -4.46428,-14.5159 -8.37068,-18.4236 -5.02094,-5.58249 -11.1662,-7.81402 -18.4187,-7.81402 -7.25736,0 -12.8398,1.67487 -16.1908,5.58249 -3.35096,4.46306 -5.02094,8.92734 -5.02094,14.5098 0,6.70192 2.23275,11.7216 6.69581,14.5172 3.90762,3.34974 13.3977,6.13915 27.9137,8.92734 21.7684,3.9125 37.9543,8.93345 48.5627,15.6354 10.6034,6.69459 18.4187,16.1847 24.0012,29.0258 5.58249,12.2783 8.37068,25.676 8.37068,40.7486 0,15.0726 -2.78819,29.5824 -8.92734,43.5368 -5.58249,14.5159 -15.0726,25.6821 -27.9137,34.0528 -12.835,8.37068 -30.1391,12.8411 -52.4703,12.8411 -30.7019,0 -53.0269,-7.25858 -66.4247,-20.6563 -13.3965,-13.3965 -21.7684,-32.9334 -25.6748,-57.4961z"
   id="path16" />
  <path
   fill="white"
   d="M1450.78 418.1l61.9604 10.6022c-3.35096,19.5369 -8.93345,36.841 -16.7487,51.3582 -7.81402,14.5098 -17.8608,25.6748 -29.5824,33.4901 -12.2844,7.81402 -27.9137,12.2844 -46.3311,12.2844 -18.4236,0 -33.4962,-2.7943 -45.219,-7.81524 -12.2783,-5.02583 -22.8866,-13.3965 -31.2585,-25.1194 -8.93345,-11.7216 -15.6293,-25.1194 -20.6551,-40.7535 -4.46306,-15.0677 -7.25248,-35.7228 -7.25248,-61.3988 0,-26.7942 2.78941,-49.1254 8.92857,-66.9862 4.46917,-12.8411 10.6083,-24.5627 17.8669,-35.1661 7.81402,-10.0517 15.6293,-17.8669 23.4433,-22.8866 12.835,-7.81524 29.5837,-12.2844 49.1193,-12.2844 27.9137,0 49.1254,7.81402 63.6365,22.8866 14.5159,15.0738 25.1194,37.4038 30.7019,66.9874l-61.4037 12.2783c-1.67609,-11.1601 -5.02094,-19.5369 -10.6034,-25.1194 -5.02583,-5.58249 -11.7216,-8.37068 -20.0984,-8.37068 -11.1662,0 -19.5369,5.58249 -26.2327,17.8608 -6.70192,11.7216 -10.0529,29.5885 -10.0529,53.5897 0,21.2118 3.35096,37.3965 9.49011,48.5627 6.70192,11.165 15.0726,16.7475 25.6821,16.7475 8.37068,0 15.6293,-3.34974 21.7684,-10.0456 5.58249,-6.70192 10.0468,-17.3054 12.8411,-30.7019z"
   id="path18" />
  <path
   fill="white"
   d="M1537.3 160.762l65.3113 0 0 132.298c8.93345,-14.5159 17.8669,-24.5627 26.7942,-30.1452 8.37679,-6.13915 18.9802,-9.49011 31.2585,-9.49011 17.3041,0 31.8213,8.37679 41.8668,25.1194 10.0468,16.1908 15.0726,41.8668 15.0726,75.9197l0 165.226 -65.3101 0 0 -142.901c0,-16.7426 -2.23275,-27.9076 -6.13915,-34.6095 -3.90762,-7.25248 -9.49011,-10.6022 -16.7487,-10.6022 -7.81524,0 -14.5098,5.02583 -18.9802,13.9532 -5.01972,8.93345 -7.81402,25.676 -7.81402,49.1254l0 125.034 -65.3113 0 0 -358.927z"
   id="path20" />
  <polygon
   fill="white"
   points="1758.91,160.762 1824.78,160.762 1824.78,519.689 1758.91,519.689 "
   id="polygon22" />
  <path
   fill="white"
   d="M1925.81 343.855l-62.5232 -10.0468c2.7943,-16.7487 6.14526,-30.1452 10.6095,-39.6292 4.46306,-9.49011 10.6022,-17.3054 18.9802,-24.5627 6.13915,-5.02705 14.5098,-8.93345 24.5566,-11.7229 10.6083,-2.7943 21.7745,-4.46917 34.0528,-4.46917 19.5357,0 35.7277,1.67487 47.4493,5.02583 11.7229,3.35096 21.7684,10.6095 29.5837,21.2118 5.58249,7.25858 10.0468,17.862 13.3977,31.2585 3.34974,13.3977 4.46306,26.2388 4.46306,38.5171l0 114.993c0,11.7216 0.556662,21.7684 1.67609,28.4691 1.11821,6.69581 3.34974,15.6293 6.7007,26.7894l-61.4037 0c-2.23153,-6.69581 -3.90762,-11.7216 -4.46917,-15.6293 -1.11332,-3.34485 -1.66999,-8.92734 -2.23275,-16.1859 -8.92734,12.2783 -17.3041,21.2118 -25.6748,26.7942 -11.7229,7.25858 -25.1194,10.6034 -40.192,10.6034 -20.6563,0 -36.2856,-7.25248 -46.8878,-21.7684 -10.0468,-13.9544 -15.6293,-31.8152 -15.6293,-53.0269 0,-19.543 3.90762,-35.7277 11.7216,-48.5688 7.25858,-12.835 21.2118,-22.3251 41.8681,-28.4642 24.5566,-7.25858 40.1859,-12.8411 47.9999,-15.6293 6.70192,-2.7943 14.5159,-7.25858 22.8878,-11.7277 0,-12.2783 -1.67609,-20.649 -5.02094,-25.676 -3.35096,-5.01972 -8.93345,-7.25736 -17.3041,-7.25736 -11.1662,0 -18.9802,2.23763 -24.5627,7.81402 -3.90762,3.90762 -7.25858,11.7277 -10.0468,22.8878zm56.9346 52.4764c-8.92734,4.46306 -18.4175,8.92734 -27.9076,12.835 -13.3977,5.02583 -21.7745,10.6083 -25.6821,15.628 -3.34485,5.58371 -5.01972,11.7229 -5.01972,18.4236 0,7.81524 1.67487,14.5111 5.01972,19.5369 3.90762,5.02583 8.93345,7.25858 16.192,7.25858 7.25736,0 13.9532,-2.7943 20.0923,-7.81524 6.13915,-5.58249 10.6095,-12.2844 13.3977,-20.0984 2.7943,-7.81524 3.90762,-17.8608 3.90762,-30.1391l0 -15.6293z"
   id="path24" />
  <path
   fill="white"
   d="M2086.02 259.569l60.8422 0 0 42.4235c8.93345,-17.3041 18.4236,-29.5885 27.3509,-37.4038 9.49011,-7.25736 20.6551,-11.165 34.0528,-11.165 18.4236,0 32.3767,8.37679 42.4235,25.1194 10.6095,16.1908 15.6293,41.3102 15.6293,75.9197l0 165.226 -65.868 0 0 -142.901c0,-16.7426 -1.67487,-27.9076 -5.58249,-34.6095 -4.46428,-7.25248 -10.0468,-10.6022 -16.7475,-10.6022 -8.3719,0 -14.5111,5.02583 -19.5369,13.9532 -5.02094,8.93345 -7.25248,25.676 -7.25248,49.1254l0 125.034 -65.3113 0 0 -260.12z"
   id="path26" />
  <path
   fill="white"
   d="M2485.14 160.762l0 358.927 -61.4037 0 0 -38.511c-8.37679,16.1859 -16.192,27.3509 -23.4433,32.9334 -9.49011,7.25248 -20.0996,11.1601 -31.2646,11.1601 -23.4445,0 -41.3053,-13.3977 -53.5836,-40.1859 -12.2844,-26.7942 -18.4236,-59.7289 -18.4236,-98.2447 0,-42.9863 6.70192,-75.9209 20.6551,-98.8075 13.3977,-22.8878 30.7019,-34.6095 51.3521,-34.6095 10.0517,0 19.5357,2.7943 27.9137,7.81402 8.37068,5.58371 15.6293,13.3977 21.7684,24.0073l0 -124.484 66.4296 0zm-65.8729 228.311c0,-20.6551 -2.78941,-35.7277 -8.3719,-45.7745 -5.58249,-10.0468 -12.8411,-15.0726 -21.7684,-15.0726 -7.25736,0 -13.9532,4.46917 -18.9802,14.5159 -5.02583,9.49011 -7.81402,25.676 -7.81402,48.006 0,21.213 2.78819,36.841 7.81402,46.8878 5.58371,10.0468 12.2783,14.5111 20.0935,14.5111 8.37679,0 15.0726,-4.46428 20.6551,-14.5111 5.58249,-10.0468 8.3719,-26.2376 8.3719,-48.5627z"
   id="path28" />
  <path
   fill="white"
   d="M2597.34 259.569l31.2585 0 0 73.1254 -31.2585 0 0 186.994 -65.3113 0 0 -186.994 -24.5627 0 0 -73.1254 24.5627 0 0 -11.7216c0,-10.6095 0.556662,-22.3312 2.23153,-35.1722 1.67609,-12.835 4.46428,-22.8878 8.3719,-31.2585 3.9064,-7.81402 10.0456,-14.5098 17.3041,-19.5369 7.25858,-5.02583 18.4236,-7.25736 32.9334,-7.25736 11.1662,0 27.9137,1.67487 49.6821,6.13915l-7.25736 60.2904c-7.81524,-2.23763 -13.9544,-3.35096 -18.9802,-3.35096 -5.57761,0 -10.0468,1.67609 -12.2783,5.02094 -2.78819,2.7943 -4.46428,7.25736 -5.58249,13.9593 -0.556662,3.90762 -1.11332,11.1662 -1.11332,22.8878z"
   id="path30" />
  <path
   fill="white"
   d="M2832.34 519.689l-60.841 0 0 -42.4235c-8.93467,17.3041 -18.4236,29.5885 -27.3521,36.8459 -9.49011,7.81524 -20.6551,11.1601 -34.6083,11.1601 -17.862,0 -31.8213,-8.37068 -41.8681,-24.5566 -10.6022,-16.192 -15.6293,-41.8681 -15.6293,-75.9209l0 -165.225 65.868 0 0 142.901c0,16.1847 1.67487,27.9076 5.58249,34.6083 4.46428,7.25248 10.0468,10.6034 16.7487,10.6034 7.81402,0 14.5098,-4.46428 19.5357,-13.9532 5.02094,-8.93467 7.25858,-25.676 7.25858,-49.1266l0 -125.033 65.3052 0 0 260.12z"
   id="path32" />
  <path
   fill="white"
   d="M2871.97 259.569l60.841 0 0 42.4235c9.49011,-17.3041 18.4236,-29.5885 27.9137,-37.4038 9.49011,-7.25736 20.6563,-11.165 34.0528,-11.165 17.862,0 32.3718,8.37679 42.4247,25.1194 10.0456,16.1908 15.628,41.3102 15.628,75.9197l0 165.226 -65.8729 0 0 -142.901c0,-16.7426 -2.23153,-27.9076 -6.13915,-34.6095 -3.90762,-7.25248 -9.49011,-10.6022 -16.7426,-10.6022 -7.81402,0 -13.9593,5.02583 -18.9802,13.9532 -5.02583,8.93345 -7.25736,25.676 -7.25736,49.1254l0 125.034 -65.868 0 0 -260.12z"
   id="path34" />
  <polygon
   fill="white"
   points="3091.35,160.762 3158.33,160.762 3158.33,345.53 3207.46,259.569 3287.84,259.569 3226.44,350.555 3291.19,519.689 3217.5,519.689 3182.89,415.305 3158.33,452.146 3158.33,519.689 3091.35,519.689 "
   id="polygon36" />
 </g>
</svg>