<?xml version="1.0" encoding="UTF-8" standalone="no"?>
<!-- Created with Inkscape (http://www.inkscape.org/) -->
<svg
   xmlns:dc="http://purl.org/dc/elements/1.1/"
   xmlns:cc="http://web.resource.org/cc/"
   xmlns:rdf="http://www.w3.org/1999/02/22-rdf-syntax-ns#"
   xmlns:svg="http://www.w3.org/2000/svg"
   xmlns="http://www.w3.org/2000/svg"
   xmlns:xlink="http://www.w3.org/1999/xlink"
   xmlns:sodipodi="http://sodipodi.sourceforge.net/DTD/sodipodi-0.dtd"
   xmlns:inkscape="http://www.inkscape.org/namespaces/inkscape"
   width="773"
   height="220"
   id="svg2"
   sodipodi:version="0.32"
   inkscape:version="0.45.1"
   version="1.0"
   inkscape:output_extension="org.inkscape.output.svg.inkscape">
  <g
     inkscape:label="Layer 1"
     inkscape:groupmode="layer"
     id="layer1"
     transform="translate(-208.36064,-642.35168)">
    <g
       clip-path="url(#id37)"
       id="g4343"
       transform="matrix(1,0,0,-1,77.362,953.30718)">
          <text
   transform="scale(1,-1)"
   id="text4345">
  <tspan
     style="font-size:11px;letter-spacing:0;fill:#ffffff;fill-rule:nonzero;stroke:none;font-family:font4"
     font-size="11"
     letter-spacing="0"
     y="-802.45898"
     x="-581.10199"
     id="tspan4347">r</tspan>
  <tspan
     style="font-size:11px;letter-spacing:0;fill:#ffffff;fill-rule:nonzero;stroke:none;font-family:font4"
     font-size="11"
     letter-spacing="0"
     y="-802.45898"
     x="-575.52502"
     id="tspan4349">
    <altGlyph
       xlink:href="#id38"
       id="altGlyph4351">e</altGlyph>
    <tspan
       dx="0.11"
       id="tspan4353">
      <altGlyph
         xlink:href="#id39"
         id="altGlyph4355">i</altGlyph>
    </tspan>
    <tspan
       dx="0.11"
       id="tspan4357">
      <altGlyph
         xlink:href="#id40"
         id="altGlyph4359">t</altGlyph>
    </tspan>
    <tspan
       dx="0.16500001"
       id="tspan4361">
      <altGlyph
         xlink:href="#id38"
         id="altGlyph4363">e</altGlyph>
    </tspan>
    <tspan
       dx="0.11"
       id="tspan4365">
      <altGlyph
         xlink:href="#id41"
         id="altGlyph4367">r</altGlyph>
    </tspan>
  </tspan>
</text>

        </g>
    <g
       clip-path="url(#id70)"
       id="g4609"
       transform="matrix(18.975332,0,0,-18.975332,-2277.3699,2588.253)">
          <path
   style="fill:#000000;fill-rule:evenodd;stroke:none"
   d="M 144.391,102.267 L 144.642,102.267 C 144.791,102.267 144.783,102.19 144.783,102.06 L 144.783,99.619 L 145.026,99.619 L 145.167,99.938 C 145.389,99.696 145.575,99.57 145.915,99.57 C 146.541,99.57 146.929,100.043 146.929,100.65 C 146.929,101.212 146.574,101.689 145.984,101.689 C 145.781,101.689 145.559,101.624 145.393,101.503 C 145.353,101.474 145.321,101.438 145.284,101.406 L 145.284,102.533 L 144.391,102.533 L 144.391,102.267 z M 145.83,101.418 C 146.25,101.418 146.416,100.997 146.416,100.638 C 146.416,100.27 146.266,99.829 145.83,99.829 C 145.398,99.829 145.24,100.221 145.24,100.597 C 145.24,100.969 145.385,101.418 145.83,101.418"
   id="path4611" />

          <path
   style="fill:#000000;fill-rule:evenodd;stroke:none"
   d="M 147.009,101.341 L 147.203,101.341 C 147.393,101.341 147.409,101.329 147.409,101.139 C 147.409,100.787 147.405,100.44 147.413,100.088 C 147.417,99.922 147.389,99.886 147.223,99.886 L 147.017,99.886 L 147.017,99.619 L 148.375,99.619 L 148.375,99.886 C 148.294,99.886 148.024,99.866 147.955,99.922 C 147.906,99.963 147.914,100.035 147.914,100.092 L 147.914,100.698 C 147.914,101.001 148.044,101.458 148.42,101.458 L 148.472,101.458 C 148.399,101.393 148.367,101.349 148.367,101.248 C 148.367,101.102 148.488,101.001 148.63,101.001 C 148.8,101.001 148.905,101.139 148.905,101.3 C 148.905,101.539 148.694,101.68 148.472,101.68 C 148.197,101.68 148.06,101.515 147.914,101.305 L 147.914,101.612 L 147.009,101.612 L 147.009,101.341 z "
   id="path4613" />

          <path
   style="fill:#000000;fill-rule:evenodd;stroke:none"
   d="M 150.948,100.569 C 150.94,100.852 150.92,101.082 150.738,101.309 C 150.54,101.559 150.253,101.68 149.934,101.68 C 149.303,101.68 148.842,101.232 148.842,100.597 C 148.842,99.95 149.315,99.558 149.942,99.558 C 150.209,99.558 150.475,99.631 150.673,99.821 C 150.835,99.975 150.88,100.112 150.928,100.326 L 150.633,100.326 C 150.548,100.011 150.366,99.805 150.023,99.805 C 149.804,99.805 149.602,99.902 149.477,100.084 C 149.368,100.237 149.356,100.383 149.352,100.569 L 150.948,100.569 z M 149.368,100.84 C 149.388,101.009 149.408,101.115 149.521,101.248 C 149.631,101.381 149.76,101.442 149.934,101.442 C 150.112,101.442 150.265,101.369 150.362,101.216 C 150.435,101.098 150.447,100.973 150.455,100.84 L 149.368,100.84 z "
   id="path4615" />

          <path
   style="fill:#000000;fill-rule:evenodd;stroke:none"
   d="M 151.02,99.619 L 152.257,99.619 L 152.257,99.886 L 152.063,99.886 C 151.93,99.886 151.946,99.983 151.946,100.092 L 151.946,100.751 C 151.946,100.925 151.974,101.046 152.087,101.179 C 152.184,101.292 152.322,101.377 152.471,101.377 C 152.597,101.377 152.714,101.325 152.783,101.22 C 152.859,101.11 152.859,101.001 152.859,100.872 L 152.859,100.092 C 152.859,99.983 152.876,99.886 152.738,99.886 L 152.54,99.886 L 152.54,99.619 L 153.68,99.619 L 153.68,99.886 L 153.478,99.886 C 153.344,99.886 153.361,99.983 153.361,100.092 L 153.361,100.807 C 153.361,101.119 153.575,101.385 153.898,101.385 C 154.019,101.385 154.137,101.329 154.209,101.228 C 154.282,101.127 154.286,101.009 154.286,100.888 L 154.286,100.092 C 154.286,99.971 154.298,99.886 154.157,99.886 L 153.963,99.886 L 153.963,99.619 L 155.159,99.619 L 155.159,99.886 L 154.937,99.886 C 154.792,99.886 154.783,99.963 154.783,100.092 L 154.783,100.9 C 154.783,101.074 154.759,101.305 154.65,101.446 C 154.521,101.616 154.262,101.705 154.052,101.705 C 153.732,101.705 153.514,101.535 153.316,101.305 C 153.223,101.474 153.154,101.555 152.973,101.628 C 152.876,101.668 152.766,101.684 152.661,101.684 C 152.544,101.684 152.427,101.664 152.318,101.62 C 152.144,101.551 152.067,101.482 151.942,101.345 L 151.942,101.612 L 151.028,101.612 L 151.028,101.353 L 151.247,101.353 C 151.42,101.353 151.449,101.329 151.449,101.151 L 151.449,100.245 C 151.449,99.833 151.416,99.886 151.02,99.886 L 151.02,99.619 z "
   id="path4617" />

          <path
   style="fill:#000000;fill-rule:evenodd;stroke:none"
   d="M 157.337,100.569 C 157.329,100.852 157.309,101.082 157.127,101.309 C 156.929,101.559 156.642,101.68 156.323,101.68 C 155.692,101.68 155.231,101.232 155.231,100.597 C 155.231,99.95 155.704,99.558 156.331,99.558 C 156.597,99.558 156.864,99.631 157.062,99.821 C 157.224,99.975 157.268,100.112 157.317,100.326 L 157.022,100.326 C 156.937,100.011 156.755,99.805 156.411,99.805 C 156.193,99.805 155.991,99.902 155.866,100.084 C 155.757,100.237 155.744,100.383 155.74,100.569 L 157.337,100.569 z M 155.757,100.84 C 155.777,101.009 155.797,101.115 155.91,101.248 C 156.019,101.381 156.149,101.442 156.323,101.442 C 156.5,101.442 156.654,101.369 156.751,101.216 C 156.824,101.098 156.836,100.973 156.844,100.84 L 155.757,100.84 z "
   id="path4619" />

          <path
   style="fill:#000000;fill-rule:evenodd;stroke:none"
   d="M 157.409,101.341 L 157.643,101.341 C 157.809,101.341 157.813,101.288 157.813,101.139 C 157.813,100.791 157.805,100.44 157.817,100.092 C 157.821,99.93 157.793,99.886 157.627,99.886 L 157.413,99.886 L 157.413,99.619 L 158.65,99.619 L 158.65,99.886 L 158.452,99.886 C 158.379,99.886 158.314,99.898 158.314,99.987 L 158.314,100.743 C 158.314,101.066 158.513,101.365 158.86,101.365 C 158.985,101.365 159.115,101.317 159.192,101.216 C 159.281,101.102 159.272,100.989 159.272,100.848 L 159.272,100.088 C 159.272,100.047 159.264,99.954 159.244,99.922 C 159.216,99.882 159.18,99.886 159.135,99.886 L 158.945,99.886 L 158.945,99.619 L 160.113,99.619 L 160.113,99.886 L 159.923,99.886 C 159.879,99.886 159.83,99.882 159.802,99.922 C 159.766,99.971 159.774,100.035 159.774,100.092 L 159.774,100.848 C 159.774,101.046 159.778,101.248 159.648,101.406 C 159.499,101.587 159.26,101.664 159.034,101.664 C 158.828,101.664 158.593,101.596 158.432,101.462 C 158.387,101.426 158.347,101.381 158.306,101.337 L 158.306,101.612 L 157.409,101.612 L 157.409,101.341 z "
   id="path4621" />

          <path
   style="fill:#000000;fill-rule:evenodd;stroke:none"
   d="M 150.833,94.813 C 150.806,95.741 150.74,96.496 150.144,97.238 C 149.494,98.06 148.553,98.457 147.506,98.457 C 145.439,98.457 143.928,96.986 143.928,94.906 C 143.928,92.785 145.479,91.5 147.533,91.5 C 148.408,91.5 149.282,91.739 149.931,92.361 C 150.462,92.865 150.607,93.316 150.766,94.018 L 149.799,94.018 C 149.521,92.984 148.924,92.308 147.798,92.308 C 147.082,92.308 146.42,92.626 146.009,93.223 C 145.651,93.726 145.611,94.203 145.598,94.813 L 150.833,94.813 z M 145.651,95.701 C 145.717,96.258 145.784,96.602 146.155,97.039 C 146.512,97.477 146.937,97.676 147.506,97.676 C 148.089,97.676 148.593,97.437 148.911,96.933 C 149.15,96.549 149.189,96.138 149.216,95.701 L 145.651,95.701 z "
   id="path4623" />

          <path
   style="fill:#000000;fill-rule:evenodd;stroke:none"
   d="M 151.347,91.699 L 155.455,91.699 L 155.455,92.573 L 154.739,92.573 C 154.249,92.573 154.302,92.852 154.302,93.249 L 154.302,98.232 L 151.426,98.232 L 151.426,97.357 L 152.155,97.357 C 152.314,97.357 152.473,97.357 152.579,97.225 C 152.606,97.185 152.672,97.053 152.672,97.013 L 152.672,96.682 C 152.672,95.542 152.646,94.389 152.685,93.249 C 152.699,92.732 152.606,92.573 152.076,92.573 L 151.347,92.573 L 151.347,91.699 z "
   id="path4625" />

          <path
   style="fill:#000000;fill-rule:nonzero;stroke:none"
   d="M 155.798,97.344 L 156.567,97.344 C 157.11,97.344 157.124,97.172 157.124,96.682 C 157.124,95.542 157.097,94.389 157.137,93.249 C 157.15,92.719 157.057,92.573 156.514,92.573 L 155.812,92.573 L 155.812,91.699 L 159.867,91.699 L 159.867,92.573 L 159.217,92.573 C 158.979,92.573 158.767,92.613 158.767,92.905 L 158.767,95.383 C 158.767,96.443 159.416,97.424 160.556,97.424 C 160.967,97.424 161.391,97.265 161.643,96.933 C 161.934,96.562 161.908,96.191 161.908,95.727 L 161.908,93.236 C 161.908,93.103 161.881,92.799 161.815,92.693 C 161.722,92.56 161.603,92.573 161.457,92.573 L 160.834,92.573 L 160.834,91.699 L 164.664,91.699 L 164.664,92.573 L 164.041,92.573 C 163.895,92.573 163.736,92.56 163.644,92.693 C 163.524,92.852 163.551,93.064 163.551,93.249 L 163.551,95.727 C 163.551,96.377 163.564,97.039 163.14,97.556 C 162.65,98.153 161.868,98.404 161.126,98.404 C 160.45,98.404 159.681,98.179 159.151,97.742 C 159.005,97.623 158.873,97.477 158.74,97.331 L 158.74,98.232 L 155.798,98.232 L 155.798,97.344 z "
   id="path4627" />

          <path
   style="fill:#000000;fill-rule:nonzero;stroke:none"
   d="M 170.383,97.636 C 169.562,98.219 168.952,98.457 167.918,98.457 C 166.686,98.457 165.242,97.835 165.242,96.403 C 165.242,94.999 166.593,94.654 167.733,94.429 C 168.449,94.296 170.264,94.363 170.264,93.302 C 170.264,92.573 169.35,92.375 168.78,92.375 C 167.786,92.375 166.659,92.865 166.222,93.806 C 166.156,93.952 166.09,94.111 166.037,94.27 L 165.281,94.27 L 165.281,91.699 L 166.05,91.699 L 166.315,92.414 C 166.872,91.977 167.163,91.818 167.852,91.659 C 168.21,91.579 168.568,91.527 168.926,91.527 C 170.224,91.527 171.735,92.149 171.735,93.66 C 171.735,94.508 171.284,95.105 170.503,95.409 C 169.946,95.635 169.35,95.688 168.753,95.781 C 168.25,95.86 166.699,96.006 166.699,96.721 C 166.699,97.424 167.627,97.583 168.157,97.583 C 168.793,97.583 169.403,97.371 169.906,96.973 C 170.291,96.668 170.423,96.39 170.595,95.926 L 171.377,95.926 L 171.377,98.166 L 170.622,98.166 L 170.383,97.636 z "
   id="path4629" />

          <path
   style="fill:#97be0d;fill-rule:nonzero;stroke:none"
   d="M 130.998,96.752 C 130.998,99.954 133.593,102.549 136.795,102.549 C 139.997,102.549 142.592,99.954 142.592,96.752 C 142.592,93.551 139.997,90.955 136.795,90.955 C 133.593,90.955 130.998,93.551 130.998,96.752 M 136.13,96.734 L 137.46,96.734 L 137.46,92.39 C 139.581,92.71 141.207,94.541 141.207,96.752 C 141.207,99.189 139.232,101.165 136.795,101.165 C 134.358,101.165 132.383,99.189 132.383,96.752 C 132.383,94.541 134.009,92.71 136.13,92.39 L 136.13,96.734 z "
   id="path4631" />

        </g>
  </g>
</svg>
