<?xml version="1.0" encoding="UTF-8" standalone="no"?>
<!-- Created with Inkscape (http://www.inkscape.org/) -->
<svg
   xmlns:dc="http://purl.org/dc/elements/1.1/"
   xmlns:cc="http://web.resource.org/cc/"
   xmlns:rdf="http://www.w3.org/1999/02/22-rdf-syntax-ns#"
   xmlns:svg="http://www.w3.org/2000/svg"
   xmlns="http://www.w3.org/2000/svg"
   xmlns:xlink="http://www.w3.org/1999/xlink"
   xmlns:sodipodi="http://sodipodi.sourceforge.net/DTD/sodipodi-0.dtd"
   xmlns:inkscape="http://www.inkscape.org/namespaces/inkscape"
   width="500"
   height="100"
   id="svg2"
   sodipodi:version="0.32"
   inkscape:version="0.45.1"
   version="1.0"
   inkscape:output_extension="org.inkscape.output.svg.inkscape">
  <g
     inkscape:label="Layer 1"
     inkscape:groupmode="layer"
     id="layer1"
     transform="translate(-17.029947,-553.99285)">
    <g
       id="g3468"
       transform="matrix(20.165112,0,0,20.165112,-4644.8328,-9417.2354)">
      <path
         style="fill:#c50766;fill-rule:nonzero;stroke:none"
         d="M 246.80557,499.43819 L 255.97987,499.43819 L 255.97987,494.47979 L 246.80557,494.47979 L 246.80557,499.43819 z "
         id="path6175" />
      <path
         style="fill:#6c99d7;fill-rule:nonzero;stroke:none"
         d="M 244.57357,499.43819 L 246.55717,499.43819 L 246.55717,494.47949 L 244.57357,494.47949 L 244.57357,499.43819 z "
         id="path6177" />
      <path
         style="fill:#1969bc;fill-rule:nonzero;stroke:none"
         d="M 231.18457,499.43819 L 244.32657,499.43819 L 244.32657,494.47959 L 231.18457,494.47959 L 231.18457,499.43819 z "
         id="path6179" />
      <path
         style="fill:#ffffff;fill-rule:evenodd;stroke:none"
         d="M 231.84557,496.84319 L 231.84557,497.54119 C 231.84557,497.54119 232.10157,497.13319 232.28457,496.84319 L 231.84557,496.84319 z M 235.78657,496.84319 C 235.78857,496.93519 235.78857,497.03219 235.78857,497.03219 L 236.05057,497.03219 C 236.05157,497.03219 236.05057,496.94019 236.05057,496.94019 C 236.05057,496.90719 236.04957,496.87519 236.04957,496.84319 L 235.78657,496.84319 z M 236.25057,496.84319 C 236.24257,496.89419 236.23657,496.94519 236.23357,496.99719 C 236.22957,497.04619 236.22057,497.22419 236.25657,497.50419 L 236.86857,497.50419 C 236.86857,497.49319 236.84757,497.38919 236.84057,497.31619 C 236.82757,497.19019 236.83557,497.03019 236.83857,496.99119 C 236.84157,496.94119 236.84757,496.89119 236.85457,496.84319 L 236.25057,496.84319 z M 238.99357,496.84319 L 239.17257,497.04319 L 239.17257,496.84319 L 238.99357,496.84319 z M 240.11057,496.84319 L 240.11057,497.54219 C 240.11057,497.54219 240.36657,497.13319 240.55057,496.84319 L 240.11057,496.84319"
         id="path6181" />
      <path
         style="fill:#ffffff;fill-rule:evenodd;stroke:none"
         d="M 232.28457,496.84319 C 232.34957,496.74119 232.40457,496.65419 232.43757,496.60419 C 232.59457,496.36319 232.81857,495.92019 233.28057,495.90319 C 233.97957,495.87819 234.04857,496.64219 234.06157,496.78319 C 234.06757,496.78919 234.39157,495.93319 235.01157,495.90319 C 235.63057,495.87419 235.75657,496.48619 235.78057,496.72019 C 235.78357,496.75119 235.78557,496.79619 235.78657,496.84319 L 236.04957,496.84319 C 236.03157,496.15019 235.81257,495.58019 235.01757,495.60119 C 234.62957,495.61219 234.35657,495.85819 234.17457,496.12219 C 234.05457,495.83319 233.72257,495.58319 233.28657,495.60119 C 232.85157,495.62019 232.56957,495.91619 232.38057,496.21819 L 232.38057,495.69819 L 231.18457,495.69819 L 231.18457,496.00019 L 231.61257,496.00019 C 231.82057,496.00019 231.84557,496.09619 231.84557,496.29519 L 231.84557,496.84319 L 232.28457,496.84319 z M 236.85457,496.84319 C 236.92857,496.34619 237.20057,495.93919 237.74357,495.94419 C 238.22157,495.95019 238.48457,496.28619 238.61157,496.41619 L 238.99357,496.84319 L 239.17257,496.84319 L 239.17257,494.47919 L 238.00657,494.47919 L 238.00657,494.77119 L 238.33757,494.77119 C 238.54857,494.77119 238.63057,494.92019 238.63057,495.12519 L 238.63057,496.00619 C 238.35757,495.70819 238.01157,495.59619 237.60357,495.59619 C 236.77457,495.59619 236.34857,496.19119 236.25057,496.84319 L 236.85457,496.84319 z M 240.55057,496.84319 C 240.61457,496.74219 240.66957,496.65519 240.70257,496.60519 C 240.85957,496.36519 241.08357,495.92219 241.54557,495.90519 C 241.68157,495.90019 241.87257,495.93719 241.90357,496.08619 C 241.68157,496.08619 241.53257,496.18919 241.53257,496.42119 C 241.53257,496.60819 241.71257,496.71819 241.87957,496.71819 C 242.12657,496.71819 242.22557,496.53119 242.22557,496.28619 C 242.22557,495.84019 241.94657,495.58419 241.52657,495.60119 C 241.09157,495.62019 240.83457,495.91819 240.64557,496.22019 L 240.64557,495.69919 L 239.44957,495.69919 L 239.44957,496.00119 L 239.87757,496.00119 C 240.08557,496.00119 240.11057,496.09819 240.11057,496.29719 L 240.11057,496.84319 L 240.55057,496.84319"
         id="path6183" />
      <path
         style="fill:#ffffff;fill-rule:evenodd;stroke:none"
         d="M 253.47657,497.72319 C 253.27057,497.72319 253.24057,498.00919 253.24057,498.21819 C 253.24057,498.47619 253.28757,498.71219 253.47657,498.71219 C 253.69357,498.71219 253.71757,498.42419 253.71757,498.21819 C 253.71757,498.00719 253.69757,497.72319 253.47657,497.72319 z M 253.47657,498.95719 C 253.03857,498.95719 252.88557,498.59619 252.88557,498.21819 C 252.88557,497.84819 253.06157,497.47919 253.47657,497.47919 C 253.91957,497.47919 254.07157,497.84419 254.07157,498.21819 C 254.07157,498.59819 253.89357,498.95719 253.47657,498.95719 z M 252.35457,498.93419 L 252.24057,498.51419 C 252.20857,498.39819 252.16557,498.36019 252.09457,498.36019 L 252.02657,498.36019 L 252.02657,498.93419 L 251.68857,498.93419 L 251.68857,497.50019 L 252.21557,497.50019 C 252.44757,497.50019 252.65757,497.61819 252.65757,497.86719 C 252.65757,498.05519 252.55657,498.18419 252.37157,498.22019 C 252.47557,498.24819 252.52457,498.30619 252.56757,498.44619 L 252.71757,498.93419 L 252.35457,498.93419 z M 252.11657,497.74919 L 252.02357,497.74919 L 252.02357,498.10819 L 252.11857,498.10819 C 252.24057,498.10819 252.31157,498.04019 252.31157,497.92619 C 252.31157,497.80319 252.23457,497.74919 252.11657,497.74919 z M 251.14257,498.93419 L 251.06157,498.61119 L 250.64457,498.61119 L 250.56457,498.93419 L 250.22057,498.93419 L 250.66357,497.50019 L 251.05457,497.50019 L 251.49757,498.93419 L 251.14257,498.93419 z M 250.84857,497.77919 L 250.69757,498.37219 L 251.00357,498.37219 L 250.84857,497.77919 z M 249.58857,498.95719 C 249.14357,498.95719 248.93057,498.66019 248.93057,498.21819 C 248.93057,497.78419 249.20957,497.47919 249.65057,497.47919 C 249.80957,497.47919 249.91257,497.50919 250.00457,497.53919 L 249.99257,497.81419 C 249.90157,497.76919 249.82057,497.73219 249.67657,497.73219 C 249.41457,497.73219 249.28557,497.95119 249.28557,498.21819 C 249.28557,498.45919 249.36657,498.70319 249.62657,498.70319 C 249.66357,498.70319 249.69757,498.69719 249.73057,498.68219 L 249.73057,498.35119 L 249.56457,498.35119 L 249.56457,498.11019 L 250.04357,498.11019 L 250.04357,498.88219 C 249.91257,498.94019 249.72757,498.95719 249.58857,498.95719 z M 248.69657,498.93419 L 248.35477,498.93419 L 248.35477,497.50079 L 248.69657,497.50079 L 248.69657,498.93419 z M 247.64357,497.76019 L 247.64357,498.08319 L 248.07957,498.08319 L 248.07957,498.33819 L 247.64357,498.33819 L 247.64357,498.93419 L 247.30157,498.93419 L 247.30157,497.50019 L 248.10057,497.50019 L 248.10057,497.76019 L 247.64357,497.76019"
         id="path6185" />
    </g>
  </g>
</svg>
