<?xml version="1.0" encoding="UTF-8" standalone="no"?>
<!-- Created with Inkscape (http://www.inkscape.org/) -->

<svg
   xmlns:dc="http://purl.org/dc/elements/1.1/"
   xmlns:cc="http://creativecommons.org/ns#"
   xmlns:rdf="http://www.w3.org/1999/02/22-rdf-syntax-ns#"
   xmlns:svg="http://www.w3.org/2000/svg"
   xmlns="http://www.w3.org/2000/svg"
   xmlns:sodipodi="http://sodipodi.sourceforge.net/DTD/sodipodi-0.dtd"
   xmlns:inkscape="http://www.inkscape.org/namespaces/inkscape"
   width="200"
   height="232.66521"
   id="svg2"
   version="1.1"
   inkscape:version="0.48.1 "
   sodipodi:docname="New document 1">
  <defs
     id="defs4" />
  <sodipodi:namedview
     id="base"
     pagecolor="#ffffff"
     bordercolor="#666666"
     borderopacity="1.0"
     inkscape:pageopacity="0.0"
     inkscape:pageshadow="2"
     inkscape:zoom="0.70710678"
     inkscape:cx="104.86074"
     inkscape:cy="144.98959"
     inkscape:document-units="px"
     inkscape:current-layer="layer1"
     showgrid="false"
     fit-margin-top="0.5"
     fit-margin-left="0.5"
     fit-margin-right="0.5"
     fit-margin-bottom="0"
     inkscape:window-width="1920"
     inkscape:window-height="1000"
     inkscape:window-x="-8"
     inkscape:window-y="-8"
     inkscape:window-maximized="1">
    <inkscape:grid
       type="xygrid"
       id="grid2996"
       empspacing="5"
       visible="true"
       enabled="true"
       snapvisiblegridlinesonly="true" />
  </sodipodi:namedview>
  <metadata
     id="metadata7">
    <rdf:RDF>
      <cc:Work
         rdf:about="">
        <dc:format>image/svg+xml</dc:format>
        <dc:type
           rdf:resource="http://purl.org/dc/dcmitype/StillImage" />
        <dc:title></dc:title>
      </cc:Work>
    </rdf:RDF>
  </metadata>
  <g
     inkscape:label="Layer 1"
     inkscape:groupmode="layer"
     id="layer1"
     transform="translate(-935.89286,-235.63448)">
    <g
       id="g3026"
       transform="matrix(0.98737431,0,0,0.98737431,11.822605,5.9126062)">
      <path
         style="fill:#000000;stroke:none"
         d="m 982.38583,442.35003 6.12056,0.0893 -0.75893,24.03 -6.56699,0 z"
         id="path3020"
         inkscape:connector-curvature="0"
         sodipodi:nodetypes="ccccc" />
      <path
         style="fill:#000000;stroke:none"
         d="m 1014.1607,467.36218 -7.1428,0 2.1428,-76.69643 -18.74999,2.23215 0,9.73214 -54.01785,-8.66072 73.03574,-11.16071 0.4464,-22.85714 -52.41071,10.26785 -15.71429,-3.21428 18.75,-4.10714 28.30357,-47.41072 1.33929,-31.33929 5.17857,3.30358 -3.03572,68.66071 17.94639,-3.75 2.5893,-109.10714 6.0224,3.94196 -0.4867,16.59375 18.5715,-30.625 56.4285,39.55357 -3.0357,4.82143 4.5536,3.57143 2.8571,74.55357 -7.0535,8.03572 -10.7146,-17.58929 -36.339,7.05357 0,24.73215 36.964,-5.98172 8.3039,-4.73257 32.9464,9.82143 -4.0536,5.71428 -28.2678,6.96429 -47.5893,78.03571 -6.5179,-0.35714 1.9643,-225.35714 -19.1964,32.58928 z"
         id="path3022"
         inkscape:connector-curvature="0"
         sodipodi:nodetypes="cccccccccccccccccccccccccccccccccccccc" />
      <path
         style="fill:#3d91b5;fill-opacity:1;stroke:none"
         d="m 1065.6875,468.29968 30.875,-0.25 41.375,-77.125 0,-21.25 -57.9735,-23.5625 0.625,25.804 34.286,11.5085 z"
         id="path3024"
         inkscape:connector-curvature="0"
         sodipodi:nodetypes="cccccccc" />
    </g>
  </g>
</svg>
