<?xml version="1.0" encoding="UTF-8"?>
<!DOCTYPE svg PUBLIC "-//W3C//DTD SVG 1.1//EN" "http://www.w3.org/Graphics/SVG/1.1/DTD/svg11.dtd">
<svg width="532pt" height="197pt" viewBox="0 0 532 197" version="1.1" xmlns="http://www.w3.org/2000/svg">
<g id="#fffffeff">
<path fill="#fffffe" opacity="1.00" d=" M 52.80 74.85 C 59.04 68.58 68.87 68.01 77.13 69.37 C 83.74 70.39 90.76 74.88 91.40 82.09 C 91.79 103.14 90.94 124.22 91.91 145.26 C 87.11 145.21 82.30 145.16 77.49 145.31 C 77.12 144.13 76.75 142.95 76.38 141.77 C 71.74 145.17 65.83 147.62 60.03 146.03 C 54.05 144.84 49.93 139.00 49.50 133.11 C 49.03 126.41 49.42 119.68 49.30 112.97 C 49.14 108.66 50.80 103.83 54.96 101.91 C 61.62 98.80 69.21 99.53 76.30 98.25 C 76.13 93.86 76.63 89.43 76.02 85.07 C 74.58 80.23 66.68 80.24 64.92 84.84 C 64.09 88.32 64.53 91.94 64.42 95.48 C 59.38 95.49 54.35 95.46 49.32 95.48 C 49.72 88.61 47.57 80.42 52.80 74.85 M 64.85 115.85 C 64.16 120.54 64.26 125.40 64.79 130.11 C 65.89 135.51 75.14 135.69 76.16 130.16 C 76.44 123.77 76.20 117.37 76.24 110.98 C 72.32 111.80 66.44 111.27 64.85 115.85 Z"/>
<path fill="#fffffe" opacity="1.00" d=" M 143.98 72.91 C 148.90 69.51 155.11 68.61 160.97 68.79 C 166.52 69.20 172.61 70.27 176.69 74.40 C 179.53 77.12 180.72 81.12 180.69 84.97 C 180.70 94.27 180.69 103.58 180.69 112.88 C 171.70 112.97 162.71 112.86 153.72 112.94 C 153.84 118.67 153.49 124.41 153.85 130.13 C 154.86 135.61 164.23 135.64 165.16 130.08 C 165.50 126.11 165.21 122.12 165.28 118.15 C 170.42 118.01 175.56 118.06 180.70 118.09 C 180.55 123.72 181.05 129.38 180.40 134.99 C 179.74 140.83 174.22 144.67 168.86 145.84 C 161.53 147.43 153.56 147.44 146.54 144.59 C 141.86 142.76 138.38 138.20 138.37 133.10 C 138.16 117.06 138.35 101.01 138.28 84.96 C 138.12 80.33 140.12 75.60 143.98 72.91 M 153.87 84.84 C 153.50 89.97 153.83 95.12 153.70 100.26 C 157.57 100.27 161.43 100.28 165.30 100.30 C 165.14 95.22 165.60 90.10 165.07 85.04 C 163.38 80.46 155.63 80.15 153.87 84.84 Z"/>
<path fill="#fffffe" opacity="1.00" d=" M 303.13 74.38 C 308.39 69.46 316.47 67.42 323.08 70.88 C 324.44 72.08 325.76 73.34 327.02 74.64 C 329.42 77.53 330.34 81.27 330.23 84.97 C 330.18 105.05 330.25 125.14 330.19 145.22 C 325.16 145.21 320.14 145.21 315.12 145.24 C 314.97 125.79 315.23 106.34 315.00 86.89 C 315.29 82.31 309.60 80.14 306.03 82.16 C 303.39 83.30 303.23 86.55 303.22 89.02 C 303.26 107.75 303.26 126.49 303.23 145.23 C 298.18 145.22 293.14 145.22 288.09 145.22 C 288.01 120.23 288.04 95.24 288.07 70.25 C 293.18 70.25 298.30 70.24 303.41 70.42 C 303.34 71.41 303.20 73.39 303.13 74.38 Z"/>
<path fill="#fffffe" opacity="1.00" d=" M 456.73 69.37 C 464.05 69.14 471.37 69.23 478.69 69.32 C 478.83 77.48 478.68 85.63 478.78 93.79 C 488.09 94.30 497.43 93.78 506.75 94.08 C 506.76 101.47 506.72 108.86 506.76 116.25 C 497.46 116.85 488.12 116.36 478.81 116.51 C 478.65 125.99 478.83 135.47 478.71 144.95 C 471.40 145.08 464.10 144.92 456.80 145.04 C 456.57 135.54 457.02 126.02 456.55 116.52 C 447.22 116.42 437.89 116.69 428.57 116.37 C 428.43 108.93 428.52 101.49 428.51 94.05 C 437.79 93.93 447.07 94.05 456.35 93.97 C 457.23 85.82 456.53 77.56 456.73 69.37 Z"/>
<path fill="#fffffe" opacity="1.00" d=" M 102.10 70.29 C 107.13 70.26 112.17 70.25 117.20 70.30 C 117.30 91.12 117.14 111.95 117.28 132.77 C 122.32 132.78 127.36 132.76 132.41 132.79 C 132.50 136.94 132.51 141.09 132.36 145.23 C 122.28 145.24 112.20 145.18 102.12 145.26 C 101.98 120.27 102.03 95.28 102.10 70.29 Z"/>
<path fill="#fffffe" opacity="1.00" d=" M 208.27 70.27 C 213.35 70.30 218.43 70.26 223.52 70.31 C 223.48 80.39 223.45 90.47 223.54 100.54 C 226.96 100.26 231.07 101.41 233.87 98.85 C 235.48 97.38 235.29 95.02 235.34 93.04 C 235.28 85.48 235.32 77.91 235.30 70.35 C 240.36 70.23 245.41 70.25 250.47 70.32 C 250.44 78.51 250.53 86.71 250.44 94.90 C 250.21 100.78 245.19 104.99 239.92 106.62 C 245.25 107.93 250.06 112.31 250.43 118.01 C 250.60 127.09 250.17 136.18 250.92 145.25 C 246.02 145.19 241.13 145.21 236.24 145.25 C 234.59 135.85 235.79 126.26 235.09 116.81 C 233.52 111.94 227.43 112.84 223.44 113.10 C 223.53 123.81 223.51 134.51 223.45 145.21 C 218.39 145.22 213.33 145.25 208.27 145.16 C 208.28 120.20 208.27 95.24 208.27 70.27 Z"/>
<path fill="#fffffe" opacity="1.00" d=" M 262.30 70.31 C 267.43 70.26 272.55 70.24 277.68 70.31 C 277.76 95.27 277.71 120.23 277.70 145.19 C 272.60 145.26 267.50 145.17 262.40 145.26 C 262.14 120.28 262.33 95.29 262.30 70.31 Z"/>
<path fill="#fffffe" opacity="1.00" d=" M 347.06 71.76 C 354.17 70.86 361.26 69.69 368.42 69.38 C 375.05 70.78 381.99 75.58 382.13 82.98 C 382.36 98.32 382.10 113.67 382.25 129.01 C 382.23 132.73 382.36 136.85 380.03 139.99 C 376.61 144.68 370.54 146.31 365.03 146.73 C 358.77 147.11 352.11 146.86 346.50 143.77 C 342.59 141.71 339.97 137.46 340.07 133.02 C 340.03 116.66 340.05 100.30 340.06 83.95 C 339.80 78.89 342.96 74.42 347.06 71.76 M 359.46 81.56 C 356.93 81.99 355.13 84.34 355.25 86.88 C 355.21 100.61 355.22 114.34 355.25 128.07 C 354.61 132.22 359.37 135.33 363.07 133.98 C 365.78 133.46 367.20 130.61 367.07 128.05 C 367.05 114.32 367.18 100.58 366.99 86.86 C 367.11 82.99 362.90 80.71 359.46 81.56 Z"/>
</g>
<g id="#ce533bff">
<path fill="#ce533b" opacity="1.00" d=" M 315.38 0.00 L 316.87 0.00 C 318.80 16.04 320.95 32.06 322.75 48.11 C 322.52 47.08 322.29 46.05 322.05 45.02 C 227.70 44.96 133.36 45.02 39.01 45.00 C 34.47 44.80 29.91 44.65 25.38 45.16 L 24.94 45.18 C 24.57 42.08 24.19 38.97 23.79 35.87 C 120.98 23.86 218.19 12.01 315.38 0.00 Z"/>
<path fill="#ce533b" opacity="1.00" d=" M 41.77 175.74 L 41.86 175.76 C 48.23 176.26 54.62 175.91 61.00 176.00 C 100.80 176.11 140.63 175.66 180.41 176.45 C 189.76 175.83 199.15 175.79 208.50 176.24 C 205.54 176.77 202.58 177.34 199.62 177.90 C 176.98 180.95 154.28 183.54 131.62 186.39 C 103.46 190.01 75.21 192.97 47.11 197.00 L 43.46 197.00 C 43.03 191.07 41.93 185.22 41.52 179.29 C 41.58 178.40 41.70 176.63 41.77 175.74 Z"/>
</g>
<g id="#d87c62ff">
<path fill="#d87c62" opacity="1.00" d=" M 316.87 0.00 L 317.44 0.00 C 336.54 15.27 355.97 30.14 375.16 45.31 C 383.40 52.04 392.17 58.15 400.20 65.15 C 389.60 66.47 378.90 67.21 368.42 69.38 C 361.26 69.69 354.17 70.86 347.06 71.76 C 340.36 72.58 333.48 72.50 327.02 74.64 C 325.76 73.34 324.44 72.08 323.08 70.88 C 323.71 71.13 324.97 71.64 325.60 71.89 C 325.00 63.92 323.59 56.05 322.75 48.11 C 320.95 32.06 318.80 16.04 316.87 0.00 Z"/>
</g>
<g id="#c41e1dff">
<path fill="#c41e1d" opacity="1.00" d=" M 25.38 45.16 C 29.91 44.65 34.47 44.80 39.01 45.00 C 133.36 45.02 227.70 44.96 322.05 45.02 C 322.29 46.05 322.52 47.08 322.75 48.11 C 323.59 56.05 325.00 63.92 325.60 71.89 C 324.97 71.64 323.71 71.13 323.08 70.88 C 316.47 67.42 308.39 69.46 303.13 74.38 C 303.20 73.39 303.34 71.41 303.41 70.42 C 298.30 70.24 293.18 70.25 288.07 70.25 C 288.04 95.24 288.01 120.23 288.09 145.22 C 293.14 145.22 298.18 145.22 303.23 145.23 C 303.26 126.49 303.26 107.75 303.22 89.02 C 303.23 86.55 303.39 83.30 306.03 82.16 C 309.60 80.14 315.29 82.31 315.00 86.89 C 315.23 106.34 314.97 125.79 315.12 145.24 C 320.14 145.21 325.16 145.21 330.19 145.22 C 330.25 125.14 330.18 105.05 330.23 84.97 C 330.34 81.27 329.42 77.53 327.02 74.64 C 333.48 72.50 340.36 72.58 347.06 71.76 C 342.96 74.42 339.80 78.89 340.06 83.95 C 340.05 100.30 340.03 116.66 340.07 133.02 C 339.97 137.46 342.59 141.71 346.50 143.77 C 352.11 146.86 358.77 147.11 365.03 146.73 C 370.54 146.31 376.61 144.68 380.03 139.99 C 382.36 136.85 382.23 132.73 382.25 129.01 C 382.10 113.67 382.36 98.32 382.13 82.98 C 381.99 75.58 375.05 70.78 368.42 69.38 C 378.90 67.21 389.60 66.47 400.20 65.15 C 402.64 86.79 405.53 108.37 408.12 130.00 C 408.77 137.39 410.36 144.67 410.62 152.09 C 359.11 158.37 307.59 164.66 256.08 170.99 C 244.73 172.52 233.36 173.91 221.91 174.55 C 225.12 174.55 228.32 174.74 231.51 175.19 C 220.80 174.96 210.21 176.64 199.62 177.90 C 202.58 177.34 205.54 176.77 208.50 176.24 C 199.15 175.79 189.76 175.83 180.41 176.45 C 140.63 175.66 100.80 176.11 61.00 176.00 C 54.62 175.91 48.23 176.26 41.86 175.76 L 41.77 175.74 C 40.98 173.40 40.31 171.01 40.06 168.56 C 37.04 141.33 33.25 114.21 30.14 87.00 C 28.65 73.04 26.20 59.18 25.38 45.16 M 52.80 74.85 C 47.57 80.42 49.72 88.61 49.32 95.48 C 54.35 95.46 59.38 95.49 64.42 95.48 C 64.53 91.94 64.09 88.32 64.92 84.84 C 66.68 80.24 74.58 80.23 76.02 85.07 C 76.63 89.43 76.13 93.86 76.30 98.25 C 69.21 99.53 61.62 98.80 54.96 101.91 C 50.80 103.83 49.14 108.66 49.30 112.97 C 49.42 119.68 49.03 126.41 49.50 133.11 C 49.93 139.00 54.05 144.84 60.03 146.03 C 65.83 147.62 71.74 145.17 76.38 141.77 C 76.75 142.95 77.12 144.13 77.49 145.31 C 82.30 145.16 87.11 145.21 91.91 145.26 C 90.94 124.22 91.79 103.14 91.40 82.09 C 90.76 74.88 83.74 70.39 77.13 69.37 C 68.87 68.01 59.04 68.58 52.80 74.85 M 143.98 72.91 C 140.12 75.60 138.12 80.33 138.28 84.96 C 138.35 101.01 138.16 117.06 138.37 133.10 C 138.38 138.20 141.86 142.76 146.54 144.59 C 153.56 147.44 161.53 147.43 168.86 145.84 C 174.22 144.67 179.74 140.83 180.40 134.99 C 181.05 129.38 180.55 123.72 180.70 118.09 C 175.56 118.06 170.42 118.01 165.28 118.15 C 165.21 122.12 165.50 126.11 165.16 130.08 C 164.23 135.64 154.86 135.61 153.85 130.13 C 153.49 124.41 153.84 118.67 153.72 112.94 C 162.71 112.86 171.70 112.97 180.69 112.88 C 180.69 103.58 180.70 94.27 180.69 84.97 C 180.72 81.12 179.53 77.12 176.69 74.40 C 172.61 70.27 166.52 69.20 160.97 68.79 C 155.11 68.61 148.90 69.51 143.98 72.91 M 102.10 70.29 C 102.03 95.28 101.98 120.27 102.12 145.26 C 112.20 145.18 122.28 145.24 132.36 145.23 C 132.51 141.09 132.50 136.94 132.41 132.79 C 127.36 132.76 122.32 132.78 117.28 132.77 C 117.14 111.95 117.30 91.12 117.20 70.30 C 112.17 70.25 107.13 70.26 102.10 70.29 M 208.27 70.27 C 208.27 95.24 208.28 120.20 208.27 145.16 C 213.33 145.25 218.39 145.22 223.45 145.21 C 223.51 134.51 223.53 123.81 223.44 113.10 C 227.43 112.84 233.52 111.94 235.09 116.81 C 235.79 126.26 234.59 135.85 236.24 145.25 C 241.13 145.21 246.02 145.19 250.92 145.25 C 250.17 136.18 250.60 127.09 250.43 118.01 C 250.06 112.31 245.25 107.93 239.92 106.62 C 245.19 104.99 250.21 100.78 250.44 94.90 C 250.53 86.71 250.44 78.51 250.47 70.32 C 245.41 70.25 240.36 70.23 235.30 70.35 C 235.32 77.91 235.28 85.48 235.34 93.04 C 235.29 95.02 235.48 97.38 233.87 98.85 C 231.07 101.41 226.96 100.26 223.54 100.54 C 223.45 90.47 223.48 80.39 223.52 70.31 C 218.43 70.26 213.35 70.30 208.27 70.27 M 262.30 70.31 C 262.33 95.29 262.14 120.28 262.40 145.26 C 267.50 145.17 272.60 145.26 277.70 145.19 C 277.71 120.23 277.76 95.27 277.68 70.31 C 272.55 70.24 267.43 70.26 262.30 70.31 Z"/>
<path fill="#c41e1d" opacity="1.00" d=" M 153.87 84.84 C 155.63 80.15 163.38 80.46 165.07 85.04 C 165.60 90.10 165.14 95.22 165.30 100.30 C 161.43 100.28 157.57 100.27 153.70 100.26 C 153.83 95.12 153.50 89.97 153.87 84.84 Z"/>
<path fill="#c41e1d" opacity="1.00" d=" M 359.46 81.56 C 362.90 80.71 367.11 82.99 366.99 86.86 C 367.18 100.58 367.05 114.32 367.07 128.05 C 367.20 130.61 365.78 133.46 363.07 133.98 C 359.37 135.33 354.61 132.22 355.25 128.07 C 355.22 114.34 355.21 100.61 355.25 86.88 C 355.13 84.34 356.93 81.99 359.46 81.56 Z"/>
<path fill="#c41e1d" opacity="1.00" d=" M 64.85 115.85 C 66.44 111.27 72.32 111.80 76.24 110.98 C 76.20 117.37 76.44 123.77 76.16 130.16 C 75.14 135.69 65.89 135.51 64.79 130.11 C 64.26 125.40 64.16 120.54 64.85 115.85 Z"/>
</g>
<g id="#000000ff">
<path fill="#000000" opacity="1.00" d=" M 0.00 45.25 C 8.31 45.19 16.63 45.36 24.94 45.18 L 25.38 45.16 C 26.20 59.18 28.65 73.04 30.14 87.00 C 33.25 114.21 37.04 141.33 40.06 168.56 C 40.31 171.01 40.98 173.40 41.77 175.74 C 41.70 176.63 41.58 178.40 41.52 179.29 C 41.34 177.77 41.09 176.27 40.86 174.76 C 38.58 175.16 36.27 175.30 33.96 175.28 C 22.64 175.22 11.32 175.27 0.00 175.25 L 0.00 45.25 Z"/>
<path fill="#000000" opacity="1.00" d=" M 375.16 45.31 C 427.44 45.17 479.72 45.29 532.00 45.25 L 532.00 175.25 C 431.84 175.21 331.67 175.33 231.51 175.19 C 228.32 174.74 225.12 174.55 221.91 174.55 C 233.36 173.91 244.73 172.52 256.08 170.99 C 307.59 164.66 359.11 158.37 410.62 152.09 C 410.36 144.67 408.77 137.39 408.12 130.00 C 405.53 108.37 402.64 86.79 400.20 65.15 C 392.17 58.15 383.40 52.04 375.16 45.31 M 456.73 69.37 C 456.53 77.56 457.23 85.82 456.35 93.97 C 447.07 94.05 437.79 93.93 428.51 94.05 C 428.52 101.49 428.43 108.93 428.57 116.37 C 437.89 116.69 447.22 116.42 456.55 116.52 C 457.02 126.02 456.57 135.54 456.80 145.04 C 464.10 144.92 471.40 145.08 478.71 144.95 C 478.83 135.47 478.65 125.99 478.81 116.51 C 488.12 116.36 497.46 116.85 506.76 116.25 C 506.72 108.86 506.76 101.47 506.75 94.08 C 497.43 93.78 488.09 94.30 478.78 93.79 C 478.68 85.63 478.83 77.48 478.69 69.32 C 471.37 69.23 464.05 69.14 456.73 69.37 Z"/>
</g>
</svg>