<?xml version="1.0" encoding="UTF-8" standalone="no"?>
<!-- Created with Inkscape (http://www.inkscape.org/) -->

<svg
   xmlns:dc="http://purl.org/dc/elements/1.1/"
   xmlns:cc="http://creativecommons.org/ns#"
   xmlns:rdf="http://www.w3.org/1999/02/22-rdf-syntax-ns#"
   xmlns:svg="http://www.w3.org/2000/svg"
   xmlns="http://www.w3.org/2000/svg"
   xmlns:xlink="http://www.w3.org/1999/xlink"
   xmlns:sodipodi="http://sodipodi.sourceforge.net/DTD/sodipodi-0.dtd"
   xmlns:inkscape="http://www.inkscape.org/namespaces/inkscape"
   width="350.99893"
   height="358"
   id="svg2"
   sodipodi:version="0.32"
   inkscape:version="0.48.4 r9939"
   version="1.0"
   inkscape:output_extension="org.inkscape.output.svg.inkscape"
   sodipodi:docname="tv.alibihd.svg">
  <metadata
     id="metadata168">
    <rdf:RDF>
      <cc:Work
         rdf:about="">
        <dc:format>image/svg+xml</dc:format>
        <dc:type
           rdf:resource="http://purl.org/dc/dcmitype/StillImage" />
        <dc:title />
      </cc:Work>
    </rdf:RDF>
  </metadata>
  <defs
     id="defs166" />
  <sodipodi:namedview
     pagecolor="#ffffff"
     bordercolor="#666666"
     borderopacity="1"
     objecttolerance="10"
     gridtolerance="10"
     guidetolerance="10"
     inkscape:pageopacity="0"
     inkscape:pageshadow="2"
     inkscape:window-width="1600"
     inkscape:window-height="837"
     id="namedview164"
     showgrid="false"
     inkscape:zoom="0.65921788"
     inkscape:cx="-80.864941"
     inkscape:cy="179"
     inkscape:window-x="-8"
     inkscape:window-y="-8"
     inkscape:window-maximized="1"
     inkscape:current-layer="layer1" />
  <g
     inkscape:label="Layer 1"
     inkscape:groupmode="layer"
     id="layer1"
     transform="translate(-44.400179,-662.30737)">
    <g
       id="g13872"
       clip-path="url(#id14)"
       transform="matrix(1,0,0,-1,-49.874766,1247.5965)" />
    <g
       id="g14024"
       clip-path="url(#id18)"
       transform="matrix(1,0,0,-1,-49.874766,1247.5965)">
      <use
         id="use14026"
         xlink:href="#id24"
         mask="url(#id31)"
         x="0"
         y="0"
         width="744.09448"
         height="1052.3622" />
    </g>
    <g
       id="g22814"
       clip-path="url(#id106)"
       transform="matrix(1,0,0,-1,-49.874766,1247.5965)">
      <g
         id="g22816"
         transform="matrix(0.6000061,0,0,-0.5899963,-6.0236206,289.47241)">
        <path
           id="path22818"
           d="M 888.539,-273.918 L 888.59,-273.918 L 888.59,-274.244 L 888.539,-274.244 L 888.539,-273.918 z "
           style="fill:#ad1015;fill-rule:nonzero;stroke:none" />
      </g>
      <g
         id="g22820"
         transform="matrix(0.6000061,0,0,-0.5899963,-6.0236206,289.47241)">
        <path
           id="path22822"
           d="M 888.59,-280.54 L 888.539,-280.54 L 888.539,-279.897 L 888.59,-279.897 L 888.59,-280.54 z "
           style="fill:#ad1015;fill-rule:nonzero;stroke:none" />
      </g>
      <g
         id="g22824"
         transform="matrix(0.6000061,0,0,-0.5899963,-6.0236206,289.47241)">
        <g
           id="g22826"
           transform="translate(888.5387,-279.7495)">
          <path
             id="path22828"
             d="M 0,0 L 0,5.349 L 0.051,5.391 L 0.051,-0.04 L 0.045,-0.036 L 0,0 z "
             style="fill:#ad1015;fill-rule:nonzero;stroke:none" />
        </g>
      </g>
    </g>
    <g
       id="g24982"
       clip-path="url(#id107)"
       transform="matrix(1,0,0,-1,-49.874766,1247.5965)">
      <g
         id="g24984"
         transform="matrix(0.6000061,0,0,-0.5899963,-6.0236206,289.47241)">
        <path
           id="path24986"
           d="M 888.539,-274.244 L 888.59,-274.244 L 888.59,-274.257 L 888.539,-274.257 L 888.539,-274.244 z "
           style="fill:#ad1015;fill-rule:nonzero;stroke:none" />
      </g>
      <g
         id="g24988"
         transform="matrix(0.6000061,0,0,-0.5899963,-6.0236206,289.47241)">
        <g
           id="g24990"
           transform="translate(888.5387,-274.3822)">
          <path
             id="path24992"
             d="M 0,0 L 0.047,0.036 L 0.051,0.04 L 0.051,0.023 L 0,-0.019 L 0,0 z "
             style="fill:#ad1015;fill-rule:nonzero;stroke:none" />
        </g>
      </g>
      <g
         id="g24994"
         transform="matrix(0.6000061,0,0,-0.5899963,-6.0236206,289.47241)">
        <path
           id="path24996"
           d="M 888.539,-279.884 L 888.59,-279.884 L 888.59,-279.898 L 888.539,-279.898 L 888.539,-279.884 z "
           style="fill:#ad1015;fill-rule:nonzero;stroke:none" />
      </g>
      <g
         id="g24998"
         transform="matrix(0.6000061,0,0,-0.5899963,-6.0236206,289.47241)">
        <g
           id="g25000"
           transform="translate(888.5514,-279.7758)">
          <path
             id="path25002"
             d="M 0,0 L -0.013,0.011 L -0.013,0.026 L 0.032,-0.01 L 0.038,-0.014 L 0.038,-0.028 L 0,0 z "
             style="fill:#ad1015;fill-rule:nonzero;stroke:none" />
        </g>
      </g>
    </g>
    <g
       id="g26910"
       clip-path="url(#id108)"
       transform="matrix(1,0,0,-1,-49.874766,1247.5965)">
      <g
         id="g26912"
         transform="matrix(0.6000061,0,0,-0.5899963,-6.0236206,289.47241)">
        <path
           id="path26914"
           d="M 888.59,-279.884 L 888.539,-279.884 L 888.539,-279.872 L 888.59,-279.872 L 888.59,-279.884 z "
           style="fill:#aa1015;fill-rule:nonzero;stroke:none" />
      </g>
      <g
         id="g26916"
         transform="matrix(0.6000061,0,0,-0.5899963,-6.0236206,289.47241)">
        <g
           id="g26918"
           transform="translate(888.5387,-279.7807)">
          <path
             id="path26920"
             d="M 0,0 L 0,0.016 L 0.013,0.005 L 0.051,-0.023 L 0.051,-0.037 L 0,0 z "
             style="fill:#aa1015;fill-rule:nonzero;stroke:none" />
        </g>
      </g>
      <g
         id="g26922"
         transform="matrix(0.6000061,0,0,-0.5899963,-6.0236206,289.47241)">
        <g
           id="g26924"
           transform="translate(888.5387,-274.3822)">
          <path
             id="path26926"
             d="M 0,0 L 0,0.017 L 0.009,0.023 L 0.051,0.058 L 0.051,0.04 L 0.047,0.036 L 0,0 z "
             style="fill:#aa1015;fill-rule:nonzero;stroke:none" />
        </g>
      </g>
      <g
         id="g26928"
         transform="matrix(0.6000061,0,0,-0.5899963,-6.0236206,289.47241)">
        <path
           id="path26930"
           d="M 888.539,-274.257 L 888.59,-274.257 L 888.59,-274.27 L 888.539,-274.27 L 888.539,-274.257 z "
           style="fill:#aa1015;fill-rule:nonzero;stroke:none" />
      </g>
    </g>
    <g
       id="g28722"
       clip-path="url(#id109)"
       transform="matrix(1,0,0,-1,-49.874766,1247.5965)">
      <g
         id="g28724"
         transform="matrix(0.6000061,0,0,-0.5899963,-6.0236206,289.47241)">
        <g
           id="g28726"
           transform="translate(888.5387,-279.7963)">
          <path
             id="path28728"
             d="M 0,0 L 0,0.016 L 0.051,-0.021 L 0.051,-0.037 L 0,0 z "
             style="fill:#a91115;fill-rule:nonzero;stroke:none" />
        </g>
      </g>
      <g
         id="g28730"
         transform="matrix(0.6000061,0,0,-0.5899963,-6.0236206,289.47241)">
        <g
           id="g28732"
           transform="translate(888.5895,-274.307)">
          <path
             id="path28734"
             d="M 0,0 L 0,-0.018 L -0.042,-0.052 L -0.051,-0.059 L -0.051,-0.042 L 0,0 z "
             style="fill:#a91115;fill-rule:nonzero;stroke:none" />
        </g>
      </g>
      <g
         id="g28736"
         transform="matrix(0.6000061,0,0,-0.5899963,-6.0236206,289.47241)">
        <path
           id="path28738"
           d="M 888.539,-274.27 L 888.59,-274.27 L 888.59,-274.283 L 888.539,-274.283 L 888.539,-274.27 z "
           style="fill:#a91115;fill-rule:nonzero;stroke:none" />
      </g>
      <g
         id="g28740"
         transform="matrix(0.6000061,0,0,-0.5899963,-6.0236206,289.47241)">
        <path
           id="path28742"
           d="M 888.59,-279.872 L 888.539,-279.872 L 888.539,-279.858 L 888.59,-279.858 L 888.59,-279.872 z "
           style="fill:#a91115;fill-rule:nonzero;stroke:none" />
      </g>
    </g>
    <g
       id="g30210"
       clip-path="url(#id110)"
       transform="matrix(1,0,0,-1,-49.874766,1247.5965)">
      <g
         id="g30212"
         transform="matrix(0.6000061,0,0,-0.5899963,-6.0236206,289.47241)">
        <g
           id="g30214"
           transform="translate(888.5856,-279.8461)">
          <path
             id="path30216"
             d="M 0,0 L -0.047,0.035 L -0.047,0.05 L 0.004,0.013 L 0.004,-0.013 L -0.047,-0.013 L -0.047,0 L 0,0 z "
             style="fill:#a81116;fill-rule:nonzero;stroke:none" />
        </g>
      </g>
      <g
         id="g30218"
         transform="matrix(0.6000061,0,0,-0.5899963,-6.0236206,289.47241)">
        <g
           id="g30220"
           transform="translate(888.5836,-274.2953)">
          <path
             id="path30222"
             d="M 0,0 L -0.045,0 L -0.045,0.013 L 0.006,0.013 L 0.006,-0.012 L -0.045,-0.054 L -0.045,-0.035 L 0,0 z "
             style="fill:#a81116;fill-rule:nonzero;stroke:none" />
        </g>
      </g>
    </g>
    <g
       id="g31228"
       clip-path="url(#id111)"
       transform="matrix(1,0,0,-1,-49.874766,1247.5965)">
      <g
         id="g31230"
         transform="matrix(0.6000061,0,0,-0.5899963,-6.0236206,289.47241)">
        <g
           id="g31232"
           transform="translate(888.5475,-279.8334)">
          <path
             id="path31234"
             d="M 0,0 L -0.009,0.007 L -0.009,0.022 L 0.038,-0.013 L -0.009,-0.013 L -0.009,0 L 0,0 z "
             style="fill:#a61116;fill-rule:nonzero;stroke:none" />
        </g>
      </g>
      <g
         id="g31236"
         transform="matrix(0.6000061,0,0,-0.5899963,-6.0236206,289.47241)">
        <g
           id="g31238"
           transform="translate(888.5456,-274.308)">
          <path
             id="path31240"
             d="M 0,0 L -0.007,0 L -0.007,0.013 L 0.038,0.013 L -0.007,-0.022 L -0.007,-0.007 L 0,0 z "
             style="fill:#a61116;fill-rule:nonzero;stroke:none" />
        </g>
      </g>
    </g>
    <g
       id="g31830"
       clip-path="url(#id112)"
       transform="matrix(1,0,0,-1,-49.874766,1247.5965)">
      <g
         id="g31832"
         transform="matrix(0.6000061,0,0,-0.5899963,-6.0236206,289.47241)">
        <g
           id="g31834"
           transform="translate(888.5456,-274.308)">
          <path
             id="path31836"
             d="M 0,0 L -0.007,-0.007 L -0.007,0 L 0,0 z "
             style="fill:#a51116;fill-rule:nonzero;stroke:none" />
        </g>
      </g>
      <g
         id="g31838"
         transform="matrix(0.6000061,0,0,-0.5899963,-6.0236206,289.47241)">
        <g
           id="g31840"
           transform="translate(888.5475,-279.8334)">
          <path
             id="path31842"
             d="M 0,0 L -0.009,0 L -0.009,0.007 L 0,0 z "
             style="fill:#a51116;fill-rule:nonzero;stroke:none" />
        </g>
      </g>
    </g>
    <g
       id="g34536"
       clip-path="url(#id147)"
       transform="matrix(1,0,0,-1,-49.874766,1247.5965)">
      <g
         id="g34538"
         transform="matrix(0.6000061,0,0,-0.5899963,-6.0236206,289.47241)">
        <path
           id="path34540"
           d="M 888.539,-273.918 L 888.59,-273.918 L 888.59,-274.244 L 888.539,-274.244 L 888.539,-273.918 z "
           style="fill:#ad1015;fill-rule:nonzero;stroke:none" />
      </g>
      <g
         id="g34542"
         transform="matrix(0.6000061,0,0,-0.5899963,-6.0236206,289.47241)">
        <path
           id="path34544"
           d="M 888.59,-280.54 L 888.539,-280.54 L 888.539,-279.897 L 888.59,-279.897 L 888.59,-280.54 z "
           style="fill:#ad1015;fill-rule:nonzero;stroke:none" />
      </g>
      <g
         id="g34546"
         transform="matrix(0.6000061,0,0,-0.5899963,-6.0236206,289.47241)">
        <g
           id="g34548"
           transform="translate(888.5387,-279.7495)">
          <path
             id="path34550"
             d="M 0,0 L 0,5.349 L 0.051,5.391 L 0.051,-0.04 L 0.045,-0.036 L 0,0 z "
             style="fill:#ad1015;fill-rule:nonzero;stroke:none" />
        </g>
      </g>
    </g>
    <g
       id="g36704"
       clip-path="url(#id148)"
       transform="matrix(1,0,0,-1,-49.874766,1247.5965)">
      <g
         id="g36706"
         transform="matrix(0.6000061,0,0,-0.5899963,-6.0236206,289.47241)">
        <path
           id="path36708"
           d="M 888.539,-274.244 L 888.59,-274.244 L 888.59,-274.257 L 888.539,-274.257 L 888.539,-274.244 z "
           style="fill:#ad1015;fill-rule:nonzero;stroke:none" />
      </g>
      <g
         id="g36710"
         transform="matrix(0.6000061,0,0,-0.5899963,-6.0236206,289.47241)">
        <g
           id="g36712"
           transform="translate(888.5387,-274.3822)">
          <path
             id="path36714"
             d="M 0,0 L 0.047,0.036 L 0.051,0.04 L 0.051,0.023 L 0,-0.019 L 0,0 z "
             style="fill:#ad1015;fill-rule:nonzero;stroke:none" />
        </g>
      </g>
      <g
         id="g36716"
         transform="matrix(0.6000061,0,0,-0.5899963,-6.0236206,289.47241)">
        <path
           id="path36718"
           d="M 888.539,-279.884 L 888.59,-279.884 L 888.59,-279.898 L 888.539,-279.898 L 888.539,-279.884 z "
           style="fill:#ad1015;fill-rule:nonzero;stroke:none" />
      </g>
      <g
         id="g36720"
         transform="matrix(0.6000061,0,0,-0.5899963,-6.0236206,289.47241)">
        <g
           id="g36722"
           transform="translate(888.5514,-279.7758)">
          <path
             id="path36724"
             d="M 0,0 L -0.013,0.011 L -0.013,0.026 L 0.032,-0.01 L 0.038,-0.014 L 0.038,-0.028 L 0,0 z "
             style="fill:#ad1015;fill-rule:nonzero;stroke:none" />
        </g>
      </g>
    </g>
    <g
       id="g38632"
       clip-path="url(#id149)"
       transform="matrix(1,0,0,-1,-49.874766,1247.5965)">
      <g
         id="g38634"
         transform="matrix(0.6000061,0,0,-0.5899963,-6.0236206,289.47241)">
        <path
           id="path38636"
           d="M 888.59,-279.884 L 888.539,-279.884 L 888.539,-279.872 L 888.59,-279.872 L 888.59,-279.884 z "
           style="fill:#aa1015;fill-rule:nonzero;stroke:none" />
      </g>
      <g
         id="g38638"
         transform="matrix(0.6000061,0,0,-0.5899963,-6.0236206,289.47241)">
        <g
           id="g38640"
           transform="translate(888.5387,-279.7807)">
          <path
             id="path38642"
             d="M 0,0 L 0,0.016 L 0.013,0.005 L 0.051,-0.023 L 0.051,-0.037 L 0,0 z "
             style="fill:#aa1015;fill-rule:nonzero;stroke:none" />
        </g>
      </g>
      <g
         id="g38644"
         transform="matrix(0.6000061,0,0,-0.5899963,-6.0236206,289.47241)">
        <g
           id="g38646"
           transform="translate(888.5387,-274.3822)">
          <path
             id="path38648"
             d="M 0,0 L 0,0.017 L 0.009,0.023 L 0.051,0.058 L 0.051,0.04 L 0.047,0.036 L 0,0 z "
             style="fill:#aa1015;fill-rule:nonzero;stroke:none" />
        </g>
      </g>
      <g
         id="g38650"
         transform="matrix(0.6000061,0,0,-0.5899963,-6.0236206,289.47241)">
        <path
           id="path38652"
           d="M 888.539,-274.257 L 888.59,-274.257 L 888.59,-274.27 L 888.539,-274.27 L 888.539,-274.257 z "
           style="fill:#aa1015;fill-rule:nonzero;stroke:none" />
      </g>
    </g>
    <g
       id="g40444"
       clip-path="url(#id150)"
       transform="matrix(1,0,0,-1,-49.874766,1247.5965)">
      <g
         id="g40446"
         transform="matrix(0.6000061,0,0,-0.5899963,-6.0236206,289.47241)">
        <g
           id="g40448"
           transform="translate(888.5387,-279.7963)">
          <path
             id="path40450"
             d="M 0,0 L 0,0.016 L 0.051,-0.021 L 0.051,-0.037 L 0,0 z "
             style="fill:#a91115;fill-rule:nonzero;stroke:none" />
        </g>
      </g>
      <g
         id="g40452"
         transform="matrix(0.6000061,0,0,-0.5899963,-6.0236206,289.47241)">
        <g
           id="g40454"
           transform="translate(888.5895,-274.307)">
          <path
             id="path40456"
             d="M 0,0 L 0,-0.018 L -0.042,-0.052 L -0.051,-0.059 L -0.051,-0.042 L 0,0 z "
             style="fill:#a91115;fill-rule:nonzero;stroke:none" />
        </g>
      </g>
      <g
         id="g40458"
         transform="matrix(0.6000061,0,0,-0.5899963,-6.0236206,289.47241)">
        <path
           id="path40460"
           d="M 888.539,-274.27 L 888.59,-274.27 L 888.59,-274.283 L 888.539,-274.283 L 888.539,-274.27 z "
           style="fill:#a91115;fill-rule:nonzero;stroke:none" />
      </g>
      <g
         id="g40462"
         transform="matrix(0.6000061,0,0,-0.5899963,-6.0236206,289.47241)">
        <path
           id="path40464"
           d="M 888.59,-279.872 L 888.539,-279.872 L 888.539,-279.858 L 888.59,-279.858 L 888.59,-279.872 z "
           style="fill:#a91115;fill-rule:nonzero;stroke:none" />
      </g>
    </g>
    <g
       id="g41932"
       clip-path="url(#id151)"
       transform="matrix(1,0,0,-1,-49.874766,1247.5965)">
      <g
         id="g41934"
         transform="matrix(0.6000061,0,0,-0.5899963,-6.0236206,289.47241)">
        <g
           id="g41936"
           transform="translate(888.5856,-279.8461)">
          <path
             id="path41938"
             d="M 0,0 L -0.047,0.035 L -0.047,0.05 L 0.004,0.013 L 0.004,-0.013 L -0.047,-0.013 L -0.047,0 L 0,0 z "
             style="fill:#a81116;fill-rule:nonzero;stroke:none" />
        </g>
      </g>
      <g
         id="g41940"
         transform="matrix(0.6000061,0,0,-0.5899963,-6.0236206,289.47241)">
        <g
           id="g41942"
           transform="translate(888.5836,-274.2953)">
          <path
             id="path41944"
             d="M 0,0 L -0.045,0 L -0.045,0.013 L 0.006,0.013 L 0.006,-0.012 L -0.045,-0.054 L -0.045,-0.035 L 0,0 z "
             style="fill:#a81116;fill-rule:nonzero;stroke:none" />
        </g>
      </g>
    </g>
    <g
       id="g42950"
       clip-path="url(#id152)"
       transform="matrix(1,0,0,-1,-49.874766,1247.5965)">
      <g
         id="g42952"
         transform="matrix(0.6000061,0,0,-0.5899963,-6.0236206,289.47241)">
        <g
           id="g42954"
           transform="translate(888.5475,-279.8334)">
          <path
             id="path42956"
             d="M 0,0 L -0.009,0.007 L -0.009,0.022 L 0.038,-0.013 L -0.009,-0.013 L -0.009,0 L 0,0 z "
             style="fill:#a61116;fill-rule:nonzero;stroke:none" />
        </g>
      </g>
      <g
         id="g42958"
         transform="matrix(0.6000061,0,0,-0.5899963,-6.0236206,289.47241)">
        <g
           id="g42960"
           transform="translate(888.5456,-274.308)">
          <path
             id="path42962"
             d="M 0,0 L -0.007,0 L -0.007,0.013 L 0.038,0.013 L -0.007,-0.022 L -0.007,-0.007 L 0,0 z "
             style="fill:#a61116;fill-rule:nonzero;stroke:none" />
        </g>
      </g>
    </g>
    <g
       id="g43552"
       clip-path="url(#id153)"
       transform="matrix(1,0,0,-1,-49.874766,1247.5965)">
      <g
         id="g43554"
         transform="matrix(0.6000061,0,0,-0.5899963,-6.0236206,289.47241)">
        <g
           id="g43556"
           transform="translate(888.5456,-274.308)">
          <path
             id="path43558"
             d="M 0,0 L -0.007,-0.007 L -0.007,0 L 0,0 z "
             style="fill:#a51116;fill-rule:nonzero;stroke:none" />
        </g>
      </g>
      <g
         id="g43560"
         transform="matrix(0.6000061,0,0,-0.5899963,-6.0236206,289.47241)">
        <g
           id="g43562"
           transform="translate(888.5475,-279.8334)">
          <path
             id="path43564"
             d="M 0,0 L -0.009,0 L -0.009,0.007 L 0,0 z "
             style="fill:#a51116;fill-rule:nonzero;stroke:none" />
        </g>
      </g>
    </g>
    <g
       id="g55472"
       clip-path="url(#id313)"
       transform="matrix(1,0,0,-1,-49.874766,1247.5965)">
      <path
         id="path55474"
         d="M 352.682,350.98 L 352.708,350.98 L 352.708,354.953 L 352.682,354.953 L 352.682,350.98 z "
         style="fill:#ed1c24;fill-rule:nonzero;stroke:none" />
    </g>
    <g
       id="g56536"
       clip-path="url(#id314)"
       transform="matrix(1,0,0,-1,-49.874766,1247.5965)">
      <path
         id="path56538"
         d="M 356.665,350.98 L 356.696,350.98 L 356.696,351.176 L 356.665,351.176 L 356.665,350.98 z "
         style="fill:#ad1015;fill-rule:nonzero;stroke:none" />
    </g>
    <g
       id="g62150"
       clip-path="url(#id348)"
       transform="matrix(1,0,0,-1,-49.874766,1247.5965)">
      <path
         id="path62152"
         d="M 352.682,350.98 L 352.708,350.98 L 352.708,354.953 L 352.682,354.953 L 352.682,350.98 z "
         style="fill:#ed1c24;fill-rule:nonzero;stroke:none" />
    </g>
    <g
       id="g63214"
       clip-path="url(#id349)"
       transform="matrix(1,0,0,-1,-49.874766,1247.5965)">
      <path
         id="path63216"
         d="M 356.665,350.98 L 356.696,350.98 L 356.696,351.176 L 356.665,351.176 L 356.665,350.98 z "
         style="fill:#ad1015;fill-rule:nonzero;stroke:none" />
    </g>
    <g
       transform="matrix(1,0,0,-1,228.60983,857.62274)"
       id="g68940">
      <path
         style="fill:#050606;fill-rule:nonzero;stroke:none"
         d="M 0,0 L -0.376,0"
         id="path68942" />
    </g>
    <g
       transform="matrix(1,0,0,-1,233.40993,857.62274)"
       id="g68948">
      <path
         style="fill:#050606;fill-rule:nonzero;stroke:none"
         d="M 0,0 L -0.376,0"
         id="path68950" />
    </g>
    <g
       transform="matrix(1,0,0,-1,491.43013,900.34814)"
       id="g70384">
      <path
         style="fill:#ffffff;fill-rule:nonzero;stroke:none"
         d="M 0,0 L 9.029,0 L 0,0 z "
         id="path70386" />
    </g>
    <g
       transform="matrix(1,0,0,-1,397.52783,933.48174)"
       id="g70508">
      <path
         style="fill:#000000;fill-rule:nonzero;stroke:none"
         d="M 0,0 L -0.215,0"
         id="path70510" />
    </g>
    <g
       transform="matrix(1,0,0,-1,400.28163,933.48174)"
       id="g70512">
      <path
         style="fill:#000000;fill-rule:nonzero;stroke:none"
         d="M 0,0 L -0.215,0"
         id="path70514" />
    </g>
    <g
       transform="matrix(27.031108,0,0,-27.031108,44.400179,841.30737)"
       id="g76208"
       style="fill:#e40020;fill-opacity:1">
      <path
         inkscape:connector-curvature="0"
         style="fill:#e40020;fill-rule:nonzero;stroke:none;fill-opacity:1"
         d="m 0,0 c 0,-3.657 2.908,-6.622 6.492,-6.622 3.586,0 6.493,2.965 6.493,6.622 0,3.658 -2.907,6.622 -6.493,6.622 C 2.908,6.622 0,3.658 0,0"
         id="path76210" />
    </g>
    <g
       transform="matrix(27.031108,0,0,-27.031108,119.81967,845.75669)"
       id="g76212">
      <path
         inkscape:connector-curvature="0"
         style="fill:#ffffff;fill-rule:nonzero;stroke:none"
         d="m 0,0 c -0.15,-0.116 -0.362,-0.145 -0.644,-0.184 -0.392,-0.054 -0.591,-0.131 -0.591,-0.431 0,-0.213 0.179,-0.377 0.45,-0.377 C -0.3,-0.992 0,-0.741 0,-0.373 L 0,0 z m -0.789,-1.303 c -0.524,0 -0.799,0.257 -0.799,0.707 0,0.441 0.257,0.62 0.795,0.697 0.531,0.078 0.768,0.097 0.768,0.412 0,0.252 -0.187,0.401 -0.513,0.401 -0.295,0 -0.494,-0.12 -0.494,-0.207 0,-0.049 0.112,-0.102 0.112,-0.219 0,-0.125 -0.101,-0.222 -0.242,-0.222 -0.175,0 -0.285,0.122 -0.285,0.324 0,0.349 0.353,0.615 0.958,0.615 0.61,0 0.842,-0.252 0.842,-0.828 l 0,-1.094 c 0,-0.184 0.02,-0.261 0.15,-0.261 0.126,0 0.171,0.077 0.17,0.242 l 0.001,0.084 c 0,0.136 0.038,0.187 0.135,0.187 0.106,0 0.146,-0.044 0.146,-0.194 l 0,-0.203 c 0,-0.276 -0.185,-0.436 -0.491,-0.436 -0.252,0 -0.396,0.131 -0.406,0.363 -0.189,-0.241 -0.474,-0.368 -0.847,-0.368"
         id="path76214" />
    </g>
    <g
       transform="matrix(27.031108,0,0,-27.031108,163.78847,812.64628)"
       id="g76216">
      <path
         inkscape:connector-curvature="0"
         style="fill:#ffffff;fill-rule:nonzero;stroke:none"
         d="m 0,0 0,0.038 c 0,0.33 -0.014,0.439 -0.252,0.439 l -0.176,0 c -0.111,0 -0.149,0.05 -0.149,0.157 0,0.092 0.052,0.151 0.173,0.151 l 0.238,0 0.38,0 c 0.145,0 0.154,-0.054 0.154,-0.199 l 0,-2.431 c 0,-0.271 0.024,-0.334 0.228,-0.334 0.053,0 0.092,0.005 0.126,0.005 0.135,0 0.203,-0.048 0.203,-0.155 0,-0.106 -0.054,-0.138 -0.186,-0.138 l -0.529,0 -0.597,0 c -0.13,0 -0.184,0.032 -0.184,0.138 0,0.107 0.067,0.155 0.203,0.155 0.049,0 0.092,-0.005 0.135,-0.005 0.208,0 0.233,0.063 0.233,0.334 L 0,0 z"
         id="path76218" />
    </g>
    <g
       transform="matrix(27.031108,0,0,-27.031108,210.3847,795.50315)"
       id="g76220">
      <path
         inkscape:connector-curvature="0"
         style="fill:#ffffff;fill-rule:nonzero;stroke:none"
         d="m 0,0 c 0.145,0 0.256,-0.116 0.256,-0.262 0,-0.14 -0.116,-0.256 -0.256,-0.256 -0.146,0 -0.262,0.111 -0.262,0.256 C -0.262,-0.116 -0.151,0 0,0 m -0.116,-1.515 c 0,0.377 -0.021,0.487 -0.248,0.487 -0.082,0 -0.093,-0.006 -0.183,0 -0.037,0.003 -0.144,0.055 -0.145,0.146 -0.005,0.193 0.063,0.22 0.164,0.22 l 0.279,0 0.331,0 c 0.145,0 0.17,-0.113 0.17,-0.263 l 0,-1.554 c 0,-0.276 0.029,-0.334 0.227,-0.334 0.053,0 0.092,0.005 0.126,0.005 0.135,0 0.204,-0.049 0.204,-0.155 0,-0.107 -0.062,-0.138 -0.193,-0.138 l -0.528,0 -0.599,0 c -0.13,0 -0.177,0.031 -0.177,0.138 0,0.106 0.068,0.155 0.203,0.155 0.049,0 0.092,-0.005 0.136,-0.005 0.209,0 0.233,0.063 0.233,0.334 l 0,0.964 z"
         id="path76222" />
    </g>
    <g
       transform="matrix(27.031108,0,0,-27.031108,253.82909,851.91167)"
       id="g76224">
      <path
         inkscape:connector-curvature="0"
         style="fill:#ffffff;fill-rule:nonzero;stroke:none"
         d="m 0,0 c 0,-0.509 0.193,-0.755 0.658,-0.755 0.494,0 0.78,0.339 0.78,0.939 0,0.591 -0.305,0.934 -0.746,0.934 C 0.28,1.118 0,0.827 0,0.305 L 0,0 z m -0.204,-1.046 c -0.125,0 -0.164,0.043 -0.164,0.16 0,0.048 0.009,0.116 0.009,0.209 l 0,2.284 c 0,0.257 -0.008,0.323 -0.255,0.323 -0.048,0 -0.094,0.002 -0.137,0.002 -0.145,0 -0.214,-0.026 -0.218,0.16 -0.001,0.096 0.063,0.145 0.188,0.145 0.088,0 0.183,0 0.305,0 l 0.328,0 c 0.129,0 0.186,-0.063 0.186,-0.223 0,-0.102 -0.004,-0.238 -0.009,-0.407 L 0.009,1.055 c 0.165,0.257 0.403,0.388 0.751,0.388 0.639,0 1.069,-0.505 1.069,-1.255 0,-0.793 -0.425,-1.253 -1.113,-1.253 -0.281,0 -0.518,0.092 -0.697,0.266 l 0,-0.043 c 0,-0.184 -0.029,-0.204 -0.223,-0.204"
         id="path76226" />
    </g>
    <g
       transform="matrix(27.031108,0,0,-27.031108,325.10472,836.08766)"
       id="g76228">
      <path
         inkscape:connector-curvature="0"
         style="fill:#ffffff;fill-rule:nonzero;stroke:none"
         d="m 0,0 c 0,0.377 -0.012,0.488 -0.239,0.488 l -0.17,0 c -0.036,0 -0.161,0.037 -0.168,0.146 -0.01,0.161 0.065,0.219 0.165,0.219 l 0.279,0 0.331,0 c 0.145,0 0.169,-0.113 0.169,-0.262 l 0,-1.555 c 0,-0.275 0.03,-0.334 0.228,-0.334 0.053,0 0.093,0.006 0.126,0.006 0.135,0 0.204,-0.049 0.204,-0.156 0,-0.106 -0.068,-0.152 -0.199,-0.152 l -0.52,0 -0.594,0 c -0.132,0 -0.184,0.046 -0.184,0.152 0,0.107 0.068,0.156 0.204,0.156 0.048,0 0.091,-0.006 0.135,-0.006 0.208,0 0.233,0.063 0.233,0.334 L 0,0 z"
         id="path76230" />
    </g>
    <g
       transform="matrix(27.031108,0,0,-27.031108,328.63498,788.96163)"
       id="g76232"
       style="fill:#000000">
      <path
         inkscape:connector-curvature="0"
         style="fill:#000000;fill-rule:nonzero;stroke:none"
         d="m 0,0 c 0.163,0 0.287,-0.13 0.287,-0.292 0,-0.157 -0.129,-0.286 -0.287,-0.286 -0.163,0 -0.291,0.124 -0.291,0.286 C -0.291,-0.13 -0.166,0 0,0"
         id="path76234" />
    </g>
    <g
       style="font-size:117.97356415000000000px;font-style:normal;font-variant:normal;font-weight:bold;font-stretch:normal;line-height:125%;letter-spacing:0px;word-spacing:0px;fill:#ffffff;fill-opacity:1;stroke:none;font-family:Arial;-inkscape-font-specification:Sans Bold"
       id="text3927">
      <path
         d="m 150.13735,978.20319 0,-84.44788 17.05086,0 0,33.23767 33.41048,0 0,-33.23767 17.05087,0 0,84.44788 -17.05087,0 0,-36.92435 -33.41048,0 0,36.92435 z"
         style="fill:#ffffff"
         id="path3144" />
      <path
         d="m 235.27647,893.75531 31.16392,0 c 7.02767,9e-5 12.38486,0.53773 16.07159,1.61292 4.95391,1.45939 9.19742,4.05158 12.73055,7.77658 3.53299,3.72515 6.22118,8.28548 8.06459,13.68102 1.84326,5.39565 2.76493,12.04894 2.76501,19.95988 -8e-5,6.95095 -0.86414,12.94179 -2.59219,17.97253 -2.11223,6.14448 -5.12685,11.11764 -9.04387,14.91951 -2.95709,2.88022 -6.95098,5.12679 -11.98169,6.7397 -3.76354,1.19049 -8.7943,1.78574 -15.09233,1.78574 l -32.08558,0 z m 17.05087,14.28586 0,55.93376 12.73054,0 c 4.76191,10e-6 8.19897,-0.26881 10.31117,-0.80646 2.76495,-0.69124 5.05952,-1.86252 6.88371,-3.51386 1.82408,-1.6513 3.31219,-4.3683 4.46433,-8.15101 1.15203,-3.78265 1.72807,-8.93823 1.72813,-15.46675 -6e-5,-6.52843 -0.5761,-11.54 -1.72813,-15.03471 -1.15214,-3.4946 -2.76506,-6.2212 -4.83876,-8.17981 -2.0738,-1.95848 -4.7044,-3.28338 -7.89178,-3.9747 -2.38103,-0.53757 -7.04697,-0.80639 -13.99784,-0.80646 z"
         style="fill:#ffffff"
         id="path3146" />
    </g>
  </g>
</svg>
