<?xml version="1.0" encoding="UTF-8" standalone="no"?>
<!-- Created with Inkscape (http://www.inkscape.org/) -->

<svg
   xmlns:dc="http://purl.org/dc/elements/1.1/"
   xmlns:cc="http://creativecommons.org/ns#"
   xmlns:rdf="http://www.w3.org/1999/02/22-rdf-syntax-ns#"
   xmlns:svg="http://www.w3.org/2000/svg"
   xmlns="http://www.w3.org/2000/svg"
   xmlns:sodipodi="http://sodipodi.sourceforge.net/DTD/sodipodi-0.dtd"
   xmlns:inkscape="http://www.inkscape.org/namespaces/inkscape"
   version="1.0"
   width="526.55591"
   height="258.01855"
   id="svg2682"
   inkscape:version="0.48.4 r9939"
   sodipodi:docname="tv.animalplanet.svg">
  <metadata
     id="metadata21">
    <rdf:RDF>
      <cc:Work
         rdf:about="">
        <dc:format>image/svg+xml</dc:format>
        <dc:type
           rdf:resource="http://purl.org/dc/dcmitype/StillImage" />
      </cc:Work>
    </rdf:RDF>
  </metadata>
  <sodipodi:namedview
     pagecolor="#ffffff"
     bordercolor="#666666"
     borderopacity="1"
     objecttolerance="10"
     gridtolerance="10"
     guidetolerance="10"
     inkscape:pageopacity="0"
     inkscape:pageshadow="2"
     inkscape:window-width="1600"
     inkscape:window-height="837"
     id="namedview19"
     showgrid="false"
     inkscape:zoom="1.896161"
     inkscape:cx="263.27795"
     inkscape:cy="127.96676"
     inkscape:window-x="-8"
     inkscape:window-y="-8"
     inkscape:window-maximized="1"
     inkscape:current-layer="svg2682" />
  <defs
     id="defs2684" />
  <path
     inkscape:connector-curvature="0"
     style="fill:#2c7c41;fill-opacity:1;fill-rule:nonzero"
     id="path4196"
     d="m 201.85641,258.01857 50.6271,0 0,-21.7044 -23.62611,0 0,-78.74647 -27.00099,0 0,100.45087 z" />
  <path
     inkscape:connector-curvature="0"
     style="fill:#2c7c41;fill-opacity:1;fill-rule:nonzero"
     id="path4194"
     d="m 330.01772,258.01857 23.98068,0 0,-47.14504 26.50652,47.14504 22.14451,0 0,-100.3721 -23.85837,0 0,48.07746 -25.54102,-48.07746 -23.23232,0 0,100.3721 z" />
  <path
     inkscape:connector-curvature="0"
     style="fill:#2c7c41;fill-opacity:1;fill-rule:nonzero"
     id="path4192"
     d="m 408.39234,258.01857 53.73946,0 0,-21.02367 -26.84781,0 0,-20.84669 25.55647,0 0,-19.07817 -25.55647,0 0,-19.29499 26.16709,0 0,-20.12858 -53.05874,0 0,100.3721 0,0 z" />
  <path
     inkscape:connector-curvature="0"
     style="fill:#2c7c41;fill-opacity:1;fill-rule:nonzero"
     id="path4190"
     d="m 484.02675,258.01857 26.8543,0 0,-80.24352 15.67486,0 0,-20.12858 -60.29437,0 0,20.12858 17.76521,0 0,80.24352 z" />
  <path
     inkscape:connector-curvature="0"
     style="fill:#37a73e;fill-opacity:1;fill-rule:nonzero"
     id="path4188"
     d="m 526.55591,150.48095 0,-29.53981 -26.05126,0 0,-120.94113982565211 -33.91047,0 0,150.48094982565211 59.96173,0 0,0 z" />
  <path
     inkscape:connector-curvature="0"
     style="fill:#2c7c41;fill-opacity:1;fill-rule:nonzero"
     id="path4186"
     d="m 274.28674,157.5677 -18.39096,100.44222 25.63306,0 1.7225,-13.84303 13.6503,0 1.78397,13.84303 27.27001,0 -18.4762,-100.44222 -33.19268,0 0,0 z m 11.38946,67.20352 4.2854,-34.40494 4.4386,34.40494 -8.724,0 z" />
  <path
     inkscape:connector-curvature="0"
     style="fill:#2c7c41;fill-opacity:1;fill-rule:nonzero"
     id="path4184"
     d="m 171.42801,198.82095 c 0,2.88906 -1.74411,4.02257 -4.61558,4.02257 l -4.31597,0 0,-24.86925 4.31597,0 c 2.87147,0 4.61558,1.13598 4.61558,4.02257 l 0,16.82411 z m -35.78616,59.19762 26.85461,0 0,-34.83827 9.05634,0 c 12.86271,0 24.98539,-8.03681 24.98539,-20.8467 l 0,-23.8559 c 0,-12.67862 -12.12268,-20.83123 -24.98539,-20.83123 l -35.91095,0 0,100.3721 z" />
  <path
     inkscape:connector-curvature="0"
     style="fill:#37a73e;fill-opacity:1;fill-rule:nonzero"
     id="path4182"
     d="M 219.04375,150.49608 219.02837,1.7434798e-7 l -40.4107,0 L 178.62467,150.49608 l 40.41933,0 0,0 z" />
  <path
     inkscape:connector-curvature="0"
     style="fill:#37a73e;fill-opacity:1;fill-rule:nonzero"
     id="path4180"
     d="m 54.827265,171.96882 9.66479,-84.822326 6.456373,84.828816 -16.121163,-0.007 z M 0,258.01857 l 45.794709,0 4.823746,-40.24206 23.23231,0 3.221389,40.24206 53.527276,0 L 95.763017,1.7434798e-7 l -61.605157,0 L 0,258.01857 l 0,0 z" />
  <path
     inkscape:connector-curvature="0"
     style="fill:#37a73e;fill-opacity:1;fill-rule:nonzero"
     id="path4178"
     d="m 136.36861,150.49608 -0.009,-82.290006 18.08211,82.290006 14.67692,0 0,-150.49607982565203 -14.49965,0 L 154.61899,83.463049 139.56369,1.7434797e-7 l -17.89649,0 L 121.6827,150.49608 l 14.68558,0 0,0 z" />
  <path
     inkscape:connector-curvature="0"
     style="fill:#37a73e;fill-opacity:1;fill-rule:nonzero"
     id="path4174"
     d="m 431.20862,123.19518 11.23409,0 1.66784,27.3009 17.71919,0 L 447.63863,1.7434798e-7 l -20.09802,0 L 413.18766,150.49608 l 15.97477,0 2.04619,-27.3009 z m 6.02952,-82.815063 3.90026,63.782913 -8.42411,0 4.52385,-63.782913 0,0 z" />
  <path
     inkscape:connector-curvature="0"
     style="fill:#aac951;fill-opacity:1;fill-rule:nonzero"
     id="path4172"
     d="m 519.25913,115.65997 0,-6.42363 -0.0396,0 -2.52552,6.42363 -0.7947,0 -2.52553,-6.42363 -0.0306,0 0,6.42363 -1.26508,0 0,-7.69088 1.95229,0 2.29358,5.8436 2.25436,-5.8436 1.94581,0 0,7.69088 -1.26508,0 z" />
  <path
     inkscape:connector-curvature="0"
     style="fill:#aac951;fill-opacity:1;fill-rule:nonzero"
     id="path295"
     d="m 508.10133,108.99542 0,6.66455 -1.27374,0 0,-6.66455 -2.40075,0 0,-1.02633 6.07555,0 0,1.02633 -2.40106,0 0,0 z" />
  <path
     inkscape:connector-curvature="0"
     style="fill:#80cb28;fill-opacity:1;fill-rule:nonzero"
     id="polygon297"
     d="m 326.07175,76.269126 82.31379,-14.795233 0,0 0,-61.47389262304 -180.41548,0 0,36.39677262304 115.02712,0.0086 -115.03577,22.560544 0.009,26.328923 114.78621,25.077122 -114.78621,0 0,40.12623 180.41548,0 0,-58.440594 z" />
</svg>
