<?xml version="1.0" encoding="utf-8"?>
<!-- Generator: Adobe Illustrator 13.0.0, SVG Export Plug-In . SVG Version: 6.00 Build 14948)  -->
<!DOCTYPE svg PUBLIC "-//W3C//DTD SVG 1.1//EN" "http://www.w3.org/Graphics/SVG/1.1/DTD/svg11.dtd">
<svg version="1.1" id="Layer_1" xmlns="http://www.w3.org/2000/svg" xmlns:xlink="http://www.w3.org/1999/xlink" x="0px" y="0px"
	 width="761.003px" height="558.63px" viewBox="0 0 761.003 558.63" enable-background="new 0 0 761.003 558.63"
	 xml:space="preserve">
<g>
	<g>
		<path fill="#96D450" d="M49.1,0.04c29.55-0.02,59.1-0.09,88.65,0.03c16.64,123.79,33.48,247.55,50.08,371.35
			c-25.62,0.01-51.24-0.03-76.85,0.02c-1.98-19.32-2.97-38.73-4.93-58.04c-11.04,0.01-22.09,0.03-33.14-0.01
			c-2.7,19.3-4.63,38.7-7.15,58.03c-21.92-0.01-43.84-0.02-65.76,0.01c5.03-39.89,10.53-79.73,15.73-119.6
			C26.86,167.9,37.92,83.96,49.1,0.04z M92.51,126.62c-4.34,40.3-9.34,80.54-13.56,120.86c7.66,0.02,15.32-0.01,22.99,0.01
			c-2.62-36.92-5.61-73.82-8.34-110.74C93.35,133.36,93.07,129.97,92.51,126.62z"/>
	</g>
	<path fill="#96D450" d="M175.02,0.01c8.59,0.03,17.17-0.05,25.76,0.05c6.45,35.82,12.92,71.64,19.38,107.46
		c0.68,3.86,1.3,7.73,2.33,11.51c0-39.68-0.12-79.35,0.06-119.03c6.89,0.03,13.78-0.01,20.67,0.03
		c0.07,72.19,0.17,144.39-0.05,216.58c-6.98,0.01-13.96,0-20.93,0c-7.74-34.73-15.29-69.5-22.95-104.25
		c-0.96-4.27-1.74-8.58-3.03-12.77c-0.3,39,0.1,78.01-0.2,117.02c-7,0.01-13.99-0.01-20.99,0.01
		C175.01,144.42,174.97,72.21,175.02,0.01z"/>
	<path fill="#96D450" d="M257.02,0.01c19.34,0.02,38.67-0.02,58.01,0.02c0.21,57.62-0.04,115.24,0.13,172.86
		c-0.06,14.57,0.13,29.14-0.1,43.72c-19.34,0.01-38.68-0.03-58.02,0.02C256.94,144.42,256.98,72.22,257.02,0.01z"/>
	<path fill="#96D450" d="M328.02,0.01c86.55,0.03,173.09-0.05,259.63,0.04c-0.06,29.48,0.05,58.95-0.05,88.42
		c-39.27,7.1-78.56,14.06-117.81,21.22c39.17,7.97,78.52,15.14,117.76,22.79c0.2,28.03,0.02,56.06,0.09,84.09
		c-86.53,0.09-173.06-0.01-259.6,0.06c-0.11-19.25-0.04-38.51-0.03-57.76c40.33-0.07,80.65-0.01,120.98-0.03
		c14.12-0.12,28.25,0.25,42.36-0.2c-18.76-4.58-37.72-8.32-56.57-12.56c-35.58-7.78-71.17-15.54-106.76-23.31
		c-0.08-12.61,0-25.23-0.04-37.85c37.94-7.58,75.93-14.92,113.89-22.38c16.76-3.43,33.63-6.33,50.31-10.1
		c-54.73-0.1-109.46,0.07-164.19-0.09C328,34.9,327.95,17.46,328.02,0.01z"/>
	<g>
		<path fill="#96D450" d="M615.17,0.06c9.63-0.08,19.26-0.06,28.89-0.01c6.83,71.29,13.46,142.59,20.24,213.89
			c-0.13,0.64-0.38,1.94-0.51,2.58c-8.22,0.26-16.46-0.02-24.69,0.11c-0.95-13.11-1.6-26.24-2.49-39.35
			c-5.39-0.01-10.77-0.02-16.15,0.01c-1,13.09-1.96,26.19-2.92,39.29c-7.6,0.08-15.2-0.03-22.8,0.08
			c0.97-15.62,2.89-31.17,4.24-46.76C604.37,113.28,609.8,56.67,615.17,0.06z M628.36,68.79c-1.83,27.03-3.91,54.04-5.67,81.07
			c3.99,0.03,7.98,0.04,11.98,0.02c-1.48-30.06-3.91-60.08-5.23-90.15C628.89,62.72,628.54,65.75,628.36,68.79z"/>
	</g>
	<path fill="#96D450" d="M671.38,0.06c16.24-0.09,32.48-0.04,48.72-0.02c0.15,57.99,0,115.98,0.08,173.98
		c13.59,0.14,27.18,0.02,40.77,0.05c0.05,14.17,0.1,28.34-0.03,42.5c-29.84-0.08-59.68,0.03-89.53-0.05
		C671.39,144.36,671.43,72.21,671.38,0.06z"/>
	<g>
		<path fill="#96D450" d="M195.11,226.91c16.96-0.07,33.92,0,50.89-0.04c8.45-0.1,17.02,2.12,24.02,6.93
			c7.33,4.89,12.52,13.17,12.67,22.1c0.14,11.68,0.05,23.37,0.04,35.05c0.02,6.31-2.13,12.63-6.22,17.47
			c-6.06,7.29-15.31,11.35-24.59,12.45c-6,0.58-12.03,0.27-18.03,0.33c-0.35,16.74,0.01,33.49-0.18,50.23
			c-12.85-0.02-25.7-0.05-38.54,0.02C195.03,323.27,195.15,275.09,195.11,226.91z M233.85,256.13c-0.2,11.92-0.09,23.84-0.06,35.77
			c3.42-0.14,7.11,0.6,10.33-0.87c3.23-1.79,2.37-6.04,2.55-9.11c-0.32-7.45,0.54-14.98-0.45-22.38
			C244.25,254.7,237.92,256.49,233.85,256.13z"/>
	</g>
	<path fill="#96D450" d="M290.37,226.92c12.93-0.37,25.87-0.11,38.8-0.14c0.14,37.73,0,75.47,0.07,113.21
		c11.3,0.22,22.61,0.01,33.91,0.1c0.14,10.4,0.09,20.79,0.03,31.19c-23.08,0.16-46.16-0.01-69.24,0.09
		c-1.21-0.16-3.85,0.45-3.52-1.61C290.36,322.15,290.45,274.53,290.37,226.92z"/>
	<g>
		<path fill="#96D450" d="M394.76,226.75c15.91,0.13,31.84-0.29,47.74,0.22c8.68,48.12,17.76,96.16,26.44,144.28
			c-12.87-0.03-25.77,0.22-38.63-0.1l-0.55-0.59c-1.2-6.34-1.46-12.84-2.72-19.17c-6.44,0.03-12.87,0.05-19.3-0.02
			c-1.28,6.57-1.68,13.26-2.72,19.87c-12.24,0.07-24.49,0.06-36.74,0.01C376.95,323.05,385.73,274.87,394.76,226.75z M411.08,323.48
			c4.17,0.01,8.34,0.01,12.51-0.02c-2.07-16.25-4.28-32.48-6.24-48.74C414.79,290.9,413.15,307.23,411.08,323.48z"/>
	</g>
	<path fill="#96D450" d="M474.91,226.91c10.05-0.07,20.1-0.01,30.16-0.05c1.2,0.23,3.16-0.36,3.78,1.08
		c12.06,22.45,23.69,45.16,36.05,67.46c0.3-22.83,0.03-45.67,0.13-68.5c11.42-0.04,22.84-0.04,34.26,0
		c0.11,30.33,0.02,60.65,0.05,90.98c-0.13,17.86,0.27,35.72-0.2,53.57c-10.54-0.11-21.07,0.05-31.6-0.09
		c-12.75-22.52-25.27-45.18-38.16-67.62c-0.23,22.57,0.26,45.15-0.25,67.71c-11.36-0.06-22.72-0.05-34.07,0
		C474.65,323.28,474.95,275.09,474.91,226.91z"/>
	<path fill="#96D450" d="M587.69,226.9c25.43-0.04,50.86-0.02,76.29-0.01c0.01,9.65,0.03,19.3-0.01,28.94
		c-12.56,0.09-25.11-0.14-37.66,0.12c0.05,9.21,0.02,18.42,0.02,27.63c12.24,0.11,24.49-0.06,36.73,0.08
		c0.08,9.12,0.08,18.25,0,27.37c-12.24,0.14-24.48-0.04-36.73,0.09c0.01,9.94,0.01,19.88,0,29.82c12.87,0.32,25.74,0.06,38.62,0.13
		c0.04,10.13,0.13,20.26-0.05,30.39c-25.69-0.08-51.37-0.07-77.06-0.01c-0.47-17.51-0.07-35.05-0.2-52.57
		C587.67,288.22,587.58,257.56,587.69,226.9z"/>
	<path fill="#96D450" d="M670.91,226.91c29.9-0.02,59.8-0.12,89.71,0.05c-0.07,9.6-0.05,19.2-0.01,28.8c-8.5,0.2-17-0.04-25.5,0.14
		c-0.13,38.52,0.24,77.04-0.18,115.55c-12.83-0.08-25.64-0.01-38.46-0.04c-0.05-38.51,0.08-77.03-0.06-115.54
		c-8.5-0.09-17,0.03-25.49-0.06C670.83,246.18,670.85,236.54,670.91,226.91z"/>
</g>
<g>
	<path fill="#96D450" d="M430.03,406.91c18.77-0.06,37.54-0.05,56.32,0c0.27,18.64,0.08,37.29,0.08,55.94
		c12.69,0.49,25.43,0.49,38.12,0c0-18.64-0.19-37.3,0.08-55.94c18.77-0.05,37.55-0.06,56.33,0c0.01,50.57,0.13,101.15-0.06,151.72
		c-18.72-0.02-37.45-0.02-56.17,0c-0.51-17.56-0.11-35.15-0.18-52.72c-12.69-0.49-25.43-0.49-38.12,0
		c-0.07,17.57,0.33,35.16-0.18,52.72c-18.72-0.02-37.45-0.01-56.17,0C429.89,508.06,430,457.48,430.03,406.91z"/>
	<g>
		<path fill="#96D450" d="M594.82,406.93c17.39-0.13,34.78-0.01,52.17-0.05c18.16,0.15,36.66-0.98,54.42,3.59
			c14.95,3.81,28.08,13.59,36.54,26.42c11.69,17.32,15.25,39.32,11.87,59.75c-2.95,17.76-11.41,35.03-25.41,46.64
			c-12.55,10.59-29.19,15.17-45.38,15.35c-28.04-0.04-56.08,0.02-84.12-0.02c-0.42-23.91-0.05-47.82-0.17-71.73
			C594.8,460.23,594.61,433.58,594.82,406.93z M656.02,452.5c-0.06,20.6-0.05,41.19,0,61.79c7.06,0.28,14.91,0.02,20.52-4.87
			c8.95-7.88,11.63-20.79,10.12-32.21c-1.19-8.11-4.41-16.74-11.49-21.48C669.55,451.97,662.48,452.22,656.02,452.5z"/>
	</g>
</g>
<text transform="matrix(1 0 0 1 723.99 182.3799)" fill="#96D450" font-family="'MyriadPro-Regular'" font-size="40">™</text>
</svg>
