<?xml version="1.0" encoding="UTF-8" standalone="no"?>
<!-- Created with Inkscape (http://www.inkscape.org/) -->
<svg
   xmlns:svg="http://www.w3.org/2000/svg"
   xmlns="http://www.w3.org/2000/svg"
   version="1.0"
   width="602.36218"
   height="188.1496"
   id="svg1884">
  <defs
     id="defs1886" />
  <g
     id="layer1">
    <g
       transform="translate(-48.81891,-438.2874)"
       id="g1894">
      <path
         d="M 171.29927,514.50002 C 184.20187,510.02412 193.42262,499.73187 193.42262,484.46766 C 193.42439,480.63947 191.48124,471.34112 184.47435,465.3501 C 179.82163,461.37203 173.11415,456.72286 151.4362,456.17612 C 146.95675,456.07691 133.36144,456.5751 133.36144,456.5751 L 133.36321,457.34542 C 137.18785,460.27857 141.34274,465.15132 143.32876,470.74585 C 145.39096,470.69553 148.52112,470.52227 151.6077,470.69553 C 160.30864,471.16821 164.08829,472.78467 168.01569,475.86593 C 171.94309,478.94896 174.05596,484.24408 174.03045,489.06793 C 174.00529,495.65459 170.89852,502.46695 161.40388,506.34581 C 153.72199,509.454 144.42222,510.15061 144.42222,510.15061 L 144.424,512.56077 C 144.424,512.56077 149.99124,515.22002 155.56061,522.55537 C 160.33415,528.89471 188.15266,569.81459 188.15266,569.81459 L 211.12214,569.81459 C 211.12214,569.81459 173.98014,518.10463 171.29927,514.50002 z M 120.77986,508.73258 C 129.63246,503.51152 135.27199,495.82963 135.27199,484.3936 C 135.27199,472.16211 128.016,456.00321 97.586792,456.00321 C 82.892343,456.00109 66.535021,456.54959 66.535021,456.54959 L 66.535021,569.81459 L 92.490099,569.81459 C 125.47758,569.81459 142.93368,557.65892 142.93368,534.63699 C 142.93368,520.93892 134.32841,511.88967 120.77986,508.73258 M 97.810375,554.02915 L 84.929391,554.02915 L 84.929391,470.59632 C 85.107973,470.59632 90.702501,470.49711 94.202225,470.49711 C 108.54837,470.49711 116.50238,477.92955 116.75148,488.12258 C 116.87939,494.31238 115.06451,500.28038 108.74502,504.63014 C 103.57782,508.21101 96.415729,509.27896 96.415729,509.27896 L 96.417501,511.93998 C 96.417501,511.93998 106.35789,513.4303 111.40392,515.79368 C 120.83195,520.19376 123.61203,527.00577 123.6627,535.85482 C 123.79096,549.77683 110.31612,554.02915 97.810375,554.02915 z "
         style="fill:#003d7f;fill-rule:evenodd"
         id="_46897504" />
      <path
         d="M 423.28545,530.33612 C 423.28545,516.564 419.28222,509.47738 410.70954,509.47738 C 400.78899,509.47738 394.84793,521.01262 394.84793,533.59242 L 394.8497,554.02915 C 397.8282,554.92384 400.94029,555.37136 404.76493,555.37136 C 415.43241,555.37136 423.28545,548.559 423.28545,530.33612 M 443.13044,528.2725 C 443.13044,553.87927 429.80194,570.03852 404.3447,570.03852 C 400.78899,570.03852 397.97986,569.86526 394.84793,569.41774 L 394.8497,605.11691 L 394.8497,606.98211 C 394.8497,607.95085 394.07938,608.72116 393.10533,608.72116 L 377.64092,608.72116 C 376.67395,608.72116 375.90151,607.95085 375.90151,606.98211 L 375.90151,496.82388 C 375.90151,495.85514 376.67218,495.08447 377.63915,495.08447 L 391.76312,495.08447 C 392.71202,495.08447 393.48056,495.85514 393.48056,496.82388 C 393.48234,496.82388 393.50572,498.38967 393.48056,498.46549 C 393.42989,501.44754 393.20631,504.85372 392.78041,507.68801 L 393.08017,507.68801 C 397.23647,499.08593 405.06434,493.91553 416.1758,493.91553 C 433.65352,493.91553 443.12867,506.49534 443.13044,528.2725 z M 558.08206,528.69451 C 557.0141,530.58522 548.15973,545.00329 551.34198,550.17545 C 552.56513,552.18876 555.99469,553.58163 562.1108,550.94577 C 570.4365,547.34152 573.19674,543.16502 578.39052,538.09384 C 580.40914,536.12908 581.99867,536.3275 583.48898,538.09384 L 591.69209,548.63305 C 592.3919,549.70278 592.11765,551.31923 591.49544,551.99033 C 582.76898,561.56116 561.4358,579.08778 541.89765,567.97632 C 532.54899,562.67978 531.03387,552.58596 532.3254,543.26423 C 533.59355,533.89219 538.11658,524.44396 541.52241,518.50325 C 548.78584,506.79297 562.41021,492.7466 576.67839,492.7466 C 592.69131,492.7466 600.29737,506.64345 608.10009,520.66644 C 611.87938,527.42813 614.7119,534.33935 618.26938,540.10715 C 621.62524,545.50112 623.06843,548.53384 627.19249,550.54715 C 628.09072,550.97128 629.70717,551.01982 630.55331,551.09565 C 632.34127,551.24376 633.4365,551.99033 633.36068,553.35805 C 633.36068,553.35805 633.48682,562.08415 633.46166,565.9864 C 633.46166,567.97632 633.48682,569.56762 631.64855,569.86526 C 616.20753,571.03419 606.43828,558.6025 598.7819,544.88069 C 594.30245,536.87423 590.27938,528.42203 586.39698,521.95797 C 584.48288,518.80089 582.69316,516.28975 581.00654,514.59923 C 579.2891,512.85841 577.52454,512.31167 576.57741,512.36234 C 572.00761,512.58593 564.89265,517.78183 558.08206,528.69451 z M 338.7595,458.81199 C 338.7595,457.86664 339.52982,457.09632 340.50387,457.09632 L 355.96297,457.09632 C 356.93738,457.09632 357.70592,457.86664 357.70592,458.81199 L 357.70769,568.07553 C 357.70769,569.01911 356.93738,569.7912 355.96297,569.7912 L 340.50387,569.7912 C 339.53159,569.7912 338.7595,569.02089 338.7595,568.07553 L 338.7595,458.81199 L 338.7595,458.81199 z M 501.62548,522.7538 C 501.62548,515.04675 499.56186,510.47164 492.59962,510.47164 C 482.9767,510.47164 475.42131,521.4116 475.42131,534.31419 L 475.42308,568.05037 C 475.42308,569.01911 474.651,569.7912 473.67871,569.7912 L 458.21962,569.7912 C 457.24556,569.7912 456.44974,569.02089 456.44974,568.05037 L 456.45151,458.88605 C 456.45151,457.94069 457.24556,457.14699 458.21962,457.14699 L 473.67871,457.14699 C 474.651,457.14699 475.42131,457.94069 475.42131,458.88605 L 475.42308,493.29333 C 475.42308,497.74372 475.1219,503.93352 474.07911,508.23439 L 474.37851,508.38427 C 478.67584,500.10534 487.13159,494.61215 498.51729,494.61215 C 515.0982,494.61215 520.44399,505.27573 520.44399,518.15494 L 520.44399,568.05037 C 520.44399,569.01911 519.64816,569.7912 518.70635,569.7912 L 503.33584,569.7912 C 502.39403,569.7912 501.59855,569.02089 501.59855,568.05037 L 501.62548,522.7538 z M 282.37876,550.94577 C 282.32809,551.01982 282.25049,551.14455 282.20017,551.22002 C 280.41222,553.15963 278.12643,555.44541 275.41509,557.75813 C 274.32163,558.67833 273.32773,559.52234 272.37883,560.19344 C 261.81588,568.27396 246.7501,575.25959 232.60273,567.20423 C 223.25939,561.90911 221.7386,551.81565 223.03722,542.49392 C 224.32911,533.14526 228.85356,523.67364 232.23281,517.73293 C 239.49057,506.02266 253.1401,491.97628 267.38313,491.97628 C 279.36943,491.97628 286.45037,500.05679 292.54096,509.95006 C 294.61025,507.31455 296.69761,504.58124 298.83529,501.79585 C 300.82344,499.25919 302.71238,496.74982 303.88309,495.28325 C 304.37915,494.63553 305.72171,493.94069 307.73324,493.84148 L 321.60812,493.86522 C 325.98127,493.86522 328.61537,494.3379 323.81631,500.90081 C 323.81809,500.90081 306.76592,522.45616 302.41297,527.8016 C 304.55242,531.85337 306.61285,535.73045 308.82813,539.31132 C 312.18187,544.73081 314.1484,548.43463 318.2473,550.44793 C 319.14553,550.89545 320.76198,550.92061 321.60812,550.99467 C 323.42124,551.1697 324.49096,551.89112 324.44064,553.28222 C 324.44064,553.28222 324.56679,562.00833 324.54163,565.88718 C 324.51824,567.87711 324.56679,569.46841 322.70336,569.7912 C 307.28927,570.95837 297.16852,557.78329 289.48663,544.05971 L 289.18899,543.5112 C 286.90498,546.12368 284.58694,548.63305 282.37876,550.94577 M 248.78679,527.92419 C 247.71884,529.8149 238.89706,544.23297 242.05415,549.40514 C 243.26986,551.39329 246.67427,552.81132 252.79002,550.17545 C 261.04557,546.59459 264.67179,542.59313 269.79541,537.59565 C 273.15801,534.09061 276.50998,530.21175 279.99198,526.0101 C 279.07002,524.31959 278.15159,522.70313 277.25513,521.21317 C 275.33927,518.03057 273.40356,515.51943 271.71128,513.82892 C 269.99383,512.08809 268.20411,511.54136 267.28746,511.59203 C 262.73785,511.81561 255.60269,517.01116 248.78679,527.92419 z "
         style="fill:#db502b;fill-rule:evenodd"
         id="_46617464" />
    </g>
  </g>
</svg>
