<?xml version="1.0" encoding="UTF-8" standalone="no"?>
<!-- Created with Inkscape (http://www.inkscape.org/) -->
<svg
   xmlns:dc="http://purl.org/dc/elements/1.1/"
   xmlns:cc="http://web.resource.org/cc/"
   xmlns:rdf="http://www.w3.org/1999/02/22-rdf-syntax-ns#"
   xmlns:svg="http://www.w3.org/2000/svg"
   xmlns="http://www.w3.org/2000/svg"
   xmlns:xlink="http://www.w3.org/1999/xlink"
   xmlns:sodipodi="http://sodipodi.sourceforge.net/DTD/sodipodi-0.dtd"
   xmlns:inkscape="http://www.inkscape.org/namespaces/inkscape"
   width="200"
   height="146"
   id="svg2"
   sodipodi:version="0.32"
   inkscape:version="0.45.1"
   inkscape:output_extension="org.inkscape.output.svg.inkscape"
   version="1.0">
  <g
     inkscape:label="Layer 1"
     inkscape:groupmode="layer"
     id="layer1"
     transform="translate(-578.02181,-355.62997)">
    <g
       id="g2734"
       transform="matrix(3.8390663,0,0,-3.8390663,578.02181,355.68383)">
      <path
         id="path2736"
         d="M 0,0 L 52.096,0 L 52.096,-10.675 L 0,-14.519 L 0,0 z "
         style="fill:#007eab;fill-rule:nonzero;stroke:none" />
    </g>
    <g
       id="g2738"
       clip-path="url(#id179)"
       transform="matrix(3.8390663,0,0,-3.8390663,-1344.0444,2182.6049)">
      <g
         id="g2740"
         transform="translate(543.0224,470.36549)">
        <path
           id="path2742"
           d="M 0,0 C 0,0 -4.452,-4.302 -4.357,-4.42 C -4.261,-4.538 1.165,-1.807 2.009,-1.539 C 2.84,-1.274 3.35,-1.948 3.35,-1.948 C 3.35,-1.948 8.999,-8.262 9.166,-8.109 C 9.318,-7.97 5.809,-0.838 5.584,-0.007 C 5.34,0.889 6.314,1.69 6.314,1.69 C 6.314,1.69 8.338,3.659 9.733,5.092 C 9.733,5.163 9.733,5.446 9.733,5.511 C 9.655,5.511 8.729,5.516 8.718,5.511 C 7.041,4.663 4.976,3.577 4.448,3.368 C 3.554,3.013 3.051,3.503 3.051,3.503 C 3.051,3.503 1.918,4.59 0.896,5.511 C 0.897,5.504 -0.376,5.508 -0.378,5.511 C 0.102,4.204 0.852,2.288 0.952,1.743 C 1.11,0.881 0,0 0,0"
           style="fill:#ffffff;fill-rule:nonzero;stroke:none" />
      </g>
    </g>
    <g
       id="g2744"
       transform="matrix(3.8390663,0,0,-3.8390663,578.02181,409.78238)">
      <path
         id="path2746"
         d="M 0,0 L 52.096,3.843 L 52.096,-23.913 L 0,-23.913 L 0,0 z "
         style="fill:#00325d;fill-rule:nonzero;stroke:none" />
    </g>
    <g
       id="g2748"
       transform="matrix(3.8390663,0,0,-3.8390663,630.02154,477.94849)">
      <path
         id="path2750"
         d="M 0,0 L -2.534,0 L -1.246,3.708 L 0,0 z M 3.207,-3.479 L -0.516,6.714 L -2.076,6.714 L -5.784,-3.479 L -3.708,-3.479 L -3.092,-1.675 L 0.53,-1.675 L 1.131,-3.479 L 3.207,-3.479 z "
         style="fill:#ffffff;fill-rule:nonzero;stroke:none" />
    </g>
    <g
       id="g2752"
       transform="matrix(3.8390663,0,0,-3.8390663,673.10623,491.30388)">
      <path
         id="path2754"
         d="M 0,0 L 0,1.775 L -4.624,1.775 L -4.624,10.193 L -6.614,10.193 L -6.614,0 L 0,0 z "
         style="fill:#ffffff;fill-rule:nonzero;stroke:none" />
    </g>
    <g
       id="g2756"
       clip-path="url(#id180)"
       transform="matrix(3.8390663,0,0,-3.8390663,-1344.0444,2182.6049)">
      <g
         id="g2758"
         transform="translate(532.58479,443.58501)">
        <path
           id="path2760"
           d="M 0,0 C 0,-0.687 -0.43,-1.26 -1.331,-1.26 L -3.407,-1.26 L -3.407,1.245 L -1.331,1.245 C -0.43,1.245 0,0.687 0,0 M -0.143,4.209 C -0.143,3.508 -0.615,3.035 -1.46,3.035 L -3.407,3.035 L -3.407,5.383 L -1.46,5.383 C -0.615,5.383 -0.143,4.911 -0.143,4.209 M 1.99,-0.1 C 1.99,1.26 1.203,1.904 0.587,2.19 C 1.102,2.434 1.847,3.164 1.847,4.295 C 1.847,6.042 0.687,7.158 -1.303,7.158 L -5.398,7.158 L -5.398,-3.035 L -1.131,-3.035 C 0.687,-3.035 1.99,-2.004 1.99,-0.1"
           style="fill:#ffffff;fill-rule:evenodd;stroke:none" />
      </g>
      <g
         id="g2762"
         transform="translate(541.4171,444.0289)">
        <path
           id="path2764"
           d="M 0,0 L -2.534,0 L -1.245,3.708 L 0,0 z M 3.207,-3.479 L -0.515,6.714 L -2.076,6.714 L -5.784,-3.479 L -3.708,-3.479 L -3.092,-1.675 L 0.53,-1.675 L 1.131,-3.479 L 3.207,-3.479 z "
           style="fill:#ffffff;fill-rule:evenodd;stroke:none" />
      </g>
      <path
         id="path2766"
         d="M 515.819,460.335 L 522.495,460.335 L 522.495,454.052 L 515.819,454.052 L 515.819,460.335 z "
         style="fill:#ffffff;fill-rule:evenodd;stroke:none" />
      <path
         id="path2768"
         d="M 523.477,460.335 L 530.153,460.335 L 530.153,454.052 L 523.477,454.052 L 523.477,460.335 z "
         style="fill:#ffffff;fill-rule:evenodd;stroke:none" />
      <path
         id="path2770"
         d="M 531.134,460.335 L 537.81,460.335 L 537.81,454.052 L 531.134,454.052 L 531.134,460.335 z "
         style="fill:#ffffff;fill-rule:evenodd;stroke:none" />
      <g
         id="g2772"
         transform="translate(518.9086,456.9991)">
        <path
           id="path2774"
           d="M 0,0 L -0.615,0 L -0.615,-1.458 L 0.033,-1.458 C 0.393,-1.458 0.636,-1.431 0.764,-1.376 C 0.893,-1.319 0.996,-1.231 1.073,-1.113 C 1.152,-0.994 1.192,-0.867 1.192,-0.731 C 1.192,-0.59 1.15,-0.462 1.066,-0.345 C 0.985,-0.229 0.869,-0.143 0.718,-0.086 C 0.566,-0.029 0.327,0 0,0 M -0.049,1.968 L -0.615,1.968 L -0.615,0.586 L -0.178,0.586 C 0.173,0.586 0.423,0.653 0.569,0.787 C 0.719,0.921 0.793,1.094 0.794,1.307 C 0.794,1.748 0.513,1.968 -0.049,1.968 M 0.283,-2.044 L -1.274,-2.044 L -1.274,2.554 L -0.069,2.554 C 0.31,2.554 0.607,2.503 0.82,2.4 C 1.033,2.299 1.195,2.158 1.307,1.978 C 1.419,1.8 1.475,1.594 1.475,1.359 C 1.475,0.907 1.241,0.583 0.774,0.388 C 1.109,0.325 1.376,0.186 1.573,-0.026 C 1.773,-0.239 1.873,-0.494 1.873,-0.79 C 1.873,-1.025 1.813,-1.234 1.692,-1.419 C 1.571,-1.603 1.394,-1.753 1.159,-1.87 C 0.926,-1.986 0.634,-2.044 0.283,-2.044"
           style="fill:#00325d;fill-rule:evenodd;stroke:none" />
      </g>
      <g
         id="g2776"
         transform="translate(526.5665,456.9991)">
        <path
           id="path2778"
           d="M 0,0 L -0.615,0 L -0.615,-1.458 L 0.033,-1.458 C 0.393,-1.458 0.636,-1.431 0.763,-1.376 C 0.893,-1.319 0.996,-1.231 1.073,-1.113 C 1.152,-0.994 1.192,-0.867 1.192,-0.731 C 1.192,-0.59 1.15,-0.462 1.067,-0.345 C 0.985,-0.229 0.869,-0.143 0.718,-0.086 C 0.566,-0.029 0.327,0 0,0 M -0.049,1.968 L -0.615,1.968 L -0.615,0.586 L -0.178,0.586 C 0.173,0.586 0.422,0.653 0.569,0.787 C 0.718,0.921 0.793,1.094 0.793,1.307 C 0.793,1.748 0.512,1.968 -0.049,1.968 M 0.283,-2.044 L -1.274,-2.044 L -1.274,2.554 L -0.069,2.554 C 0.31,2.554 0.607,2.503 0.819,2.4 C 1.032,2.299 1.195,2.158 1.307,1.978 C 1.419,1.8 1.474,1.594 1.474,1.359 C 1.474,0.907 1.241,0.583 0.773,0.388 C 1.109,0.325 1.376,0.186 1.573,-0.026 C 1.773,-0.239 1.873,-0.494 1.873,-0.79 C 1.873,-1.025 1.813,-1.234 1.692,-1.419 C 1.571,-1.603 1.393,-1.753 1.159,-1.87 C 0.926,-1.986 0.634,-2.044 0.283,-2.044"
           style="fill:#00325d;fill-rule:evenodd;stroke:none" />
      </g>
      <g
         id="g2780"
         transform="translate(536.5208,456.0215)">
        <path
           id="path2782"
           d="M 0,0 L 0,-0.724 C -0.483,-0.988 -1.04,-1.119 -1.672,-1.119 C -2.186,-1.119 -2.621,-1.016 -2.979,-0.81 C -3.337,-0.604 -3.62,-0.32 -3.828,0.043 C -4.037,0.405 -4.141,0.797 -4.141,1.218 C -4.141,1.887 -3.903,2.45 -3.427,2.907 C -2.948,3.363 -2.359,3.591 -1.659,3.591 C -1.176,3.591 -0.64,3.465 -0.049,3.213 L -0.049,2.505 C -0.587,2.812 -1.113,2.966 -1.626,2.966 C -2.153,2.966 -2.591,2.799 -2.939,2.465 C -3.286,2.134 -3.46,1.718 -3.46,1.218 C -3.46,0.713 -3.288,0.298 -2.946,-0.027 C -2.604,-0.351 -2.166,-0.514 -1.633,-0.514 C -1.075,-0.514 -0.531,-0.342 0,0"
           style="fill:#00325d;fill-rule:evenodd;stroke:none" />
      </g>
    </g>
    <g
       id="g2822"
       transform="matrix(1,0,0,-1,207.7448,498.26099)" />
    <g
       id="g3612"
       transform="matrix(1,0,0,-1,119.8817,424.57028)" />
  </g>
</svg>
