<?xml version="1.0" encoding="UTF-8" standalone="no"?>
<!-- Created with Inkscape (http://www.inkscape.org/) -->

<svg
   xmlns:dc="http://purl.org/dc/elements/1.1/"
   xmlns:cc="http://creativecommons.org/ns#"
   xmlns:rdf="http://www.w3.org/1999/02/22-rdf-syntax-ns#"
   xmlns:svg="http://www.w3.org/2000/svg"
   xmlns="http://www.w3.org/2000/svg"
   xmlns:sodipodi="http://sodipodi.sourceforge.net/DTD/sodipodi-0.dtd"
   xmlns:inkscape="http://www.inkscape.org/namespaces/inkscape"
   width="485"
   height="220"
   id="svg2866"
   version="1.1"
   inkscape:version="0.47 r22583"
   sodipodi:docname="Neues Dokument 2">
  <defs
     id="defs2868">
    <inkscape:perspective
       sodipodi:type="inkscape:persp3d"
       inkscape:vp_x="0 : 526.18109 : 1"
       inkscape:vp_y="0 : 1000 : 0"
       inkscape:vp_z="744.09448 : 526.18109 : 1"
       inkscape:persp3d-origin="372.04724 : 350.78739 : 1"
       id="perspective2874" />
    <inkscape:perspective
       id="perspective2859"
       inkscape:persp3d-origin="0.5 : 0.33333333 : 1"
       inkscape:vp_z="1 : 0.5 : 1"
       inkscape:vp_y="0 : 1000 : 0"
       inkscape:vp_x="0 : 0.5 : 1"
       sodipodi:type="inkscape:persp3d" />
  </defs>
  <sodipodi:namedview
     id="base"
     pagecolor="#ffffff"
     bordercolor="#666666"
     borderopacity="1.0"
     inkscape:pageopacity="0.0"
     inkscape:pageshadow="2"
     inkscape:zoom="1.7203835"
     inkscape:cx="242.5"
     inkscape:cy="110"
     inkscape:document-units="px"
     inkscape:current-layer="layer1"
     showgrid="false"
     inkscape:window-width="1280"
     inkscape:window-height="1005"
     inkscape:window-x="-4"
     inkscape:window-y="-4"
     inkscape:window-maximized="1" />
  <metadata
     id="metadata2871">
    <rdf:RDF>
      <cc:Work
         rdf:about="">
        <dc:format>image/svg+xml</dc:format>
        <dc:type
           rdf:resource="http://purl.org/dc/dcmitype/StillImage" />
        <dc:title></dc:title>
      </cc:Work>
    </rdf:RDF>
  </metadata>
  <g
     inkscape:label="Ebene 1"
     inkscape:groupmode="layer"
     id="layer1"
     transform="translate(-112.40742,-417.30553)">
    <g
       transform="translate(-274.46162,55.773917)"
       id="g2847">
      <path
         d="m 583.88286,474.33392 c 23.59534,-8.1852 40.45758,-27.00692 40.45758,-54.92099 0.004,-7.00072 -3.55026,-24.00487 -16.36395,-34.96081 -8.50856,-7.2748 -20.77471,-15.77687 -60.41777,-16.77671 -8.19169,-0.18141 -33.0538,0.72963 -33.0538,0.72963 l 0.004,1.40871 c 6.99423,5.36393 14.59239,14.27486 18.22428,24.50573 3.7712,-0.092 9.49541,-0.40887 15.13992,-0.092 15.91165,0.86441 22.8236,3.82047 30.00574,9.45525 7.18214,5.63803 11.04601,15.32136 10.99936,24.14286 -0.0461,12.04521 -5.72745,24.50316 -23.09056,31.59653 -14.04808,5.68403 -31.05482,6.95794 -31.05482,6.95794 l 0.004,4.40753 c 0,0 10.18097,4.86304 20.36583,18.2774 8.7295,11.59292 59.60197,86.42422 59.60197,86.42422 l 42.00491,0 c 0,0 -67.92259,-94.56341 -72.82517,-101.15526 z m -92.38622,-10.54707 c 16.18899,-9.5479 26.50215,-23.59598 26.50215,-44.50936 0,-22.36806 -13.26923,-51.91828 -68.91595,-51.91828 -26.87214,-0.004 -56.78522,0.99918 -56.78522,0.99918 l 0,207.1308 47.46476,0 c 60.32511,0 92.24755,-22.22941 92.24755,-64.33024 0,-25.05004 -15.73669,-41.59865 -40.51329,-47.3721 m -42.00493,82.83507 -23.5558,0 0,-152.57589 c 0.32657,0 10.55744,-0.18141 16.95748,-0.18141 26.23519,0 40.7809,13.5919 41.23644,32.23218 0.23391,11.31945 -3.08501,22.2333 -14.64163,30.18782 -9.4494,6.54844 -22.54691,8.50143 -22.54691,8.50143 l 0.003,4.86628 c 0,0 18.17826,2.72538 27.40607,7.04736 17.2413,8.04655 22.32531,20.50386 22.41797,36.68636 0.23455,25.45956 -24.40725,33.23589 -47.27686,33.23589 z"
         style="fill:#003d7f;fill-rule:evenodd"
         id="_46897504" />
      <path
         sodipodi:nodetypes="cccccccscccccccccccccccccccccsccc"
         d="m 787.01696,540.98326 c -0.0927,0.13533 -0.23457,0.36351 -0.3266,0.50153 -3.26967,3.54702 -7.44975,7.72708 -12.40806,11.95642 -1.99964,1.68279 -3.81721,3.22626 -5.55249,4.45352 -19.31675,14.77706 -46.86796,27.55188 -72.73964,12.82082 -17.08642,-9.68333 -19.86753,-28.14152 -17.49271,-45.18842 2.36252,-17.09615 10.6365,-34.41716 16.81623,-45.2811 13.27246,-21.41489 38.23373,-47.10189 64.28035,-47.10189 21.91967,0 34.86878,14.77705 46.00681,32.86915 3.78417,-4.81963 7.60138,-9.81811 11.51061,-14.91183 3.63579,-4.63886 7.09014,-9.22781 9.23105,-11.90977 0.90716,-1.1845 3.36234,-2.45518 7.04088,-2.6366 l 25.37337,0.0433 c 7.9973,0 12.81435,0.8644 4.03818,12.86617 0.004,0 -31.18052,39.41886 -39.14088,49.19421 3.91247,7.40958 7.68044,14.49971 11.73158,21.04814 6.13308,9.91077 9.72933,16.68405 17.2251,20.36582 1.64261,0.8184 4.59866,0.86441 6.14602,0.99984 3.3157,0.32008 5.27193,1.63936 5.17991,4.18331 0,0 0.23069,15.95767 0.18468,23.05103 -0.0428,3.63904 0.0461,6.54909 -3.3617,7.13939 -28.18816,2.13444 -46.69625,-21.95919 -60.74434,-47.05588 l -0.5443,-1.00307 c -4.17683,4.77751 -8.41589,9.36646 -12.45405,13.5958 M 725.5864,498.883 c -1.95298,3.45759 -18.08561,29.82431 -12.31216,39.2828 2.2232,3.63578 8.44894,6.22897 19.63298,1.40868 15.09715,-6.54841 21.72852,-13.86599 31.09822,-23.00502 6.14928,-6.40976 12.27912,-13.50314 18.64675,-21.18681 -1.68602,-3.09148 -3.36557,-6.04755 -5.00495,-8.77228 -3.50359,-5.82011 -7.04348,-10.4123 -10.13819,-13.50378 -3.14075,-3.1835 -6.41366,-4.18332 -8.08996,-4.09066 -8.32,0.40887 -21.36826,9.91011 -33.83269,29.86707 z"
         style="fill:#db502b;fill-rule:evenodd"
         id="_46617464" />
    </g>
  </g>
</svg>
