<?xml version="1.0" encoding="UTF-8" standalone="no"?>
<!-- Created with Inkscape (http://www.inkscape.org/) -->

<svg
   xmlns:dc="http://purl.org/dc/elements/1.1/"
   xmlns:cc="http://creativecommons.org/ns#"
   xmlns:rdf="http://www.w3.org/1999/02/22-rdf-syntax-ns#"
   xmlns:svg="http://www.w3.org/2000/svg"
   xmlns="http://www.w3.org/2000/svg"
   xmlns:sodipodi="http://sodipodi.sourceforge.net/DTD/sodipodi-0.dtd"
   xmlns:inkscape="http://www.inkscape.org/namespaces/inkscape"
   width="200"
   height="146"
   id="svg2"
   sodipodi:version="0.32"
   inkscape:version="0.48.2 r9819"
   version="1.0"
   inkscape:output_extension="org.inkscape.output.svg.inkscape"
   sodipodi:docname="BBC_Two.svg">
  <metadata
     id="metadata31">
    <rdf:RDF>
      <cc:Work
         rdf:about="">
        <dc:format>image/svg+xml</dc:format>
        <dc:type
           rdf:resource="http://purl.org/dc/dcmitype/StillImage" />
        <dc:title></dc:title>
      </cc:Work>
    </rdf:RDF>
  </metadata>
  <defs
     id="defs29"><inkscape:perspective
   sodipodi:type="inkscape:persp3d"
   inkscape:vp_x="0 : 0.5 : 1"
   inkscape:vp_y="0 : 1000 : 0"
   inkscape:vp_z="1 : 0.5 : 1"
   inkscape:persp3d-origin="0.5 : 0.33333333 : 1"
   id="perspective2908" />
<inkscape:perspective
   sodipodi:type="inkscape:persp3d"
   inkscape:vp_x="0 : 0.5 : 1"
   inkscape:vp_y="0 : 1000 : 0"
   inkscape:vp_z="1 : 0.5 : 1"
   inkscape:persp3d-origin="0.5 : 0.33333333 : 1"
   id="perspective2882" />
<inkscape:perspective
   sodipodi:type="inkscape:persp3d"
   inkscape:vp_x="0 : 42.5 : 1"
   inkscape:vp_y="0 : 1000 : 0"
   inkscape:vp_z="295 : 42.5 : 1"
   inkscape:persp3d-origin="147.5 : 28.333333 : 1"
   id="perspective23" />

 <style
   id="style6"
   type="text/css">
   
    .fil0 {fill:#C90302}
   
  </style>

  <inkscape:perspective
   id="perspective17"
   inkscape:persp3d-origin="526.18109 : 129.92126 : 1"
   inkscape:vp_z="1052.3622 : 194.8819 : 1"
   inkscape:vp_y="0 : 1000 : 0"
   inkscape:vp_x="0 : 194.8819 : 1"
   sodipodi:type="inkscape:persp3d" />
</defs>
  <sodipodi:namedview
     pagecolor="#ffffff"
     bordercolor="#666666"
     borderopacity="1"
     objecttolerance="10"
     gridtolerance="10"
     guidetolerance="10"
     inkscape:pageopacity="0"
     inkscape:pageshadow="2"
     inkscape:window-width="1920"
     inkscape:window-height="1028"
     id="namedview27"
     showgrid="false"
     inkscape:zoom="1.6164384"
     inkscape:cx="367.64856"
     inkscape:cy="27.84625"
     inkscape:window-x="-8"
     inkscape:window-y="-8"
     inkscape:window-maximized="1"
     inkscape:current-layer="layer1" />
  <g
     inkscape:label="Layer 1"
     inkscape:groupmode="layer"
     id="layer1"
     transform="translate(-26.733784,-710.58425)">
    <g
       id="g27219"
       transform="matrix(1,0,0,-1,262.65222,349.06912)" />
    <g
       id="g2311"
       transform="matrix(7.1576838,0,0,7.1576838,-164.61821,-5272.386)">
      <g
         transform="matrix(1,0,0,-1,26.733787,856.22877)"
         id="g27221">
        <path
           style="fill:#005e70;fill-rule:nonzero;stroke:none;opacity:1"
           d="M 0,0 L 0,20.348 L 27.942,20.348 L 27.942,0"
           id="path27223" />
      </g>
      <g
         transform="matrix(1,0,0,-1,-137.77691,1513.3124)"
         clip-path="url(#id211)"
         id="g27225">
        <path
           style="fill:#ffffff;fill-rule:nonzero;stroke:none"
           d="M 180.782,673.081 L 184.325,673.081 L 184.325,669.747 L 180.782,669.747 L 180.782,673.081 z M 183.014,672.617 C 182.998,672.619 182.982,672.622 182.966,672.624 L 182.947,672.627 C 182.92,672.631 182.892,672.634 182.865,672.637 C 182.846,672.638 182.827,672.64 182.808,672.641 C 182.775,672.643 182.741,672.644 182.71,672.644 C 182.695,672.644 182.686,672.644 182.672,672.643 C 182.646,672.643 182.62,672.642 182.594,672.64 C 182.579,672.639 182.565,672.638 182.55,672.637 C 182.529,672.635 182.508,672.633 182.488,672.63 L 182.471,672.628 L 182.452,672.625 L 182.428,672.621 C 182.418,672.619 182.408,672.618 182.398,672.616 C 182.384,672.613 182.37,672.61 182.356,672.607 C 182.273,672.59 182.195,672.566 182.123,672.538 C 182.086,672.524 182.05,672.508 182.016,672.492 C 181.988,672.478 181.962,672.464 181.935,672.448 C 181.91,672.434 181.886,672.419 181.862,672.404 C 181.849,672.395 181.836,672.386 181.823,672.376 C 181.812,672.368 181.801,672.36 181.79,672.352 C 181.768,672.335 181.746,672.317 181.726,672.299 C 181.707,672.283 181.688,672.265 181.672,672.248 C 181.657,672.234 181.642,672.219 181.628,672.203 C 181.614,672.187 181.599,672.171 181.586,672.154 C 181.571,672.136 181.557,672.117 181.543,672.098 C 181.532,672.084 181.523,672.069 181.513,672.055 C 181.506,672.045 181.5,672.035 181.494,672.024 C 181.457,671.964 181.424,671.899 181.398,671.83 C 181.365,671.744 181.341,671.652 181.327,671.553 C 181.323,671.522 181.32,671.491 181.318,671.458 C 181.317,671.434 181.316,671.409 181.316,671.383 C 181.316,671.365 181.316,671.346 181.317,671.327 C 181.318,671.308 181.32,671.289 181.322,671.27 L 181.323,671.256 C 181.327,671.234 181.33,671.212 181.334,671.19 C 181.336,671.181 181.337,671.173 181.339,671.164 C 181.343,671.146 181.348,671.128 181.352,671.11 C 181.359,671.087 181.365,671.065 181.372,671.043 C 181.382,671.016 181.391,670.989 181.402,670.964 C 181.419,670.923 181.438,670.884 181.458,670.847 C 181.47,670.825 181.482,670.804 181.495,670.784 C 181.505,670.767 181.515,670.752 181.526,670.737 C 181.54,670.717 181.554,670.697 181.568,670.679 C 181.583,670.66 181.599,670.641 181.614,670.624 C 181.633,670.602 181.651,670.583 181.67,670.565 L 181.68,670.555 C 181.695,670.54 181.712,670.524 181.731,670.508 C 181.744,670.497 181.757,670.485 181.771,670.474 C 181.785,670.464 181.799,670.452 181.814,670.442 C 181.832,670.429 181.851,670.416 181.871,670.403 C 181.892,670.389 181.914,670.376 181.938,670.363 C 181.985,670.336 182.036,670.311 182.093,670.288 C 182.114,670.28 182.136,670.272 182.159,670.264 C 182.182,670.256 182.205,670.249 182.229,670.242 C 182.269,670.23 182.312,670.22 182.357,670.211 C 182.394,670.204 182.431,670.199 182.47,670.194 C 182.509,670.189 182.549,670.185 182.591,670.183 C 182.611,670.182 182.631,670.182 182.652,670.181 C 182.662,670.181 182.672,670.181 182.681,670.181 C 182.756,670.181 182.824,670.184 182.889,670.189 L 182.901,670.19 C 182.926,670.193 182.951,670.195 182.975,670.198 C 183.011,670.203 183.046,670.208 183.079,670.214 C 183.1,670.218 183.12,670.222 183.14,670.226 C 183.171,670.232 183.199,670.24 183.227,670.247 C 183.248,670.252 183.267,670.258 183.286,670.264 C 183.309,670.271 183.331,670.278 183.352,670.285 L 183.372,670.292 C 183.382,670.296 183.396,670.301 183.412,670.307 C 183.433,670.315 183.459,670.325 183.488,670.338 C 183.506,670.345 183.525,670.354 183.544,670.363 C 183.561,670.371 183.58,670.379 183.598,670.388 C 183.605,670.392 183.613,670.396 183.621,670.4 L 183.621,670.854 C 183.616,670.851 183.61,670.848 183.605,670.844 L 183.574,670.826 C 183.542,670.807 183.513,670.789 183.483,670.772 C 183.449,670.755 183.417,670.738 183.385,670.723 C 183.329,670.697 183.275,670.674 183.223,670.656 C 183.124,670.62 183.033,670.597 182.953,670.583 C 182.943,670.582 182.934,670.58 182.925,670.579 C 182.902,670.575 182.881,670.573 182.861,670.57 C 182.829,670.567 182.8,670.565 182.773,670.564 C 182.756,670.563 182.739,670.563 182.725,670.563 C 182.692,670.563 182.659,670.563 182.626,670.566 C 182.586,670.569 182.546,670.573 182.505,670.58 C 182.439,670.591 182.373,670.608 182.309,670.631 C 182.299,670.635 182.289,670.639 182.28,670.642 C 182.274,670.645 182.268,670.647 182.261,670.65 C 182.251,670.654 182.24,670.659 182.23,670.664 C 182.208,670.674 182.186,670.686 182.164,670.698 C 182.154,670.704 182.143,670.71 182.132,670.717 C 182.121,670.724 182.11,670.731 182.1,670.738 C 182.087,670.747 182.074,670.757 182.061,670.767 C 182.049,670.777 182.036,670.787 182.025,670.796 L 182.01,670.81 L 182.003,670.817 L 181.998,670.821 L 181.993,670.826 C 181.972,670.847 181.954,670.867 181.936,670.888 C 181.927,670.899 181.918,670.911 181.909,670.922 C 181.901,670.934 181.893,670.945 181.886,670.956 C 181.879,670.967 181.872,670.978 181.866,670.988 C 181.857,671.004 181.848,671.021 181.84,671.036 C 181.833,671.05 181.827,671.063 181.822,671.077 C 181.812,671.1 181.803,671.123 181.797,671.145 C 181.791,671.162 181.786,671.179 181.783,671.195 C 181.77,671.243 181.764,671.286 181.761,671.323 C 181.759,671.337 181.759,671.35 181.758,671.362 C 181.757,671.381 181.757,671.396 181.757,671.409 C 181.757,671.417 181.757,671.427 181.757,671.438 C 181.758,671.464 181.76,671.497 181.766,671.535 C 181.769,671.557 181.774,671.581 181.78,671.607 C 181.784,671.624 181.789,671.641 181.794,671.659 C 181.799,671.675 181.805,671.692 181.811,671.708 C 181.815,671.72 181.82,671.731 181.826,671.742 C 181.832,671.758 181.839,671.773 181.847,671.788 C 181.853,671.8 181.86,671.812 181.867,671.824 C 181.882,671.849 181.899,671.875 181.918,671.901 C 181.925,671.91 181.932,671.919 181.939,671.928 C 181.949,671.94 181.959,671.951 181.97,671.963 C 181.975,671.969 181.98,671.975 181.986,671.98 C 182.07,672.064 182.163,672.126 182.26,672.171 C 182.275,672.177 182.291,672.183 182.306,672.19 C 182.322,672.196 182.337,672.201 182.352,672.206 C 182.369,672.212 182.387,672.217 182.403,672.222 C 182.419,672.226 182.435,672.23 182.451,672.234 C 182.467,672.238 182.483,672.241 182.499,672.244 C 182.517,672.247 182.534,672.25 182.551,672.252 C 182.569,672.254 182.587,672.256 182.604,672.258 C 182.637,672.261 182.67,672.262 182.701,672.262 C 182.712,672.262 182.722,672.262 182.733,672.262 C 182.757,672.261 182.779,672.261 182.802,672.259 C 182.818,672.258 182.833,672.257 182.848,672.256 C 182.876,672.253 182.904,672.249 182.93,672.245 C 182.954,672.242 182.976,672.238 182.998,672.234 C 183.03,672.227 183.06,672.22 183.086,672.213 C 183.104,672.208 183.12,672.203 183.135,672.199 C 183.157,672.193 183.176,672.187 183.19,672.182 C 183.215,672.173 183.229,672.168 183.229,672.168 C 183.251,672.16 183.273,672.151 183.295,672.143 C 183.324,672.131 183.351,672.118 183.378,672.107 C 183.4,672.096 183.421,672.086 183.441,672.077 C 183.457,672.069 183.472,672.061 183.486,672.054 C 183.511,672.04 183.532,672.029 183.549,672.02 L 183.596,671.994 L 183.596,672.441 C 183.596,672.441 183.568,672.452 183.52,672.47 C 183.498,672.479 183.473,672.488 183.445,672.498 C 183.429,672.504 183.412,672.51 183.394,672.516 C 183.38,672.52 183.366,672.526 183.35,672.531 C 183.334,672.536 183.316,672.542 183.298,672.547 C 183.285,672.551 183.271,672.556 183.258,672.559 L 183.245,672.563 C 183.232,672.566 183.219,672.57 183.205,672.574 C 183.189,672.578 183.172,672.583 183.156,672.587 C 183.145,672.589 183.134,672.592 183.124,672.594 C 183.105,672.598 183.088,672.602 183.07,672.606 C 183.051,672.61 183.032,672.613 183.014,672.617"
           id="path27227" />
        <g
           transform="translate(178.0587,671.2418)"
           id="g27229">
          <path
             style="fill:#ffffff;fill-rule:nonzero;stroke:none"
             d="M 0,0 L 0,-0.655 L 0.425,-0.655 C 0.425,-0.655 0.434,-0.655 0.448,-0.654 C 0.462,-0.654 0.482,-0.653 0.507,-0.651 C 0.553,-0.647 0.614,-0.638 0.673,-0.618 C 0.726,-0.6 0.778,-0.573 0.818,-0.533 C 0.833,-0.518 0.846,-0.502 0.856,-0.486 C 0.889,-0.434 0.898,-0.38 0.9,-0.35 C 0.901,-0.337 0.901,-0.329 0.901,-0.329 C 0.901,-0.329 0.901,-0.323 0.901,-0.313 C 0.9,-0.3 0.899,-0.276 0.892,-0.25 C 0.884,-0.219 0.869,-0.183 0.842,-0.149 C 0.837,-0.143 0.832,-0.137 0.826,-0.131 C 0.814,-0.119 0.801,-0.108 0.787,-0.098 C 0.764,-0.081 0.738,-0.066 0.709,-0.054 C 0.671,-0.037 0.628,-0.025 0.581,-0.016 C 0.557,-0.011 0.531,-0.008 0.505,-0.005 C 0.489,-0.004 0.473,-0.003 0.456,-0.002 C 0.442,-0.001 0.426,0 0.412,0 L 0,0 z "
             id="path27231" />
        </g>
        <g
           transform="translate(178.0587,672.238)"
           id="g27233">
          <path
             style="fill:#ffffff;fill-rule:nonzero;stroke:none"
             d="M 0,0 L 0,-0.621 L 0.206,-0.621 C 0.206,-0.621 0.22,-0.621 0.238,-0.62 C 0.252,-0.62 0.269,-0.619 0.284,-0.618 C 0.327,-0.615 0.385,-0.609 0.444,-0.593 C 0.455,-0.59 0.467,-0.586 0.478,-0.582 C 0.524,-0.566 0.568,-0.542 0.602,-0.508 C 0.63,-0.481 0.648,-0.452 0.66,-0.423 C 0.674,-0.387 0.679,-0.353 0.681,-0.329 C 0.683,-0.307 0.683,-0.294 0.683,-0.294 C 0.683,-0.294 0.684,-0.284 0.682,-0.267 C 0.681,-0.24 0.675,-0.196 0.654,-0.154 C 0.644,-0.134 0.63,-0.114 0.611,-0.095 C 0.588,-0.072 0.559,-0.055 0.529,-0.041 C 0.471,-0.016 0.405,-0.006 0.349,-0.002 C 0.325,0 0.303,0 0.284,0 L 0,0 z "
             id="path27235" />
        </g>
        <g
           transform="translate(176.6991,673.0806)"
           id="g27237">
          <path
             style="fill:#ffffff;fill-rule:nonzero;stroke:none"
             d="M 0,0 L 3.543,0 L 3.543,-3.334 L 0,-3.334 L 0,0 z M 0.93,-0.467 L 0.93,-2.869 L 1.833,-2.869 C 1.833,-2.869 2.274,-2.881 2.518,-2.638 C 2.716,-2.439 2.701,-2.21 2.701,-2.21 C 2.701,-2.21 2.716,-1.971 2.532,-1.787 C 2.376,-1.631 2.176,-1.59 2.176,-1.59 C 2.176,-1.59 2.267,-1.547 2.336,-1.478 C 2.368,-1.446 2.484,-1.341 2.484,-1.088 C 2.484,-0.834 2.314,-0.687 2.314,-0.687 C 2.314,-0.687 2.128,-0.467 1.709,-0.467 L 0.93,-0.467 z "
             id="path27239" />
        </g>
        <g
           transform="translate(173.9759,671.2418)"
           id="g27241">
          <path
             style="fill:#ffffff;fill-rule:nonzero;stroke:none"
             d="M 0,0 L 0,-0.655 L 0.426,-0.655 C 0.426,-0.655 0.434,-0.655 0.448,-0.654 C 0.462,-0.654 0.482,-0.653 0.507,-0.651 C 0.554,-0.647 0.614,-0.638 0.673,-0.618 C 0.727,-0.6 0.779,-0.573 0.818,-0.533 C 0.833,-0.518 0.846,-0.502 0.857,-0.486 C 0.89,-0.434 0.898,-0.38 0.9,-0.35 C 0.901,-0.337 0.901,-0.329 0.901,-0.329 C 0.901,-0.329 0.901,-0.323 0.901,-0.313 C 0.901,-0.3 0.899,-0.276 0.893,-0.25 C 0.884,-0.219 0.869,-0.183 0.843,-0.149 C 0.838,-0.143 0.832,-0.137 0.826,-0.131 C 0.814,-0.119 0.802,-0.108 0.788,-0.098 C 0.765,-0.081 0.738,-0.066 0.709,-0.054 C 0.671,-0.037 0.628,-0.025 0.581,-0.016 C 0.557,-0.011 0.532,-0.008 0.506,-0.005 C 0.489,-0.004 0.473,-0.003 0.456,-0.002 C 0.442,-0.001 0.426,0 0.411,0 L 0,0 z "
             id="path27243" />
        </g>
        <g
           transform="translate(173.9759,672.238)"
           id="g27245">
          <path
             style="fill:#ffffff;fill-rule:nonzero;stroke:none"
             d="M 0,0 L 0,-0.621 L 0.206,-0.621 C 0.206,-0.621 0.22,-0.621 0.238,-0.62 C 0.252,-0.62 0.269,-0.619 0.284,-0.618 C 0.327,-0.615 0.385,-0.609 0.444,-0.593 C 0.455,-0.59 0.467,-0.586 0.478,-0.582 C 0.524,-0.566 0.568,-0.542 0.603,-0.508 C 0.63,-0.481 0.648,-0.452 0.66,-0.423 C 0.675,-0.387 0.68,-0.353 0.681,-0.329 C 0.683,-0.307 0.683,-0.294 0.683,-0.294 C 0.683,-0.294 0.684,-0.284 0.683,-0.267 C 0.681,-0.24 0.676,-0.196 0.654,-0.154 C 0.644,-0.134 0.63,-0.114 0.611,-0.095 C 0.588,-0.072 0.56,-0.055 0.53,-0.041 C 0.472,-0.016 0.405,-0.006 0.349,-0.002 C 0.325,0 0.303,0 0.284,0 L 0,0 z "
             id="path27247" />
        </g>
        <path
           style="fill:#ffffff;fill-rule:nonzero;stroke:none"
           d="M 172.617,673.081 L 176.16,673.081 L 176.16,669.747 L 172.617,669.747 L 172.617,673.081 z M 173.546,672.613 L 173.546,670.212 L 174.45,670.212 C 174.45,670.212 174.891,670.199 175.134,670.443 C 175.332,670.641 175.318,670.87 175.318,670.87 C 175.318,670.87 175.332,671.11 175.149,671.293 C 174.993,671.449 174.793,671.491 174.793,671.491 C 174.793,671.491 174.883,671.533 174.953,671.603 C 174.985,671.635 175.1,671.739 175.1,671.992 C 175.1,672.247 174.931,672.394 174.931,672.394 C 174.931,672.394 174.745,672.613 174.326,672.613 L 173.546,672.613 z "
           id="path27249" />
        <g
           transform="translate(169.9727,666.4764)"
           id="g27251">
          <path
             style="fill:#ffffff;fill-rule:nonzero;stroke:none"
             d="M 0,0 L -1.803,0 L -1.803,0.947 L 2.85,0.947 L 2.85,0 L 1.047,0 L 1.047,-4.935 L 0,-4.935 L 0,0 z "
             id="path27253" />
        </g>
        <g
           transform="translate(173.8777,667.4236)"
           id="g27255">
          <path
             style="fill:#ffffff;fill-rule:nonzero;stroke:none"
             d="M 0,0 L 1.146,0 L 2.252,-4.237 L 2.268,-4.237 L 3.589,0 L 4.619,0 L 5.915,-4.237 L 5.932,-4.237 L 7.087,0 L 8.151,0 L 6.439,-5.883 L 5.442,-5.883 L 4.079,-1.404 L 4.063,-1.404 L 2.7,-5.883 L 1.736,-5.883 L 0,0 z "
             id="path27257" />
        </g>
        <g
           transform="translate(185.6089,662.3387)"
           id="g27259">
          <path
             style="fill:#ffffff;fill-rule:nonzero;stroke:none"
             d="M 0,0 C 1.221,0 2.027,0.93 2.027,2.185 C 2.027,3.356 1.221,4.287 0,4.287 C -1.213,4.287 -2.019,3.356 -2.019,2.185 C -2.019,0.93 -1.213,0 0,0 M -0.008,5.235 C 1.828,5.268 3.124,4.038 3.124,2.152 C 3.124,0.315 1.828,-0.914 -0.008,-0.947 C -1.82,-0.947 -3.116,0.282 -3.116,2.119 C -3.116,4.005 -1.82,5.235 -0.008,5.235"
             id="path27261" />
        </g>
      </g>
    </g>
    <g
       style="fill-rule:evenodd"
       id="g3070"
       transform="matrix(2.9408188,0,0,2.9408188,-340.86285,1118.597)">
      <g
         transform="translate(-3.4394046,13.0473)"
         id="Layer_x0020_1">
  <metadata
   id="CorelCorpID_0Corel-Layer" />

  <rect
   transform="translate(3.4394,1.2666)"
   y="31.790493"
   x="36.542137"
   height="47.605785"
   width="227.8277"
   id="rect2392"
   style="fill:#ffffff;fill-opacity:1;fill-rule:nonzero;stroke:none" />

  <sodipodi:namedview
   inkscape:current-layer="svg2413"
   inkscape:window-y="-8"
   inkscape:window-x="-8"
   inkscape:cy="-22.75906"
   inkscape:cx="1329.6704"
   inkscape:zoom="0.25612053"
   id="base"
   pagecolor="#ffffff"
   bordercolor="#666666"
   borderopacity="1.0"
   objecttolerance="10.0"
   gridtolerance="10.0"
   guidetolerance="10.0"
   inkscape:pageopacity="0.0"
   inkscape:pageshadow="2"
   inkscape:window-width="1280"
   inkscape:window-height="974" />

 </g>
      <g
         transform="matrix(0.11824419,0,0,0.11824419,67.030938,-272.80273)"
         id="layer1-7">
        <g
           transform="matrix(1.5730708,0,0,1.5730708,588.02291,-385.20449)"
           id="g2890">
          <path
             style="fill:#ffffff;fill-rule:nonzero;stroke:none"
             id="path15603"
             d="m 251.02923,1066.9985 4.473,-4.13 -0.028,31.192 -4.445,-4.704 0,-8.848 -17.542,0 0,13.587 -4.466,-4.697 0,-22.386 4.466,-4.144 0,13.496 17.542,0 0,-9.366 z"
             inkscape:connector-curvature="0" />
          <path
             style="fill:#ffffff;fill-rule:nonzero;stroke:none"
             id="path15607"
             d="m 255.47423,1094.0465 0,0 4.473,-3.983 5.684,0 c 2.233,0 3.969,-0.147 5.208,-0.434 1.246,-0.315 2.268,-0.7 3.094,-1.162 0.833,-0.483 1.582,-1.071 2.275,-1.75 2.205,-2.233 3.304,-5.061 3.304,-8.477 0,-3.353 -1.134,-6.083 -3.395,-8.19 -0.833,-0.791 -1.792,-1.449 -2.884,-1.953 -1.071,-0.511 -2.093,-0.84 -3.066,-1.001 -0.959,-0.161 -2.513,-0.245 -4.669,-0.245 l -5.579,0 -4.431,-3.983 10.486,0 c 4.242,0 7.609,0.644 10.073,1.918 2.478,1.274 4.445,3.143 5.908,5.621 1.449,2.471 2.191,5.166 2.191,8.092 0,2.079 -0.413,4.074 -1.211,5.985 -0.812,1.904 -1.96,3.584 -3.444,5.033 -1.512,1.491 -3.283,2.611 -5.292,3.367 -1.176,0.462 -2.268,0.777 -3.241,0.938 -0.98,0.154 -2.863,0.224 -5.642,0.224 l -9.842,0 9.842,0 c 2.779,0 4.662,-0.07 5.642,-0.224 0.973,-0.161 2.065,-0.476 3.241,-0.938 2.009,-0.756 3.78,-1.876 5.292,-3.367 1.484,-1.449 2.632,-3.129 3.444,-5.033 0.798,-1.911 1.211,-3.906 1.211,-5.985 0,-2.926 -0.742,-5.621 -2.191,-8.092 -1.463,-2.478 -3.43,-4.347 -5.908,-5.621 -2.464,-1.274 -5.831,-1.918 -10.073,-1.918 l -10.486,0 4.431,3.983 5.579,0 c 2.156,0 3.71,0.084 4.669,0.245 0.973,0.161 1.995,0.49 3.066,1.001 1.092,0.504 2.051,1.162 2.884,1.953 2.261,2.107 3.395,4.837 3.395,8.19 0,3.416 -1.099,6.244 -3.304,8.477 -0.693,0.679 -1.442,1.267 -2.275,1.75 -0.826,0.462 -1.848,0.847 -3.094,1.162 -1.239,0.287 -2.975,0.434 -5.208,0.434 l -5.684,0 -4.473,3.983 z"
             inkscape:connector-curvature="0" />
          <path
             style="fill:#ffffff;fill-rule:nonzero;stroke:none"
             id="path15611"
             d="m 255.47423,1094.0465 4.473,-3.983 5.684,0 c 2.233,0 3.969,-0.147 5.208,-0.434 1.246,-0.315 2.268,-0.7 3.094,-1.162 0.833,-0.483 1.582,-1.071 2.275,-1.75 2.205,-2.233 3.304,-5.061 3.304,-8.477 0,-3.353 -1.134,-6.083 -3.395,-8.19 -0.833,-0.791 -1.792,-1.449 -2.884,-1.953 -1.071,-0.511 -2.093,-0.84 -3.066,-1.001 -0.959,-0.161 -2.513,-0.245 -4.669,-0.245 l -5.579,0 -4.431,-3.983 10.486,0 c 4.242,0 7.609,0.644 10.073,1.918 2.478,1.274 4.445,3.143 5.908,5.621 1.449,2.471 2.191,5.166 2.191,8.092 0,2.079 -0.413,4.074 -1.211,5.985 -0.812,1.904 -1.96,3.584 -3.444,5.033 -1.512,1.491 -3.283,2.611 -5.292,3.367 -1.176,0.462 -2.268,0.777 -3.241,0.938 -0.98,0.154 -2.863,0.224 -5.642,0.224 l -9.842,0 z"
             inkscape:connector-curvature="0" />
          <path
             style="fill:#407c89;fill-opacity:1;fill-rule:nonzero;stroke:none"
             id="path15615"
             d="m 259.94723,1066.8795 -4.466,-4.011 0,31.178 4.466,-3.983 0,-9.555 0,-4.144 0,-9.485 z"
             inkscape:connector-curvature="0" />
          <path
             style="fill:#407c89;fill-opacity:1;fill-rule:nonzero;stroke:none"
             id="path15619"
             d="m 233.48023,1080.5085 -0.014,13.566 4.473,-4.025 -0.014,-9.541 -4.445,0 z"
             inkscape:connector-curvature="0" />
          <path
             style="fill:#407c89;fill-opacity:1;fill-rule:nonzero;stroke:none"
             id="path15623"
             d="m 238.04423,1076.3645 -0.084,-9.352 -4.473,-4.144 0,13.496 4.557,0 z"
             inkscape:connector-curvature="0" />
        </g>
      </g>
    </g>
  </g>
</svg>
