<?xml version="1.0" encoding="UTF-8" standalone="no"?>
<!-- Created with Inkscape (http://www.inkscape.org/) -->

<svg
   xmlns:dc="http://purl.org/dc/elements/1.1/"
   xmlns:cc="http://creativecommons.org/ns#"
   xmlns:rdf="http://www.w3.org/1999/02/22-rdf-syntax-ns#"
   xmlns:svg="http://www.w3.org/2000/svg"
   xmlns="http://www.w3.org/2000/svg"
   xmlns:sodipodi="http://sodipodi.sourceforge.net/DTD/sodipodi-0.dtd"
   xmlns:inkscape="http://www.inkscape.org/namespaces/inkscape"
   version="1.0"
   width="488.57672"
   height="95.916008"
   id="svg5784"
   inkscape:version="0.48.4 r9939"
   sodipodi:docname="tv.bloomberg.svg">
  <sodipodi:namedview
     pagecolor="#ffffff"
     bordercolor="#666666"
     borderopacity="1"
     objecttolerance="10"
     gridtolerance="10"
     guidetolerance="10"
     inkscape:pageopacity="0"
     inkscape:pageshadow="2"
     inkscape:window-width="1600"
     inkscape:window-height="837"
     id="namedview41"
     showgrid="false"
     fit-margin-top="0"
     fit-margin-left="0"
     fit-margin-right="0"
     fit-margin-bottom="0"
     inkscape:zoom="0.72143332"
     inkscape:cx="243.92486"
     inkscape:cy="41.338231"
     inkscape:window-x="-8"
     inkscape:window-y="-8"
     inkscape:window-maximized="1"
     inkscape:current-layer="svg5784" />
  <metadata
     id="metadata42">
    <rdf:RDF>
      <cc:Work
         rdf:about="">
        <dc:format>image/svg+xml</dc:format>
        <dc:type
           rdf:resource="http://purl.org/dc/dcmitype/StillImage" />
        <dc:title />
      </cc:Work>
    </rdf:RDF>
  </metadata>
  <defs
     id="defs5786">
    <style
       type="text/css"
       id="style3023" />
  </defs>
  <path
     inkscape:connector-curvature="0"
     style="fill:#fab000;fill-opacity:1"
     id="path3029"
     d="m 0,0 20.6427,0 c 11.35399,0 15.4824,1.04424 20.643437,7.30666 3.097195,3.13122 4.128387,7.30594 4.128387,11.48064 0,5.21894 -2.064564,9.39364 -8.257515,12.52485 C 48.511,35.48612 48.511,44.88051 48.511,48.01172 c 0,5.21894 -2.064564,11.48064 -6.192951,14.61185 C 36.1251,67.84251 33.02862,68.886 21.67535,68.886 L 0,68.88527 0,0 z m 17.54694,26.09396 5.16032,0 c 2.06457,0 6.19295,0 6.19295,-5.21894 0,-5.21893 -4.12838,-5.21821 -6.19295,-5.21821 l -5.16032,-7.2e-4 0,10.43787 z m 0,27.1367 7.22489,0 c 2.06382,0 7.22486,0 7.22486,-6.26242 0,-6.26318 -5.16104,-6.26243 -7.22486,-6.26243 l -7.22489,-7.5e-4 0,12.5256 z" />
  <path
     inkscape:connector-curvature="0"
     style="fill:#fab000;fill-opacity:1;fill-rule:evenodd;stroke:none"
     id="path5858"
     d="m 53.56305,0.00304927 15.3178,0 0,68.88649973 -15.3178,0 0,-68.88649973 z" />
  <g
     style="fill:#fab000;fill-opacity:1"
     id="g5864"
     transform="matrix(17.46615,0,0,-17.46615,160.72485,56.137509)">
    <path
       inkscape:connector-curvature="0"
       style="fill:#fab000;fill-opacity:1;fill-rule:evenodd;stroke:none"
       id="path5866"
       d="M 0,0 C 0.365,0 0.73,0.365 0.73,0.73 0.73,1.242 0.365,1.534 0,1.534 -0.365,1.534 -0.73,1.242 -0.73,0.73 -0.73,0.365 -0.365,0 0,0 m 0,2.337 c 1.096,0 1.607,-0.803 1.607,-1.607 0,-0.657 -0.511,-1.533 -1.607,-1.533 -1.096,0 -1.607,0.876 -1.607,1.533 0,0.804 0.511,1.607 1.607,1.607" />
  </g>
  <g
     style="fill:#fab000;fill-opacity:1"
     id="g5868"
     transform="matrix(17.46615,0,0,-17.46615,192.61629,16.592399)">
    <path
       inkscape:connector-curvature="0"
       style="fill:#fab000;fill-opacity:1;fill-rule:evenodd;stroke:none"
       id="path5870"
       d="m 0,0 0.803,0 0,-0.365 c 0.073,0.146 0.293,0.438 0.804,0.438 0.292,0 0.657,-0.073 0.876,-0.511 0.219,0.292 0.512,0.511 0.95,0.511 0.219,0 0.584,0 0.803,-0.292 0.292,-0.292 0.292,-0.511 0.292,-1.169 l 0,-1.607 -0.876,0 0,1.607 c 0,0.219 0,0.658 -0.438,0.658 -0.512,0 -0.512,-0.439 -0.512,-0.658 l 0,-1.607 -0.876,0 0,1.607 c 0,0.219 0,0.658 -0.438,0.658 -0.512,0 -0.512,-0.512 -0.512,-0.658 l 0,-1.607 L 0,-2.995 0,0 z" />
  </g>
  <g
     style="fill:#fab000;fill-opacity:1"
     id="g5872"
     transform="matrix(17.46615,0,0,-17.46615,306.15152,56.137509)">
    <path
       inkscape:connector-curvature="0"
       style="fill:#fab000;fill-opacity:1;fill-rule:evenodd;stroke:none"
       id="path5874"
       d="M 0,0 C 0.438,0 0.73,0.365 0.73,0.73 0.73,1.169 0.438,1.534 0,1.534 -0.438,1.534 -0.73,1.169 -0.73,0.73 -0.73,0.365 -0.438,0 0,0 m -1.607,3.214 0.95,0 0,-1.242 c 0.292,0.365 0.73,0.365 0.803,0.365 0.657,0 1.461,-0.4355716 1.461,-1.534 0,-1.09743064 -0.731,-1.606 -1.461,-1.606 -0.438,0 -0.73,0.219 -0.876,0.365 l 0,-0.292 -0.877,0 z" />
  </g>
  <g
     style="fill:#fab000;fill-opacity:1"
     id="g5876"
     transform="matrix(17.46615,0,0,-17.46615,378.86834,37.003339)">
    <path
       inkscape:connector-curvature="0"
       style="fill:#fab000;fill-opacity:1;fill-rule:evenodd;stroke:none"
       id="path5878"
       d="M 0,0 C 0,0.146 -0.219,0.511 -0.658,0.511 -1.096,0.511 -1.315,0.146 -1.388,0 L 0,0 z M 0.803,-0.876 C 0.657,-1.242 0.438,-1.461 0.146,-1.68 c -0.219,-0.146 -0.511,-0.219 -0.804,-0.219 -0.876,0 -1.606,0.657 -1.606,1.534 0,0.876 0.657,1.607 1.534,1.607 0.949,0 1.606,-0.731 1.606,-1.607 l 0,-0.219 -2.264,0 c 0.073,-0.365 0.366,-0.585 0.73,-0.585 0.293,0 0.439,0.146 0.512,0.293 l 0.949,0 z" />
  </g>
  <g
     style="fill:#fab000;fill-opacity:1"
     id="g5880"
     transform="matrix(17.46615,0,0,-17.46615,400.55256,16.592399)">
    <path
       inkscape:connector-curvature="0"
       style="fill:#fab000;fill-opacity:1;fill-rule:evenodd;stroke:none"
       id="path5882"
       d="m 0,0 0.803,0 0,-0.365 C 0.95,-0.219 1.315,0 1.68,-0.073 l 0,-0.803 c -0.365,0 -0.803,0 -0.803,-0.512 l 0,-1.607 L 0,-2.995 0,0 z" />
  </g>
  <g
     style="fill:#fab000;fill-opacity:1"
     id="g5884"
     transform="matrix(17.46615,0,0,-17.46615,460.50861,56.137509)">
    <path
       inkscape:connector-curvature="0"
       style="fill:#fab000;fill-opacity:1;fill-rule:evenodd;stroke:none"
       id="path5886"
       d="M 0,0 C 0.438,0 0.657,0.28595834 0.657,0.73 0.657,1.2471779 0.365,1.534 0,1.534 -0.365,1.534 -0.73,1.242 -0.73,0.73 -0.73,0.292 -0.365,0 0,0 m 1.607,-0.365 c 0,-0.438 -0.079501,-1.0188024 -0.219,-1.242 -0.2255991,-0.3609585 -0.73302435,-0.747997 -1.461,-0.657 -1.0244038,0.1280505 -1.315,0.584 -1.388,1.022 l 0.95,0 c 0.146,-0.219 0.40776241,-0.292 0.511,-0.292 0.44404166,0 0.73,0.073 0.657,1.023 l 0,0.073 c -0.073,-0.146 -0.292,-0.365 -0.803,-0.365 -0.804,0 -1.461,0.584 -1.461,1.533 0,1.023 0.731,1.607 1.461,1.607 0.365,0 0.657,-0.073 0.803,-0.365 l 0,0.292 0.95,0 z" />
  </g>
  <g
     style="fill:#fab000;fill-opacity:1"
     id="g3149"
     transform="matrix(17.46615,0,0,-17.46615,100.7691,56.137681)">
    <path
       inkscape:connector-curvature="0"
       style="fill:#fab000;fill-opacity:1;fill-rule:evenodd;stroke:none"
       id="path3151"
       d="M 0,0 C 0.365,0 0.73,0.365 0.73,0.73 0.73,1.242 0.365,1.534 0,1.534 -0.365,1.534 -0.73,1.242 -0.73,0.73 -0.73,0.365 -0.365,0 0,0 m 0,2.337 c 1.096,0 1.607,-0.803 1.607,-1.607 0,-0.657 -0.511,-1.533 -1.607,-1.533 -1.096,0 -1.607,0.876 -1.607,1.533 0,0.804 0.511,1.607 1.607,1.607" />
  </g>
</svg>
