<?xml version="1.0" encoding="UTF-8" standalone="no"?>
<svg
   xmlns:dc="http://purl.org/dc/elements/1.1/"
   xmlns:cc="http://creativecommons.org/ns#"
   xmlns:rdf="http://www.w3.org/1999/02/22-rdf-syntax-ns#"
   xmlns:svg="http://www.w3.org/2000/svg"
   xmlns="http://www.w3.org/2000/svg"
   xmlns:sodipodi="http://sodipodi.sourceforge.net/DTD/sodipodi-0.dtd"
   xmlns:inkscape="http://www.inkscape.org/namespaces/inkscape"
   viewBox="0 0 571.6849975585938 419.9490051269531"
   id="svg2"
   version="1.1"
   inkscape:version="0.48.4 r9939"
   width="100%"
   height="100%"
   sodipodi:docname="tv.bbcfour.svg">
  <metadata
     id="metadata77">
    <rdf:RDF>
      <cc:Work
         rdf:about="">
        <dc:format>image/svg+xml</dc:format>
        <dc:type
           rdf:resource="http://purl.org/dc/dcmitype/StillImage" />
        <dc:title />
      </cc:Work>
    </rdf:RDF>
  </metadata>
  <defs
     id="defs75" />
  <sodipodi:namedview
     pagecolor="#ffffff"
     bordercolor="#666666"
     borderopacity="1"
     objecttolerance="10"
     gridtolerance="10"
     guidetolerance="10"
     inkscape:pageopacity="0"
     inkscape:pageshadow="2"
     inkscape:window-width="1600"
     inkscape:window-height="837"
     id="namedview73"
     showgrid="false"
     inkscape:zoom="0.56197299"
     inkscape:cx="285.8425"
     inkscape:cy="209.9745"
     inkscape:window-x="-8"
     inkscape:window-y="-8"
     inkscape:window-maximized="1"
     inkscape:current-layer="svg2" />
  <desc
     id="desc6" />
  <g
     id="g3021">
    <g
       id="{d4}1">
      <title
         id="title9">g1</title>
      <desc
         id="desc11" />
      <rect
         id="{d4}13"
         height="419.949"
         width="571.685">
        <title
           id="title14">rectangle1</title>
        <desc
           id="desc16" />
      </rect>
    </g>
    <polyline
       id="{d4}2"
       points="133.519,195.676 69.135,195.676 69.135,316.297 86.472,316.297 86.472,260.228   133.519,260.228 133.519,244.663 86.472,244.663 86.472,211.24 133.519,211.24 133.519,195.676 "
       style="fill:#FFFFFF;">
      <title
         id="title19">polyline1</title>
      <desc
         id="desc21" />
    </polyline>
    <path
       id="{d4}3"
       d="M167.965,255.99c0-26.535,19.983-45.987,46.868-45.987c27.06,0,47.05,19.452,47.05,45.987  c0,26.346-19.99,45.98-47.05,45.98C187.949,301.971,167.965,282.336,167.965,255.99 M150.101,255.99  c0,32.716,24.938,61.895,64.376,61.895c40.855,0,65.261-29.354,65.261-61.895c0-33.611-25.109-61.909-64.905-61.909  C175.741,194.082,150.101,222.561,150.101,255.99z"
       style="fill:#FFFFFF;">
      <title
         id="title24">path1</title>
      <desc
         id="desc26" />
    </path>
    <path
       id="{d4}4"
       d="M398.72,195.676h-17.326v70.208c0,11.327-1.427,20.165-7.607,26.36  c-5.482,5.482-15.033,9.727-28.298,9.727c-10.439,0-19.103-3.356-26.004-10.265c-5.481-5.476-7.258-11.139-7.258-24.76v-71.271  h-17.326v74.99c0,32.892,24.767,47.219,50.231,47.219c35.905,0,53.588-19.452,53.588-48.987V195.676"
       style="fill:#FFFFFF;">
      <title
         id="title29">path2</title>
      <desc
         id="desc31" />
    </path>
    <path
       id="{d4}5"
       d="M440.198,210.527h11.139c16.795,0,23.515,6.894,23.689,18.221  c0.182,10.083-5.125,19.627-23.689,19.627h-11.139V210.527 M422.857,195.676v120.621h17.341v-52.35h7.244  c8.838,0,16.096,2.824,32.01,27.591l15.914,24.759h20.697c-8.314-11.495-11.313-15.564-16.446-23.878  c-9.194-15.04-15.914-26.179-26.878-33.43c12.908-5.125,20.159-15.558,20.159-29.534c0-20.865-15.215-33.779-39.625-33.779H422.857z  "
       style="fill:#FFFFFF;">
      <title
         id="title34">path3</title>
      <desc
         id="desc36" />
    </path>
    <path
       id="{d4}6"
       d="M332.393,94.863h71.376v67.167h-71.376V94.863z M377.359,104.211  c-0.314-0.056-0.629-0.105-0.972-0.161l-0.377-0.056c-0.546-0.07-1.105-0.133-1.657-0.189c-0.385-0.042-0.763-0.063-1.14-0.091  c-0.686-0.042-1.343-0.056-1.986-0.056c-0.294,0-0.461,0.007-0.748,0.007c-0.538,0.014-1.062,0.042-1.587,0.07  c-0.294,0.014-0.573,0.049-0.867,0.077c-0.427,0.035-0.854,0.077-1.259,0.133l-0.35,0.042l-0.378,0.056l-0.475,0.084  c-0.21,0.028-0.406,0.063-0.616,0.098c-0.279,0.056-0.559,0.112-0.839,0.175c-1.685,0.35-3.258,0.825-4.698,1.392  c-0.741,0.287-1.462,0.601-2.14,0.937c-0.573,0.28-1.112,0.56-1.637,0.867c-0.503,0.293-1.007,0.594-1.475,0.902  c-0.266,0.189-0.524,0.371-0.79,0.552c-0.225,0.161-0.441,0.322-0.657,0.482c-0.448,0.356-0.882,0.706-1.294,1.063  c-0.385,0.35-0.762,0.692-1.104,1.035c-0.301,0.301-0.595,0.602-0.874,0.916c-0.28,0.322-0.573,0.644-0.84,0.979  c-0.308,0.364-0.587,0.741-0.866,1.125c-0.21,0.294-0.42,0.587-0.615,0.881c-0.126,0.203-0.252,0.405-0.385,0.615  c-0.748,1.216-1.405,2.517-1.938,3.901c-0.657,1.741-1.146,3.601-1.412,5.587c-0.084,0.622-0.14,1.259-0.182,1.902  c-0.028,0.497-0.049,1-0.049,1.517c0,0.378,0,0.755,0.021,1.133c0.028,0.385,0.07,0.776,0.112,1.161l0.028,0.266  c0.049,0.455,0.125,0.902,0.209,1.336c0.028,0.182,0.07,0.342,0.105,0.517c0.077,0.371,0.175,0.728,0.259,1.091  c0.126,0.461,0.266,0.916,0.405,1.356c0.182,0.545,0.378,1.077,0.602,1.601c0.343,0.812,0.713,1.608,1.125,2.343  c0.231,0.44,0.482,0.867,0.734,1.279c0.203,0.322,0.42,0.636,0.63,0.944c0.279,0.399,0.573,0.791,0.853,1.161  c0.308,0.384,0.615,0.755,0.923,1.098c0.378,0.44,0.756,0.839,1.133,1.216l0.196,0.189c0.314,0.293,0.636,0.615,1.021,0.937  c0.259,0.224,0.531,0.461,0.832,0.692c0.266,0.209,0.553,0.426,0.854,0.65c0.363,0.259,0.733,0.511,1.14,0.776  c0.426,0.272,0.881,0.545,1.35,0.811c0.943,0.531,1.985,1.042,3.125,1.496c0.434,0.175,0.867,0.336,1.328,0.497  c0.462,0.154,0.924,0.301,1.406,0.434c0.817,0.238,1.685,0.448,2.594,0.623c0.728,0.14,1.482,0.258,2.272,0.35  c0.783,0.098,1.587,0.174,2.426,0.216c0.406,0.014,0.825,0.035,1.245,0.035c0.188,0.007,0.385,0.007,0.573,0.007  c1.511,0,2.895-0.049,4.182-0.161l0.251-0.021c0.518-0.042,1.007-0.098,1.482-0.161c0.741-0.091,1.44-0.196,2.112-0.315  c0.419-0.077,0.817-0.154,1.216-0.245c0.616-0.126,1.203-0.28,1.763-0.419c0.405-0.105,0.804-0.224,1.182-0.335  c0.469-0.147,0.916-0.294,1.321-0.434l0.412-0.14c0.203-0.077,0.469-0.175,0.805-0.3c0.427-0.168,0.943-0.371,1.538-0.623  c0.35-0.161,0.728-0.322,1.119-0.503c0.356-0.161,0.72-0.335,1.091-0.518c0.153-0.077,0.308-0.146,0.468-0.224v-9.16  c-0.104,0.063-0.217,0.133-0.328,0.196l-0.63,0.377c-0.629,0.385-1.23,0.741-1.831,1.07c-0.672,0.364-1.322,0.692-1.958,1  c-1.14,0.531-2.224,0.979-3.272,1.356c-2,0.72-3.832,1.175-5.454,1.454c-0.188,0.035-0.378,0.063-0.56,0.098  c-0.447,0.07-0.874,0.119-1.286,0.168c-0.644,0.07-1.23,0.104-1.762,0.133c-0.35,0.014-0.672,0.021-0.979,0.021  c-0.65,0-1.314-0.014-2-0.07c-0.79-0.056-1.607-0.14-2.433-0.279c-1.314-0.224-2.644-0.553-3.943-1.028  c-0.196-0.07-0.385-0.147-0.588-0.231c-0.111-0.042-0.237-0.098-0.363-0.147c-0.21-0.091-0.42-0.182-0.637-0.287  c-0.454-0.203-0.895-0.434-1.321-0.685c-0.217-0.119-0.427-0.245-0.657-0.385c-0.21-0.133-0.434-0.279-0.644-0.426  c-0.266-0.189-0.531-0.377-0.783-0.581c-0.251-0.196-0.51-0.405-0.727-0.587l-0.301-0.272l-0.147-0.14l-0.083-0.091l-0.119-0.098  c-0.413-0.419-0.79-0.825-1.133-1.238c-0.188-0.23-0.371-0.468-0.538-0.699c-0.183-0.224-0.336-0.454-0.476-0.685  c-0.147-0.217-0.273-0.427-0.406-0.643c-0.195-0.315-0.356-0.644-0.517-0.965c-0.133-0.272-0.259-0.552-0.378-0.818  c-0.196-0.469-0.363-0.93-0.504-1.371c-0.111-0.342-0.202-0.685-0.293-1.014c-0.231-0.951-0.364-1.832-0.42-2.573  c-0.035-0.293-0.056-0.552-0.062-0.797c-0.015-0.371-0.028-0.686-0.028-0.944c0-0.161,0.007-0.356,0.014-0.58  c0.021-0.518,0.057-1.182,0.175-1.937c0.07-0.461,0.161-0.951,0.28-1.468c0.084-0.343,0.175-0.685,0.293-1.049  c0.099-0.329,0.21-0.657,0.336-0.993c0.091-0.217,0.196-0.448,0.28-0.678c0.14-0.308,0.293-0.616,0.454-0.937  c0.119-0.231,0.252-0.469,0.385-0.707c0.308-0.517,0.643-1.042,1.034-1.559c0.141-0.175,0.28-0.364,0.434-0.545  c0.196-0.23,0.406-0.468,0.615-0.706c0.099-0.112,0.21-0.238,0.322-0.343c1.678-1.685,3.565-2.937,5.523-3.832  c0.308-0.133,0.615-0.259,0.916-0.378c0.314-0.133,0.622-0.237,0.938-0.342c0.342-0.119,0.691-0.224,1.014-0.315  c0.321-0.091,0.657-0.167,0.972-0.245c0.328-0.077,0.65-0.14,0.965-0.196c0.356-0.063,0.721-0.119,1.07-0.161  c0.35-0.056,0.699-0.091,1.049-0.119c0.671-0.056,1.328-0.091,1.964-0.091c0.203,0,0.42,0,0.637,0.007  c0.476,0.014,0.937,0.028,1.385,0.056c0.308,0.021,0.629,0.042,0.923,0.07c0.573,0.049,1.133,0.126,1.664,0.203  c0.476,0.07,0.937,0.154,1.356,0.238c0.657,0.133,1.259,0.279,1.797,0.419c0.35,0.084,0.671,0.188,0.965,0.272  c0.454,0.14,0.825,0.252,1.126,0.35c0.503,0.182,0.783,0.28,0.783,0.28c0.447,0.168,0.895,0.343,1.321,0.518  c0.58,0.23,1.14,0.482,1.671,0.72c0.44,0.203,0.867,0.413,1.259,0.601c0.329,0.161,0.637,0.322,0.923,0.469  c0.504,0.259,0.93,0.496,1.272,0.685l0.931,0.51v-8.999c0,0-0.566-0.231-1.531-0.595c-0.42-0.161-0.931-0.356-1.511-0.559  c-0.314-0.112-0.65-0.238-1.007-0.356c-0.294-0.098-0.588-0.196-0.881-0.294c-0.35-0.119-0.699-0.23-1.07-0.335  c-0.272-0.084-0.538-0.168-0.817-0.245l-0.238-0.07c-0.266-0.077-0.545-0.154-0.811-0.224c-0.336-0.084-0.657-0.175-0.993-0.259  c-0.224-0.049-0.44-0.098-0.657-0.161c-0.35-0.077-0.714-0.154-1.077-0.231C378.122,104.344,377.737,104.274,377.359,104.211z"
       style="fill:#FFFFFF;">
      <title
         id="title39">path4</title>
      <desc
         id="desc41" />
    </path>
    <path
       id="{d4}7"
       d="M277.543,131.9v13.201h8.569c0,0,0.175-0.007,0.454-0.014c0.28-0.007,0.692-0.028,1.188-0.07  c0.938-0.091,2.161-0.252,3.343-0.665c1.077-0.356,2.126-0.902,2.923-1.699c0.308-0.308,0.56-0.629,0.769-0.951  c0.672-1.062,0.847-2.14,0.882-2.755c0.021-0.259,0.014-0.413,0.014-0.413s0.007-0.119,0-0.322  c-0.007-0.258-0.035-0.755-0.168-1.279c-0.168-0.622-0.469-1.356-1.007-2.014c-0.098-0.133-0.21-0.259-0.329-0.371  c-0.244-0.238-0.496-0.469-0.762-0.678c-0.476-0.343-1.014-0.636-1.594-0.895c-0.77-0.329-1.637-0.581-2.588-0.755  c-0.475-0.091-0.992-0.167-1.523-0.209c-0.322-0.035-0.644-0.056-0.986-0.077c-0.287-0.014-0.595-0.028-0.902-0.028  C282.784,131.907,277.543,131.9,277.543,131.9"
       style="fill:#FFFFFF;">
      <title
         id="title44">path5</title>
      <desc
         id="desc46" />
    </path>
    <path
       id="{d4}8"
       d="M277.543,111.84v12.502h4.143c0,0,0.28,0,0.644-0.007c0.293-0.007,0.629-0.028,0.937-0.042  c0.853-0.063,2.041-0.182,3.216-0.511c0.231-0.07,0.462-0.14,0.686-0.217c0.937-0.335,1.818-0.818,2.51-1.496  c0.553-0.539,0.909-1.14,1.147-1.72c0.301-0.713,0.398-1.405,0.44-1.888c0.042-0.44,0.042-0.713,0.042-0.713s0-0.203-0.015-0.524  c-0.027-0.545-0.14-1.434-0.573-2.286c-0.202-0.413-0.489-0.804-0.881-1.189c-0.461-0.461-1.027-0.811-1.636-1.083  c-1.168-0.511-2.504-0.713-3.629-0.791c-0.489-0.035-0.944-0.035-1.321-0.035C282.413,111.84,277.543,111.84,277.543,111.84"
       style="fill:#FFFFFF;">
      <title
         id="title49">path6</title>
      <desc
         id="desc51" />
    </path>
    <path
       id="{d4}9"
       d="M250.155,94.863h71.372v67.167h-71.372V94.863z M268.876,104.281v48.372h18.208  c0,0,8.88,0.245,13.789-4.657c3.992-3.993,3.698-8.607,3.698-8.607s0.294-4.817-3.405-8.523c-3.146-3.139-7.159-3.979-7.159-3.979  s1.804-0.86,3.202-2.251c0.657-0.657,2.979-2.755,2.979-7.845c0-5.132-3.426-8.09-3.426-8.09s-3.741-4.419-12.181-4.419H268.876z"
       style="fill:#FFFFFF;">
      <title
         id="title54">path7</title>
      <desc
         id="desc56" />
    </path>
    <path
       id="{d4}10"
       d="M195.301,131.9v13.201h8.565c0,0,0.178-0.007,0.458-0.014c0.287-0.007,0.692-0.028,1.188-0.07  c0.937-0.091,2.154-0.252,3.342-0.665c1.073-0.356,2.125-0.902,2.923-1.699c0.314-0.308,0.562-0.629,0.772-0.951  c0.671-1.062,0.846-2.14,0.881-2.755c0.014-0.259,0.014-0.413,0.014-0.413s0.007-0.119,0-0.322  c-0.007-0.258-0.042-0.755-0.171-1.279c-0.164-0.622-0.465-1.356-1.003-2.014c-0.101-0.133-0.213-0.259-0.335-0.371  c-0.238-0.238-0.49-0.469-0.766-0.678c-0.476-0.343-1.003-0.636-1.591-0.895c-0.766-0.329-1.633-0.581-2.577-0.755  c-0.489-0.091-0.996-0.167-1.528-0.209c-0.321-0.035-0.643-0.056-0.986-0.077c-0.293-0.014-0.601-0.028-0.902-0.028  C200.542,131.907,195.301,131.9,195.301,131.9"
       style="fill:#FFFFFF;">
      <title
         id="title59">path8</title>
      <desc
         id="desc61" />
    </path>
    <path
       id="{d4}11"
       d="M195.301,111.84v12.502h4.146c0,0,0.28,0,0.644-0.007c0.287-0.007,0.633-0.028,0.934-0.042  c0.856-0.063,2.038-0.182,3.22-0.511c0.231-0.07,0.458-0.14,0.688-0.217c0.923-0.335,1.811-0.818,2.507-1.496  c0.542-0.539,0.909-1.14,1.15-1.72c0.287-0.713,0.395-1.405,0.437-1.888c0.039-0.44,0.039-0.713,0.039-0.713  s0.007-0.203-0.011-0.524c-0.028-0.545-0.143-1.434-0.57-2.286c-0.21-0.413-0.497-0.804-0.881-1.189  c-0.465-0.461-1.032-0.811-1.64-1.083c-1.168-0.511-2.507-0.713-3.633-0.791c-0.486-0.035-0.937-0.035-1.314-0.035  C200.171,111.84,195.301,111.84,195.301,111.84"
       style="fill:#FFFFFF;">
      <title
         id="title64">path9</title>
      <desc
         id="desc66" />
    </path>
    <path
       id="{d4}12"
       d="M167.909,94.863h71.369v67.167h-71.369V94.863z M186.631,104.281v48.372h18.214  c0,0,8.88,0.245,13.785-4.657c3.986-3.993,3.699-8.607,3.699-8.607s0.294-4.817-3.405-8.523c-3.143-3.139-7.167-3.979-7.167-3.979  s1.818-0.86,3.213-2.251c0.65-0.657,2.972-2.755,2.972-7.845c0-5.132-3.416-8.09-3.416-8.09s-3.737-4.419-12.194-4.419H186.631z"
       style="fill:#FFFFFF;">
      <title
         id="title69">path10</title>
      <desc
         id="desc71" />
    </path>
  </g>
</svg>
