<?xml version="1.0" encoding="UTF-8" standalone="no"?>
<!-- Generator: Adobe Illustrator 15.1.0, SVG Export Plug-In . SVG Version: 6.00 Build 0)  -->

<svg
   xmlns:dc="http://purl.org/dc/elements/1.1/"
   xmlns:cc="http://creativecommons.org/ns#"
   xmlns:rdf="http://www.w3.org/1999/02/22-rdf-syntax-ns#"
   xmlns:svg="http://www.w3.org/2000/svg"
   xmlns="http://www.w3.org/2000/svg"
   xmlns:sodipodi="http://sodipodi.sourceforge.net/DTD/sodipodi-0.dtd"
   xmlns:inkscape="http://www.inkscape.org/namespaces/inkscape"
   version="1.1"
   id="Layer_1"
   x="0px"
   y="0px"
   width="238.754"
   height="60.730999"
   viewBox="0 0 238.75399 60.730998"
   enable-background="new 0 0 1190.55 841.89"
   xml:space="preserve"
   inkscape:version="0.48.1 "
   sodipodi:docname="bibigon.svg"><metadata
   id="metadata11925"><rdf:RDF><cc:Work
       rdf:about=""><dc:format>image/svg+xml</dc:format><dc:type
         rdf:resource="http://purl.org/dc/dcmitype/StillImage" /></cc:Work></rdf:RDF></metadata><defs
   id="defs11923" /><sodipodi:namedview
   pagecolor="#ffffff"
   bordercolor="#666666"
   borderopacity="1"
   objecttolerance="10"
   gridtolerance="10"
   guidetolerance="10"
   inkscape:pageopacity="0"
   inkscape:pageshadow="2"
   inkscape:window-width="640"
   inkscape:window-height="480"
   id="namedview11921"
   showgrid="false"
   fit-margin-top="4"
   fit-margin-left="4"
   fit-margin-right="4"
   fit-margin-bottom="4"
   inkscape:zoom="1.240067"
   inkscape:cx="89.013629"
   inkscape:cy="36.292687"
   inkscape:window-x="0"
   inkscape:window-y="0"
   inkscape:window-maximized="0"
   inkscape:current-layer="Layer_1" />
<linearGradient
   id="SVGID_1_"
   gradientUnits="userSpaceOnUse"
   x1="679.65143"
   y1="348.80569"
   x2="679.65143"
   y2="450.0336"
   gradientTransform="translate(-471.70201,-375.78299)">
	<stop
   offset="0"
   style="stop-color:#E50000"
   id="stop11866" />
	<stop
   offset="0.8419"
   style="stop-color:#DF0000"
   id="stop11868" />
	<stop
   offset="1"
   style="stop-color:#BC0000"
   id="stop11870" />
</linearGradient>
<rect
   x="181.14497"
   y="4"
   width="53.609001"
   height="52.730999"
   id="rect11872"
   style="fill:url(#SVGID_1_)" />
<linearGradient
   id="SVGID_2_"
   gradientUnits="userSpaceOnUse"
   x1="562.16553"
   y1="351.457"
   x2="562.16553"
   y2="462.4007"
   gradientTransform="translate(-471.70201,-375.78299)">
	<stop
   offset="0"
   style="stop-color:#0085FF"
   id="stop11875" />
	<stop
   offset="0.1646"
   style="stop-color:#0076F0"
   id="stop11877" />
	<stop
   offset="0.4837"
   style="stop-color:#004DC9"
   id="stop11879" />
	<stop
   offset="0.9219"
   style="stop-color:#000C8A"
   id="stop11881" />
	<stop
   offset="1"
   style="stop-color:#00007E"
   id="stop11883" />
</linearGradient>
<rect
   x="3.9999859"
   y="4"
   width="172.92799"
   height="52.665001"
   id="rect11885"
   style="fill:url(#SVGID_2_)" />
<path
   d="m 191.82999,50.46301 c -0.799,-0.67 -0.896,-1.861 -0.228,-2.652 l 3.794,-4.464 c 0.671,-0.798 1.856,-0.897 2.653,-0.228 l 0,0 c 0.796,0.672 0.899,1.86 0.228,2.654 l -3.794,4.463 c -0.67,0.795 -1.856,0.899 -2.653,0.227 l 0,0 z"
   id="path11887"
   inkscape:connector-curvature="0"
   style="fill:#ffffff" />
<path
   d="m 226.46899,50.26201 c 0.791,-0.672 0.888,-1.859 0.214,-2.652 l -3.778,-4.478 c -0.673,-0.793 -1.86,-0.888 -2.655,-0.215 l 0,0 c -0.792,0.676 -0.888,1.861 -0.214,2.657 l 3.778,4.478 c 0.672,0.788 1.859,0.886 2.655,0.21 l 0,0 z"
   id="path11889"
   inkscape:connector-curvature="0"
   style="fill:#ffffff" />
<path
   d="m 208.92299,45.17301 v 2.96 -2.96 c -0.018,0 -0.033,-0.005 -0.051,-0.006 -1.04,-0.018 -1.897,0.817 -1.912,1.858 l -0.03,2.406 c -0.019,1.037 0.813,1.896 1.854,1.914 1.039,0.016 1.895,-0.814 1.911,-1.854 l 0.033,-2.41 c 0.016,-1.02 -0.788,-1.862 -1.805,-1.908 z"
   id="path11891"
   inkscape:connector-curvature="0"
   style="fill:#ffffff" />
<path
   d="m 231.18599,30.95401 c 0.094,-1.035 -0.668,-1.952 -1.705,-2.046 l -2.401,-0.213 c -1.034,-0.094 -1.953,0.67 -2.049,1.708 l 0,0 c -0.097,1.036 0.671,1.954 1.708,2.047 l 2.399,0.21 c 1.032,0.097 1.953,-0.669 2.048,-1.706 l 0,0 z"
   id="path11893"
   inkscape:connector-curvature="0"
   style="fill:#ffffff" />
<path
   d="m 196.20599,18.92201 c 0.694,-0.771 0.634,-1.961 -0.138,-2.658 l -3.766,-3.391 c -0.772,-0.698 -1.963,-0.637 -2.665,0.138 l 0,0 c -0.692,0.771 -0.634,1.963 0.143,2.658 l 3.767,3.393 c 0.769,0.697 1.962,0.635 2.659,-0.14 l 0,0 z"
   id="path11895"
   inkscape:connector-curvature="0"
   style="fill:#ffffff" />
<path
   d="m 229.98399,14.16601 c -0.611,-0.838 -1.79,-1.022 -2.629,-0.409 l -4.088,2.993 c -0.844,0.613 -1.026,1.792 -0.412,2.637 l 0,0 c 0.614,0.835 1.793,1.021 2.632,0.404 l 4.091,-2.993 c 0.839,-0.61 1.024,-1.79 0.406,-2.632 l 0,0 z"
   id="path11897"
   inkscape:connector-curvature="0"
   style="fill:#ffffff" />
<path
   d="m 192.94699,32.33301 c -0.267,-1.007 -1.297,-1.603 -2.303,-1.337 l -2.326,0.622 c -1.007,0.264 -1.605,1.293 -1.342,2.304 l 0,0 c 0.268,1.005 1.299,1.604 2.305,1.337 l 2.325,-0.621 c 1.006,-0.268 1.61,-1.298 1.341,-2.305 l 0,0 z"
   id="path11899"
   inkscape:connector-curvature="0"
   style="fill:#ffffff" />
<g
   id="g11901"
   transform="translate(-471.70201,-375.78299)">
	<path
   d="M 506.572,398.932 H 495.91 v 4.896 h 4.735 c 1.707,0 3.35,0.129 5.024,1.289 1.644,1.127 2.674,2.802 2.674,5.218 0,2.255 -0.837,3.93 -1.9,4.993 -1.61,1.61 -3.446,1.836 -5.379,1.836 h -10.308 v -22.098 h 15.815 v 3.866 z m -10.662,14.366 h 4.155 c 0.773,0 1.481,-0.032 2.223,-0.773 0.709,-0.709 0.806,-1.514 0.806,-2.126 0,-0.709 -0.193,-1.417 -0.806,-2.029 -0.741,-0.741 -1.675,-0.806 -2.352,-0.806 h -4.026 v 5.734 z"
   id="path11903"
   inkscape:connector-curvature="0"
   style="fill:#ffffff" />
	<path
   d="m 517.362,395.066 v 11.468 c 0,1.514 -0.129,2.448 -0.161,2.738 0.226,-0.838 0.676,-1.676 0.869,-1.997 l 6.668,-10.63 v -1.579 h 5.154 v 22.098 h -5.154 v -11.5 c 0,-1.546 0.097,-2.479 0.161,-2.866 -0.193,0.644 -0.612,1.578 -0.87,1.997 l -6.667,10.598 v 1.771 h -5.154 v -22.098 h 5.154 z"
   id="path11905"
   inkscape:connector-curvature="0"
   style="fill:#ffffff" />
	<path
   d="m 550.216,398.932 h -10.661 v 4.896 h 4.734 c 1.708,0 3.351,0.129 5.025,1.289 1.643,1.127 2.674,2.802 2.674,5.218 0,2.255 -0.838,3.93 -1.9,4.993 -1.611,1.61 -3.447,1.836 -5.38,1.836 H 534.4 v -22.098 h 15.815 v 3.866 z m -10.661,14.366 h 4.155 c 0.772,0 1.481,-0.032 2.223,-0.773 0.708,-0.709 0.805,-1.514 0.805,-2.126 0,-0.709 -0.193,-1.417 -0.805,-2.029 -0.741,-0.741 -1.676,-0.806 -2.352,-0.806 h -4.026 v 5.734 z"
   id="path11907"
   inkscape:connector-curvature="0"
   style="fill:#ffffff" />
	<path
   d="m 561.006,395.066 v 11.468 c 0,1.514 -0.129,2.448 -0.161,2.738 0.226,-0.838 0.677,-1.676 0.87,-1.997 l 6.668,-10.63 v -1.579 h 5.153 v 22.098 h -5.153 v -11.5 c 0,-1.546 0.097,-2.479 0.161,-2.866 -0.193,0.644 -0.612,1.578 -0.87,1.997 l -6.668,10.598 v 1.771 h -5.153 v -22.098 h 5.153 z"
   id="path11909"
   inkscape:connector-curvature="0"
   style="fill:#ffffff" />
	<path
   d="m 592.314,395.066 v 4.06 h -9.116 v 18.038 h -5.153 v -22.098 h 14.269 z"
   id="path11911"
   inkscape:connector-curvature="0"
   style="fill:#ffffff" />
	<path
   d="m 596.211,397 c 2.126,-1.901 4.574,-2.255 6.41,-2.255 1.836,0 4.284,0.354 6.41,2.255 1.965,1.771 3.543,4.863 3.543,9.115 0,3.736 -1.224,6.926 -3.317,8.891 -1.257,1.191 -3.415,2.48 -6.636,2.48 -3.222,0 -5.38,-1.289 -6.636,-2.48 -2.094,-1.965 -3.317,-5.154 -3.317,-8.891 0,-4.252 1.578,-7.344 3.543,-9.115 z m 3.156,14.655 c 0.612,0.999 1.676,1.965 3.254,1.965 1.578,0 2.642,-0.966 3.253,-1.965 0.451,-0.74 1.16,-2.318 1.16,-5.604 0,-3.285 -0.741,-4.832 -1.16,-5.508 -0.934,-1.481 -2.062,-1.933 -3.253,-1.933 -1.192,0 -2.319,0.451 -3.254,1.933 -0.418,0.676 -1.159,2.223 -1.159,5.508 0,3.285 0.709,4.864 1.159,5.604 z"
   id="path11913"
   inkscape:connector-curvature="0"
   style="fill:#ffffff" />
	<path
   d="m 633.575,417.164 h -5.154 v -9.374 h -7.247 v 9.374 h -5.154 v -22.098 h 5.154 v 8.665 h 7.247 v -8.665 h 5.154 v 22.098 z"
   id="path11915"
   inkscape:connector-curvature="0"
   style="fill:#ffffff" />
</g>
<path
   d="m 201.84899,9.2960104 c -0.117,-0.004 -0.249,10e-4 -0.249,10e-4 -0.479,0 -0.868,0.376 -0.868,0.8539996 0,0.435 0.322,0.789 0.741,0.854 l 0.025,0.006 c 0,0 14.72,1.717 15.472,17.791 l 0.007,0.242 c 0.017,1.592 -0.126,2.993 -0.126,2.993 -0.234,1.944 -0.779,3.146 -0.779,3.146 -0.498,1.37 -1.353,2.025 -1.353,2.025 -0.858,0.684 -1.873,1.138 -1.873,1.138 -1.105,0.435 -1.85,0.59 -1.85,0.59 -0.529,0.115 -1.17,0.171 -1.594,0.198 v -0.001 c 0,0 -8.021,0.625 -8.729,-6.583 -0.657,-6.689 0.625,-9.177 3.41,-9.601 l -0.875,-4.761 c -4.118,0.112 -9.281,2.8 -8.827,12.987 0.5,11.208 5.751,12.072 14.542,12.072 0.87,-0.004 1.76,-0.022 2.684,-0.063 1.028,-0.048 2.028,-0.149 2.994,-0.304 0.968,-0.157 1.878,-0.406 2.739,-0.747 0.856,-0.349 1.629,-0.815 2.312,-1.409 0.781,-0.684 1.389,-1.491 1.828,-2.411 0.436,-0.92 0.767,-1.85 0.979,-2.787 0.221,-0.935 0.351,-1.842 0.4,-2.715 0.047,-0.875 0.059,-1.623 0.059,-2.246 v -0.241 c 0,-19.771 -21.069,-21.0279996 -21.069,-21.0279996 z"
   id="path11917"
   inkscape:connector-curvature="0"
   style="fill:#ffffff" />
<path
   d="m 197.42299,20.49801 c 0,0 2.258,-2.335 5.785,-2.31 3.84,0.028 7.559,1.466 7.777,9.278 0,0 0.219,7.047 -2.656,5.563 0,0 -0.828,-0.156 -0.438,-1.875 0.254,-1.118 0.781,-8.688 -4.281,-8.031 0,0 -1.406,0.281 -2.063,1.344"
   id="path11919"
   inkscape:connector-curvature="0"
   style="fill:#ffffff" />
</svg>