<?xml version="1.0" encoding="UTF-8" standalone="no"?>
<!DOCTYPE svg PUBLIC "-//W3C//DTD SVG 1.0//EN" "http://www.w3.org/TR/2001/REC-SVG-20010904/DTD/svg10.dtd">
<!-- Created with Inkscape (http://www.inkscape.org/) -->
<svg
   xmlns:svg="http://www.w3.org/2000/svg"
   xmlns="http://www.w3.org/2000/svg"
   version="1.0"
   width="800"
   height="800"
   id="svg2">
  <defs
     id="defs4">
    <clipPath
       id="clipPath">
      <path
         d="M 310.40096,-62.918501 C 298.06745,-63.081471 287.23361,-51.018561 284.07274,-36.597491 C 274.18651,-4.8936609 263.99304,26.782949 254.6662,58.679119 C 253.03816,66.235429 254.82626,76.092909 261.1847,79.374709 C 267.55557,83.762789 276.44037,82.487489 281.14183,75.302229 C 284.35924,70.742749 284.73957,64.324649 287.0325,59.241259 C 289.38799,56.487879 292.93238,58.559759 295.79729,57.908199 C 308.72223,57.908199 321.64717,57.908199 334.57211,57.908199 C 336.2726,66.538749 338.55711,77.000089 345.84853,80.586279 C 353.77686,84.404069 364.68861,79.809519 367.06787,69.118749 C 368.94428,59.560129 364.51886,50.529389 362.05757,41.766919 C 352.73978,13.226519 344.33567,-15.898561 334.58435,-44.139171 C 330.3079,-55.462201 320.51072,-63.278021 310.40096,-62.918501 z M 532.70705,-61.810291 C 520.10068,-61.079751 507.40268,-62.572541 494.85144,-60.814511 C 487.6917,-58.180811 483.45106,-48.468971 484.29407,-39.485551 C 484.28775,-8.0172109 484.10409,23.453649 484.30076,54.920499 C 484.60667,61.290619 483.67572,68.501109 487.30361,73.744309 C 491.85644,81.716759 501.61756,83.933749 508.25108,78.466229 C 513.40374,74.438139 515.89656,66.641429 515.2681,59.160959 C 515.36982,52.894129 515.02877,46.587489 515.11274,40.353549 C 515.33913,37.283269 517.78756,35.146969 520.1874,35.935639 C 534.44468,36.548159 549.95402,37.254619 562.26396,26.926579 C 577.15713,14.806519 583.17898,-10.866821 576.28654,-31.097081 C 571.29159,-46.678841 559.30998,-58.020781 545.99018,-60.589661 C 541.62197,-61.615151 537.16657,-61.937341 532.70705,-61.810291 z M 416.58831,-61.778161 C 407.39628,-60.865851 397.88373,-63.051061 388.9216,-60.204201 C 381.78607,-56.703771 377.64125,-46.389391 378.98075,-37.140641 C 379.22292,-2.9734209 378.43047,31.238169 379.44474,65.376539 C 380.85345,74.053549 387.77964,80.816699 394.99316,79.755919 C 408.02991,79.974179 421.06921,79.614709 434.10495,79.895669 C 443.18594,80.041489 452.82279,78.867759 460.10156,71.495769 C 471.49612,60.907019 476.98495,40.257799 470.39404,24.067739 C 467.61312,16.970939 462.68963,11.432149 457.1368,7.9103891 C 454.74327,4.4112191 457.54021,0.27694905 459.13057,-2.6738009 C 466.79226,-19.493731 461.83242,-43.242051 448.43674,-53.073111 C 439.08075,-60.630981 427.54826,-61.978341 416.58831,-61.778161 z M 325.35419,26.203829 C 315.58389,26.203829 305.81357,26.203829 296.04328,26.203829 C 300.82107,4.6708791 305.73772,-7.0299319 310.65989,-28.512672 C 315.59977,-7.021997 320.46016,4.702647 325.35419,26.203829 z M 421.48209,-30.411091 C 434.73893,-30.284011 434.84626,-6.4500209 422.46602,-6.4963009 C 418.35766,-6.4963009 414.24931,-6.4963009 410.14094,-6.4963009 C 410.14094,-14.425061 410.14094,-22.353841 410.14094,-30.282601 C 413.92158,-30.282601 417.70413,-30.186621 421.48209,-30.411091 z M 516.07078,-29.078031 C 524.82395,-27.959911 534.23816,-31.105031 542.44284,-26.235231 C 549.38061,-21.160871 550.77627,-7.7731909 544.83795,-0.85890095 C 540.80181,4.4083791 534.48996,4.7858591 529.0173,4.0557491 C 524.42129,4.0557491 519.82527,4.0557491 515.22926,4.0557491 C 515.22926,-6.9941909 515.22926,-18.044141 515.22926,-29.094091 C 515.50977,-29.088741 515.79028,-29.083381 516.07078,-29.078031 z M 410.81416,23.666199 C 419.55682,24.558439 428.58303,22.334069 437.12149,25.320479 C 443.94275,29.362059 443.95693,44.055349 436.52594,47.195519 C 431.11504,49.553059 425.30441,47.374229 419.72136,48.143129 C 416.47179,48.143129 413.22221,48.143129 409.97263,48.143129 C 409.97263,39.978789 409.97263,31.814479 409.97263,23.650129 C 410.25314,23.655509 410.53365,23.660849 410.81416,23.666199 z"
         id="text3496"
         style="font-size:410.4395752px;font-style:normal;font-variant:normal;font-weight:normal;font-stretch:normal;text-align:start;line-height:100%;writing-mode:lr-tb;text-anchor:start;fill:#f05e0b;fill-opacity:1;stroke:none;stroke-width:1px;stroke-linecap:butt;stroke-linejoin:miter;stroke-opacity:1;font-family:Debussy;-inkscape-font-specification:Debussy" />
    </clipPath>
    <filter
       y="-0.5"
       x="-0.5"
       width="10"
       height="2"
       id="filter">
      <feGaussianBlur
         id="feGaussianBlur5416"
         stdDeviation="5.0" />
    </filter>
  </defs>
  <path
     d="M 483.91671,361.57349 A 35.842121,35.842121 0 1 1 412.23246,361.57349 A 35.842121,35.842121 0 1 1 483.91671,361.57349 z"
     transform="matrix(8.56903,0,-2.3329646,8.9995606,-2534.8254,-2798.2113)"
     id="path6155"
     style="opacity:1;fill:#ca0016;fill-opacity:1;fill-rule:nonzero;stroke:#ca0016;stroke-width:3;stroke-linecap:round;stroke-linejoin:round;stroke-miterlimit:4;stroke-dasharray:none;stroke-opacity:1" />
  <path
     d="M 449.51595,340.52945 A 11.338795,11.338795 0 1 1 426.83836,340.52945 A 11.338795,11.338795 0 1 1 449.51595,340.52945 z"
     transform="matrix(14.794852,0,-3.7681339,15.500527,-4996.3763,-5076.0246)"
     id="path6157"
     style="opacity:1;fill:#ca0016;fill-opacity:1;fill-rule:nonzero;stroke:#ffffff;stroke-width:3;stroke-linecap:round;stroke-linejoin:round;stroke-miterlimit:4;stroke-dasharray:none;stroke-opacity:1" />
  <path
     d="M 67.884922,67.01697 L 195.05414,192.36951"
     id="path6163"
     style="fill:#ffffff;fill-rule:evenodd;stroke:#ffffff;stroke-width:37.81194305;stroke-linecap:butt;stroke-linejoin:miter;stroke-miterlimit:4;stroke-dasharray:none;stroke-opacity:1" />
  <text
     x="-156.54974"
     y="650.94305"
     id="text6048"
     xml:space="preserve"
     style="font-size:36px;font-style:normal;font-variant:normal;font-weight:normal;font-stretch:normal;text-align:start;line-height:100%;writing-mode:lr-tb;text-anchor:start;fill:#000000;fill-opacity:1;stroke:none;stroke-width:1px;stroke-linecap:butt;stroke-linejoin:miter;stroke-opacity:1;font-family:Arial Black;-inkscape-font-specification:Arial Black"><tspan
       x="-156.54974"
       y="650.94305"
       id="tspan6050" /></text>
  <path
     d="M 239.28703,572.79877 L 239.28703,374.29949 L 277.33498,374.29949 L 277.33498,445.79172 C 289.06975,432.4322 302.97101,425.75238 319.03879,425.75223 C 336.55066,425.75238 351.03866,432.0937 362.50282,444.77621 C 373.9667,457.45898 379.69871,475.67052 379.69887,499.4109 C 379.69871,523.96384 373.85386,542.87496 362.16431,556.14433 C 350.47448,569.41372 336.27986,576.04841 319.5804,576.04841 C 311.36592,576.04841 303.26438,573.99482 295.27574,569.88762 C 287.28696,565.78044 280.40404,559.70992 274.62694,551.67606 L 274.62694,572.79877 L 239.28703,572.79877 z M 277.06418,497.78608 C 277.06412,512.68036 279.41109,523.69304 284.10508,530.82416 C 290.69457,540.9342 299.45056,545.9892 310.37306,545.98918 C 318.76789,545.9892 325.92162,542.40106 331.83427,535.22472 C 337.74671,528.04846 340.70298,516.74241 340.7031,501.30653 C 340.70298,484.87785 337.72414,473.03019 331.76657,465.76351 C 325.80878,458.49706 318.18115,454.86377 308.88364,454.86366 C 299.7665,454.86377 292.18399,458.40679 286.13611,465.49271 C 280.0881,472.57885 277.06412,483.34329 277.06418,497.78608 L 277.06418,497.78608 z M 449.97248,572.79877 L 392.02044,429.00188 L 431.96402,429.00188 L 459.04441,502.38975 L 466.89773,526.8975 C 468.97381,520.66906 470.2827,516.56187 470.82439,514.57592 C 472.08806,510.51393 473.44207,506.45187 474.88644,502.38975 L 502.23764,429.00188 L 541.36881,429.00188 L 484.22918,572.79877 L 449.97248,572.79877 z M 695.59165,572.79877 L 657.5437,572.79877 L 657.5437,499.4109 C 657.54359,483.8849 656.73118,473.8426 655.10647,469.28397 C 653.48153,464.72554 650.8412,461.18253 647.18545,458.65491 C 643.5295,456.12752 639.12894,454.86377 633.98376,454.86366 C 627.39411,454.86377 621.48157,456.66913 616.2461,460.27973 C 611.01049,463.89056 607.42234,468.67476 605.48165,474.63234 C 603.54083,480.59012 602.57045,491.6028 602.5705,507.67042 L 602.5705,572.79877 L 564.52255,572.79877 L 564.52255,429.00188 L 599.86246,429.00188 L 599.86246,450.12459 C 612.40965,433.87649 628.20653,425.75238 647.25315,425.75223 C 655.64796,425.75238 663.32073,427.26437 670.27149,430.2882 C 677.22199,433.31232 682.48009,437.17127 686.04581,441.86507 C 689.61125,446.55913 692.09362,451.88493 693.49292,457.8425 C 694.89193,463.80029 695.5915,472.33061 695.59165,483.43347 L 695.59165,572.79877 z"
     id="text6149"
     style="font-size:277.30322266px;font-style:normal;font-variant:normal;font-weight:bold;font-stretch:normal;text-align:start;line-height:100%;writing-mode:lr-tb;text-anchor:start;fill:#ffffff;fill-opacity:1;stroke:none;stroke-width:1px;stroke-linecap:butt;stroke-linejoin:miter;stroke-opacity:1;font-family:Arial;-inkscape-font-specification:Arial Bold" />
  <path
     d="M 436.06314,328.42194 A 4.2280254,4.2280254 0 1 1 427.60709,328.42194 A 4.2280254,4.2280254 0 1 1 436.06314,328.42194 z"
     transform="matrix(9.4529853,0,0,9.4529853,-3885.2602,-2910.3814)"
     id="path6159"
     style="opacity:1;fill:#ffffff;fill-opacity:1;fill-rule:nonzero;stroke:none;stroke-width:3;stroke-linecap:round;stroke-linejoin:round;stroke-miterlimit:4;stroke-dasharray:none;stroke-opacity:1" />
  <path
     d="M 436.06314,328.42194 A 4.2280254,4.2280254 0 1 1 427.60709,328.42194 A 4.2280254,4.2280254 0 1 1 436.06314,328.42194 z"
     transform="matrix(9.4529853,0,0,9.4529853,-4012.4294,-3035.734)"
     id="path6161"
     style="opacity:1;fill:#ca0016;fill-opacity:1;fill-rule:nonzero;stroke:none;stroke-width:3;stroke-linecap:round;stroke-linejoin:round;stroke-miterlimit:4;stroke-dasharray:none;stroke-opacity:1" />
</svg>
