<?xml version="1.0" encoding="UTF-8" standalone="no"?>
<!-- Created with Inkscape (http://www.inkscape.org/) -->
<svg
   xmlns:dc="http://purl.org/dc/elements/1.1/"
   xmlns:cc="http://web.resource.org/cc/"
   xmlns:rdf="http://www.w3.org/1999/02/22-rdf-syntax-ns#"
   xmlns:svg="http://www.w3.org/2000/svg"
   xmlns="http://www.w3.org/2000/svg"
   xmlns:xlink="http://www.w3.org/1999/xlink"
   xmlns:sodipodi="http://sodipodi.sourceforge.net/DTD/sodipodi-0.dtd"
   xmlns:inkscape="http://www.inkscape.org/namespaces/inkscape"
   width="792"
   height="269"
   id="svg2"
   sodipodi:version="0.32"
   inkscape:version="0.45.1"
   version="1.0"
   inkscape:output_extension="org.inkscape.output.svg.inkscape">
  <defs
     id="defs4">
    <radialGradient
       fy="0"
       gradientUnits="userSpaceOnUse"
       id="id25"
       cx="0"
       r="1"
       fx="0"
       cy="0"
       spreadMethod="pad">
      <stop
         id="stop2193"
         offset="0"
         stop-color="#f58220" />
      <stop
         id="stop2195"
         offset=".015873"
         stop-color="#f58220" />
      <stop
         id="stop2197"
         offset=".031746"
         stop-color="#f58220" />
      <stop
         id="stop2199"
         offset=".047619"
         stop-color="#f58220" />
      <stop
         id="stop2201"
         offset=".0634921"
         stop-color="#f58220" />
      <stop
         id="stop2203"
         offset=".0793651"
         stop-color="#f58320" />
      <stop
         id="stop2205"
         offset=".0952381"
         stop-color="#f58320" />
      <stop
         id="stop2207"
         offset=".111111"
         stop-color="#f58320" />
      <stop
         id="stop2209"
         offset=".126984"
         stop-color="#f58320" />
      <stop
         id="stop2211"
         offset=".142857"
         stop-color="#f58320" />
      <stop
         id="stop2213"
         offset=".15873"
         stop-color="#f58320" />
      <stop
         id="stop2215"
         offset=".174603"
         stop-color="#f58320" />
      <stop
         id="stop2217"
         offset=".190476"
         stop-color="#f58420" />
      <stop
         id="stop2219"
         offset=".206349"
         stop-color="#f58420" />
      <stop
         id="stop2221"
         offset=".222222"
         stop-color="#f68520" />
      <stop
         id="stop2223"
         offset=".238095"
         stop-color="#f68520" />
      <stop
         id="stop2225"
         offset=".253968"
         stop-color="#f68621" />
      <stop
         id="stop2227"
         offset=".269841"
         stop-color="#f68620" />
      <stop
         id="stop2229"
         offset=".285714"
         stop-color="#f68620" />
      <stop
         id="stop2231"
         offset=".301587"
         stop-color="#f68720" />
      <stop
         id="stop2233"
         offset=".31746"
         stop-color="#f68821" />
      <stop
         id="stop2235"
         offset=".333333"
         stop-color="#f68821" />
      <stop
         id="stop2237"
         offset=".349206"
         stop-color="#f68921" />
      <stop
         id="stop2239"
         offset=".365079"
         stop-color="#f68921" />
      <stop
         id="stop2241"
         offset=".380952"
         stop-color="#f68a21" />
      <stop
         id="stop2243"
         offset=".396825"
         stop-color="#f68a21" />
      <stop
         id="stop2245"
         offset=".412698"
         stop-color="#f68b21" />
      <stop
         id="stop2247"
         offset=".428571"
         stop-color="#f68c22" />
      <stop
         id="stop2249"
         offset=".444444"
         stop-color="#f78d22" />
      <stop
         id="stop2251"
         offset=".460317"
         stop-color="#f78d22" />
      <stop
         id="stop2253"
         offset=".47619"
         stop-color="#f78f23" />
      <stop
         id="stop2255"
         offset=".492063"
         stop-color="#f78f22" />
      <stop
         id="stop2257"
         offset=".507937"
         stop-color="#f79023" />
      <stop
         id="stop2259"
         offset=".52381"
         stop-color="#f79123" />
      <stop
         id="stop2261"
         offset=".539683"
         stop-color="#f79224" />
      <stop
         id="stop2263"
         offset=".555556"
         stop-color="#f79324" />
      <stop
         id="stop2265"
         offset=".571429"
         stop-color="#f79324" />
      <stop
         id="stop2267"
         offset=".587302"
         stop-color="#f89525" />
      <stop
         id="stop2269"
         offset=".603175"
         stop-color="#f89624" />
      <stop
         id="stop2271"
         offset=".619048"
         stop-color="#f89725" />
      <stop
         id="stop2273"
         offset=".634921"
         stop-color="#f89825" />
      <stop
         id="stop2275"
         offset=".650794"
         stop-color="#f89926" />
      <stop
         id="stop2277"
         offset=".666667"
         stop-color="#f89a26" />
      <stop
         id="stop2279"
         offset=".68254"
         stop-color="#f99b27" />
      <stop
         id="stop2281"
         offset=".698413"
         stop-color="#f99d28" />
      <stop
         id="stop2283"
         offset=".714286"
         stop-color="#f99d28" />
      <stop
         id="stop2285"
         offset=".730159"
         stop-color="#f99f29" />
      <stop
         id="stop2287"
         offset=".746032"
         stop-color="#f9a028" />
      <stop
         id="stop2289"
         offset=".761905"
         stop-color="#faa229" />
      <stop
         id="stop2291"
         offset=".777778"
         stop-color="#faa32a" />
      <stop
         id="stop2293"
         offset=".793651"
         stop-color="#faa42a" />
      <stop
         id="stop2295"
         offset=".809524"
         stop-color="#faa52b" />
      <stop
         id="stop2297"
         offset=".825397"
         stop-color="#faa72b" />
      <stop
         id="stop2299"
         offset=".84127"
         stop-color="#faa82c" />
      <stop
         id="stop2301"
         offset=".857143"
         stop-color="#fbaa2d" />
      <stop
         id="stop2303"
         offset=".873016"
         stop-color="#fbab2d" />
      <stop
         id="stop2305"
         offset=".888889"
         stop-color="#fbad2e" />
      <stop
         id="stop2307"
         offset=".904762"
         stop-color="#fbaf2f" />
      <stop
         id="stop2309"
         offset=".920635"
         stop-color="#fcb030" />
      <stop
         id="stop2311"
         offset=".936508"
         stop-color="#fcb230" />
      <stop
         id="stop2313"
         offset=".952381"
         stop-color="#fcb331" />
      <stop
         id="stop2315"
         offset=".968254"
         stop-color="#fdb632" />
      <stop
         id="stop2317"
         offset=".984127"
         stop-color="#fdb733" />
      <stop
         id="stop2319"
         offset="1"
         stop-color="#fdb934" />
    </radialGradient>
    <radialGradient
       inkscape:collect="always"
       xlink:href="#id25"
       id="radialGradient9914"
       cx="686.13849"
       cy="1060.9825"
       fx="686.13849"
       fy="1060.9825"
       r="21.994459"
       gradientTransform="matrix(1,0,0,0.998531,0,1.55859)"
       gradientUnits="userSpaceOnUse" />
  </defs>
  <g
     inkscape:label="Layer 1"
     inkscape:groupmode="layer"
     id="layer1"
     transform="translate(-24.045405,-912.29244)">
    <g
       id="g3868"
       clip-path="url(#id22)"
       transform="matrix(10.768403,0,0,-10.768403,-1741.2049,3196.8899)">
      <g
         id="g3870"
         transform="translate(172.9442,208.3125)">
        <path
           id="path3872"
           d="M 0,0 C 0.083,0.028 0.165,0.071 0.227,0.133 L 0.287,0.208 C 0.338,0.291 0.351,0.373 0.355,0.421 L 0.356,0.454 L 0.356,0.479 C 0.356,0.498 0.353,0.536 0.342,0.577 C 0.33,0.626 0.307,0.682 0.265,0.733 L 0.239,0.764 L 0.18,0.815 C 0.144,0.841 0.101,0.866 0.057,0.885 C -0.004,0.911 -0.071,0.928 -0.144,0.943 C -0.182,0.951 -0.222,0.956 -0.262,0.96 C -0.289,0.962 -0.313,0.965 -0.34,0.966 L -0.41,0.97 L -1.054,0.97 L -1.054,-0.058 L -0.387,-0.058 L -0.352,-0.055 C -0.329,-0.055 -0.298,-0.053 -0.258,-0.051 C -0.187,-0.044 -0.092,-0.031 0,0 M -0.68,1.556 L -0.609,1.559 C -0.541,1.565 -0.451,1.574 -0.358,1.599 L -0.305,1.616 C -0.234,1.641 -0.165,1.68 -0.111,1.732 C -0.068,1.774 -0.041,1.822 -0.021,1.866 C 0.002,1.922 0.01,1.975 0.012,2.012 C 0.015,2.047 0.015,2.067 0.015,2.067 L 0.015,2.108 C 0.012,2.151 0.003,2.219 -0.03,2.287 C -0.045,2.318 -0.068,2.348 -0.098,2.379 C -0.135,2.413 -0.178,2.441 -0.225,2.463 C -0.316,2.502 -0.419,2.518 -0.507,2.525 C -0.546,2.527 -0.58,2.527 -0.609,2.527 L -1.054,2.527 L -1.054,1.555 L -0.732,1.555 C -0.732,1.555 -0.709,1.555 -0.68,1.556 M -1.727,3.114 L -0.506,3.114 C 0.15,3.114 0.441,2.77 0.441,2.77 C 0.441,2.77 0.706,2.541 0.706,2.143 C 0.706,1.747 0.526,1.583 0.475,1.532 C 0.366,1.425 0.225,1.357 0.225,1.357 C 0.225,1.357 0.537,1.292 0.781,1.048 C 1.07,0.761 1.047,0.388 1.047,0.388 C 1.047,0.388 1.07,0.028 0.759,-0.281 C 0.379,-0.662 -0.313,-0.644 -0.313,-0.644 L -1.727,-0.644 L -1.727,3.114 z M -3.18,-1.371 L 2.362,-1.371 L 2.362,3.845 L -3.18,3.845 L -3.18,-1.371 z M 14.038,-0.349 L 14.001,-0.368 C 13.974,-0.381 13.944,-0.395 13.917,-0.408 C 13.887,-0.421 13.857,-0.434 13.83,-0.447 C 13.783,-0.465 13.744,-0.48 13.711,-0.494 C 13.685,-0.504 13.663,-0.512 13.647,-0.518 L 13.616,-0.528 C 13.584,-0.54 13.549,-0.551 13.515,-0.563 C 13.482,-0.571 13.453,-0.581 13.421,-0.589 C 13.379,-0.6 13.333,-0.613 13.286,-0.621 C 13.253,-0.628 13.223,-0.635 13.19,-0.64 C 13.137,-0.649 13.084,-0.658 13.025,-0.666 C 12.989,-0.668 12.951,-0.674 12.911,-0.676 L 12.892,-0.678 C 12.792,-0.686 12.682,-0.692 12.567,-0.692 L 12.52,-0.691 C 12.489,-0.691 12.457,-0.69 12.426,-0.688 C 12.361,-0.684 12.298,-0.678 12.238,-0.672 C 12.176,-0.666 12.116,-0.655 12.06,-0.644 C 11.99,-0.631 11.922,-0.614 11.859,-0.596 C 11.82,-0.584 11.785,-0.574 11.751,-0.561 C 11.715,-0.549 11.681,-0.538 11.648,-0.524 C 11.558,-0.488 11.477,-0.448 11.405,-0.408 C 11.367,-0.387 11.332,-0.367 11.299,-0.345 C 11.268,-0.323 11.238,-0.305 11.211,-0.284 L 11.144,-0.233 L 11.079,-0.18 C 11.049,-0.154 11.025,-0.131 11,-0.107 L 10.984,-0.091 C 10.954,-0.062 10.926,-0.032 10.898,0.002 C 10.873,0.028 10.849,0.058 10.824,0.088 C 10.803,0.117 10.78,0.146 10.759,0.179 C 10.743,0.202 10.727,0.226 10.71,0.253 C 10.691,0.282 10.672,0.316 10.653,0.349 C 10.622,0.407 10.593,0.47 10.566,0.534 C 10.549,0.573 10.535,0.614 10.52,0.656 C 10.508,0.692 10.499,0.727 10.487,0.763 C 10.48,0.79 10.474,0.817 10.468,0.847 L 10.459,0.886 C 10.452,0.922 10.448,0.956 10.443,0.991 L 10.44,1.012 C 10.437,1.041 10.435,1.073 10.433,1.101 C 10.43,1.13 10.43,1.161 10.43,1.19 C 10.43,1.229 10.433,1.268 10.434,1.306 C 10.437,1.357 10.443,1.407 10.45,1.454 C 10.47,1.609 10.507,1.754 10.559,1.889 C 10.6,1.996 10.652,2.098 10.708,2.192 L 10.74,2.239 L 10.786,2.308 C 10.808,2.338 10.829,2.369 10.854,2.395 C 10.874,2.421 10.897,2.446 10.919,2.471 L 10.986,2.543 C 11.013,2.57 11.044,2.597 11.072,2.623 C 11.104,2.651 11.138,2.678 11.173,2.705 L 11.225,2.744 L 11.285,2.786 C 11.321,2.81 11.361,2.833 11.399,2.856 C 11.44,2.88 11.483,2.904 11.527,2.923 C 11.578,2.949 11.635,2.974 11.694,2.996 C 11.805,3.039 11.927,3.078 12.06,3.105 L 12.123,3.119 L 12.171,3.127 L 12.208,3.131 L 12.239,3.137 L 12.264,3.139 C 12.297,3.144 12.329,3.148 12.362,3.151 L 12.432,3.155 C 12.47,3.158 12.511,3.16 12.552,3.162 L 12.612,3.162 C 12.661,3.162 12.713,3.16 12.765,3.157 C 12.793,3.155 12.825,3.154 12.855,3.151 C 12.896,3.147 12.941,3.141 12.982,3.137 L 13.011,3.131 C 13.038,3.127 13.064,3.123 13.086,3.12 C 13.117,3.114 13.146,3.109 13.177,3.103 C 13.204,3.095 13.231,3.089 13.259,3.085 L 13.308,3.074 C 13.335,3.066 13.36,3.06 13.386,3.053 L 13.45,3.035 L 13.468,3.029 L 13.532,3.012 C 13.559,3.003 13.588,2.992 13.614,2.984 L 13.682,2.962 C 13.711,2.951 13.737,2.942 13.763,2.934 C 13.806,2.919 13.844,2.904 13.878,2.891 C 13.954,2.861 13.998,2.843 13.998,2.843 L 13.998,2.145 L 13.925,2.186 C 13.898,2.2 13.865,2.218 13.827,2.237 L 13.755,2.274 C 13.724,2.29 13.691,2.306 13.657,2.32 C 13.615,2.339 13.572,2.359 13.527,2.377 C 13.494,2.391 13.459,2.404 13.423,2.417 C 13.423,2.417 13.402,2.425 13.363,2.437 C 13.341,2.446 13.311,2.456 13.276,2.465 C 13.253,2.473 13.229,2.481 13.2,2.488 C 13.159,2.498 13.112,2.51 13.062,2.52 C 13.029,2.526 12.992,2.533 12.956,2.538 C 12.915,2.545 12.872,2.55 12.827,2.554 L 12.757,2.559 C 12.72,2.561 12.683,2.563 12.647,2.564 L 12.599,2.564 C 12.55,2.564 12.497,2.561 12.445,2.557 C 12.418,2.555 12.392,2.552 12.364,2.548 C 12.337,2.546 12.309,2.541 12.282,2.536 L 12.206,2.52 L 12.132,2.502 C 12.106,2.496 12.078,2.487 12.053,2.476 L 11.98,2.449 L 11.908,2.421 C 11.757,2.352 11.61,2.254 11.48,2.125 L 11.455,2.098 L 11.406,2.042 L 11.372,1.998 C 11.342,1.96 11.316,1.92 11.292,1.879 L 11.262,1.823 L 11.227,1.752 L 11.206,1.698 L 11.181,1.622 C 11.171,1.593 11.163,1.566 11.157,1.54 C 11.147,1.499 11.14,1.461 11.137,1.427 C 11.126,1.366 11.123,1.315 11.121,1.274 L 11.121,1.229 C 11.121,1.212 11.121,1.185 11.123,1.155 L 11.127,1.096 C 11.132,1.038 11.14,0.97 11.16,0.893 C 11.166,0.87 11.175,0.842 11.183,0.815 C 11.194,0.782 11.206,0.745 11.223,0.712 L 11.25,0.647 L 11.291,0.572 L 11.323,0.521 L 11.359,0.469 L 11.4,0.415 C 11.428,0.382 11.458,0.349 11.49,0.318 L 11.499,0.31 L 11.504,0.304 L 11.518,0.291 L 11.54,0.271 L 11.595,0.226 L 11.657,0.181 L 11.708,0.147 L 11.757,0.118 C 11.791,0.099 11.827,0.08 11.861,0.063 L 11.911,0.042 L 11.94,0.03 L 11.985,0.013 C 12.085,-0.022 12.189,-0.051 12.292,-0.067 C 12.354,-0.079 12.418,-0.085 12.48,-0.088 C 12.532,-0.092 12.585,-0.094 12.635,-0.094 C 12.659,-0.094 12.683,-0.094 12.712,-0.092 C 12.752,-0.09 12.798,-0.088 12.848,-0.082 C 12.88,-0.079 12.913,-0.075 12.947,-0.069 L 12.992,-0.062 C 13.117,-0.039 13.259,-0.004 13.414,0.051 C 13.497,0.08 13.582,0.115 13.67,0.157 C 13.719,0.179 13.769,0.208 13.821,0.234 C 13.867,0.259 13.913,0.287 13.962,0.316 L 14.013,0.345 L 14.038,0.362 L 14.038,-0.349 z M 9.594,-1.371 L 15.137,-1.371 L 15.137,3.845 L 9.594,3.845 L 9.594,-1.371 z M 4.662,3.114 L 5.881,3.114 C 6.537,3.114 6.828,2.77 6.828,2.77 C 6.828,2.77 7.093,2.541 7.093,2.143 C 7.093,1.747 6.913,1.583 6.863,1.532 C 6.754,1.425 6.613,1.357 6.613,1.357 C 6.613,1.357 6.924,1.292 7.171,1.048 C 7.456,0.761 7.434,0.388 7.434,0.388 C 7.434,0.388 7.456,0.028 7.147,-0.281 C 6.766,-0.662 6.076,-0.644 6.076,-0.644 L 4.662,-0.644 L 4.662,3.114 z M 3.207,-1.371 L 8.752,-1.371 L 8.752,3.845 L 3.207,3.845 L 3.207,-1.371 z M 6.388,0 C 6.471,0.028 6.552,0.071 6.614,0.133 L 6.675,0.208 C 6.727,0.291 6.739,0.373 6.742,0.421 L 6.743,0.454 L 6.743,0.479 C 6.742,0.498 6.741,0.536 6.73,0.577 C 6.717,0.626 6.695,0.682 6.652,0.733 L 6.628,0.764 L 6.567,0.815 C 6.531,0.841 6.49,0.866 6.444,0.885 C 6.383,0.911 6.316,0.928 6.243,0.943 C 6.205,0.951 6.165,0.956 6.126,0.96 C 6.101,0.962 6.074,0.965 6.047,0.966 L 5.978,0.97 L 5.334,0.97 L 5.334,-0.058 L 6,-0.058 L 6.036,-0.055 C 6.058,-0.055 6.089,-0.053 6.128,-0.051 C 6.201,-0.044 6.295,-0.031 6.388,0 M 5.707,1.556 L 5.779,1.559 C 5.846,1.565 5.936,1.574 6.029,1.599 L 6.082,1.616 C 6.154,1.641 6.225,1.68 6.277,1.732 C 6.32,1.774 6.347,1.822 6.366,1.866 C 6.389,1.922 6.396,1.975 6.399,2.012 C 6.404,2.047 6.403,2.067 6.403,2.067 L 6.402,2.108 C 6.399,2.151 6.392,2.219 6.358,2.287 C 6.343,2.318 6.32,2.348 6.289,2.379 C 6.254,2.413 6.21,2.441 6.163,2.463 C 6.072,2.502 5.968,2.518 5.88,2.525 C 5.843,2.527 5.809,2.527 5.779,2.527 L 5.334,2.527 L 5.334,1.555 L 5.656,1.555 C 5.656,1.555 5.679,1.555 5.707,1.556"
           style="fill:#000000;fill-rule:nonzero;stroke:none" />
      </g>
    </g>
    <path
       clip-rule="nonzero"
       d="M 682.34265,1039.0204 C 671.99421,1040.8726 664.14405,1049.9288 664.14405,1060.8049 L 664.14405,1060.8049 C 664.14405,1073.0378 674.05098,1082.9447 686.29465,1082.9447 L 686.29465,1082.9447 C 697.31073,1082.9447 706.44233,1074.8899 708.13297,1064.3369 L 708.13297,1064.3369 L 708.13297,1057.2621 C 706.64693,1048.012 699.42133,1040.668 690.22512,1039.0204 L 690.22512,1039.0204 L 682.34265,1039.0204 z "
       id="path2379"
       style="fill-opacity:1.0;fill:url(#radialGradient9914)" />
    <g
       id="g3882"
       clip-path="url(#id26)"
       transform="matrix(10.768403,0,0,-10.768403,-1741.2049,3196.8899)">
      <g
         id="g3884"
         transform="translate(227.6067,192.874)">
        <path
           id="path3886"
           d="M 0,0 C -0.7,0.47 -0.91,0.695 -0.948,1.444 C -0.951,1.499 -0.962,1.617 -1.121,1.617 L -3.064,1.617 C -3.16,1.617 -3.238,1.539 -3.238,1.444 L -3.238,0.923 C -3.238,0.055 -2.944,-0.524 -2.068,-1.187 C -1.491,-1.625 -0.911,-1.915 -0.911,-2.656 C -0.911,-3.22 -1.33,-3.561 -1.85,-3.561 C -2.646,-3.561 -3.05,-3.072 -3.094,-2.285 L -3.11,-2.003 L -5.406,-2.003 C -5.589,-2.003 -5.62,-2.144 -5.617,-2.213 C -5.503,-4.427 -4.022,-5.697 -1.835,-5.697 C -0.028,-5.697 1.779,-4.718 1.779,-2.671 C 1.779,-1.231 1.1,-0.712 0,0 M 4.406,5.679 C 4.548,6.58 5.122,7.197 5.982,7.197 C 6.798,7.197 7.386,6.51 7.429,5.679 L 4.406,5.679 z M 9.87,4.555 C 9.893,6.964 8.563,8.845 5.982,8.845 C 3.79,8.845 1.97,7.211 1.97,4.934 C 1.97,2.44 3.618,0.98 6.039,0.98 C 7.635,0.98 9.165,1.667 9.677,3.243 C 9.684,3.266 9.736,3.444 9.591,3.444 L 7.457,3.444 C 7.228,2.9 6.655,2.626 6.068,2.626 C 5.036,2.626 4.449,3.3 4.406,4.317 L 9.663,4.317 C 9.891,4.317 9.87,4.477 9.87,4.555 M -20.106,5.679 C -19.964,6.58 -19.391,7.197 -18.53,7.197 C -17.714,7.197 -17.126,6.51 -17.083,5.679 L -20.106,5.679 z M -18.53,8.845 C -20.722,8.845 -22.542,7.211 -22.542,4.934 C -22.542,2.44 -20.894,0.98 -18.473,0.98 C -16.877,0.98 -15.347,1.667 -14.836,3.243 C -14.828,3.266 -14.776,3.444 -14.921,3.444 L -17.055,3.444 C -17.284,2.9 -17.857,2.626 -18.445,2.626 C -19.476,2.626 -20.063,3.3 -20.106,4.317 L -14.848,4.317 C -14.621,4.317 -14.642,4.477 -14.642,4.555 C -14.619,6.964 -15.95,8.845 -18.53,8.845 M -10.201,2.842 C -11.32,2.842 -11.691,3.973 -11.691,4.99 C -11.691,5.936 -11.32,6.982 -10.201,6.982 C -9.142,6.982 -8.754,5.994 -8.754,4.919 C -8.754,3.973 -9.013,2.842 -10.201,2.842 M -6.578,11.423 L -8.666,11.423 C -8.762,11.423 -8.84,11.345 -8.84,11.249 L -8.84,7.832 C -8.84,7.832 -8.853,7.828 -8.87,7.828 C -9.371,8.501 -10.073,8.845 -10.99,8.845 C -13.096,8.845 -14.127,7.01 -14.127,5.077 C -14.127,2.985 -13.139,0.98 -10.803,0.98 C -9.416,0.98 -8.748,2.053 -8.74,2.053 C -8.733,2.053 -8.726,1.975 -8.726,1.88 L -8.726,1.367 C -8.726,1.272 -8.648,1.194 -8.552,1.194 L -6.578,1.194 C -6.483,1.194 -6.406,1.272 -6.406,1.367 L -6.406,11.249 C -6.406,11.345 -6.483,11.423 -6.578,11.423 M -23.289,11.423 L -25.378,11.423 C -25.474,11.423 -25.552,11.345 -25.552,11.249 L -25.552,1.367 C -25.552,1.272 -25.474,1.194 -25.378,1.194 L -23.289,1.194 C -23.194,1.194 -23.116,1.272 -23.116,1.367 L -23.116,11.249 C -23.116,11.345 -23.194,11.423 -23.289,11.423 M -26.197,8.629 L -28.329,8.629 C -28.425,8.629 -28.522,8.554 -28.545,8.461 L -29.678,3.998 C -29.701,3.905 -29.727,3.83 -29.735,3.83 C -29.742,3.83 -29.766,3.906 -29.787,3.999 L -30.8,8.46 C -30.821,8.553 -30.916,8.629 -31.011,8.629 L -32.985,8.629 C -33.081,8.629 -33.175,8.553 -33.196,8.46 L -34.181,3.986 C -34.202,3.892 -34.225,3.816 -34.233,3.816 C -34.241,3.816 -34.267,3.892 -34.291,3.984 L -35.451,8.462 C -35.475,8.554 -35.572,8.629 -35.667,8.629 L -37.784,8.629 C -37.879,8.629 -37.934,8.555 -37.906,8.464 L -35.689,1.359 C -35.66,1.269 -35.559,1.194 -35.464,1.194 L -33.345,1.194 C -33.25,1.194 -33.154,1.27 -33.133,1.363 L -32.052,5.968 C -32.031,6.061 -32.006,6.137 -31.998,6.137 C -31.99,6.137 -31.965,6.061 -31.944,5.968 L -30.849,1.363 C -30.827,1.27 -30.731,1.194 -30.635,1.194 L -28.518,1.194 C -28.422,1.194 -28.321,1.269 -28.293,1.359 L -26.075,8.464 C -26.047,8.555 -26.102,8.629 -26.197,8.629 M -41.509,2.842 C -42.64,2.842 -42.984,3.959 -42.984,4.904 C -42.984,5.85 -42.64,6.982 -41.509,6.982 C -40.376,6.982 -40.019,5.85 -40.019,4.904 C -40.019,3.959 -40.376,2.842 -41.509,2.842 M -41.509,8.845 C -43.815,8.845 -45.419,7.139 -45.419,4.904 C -45.419,2.669 -43.815,0.98 -41.509,0.98 C -39.202,0.98 -37.583,2.669 -37.583,4.904 C -37.583,7.139 -39.202,8.845 -41.509,8.845 M -48.664,8.845 C -50.242,8.845 -51.006,7.612 -51.014,7.612 C -51.022,7.612 -51.028,7.615 -51.028,7.615 L -51.028,8.456 C -51.028,8.551 -51.106,8.629 -51.201,8.629 L -53.218,8.629 C -53.313,8.629 -53.392,8.551 -53.392,8.456 L -53.392,1.367 C -53.392,1.272 -53.313,1.194 -53.218,1.194 L -51.13,1.194 C -51.035,1.194 -50.956,1.272 -50.956,1.367 L -50.956,5.249 C -50.956,6.065 -50.555,6.839 -49.638,6.839 C -48.679,6.839 -48.421,6.36 -48.421,5.186 L -48.421,1.367 C -48.421,1.272 -48.342,1.194 -48.247,1.194 L -46.159,1.194 C -46.063,1.194 -45.985,1.272 -45.985,1.367 L -45.985,5.964 C -45.985,7.04 -46.186,8.845 -48.664,8.845 M -58.12,7.4 L -54.456,11.296 C -54.39,11.366 -54.415,11.423 -54.51,11.423 L -57.473,11.423 C -57.568,11.423 -57.697,11.364 -57.759,11.291 L -60.966,7.563 L -61.013,7.559 L -61.013,11.249 C -61.013,11.345 -61.091,11.423 -61.186,11.423 L -63.505,11.423 C -63.6,11.423 -63.678,11.345 -63.678,11.249 L -63.678,1.367 C -63.678,1.272 -63.6,1.194 -63.505,1.194 L -61.186,1.194 C -61.091,1.194 -61.013,1.272 -61.013,1.367 L -61.013,4.173 C -61.013,4.311 -61.01,4.356 -60.894,4.473 L -59.923,5.487 L -57.268,1.34 C -57.216,1.259 -57.096,1.194 -57.001,1.194 L -54.038,1.194 C -53.943,1.194 -53.909,1.258 -53.963,1.337 L -58.12,7.4 z "
           style="fill:#000000;fill-rule:nonzero;stroke:none" />
      </g>
    </g>
  </g>
</svg>
