<?xml version="1.0" encoding="UTF-8" standalone="no"?>
<svg
   xmlns:dc="http://purl.org/dc/elements/1.1/"
   xmlns:cc="http://creativecommons.org/ns#"
   xmlns:rdf="http://www.w3.org/1999/02/22-rdf-syntax-ns#"
   xmlns:svg="http://www.w3.org/2000/svg"
   xmlns="http://www.w3.org/2000/svg"
   xmlns:sodipodi="http://sodipodi.sourceforge.net/DTD/sodipodi-0.dtd"
   xmlns:inkscape="http://www.inkscape.org/namespaces/inkscape"
   width="191.83604"
   height="226.95653"
   viewBox="0 0 153.46884 181.56522"
   version="1.1"
   id="svg3051"
   inkscape:version="0.48.4 r9939"
   sodipodi:docname="tv.createandcraft.svg">
  <metadata
     id="metadata3115">
    <rdf:RDF>
      <cc:Work
         rdf:about="">
        <dc:format>image/svg+xml</dc:format>
        <dc:type
           rdf:resource="http://purl.org/dc/dcmitype/StillImage" />
        <dc:title />
      </cc:Work>
    </rdf:RDF>
  </metadata>
  <defs
     id="defs3113" />
  <sodipodi:namedview
     pagecolor="#ffffff"
     bordercolor="#666666"
     borderopacity="1"
     objecttolerance="10"
     gridtolerance="10"
     guidetolerance="10"
     inkscape:pageopacity="0"
     inkscape:pageshadow="2"
     inkscape:window-width="1600"
     inkscape:window-height="837"
     id="namedview3111"
     showgrid="false"
     inkscape:snap-bbox="true"
     inkscape:bbox-paths="true"
     inkscape:bbox-nodes="true"
     inkscape:snap-bbox-edge-midpoints="true"
     inkscape:snap-bbox-midpoints="true"
     inkscape:zoom="2"
     inkscape:cx="102.77067"
     inkscape:cy="109.94491"
     inkscape:window-x="-8"
     inkscape:window-y="-8"
     inkscape:window-maximized="1"
     inkscape:current-layer="layer1"
     fit-margin-top="0"
     fit-margin-left="0"
     fit-margin-right="0"
     fit-margin-bottom="0"
     showguides="false">
    <sodipodi:guide
       position="-415.58197,-101.02174"
       orientation="0,250"
       id="guide3135" />
    <sodipodi:guide
       position="-165.58197,-101.02174"
       orientation="-250,0"
       id="guide3137" />
    <sodipodi:guide
       position="-165.58197,148.97826"
       orientation="0,-250"
       id="guide3139" />
    <sodipodi:guide
       position="-415.58197,148.97826"
       orientation="250,0"
       id="guide3141" />
    <sodipodi:guide
       position="-415.58197,-101.02174"
       orientation="0,250"
       id="guide3143" />
    <sodipodi:guide
       position="-165.58197,-101.02174"
       orientation="-250,0"
       id="guide3145" />
    <sodipodi:guide
       position="-165.58197,148.97826"
       orientation="0,-250"
       id="guide3147" />
    <sodipodi:guide
       position="-415.58197,148.97826"
       orientation="250,0"
       id="guide3149" />
  </sodipodi:namedview>
  <g
     inkscape:groupmode="layer"
     id="layer1"
     inkscape:label="Laag"
     transform="translate(-332.46558,62.382615)">
    <path
       style="fill:#ed1b24"
       inkscape:connector-curvature="0"
       d="m 434.07558,-22.062615 c 9.85,-19.81 28.62,-34.61 49.91,-40.32 -0.52,1.66 -1.03,3.33 -1.55,4.99 -19.06,6.24 -35.38,20.29 -44.58,38.08 1.12,0.79 2.24,1.58 3.37,2.36 1.04,0.73 2.08,1.46 3.12,2.19 0.99,0.68 1.97,1.37 2.95,2.06 0.71,0.5 2.12,1.49 2.82,1.98 1.08,0.7499997 2.16,1.4999997 3.25,2.2399997 1.12,0.77 2.25,1.53 3.38,2.29 8.87,6.07999999 17.65,12.29 26.46,18.4500003 3.85,2.41 2.46,7.6 2.58,11.38 -0.25,30.02 0.05,60.05 -0.15,90.069995 0.08,3.5 -3.62,5.68 -6.8,5.46 -46.36,0 -92.73,0.04 -139.1,-0.02 -3.51,0.21 -6.87,-2.88 -6.47,-6.49 -0.02,-14.999995 -0.02,-30.019995 0.01,-45.019995 -0.17,-2.16 0.95,-5.09 3.54,-4.92 25.57,-0.47 51.14,0.29 76.71,-0.23 0.03,2.2 0.05,4.4 0.08,6.59 -24.64,0.01 -49.28,-0.01 -73.92,0.01 -0.03,14.69 -0.04,29.37 0.01,44.059995 46.56,0.03 93.11,-0.03 139.67,0.03 -0.06,-31.769995 0.15,-63.559995 -0.09,-95.319995 -1.74,-1.89 -4.06,-3.1 -6.13,-4.58 -21.15,-14.5200003 -42.29,-29.04 -63.41,-43.58 -24.26,16.61 -48.53,33.1899997 -72.82,49.75 -1.48,-1.58 -2.96,-3.15 -4.45,-4.72 24.69,-17.1400003 49.28,-34.42 73.98,-51.54 2.47,-2.08 5.72,-0.94 7.94,0.89 6.54,4.66 13.16,9.2 19.69,13.86 z"
       id="path3055" />
    <path
       style="fill:#f8981d"
       inkscape:connector-curvature="0"
       d="m 437.85558,-19.312615 c 9.2,-17.79 25.52,-31.84 44.58,-38.08 l 1.7,-0.59 c -0.42,1.58 -0.84,3.15 -1.25,4.72 -18.1,5.68 -33.32,19.36 -41.66,36.31 -1.13,-0.78 -2.25,-1.57 -3.37,-2.36 z"
       id="path3057" />
    <path
       style="fill:#fef200"
       inkscape:connector-curvature="0"
       d="m 441.22558,-16.952615 c 8.34,-16.95 23.56,-30.63 41.66,-36.31 l 1.41,-0.47 c -0.47,1.51 -0.94,3.03 -1.41,4.54 -16.63,5.95 -30.59,18.71 -38.54,34.43 -1.04,-0.73 -2.08,-1.46 -3.12,-2.19 z"
       id="path3059" />
    <path
       style="fill:#73c154"
       inkscape:connector-curvature="0"
       d="m 444.34558,-14.762615 c 7.95,-15.72 21.91,-28.48 38.54,-34.43 l 1.57,-0.59 c -0.39,1.54 -0.78,3.07 -1.17,4.6 -15.81,5.34 -28.63,17.66 -35.99,32.48 -0.98,-0.69 -1.96,-1.38 -2.95,-2.06 z"
       id="path3061" />
    <path
       style="fill:#1a4797"
       inkscape:connector-curvature="0"
       d="m 447.29558,-12.702615 c 7.36,-14.82 20.18,-27.14 35.99,-32.48 l 1.23,-0.46 c -0.39,1.67 -0.79,3.34 -1.21,5.01 -14.12,5.64 -26.43,16.17 -33.19,29.91 -0.7,-0.49 -2.11,-1.48 -2.82,-1.98 z"
       id="path3063" />
    <path
       style="fill:#981283"
       inkscape:connector-curvature="0"
       d="m 450.11558,-10.722615 c 6.76,-13.74 19.07,-24.27 33.19,-29.91 0.46,-0.19 1.39,-0.58 1.85,-0.77 -0.52,1.54 -1.04,3.08 -1.55,4.62 -6.48,2.87 -12.76,6.39 -17.84,11.39 -5.19,4.78 -8.98,10.8 -12.4,16.9099997 -1.09,-0.74 -2.17,-1.49 -3.25,-2.2399997 z"
       id="path3065" />
    <path
       style="fill:#cc98c7"
       inkscape:connector-curvature="0"
       d="m 483.60558,-36.782615 1.29,-0.59 c -0.38,1.61 -0.67,3.26 -1.31,4.79 -3.19,2.29 -7.03,3.48 -10.19,5.83 -7.48,4.99 -13.07,12.37 -16.65,20.5599997 -1.13,-0.76 -2.26,-1.52 -3.38,-2.29 3.42,-6.1099997 7.21,-12.1299997 12.4,-16.9099997 5.08,-5 11.36,-8.52 17.84,-11.39 z"
       id="path3067" />
    <path
       style="fill:#70bf54"
       inkscape:connector-curvature="0"
       d="m 347.18558,24.937385 c 6.57,-3.26 14.22,-1.89 21.15,-0.8 -0.02,2.65 -0.05,5.3 -0.15,7.95 -4.31,0.06 -3.06,-5.97 -6.82,-6.84 -3.56,-0.9 -8.05,-0.69 -10.56,2.34 -2.34,3.13 -2.49,7.25 -2.53,11.01 0.14,3.45 0.33,7.21 2.41,10.13 2.45,3.19 7.13,3.28 10.66,2.22 3.88,-1.07 2.28,-7.63 6.99,-7.08 0.06,2.72 0.07,5.45 0.07,8.18 -6.36,1.36 -13.17,2.35 -19.51,0.42 -5.05,-1.51 -7.78,-6.81 -7.87,-11.8 -0.45,-5.7 0.55,-12.8 6.16,-15.73 z"
       id="path3069" />
    <path
       style="fill:#70bf54"
       inkscape:connector-curvature="0"
       d="m 443.26558,26.827385 c 2.07,-0.59 4.14,-1.18 6.22,-1.77 -0.12,2.68 -0.2,5.36 -0.26,8.04 1.55,0.01 3.1,0.03 4.65,0.05 l 0,1.61 c -1.5,-0.01 -2.99,-0.02 -4.49,-0.03 0.13,4.94 -0.46,9.94 0.36,14.83 1.13,2.2 4.16,0.88 6.13,1.3 -2.67,2.27 -6.35,3 -9.74,2.23 -1.64,-0.37 -2.68,-1.98 -2.76,-3.59 -0.35,-4.76 -0.03,-9.54 -0.15,-14.31 -1.3,-0.49 -2.61,-0.97 -3.76,-1.76 0.94,-0.1 2.84,-0.31 3.79,-0.41 0,-2.07 0,-4.13 0.01,-6.19 z"
       id="path3071" />
    <path
       d="m 370.92558,33.106137 c 0.85375,-0.0072 1.69243,-0.02064 2.66328,-0.02912 0.96703,-0.008 2.07827,-0.02488 3.03939,-0.03264 0.94563,-0.008 1.71962,-0.05672 2.59967,-0.05432 2.97335,0.008 1.96266,-0.277816 2.26766,1.397184 2.05,-1.29 4.59,-2.81 7.02,-1.48 2.77,1.03 2.99,6.700004 -0.67,6.300004 -2.2,0.26 -2.26,-2.840004 -3.28,-4.180004 -1.25,0.74 -3.11,1.21 -3.19,2.960004 -0.6,4.15 -0.28,8.36 -0.09,12.53 1.49,0.56 2.97,1.17 4.25,2.14 -4.9125,0.002 -9.8,-0.0175 -14.7,-0.01 1.18,-0.86 2.44,-1.6 3.7,-2.33 0.17,-4.95 0.14,-9.9 0.02,-14.850004 -0.315,-0.165 -0.6225,-0.351328 -0.92578,-0.548944 -0.30328,-0.197616 -0.60234,-0.406536 -0.90047,-0.61668 -0.0745,-0.05248 -0.22522,-0.103456 -0.4094,-0.15356 -0.18418,-0.05008 -0.40187,-0.0994 -0.61039,-0.14876 -0.20853,-0.04928 -0.4079,-0.0987 -0.55546,-0.14896 -0.14756,-0.05024 -0.24331,-0.101344 -0.24459,-0.154144 -0.006,-0.246592 -0.001,-0.302696 0.0161,-0.5902 z"
       id="path3073"
       inkscape:connector-curvature="0"
       style="fill:#70bf54"
       sodipodi:nodetypes="csssccccccccccsssssscc" />
    <path
       style="fill:#70bf54"
       d="M 86.90625 118.5 C 82.450318 118.65344 78.125 120.3125 76.3125 124.59375 C 74.6125 129.96875 74.175 136.68125 77.75 141.40625 C 82 145.55625 88.8375 145.1875 94.1875 143.8125 C 97.6125 143.0875 98.81875 139.7625 99.21875 136.6875 C 97.78125 136.65 96.3125 136.61875 94.875 136.59375 C 93.475 139.33125 91.85625 143.28125 87.96875 142.34375 C 83.05625 141.83125 83.93125 135.60625 83.40625 132.09375 C 88.93125 132.06875 94.475 132.1 100 132 C 99.8 127.5 99.525 121.50625 94.5625 119.59375 C 92.289063 118.84844 89.579809 118.40793 86.90625 118.5 z M 87.125 120.8125 C 87.386011 120.78614 87.665625 120.79141 87.96875 120.8125 C 92.61875 120.725 91.8875 126.5875 92.375 129.6875 C 89.425 129.7 86.45 129.7 83.5 129.6875 C 83.828125 126.71094 83.209839 121.20796 87.125 120.8125 z "
       transform="matrix(0.80000002,0,0,0.80000002,332.46558,-62.382619)"
       id="path3075" />
    <path
       style="fill:#70bf54"
       d="M 116.65625 118.53125 C 112.78125 118.59375 106.8375 119.9 107.0625 124.875 C 106.9875 127.825 110.71875 126.44375 112.53125 126.84375 C 113.20625 124.13125 113.94375 119.39375 117.96875 120.78125 C 122.20625 121.38125 120.51875 126.7875 121.03125 129.75 C 116.66875 129.9 111.95625 129.19375 107.90625 131.21875 C 102.50625 134.14375 104.09375 143.975 110.46875 144.5 C 114.70625 146.0625 119.075 141.15625 122.875 144.03125 C 126.63927 144.13125 130.05 144.0875 133.625 143.75 C 132.1375 142.7 130.55 141.79375 128.9375 140.96875 C 128.475 135.10625 129.3625 129.14375 128.25 123.34375 C 126.5875 118.73125 120.78125 118.46875 116.65625 118.53125 z M 121.0625 131.65625 C 120.7875 134.98125 121.81875 141.7125 116.59375 141.1875 C 112.94375 141.55 112.55625 136.725 113.65625 134.25 C 114.99375 131.45 118.55 132.20625 121.0625 131.65625 z "
       transform="matrix(0.80000002,0,0,0.80000002,332.46558,-62.382619)"
       id="path3077" />
    <path
       style="fill:#70bf54"
       d="M 167.9375 118.46875 C 165.35 118.48437 162.75 119.03125 160.40625 120 C 155.75625 122.175 154.9375 128 155 132.5625 C 154.9125 137.05 156.575 142.45625 161.375 143.84375 C 166.0625 145.06875 171.4625 145.2875 175.875 143 C 178.3125 141.8625 178.4375 138.9375 179.125 136.6875 C 177.6625 136.6625 176.2125 136.6375 174.75 136.625 C 173.3875 139.3375 171.78125 143.25 167.96875 142.375 C 162.98125 141.925 163.8125 135.6875 163.3125 132.125 C 168.8125 132.075 174.3 132.075 179.8125 132 C 179.55 127.8125 179.66875 122.375 175.40625 120.0625 C 173.0875 118.95625 170.525 118.45313 167.9375 118.46875 z M 167.0625 120.8125 C 167.32662 120.79396 167.6 120.78125 167.90625 120.8125 C 172.55625 120.7625 171.7125 126.6 172.1875 129.6875 C 169.25 129.7125 166.3125 129.7 163.375 129.6875 C 163.70312 126.71094 163.10065 121.09055 167.0625 120.8125 z "
       transform="matrix(0.80000002,0,0,0.80000002,332.46558,-62.382619)"
       id="path3079" />
    <path
       style="fill:#ed1a23"
       d="M 125.5 154 C 123.15 154.025 120.81875 154.01875 118.46875 154.03125 C 115.88125 158.55624 113.23125 163.0625 110.71875 167.625 L 115.6875 167.625 C 116.075 167.03751 116.88125 165.83751 117.28125 165.25 C 120.44375 165.25 123.5875 165.2625 126.75 165.25 C 127.025 165.7625 127.675 167.08125 127.9375 167.59375 C 129.6779 167.60675 130.8971 167.58262 132.625 167.5625 C 130.25 162.9125 128.0875 158.5375 125.5 154 z M 121.96875 156.6875 C 123.04375 158.5 124.125 160.35 125.1875 162.1875 C 123.05 162.2 120.90625 162.1875 118.78125 162.1875 C 119.83125 160.35 120.90625 158.5125 121.96875 156.6875 z "
       transform="matrix(0.80000002,0,0,0.80000002,332.46558,-62.382619)"
       id="path3087" />
    <path
       style="fill:#ec121b"
       d="M 167.125 154.03125 C 164.41563 154.05469 161.7 154.13125 159 154.09375 C 159 158.49375 159.0125 162.88125 159 167.28125 C 161.64955 167.25088 164.39878 167.28147 167.0625 167.28125 C 169.75946 167.28103 172.475 167.35625 175.15625 167.0625 C 177.99375 166.925 178.4625 163.50625 178.375 161.28125 C 178.45 158.73125 178.575 154.7375 175.25 154.3125 C 172.55 154.03125 169.83437 154.00781 167.125 154.03125 z M 163.59375 157.25 C 165.30625 157.275 167.00695 157.23488 168.71875 157.25 C 170.36562 157.264 172.98664 157.06865 173.84375 157.8125 C 174.60366 158.47199 174.30321 163.04039 173.71875 163.71875 C 173.15631 164.37155 166.8875 164.0875 163.5625 164.125 C 163.5625 161.8375 163.58125 159.5375 163.59375 157.25 z "
       transform="matrix(0.80000002,0,0,0.80000002,332.46558,-62.382619)"
       id="path3089" />
    <path
       d="m 440.66558,60.887385 c 2.11,-0.03 4.23,-0.05 6.34,-0.08 2.11,2.78 4.19,5.58 6.32,8.34 0.01,-2.78 -0.04,-5.55 -0.08,-8.33 0.93999,6.2e-4 2.83437,-0.004 3.73312,-0.007 0,3.55 -0.003,7.14688 -0.003,10.69688 -2.11,0 -4.22,0 -6.32,0.02 -2.11,-2.75 -4.19,-5.52 -6.3,-8.27 -0.04,2.78 -0.03,5.56 -0.04,8.34 -1.26303,0.0119 -2.45652,-0.004 -3.63116,-8e-4 -0.01,-3.52 -0.0188,-7.1991 -0.0188,-10.7091 z"
       id="path3091"
       inkscape:connector-curvature="0"
       style="fill:#ed1820"
       sodipodi:nodetypes="cccccccccccc" />
    <path
       style="fill:#1a4798"
       inkscape:connector-curvature="0"
       d="m 345.36558,82.147385 c 2.06,-2.35 5.61,-1.82 8.43,-2.08 3.9,0.11 8.01,-0.55 11.74,0.84 2.44,1.09 1.88,4.14 2.32,6.29 -1.88,0.04 -3.76,0.07 -5.65,0.11 -0.21,-0.56 -0.63,-1.68 -0.84,-2.24 -3.18,-0.16 -6.38,-0.43 -9.54,0.01 -1.23,0 -1.64,1.43 -1.67,2.43 -0.21,2.22 -0.01,4.46 0.14,6.68 3.14,0.63 6.36,0.86 9.55,0.57 1.76,0.24 2.21,-1.67 2.89,-2.83 1.82,-0.01 3.65,-0.02 5.47,-0.01 -0.27,2.44 0.17,6.13 -2.86,7.01 -5.72,1.239995 -11.73,1.02 -17.5,0.15 -3.06,-0.44 -3.59,-3.92 -3.52,-6.45 0.09,-3.47 -0.54,-7.27 1.04,-10.48 z"
       id="path3097" />
    <path
       style="fill:#1a4797"
       d="M 61.5625 178.34375 C 57.757813 178.36406 53.95625 178.4125 50.15625 178.375 C 50.14375 186.3125 50.16875 194.25 50.15625 202.1875 C 52.56875 202.2 54.9625 202.20625 57.375 202.21875 C 57.4 200.15625 57.4125 198.1125 57.4375 196.0625 C 62.025 196.0375 66.6125 195.99375 71.1875 196.40625 C 71.4875 198.34375 71.7875 200.2875 72.0625 202.25 C 74.3375 202.2125 76.61875 202.2125 78.90625 202.1875 C 78.73125 198.95 79.45 195.2125 76.6875 192.8125 C 79.8875 189.9875 79.35625 185.3375 78.59375 181.5625 C 78.06875 179.1 75.1375 178.4875 73 178.4375 C 69.19375 178.33125 65.367187 178.32344 61.5625 178.34375 z M 64.375 184.40625 C 66.696875 184.39531 69.00625 184.43125 71.3125 184.75 C 72.175 186.3125 72.825 189.425 70.4375 189.9375 C 66.125 190.4375 61.7625 190.06875 57.4375 190.15625 C 57.425 188.25625 57.40625 186.3375 57.40625 184.4375 C 59.725 184.4875 62.053125 184.41719 64.375 184.40625 z "
       transform="matrix(0.80000002,0,0,0.80000002,332.46558,-62.382619)"
       id="path3099" />
    <path
       style="fill:#1a4797"
       d="M 105.84375 178.34375 C 102.19375 178.36875 98.55625 178.3875 94.90625 178.375 C 90.74375 186.2875 86.69375 194.2625 82.53125 202.1875 C 85.26875 202.2 88.0125 202.19375 90.75 202.21875 C 91.4125 200.85625 92.075 199.525 92.75 198.1875 L 107.9375 198.1875 C 108.5625 199.525 109.1875 200.85 109.8125 202.1875 C 112.5625 202.1875 115.3125 202.2 118.0625 202.1875 C 113.95 194.2625 109.94375 186.26875 105.84375 178.34375 z M 99.875 183.875 C 102.9625 185.5 103.48125 190.075 105.40625 192.875 C 102.03125 192.9 98.65625 192.88125 95.28125 192.90625 C 96.78125 189.88125 98.1375 186.7625 99.875 183.875 z "
       transform="matrix(0.80000002,0,0,0.80000002,332.46558,-62.382619)"
       id="path3101" />
    <path
       style="fill:#1a4798"
       inkscape:connector-curvature="0"
       d="m 430.35558,80.317385 c 6.56,0 13.13,0 19.69,0 -0.01,1.54 -0.03,3.07 -0.04,4.61 -4.64,0 -9.28,0.01 -13.92,-0.02 -0.02,1.14 -0.03,2.29 -0.05,3.43 4.42,-0.01 8.84,-0.01 13.25,-0.02 0,1.51 0,3.02 0,4.54 -4.4,0 -8.81,0 -13.22,-0.03 -0.01,2.18 -0.01,4.37 -0.02,6.55 -1.89,0.01 -3.78,0.01 -5.68,0.03 0,-6.37 0.02,-12.73 -0.01,-19.09 z"
       id="path3103" />
    <path
       style="fill:#1a4798"
       inkscape:connector-curvature="0"
       d="m 452.58558,85.247385 c 0,-1.65 0,-3.29 0.01,-4.93 7.48,-0.01 14.96,0.01 22.44,-0.01 0.01,1.66 0.03,3.32 0.04,4.98 -2.72,-0.02 -5.44,-0.03 -8.17,-0.05 0,4.71 0,9.43 -0.01,14.14 -2.03,-0.01 -4.06,-0.02 -6.09,-0.05 0.14,-4.68 0.09,-9.36 0.09,-14.04 -2.77,-0.02 -5.54,-0.02 -8.31,-0.04 z"
       id="path3105" />
  </g>
</svg>
