<?xml version="1.0" encoding="UTF-8" standalone="no"?>
<!-- Created with Inkscape (http://www.inkscape.org/) -->

<svg
   xmlns:dc="http://purl.org/dc/elements/1.1/"
   xmlns:cc="http://creativecommons.org/ns#"
   xmlns:rdf="http://www.w3.org/1999/02/22-rdf-syntax-ns#"
   xmlns:svg="http://www.w3.org/2000/svg"
   xmlns="http://www.w3.org/2000/svg"
   xmlns:sodipodi="http://sodipodi.sourceforge.net/DTD/sodipodi-0.dtd"
   xmlns:inkscape="http://www.inkscape.org/namespaces/inkscape"
   width="550"
   height="300"
   id="svg2"
   version="1.1">
  <g
     inkscape:label="Layer 1"
     inkscape:groupmode="layer"
     id="layer1"
     transform="translate(440.66006,204.73751)">
    <rect
       style="fill:#ed1312"
       id="rect8115"
       height="200.01633"
       width="549.99585"
       clip-path="none"
       y="-104.75384"
       x="-440.6601" />
    <rect
       id="rect8117"
       height="100.00816"
       width="400.03265"
       clip-path="none"
       y="-204.73752"
       x="-440.6601" />
    <path
       style="fill:#ffffff"
       id="path8119"
       d="m -366.43753,-180.24972 c 0.17142,-0.83259 0.24488,-1.32234 0.24488,-1.46927 0,-0.51424 -0.24488,-0.90605 -0.73463,-1.24888 -5.65668,-3.69765 -12.58673,-5.55873 -20.76565,-5.55873 -10.2359,0 -18.68419,3.23239 -25.36936,9.67268 -6.68517,6.41581 -10.01551,14.54575 -10.01551,24.41434 0,9.55024 3.06098,17.26389 9.18293,23.18994 6.14643,5.90156 14.17843,8.86458 24.09599,8.86458 5.48526,0 9.8196,-0.95502 12.97853,-2.86507 0.61219,-0.31834 0.97951,-1.10195 1.15092,-2.37532 0,0 1.68966,-11.8276 1.76313,-12.31736 0.12244,-0.93053 -0.39181,-0.78361 -2.8161,-0.0245 -4.70166,1.37132 -8.54624,2.05698 -11.53375,2.05698 -4.79961,0 -8.74215,-1.6162 -11.8521,-4.8241 -3.10995,-3.23239 -4.65268,-7.32185 -4.65268,-12.26838 0,-5.33834 1.76312,-9.69717 5.31385,-13.07649 3.52625,-3.37931 8.12995,-5.06897 13.81112,-5.06897 5.43629,0 10.13795,1.24888 14.056,3.77112 1.1999,0.75912 1.93453,1.15093 2.2039,1.15093 0.3918,0 0.68566,-0.6122 0.90605,-1.8121 l 2.03248,-10.21141 z"
       clip-path="none" />
    <path
       style="fill:#ffffff"
       id="path8121"
       d="m -319.27403,-185.04933 c -0.14693,-0.88156 -0.6122,-1.32234 -1.39581,-1.32234 h -18.88009 c -0.85707,0 -1.49375,0.39181 -1.86107,1.15093 l -29.11599,58.86866 c -0.0979,0.31834 -0.14692,0.56322 -0.14692,0.71014 0,0.39181 0.22039,0.58771 0.63668,0.58771 h 15.86809 c 0.97951,0 1.64068,-0.31834 1.95902,-0.97951 l 4.08947,-8.4238 c 0.31834,-0.66117 0.88156,-0.97951 1.64068,-0.97951 h 19.93306 c 0.75913,0 1.19991,0.34283 1.32234,1.05297 l 2.10596,8.49727 c 0.12243,0.56322 0.51424,0.83258 1.15092,0.83258 h 14.15395 c 0.48975,0 0.73463,-0.24488 0.73463,-0.73463 v -0.31834 l -12.19492,-58.94213 z m -9.96653,35.87462 h -11.8521 c -0.3918,0 -0.56322,-0.0735 -0.56322,-0.24488 l 0.14693,-0.48975 7.93405,-17.99853 c 0.17141,-0.29385 0.29385,-0.51424 0.41629,-0.56322 0.17141,0.12244 0.29385,0.3918 0.41629,0.83258 l 4.16293,17.41083 c 0.0979,0.41629 0.14692,0.66117 0.14692,0.73463 0,0.22039 -0.26936,0.31834 -0.80809,0.31834"
       clip-path="none" />
    <path
       style="fill:#ffffff"
       id="path8123"
       d="m -299.31648,-125.88681 c 0,0.56322 0.46527,0.83258 1.39581,0.83258 h 13.6397 c 0.75912,0 1.1999,-0.3918 1.32234,-1.15092 l 4.89756,-34.96858 c 0.0979,-0.73463 0.1959,-1.07746 0.24488,-1.07746 0.14692,0.12244 0.36731,0.36732 0.63668,0.8081 l 20.03102,35.23794 c 0.44078,0.75912 1.10195,1.15092 1.95902,1.15092 h 13.98253 c 0.93054,0 1.44478,-0.31834 1.56722,-0.97951 l 8.15444,-59.43188 c 0,-0.58771 -0.34283,-0.90605 -1.05298,-0.90605 h -14.47228 c -0.97952,0 -1.51825,0.41629 -1.64069,1.22439 l -4.4078,31.7117 c -0.0979,0.83258 -0.24488,1.22439 -0.41629,1.22439 -0.14693,0 -0.39181,-0.26937 -0.73464,-0.88156 l -18.29238,-32.12799 c -0.44078,-0.75912 -1.10195,-1.15093 -1.98351,-1.15093 h -15.52526 c -0.75913,0 -1.19991,0.36732 -1.29786,1.07746 l -8.00751,59.4074 z"
       clip-path="none" />
    <path
       style="fill:#ffffff"
       id="path8125"
       d="m -169.75155,-126.35208 -12.34185,-58.7952 c -0.17141,-0.8081 -0.66117,-1.22439 -1.46927,-1.22439 h -17.99853 c -0.85707,0 -1.46926,0.36732 -1.7876,1.07746 l -28.94458,59.08906 c -0.17141,0.31834 -0.24488,0.56321 -0.24488,0.73463 0,0.26936 0.22039,0.44078 0.66117,0.44078 h 15.69668 c 0.8081,0 1.37132,-0.29385 1.71415,-0.90605 l 4.4078,-8.57073 c 0.31834,-0.61219 0.90605,-0.90605 1.71414,-0.90605 h 18.8801 c 0.97951,0 1.54273,0.44078 1.71414,1.29786 l 1.56722,7.93404 c 0.14693,0.75912 0.68566,1.15093 1.54273,1.15093 h 13.98253 c 0.66117,0 0.97951,-0.17142 0.97951,-0.51424 0,-0.39181 -0.0245,-0.66117 -0.0735,-0.8081 m -21.18194,-23.38585 c 0,0.36732 -0.29386,0.56322 -0.90605,0.56322 h -11.01951 c -0.71014,0 -1.07746,-0.17141 -1.07746,-0.48975 0,-0.17142 0.0735,-0.4163 0.17141,-0.73464 l 8.00751,-18.07199 c 0.22039,-0.44078 0.39181,-0.68566 0.48976,-0.73463 0.12244,0.098 0.22039,0.36731 0.31834,0.73463 l 3.94253,17.90058 c 0,0.0735 0.0245,0.1959 0.0735,0.41629 v 0.41629 z"
       clip-path="none" />
    <path
       style="fill:#ffffff"
       id="path8127"
       d="m -153.32024,-186.37167 c -0.61219,0 -0.95502,0.44078 -1.07746,1.32234 l -8.49727,59.33393 c 0,0.44078 0.24488,0.66117 0.73464,0.66117 h 34.33189 c 0.71014,0 1.12644,-0.31834 1.22439,-0.97951 l 1.64068,-12.02351 c 0,-0.53873 -0.26937,-0.8081 -0.8081,-0.8081 h -16.43131 c -0.66117,0 -0.97951,-0.31834 -0.97951,-0.90604 v -0.17142 l 6.12195,-45.69423 c 0,-0.48975 -0.26937,-0.73463 -0.83259,-0.73463 h -15.42731 z"
       clip-path="none" />
    <path
       style="fill:#ffffff"
       id="path8129"
       d="m -82.060751,-148.1952 c 0,-0.71014 0.367317,-1.05297 1.077463,-1.05297 h 20.275895 c 0.587707,0 0.881561,-0.34283 0.881561,-0.97951 v -16.67619 c 0,-0.71015 -0.293854,-1.05298 -0.881561,-1.05298 h -20.520773 c -0.538732,0 -0.832585,-0.3918 -0.832585,-1.17541 v -18.88009 c 0,-0.53873 -0.342829,-0.8081 -1.052975,-0.8081 h -16.676189 c -0.538735,0 -0.808095,0.26937 -0.808095,0.8081 v 18.88009 c 0,0.78361 -0.34283,1.17541 -0.97951,1.17541 h -21.91658 c -0.58771,0 -0.90605,0.26937 -0.90605,0.88156 v 16.77414 c 0,0.68566 0.34283,1.05298 0.97951,1.05298 h 21.74516 c 0.71015,0 1.07747,0.3918 1.07747,1.22439 v 21.99004 c 0,0.66117 0.29385,0.97951 0.881558,0.97951 h 16.77414 c 0.587707,0 0.881561,-0.3918 0.881561,-1.15092 v -21.99005 z"
       clip-path="none" />
    <path
       style="fill:#ffffff"
       id="path8131"
       d="m -343.73734,7.3512847 -12.19492,-36.4623287 -12.51327,36.4623287 h 24.70819 z m 8.032,22.7001873 h -40.99257 l -7.73815,19.786139 h -31.39335 l 43.88213,-114.309032 h 32.2994 l 43.17199,114.309032 h -31.7117 l -7.51775,-19.786139 z"
       clip-path="none" />
    <path
       style="fill:#ffffff"
       id="path8133"
       d="m -232.80762,-25.241972 v 23.1409675 c -4.89756,-3.3793159 -9.62371,-5.0689738 -14.12946,-5.0689738 -5.60771,0 -10.16244,1.7631213 -13.68868,5.2893639 -3.47727,3.5262427 -5.2159,8.0075093 -5.2159,13.4682874 0,5.313852 1.73863,9.721655 5.2159,13.247898 3.57522,3.575218 8.12995,5.362827 13.68868,5.362827 5.16692,0 9.86858,-1.738633 14.12946,-5.2159 V 47.95205 c -6.24439,2.963024 -12.73366,4.481267 -19.49229,4.481267 -12.09697,0 -22.25941,-4.064974 -30.43833,-12.194922 -7.83609,-7.738144 -11.75414,-17.239409 -11.75414,-28.503795 0,-11.6072151 3.99151,-21.3288701 11.97453,-29.164965 8.25239,-8.178924 18.56175,-12.268386 30.97706,-12.268386 3.64868,0 7.2239,0.391805 10.70117,1.175415 2.27736,0.563219 4.97102,1.640682 8.032,3.281364"
       clip-path="none" />
    <path
       style="fill:#ffffff"
       id="path8135"
       d="m -160.27477,-25.241972 v 23.1409675 c -4.92205,-3.3793159 -9.62371,-5.0689738 -14.15395,-5.0689738 -5.6077,0 -10.16243,1.7631213 -13.68868,5.2893639 -3.47726,3.5262427 -5.2159,8.0075093 -5.2159,13.4682874 0,5.313852 1.73864,9.721655 5.2159,13.247898 3.57522,3.575218 8.12995,5.362827 13.68868,5.362827 5.16693,0 9.86858,-1.738633 14.15395,-5.2159 V 47.95205 c -6.26888,2.963024 -12.75814,4.481267 -19.51677,4.481267 -12.09698,0 -22.23492,-4.064974 -30.41385,-12.194922 -7.86058,-7.738144 -11.77863,-17.239409 -11.77863,-28.503795 0,-11.6072151 3.99151,-21.3288701 11.99902,-29.164965 8.2279,-8.178924 18.53726,-12.268386 30.95258,-12.268386 3.67317,0 7.24838,0.391805 10.70116,1.175415 2.27737,0.563219 4.97103,1.640682 8.05649,3.281364"
       clip-path="none" />
    <path
       style="fill:#ffffff"
       id="path8137"
       d="m -116.36815,49.837611 h -27.45082 v -77.087582 h 27.45082 v 77.087582 z m -13.68868,-115.55791 c 4.18741,0 7.78712,1.542732 10.87258,4.603706 2.98751,2.987511 4.45678,6.611705 4.45678,10.872582 0,4.113949 -1.46927,7.689167 -4.45678,10.701166 -3.03649,3.085463 -6.68517,4.628194 -11.01951,4.628194 -4.2119,0 -7.83609,-1.542731 -10.87258,-4.628194 -2.96302,-2.963023 -4.45678,-6.489266 -4.45678,-10.55424 0,-4.383315 1.51825,-8.10546 4.55473,-11.166435 2.91405,-3.011999 6.56273,-4.456779 10.92156,-4.456779"
       clip-path="none" />
    <path
       style="fill:#ffffff"
       id="path8139"
       d="m -32.96272,-58.667813 -26.250917,17.802627 -10.505265,-9.77063 22.406333,-20.961554 14.349849,12.929557 z m -24.855113,52.1100296 c -4.750632,0 -8.864582,1.7141457 -12.341849,5.1914127 -3.477267,3.4282915 -5.215901,7.5422412 -5.215901,12.3663367 0,4.995511 1.738634,9.256387 5.215901,12.709166 3.428291,3.45278 7.566729,5.142438 12.415312,5.142438 4.922047,0 9.084973,-1.738634 12.513264,-5.191413 3.477267,-3.428292 5.215901,-7.591217 5.215901,-12.513264 0,-4.9220469 -1.714146,-9.0849722 -5.142438,-12.5132637 -3.428291,-3.477267 -7.640192,-5.1914127 -12.66019,-5.1914127 m 0.293853,-23.6062356 c 9.89307,0 18.733164,2.22839 26.569259,6.709656 6.415803,3.67317 11.33785,8.546241 14.815117,14.5947268 3.477267,5.9750222 5.2159,12.7091661 5.2159,20.1534562 0,11.21541 -3.746633,20.594236 -11.239898,28.136477 -4.260877,4.211901 -9.427802,7.44429 -15.476287,9.746143 -6.244388,2.375317 -12.978532,3.575219 -20.177944,3.575219 -14.66819,0 -26.495795,-4.481267 -35.409353,-13.394825 -7.493264,-7.44429 -11.239894,-16.602726 -11.239894,-27.475307 0,-11.50926414 3.86907,-21.1574558 11.607211,-28.944575 8.644192,-8.742143 20.422822,-13.100971 35.335889,-13.100971"
       clip-path="none" />
    <path
       style="fill:#ffffff"
       id="path8141"
       d="M 0.80595055,-27.249971 H 28.281258 v 9.746143 c 1.077463,-1.248878 2.203901,-2.399804 3.33034,-3.501755 5.313852,-5.313852 12.537751,-7.958534 21.671699,-7.958534 9.329851,0 16.774141,2.791609 22.381846,8.399314 2.693657,2.693658 4.55473,5.607706 5.583217,8.791119 1.052976,3.0609745 1.567219,7.2238999 1.567219,12.58672719 V 49.837611 H 55.36476 V 10.85304 5.637139 c 0,-2.6201942 -0.563219,-4.94653479 -1.640682,-7.0035097 -2.179414,-3.9670229 -5.926047,-5.9505344 -11.239899,-5.9505344 -4.456779,0 -7.983021,1.44478 -10.55424,4.3098521 -2.448779,2.74263317 -3.648681,6.5872171 -3.648681,11.5337519 V 49.837611 H 0.80595055 v -77.087582 z"
       clip-path="none" />
  </g>
</svg>
