<?xml version="1.0" encoding="UTF-8" standalone="no"?>
<!-- Created with Inkscape (http://www.inkscape.org/) -->

<svg
   xmlns:dc="http://purl.org/dc/elements/1.1/"
   xmlns:cc="http://creativecommons.org/ns#"
   xmlns:rdf="http://www.w3.org/1999/02/22-rdf-syntax-ns#"
   xmlns:svg="http://www.w3.org/2000/svg"
   xmlns="http://www.w3.org/2000/svg"
   xmlns:inkscape="http://www.inkscape.org/namespaces/inkscape"
   version="1.1"
   width="750"
   height="300"
   id="svg2">
  <metadata
     id="metadata23">
    <rdf:RDF>
      <cc:Work
         rdf:about="">
        <dc:format>image/svg+xml</dc:format>
        <dc:type
           rdf:resource="http://purl.org/dc/dcmitype/StillImage" />
      </cc:Work>
    </rdf:RDF>
  </metadata>
  <defs
     id="defs21" />
  <g
     transform="translate(-3.7952339,-381.16328)"
     id="layer1">
    <rect
       width="750"
       height="200.01649"
       x="3.7952106"
       y="481.14682"
       id="rect7697"
       style="fill:#ed1312" />
    <rect
       width="400.03299"
       height="100.00825"
       x="3.7952106"
       y="381.1633"
       id="rect7699" />
    <path
       d="m 78.028714,405.67675 c 0.148417,-0.8163 0.247361,-1.31102 0.247361,-1.48417 0,-0.46999 -0.247361,-0.8905 -0.742084,-1.21207 -5.664578,-3.71043 -12.590699,-5.56564 -20.753627,-5.56564 -10.240765,0 -18.700528,3.2157 -25.379287,9.6471 -6.67876,6.4314 -10.01814,14.56959 -10.01814,24.43931 0,9.54816 3.067282,17.26583 9.177111,23.17777 6.134564,5.91194 14.173812,8.85554 24.093007,8.85554 5.491425,0 9.82025,-0.93997 12.986477,-2.84465 0.593668,-0.32157 0.989446,-1.11313 1.162599,-2.37467 0,0 1.682058,-11.84862 1.73153,-12.3186 0.148417,-0.93998 -0.371042,-0.79156 -2.81992,-0.0247 -4.675132,1.36049 -8.509235,2.0531 -11.502309,2.0531 -4.823549,0 -8.756596,-1.60785 -11.848614,-4.82355 -3.116755,-3.2157 -4.675132,-7.29716 -4.675132,-12.26913 0,-5.34301 1.781003,-9.69657 5.318272,-13.08542 3.537269,-3.36412 8.138192,-5.07091 13.80277,-5.07091 5.466688,0 10.14182,1.26154 14.074867,3.78463 1.187335,0.74209 1.92942,1.13786 2.201517,1.13786 0.371043,0 0.667876,-0.59366 0.890502,-1.80574 l 2.0531,-10.21602 z"
       inkscape:connector-curvature="0"
       id="path7701"
       style="fill:#ffffff" />
    <path
       d="m 125.20055,400.8532 c -0.17316,-0.86577 -0.64314,-1.31102 -1.40996,-1.31102 h -18.87368 c -0.86577,0 -1.48417,0.37104 -1.87995,1.13786 l -29.08971,58.87203 c -0.123681,0.32157 -0.173153,0.56894 -0.173153,0.71735 0,0.39578 0.222625,0.59367 0.643139,0.59367 h 15.880607 c 0.964709,0 1.632585,-0.34631 1.954155,-0.98945 l 4.081465,-8.43502 c 0.321569,-0.64314 0.865765,-0.96471 1.632585,-0.96471 h 19.962072 c 0.74208,0 1.18733,0.3463 1.28628,1.06365 l 2.12731,8.4845 c 0.12368,0.56893 0.49472,0.84103 1.1626,0.84103 h 14.12434 c 0.49472,0 0.74208,-0.24736 0.74208,-0.74208 v -0.32157 L 125.20055,400.8532 z m -9.99341,35.89215 h -11.84861 c -0.37104,0 -0.56893,-0.0989 -0.56893,-0.24736 l 0.17315,-0.49473 7.91557,-17.98318 c 0.17315,-0.32157 0.29683,-0.51946 0.42051,-0.56893 0.14842,0.099 0.29684,0.37104 0.39578,0.81629 l 4.18041,17.41425 c 0.0989,0.42052 0.17315,0.66788 0.17315,0.71735 0,0.22263 -0.29683,0.34631 -0.84103,0.34631"
       inkscape:connector-curvature="0"
       id="path7703"
       style="fill:#ffffff" />
    <path
       d="m 145.13788,460.02206 c 0,0.5442 0.46999,0.84103 1.38522,0.84103 h 13.65436 c 0.76682,0 1.18733,-0.39578 1.31101,-1.1626 l 4.89776,-34.97691 c 0.099,-0.71735 0.19789,-1.06366 0.24736,-1.06366 0.17316,0.099 0.37104,0.37105 0.64314,0.8163 l 20.03628,35.22427 c 0.44525,0.76682 1.08839,1.1626 1.95416,1.1626 h 13.97592 c 0.93997,0 1.45943,-0.34631 1.55838,-0.98945 l 8.18766,-59.44096 c 0,-0.59366 -0.37104,-0.8905 -1.06365,-0.8905 h -14.47065 c -0.98944,0 -1.53364,0.42052 -1.63258,1.23681 l -4.42777,31.71174 c -0.0989,0.81629 -0.24737,1.21207 -0.39578,1.21207 -0.17316,0 -0.42052,-0.29683 -0.74209,-0.8905 l -18.30475,-32.13226 c -0.44525,-0.76682 -1.08839,-1.13786 -1.95415,-1.13786 h -15.5343 c -0.76682,0 -1.21207,0.37104 -1.31102,1.06366 l -8.01451,59.41622 z"
       inkscape:connector-curvature="0"
       id="path7705"
       style="fill:#ffffff" />
    <path
       d="m 274.70582,459.55207 -12.36807,-58.77308 c -0.14842,-0.81629 -0.64314,-1.23681 -1.45944,-1.23681 h -17.98318 c -0.86576,0 -1.45943,0.37104 -1.80574,1.06366 l -28.91655,59.09465 c -0.17315,0.32157 -0.24736,0.56893 -0.24736,0.74209 0,0.27209 0.19789,0.42051 0.64314,0.42051 h 15.70745 c 0.81629,0 1.38522,-0.32157 1.70679,-0.91524 l 4.40304,-8.58344 c 0.32157,-0.59367 0.91524,-0.8905 1.73153,-0.8905 h 18.87368 c 0.98945,0 1.55838,0.42051 1.73153,1.31101 l 1.53364,7.91557 c 0.17315,0.76682 0.69261,1.1626 1.55838,1.1626 h 13.97592 c 0.66788,0 0.98945,-0.17315 0.98945,-0.49472 0,-0.39578 -0.0247,-0.66788 -0.0742,-0.8163 m -21.17414,-23.40039 c 0,0.37104 -0.32157,0.56893 -0.91524,0.56893 h -11.03232 c -0.69261,0 -1.06366,-0.17315 -1.06366,-0.49472 0,-0.17316 0.0742,-0.42052 0.17316,-0.74209 l 8.01451,-18.05738 c 0.22262,-0.44525 0.37104,-0.69262 0.46998,-0.74209 0.12369,0.099 0.22263,0.34631 0.34631,0.74209 l 3.90831,17.88423 c 0,0.0742 0.0247,0.19789 0.099,0.42051 v 0.42052 z"
       inkscape:connector-curvature="0"
       id="path7707"
       style="fill:#ffffff" />
    <path
       d="m 291.13062,399.54218 c -0.6184,0 -0.96471,0.44525 -1.06365,1.31102 l -8.50924,59.34201 c 0,0.44525 0.24736,0.66788 0.74209,0.66788 h 34.33377 c 0.71735,0 1.11312,-0.34631 1.21207,-0.98945 l 1.63258,-12.02176 c 0,-0.5442 -0.27209,-0.8163 -0.81629,-0.8163 h -16.4248 c -0.64314,0 -0.98945,-0.29683 -0.98945,-0.8905 v -0.17315 l 6.13457,-45.68766 c 0,-0.49473 -0.2721,-0.74209 -0.81629,-0.74209 h -15.43536 z"
       inkscape:connector-curvature="0"
       id="path7709"
       style="fill:#ffffff" />
    <path
       d="m 362.39546,437.71006 c 0,-0.69262 0.37104,-1.06366 1.06365,-1.06366 h 20.28364 c 0.59367,0 0.89051,-0.32157 0.89051,-0.96471 v -16.67216 c 0,-0.71735 -0.29684,-1.06365 -0.89051,-1.06365 h -20.531 c -0.54419,0 -0.81629,-0.39578 -0.81629,-1.1626 V 397.9096 c 0,-0.5442 -0.34631,-0.8163 -1.06365,-0.8163 h -16.67217 c -0.54419,0 -0.81629,0.2721 -0.81629,0.8163 v 18.87368 c 0,0.76682 -0.32157,1.1626 -0.96471,1.1626 h -21.91623 c -0.59366,0 -0.8905,0.29683 -0.8905,0.8905 v 16.74637 c 0,0.71735 0.32157,1.06365 0.96471,1.06365 h 21.74308 c 0.71734,0 1.06365,0.42052 1.06365,1.23681 v 21.99043 c 0,0.64314 0.29683,0.98945 0.91524,0.98945 h 16.74637 c 0.59367,0 0.8905,-0.39578 0.8905,-1.1626 v -21.99043 z"
       inkscape:connector-curvature="0"
       id="path7711"
       style="fill:#ffffff" />
    <path
       d="m 120.52541,555.45412 v 1.03891 c 0,0.74209 -0.27209,1.11313 -0.81629,1.11313 -0.24736,0 -0.69261,-0.24736 -1.33575,-0.74208 -2.37467,-1.92942 -5.09565,-3.53727 -8.11346,-4.82355 -5.12038,-2.17678 -10.09234,-3.28991 -14.965366,-3.28991 -8.806068,0 -16.30112,3.06728 -22.460421,9.15237 -6.010884,6.01089 -9.003958,13.30805 -9.003958,21.89149 0,7.84136 2.646768,14.39644 7.96504,19.71471 6.060356,6.10983 13.876978,9.15238 23.499339,9.15238 6.654026,0 12.590696,-1.45943 17.810026,-4.3783 2.81992,-1.60785 4.69987,-3.01781 5.63984,-4.25462 0.34631,-0.44525 0.69261,-0.66787 1.03892,-0.66787 0.59367,0 0.8905,0.96471 0.8905,2.89413 v 28.29815 c 0,1.23681 -0.42051,2.15204 -1.26154,2.74571 -1.58312,1.13786 -5.46669,2.42414 -11.60126,3.85884 -4.87302,1.08839 -9.548148,1.63259 -14.074863,1.63259 -10.364445,0 -20.333113,-2.64677 -29.906002,-7.94031 -9.919195,-5.41721 -17.513192,-12.56596 -22.781991,-21.44624 -5.244063,-8.78133 -7.890831,-18.67579 -7.890831,-29.68337 0,-16.969 5.887203,-31.3407 17.661609,-43.09037 5.986148,-6.06036 12.986477,-10.58707 20.976253,-13.60488 6.926121,-2.69624 14.050131,-4.03199 21.347295,-4.03199 4.823548,0 9.89446,0.56893 15.2622,1.70679 3.51254,0.79156 6.30772,1.65732 8.33608,2.62203 l 1.63259,0.74209 c 1.4347,0.59366 2.15204,1.60785 2.15204,3.04254 v 28.34763 z"
       inkscape:connector-curvature="0"
       id="path7713"
       style="fill:#ffffff" />
    <path
       d="m 177.83907,579.34923 c -4.74934,0 -8.88028,1.73153 -12.34334,5.1946 -3.46306,3.43832 -5.21933,7.54452 -5.21933,12.36807 0,4.9967 1.75627,9.25132 5.21933,12.71438 3.41359,3.43832 7.56926,5.14512 12.41755,5.14512 4.92249,0 9.07816,-1.73153 12.51649,-5.21933 3.46306,-3.41359 5.19459,-7.594 5.19459,-12.49175 0,-4.9225 -1.7068,-9.07817 -5.12039,-12.51649 -3.43832,-3.46307 -7.64347,-5.1946 -12.6649,-5.1946 m 0.29683,-23.62302 c 9.86972,0 18.72526,2.22626 26.56662,6.7035 6.40666,3.66095 11.32916,8.53397 14.81695,14.56959 3.46307,6.01088 5.21933,12.73912 5.21933,20.1847 0,11.20547 -3.75989,20.58047 -11.25495,28.125 -4.25461,4.22988 -9.42447,7.47031 -15.48482,9.74604 -6.23351,2.37467 -12.96174,3.562 -20.15996,3.562 -14.66854,0 -26.49242,-4.4525 -35.42217,-13.38225 -7.49505,-7.44558 -11.23021,-16.59796 -11.23021,-27.45713 0,-11.52704 3.88358,-21.17414 11.60126,-28.96602 8.63291,-8.68239 20.40732,-13.08543 35.34795,-13.08543"
       inkscape:connector-curvature="0"
       id="path7715"
       style="fill:#ffffff" />
    <path
       d="m 236.46374,558.66982 h 27.45712 v 9.42447 c 0.98944,-0.8905 2.10257,-1.90469 3.36411,-3.04255 6.4314,-5.04617 13.77804,-7.594 22.01518,-7.594 7.19821,0 13.15963,1.7068 17.85949,5.07091 2.77045,2.02837 5.59037,5.09565 8.41029,9.22659 6.50561,-9.62236 15.16326,-14.44591 25.97296,-14.44591 6.30772,0 11.7744,1.55837 16.44954,4.69987 3.95778,2.62203 6.72823,6.1593 8.26187,10.63654 1.23681,3.51253 1.85521,7.84136 1.85521,12.937 v 50.16491 h -27.45712 v -38.09367 c 0,-5.71405 -0.37105,-9.49868 -1.11313,-11.37862 -1.97889,-5.12039 -5.46669,-7.66821 -10.41392,-7.66821 -3.09202,0 -5.86246,1.08839 -8.33608,3.26517 -2.0531,1.83048 -3.38885,4.20515 -4.03199,7.14875 -0.49472,1.97889 -0.74209,4.84828 -0.74209,8.63291 v 38.09367 h -27.45712 v -38.09367 c 0,-5.81299 -0.29683,-9.57289 -0.8905,-11.32915 -0.79156,-2.37467 -2.12731,-4.30409 -4.03199,-5.78826 -2.17678,-1.68206 -4.52672,-2.52309 -7.0498,-2.52309 -2.89413,0 -5.56564,1.06366 -8.03925,3.19097 -1.87995,1.63258 -3.16623,3.8341 -3.80937,6.62928 -0.54419,2.27573 -0.81629,5.5409 -0.81629,9.82025 v 38.09367 h -27.45712 v -77.07783 z"
       inkscape:connector-curvature="0"
       id="path7717"
       style="fill:#ffffff" />
    <path
       d="m 439.89381,586.32483 c -2.52309,-8.2124 -7.89083,-12.34334 -16.0785,-12.34334 -8.38555,0 -13.53067,4.13094 -15.46009,12.34334 h 31.53859 z m 25.45349,15.83113 h -57.73416 c 0.29683,6.50561 1.95415,11.10653 4.97196,13.77804 2.77045,2.42414 6.7035,3.63621 11.74967,3.63621 3.88358,0 6.92612,-0.81629 9.17711,-2.44888 1.33575,-0.98945 2.74571,-2.59729 4.22988,-4.82355 h 26.56663 c -1.78101,5.59037 -3.7599,9.72131 -5.96142,12.41755 -7.74241,9.375 -19.14577,14.05013 -34.23482,14.05013 -13.92645,0 -24.93404,-4.00726 -33.02276,-12.0465 -7.49505,-7.34664 -11.23021,-17.04321 -11.23021,-29.08971 0,-13.11016 4.15567,-23.37566 12.49175,-30.82124 7.74242,-6.87665 17.95845,-10.33971 30.64809,-10.33971 13.90171,0 24.61247,4.20514 32.15699,12.5907 6.80244,7.51979 10.19129,17.61213 10.19129,30.20283 v 2.89413 z"
       inkscape:connector-curvature="0"
       id="path7719"
       style="fill:#ffffff" />
    <path
       d="m 519.71735,579.64607 c -4.79881,0 -8.95448,1.73153 -12.41754,5.19459 -3.38885,3.38885 -5.07091,7.44558 -5.07091,12.21966 0,4.94722 1.70679,9.15237 5.14512,12.56596 3.41359,3.43832 7.59399,5.14512 12.49175,5.14512 4.97197,0 9.15238,-1.73153 12.5907,-5.21933 3.41359,-3.36412 5.12038,-7.49505 5.12038,-12.34334 0,-4.82355 -1.70679,-8.92975 -5.12038,-12.36807 -3.43832,-3.46306 -7.66821,-5.19459 -12.73912,-5.19459 m 17.11742,-58.20416 h 27.45712 v 114.30574 h -27.45712 v -8.55871 c -0.24736,0.34631 -0.59367,0.79156 -1.03892,1.33575 -5.41722,6.45614 -13.08542,9.67184 -23.00462,9.67184 -10.80969,0 -19.93733,-3.7599 -27.38291,-11.30442 -7.89083,-7.9403 -11.82388,-17.88424 -11.82388,-29.83179 0,-11.87336 3.90831,-21.74308 11.74967,-29.63391 7.44558,-7.47032 16.49901,-11.23021 27.16029,-11.23021 5.2688,0 10.06761,0.91524 14.44591,2.77045 3.01781,1.23681 6.33245,3.66095 9.89446,7.27243 v -44.79717 z"
       inkscape:connector-curvature="0"
       id="path7721"
       style="fill:#ffffff" />
    <path
       d="m 607.38226,635.74765 h -27.45712 v -77.10257 h 27.45712 v 77.10257 z M 593.70317,520.18037 c 4.15567,0 7.79189,1.53364 10.85917,4.62566 2.96834,2.96834 4.47724,6.57982 4.47724,10.85917 0,4.1062 -1.5089,7.69294 -4.47724,10.71075 -3.04255,3.06728 -6.7035,4.60092 -11.00759,4.60092 -4.22988,0 -7.81662,-1.53364 -10.85917,-4.60092 -2.96833,-2.96834 -4.47724,-6.50561 -4.47724,-10.56233 0,-4.35357 1.53364,-8.08872 4.55145,-11.15601 2.91887,-2.99307 6.55508,-4.47724 10.93338,-4.47724"
       inkscape:connector-curvature="0"
       id="path7723"
       style="fill:#ffffff" />
    <path
       d="m 666.10587,579.20082 c -4.77407,0 -8.88027,1.73153 -12.36807,5.19459 -3.4878,3.43832 -5.19459,7.54452 -5.19459,12.36807 0,4.9967 1.70679,9.25132 5.19459,12.71438 3.43832,3.41359 7.56926,5.14512 12.44228,5.14512 4.87302,0 9.07817,-1.75627 12.49176,-5.21933 3.46306,-3.46306 5.21932,-7.64347 5.21932,-12.49175 0,-4.87302 -1.75626,-9.0287 -5.21932,-12.51649 -3.41359,-3.46306 -7.61874,-5.19459 -12.56597,-5.19459 m 17.04321,-21.14941 h 27.45712 v 77.69624 h -27.45712 v -8.55871 c -5.83773,7.44558 -13.92645,11.156 -24.19195,11.156 -10.63655,0 -19.6405,-3.75989 -27.11082,-11.30441 -7.96504,-8.08872 -11.94756,-18.18107 -11.94756,-30.27705 0,-12.02177 3.93305,-21.99043 11.82388,-29.93074 7.47031,-7.47031 16.57322,-11.23021 27.38291,-11.23021 4.89776,0 9.62236,0.91524 14.14908,2.77045 2.96834,1.1626 6.25824,3.61148 9.86972,7.27243 v -7.594 z"
       inkscape:connector-curvature="0"
       id="path7725"
       style="fill:#ffffff" />
  </g>
</svg>
