<?xml version="1.0" encoding="UTF-8" standalone="no"?>
<!-- Created with Inkscape (http://www.inkscape.org/) -->

<svg
   xmlns:dc="http://purl.org/dc/elements/1.1/"
   xmlns:cc="http://creativecommons.org/ns#"
   xmlns:rdf="http://www.w3.org/1999/02/22-rdf-syntax-ns#"
   xmlns:svg="http://www.w3.org/2000/svg"
   xmlns="http://www.w3.org/2000/svg"
   xmlns:sodipodi="http://sodipodi.sourceforge.net/DTD/sodipodi-0.dtd"
   xmlns:inkscape="http://www.inkscape.org/namespaces/inkscape"
   version="1.1"
   width="13.445"
   height="11.29375"
   id="svg85611"
   inkscape:version="0.48.4 r9939"
   sodipodi:docname="tv.crimeandinvestigation.svg">
  <sodipodi:namedview
     pagecolor="#ffffff"
     bordercolor="#666666"
     borderopacity="1"
     objecttolerance="10"
     gridtolerance="10"
     guidetolerance="10"
     inkscape:pageopacity="0"
     inkscape:pageshadow="2"
     inkscape:window-width="1600"
     inkscape:window-height="837"
     id="namedview70"
     showgrid="false"
     fit-margin-top="0"
     fit-margin-left="0"
     fit-margin-right="0"
     fit-margin-bottom="0"
     inkscape:zoom="15.347826"
     inkscape:cx="11.99705"
     inkscape:cy="4.4802125"
     inkscape:window-x="-8"
     inkscape:window-y="-8"
     inkscape:window-maximized="1"
     inkscape:current-layer="layer1" />
  <defs
     id="defs85613" />
  <metadata
     id="metadata85616">
    <rdf:RDF>
      <cc:Work
         rdf:about="">
        <dc:format>image/svg+xml</dc:format>
        <dc:type
           rdf:resource="http://purl.org/dc/dcmitype/StillImage" />
        <dc:title />
      </cc:Work>
    </rdf:RDF>
  </metadata>
  <g
     transform="translate(-352.84112,-526.42828)"
     id="layer1">
    <g
       transform="matrix(1.25,0,0,-1.25,359.66862,537.72203)"
       id="g63520"
       style="fill:#c1131d;fill-opacity:1">
      <path
         d="m 0,0 5.294,0 0,9.035 -8.965,0 0,-5.787 L 0,0"
         id="path63522"
         style="fill:#c1131d;fill-opacity:1;fill-rule:nonzero;stroke:none"
         inkscape:connector-curvature="0" />
    </g>
    <g
       transform="matrix(1.25,0,0,-1.25,352.84112,532.92703)"
       id="g63524"
       style="fill:#c1131d;fill-opacity:1">
      <path
         d="M 0,0 0.038,-3.203 3.622,-3.215 0,0"
         id="path63526"
         style="fill:#c1131d;fill-opacity:1;fill-rule:nonzero;stroke:none"
         inkscape:connector-curvature="0" />
    </g>
    <g
       transform="matrix(1.25,0,0,-1.25,365.02987,532.15078)"
       id="g63528">
      <path
         d="m -1.01,0 1.0097,0 0,-3.6967 -1.0097,0 0,3.6967 z M 0,0 z m 0,0.571 -1.0097,0 0,0.83524 1.0097,0 L 0,0.571 z"
         id="path63530"
         style="fill:#ffffff;fill-opacity:1;fill-rule:nonzero;stroke:none"
         inkscape:connector-curvature="0" />
    </g>
    <g
       transform="matrix(1.25,0,0,-1.25,361.17112,533.05078)"
       id="g63532">
      <path
         d="m 0,0 c -0.153,0 -0.282,-0.035 -0.385,-0.106 -0.104,-0.07 -0.188,-0.161 -0.253,-0.273 -0.066,-0.111 -0.112,-0.234 -0.139,-0.368 -0.027,-0.134 -0.04,-0.267 -0.04,-0.399 0,-0.127 0.013,-0.257 0.04,-0.389 0.027,-0.132 0.071,-0.251 0.132,-0.358 0.061,-0.107 0.143,-0.194 0.246,-0.263 0.104,-0.068 0.23,-0.102 0.379,-0.102 0.229,0 0.406,0.065 0.53,0.194 0.124,0.13 0.202,0.304 0.233,0.522 l 0.926,0 C 1.606,-2.01 1.425,-2.367 1.128,-2.614 0.831,-2.86 0.45,-2.983 -0.013,-2.983 c -0.262,0 -0.502,0.044 -0.721,0.133 -0.218,0.089 -0.405,0.213 -0.558,0.373 -0.154,0.159 -0.274,0.349 -0.36,0.57 -0.086,0.221 -0.129,0.464 -0.129,0.728 0,0.273 0.039,0.527 0.119,0.762 0.079,0.234 0.195,0.437 0.349,0.608 0.154,0.171 0.341,0.304 0.562,0.4 0.222,0.095 0.474,0.143 0.758,0.143 0.207,0 0.406,-0.027 0.598,-0.082 C 0.796,0.597 0.967,0.514 1.118,0.403 1.269,0.291 1.392,0.152 1.486,-0.014 1.581,-0.181 1.635,-0.378 1.648,-0.606 l -0.939,0 C 0.646,-0.202 0.41,0 0,0"
         id="path63534"
         style="fill:#ffffff;fill-opacity:1;fill-rule:nonzero;stroke:none"
         inkscape:connector-curvature="0" />
    </g>
  </g>
</svg>
