<?xml version="1.0" encoding="UTF-8" standalone="no"?>
<!-- Created with Inkscape (http://www.inkscape.org/) -->

<svg
   xmlns:dc="http://purl.org/dc/elements/1.1/"
   xmlns:cc="http://creativecommons.org/ns#"
   xmlns:rdf="http://www.w3.org/1999/02/22-rdf-syntax-ns#"
   xmlns:svg="http://www.w3.org/2000/svg"
   xmlns="http://www.w3.org/2000/svg"
   xmlns:inkscape="http://www.inkscape.org/namespaces/inkscape"
   version="1.1"
   width="550"
   height="300"
   id="svg2">
  <metadata
     id="metadata22">
    <rdf:RDF>
      <cc:Work
         rdf:about="">
        <dc:format>image/svg+xml</dc:format>
        <dc:type
           rdf:resource="http://purl.org/dc/dcmitype/StillImage" />
      </cc:Work>
    </rdf:RDF>
  </metadata>
  <defs
     id="defs20" />
  <g
     transform="translate(-100.70995,-117.67515)"
     id="layer1">
    <rect
       width="22.52"
       height="8.1890001"
       x="347.24399"
       y="73.773003"
       transform="matrix(24.422735,0,0,24.422735,-8379.9378,-1584.0611)"
       id="rect7753"
       style="fill:#00ba4b" />
    <rect
       width="16.379"
       height="4.0949998"
       x="347.24399"
       y="69.679001"
       transform="matrix(24.422735,0,0,24.422735,-8379.9378,-1584.0611)"
       id="rect7755" />
    <path
       d="m 350.283,70.683 c 0.007,-0.034 0.011,-0.054 0.011,-0.06 0,-0.021 -0.011,-0.037 -0.03,-0.051 -0.232,-0.151 -0.516,-0.228 -0.851,-0.228 -0.42,0 -0.766,0.133 -1.039,0.396 -0.272,0.263 -0.409,0.596 -0.409,1 0,0.391 0.125,0.707 0.376,0.949 0.251,0.243 0.58,0.363 0.985,0.363 0.226,0 0.403,-0.039 0.532,-0.117 0.025,-0.013 0.04,-0.045 0.047,-0.097 0,0 0.069,-0.485 0.072,-0.504 0.005,-0.038 -0.016,-0.033 -0.115,-0.001 -0.191,0.056 -0.35,0.083 -0.472,0.083 -0.197,0 -0.358,-0.065 -0.486,-0.197 -0.127,-0.132 -0.189,-0.299 -0.189,-0.502 0,-0.219 0.071,-0.397 0.217,-0.535 0.145,-0.139 0.334,-0.208 0.565,-0.208 0.224,0 0.415,0.052 0.575,0.154 0.049,0.031 0.08,0.047 0.091,0.047 0.016,0 0.028,-0.025 0.036,-0.074 l 0.084,-0.418 z"
       inkscape:connector-curvature="0"
       transform="matrix(24.422735,0,0,24.422735,-8379.9378,-1584.0611)"
       id="path7757"
       style="fill:#ffffff" />
    <path
       d="m 352.214,70.486 c -0.006,-0.036 -0.025,-0.054 -0.058,-0.054 h -0.772 c -0.035,0 -0.062,0.015 -0.077,0.047 l -1.191,2.41 c -0.005,0.013 -0.007,0.023 -0.007,0.03 0,0.015 0.009,0.022 0.027,0.022 h 0.648 c 0.041,0 0.067,-0.013 0.081,-0.04 l 0.167,-0.345 c 0.014,-0.027 0.036,-0.04 0.067,-0.04 h 0.815 c 0.032,0 0.051,0.014 0.055,0.043 l 0.087,0.348 c 0.004,0.023 0.02,0.034 0.047,0.034 h 0.579 c 0.02,0 0.03,-0.01 0.03,-0.03 v -0.013 l -0.498,-2.412 z m -0.408,1.469 h -0.485 c -0.016,0 -0.023,-0.004 -0.023,-0.01 l 0.007,-0.021 0.325,-0.736 c 0.006,-0.013 0.012,-0.021 0.016,-0.023 0.007,0.004 0.013,0.015 0.017,0.033 l 0.172,0.713 c 0.004,0.018 0.006,0.028 0.006,0.03 -0.002,0.009 -0.013,0.014 -0.035,0.014"
       inkscape:connector-curvature="0"
       transform="matrix(24.422735,0,0,24.422735,-8379.9378,-1584.0611)"
       id="path7759"
       style="fill:#ffffff" />
    <path
       d="m 353.031,72.908 c 0,0.023 0.02,0.034 0.058,0.034 h 0.559 c 0.031,0 0.049,-0.016 0.054,-0.047 l 0.2,-1.432 c 0.005,-0.029 0.008,-0.043 0.01,-0.043 0.008,0.005 0.017,0.016 0.027,0.034 l 0.82,1.442 c 0.018,0.031 0.044,0.047 0.08,0.047 h 0.572 c 0.037,0 0.06,-0.013 0.063,-0.04 l 0.335,-2.433 c 0,-0.025 -0.015,-0.037 -0.044,-0.037 h -0.592 c -0.04,0 -0.063,0.016 -0.067,0.05 l -0.181,1.298 c -0.004,0.034 -0.011,0.051 -0.017,0.051 -0.007,0 -0.017,-0.012 -0.03,-0.037 l -0.749,-1.315 c -0.019,-0.032 -0.045,-0.047 -0.081,-0.047 h -0.637 c -0.03,0 -0.049,0.015 -0.053,0.043 l -0.327,2.432 z"
       inkscape:connector-curvature="0"
       transform="matrix(24.422735,0,0,24.422735,-8379.9378,-1584.0611)"
       id="path7761"
       style="fill:#ffffff" />
    <path
       d="m 358.336,72.889 -0.507,-2.407 c -0.006,-0.034 -0.025,-0.05 -0.06,-0.05 h -0.736 c -0.036,0 -0.06,0.015 -0.073,0.043 l -1.186,2.42 c -0.006,0.013 -0.01,0.024 -0.01,0.03 0,0.012 0.009,0.017 0.027,0.017 h 0.643 c 0.033,0 0.057,-0.012 0.07,-0.037 l 0.181,-0.351 c 0.013,-0.025 0.036,-0.037 0.07,-0.037 h 0.772 c 0.04,0 0.064,0.018 0.071,0.053 l 0.063,0.325 c 0.008,0.031 0.028,0.047 0.064,0.047 h 0.572 c 0.026,0 0.04,-0.007 0.04,-0.02 0.002,-0.016 0.001,-0.027 -10e-4,-0.033 m -0.867,-0.958 c 0,0.016 -0.013,0.024 -0.037,0.024 h -0.452 c -0.029,0 -0.043,-0.007 -0.043,-0.02 0,-0.007 0.002,-0.017 0.006,-0.03 l 0.328,-0.74 c 0.009,-0.018 0.016,-0.028 0.021,-0.031 0.004,0.005 0.009,0.015 0.013,0.031 l 0.161,0.733 c 0,0.002 10e-4,0.008 0.003,0.016 v 0.017 z"
       inkscape:connector-curvature="0"
       transform="matrix(24.422735,0,0,24.422735,-8379.9378,-1584.0611)"
       id="path7763"
       style="fill:#ffffff" />
    <path
       d="m 359.008,70.432 c -0.024,0 -0.039,0.018 -0.043,0.054 l -0.349,2.429 c 0,0.018 0.011,0.027 0.03,0.027 h 1.406 c 0.028,0 0.045,-0.013 0.05,-0.04 l 0.067,-0.492 c 0,-0.022 -0.012,-0.034 -0.034,-0.034 h -0.672 c -0.027,0 -0.041,-0.012 -0.041,-0.036 v -0.007 l 0.251,-1.871 c 0,-0.021 -0.012,-0.03 -0.033,-0.03 h -0.632 z"
       inkscape:connector-curvature="0"
       transform="matrix(24.422735,0,0,24.422735,-8379.9378,-1584.0611)"
       id="path7765"
       style="fill:#ffffff" />
    <path
       d="m 361.927,71.995 c 0,-0.029 0.014,-0.044 0.043,-0.044 h 0.831 c 0.023,0 0.036,-0.013 0.036,-0.04 v -0.682 c 0,-0.03 -0.013,-0.044 -0.036,-0.044 h -0.841 c -0.022,0 -0.033,-0.016 -0.033,-0.047 v -0.773 c 0,-0.022 -0.016,-0.033 -0.044,-0.033 H 361.2 c -0.022,0 -0.033,0.011 -0.033,0.033 v 0.773 c 0,0.031 -0.014,0.047 -0.04,0.047 h -0.897 c -0.025,0 -0.037,0.012 -0.037,0.037 v 0.686 c 0,0.029 0.014,0.043 0.04,0.043 h 0.891 c 0.029,0 0.044,0.017 0.044,0.051 v 0.9 c 0,0.027 0.013,0.04 0.036,0.04 h 0.687 c 0.023,0 0.037,-0.016 0.037,-0.047 v -0.9 z"
       inkscape:connector-curvature="0"
       transform="matrix(24.422735,0,0,24.422735,-8379.9378,-1584.0611)"
       id="path7767"
       style="fill:#ffffff" />
    <polygon
       points="348.68,75.423 351.358,75.423 351.358,76.453 349.896,76.453 349.896,77.233 351.227,77.233 351.227,78.263 349.896,78.263 349.896,80.103 348.68,80.103 "
       transform="matrix(24.422735,0,0,24.422735,-8379.9378,-1584.0611)"
       id="polygon7769"
       style="fill:#ffffff" />
    <path
       d="m 354.369,75.661 -1.071,0.728 -0.431,-0.399 0.917,-0.859 0.585,0.53 z m -1.365,1.286 v 1.791 c 0,0.386 0.19,0.579 0.572,0.579 0.378,0 0.567,-0.193 0.567,-0.579 v -1.791 h 1.124 v 2.001 c 0,0.393 -0.125,0.698 -0.375,0.917 -0.286,0.25 -0.728,0.375 -1.322,0.375 -0.647,0 -1.111,-0.149 -1.392,-0.447 -0.199,-0.212 -0.299,-0.493 -0.299,-0.845 v -2.001 h 1.125 z"
       inkscape:connector-curvature="0"
       transform="matrix(24.422735,0,0,24.422735,-8379.9378,-1584.0611)"
       id="path7771"
       style="fill:#ffffff" />
    <polygon
       points="355.711,77.876 355.711,76.947 356.08,76.947 356.08,75.996 357.204,75.996 357.204,76.947 357.844,76.947 357.844,77.876 357.204,77.876 357.204,80.103 356.08,80.103 356.08,77.876 "
       transform="matrix(24.422735,0,0,24.422735,-8379.9378,-1584.0611)"
       id="polygon7773"
       style="fill:#ffffff" />
    <path
       d="m 359.962,77.806 c -0.199,0 -0.37,0.071 -0.513,0.213 -0.14,0.14 -0.21,0.309 -0.21,0.506 0,0.199 0.07,0.368 0.21,0.506 0.143,0.142 0.315,0.213 0.519,0.213 0.201,0 0.373,-0.071 0.518,-0.213 0.138,-0.141 0.207,-0.308 0.207,-0.503 0,-0.197 -0.07,-0.367 -0.21,-0.509 -0.14,-0.142 -0.314,-0.213 -0.521,-0.213 m -0.692,-2.383 v 1.834 c 0.254,-0.274 0.586,-0.411 0.996,-0.411 0.437,0 0.807,0.152 1.108,0.457 0.323,0.323 0.485,0.728 0.485,1.215 0,0.488 -0.162,0.895 -0.485,1.223 -0.304,0.308 -0.678,0.463 -1.12,0.463 -0.216,0 -0.42,-0.046 -0.615,-0.137 -0.118,-0.057 -0.241,-0.162 -0.369,-0.315 v 0.351 h -1.124 v -4.68 h 1.124 z"
       inkscape:connector-curvature="0"
       transform="matrix(24.422735,0,0,24.422735,-8379.9378,-1584.0611)"
       id="path7775"
       style="fill:#ffffff" />
    <path
       d="m 364.092,77.793 c -0.195,0 -0.364,0.071 -0.506,0.214 -0.143,0.14 -0.214,0.308 -0.214,0.506 0,0.205 0.071,0.378 0.214,0.521 0.14,0.14 0.31,0.21 0.509,0.21 0.201,0 0.371,-0.071 0.512,-0.213 0.142,-0.141 0.213,-0.311 0.213,-0.513 0,-0.2 -0.07,-0.371 -0.21,-0.511 -0.14,-0.143 -0.313,-0.214 -0.518,-0.214 m 0.012,-0.966 c 0.404,0 0.767,0.092 1.088,0.275 0.262,0.15 0.464,0.349 0.606,0.597 0.142,0.246 0.213,0.521 0.213,0.826 0,0.458 -0.153,0.843 -0.46,1.151 -0.174,0.173 -0.387,0.306 -0.633,0.4 -0.257,0.097 -0.532,0.146 -0.826,0.146 -0.602,0 -1.085,-0.183 -1.451,-0.548 -0.306,-0.305 -0.46,-0.68 -0.46,-1.125 0,-0.471 0.159,-0.866 0.476,-1.185 0.353,-0.358 0.836,-0.537 1.447,-0.537"
       inkscape:connector-curvature="0"
       transform="matrix(24.422735,0,0,24.422735,-8379.9378,-1584.0611)"
       id="path7777"
       style="fill:#ffffff" />
    <rect
       width="1.124"
       height="4.6799998"
       x="366.492"
       y="75.422997"
       transform="matrix(24.422735,0,0,24.422735,-8379.9378,-1584.0611)"
       id="rect7779"
       style="fill:#ffffff" />
  </g>
</svg>
