<?xml version="1.0" encoding="UTF-8" standalone="no"?>
<!-- Generator: Adobe Illustrator 16.0.0, SVG Export Plug-In . SVG Version: 6.00 Build 0)  -->

<svg
   xmlns:dc="http://purl.org/dc/elements/1.1/"
   xmlns:cc="http://creativecommons.org/ns#"
   xmlns:rdf="http://www.w3.org/1999/02/22-rdf-syntax-ns#"
   xmlns:svg="http://www.w3.org/2000/svg"
   xmlns="http://www.w3.org/2000/svg"
   xmlns:sodipodi="http://sodipodi.sourceforge.net/DTD/sodipodi-0.dtd"
   xmlns:inkscape="http://www.inkscape.org/namespaces/inkscape"
   version="1.1"
   id="Calque_1"
   x="0px"
   y="0px"
   width="1515px"
   height="1277.08px"
   viewBox="0 0 1515 1277.08"
   enable-background="new 0 0 1515 1277.08"
   xml:space="preserve"
   inkscape:version="0.48.4 r9939"
   sodipodi:docname="Logo Canal Algerie.svg"><title
   id="title3023">Logo Canal Algerie</title><metadata
   id="metadata46"><rdf:RDF><cc:Work
       rdf:about=""><dc:format>image/svg+xml</dc:format><dc:type
         rdf:resource="http://purl.org/dc/dcmitype/StillImage" /><dc:title>Logo Canal Algerie</dc:title></cc:Work></rdf:RDF></metadata><defs
   id="defs44" /><sodipodi:namedview
   pagecolor="#ffffff"
   bordercolor="#666666"
   borderopacity="1"
   objecttolerance="10"
   gridtolerance="10"
   guidetolerance="10"
   inkscape:pageopacity="0"
   inkscape:pageshadow="2"
   inkscape:window-width="640"
   inkscape:window-height="480"
   id="namedview42"
   showgrid="false"
   inkscape:zoom="0.18479657"
   inkscape:cx="757.5"
   inkscape:cy="638.53998"
   inkscape:window-x="0"
   inkscape:window-y="0"
   inkscape:window-maximized="0"
   inkscape:current-layer="Calque_1" />
<polygon
   fill="#ED3921"
   points="617.84,13.75 840.34,13.75 1312.209,990.94 1006.27,990.94 957.21,862.09 700.13,862.09   700.18,648.75 851.17,648.34 "
   id="polygon3" />
<radialGradient
   id="SVGID_1_"
   cx="524.1897"
   cy="755.1602"
   r="161.7464"
   gradientUnits="userSpaceOnUse">
	<stop
   offset="0.0296"
   style="stop-color:#FFFFFF"
   id="stop6" />
	<stop
   offset="0.0998"
   style="stop-color:#E3EBF4"
   id="stop8" />
	<stop
   offset="0.3059"
   style="stop-color:#98B3D5"
   id="stop10" />
	<stop
   offset="0.49"
   style="stop-color:#5C87BD"
   id="stop12" />
	<stop
   offset="0.6454"
   style="stop-color:#3068AB"
   id="stop14" />
	<stop
   offset="0.7661"
   style="stop-color:#1654A0"
   id="stop16" />
	<stop
   offset="0.8374"
   style="stop-color:#0C4D9C"
   id="stop18" />
	<stop
   offset="0.9163"
   style="stop-color:#024698"
   id="stop20" />
</radialGradient>
<ellipse
   fill="url(#SVGID_1_)"
   cx="524.19"
   cy="755.16"
   rx="162.4"
   ry="161.09"
   id="ellipse22" />
<path
   fill="#86A337"
   d="M546.17,250l104.79,200c0,0-382.29,100.41-335.631,353.75c48.44,262.97,360.83,275.84,360.83,275.84  l-75.37,175.72c0,0-552.129-51.579-582.129-438.229C-11.35,430.14,546.17,250,546.17,250z"
   id="path24" />
<g
   id="g26">
	<path
   fill="#030303"
   d="M684.049,1213.125l-17.934,39.072H629.03l82.986-167.746h44.371l1.823,167.746h-36.771l0.607-39.072   H684.049z M723.262,1190.472l0.912-37.087c0.304-10.203,1.52-27.877,1.824-40.563h-0.607   c-4.865,12.695-11.552,31.107-15.808,40.318l-16.415,37.342h30.094V1190.472z"
   id="path28" />
	<path
   fill="#030303"
   d="M807.566,1084.451h37.997l-32.83,140.614h49.853l-6.384,27.123h-87.85L807.566,1084.451z"
   id="path30" />
	<path
   fill="#030303"
   d="M976.273,1247.464c-11.247,3.486-24.632,6.226-40.43,6.226c-24.318,0-39.212-6.462-49.852-17.42   c-10.031-10.202-15.198-26.63-15.198-41.82c0-34.594,13.982-66.939,38.614-88.346c17.316-14.944,41.331-23.153,66.551-23.153   c17.033,0,26.446,2.484,32.535,4.478l-12.159,27.377c-4.854-1.738-13.688-3.486-22.189-3.486c-13.973,0-24.623,3.74-34.036,11.204   c-16.719,13.688-29.182,40.318-29.182,71.436c0,20.905,8.208,32.847,24.622,32.847c4.256,0,7.6-0.246,10.944-0.992l9.433-41.557   h-18.542l6.373-25.146h52.902L976.273,1247.464z"
   id="path32" />
	<path
   fill="#030303"
   d="M1090.162,1178.031h-44.988l-11.247,46.534h51.676l-6.678,27.623h-89.358l39.202-167.746h85.722   l-6.688,27.377h-47.105l-10.032,39.817h45.891L1090.162,1178.031z"
   id="path34" />
	<path
   fill="#030303"
   d="M1128.565,1086.682c12.768-1.738,27.054-2.985,40.732-2.985c17.631,0,34.654,2.74,45.293,11.449   c8.511,6.981,13.364,16.683,13.364,27.632c0,24.637-18.238,44.296-41.635,50.767v0.501c11.237,4.241,16.111,13.943,16.719,32.601   c0.608,18.676,1.207,39.326,3.344,45.552h-38.301c-0.922-4.733-1.52-21.652-1.52-40.064c0-20.414-5.167-27.121-17.935-27.121   h-6.384l-15.199,67.194h-37.084L1128.565,1086.682z M1148.323,1160.848h8.816c19.15,0,31.907-16.674,31.907-34.34   c0-8.955-4.55-18.411-18.836-18.411c-3.962,0-7.6,0.245-10.032,0.746L1148.323,1160.848z"
   id="path36" />
	<path
   fill="#030303"
   d="M1292.509,1084.451l-39.212,167.746H1215.3l39.223-167.746H1292.509z"
   id="path38" />
	<path
   fill="#030303"
   d="M1369.112,1178.031h-44.989l-11.236,46.534h51.676l-6.687,27.623h-89.359l39.213-167.746h85.711   l-6.688,27.377h-47.106l-10.021,39.817h45.892L1369.112,1178.031z"
   id="path40" />
</g>
</svg>