<?xml version="1.0" encoding="UTF-8" standalone="no"?>
<!-- Created with Inkscape (http://www.inkscape.org/) -->

<svg
   xmlns:dc="http://purl.org/dc/elements/1.1/"
   xmlns:cc="http://creativecommons.org/ns#"
   xmlns:rdf="http://www.w3.org/1999/02/22-rdf-syntax-ns#"
   xmlns:svg="http://www.w3.org/2000/svg"
   xmlns="http://www.w3.org/2000/svg"
   xmlns:sodipodi="http://sodipodi.sourceforge.net/DTD/sodipodi-0.dtd"
   xmlns:inkscape="http://www.inkscape.org/namespaces/inkscape"
   version="1.1"
   width="937"
   height="911.21252"
   viewBox="0 0 749.6 728.97002"
   id="svg3137"
   inkscape:version="0.48.4 r9939"
   sodipodi:docname="tv.calle13hd.svg">
  <sodipodi:namedview
     pagecolor="#ffffff"
     bordercolor="#666666"
     borderopacity="1"
     objecttolerance="10"
     gridtolerance="10"
     guidetolerance="10"
     inkscape:pageopacity="0"
     inkscape:pageshadow="2"
     inkscape:window-width="1280"
     inkscape:window-height="747"
     id="namedview4075"
     showgrid="false"
     fit-margin-top="1"
     fit-margin-left="1"
     fit-margin-right="1"
     fit-margin-bottom="1"
     inkscape:zoom="0.25934066"
     inkscape:cx="468.5"
     inkscape:cy="455.99998"
     inkscape:window-x="-8"
     inkscape:window-y="-8"
     inkscape:window-maximized="1"
     inkscape:current-layer="svg3137" />
  <metadata
     id="metadata3191">
    <rdf:RDF>
      <cc:Work
         rdf:about="">
        <dc:format>image/svg+xml</dc:format>
        <dc:type
           rdf:resource="http://purl.org/dc/dcmitype/StillImage" />
      </cc:Work>
    </rdf:RDF>
  </metadata>
  <defs
     id="defs3189" />
  <path
     d="m 303.4,0.8 c 2.48,1.34 4.28,3.56 6.25,5.51 4.63,4.61 9.23,9.26 13.89,13.85 -6.23,5.7 -11.92,11.94 -18.02,17.78 -3.49,3.82 -7.55,7.11 -10.82,11.15 7.58,7.93 15.49,15.54 23.22,23.33 3.04,-2.32 5.77,-4.99 8.24,-7.92 2.75,-2.22 5.1,-4.85 7.48,-7.47 3.93,-3.02 6.68,-7.25 10.68,-10.2 6.36,6.27 12.64,12.61 18.96,18.92 -8.45,8.75 -17.26,17.14 -25.69,25.91 8.24,9.4 17.82,17.54 26.19,26.83 9.41,-9.94 19.27,-19.44 28.97,-29.09 6.64,6.48 13.28,12.99 19.66,19.73 -16.96,17.09 -34.15,33.96 -51.03,51.12 C 339.6,137.78 317.07,116.02 295.11,93.75 280.74,79.78 266.92,65.28 252.4,51.46 263.95,40.8 274.63,29.24 285.98,18.36 291.67,12.39 297.71,6.77 303.4,0.8 z"
     inkscape:connector-curvature="0"
     id="path3141"
     style="fill:#000000" />
  <path
     d="m 203.84,100.21 c 4.2,-3.55 7.55,-7.97 11.87,-11.4 29.97,29.36 59.46,59.25 89.2,88.86 6.47,-5.63 12.01,-12.23 18.41,-17.93 3.4,-4.14 7.81,-7.29 11.07,-11.56 6.23,6.72 13.24,12.71 19.15,19.7 -10.7,10.97 -21.73,21.62 -32.47,32.56 -6.38,5.82 -11.87,12.58 -18.61,17.99 -9.31,-8.64 -17.99,-17.92 -27.11,-26.77 -27.07,-27.08 -54.17,-54.18 -81.32,-81.22 2.82,-3.84 6.85,-6.51 9.81,-10.23 z"
     inkscape:connector-curvature="0"
     id="path3143"
     style="fill:#000000" />
  <path
     d="m 418.82,151.13 c 5.99,-6.13 12.3,-11.94 18.07,-18.29 7.71,8.72 16.42,16.46 24.44,24.87 8.07,8.18 16.48,16.02 24.27,24.48 -12.62,13.29 -25.89,25.95 -38.75,39.01 -66.35,66.17 -132.73,132.52 -199.04,198.74 -26.35,26.15 -52.44,52.57 -78.92,78.58 -16.22,-16.46 -32.85,-32.51 -48.92,-49.09 99.59,-99.3 199.19,-198.8 298.85,-298.3 z"
     inkscape:connector-curvature="0"
     id="path3145"
     style="fill:#000000" />
  <path
     d="m 134.81,169.27 c 7.27,-7.29 14.65,-14.47 21.8,-21.87 7.43,8.56 16.05,15.97 23.81,24.21 21.78,21.79 43.64,43.45 65.41,65.3 9.77,-9.72 19.47,-19.51 29.29,-29.17 4.33,3.03 7.2,7.56 11.39,10.75 2.56,2.98 5.3,5.78 8.42,8.19 -8.92,8.3 -17.18,17.22 -25.99,25.61 -8.29,8.77 -17.27,16.86 -25.41,25.78 -25.99,-25.96 -51.97,-51.92 -77.97,-77.83 -10.16,-10.42 -20.79,-20.37 -30.75,-30.97 z"
     inkscape:connector-curvature="0"
     id="path3147"
     style="fill:#000000" />
  <path
     d="m 102.5,201.57 c -9.38,9.05 -18.45,18.46 -27.75,27.6 2.14,2.63 4.045,5.435 5.725,8.375 19.07,29.22 38.145,58.43 57.225,87.65 7.49,11.78 15.51,23.225 22.75,35.175 7.9,-7.39 15.57,-15.05 23,-22.9 -6.72,-9.57 -13.67,-19 -20.3,-28.65 -1.59,-2.07 -3.64,-3.99 -4.4,-6.55 5.93,-5.61 11.52,-11.565 17.45,-17.175 11.83,7.93 23.225,16.465 34.925,24.575 4.17,-2.81 6.9,-7.155 10.85,-10.225 3.66,-4.43 8.39,-7.79 11.9,-12.35 -5.23,-4.29 -11.34,-7.315 -16.8,-11.275 -28.69,-18.61 -57.375,-37.24 -86.025,-55.95 -9.59,-5.96 -18.78,-12.63 -28.55,-18.3 z m 5.875,33.65 c 5.04,2.94 9.065,7.195 13.925,10.375 10.75,8.72 22.41,16.205 33.25,24.775 -3.84,3.84 -7.5,7.845 -11.65,11.375 -12.03,-15.37 -22.595,-31.855 -35.525,-46.525 z"
     inkscape:connector-curvature="0"
     id="path3149"
     style="fill:#000000" />
  <path
     d="m 484.88,244.22 c 16.76,-4.68 34.73,-4.44 51.45,0.27 7.5,1.22 14.11,5.1 20.99,8.07 16.18,8.79 30,21.9 39.47,37.71 3.35,6.85 7.5,13.46 8.89,21.08 5.69,17.44 4.97,36.45 -0.21,53.91 -1.36,7.41 -5.6,13.76 -8.95,20.37 -10.54,17 -24.51,31.5 -38.53,45.66 -10.28,10.07 -20.46,20.29 -31.83,29.15 -5.67,3.92 -11.28,8.1 -17.96,10.17 -12.82,5.42 -27.03,3.03 -40.13,0.1 3.34,14.1 3.89,29.27 -1.54,42.93 -5.57,12.11 -14.48,22.17 -23.47,31.81 -16.36,16.73 -32.75,33.47 -50.26,48.99 -9,7.87 -18.65,15.15 -29.54,20.23 -17.29,6.29 -36.15,9.85 -54.47,6.4 -29.63,-5.15 -55.07,-25.47 -70.14,-51.02 -2.9,-6.03 -6.66,-11.73 -8.2,-18.34 -5.95,-16.35 -7.31,-34.54 -2.4,-51.34 2.16,-6.55 3.83,-13.39 7.59,-19.27 6.52,-13.14 16.62,-23.99 27.1,-34.06 7.42,-7.29 14.62,-14.81 22.12,-22.02 16.93,16.91 34.01,33.66 50.65,50.83 -5.3,5.67 -10.77,11.17 -16.42,16.49 -6.61,7.45 -15.6,13.5 -18.51,23.54 -7.28,18.13 13.33,39.47 31.69,32.99 8.52,-2.48 14.94,-8.88 20.85,-15.16 11.19,-10.89 22.08,-22.06 33.22,-33.01 6.97,-7.35 15.17,-13.96 19.72,-23.22 2.46,-3.96 3.16,-8.94 1.89,-13.41 -2.79,-8.4 -8.74,-15.1 -14.48,-21.61 -3.53,-3.12 -6.28,-7.02 -10.04,-9.88 15.33,-15.27 30.7,-30.5 45.93,-45.86 4.62,5.02 9.51,9.84 14.79,14.16 5.06,4.77 11.12,8.74 17.78,10.82 7.41,2.01 14,-2.64 19.79,-6.58 10.34,-9.16 19.62,-19.43 29.65,-28.92 6.73,-7.07 13.86,-13.75 20.64,-20.79 4.43,-6.06 7.66,-13.78 5.52,-21.35 -3.11,-11.11 -12.86,-20.87 -24.71,-21.77 -5.13,-0.54 -10.08,1.22 -14.72,3.21 -5.74,3.42 -9.91,8.76 -14.77,13.24 -6.67,6.89 -13.66,13.45 -20.26,20.41 -7.36,-8.42 -15.8,-15.83 -23.51,-23.91 -2.56,-3.08 -5.95,-5.32 -8.31,-8.56 -6.77,-5.84 -12.36,-12.86 -19.19,-18.62 12.38,-11.84 23.86,-24.6 36.76,-35.87 4.28,-3.42 8.95,-6.36 13.6,-9.25 7.28,-3.38 14.44,-7.38 22.46,-8.72 z"
     inkscape:connector-curvature="0"
     id="path3153"
     style="fill:#000000" />
  <path
     d="m 37.83,271 c 8.31,-2.62 17.2,-0.45 24.82,3.25 9.24,5.33 17.05,12.7 24.47,20.29 -7.11,7.09 -13.98,14.43 -21.32,21.27 -5.18,-4.95 -9.38,-10.97 -15.42,-14.98 -3.42,-2.1 -7.34,-4.23 -11.5,-3.32 -2.52,0.75 -4.71,2.36 -6.7,4.04 -3.38,2.9 -3.33,8.12 -1.64,11.91 3.78,7.22 9.87,12.8 15.73,18.31 13.06,12.88 25.92,25.96 38.99,38.83 4.61,4.81 9.5,9.79 15.89,12.14 8.04,3.14 16.92,-6.79 13.5,-14.55 -3.85,-9.42 -12.25,-15.82 -19.41,-22.66 7.38,-6.89 14.46,-14.1 21.68,-21.16 9.88,9.17 19.59,19.45 24.07,32.43 1.85,5.16 2.47,10.83 1.14,16.19 -2.53,10.72 -9.62,19.69 -17.73,26.84 -5.74,5.54 -12.93,9.77 -20.72,11.57 -9.59,2.09 -18.9,-2.31 -26.81,-7.3 C 70.46,399.58 64.65,394.31 59.04,388.85 45.25,374.92 31.12,361.31 17.57,347.14 9.7699998,338.15 2.2699998,327.83 0.79999976,315.68 l 0,-4.14 C 1.8499998,303.58 5.9999998,296.41 10.9,290.21 18.26,281.95 26.86,273.91 37.83,271 z"
     inkscape:connector-curvature="0"
     id="path3155"
     style="fill:#000000" />
  <g
     id="g3106"
     transform="translate(0.79999976,0.17)">
    <path
       d="m 833.625,453.71875 c -34.025,33.65 -67.65625,67.7 -101.71875,101.3125 33.95,33.85 67.90625,67.68125 101.78125,101.59375 22.35,-23.2 45.625,-45.5125 68.1875,-68.5 C 913.0375,577.3625 923.6375,566 935,555.4375 l 0,-0.53125 c -33.9625,-33.55 -67.7125,-67.325 -101.375,-101.1875 z M 862.46875,526.5 c 7.48133,-0.0483 14.85391,0.60859 21.34375,4.75 13.4875,7.0125 17.90625,26.6125 9.03125,38.9375 -3.825,7.0875 -11.66875,10.93125 -19.21875,12.71875 -9.4375,1.225 -18.98125,0.3375 -28.46875,0.625 -0.025,-18.9625 -0.0313,-37.94375 -0.0313,-56.90625 5.62187,0.38281 11.52494,-0.0875 17.34375,-0.125 z m -33.25,0.0937 c 0.0625,18.9875 0.006,37.95 0.0313,56.9375 -4.65,-0.0375 -9.26875,-0.025 -13.90625,0 -0.025,-7.375 -0.0187,-14.75 -0.0313,-22.125 -6.675,0.0125 -13.3375,0 -20,0 0,7.3625 0.0125,14.71875 0,22.09375 -4.6375,0 -9.28125,0.0187 -13.90625,0.0313 0.0125,-18.9625 0.0125,-37.94375 0,-56.90625 4.6375,-0.0125 9.3,-0.0187 13.9375,0.0313 -0.0375,7.25 0.006,14.53125 -0.0313,21.78125 6.675,0 13.34375,-0.025 20.03125,0 -0.0125,-7.275 -0.0125,-14.5375 0,-21.8125 4.625,0.025 9.2375,0.0313 13.875,-0.0313 z"
       inkscape:connector-curvature="0"
       transform="scale(0.8,0.8)"
       id="path3157"
       style="fill:#000000" />
    <path
       d="m 687.36,432.02 c 5.43,-0.3 11.88,-0.52 15.99,3.67 3.29,4.82 3.34,11.84 0.11,16.71 -4.02,4.41 -10.63,3.81 -16.06,3.85 -0.06,-8.08 0.01,-16.15 -0.04,-24.23 z"
       inkscape:connector-curvature="0"
       id="path3163"
       style="fill:#000000" />
  </g>
  <path
     d="m 311.38,676.92 c 0.8,-1.09 1.61,-2.18 2.44,-3.23 0.29,5.33 0.23,10.68 0.07,16.02 -1.24,-1.19 -1.87,-3.69 -4,-3.38 -10.6,-0.06 -21.2,-0.02 -31.8,0 -0.02,3.07 -0.02,6.15 0.03,9.24 6.6,0.04 13.2,0.05 19.81,0.03 2.14,0.33 3.26,-1.8 4.68,-2.96 0,4.94 0.04,9.88 0,14.83 -0.97,-0.79 -1.88,-1.68 -2.9,-2.38 -7.2,-0.23 -14.42,-0.09 -21.63,-0.05 0,3.59 -0.02,7.18 0.06,10.77 10.25,0.06 20.52,0.05 30.78,0.02 2.14,0.1 3.39,-2.02 5.01,-3.07 0.12,4.91 0.09,9.83 0.01,14.74 -1.66,-0.79 -3.15,-2.24 -5.12,-2.08 -16.45,-0.16 -32.92,0.27 -49.36,-0.22 1.28,-0.77 2.59,-1.47 3.9,-2.18 0.02,-14.59 -0.14,-29.18 0.08,-43.76 -1.37,-0.67 -2.74,-1.34 -4.05,-2.09 17.31,-0.58 34.66,-0.09 51.99,-0.25 z"
     inkscape:connector-curvature="0"
     id="path3165"
     style="fill:#000000" />
  <path
     d="m 406.71,677.24 c 9.34,-2.3 18.93,-0.17 28.15,1.64 2.14,0.55 4.23,-0.02 6.19,-0.93 -2.02,5.1 -4.23,10.15 -7.19,14.79 -0.22,-0.79 -0.66,-2.37 -0.88,-3.16 -6.33,-3.73 -14.03,-4.16 -21.18,-3.38 -2.79,0.45 -6.3,1.68 -6.84,4.87 0.48,2.53 3.65,2.61 5.61,3.36 9.21,1.72 19.21,1.55 27.35,6.83 4.85,4.87 4.27,13.05 0.19,18.22 -7.49,6.42 -18.04,7.66 -27.49,6.25 -6.02,-0.66 -11.83,-2.41 -17.71,-3.78 -1.15,0.66 -2.3,1.3 -3.47,1.93 1.37,-5.26 3.25,-10.37 4.93,-15.54 0.77,0.84 1.24,1.84 1.42,2.99 1.01,0.94 2.03,1.97 3.44,2.26 7.66,1.66 15.62,3.51 23.47,2.02 2.04,-0.7 4.87,-1.82 4.54,-4.49 -1.57,-4.2 -6.74,-4.03 -10.43,-4.41 -8.27,-0.79 -17.74,-1.32 -23.87,-7.68 -3.63,-4.77 -2.02,-11.7 2.11,-15.63 2.69,-3.85 7.42,-4.94 11.66,-6.16 z"
     inkscape:connector-curvature="0"
     id="path3167"
     style="fill:#000000" />
  <path
     d="m 24.98,677.09 c 6.64,-0.32 13.3,-0.19 19.94,-0.08 -0.83,1.03 -2.85,1.5 -2.77,3.06 -0.08,8.38 -0.04,16.77 -0.01,25.15 0.32,3.2 1.46,7.15 4.76,8.42 4.43,1.12 9.16,1.17 13.59,0.05 3.4,-1.26 5.56,-4.95 5.2,-8.53 -0.12,-8.73 0.24,-17.49 -0.17,-26.21 -0.7,-0.48 -2.09,-1.44 -2.79,-1.92 6.62,-0.19 13.26,-0.16 19.88,-0.03 -0.93,0.99 -3.1,1.3 -2.86,3.04 -0.19,8.74 0.06,17.5 -0.09,26.25 -0.19,5.11 -2.22,10.21 -5.94,13.79 -5.42,4.72 -12.86,6.27 -19.88,6.29 -7.24,0.01 -14.89,-1.75 -20.37,-6.74 -3.64,-3.44 -4.68,-8.65 -4.97,-13.44 0,-9.03 -0.01,-18.06 0.02,-27.08 -1.19,-0.67 -2.38,-1.34 -3.54,-2.02 z"
     inkscape:connector-curvature="0"
     id="path3169"
     style="fill:#000000" />
  <path
     d="m 93.09,677.02 c 6.23,-0.22 12.47,-0.04 18.71,-0.11 2.77,0 5.6,-0.23 8.3,0.57 -1.15,0.67 -2.29,1.33 -3.43,2 4.21,5.65 9.47,10.39 14.12,15.66 2.04,2.32 4.18,4.58 6.71,6.39 0.04,-7.46 0.02,-14.91 0.01,-22.36 -1.3,-0.59 -2.6,-1.19 -3.75,-2.03 6.82,-0.39 13.69,-0.33 20.52,-0.02 -1.18,0.75 -2.36,1.49 -3.56,2.21 0.14,13.96 -0.01,27.92 0.03,41.89 -0.43,2.27 2.15,2.86 3.48,4.05 -7.18,0.2 -14.37,0.29 -21.55,-0.05 1.21,-1.14 3.96,-1.1 4.07,-3.06 -5.88,-7.05 -12.47,-13.45 -18.78,-20.11 -2.97,-3.12 -5.6,-6.54 -8.72,-9.51 -0.23,9.56 -0.11,19.13 -0.09,28.69 -0.55,2.4 2.31,2.7 3.77,3.74 -6.55,0.8 -13.26,0.61 -19.83,0.1 1.28,-1.09 3.55,-1.71 3.05,-3.84 0.03,-13.37 0.02,-26.74 0.01,-40.11 0.47,-2.14 -1.91,-2.86 -3.07,-4.1 z"
     inkscape:connector-curvature="0"
     id="path3171"
     style="fill:#000000" />
  <path
     d="m 165.26,677.13 c 7.65,-0.35 15.34,-0.35 23,0.02 -1.34,0.74 -2.79,1.3 -4.04,2.2 -0.19,14.48 -0.05,28.98 -0.07,43.47 1.21,1.01 2.71,1.58 4.06,2.41 -7.68,0.29 -15.37,0.31 -23.04,-0.02 1.46,-1.22 4.59,-1.49 4.23,-3.97 0.07,-13.35 0.01,-26.71 0.03,-40.06 0.58,-2.6 -2.75,-2.72 -4.17,-4.05 z"
     inkscape:connector-curvature="0"
     id="path3173"
     style="fill:#000000" />
  <path
     d="m 195.24,677.11 c 7.37,-0.31 14.77,-0.32 22.14,0.01 -1.07,0.68 -2.16,1.35 -3.26,1.99 2.64,9.74 7.34,18.76 9.92,28.5 4.58,-8.59 7.65,-17.85 11.51,-26.75 1.51,-2.03 -1.4,-2.71 -2.51,-3.84 6.49,0.14 13.14,-0.77 19.53,0.46 -1.11,0.86 -2.92,1.21 -3.28,2.8 -1.38,3.48 -2.99,6.89 -4.09,10.49 -1.97,5.67 -4.94,10.94 -6.94,16.61 -1.67,5.23 -4.11,10.16 -6.36,15.15 1.11,0.93 2.23,1.82 3.34,2.76 -8.13,0.11 -16.3,0.39 -24.42,-0.16 1.07,-1.11 3.76,-1.71 2.62,-3.69 -2.97,-8.14 -5.04,-16.55 -8.37,-24.55 -2.45,-5.88 -3.67,-12.23 -6.78,-17.83 -1.04,-0.63 -2.05,-1.28 -3.05,-1.95 z"
     inkscape:connector-curvature="0"
     id="path3175"
     style="fill:#000000" />
  <path
     d="m 341.575,676.895 c -5.75125,-0.0238 -11.505,-0.01 -17.25,0.225 1.06,0.75 2.175,1.465 3.275,2.175 0.06,14.55 0.03,29.1 0,43.65 -0.95,0.76 -1.885,1.535 -2.825,2.325 6.82,0.11 13.685,0.5 20.475,-0.2 -1.23,-0.63 -2.435,-1.295 -3.625,-1.975 -0.72,-5.3 -0.14,-10.695 -0.3,-16.025 3.7,-0.04 7.4,-0.045 11.1,0.025 2.01,5.41 6.02,9.755 8.3,15.025 0.33,1.85 -2.275,2.07 -3.275,3.15 7.83,0.1 15.75,0.54 23.55,-0.25 -2.31,-1.24 -4.83,-2.49 -6.05,-4.95 -2.24,-4.63 -6.025,-8.27 -8.175,-12.95 5.12,-1.9 9.995,-5.65 11.625,-11.05 1.83,-5.84 -0.76,-12.33 -5.3,-16.15 -4.43,-2.12 -9.355,-3.225 -14.275,-3.025 -5.75,0.08 -11.49875,0.0238 -17.25,0 z m 8.525,9 c 2.905,-0.0162 5.82,-0.02 8.725,0.125 3.25,0.02 6.59,2.675 6.2,6.175 0.08,3.73 -3.83,6.205 -7.25,6.075 -5.46,0.11 -10.915,0.005 -16.375,0.025 -0.05,-4.13 -0.04,-8.255 0,-12.375 2.905,0.02 5.795,-0.009 8.7,-0.025 z"
     inkscape:connector-curvature="0"
     id="path3177"
     style="fill:#000000" />
  <path
     d="m 477.75,676.895 c -4.04125,0.004 -8.085,0.05 -12.125,0.125 0.55,0.53 1.65,1.595 2.2,2.125 -1.87,4.92 -4.48,9.5 -6.4,14.4 -2.28,6.27 -5.915,11.965 -7.975,18.325 -2.32,4.57 -3.74,9.75 -7.4,13.5 5.62,0.08 11.23,0.075 16.85,-0.025 -0.51,-0.57 -1.515,-1.705 -2.025,-2.275 0.87,-2.68 2.44,-5.05 3.6,-7.6 8.5,-0.01 17,0.14 25.5,-0.1 1.19,2.63 2.505,5.205 3.825,7.775 -0.62,0.54 -1.855,1.595 -2.475,2.125 6.54,0.24 13.1,0.165 19.65,0.075 -4.09,-2.78 -5.525,-7.7 -7.375,-12 -1.52,-3.97 -3.8,-7.565 -5.55,-11.425 -3.12,-7.75 -7.61,-14.87 -10.35,-22.8 l 2.175,-2.075 c -4.035,-0.11 -8.08375,-0.15375 -12.125,-0.15 z m -0.9,11.475 c 3.89,6.04 6.22,12.85 9.5,19.2 -6.17,-0.02 -12.33,0.055 -18.5,-0.025 2.93,-6.42 6.5,-12.555 9,-19.175 z"
     inkscape:connector-curvature="0"
     id="path3179"
     style="fill:#000000" />
  <path
     d="m 517.74,677.08 c 7.42,-0.06 14.92,-0.72 22.29,0.41 -1.33,0.56 -2.65,1.12 -3.98,1.67 0.1,11.64 0,23.28 0.05,34.93 10.62,-0.01 21.23,-0.01 31.85,0 0.6,-0.95 1.21,-1.89 1.82,-2.81 -0.08,5.62 -0.28,11.27 0.11,16.89 l -0.39,0 c -0.84,-1.26 -1.89,-2.88 -3.62,-2.71 -15.94,-0.17 -31.9,0.06 -47.85,-0.11 1.19,-1.3 3.67,-2 3.4,-4.13 0.1,-13.91 -0.02,-27.82 0.04,-41.73 -1.25,-0.8 -2.5,-1.61 -3.72,-2.41 z"
     inkscape:connector-curvature="0"
     id="path3181"
     style="fill:#000000" />
</svg>
