<?xml version="1.0" encoding="UTF-8" standalone="no"?>
<!-- Created with Inkscape (http://www.inkscape.org/) -->

<svg
   xmlns:dc="http://purl.org/dc/elements/1.1/"
   xmlns:cc="http://creativecommons.org/ns#"
   xmlns:rdf="http://www.w3.org/1999/02/22-rdf-syntax-ns#"
   xmlns:svg="http://www.w3.org/2000/svg"
   xmlns="http://www.w3.org/2000/svg"
   xmlns:sodipodi="http://sodipodi.sourceforge.net/DTD/sodipodi-0.dtd"
   xmlns:inkscape="http://www.inkscape.org/namespaces/inkscape"
   version="1.1"
   width="28.79175"
   height="11.29375"
   id="svg85611"
   inkscape:version="0.48.4 r9939"
   sodipodi:docname="tv.crimeandinvestigation.svg">
  <sodipodi:namedview
     pagecolor="#ffffff"
     bordercolor="#666666"
     borderopacity="1"
     objecttolerance="10"
     gridtolerance="10"
     guidetolerance="10"
     inkscape:pageopacity="0"
     inkscape:pageshadow="2"
     inkscape:window-width="1600"
     inkscape:window-height="837"
     id="namedview70"
     showgrid="false"
     fit-margin-top="0"
     fit-margin-left="0"
     fit-margin-right="0"
     fit-margin-bottom="0"
     inkscape:zoom="15.347826"
     inkscape:cx="26.928648"
     inkscape:cy="15.718529"
     inkscape:window-x="-8"
     inkscape:window-y="-8"
     inkscape:window-maximized="1"
     inkscape:current-layer="layer1" />
  <defs
     id="defs85613" />
  <metadata
     id="metadata85616">
    <rdf:RDF>
      <cc:Work
         rdf:about="">
        <dc:format>image/svg+xml</dc:format>
        <dc:type
           rdf:resource="http://purl.org/dc/dcmitype/StillImage" />
        <dc:title></dc:title>
      </cc:Work>
    </rdf:RDF>
  </metadata>
  <g
     transform="translate(-352.84112,-526.42828)"
     id="layer1">
    <g
       transform="matrix(1.25,0,0,-1.25,359.66862,537.72203)"
       id="g63520"
       style="fill:#c1131d;fill-opacity:1">
      <path
         d="m 0,0 5.294,0 0,9.035 -8.965,0 0,-5.787 L 0,0"
         id="path63522"
         style="fill:#c1131d;fill-opacity:1;fill-rule:nonzero;stroke:none"
         inkscape:connector-curvature="0" />
    </g>
    <g
       transform="matrix(1.25,0,0,-1.25,352.84112,532.92703)"
       id="g63524"
       style="fill:#c1131d;fill-opacity:1">
      <path
         d="M 0,0 0.038,-3.203 3.622,-3.215 0,0"
         id="path63526"
         style="fill:#c1131d;fill-opacity:1;fill-rule:nonzero;stroke:none"
         inkscape:connector-curvature="0" />
    </g>
    <g
       transform="matrix(1.25,0,0,-1.25,365.02987,532.15078)"
       id="g63528">
      <path
         d="m -1.01,0 1.0097,0 0,-3.6967 -1.0097,0 0,3.6967 z M 0,0 z m 0,0.571 -1.0097,0 0,0.83524 1.0097,0 L 0,0.571 z"
         id="path63530"
         style="fill:#ffffff;fill-opacity:1;fill-rule:nonzero;stroke:none"
         inkscape:connector-curvature="0" />
    </g>
    <g
       transform="matrix(1.25,0,0,-1.25,361.17112,533.05078)"
       id="g63532">
      <path
         d="m 0,0 c -0.153,0 -0.282,-0.035 -0.385,-0.106 -0.104,-0.07 -0.188,-0.161 -0.253,-0.273 -0.066,-0.111 -0.112,-0.234 -0.139,-0.368 -0.027,-0.134 -0.04,-0.267 -0.04,-0.399 0,-0.127 0.013,-0.257 0.04,-0.389 0.027,-0.132 0.071,-0.251 0.132,-0.358 0.061,-0.107 0.143,-0.194 0.246,-0.263 0.104,-0.068 0.23,-0.102 0.379,-0.102 0.229,0 0.406,0.065 0.53,0.194 0.124,0.13 0.202,0.304 0.233,0.522 l 0.926,0 C 1.606,-2.01 1.425,-2.367 1.128,-2.614 0.831,-2.86 0.45,-2.983 -0.013,-2.983 c -0.262,0 -0.502,0.044 -0.721,0.133 -0.218,0.089 -0.405,0.213 -0.558,0.373 -0.154,0.159 -0.274,0.349 -0.36,0.57 -0.086,0.221 -0.129,0.464 -0.129,0.728 0,0.273 0.039,0.527 0.119,0.762 0.079,0.234 0.195,0.437 0.349,0.608 0.154,0.171 0.341,0.304 0.562,0.4 0.222,0.095 0.474,0.143 0.758,0.143 0.207,0 0.406,-0.027 0.598,-0.082 C 0.796,0.597 0.967,0.514 1.118,0.403 1.269,0.291 1.392,0.152 1.486,-0.014 1.581,-0.181 1.635,-0.378 1.648,-0.606 l -0.939,0 C 0.646,-0.202 0.41,0 0,0"
         id="path63534"
         style="fill:#ffffff;fill-opacity:1;fill-rule:nonzero;stroke:none"
         inkscape:connector-curvature="0" />
    </g>
    <g
       transform="matrix(0.66453009,0,0,0.48926222,354.66698,535.84564)"
       style="font-size:40px;font-style:normal;font-weight:bold;line-height:125%;letter-spacing:0px;word-spacing:0px;fill:#808080;fill-opacity:1;stroke:none;font-family:Sans;-inkscape-font-specification:Sans Bold"
       id="text2990">
      <path
         d="m 18.649805,2.2370925 0,-12.8847655 2.601563,0 0,5.0712889 5.097656,0 0,-5.0712889 2.601562,0 0,12.8847655 -2.601562,0 0,-5.6337891 -5.097656,0 0,5.6337891 z"
         style="font-size:18px;fill:#808080"
         id="path2995"
         inkscape:connector-curvature="0" />
      <path
         d="m 29.777128,-10.647673 4.754883,0 c 1.072259,1.3e-5 1.889641,0.08204 2.452149,0.246094 0.75585,0.222668 1.40331,0.6181757 1.942383,1.1865231 0.539051,0.5683702 0.949207,1.2641703 1.230468,2.0874023 0.281238,0.8232507 0.421863,1.8383864 0.421875,3.0454102 -1.2e-5,1.0605521 -0.131848,1.9746137 -0.395508,2.7421875 C 39.861101,-0.4025533 39.401141,0.356235 38.803496,0.93631124 38.352314,1.3757652 37.742939,1.7185383 36.975371,1.9646316 36.401144,2.1462723 35.633567,2.2370925 34.672636,2.2370925 l -4.895508,0 z m 2.601563,2.1796874 0,8.53417966 1.942383,0 c 0.726556,2.17e-6 1.250969,-0.04101342 1.573242,-0.12304688 0.421867,-0.10546635 0.771964,-0.28417711 1.050293,-0.53613281 0.278311,-0.25195004 0.505362,-0.66650037 0.681152,-1.24365237 0.175772,-0.5771438 0.263663,-1.3637641 0.263672,-2.3598633 -9e-6,-0.9960863 -0.0879,-1.7607339 -0.263672,-2.2939453 -0.17579,-0.5331938 -0.421883,-0.949209 -0.738281,-1.2480468 -0.316414,-0.2988179 -0.717781,-0.5009661 -1.204102,-0.6064454 -0.363288,-0.082021 -1.075201,-0.1230361 -2.135742,-0.1230468 z"
         style="font-size:18px;fill:#808080"
         id="path2997"
         inkscape:connector-curvature="0" />
    </g>
  </g>
</svg>
