<?xml version="1.0" encoding="UTF-8" standalone="no"?>
<!-- Created with Inkscape (http://www.inkscape.org/) -->
<svg
   xmlns:dc="http://purl.org/dc/elements/1.1/"
   xmlns:cc="http://creativecommons.org/ns#"
   xmlns:rdf="http://www.w3.org/1999/02/22-rdf-syntax-ns#"
   xmlns:svg="http://www.w3.org/2000/svg"
   xmlns="http://www.w3.org/2000/svg"
   xmlns:sodipodi="http://sodipodi.sourceforge.net/DTD/sodipodi-0.dtd"
   xmlns:inkscape="http://www.inkscape.org/namespaces/inkscape"
   width="1024"
   height="450"
   id="svg2428"
   sodipodi:version="0.32"
   inkscape:version="0.46"
   version="1.0"
   sodipodi:docname="CBeebies.svg"
   inkscape:output_extension="org.inkscape.output.svg.inkscape">
  <defs
     id="defs2430"><inkscape:perspective
   sodipodi:type="inkscape:persp3d"
   inkscape:vp_x="0 : 526.18109 : 1"
   inkscape:vp_y="0 : 1000 : 0"
   inkscape:vp_z="744.09448 : 526.18109 : 1"
   inkscape:persp3d-origin="372.04724 : 350.78739 : 1"
   id="perspective2436" />

<inkscape:perspective
   id="perspective2491"
   inkscape:persp3d-origin="18 : 5.6666667 : 1"
   inkscape:vp_z="36 : 8.5 : 1"
   inkscape:vp_y="0 : 1000 : 0"
   inkscape:vp_x="0 : 8.5 : 1"
   sodipodi:type="inkscape:persp3d" />
</defs>
  <sodipodi:namedview
     id="base"
     pagecolor="#ffffff"
     bordercolor="#666666"
     borderopacity="1.0"
     inkscape:pageopacity="0.0"
     inkscape:pageshadow="2"
     inkscape:zoom="0.35"
     inkscape:cx="350"
     inkscape:cy="520"
     inkscape:document-units="px"
     inkscape:current-layer="layer1"
     showgrid="false"
     inkscape:window-width="640"
     inkscape:window-height="667"
     inkscape:window-x="171"
     inkscape:window-y="20" />
  <metadata
     id="metadata2433">
    <rdf:RDF>
      <cc:Work
         rdf:about="">
        <dc:format>image/svg+xml</dc:format>
        <dc:type
           rdf:resource="http://purl.org/dc/dcmitype/StillImage" />
      </cc:Work>
    </rdf:RDF>
  </metadata>
  <g
     inkscape:label="Ebene 1"
     inkscape:groupmode="layer"
     id="layer1">
    <g
       id="g2494"
       transform="matrix(28.948484,0,0,28.948484,2.4356578,1.8590386)">
      <path
         id="path2442"
         d="M 34.618,10.288 C 33.641,9.376 32.055,9.3 31.076,10.35 C 31.05,10.378 31.02,10.413 30.991,10.451 L 30.987,10.422 L 30.95,10.143 L 31.164,9.963 C 31.243,9.895 31.304,9.828 31.349,9.777 C 31.544,9.547 31.697,9.245 31.745,9.006 C 32.029,7.547 31.031,6.785 30.299,6.625 C 29.529,6.476 28.713,6.619 28.091,7.079 C 28.108,6.862 28.097,6.678 28.059,6.53 C 28.843,6.301 29.444,5.132 29.084,4.559 C 28.891,4.249 28.5,3.991 28.12,3.903 C 27.67,3.8 27.051,3.923 26.819,4.617 C 26.653,5.117 26.651,5.627 26.868,6.011 C 26.563,6.102 26.256,6.264 26.014,6.474 C 25.958,6.522 25.915,6.558 25.866,6.6 C 25.893,6.34 25.893,6.107 25.869,5.925 L 25.864,5.852 C 25.842,5.692 25.807,5.54 25.782,5.45 C 25.436,4.196 24.086,4.095 23.455,4.225 L 23.418,4.233 L 23.43,4.198 C 23.496,3.993 23.517,3.94 23.558,3.86 C 23.629,3.731 23.74,3.563 23.969,3.194 C 23.988,3.168 24.093,3.051 24.426,2.447 C 24.586,2.157 24.648,1.878 24.638,1.615 C 24.63,0.72 23.909,0 22.997,0 C 22.39,0 21.916,0.299 21.63,0.762 C 21.595,0.808 21.536,0.893 21.47,1.02 C 21.379,1.193 21.277,1.44 21.199,1.764 C 21.199,1.764 21.068,2.3 21.031,2.645 C 21.013,2.796 21.004,3.007 20.995,3.21 C 20.995,3.21 20.992,3.29 20.986,3.399 C 20.976,3.524 20.962,3.685 20.935,3.802 C 20.926,3.838 20.908,3.884 20.876,3.943 C 20.582,2.792 19.573,2.293 18.839,2.25 C 17.937,2.218 17.083,2.517 16.493,3.068 C 16.128,3.408 15.883,3.839 15.742,4.328 C 15.716,4.314 15.69,4.3 15.665,4.287 C 15.662,4.209 15.659,4.131 15.659,4.131 L 15.614,3.784 C 15.535,3.435 15.362,3.079 15.161,2.856 C 13.999,1.565 12.573,1.959 11.899,2.539 C 11.468,2.927 11.131,3.422 10.945,3.966 C 10.264,3.241 8.584,3.286 7.563,3.806 C 6.564,4.315 5.106,5.302 5.693,7.705 C 5.65,7.665 5.614,7.624 5.566,7.586 C 5.003,7.133 4.353,6.654 3.69,6.425 C 2.985,6.182 2.239,6.22 1.615,6.83 C 0.642,7.777 -1.414,10.454 1.502,13.627 C 2.91,15.16 4.217,15.45 5.291,15.17 C 5.8,15.037 6.221,14.785 6.543,14.545 C 6.85,14.314 7.082,14.08 7.228,13.948 C 7.539,13.666 7.99,13.131 8.271,12.547 C 8.458,12.164 8.636,11.607 8.483,11.078 C 9.665,11.426 10.896,11.14 11.596,10.803 C 12.591,10.324 13.903,9.277 13.481,7.865 C 14.403,7.98 15.318,7.68 16.091,6.985 C 16.097,6.979 16.101,6.973 16.107,6.967 C 16.132,7.008 16.156,7.05 16.156,7.05 C 16.737,7.863 17.66,8.322 18.767,8.36 C 19.316,8.38 19.718,8.251 20,7.968 C 20,7.968 20.006,7.956 20.013,7.944 C 20.017,7.954 20.019,7.963 20.023,7.973 C 20.564,9.618 22.566,10.067 23.976,9.43 C 24.277,9.295 24.511,9.125 24.67,8.987 C 24.71,8.954 24.73,8.931 24.76,8.903 C 25.01,9.337 25.582,9.546 25.923,9.577 C 26.362,9.62 26.756,9.429 27.084,9.13 C 27.062,10.322 27.782,11.542 29.418,11.86 C 29.815,11.938 30.175,11.921 30.461,11.712 C 30.489,11.691 30.51,11.659 30.536,11.634 C 30.532,11.738 30.536,11.841 30.557,11.943 L 30.561,11.964 L 30.539,11.968 C 30.469,11.977 30.403,11.992 30.345,12.014 C 30.129,12.089 29.953,12.233 29.841,12.352 C 29.179,13.062 29.261,13.962 29.929,14.587 C 30.912,15.503 32.494,15.572 33.471,14.524 C 33.712,14.265 34.13,13.567 33.993,12.931 L 33.987,12.909 L 34.01,12.906 C 34.08,12.897 34.145,12.88 34.202,12.86 C 34.42,12.785 34.594,12.642 34.707,12.522 C 35.368,11.814 35.295,10.917 34.618,10.288 M 5.552,10.474 C 5.515,10.682 5.49,10.914 5.456,11.139 C 5.422,11.353 5.384,11.512 5.334,11.621 C 5.31,11.674 5.259,11.724 5.244,11.739 C 4.815,11.888 4.418,11.795 3.942,11.213 C 3.748,10.975 3.562,10.551 3.469,10.139 C 3.631,10.297 3.862,10.433 4.193,10.491 C 4.747,10.589 5.308,10.346 5.692,9.98 C 5.618,10.147 5.579,10.326 5.552,10.474 M 10.959,5.837 C 11.022,6.01 11.099,6.18 11.201,6.349 L 10.79,6.297 L 10.959,5.837 z"
         clip-rule="evenodd"
         style="fill-rule:evenodd" />
      <path
         id="path2444"
         d="M 22.877,12.036 C 22.863,12.034 22.848,12.032 22.833,12.03 L 22.813,12.028 C 22.788,12.023 22.761,12.021 22.735,12.018 C 22.718,12.016 22.699,12.015 22.681,12.014 C 22.65,12.011 22.618,12.01 22.587,12.01 C 22.572,12.01 22.566,12.01 22.552,12.011 C 22.527,12.011 22.501,12.013 22.478,12.015 C 22.464,12.015 22.45,12.016 22.435,12.018 C 22.415,12.019 22.397,12.021 22.376,12.024 L 22.36,12.026 L 22.342,12.03 L 22.319,12.032 C 22.309,12.034 22.299,12.036 22.292,12.038 C 22.277,12.04 22.265,12.043 22.253,12.046 C 22.173,12.063 22.097,12.086 22.029,12.112 C 21.993,12.126 21.96,12.141 21.926,12.157 C 21.9,12.169 21.875,12.182 21.85,12.196 C 21.825,12.212 21.803,12.225 21.78,12.239 C 21.768,12.249 21.757,12.258 21.743,12.265 C 21.733,12.273 21.722,12.282 21.712,12.287 C 21.691,12.305 21.671,12.322 21.651,12.338 C 21.633,12.354 21.615,12.371 21.598,12.387 C 21.584,12.401 21.572,12.414 21.557,12.431 C 21.543,12.446 21.531,12.46 21.518,12.477 C 21.504,12.495 21.49,12.512 21.477,12.53 C 21.465,12.545 21.457,12.558 21.448,12.571 C 21.442,12.581 21.436,12.592 21.43,12.601 C 21.395,12.659 21.364,12.72 21.338,12.786 C 21.307,12.868 21.284,12.956 21.272,13.049 C 21.268,13.079 21.264,13.109 21.262,13.14 C 21.262,13.163 21.26,13.187 21.26,13.211 C 21.26,13.229 21.26,13.247 21.262,13.265 C 21.262,13.283 21.264,13.302 21.266,13.32 L 21.268,13.332 C 21.271,13.354 21.274,13.375 21.279,13.396 C 21.279,13.404 21.282,13.412 21.283,13.42 C 21.287,13.437 21.292,13.454 21.296,13.472 C 21.302,13.493 21.308,13.514 21.316,13.535 C 21.325,13.561 21.333,13.587 21.343,13.611 C 21.36,13.65 21.378,13.687 21.397,13.722 C 21.408,13.743 21.419,13.763 21.431,13.783 C 21.441,13.798 21.451,13.812 21.462,13.826 C 21.474,13.847 21.487,13.865 21.501,13.883 C 21.517,13.9 21.53,13.918 21.544,13.935 C 21.563,13.956 21.58,13.974 21.599,13.993 L 21.608,14.001 C 21.622,14.016 21.638,14.03 21.656,14.046 C 21.668,14.057 21.681,14.067 21.695,14.079 C 21.708,14.089 21.722,14.099 21.736,14.109 C 21.754,14.122 21.771,14.133 21.79,14.146 C 21.811,14.159 21.831,14.171 21.853,14.184 C 21.899,14.209 21.948,14.233 22.001,14.255 C 22.022,14.263 22.042,14.27 22.064,14.277 C 22.085,14.285 22.106,14.291 22.129,14.298 C 22.168,14.309 22.209,14.32 22.252,14.326 C 22.285,14.334 22.321,14.34 22.358,14.344 C 22.396,14.348 22.433,14.352 22.472,14.354 C 22.492,14.355 22.511,14.356 22.531,14.356 L 22.558,14.356 C 22.63,14.356 22.696,14.354 22.755,14.348 L 22.767,14.348 C 22.792,14.346 22.816,14.343 22.837,14.34 C 22.872,14.336 22.905,14.33 22.938,14.324 C 22.959,14.322 22.977,14.318 22.996,14.312 C 23.024,14.307 23.053,14.3 23.079,14.293 C 23.098,14.288 23.118,14.282 23.137,14.276 C 23.158,14.269 23.178,14.262 23.198,14.255 L 23.218,14.248 C 23.228,14.244 23.24,14.24 23.255,14.234 C 23.276,14.227 23.3,14.216 23.328,14.205 C 23.345,14.197 23.363,14.189 23.382,14.182 C 23.399,14.174 23.415,14.164 23.433,14.159 C 23.44,14.155 23.448,14.151 23.455,14.146 L 23.455,13.714 C 23.45,13.717 23.445,13.72 23.439,13.723 L 23.41,13.741 C 23.38,13.76 23.352,13.776 23.323,13.793 C 23.292,13.809 23.26,13.825 23.23,13.839 C 23.176,13.864 23.126,13.886 23.076,13.903 C 22.981,13.936 22.893,13.96 22.819,13.971 C 22.809,13.973 22.799,13.974 22.792,13.975 C 22.771,13.979 22.751,13.981 22.731,13.985 C 22.701,13.987 22.672,13.989 22.647,13.991 C 22.631,13.991 22.615,13.991 22.6,13.991 C 22.571,13.991 22.538,13.991 22.506,13.989 C 22.469,13.987 22.43,13.981 22.391,13.974 C 22.33,13.964 22.266,13.948 22.204,13.926 C 22.195,13.923 22.186,13.919 22.178,13.914 C 22.172,13.914 22.166,13.91 22.159,13.908 C 22.151,13.904 22.138,13.898 22.129,13.894 C 22.108,13.884 22.088,13.874 22.067,13.861 C 22.058,13.856 22.048,13.85 22.037,13.843 C 22.026,13.837 22.016,13.829 22.006,13.823 C 21.993,13.813 21.982,13.805 21.969,13.796 C 21.957,13.786 21.945,13.776 21.936,13.768 L 21.922,13.755 L 21.913,13.747 L 21.91,13.745 L 21.904,13.739 C 21.884,13.719 21.867,13.7 21.851,13.679 C 21.841,13.669 21.831,13.658 21.824,13.647 C 21.816,13.636 21.81,13.626 21.803,13.616 C 21.797,13.605 21.789,13.595 21.784,13.586 C 21.774,13.569 21.765,13.555 21.76,13.54 C 21.752,13.526 21.746,13.513 21.741,13.501 C 21.732,13.479 21.724,13.456 21.717,13.436 C 21.711,13.42 21.707,13.404 21.704,13.389 C 21.692,13.343 21.686,13.302 21.683,13.267 C 21.681,13.253 21.681,13.242 21.679,13.229 C 21.679,13.212 21.679,13.197 21.679,13.185 C 21.679,13.177 21.679,13.167 21.679,13.158 C 21.681,13.134 21.683,13.101 21.688,13.066 C 21.691,13.045 21.696,13.021 21.701,12.998 C 21.704,12.98 21.711,12.965 21.715,12.947 C 21.721,12.931 21.725,12.917 21.732,12.9 C 21.737,12.889 21.741,12.879 21.745,12.867 C 21.753,12.853 21.759,12.84 21.766,12.824 C 21.772,12.813 21.779,12.802 21.785,12.791 C 21.8,12.766 21.815,12.742 21.833,12.718 C 21.841,12.71 21.847,12.701 21.854,12.692 C 21.864,12.681 21.872,12.67 21.883,12.659 C 21.887,12.653 21.893,12.647 21.899,12.642 C 21.978,12.563 22.067,12.503 22.159,12.461 C 22.175,12.455 22.188,12.449 22.204,12.443 C 22.218,12.436 22.232,12.431 22.247,12.426 C 22.263,12.42 22.279,12.416 22.296,12.411 C 22.31,12.407 22.325,12.403 22.341,12.399 C 22.358,12.395 22.372,12.392 22.386,12.389 C 22.405,12.386 22.421,12.384 22.438,12.382 C 22.454,12.379 22.47,12.378 22.487,12.376 C 22.519,12.373 22.55,12.371 22.579,12.371 L 22.611,12.371 C 22.632,12.373 22.655,12.373 22.675,12.375 C 22.691,12.376 22.704,12.377 22.72,12.379 C 22.745,12.381 22.773,12.384 22.796,12.388 C 22.819,12.392 22.841,12.395 22.861,12.399 C 22.891,12.405 22.921,12.413 22.945,12.42 C 22.962,12.424 22.978,12.429 22.992,12.433 C 23.013,12.441 23.03,12.445 23.046,12.449 C 23.069,12.459 23.082,12.464 23.082,12.464 C 23.103,12.471 23.124,12.48 23.145,12.488 C 23.172,12.498 23.198,12.509 23.223,12.521 C 23.244,12.531 23.264,12.541 23.282,12.549 C 23.298,12.557 23.312,12.566 23.325,12.571 C 23.35,12.584 23.369,12.594 23.386,12.603 L 23.431,12.627 L 23.431,12.201 C 23.431,12.201 23.405,12.191 23.359,12.174 C 23.339,12.166 23.314,12.156 23.288,12.147 C 23.273,12.142 23.258,12.136 23.24,12.131 C 23.226,12.126 23.213,12.121 23.199,12.115 C 23.181,12.111 23.166,12.104 23.147,12.1 C 23.134,12.096 23.122,12.092 23.109,12.088 L 23.097,12.085 C 23.085,12.082 23.073,12.077 23.058,12.073 C 23.044,12.069 23.028,12.065 23.013,12.061 C 23.001,12.058 22.992,12.057 22.982,12.054 C 22.964,12.05 22.948,12.046 22.929,12.043 C 22.915,12.043 22.895,12.04 22.877,12.036 M 20.754,11.595 L 24.125,11.595 L 24.125,14.768 L 20.754,14.768 L 20.754,11.595 z" />
      <path
         id="path2446"
         d="M 17.754,12.04 L 17.754,14.325 L 18.614,14.325 C 18.614,14.325 19.034,14.338 19.264,14.106 C 19.453,13.918 19.441,13.7 19.441,13.7 C 19.441,13.7 19.454,13.471 19.279,13.297 C 19.13,13.148 18.941,13.109 18.941,13.109 C 18.941,13.109 19.026,13.07 19.092,13.004 C 19.121,12.973 19.233,12.873 19.233,12.632 C 19.233,12.39 19.071,12.25 19.071,12.25 C 19.071,12.25 18.893,12.041 18.495,12.041 L 17.754,12.041 M 16.869,11.595 L 20.241,11.595 L 20.241,14.768 L 16.869,14.768 L 16.869,11.595 z" />
      <path
         id="path2448"
         d="M 13.868,12.04 L 13.868,14.325 L 14.728,14.325 C 14.728,14.325 15.148,14.338 15.38,14.106 C 15.568,13.918 15.554,13.7 15.554,13.7 C 15.554,13.7 15.568,13.471 15.394,13.297 C 15.245,13.148 15.055,13.109 15.055,13.109 C 15.055,13.109 15.141,13.07 15.207,13.004 C 15.238,12.973 15.347,12.873 15.347,12.632 C 15.347,12.39 15.187,12.25 15.187,12.25 C 15.187,12.25 15.009,12.041 14.61,12.041 L 13.868,12.041 M 12.984,11.595 L 16.355,11.595 L 16.355,14.768 L 12.984,14.768 L 12.984,11.595 z" />
      <path
         id="path2450"
         d="M 33.09,14.17 C 33.41,13.827 33.7,13.096 33.293,12.717 C 33.026,12.467 32.766,12.381 32.508,12.141 C 32.293,11.943 32.293,11.662 32.457,11.487 C 32.613,11.32 32.922,11.128 33.126,11.318 C 33.405,11.578 33.428,12.059 33.699,12.314 C 33.898,12.499 34.178,12.328 34.326,12.168 C 34.781,11.681 34.741,11.111 34.263,10.667 C 33.472,9.929 32.214,9.888 31.455,10.703 C 31.136,11.046 30.849,11.781 31.252,12.156 C 31.525,12.411 31.914,12.485 32.099,12.802 C 32.25,13.06 32.22,13.198 32.093,13.392 C 31.964,13.587 31.623,13.746 31.419,13.556 C 31.146,13.3 31.124,12.82 30.847,12.56 C 30.648,12.374 30.368,12.546 30.218,12.706 C 29.763,13.194 29.81,13.768 30.281,14.208 C 31.081,14.951 32.332,14.985 33.09,14.17"
         clip-rule="evenodd"
         style="fill:#ffe512;fill-rule:evenodd" />
      <path
         id="path2452"
         d="M 27.374,4.802 C 27.159,5.449 27.335,5.843 27.685,5.978 C 28.105,6.141 28.785,5.181 28.587,4.867 C 28.391,4.553 27.59,4.155 27.374,4.802"
         clip-rule="evenodd"
         style="fill:#ffe512;fill-rule:evenodd" />
      <path
         id="path2454"
         d="M 30.189,7.125 C 29.06,6.905 27.899,7.392 27.639,8.739 C 27.426,9.818 27.961,11.055 29.516,11.357 C 30.193,11.489 30.258,11.199 30.392,10.958 C 30.525,10.716 30.538,10.235 30.268,10.192 C 29.998,10.15 29.725,10.234 29.439,10.178 C 29.002,10.092 28.542,9.157 29.026,9.25 C 29.299,9.303 29.79,9.596 30.398,9.715 C 30.819,9.797 31.187,9.18 31.24,8.907 C 31.459,7.774 30.713,7.236 30.189,7.125"
         clip-rule="evenodd"
         style="fill:#ffe512;fill-rule:evenodd" />
      <path
         id="path2456"
         d="M 18.797,3.005 C 17.563,2.961 16.413,3.673 16.361,5.145 C 16.32,6.323 17.093,7.546 18.793,7.605 C 19.533,7.631 19.555,7.314 19.654,7.035 C 19.756,6.756 19.685,6.244 19.394,6.244 C 19.101,6.244 18.826,6.378 18.513,6.367 C 18.034,6.351 17.389,5.436 17.919,5.454 C 18.216,5.465 18.787,5.693 19.452,5.715 C 19.911,5.732 20.198,5.016 20.21,4.718 C 20.254,3.479 19.371,3.035 18.797,3.005"
         clip-rule="evenodd"
         style="fill:#ffe512;fill-rule:evenodd" />
      <path
         id="path2458"
         d="M 4.247,9.986 C 5.146,10.143 6.389,8.882 5.266,7.977 C 4.144,7.074 2.925,6.29 1.983,7.21 C 1.039,8.13 -0.726,10.473 1.865,13.293 C 4.455,16.115 6.317,14.061 6.87,13.557 C 7.423,13.054 8.513,11.606 7.797,10.846 C 7.081,10.086 6.564,9.62 6.224,10.099 C 5.884,10.577 6.116,11.993 5.44,12.226 C 4.764,12.461 4.143,12.241 3.557,11.522 C 2.971,10.804 2.622,9.176 3.182,9.036 C 3.741,8.894 3.346,9.827 4.247,9.986"
         clip-rule="evenodd"
         style="fill:#ffe512;fill-rule:evenodd" />
      <path
         id="path2460"
         d="M 12.393,3.11 C 11.476,3.936 11.143,5.247 12.128,6.341 C 12.917,7.217 14.323,7.559 15.585,6.423 C 16.136,5.927 15.931,5.683 15.81,5.413 C 15.688,5.143 15.284,4.822 15.074,5.025 C 14.864,5.228 14.758,5.516 14.526,5.726 C 14.17,6.046 13.07,5.835 13.463,5.482 C 13.685,5.283 14.255,5.05 14.749,4.604 C 15.09,4.297 14.799,3.583 14.6,3.361 C 13.77,2.439 12.826,2.733 12.393,3.11"
         clip-rule="evenodd"
         style="fill:#ffe512;fill-rule:evenodd" />
      <path
         id="path2462"
         d="M 26.303,6.884 C 27.092,6.199 27.641,6.396 27.496,7.231 C 27.351,8.064 26.619,9.056 25.976,8.995 C 25.496,8.948 24.884,8.644 25.496,7.788 C 25.754,7.428 25.889,7.246 26.303,6.884"
         clip-rule="evenodd"
         style="fill:#ffe512;fill-rule:evenodd" />
      <path
         id="path2464"
         d="M 20.529,5.655 C 20.592,5.423 20.835,5.03 20.835,5.03 C 21.179,4.508 21.411,4.242 21.483,3.928 C 21.563,3.58 21.547,3.426 21.547,3.426 C 21.56,3.189 21.567,2.902 21.59,2.713 C 21.619,2.401 21.744,1.901 21.744,1.901 C 21.877,1.341 22.092,1.083 22.092,1.083 C 22.285,0.759 22.586,0.563 22.996,0.563 C 23.602,0.563 24.073,1.04 24.073,1.629 C 24.08,1.784 24.047,1.965 23.932,2.175 C 23.613,2.751 23.511,2.862 23.495,2.888 C 23.007,3.668 23.028,3.601 22.889,4.036 C 22.829,4.2 22.79,4.342 22.822,4.483 C 22.877,4.722 23.075,4.816 23.228,4.825 C 23.289,4.828 23.369,4.818 23.458,4.798 C 23.488,4.791 23.521,4.784 23.555,4.78 C 24.087,4.659 25.018,4.789 25.238,5.604 C 25.258,5.674 25.285,5.776 25.302,5.905 L 25.306,5.982 C 25.349,6.276 25.331,6.782 25.118,7.366 C 25.077,7.46 24.772,8.108 24.518,8.345 L 24.502,8.361 C 24.502,8.361 24.42,8.458 24.301,8.56 C 24.17,8.67 23.983,8.809 23.744,8.914 C 22.526,9.466 20.945,9.022 20.549,7.782 C 20.1,6.643 20.529,5.655 20.529,5.655"
         style="fill:#ffe512" />
      <path
         id="path2466"
         d="M 7.803,4.279 C 6.807,4.786 5.365,5.714 6.503,8.477 C 7.641,11.241 10.215,10.876 11.364,10.325 C 12.465,9.797 13.461,8.835 12.831,7.669 C 12.231,6.562 10.689,7.228 10.336,6.334 C 10.182,5.942 10.984,4.876 10.613,4.373 C 10.24,3.87 8.8,3.771 7.803,4.279"
         clip-rule="evenodd"
         style="fill:#ffe512;fill-rule:evenodd" />
      <path
         id="path2468"
         d="M 29.303,7.928 C 29.127,8.194 29.168,8.733 29.528,8.778 C 29.887,8.825 30.553,8.45 30.288,8.036 C 30.034,7.642 29.572,7.525 29.303,7.928"
         clip-rule="evenodd"
         style="fill:#4e2f91;fill-rule:evenodd" />
      <path
         id="path2470"
         d="M 18.108,4.434 C 18.003,4.755 18.462,5.082 18.807,5.07 C 19.153,5.059 19.565,4.923 19.528,4.474 C 19.468,3.719 18.275,3.935 18.108,4.434"
         clip-rule="evenodd"
         style="fill:#4e2f91;fill-rule:evenodd" />
      <path
         id="path2472"
         d="M 12.515,4.667 C 12.652,4.981 13.252,4.856 13.524,4.578 C 13.796,4.3 14.037,3.878 13.696,3.584 C 13.121,3.088 12.305,4.177 12.515,4.667"
         clip-rule="evenodd"
         style="fill:#4e2f91;fill-rule:evenodd" />
      <path
         id="path2474"
         d="M 24.037,7.199 C 23.709,7.54 22.977,7.909 22.499,7.449 C 22.019,6.992 21.964,5.933 22.47,5.822 C 22.975,5.709 25.014,6.18 24.037,7.199"
         clip-rule="evenodd"
         style="fill:#4e2f91;fill-rule:evenodd" />
      <path
         id="path2476"
         d="M 8.886,6.728 C 9.307,6.244 9.21,5.244 8.689,5.107 C 7.943,4.914 7.384,5.968 7.59,6.312 C 7.796,6.655 8.466,7.21 8.886,6.728"
         clip-rule="evenodd"
         style="fill:#4e2f91;fill-rule:evenodd" />
      <path
         id="path2478"
         d="M 10.801,8.625 C 10.651,9.042 10.165,9.636 9.579,9.427 C 8.993,9.218 8.542,8.332 8.933,8.042 C 9.324,7.752 11.251,7.378 10.801,8.625"
         clip-rule="evenodd"
         style="fill:#4e2f91;fill-rule:evenodd" />
      <path
         id="path2480"
         d="M 18.163,13.346 L 18.163,13.969 L 18.567,13.969 C 18.567,13.969 18.575,13.969 18.588,13.967 C 18.603,13.967 18.621,13.966 18.646,13.965 C 18.689,13.96 18.747,13.952 18.803,13.934 C 18.854,13.915 18.904,13.891 18.942,13.852 C 18.956,13.838 18.967,13.824 18.978,13.809 C 19.01,13.757 19.018,13.707 19.019,13.678 C 19.02,13.665 19.02,13.658 19.02,13.658 L 19.02,13.642 C 19.02,13.629 19.018,13.607 19.012,13.582 C 19.004,13.552 18.99,13.517 18.965,13.486 C 18.959,13.479 18.953,13.473 18.948,13.467 C 18.937,13.456 18.926,13.446 18.912,13.436 C 18.891,13.419 18.864,13.406 18.838,13.395 C 18.801,13.378 18.76,13.368 18.715,13.359 C 18.693,13.354 18.668,13.35 18.644,13.348 C 18.627,13.348 18.613,13.346 18.596,13.344 L 18.553,13.344 C 18.411,13.346 18.163,13.346 18.163,13.346" />
      <path
         id="path2482"
         d="M 18.163,12.397 L 18.163,12.987 L 18.359,12.987 L 18.389,12.987 C 18.403,12.987 18.42,12.987 18.432,12.985 C 18.473,12.983 18.529,12.977 18.584,12.962 C 18.596,12.958 18.606,12.956 18.617,12.952 C 18.661,12.935 18.703,12.913 18.735,12.881 C 18.761,12.856 18.778,12.827 18.791,12.8 C 18.803,12.766 18.809,12.734 18.811,12.711 C 18.813,12.69 18.813,12.677 18.813,12.677 C 18.813,12.677 18.813,12.668 18.813,12.654 C 18.811,12.627 18.805,12.586 18.786,12.546 C 18.776,12.525 18.763,12.508 18.744,12.49 C 18.722,12.468 18.695,12.451 18.667,12.438 C 18.612,12.414 18.548,12.404 18.495,12.4 C 18.474,12.398 18.451,12.398 18.432,12.398 L 18.163,12.398" />
      <path
         id="path2484"
         d="M 14.278,13.346 L 14.278,13.969 L 14.683,13.969 C 14.683,13.969 14.691,13.969 14.704,13.967 C 14.718,13.967 14.736,13.966 14.761,13.965 C 14.805,13.96 14.862,13.952 14.919,13.934 C 14.969,13.915 15.018,13.891 15.055,13.852 C 15.071,13.838 15.083,13.824 15.092,13.809 C 15.124,13.757 15.133,13.707 15.135,13.678 L 15.135,13.658 L 15.135,13.642 C 15.135,13.629 15.134,13.607 15.127,13.582 C 15.119,13.552 15.105,13.517 15.079,13.486 C 15.075,13.479 15.069,13.473 15.064,13.467 C 15.053,13.456 15.041,13.446 15.028,13.436 C 15.005,13.419 14.98,13.406 14.953,13.395 C 14.916,13.378 14.875,13.368 14.83,13.359 C 14.808,13.354 14.784,13.35 14.759,13.348 C 14.743,13.348 14.728,13.346 14.712,13.344 L 14.669,13.344 C 14.526,13.346 14.278,13.346 14.278,13.346" />
      <path
         id="path2486"
         d="M 14.278,12.397 L 14.278,12.987 L 14.474,12.987 L 14.504,12.987 C 14.517,12.987 14.535,12.987 14.548,12.985 C 14.589,12.983 14.644,12.977 14.7,12.962 C 14.711,12.958 14.722,12.956 14.733,12.952 C 14.776,12.935 14.819,12.913 14.851,12.881 C 14.877,12.856 14.895,12.827 14.905,12.8 C 14.92,12.766 14.925,12.734 14.926,12.711 C 14.928,12.69 14.928,12.677 14.928,12.677 C 14.928,12.677 14.928,12.668 14.928,12.654 C 14.926,12.627 14.921,12.586 14.901,12.546 C 14.89,12.525 14.877,12.508 14.859,12.49 C 14.837,12.468 14.81,12.451 14.782,12.438 C 14.727,12.414 14.663,12.404 14.61,12.4 C 14.587,12.398 14.566,12.398 14.548,12.398 L 14.278,12.398" />
    </g>
  </g>
</svg>
