<?xml version="1.0" encoding="UTF-8" standalone="no"?>
<!-- Created with Inkscape (http://www.inkscape.org/) -->

<svg
   xmlns:dc="http://purl.org/dc/elements/1.1/"
   xmlns:cc="http://creativecommons.org/ns#"
   xmlns:rdf="http://www.w3.org/1999/02/22-rdf-syntax-ns#"
   xmlns:svg="http://www.w3.org/2000/svg"
   xmlns="http://www.w3.org/2000/svg"
   xmlns:xlink="http://www.w3.org/1999/xlink"
   xmlns:sodipodi="http://sodipodi.sourceforge.net/DTD/sodipodi-0.dtd"
   xmlns:inkscape="http://www.inkscape.org/namespaces/inkscape"
   width="330.74536"
   height="197.99994"
   id="svg2"
   version="1.1"
   inkscape:version="0.48.4 r9939"
   sodipodi:docname="tv.channel5hd.svg">
  <defs
     id="defs4">
    <linearGradient
       id="linearGradient2933">
      <stop
         style="stop-color: rgb(204, 29, 60); stop-opacity: 1;"
         offset="0"
         id="stop2935" />
      <stop
         id="stop2957"
         offset="0.1"
         style="stop-color: rgb(205, 30, 59); stop-opacity: 1;" />
      <stop
         id="stop2955"
         offset="0.2"
         style="stop-color: rgb(200, 30, 59); stop-opacity: 1;" />
      <stop
         id="stop2953"
         offset="0.30000001"
         style="stop-color: rgb(198, 29, 58); stop-opacity: 1;" />
      <stop
         id="stop2951"
         offset="0.39746094"
         style="stop-color: rgb(196, 29, 56); stop-opacity: 1;" />
      <stop
         id="stop2949"
         offset="0.5"
         style="stop-color: rgb(192, 29, 56); stop-opacity: 1;" />
      <stop
         id="stop2947"
         offset="0.60000002"
         style="stop-color: rgb(185, 27, 55); stop-opacity: 1;" />
      <stop
         id="stop2945"
         offset="0.69999999"
         style="stop-color: rgb(178, 23, 54); stop-opacity: 1;" />
      <stop
         id="stop2943"
         offset="0.80000001"
         style="stop-color: rgb(165, 23, 49); stop-opacity: 1;" />
      <stop
         id="stop2941"
         offset="0.89999998"
         style="stop-color: rgb(147, 17, 41); stop-opacity: 1;" />
      <stop
         style="stop-color: rgb(127, 1, 32); stop-opacity: 1;"
         offset="1"
         id="stop2937" />
    </linearGradient>
    <inkscape:perspective
       sodipodi:type="inkscape:persp3d"
       inkscape:vp_x="0 : 526.18109 : 1"
       inkscape:vp_y="0 : 1000 : 0"
       inkscape:vp_z="744.09448 : 526.18109 : 1"
       inkscape:persp3d-origin="372.04724 : 350.78739 : 1"
       id="perspective10" />
    <inkscape:perspective
       id="perspective2824"
       inkscape:persp3d-origin="0.5 : 0.33333333 : 1"
       inkscape:vp_z="1 : 0.5 : 1"
       inkscape:vp_y="0 : 1000 : 0"
       inkscape:vp_x="0 : 0.5 : 1"
       sodipodi:type="inkscape:persp3d" />
    <radialGradient
       inkscape:collect="always"
       xlink:href="#linearGradient2933"
       id="radialGradient2939"
       cx="398.77048"
       cy="184.7032"
       fx="398.77048"
       fy="184.7032"
       r="34"
       gradientUnits="userSpaceOnUse"
       gradientTransform="matrix(-1,-1.06286e-5,-3.26933e-7,-1,802,364.729)" />
    <radialGradient
       inkscape:collect="always"
       xlink:href="#linearGradient2933"
       id="radialGradient2970"
       gradientUnits="userSpaceOnUse"
       gradientTransform="matrix(-1,-1.06286e-5,-3.26933e-7,-1,802,364.729)"
       cx="398.77048"
       cy="184.7032"
       fx="398.77048"
       fy="184.7032"
       r="34" />
    <inkscape:perspective
       id="perspective2846"
       inkscape:persp3d-origin="0.5 : 0.33333333 : 1"
       inkscape:vp_z="1 : 0.5 : 1"
       inkscape:vp_y="0 : 1000 : 0"
       inkscape:vp_x="0 : 0.5 : 1"
       sodipodi:type="inkscape:persp3d" />
    <inkscape:perspective
       id="perspective2860"
       inkscape:persp3d-origin="0.5 : 0.33333333 : 1"
       inkscape:vp_z="1 : 0.5 : 1"
       inkscape:vp_y="0 : 1000 : 0"
       inkscape:vp_x="0 : 0.5 : 1"
       sodipodi:type="inkscape:persp3d" />
  </defs>
  <sodipodi:namedview
     id="base"
     pagecolor="#ffffff"
     bordercolor="#666666"
     borderopacity="1.0"
     inkscape:pageopacity="0.0"
     inkscape:pageshadow="2"
     inkscape:zoom="3.0049081"
     inkscape:cx="194.91862"
     inkscape:cy="106.55642"
     inkscape:document-units="px"
     inkscape:current-layer="layer1"
     showgrid="false"
     inkscape:window-width="1600"
     inkscape:window-height="837"
     inkscape:window-x="-8"
     inkscape:window-y="-8"
     inkscape:window-maximized="1"
     fit-margin-top="0"
     fit-margin-left="0"
     fit-margin-right="0"
     fit-margin-bottom="0">
    <inkscape:grid
       type="xygrid"
       id="grid2830"
       empspacing="5"
       visible="true"
       enabled="true"
       snapvisiblegridlinesonly="true"
       originx="-208.5975px"
       originy="-67.380075px" />
  </sodipodi:namedview>
  <metadata
     id="metadata7">
    <rdf:RDF>
      <cc:Work
         rdf:about="">
        <dc:format>image/svg+xml</dc:format>
        <dc:type
           rdf:resource="http://purl.org/dc/dcmitype/StillImage" />
        <dc:title />
      </cc:Work>
    </rdf:RDF>
  </metadata>
  <g
     inkscape:label="Layer 1"
     inkscape:groupmode="layer"
     id="layer1"
     transform="translate(-1516.0027,-599.36382)">
    <path
       transform="matrix(2.9117638,0,0,2.9117638,447.38541,167.36819)"
       d="m 435,182.36218 c 0,18.77768 -15.22232,34 -34,34 -18.77768,0 -34,-15.22232 -34,-34 0,-18.77768 15.22232,-34 34,-34 18.77768,0 34,15.22232 34,34 z"
       sodipodi:ry="34"
       sodipodi:rx="34"
       sodipodi:cy="182.36218"
       sodipodi:cx="401"
       id="path2924"
       style="fill:#c81e3b;fill-opacity:1;fill-rule:nonzero;stroke:none"
       sodipodi:type="arc" />
    <path
       sodipodi:nodetypes="cccccccccccccccc"
       id="path2922"
       d="m 1666.5846,665.41738 0,-33.63469 -92.5992,0 -13.703,78.8962 36.1262,0 c 0,0 3.5784,-8.72011 19.1011,-8.72011 11.0391,0 19.1012,6.55259 19.1012,18.2707 0,11.79767 -9.014,18.68595 -20.347,18.68595 -19.1253,0 -20.3469,-13.70303 -20.3469,-13.70303 l -38.2024,0 c 0,24.97537 16.3689,44.84626 57.7188,44.84626 39.7246,0 60.2104,-20.64418 60.2104,-48.1682 0,-25.91009 -13.8442,-46.50724 -44.8463,-46.50724 -20.1083,0 -28.6518,8.30487 -28.6518,8.30487 l 3.7372,-18.27071 62.7017,0 z"
       style="fill:#ffffff;stroke:none"
       inkscape:connector-curvature="0" />
    <g
       style="font-size:93.92905426px;font-style:normal;font-weight:bold;line-height:125%;letter-spacing:0px;word-spacing:0px;fill:#c81e3b;fill-opacity:1;stroke:none;font-family:Sans;-inkscape-font-specification:Sans Bold"
       id="text3003">
      <path
         d="m 1722.5948,731.98016 0,-67.23632 13.5757,0 0,26.46341 26.601,0 0,-26.46341 13.5756,0 0,67.23632 -13.5756,0 0,-29.39869 -26.601,0 0,29.39869 z"
         style=""
         id="path3006" />
      <path
         d="m 1790.3815,664.74384 24.8123,0 c 5.5953,7e-5 9.8607,0.42813 12.796,1.28418 3.9442,1.16195 7.3229,3.22582 10.1359,6.19162 2.8129,2.96591 4.9532,6.59679 6.4209,10.89265 1.4676,4.29595 2.2014,9.59322 2.2015,15.8918 -10e-5,5.53426 -0.688,10.30409 -2.0639,14.30951 -1.6817,4.89215 -4.0819,8.85172 -7.2006,11.87872 -2.3544,2.2932 -5.5343,4.08188 -9.5397,5.36607 -2.9965,0.94785 -7.0019,1.42177 -12.0163,1.42177 l -25.5461,0 z m 13.5757,11.37422 0,44.53375 10.1359,0 c 3.7913,1e-5 6.5279,-0.21402 8.2096,-0.6421 2.2014,-0.55035 4.0283,-1.48291 5.4807,-2.79769 1.4523,-1.31474 2.6371,-3.47799 3.5544,-6.48973 0.9173,-3.01169 1.3759,-7.1165 1.376,-12.31443 -10e-5,-5.19785 -0.4587,-9.188 -1.376,-11.97045 -0.9173,-2.78235 -2.2015,-4.95324 -3.8525,-6.51265 -1.6512,-1.55932 -3.7456,-2.61419 -6.2834,-3.16461 -1.8957,-0.428 -5.6107,-0.64203 -11.1449,-0.64209 z"
         style=""
         id="path3008" />
    </g>
  </g>
</svg>
