<?xml version="1.0" encoding="UTF-8" standalone="no"?>
<svg
   xmlns:dc="http://purl.org/dc/elements/1.1/"
   xmlns:cc="http://creativecommons.org/ns#"
   xmlns:rdf="http://www.w3.org/1999/02/22-rdf-syntax-ns#"
   xmlns:svg="http://www.w3.org/2000/svg"
   xmlns="http://www.w3.org/2000/svg"
   xmlns:sodipodi="http://sodipodi.sourceforge.net/DTD/sodipodi-0.dtd"
   xmlns:inkscape="http://www.inkscape.org/namespaces/inkscape"
   version="1.1"
   id="Layer_1"
   x="0px"
   y="0px"
   width="766"
   height="300"
   viewBox="0 0 765.99999 299.99999"
   enable-background="new 0 0 841.89 595.275"
   xml:space="preserve">
<path
   style="fill:#c8265d"
   d="M 41.91878,-4.2144e-6 C 18.755037,-4.2144e-6 -1.6128e-6,18.777897 -1.6128e-6,41.929607 V 258.10168 c 0,23.1505 18.7538356128,41.89712 41.9187816128,41.89712 H 352.07541 V -4.2144e-6 H 41.91878 z"
   id="path236" /><path
   style="fill:#39a0a7"
   d="M 351.75174,-4.2144e-6 351.85161,300 h 176.54066 162.97764 32.70431 c 23.13606,0 41.926,-18.74661 41.926,-41.89712 V 41.929607 c 0,-23.15171 -18.78994,-41.9296112144 -41.926,-41.9296112144 H 351.75174 z"
   id="path238" /><path
   style="fill:#ffffff"
   id="path242"
   d="m 100.52662,163.91497 c -13.016743,-2.37401 -21.687354,4.63973 -21.687354,15.95749 v 46.13737 H 58.38885 v -46.13737 c 0,-22.63432 15.65908,-38.45945 42.13777,-35.19984 v 19.24235 z" /><path
   style="fill:#ffffff"
   id="path244"
   d="m 124.69508,194.42455 c 2.63271,9.76797 10.39246,15.80708 19.98716,15.80708 6.814,0 13.48361,-2.9263 16.90084,-9.2578 h 21.83054 c -4.63973,16.2583 -18.72857,27.24516 -38.58699,27.24516 -22.46224,0 -40.92249,-18.61065 -40.92249,-41.68174 0,-23.11561 18.46025,-42.00782 40.92249,-42.00782 23.57285,0 43.10158,18.27494 40.13316,49.89512 h -60.26471 z m 39.98877,-16.72516 c -2.49554,-9.27946 -10.25529,-15.15372 -20.00281,-15.15372 -9.30111,0 -16.742,5.87426 -19.66469,15.15372 h 39.6675 z" /><path
   style="fill:#ffffff"
   id="path246"
   d="m 275.76056,226.35997 h -19.52873 v -8.519 c -6.1859,6.49634 -14.70972,10.23363 -24.47047,10.23363 -20.76928,0 -37.97453,-17.98616 -37.97453,-41.53735 0,-23.73288 17.20525,-41.69498 37.97453,-41.69498 9.76075,0 18.28457,3.73609 24.47047,10.23243 v -8.5178 h 19.52873 v 79.80307 z m -40.90444,-62.60263 c -11.31656,0 -20.45764,9.91838 -20.45764,22.94235 0,12.67984 9.14108,22.45503 20.45764,22.45503 11.31294,0 20.45763,-10.03389 20.45763,-22.45503 0,-12.70751 -9.14349,-22.94235 -20.45763,-22.94235 z" /><path
   style="fill:#ffffff"
   id="path248"
   d="M 309.36369,226.35997 H 288.89161 V 111.04783 h 20.47208 v 115.31214 z" /><path
   style="fill:#ffffff"
   id="path252"
   d="m 433.78924,223.52031 c -23.39356,2.47388 -35.79425,-11.61136 -35.79425,-33.47078 v -28.04171 h -9.60553 V 143.8508 h 9.60553 v -20.27836 h 20.45403 v 20.27836 h 15.37993 v 18.15702 h -15.37993 v 28.17046 c 0,11.16615 5.1102,15.34744 15.34022,14.73017 v 18.61186 z" /><rect
   style="fill:#ffffff"
   id="rect254"
   height="79.84037"
   width="20.468466"
   y="143.85078"
   x="446.69168" /><path
   style="fill:#ffffff"
   id="path256"
   d="m 602.51962,223.69237 h -20.47208 v -46.67402 c 0,-4.61085 -1.54617,-15.79144 -14.87095,-15.79144 -9.14951,0 -15.50507,6.82724 -15.50507,15.79144 v 46.67402 h -20.59721 v -46.67402 c 0,-4.61085 -1.39095,-15.79144 -14.89983,-15.79144 -8.97142,0 -15.32939,6.82724 -15.32939,15.79144 v 46.67402 H 480.24186 V 143.852 h 19.67793 v 7.75614 c 4.95619,-6.04271 11.92661,-9.75353 20.61166,-9.75353 9.92559,0 18.27734,4.21016 23.87125,11.30572 5.72024,-6.97643 14.08523,-11.30572 24.32367,-11.30572 21.38534,0 33.79325,14.25248 33.79325,35.16494 v 46.67282 z" /><path
   style="fill:#ffffff"
   id="path258"
   d="m 632.16045,191.75694 c 2.63872,9.75234 10.36959,15.82032 19.99438,15.82032 6.8128,0 13.47519,-2.97684 16.89001,-9.32277 h 21.8522 c -4.64695,16.29319 -18.75504,27.26562 -38.57736,27.26562 -22.47669,0 -40.93573,-18.589 -40.93573,-41.67453 0,-23.07951 18.46024,-41.99218 40.93573,-41.99218 23.53073,0 43.07269,18.2966 40.1115,49.90354 H 632.16045 z M 672.142,175.02577 c -2.49554,-9.30954 -10.23363,-15.18259 -19.98717,-15.18259 -9.30833,0 -16.73478,5.87305 -19.68274,15.18259 H 672.142 z" /><path
   style="fill:#ffffff"
   id="path260"
   d="m 468.61246,125.52772 c 0,6.51921 -5.28948,11.75093 -11.77619,11.75093 -6.5156,0 -11.79425,-5.23172 -11.79425,-11.75093 0,-6.5192 5.27865,-11.7798 11.79425,-11.7798 6.48671,0 11.77619,5.2606 11.77619,11.7798 z" /><path
   d="m 694.46106,127.09435 v 16.70591 h -3.8504 v -16.70591 h -5.45071 v -3.61456 h 14.74461 v 3.61456 h -5.4435 z"
   id="path264"
   style="fill:#ffffff" /><path
   d="m 722.22964,143.80026 h -3.80107 v -14.92029 l -4.11631,14.92029 h -4.11632 l -4.13797,-14.92029 v 14.92029 h -3.8155 v -20.32167 h 5.73829 l 4.24506,15.20425 4.24507,-15.20425 h 5.75875 v 20.32167 z"
   id="path266"
   style="fill:#ffffff" /><path
   style="fill:#ffffff"
   id="path270"
   d="m 82.120526,97.849391 h -5.957285 v -2.60022 c -1.938434,1.98536 -4.491728,3.120024 -7.469769,3.120024 -6.335105,0 -11.582473,-5.484408 -11.582473,-12.67021 0,-7.233932 5.247368,-12.71834 11.582473,-12.71834 2.836058,0 5.294295,1.04081 7.185802,2.837261 V 62.674819 h 6.241252 V 97.849391 z M 69.639226,78.74902 c -3.450918,0 -6.241252,3.026171 -6.241252,6.996892 0,3.876867 2.789131,6.854908 6.241252,6.854908 3.452121,0 6.241251,-3.073097 6.241251,-6.854908 -0.0012,-3.875665 -2.790334,-6.996892 -6.241251,-6.996892 z" /><path
   style="fill:#ffffff"
   id="path272"
   d="M 93.759551,70.853301 H 87.519503 V 65.038 h 6.240048 v 5.815301 z m 0,26.99609 H 87.519503 V 73.501652 h 6.240048 v 24.347739 z" /><path
   style="fill:#ffffff"
   id="path274"
   d="m 109.06969,98.417325 c -6.19312,0 -10.778704,-3.262008 -11.535547,-8.510579 h 6.335107 c 0.85069,2.080417 3.35706,2.836058 5.20044,2.836058 2.50637,0 4.39667,-0.755641 4.39667,-2.174271 0,-1.371704 -0.8519,-1.938434 -5.10659,-2.600221 -4.34974,-0.661787 -10.165044,-1.843377 -10.165044,-7.280858 0,-3.829941 3.357064,-7.800662 10.400884,-7.800662 5.57946,0 9.73909,3.026171 10.54287,7.611752 h -6.47709 c -0.37782,-1.134664 -1.74953,-2.032287 -4.06578,-2.032287 -2.88299,0 -4.06578,1.039606 -4.06578,1.938433 0,1.276647 1.79645,1.702597 4.82262,2.175474 6.05114,0.99268 10.40089,2.316254 10.40089,7.611752 0.001,4.821418 -4.4424,8.225409 -10.68365,8.225409 z" /><path
   style="fill:#ffffff"
   id="path276"
   d="m 134.71694,98.417325 c -7.32779,0 -12.57636,-5.673318 -12.57636,-12.717137 0,-7.043818 5.24737,-12.812193 12.57636,-12.812193 5.86223,0 10.30582,3.308934 11.72445,8.794546 h -6.66599 c -0.8519,-1.654468 -2.78914,-3.073098 -5.05846,-3.073098 -3.45092,0 -6.24125,3.215081 -6.24125,7.138875 0,3.829941 2.78913,6.996892 6.24125,6.996892 2.31625,0 4.30161,-1.41863 5.10538,-3.120024 h 6.666 c -1.41863,5.528928 -5.86223,8.792139 -11.77138,8.792139 z" /><path
   style="fill:#ffffff"
   id="path278"
   d="m 173.22331,85.698985 c 0,7.280859 -5.53134,12.717137 -12.29239,12.717137 -6.76106,0 -12.24426,-5.437482 -12.24426,-12.717137 0,-7.280858 5.4844,-12.812193 12.24426,-12.812193 6.75985,0 12.29239,5.531335 12.29239,12.812193 z m -6.28698,0.04693 c 0,-4.207761 -2.69528,-7.138875 -6.00421,-7.138875 -3.30894,0 -6.00421,2.931114 -6.00421,7.138875 0,4.112704 2.69527,6.949965 6.00421,6.949965 3.30893,0 6.00421,-2.836058 6.00421,-6.949965 z" /><path
   style="fill:#ffffff"
   id="path280"
   d="m 189.259,97.849391 h -6.71292 l -9.2193,-24.347739 h 6.52402 l 6.05114,18.154618 6.09927,-18.154618 h 6.42895 L 189.259,97.849391 z" /><path
   style="fill:#ffffff"
   id="path282"
   d="m 204.84589,88.110296 c 0.80377,2.979244 3.16695,4.822621 6.09806,4.822621 2.08042,0 4.11271,-0.898827 5.15352,-2.836058 h 6.6672 c -1.41863,4.963402 -5.72025,8.321669 -11.77259,8.321669 -6.85491,0 -12.4813,-5.673318 -12.4813,-12.717136 0,-7.043819 5.62639,-12.812194 12.4813,-12.812194 7.1858,0 13.14309,5.579465 12.24426,15.223504 h -18.39045 z m 12.19733,-5.105385 c -0.75684,-2.836057 -3.12002,-4.633711 -6.09927,-4.633711 -2.83606,0 -5.10538,1.79645 -6.00421,4.633711 h 12.10348 z" /><path
   style="fill:#ffffff"
   id="path284"
   d="m 248.91247,84.848288 h -6.24125 v -1.228517 c 0,-1.41863 -0.42595,-4.822621 -4.53866,-4.822621 -2.78913,0 -4.72756,2.080417 -4.72756,4.822621 v 14.230824 h -6.24125 v -24.34774 h 5.95728 v 2.363181 c 1.56061,-1.843377 3.68796,-2.979244 6.28818,-2.979244 5.72024,0 9.50205,4.302818 9.50205,10.731776 v 1.22972 z" /><path
   style="fill:#ffffff"
   id="path286"
   d="m 273.70902,98.842072 c 0,6.570938 -4.30282,10.920688 -10.82683,10.920688 -5.34243,0 -9.7391,-3.49905 -10.5898,-8.50938 h 6.47709 c 0.37782,1.79645 1.98536,2.69408 4.11271,2.69408 3.40399,0 4.58558,-2.41011 4.58558,-4.680641 v -2.836058 c -1.46556,1.228517 -3.35707,1.985361 -5.57826,1.985361 -5.95729,0 -9.92801,-4.302818 -9.92801,-10.68485 V 73.500449 h 6.24125 v 14.230823 c 0,1.370501 0.47288,4.774492 4.53866,4.774492 2.78913,0 4.72756,-2.032288 4.72756,-4.774492 V 73.500449 h 6.24125 v 25.341623 z" />
</svg>