<?xml version="1.0" encoding="UTF-8" standalone="no"?>
<svg
   xmlns:dc="http://purl.org/dc/elements/1.1/"
   xmlns:cc="http://creativecommons.org/ns#"
   xmlns:rdf="http://www.w3.org/1999/02/22-rdf-syntax-ns#"
   xmlns:svg="http://www.w3.org/2000/svg"
   xmlns="http://www.w3.org/2000/svg"
   xmlns:sodipodi="http://sodipodi.sourceforge.net/DTD/sodipodi-0.dtd"
   xmlns:inkscape="http://www.inkscape.org/namespaces/inkscape"
   width="746pt"
   height="424pt"
   viewBox="0 0 746 424"
   version="1.1"
   id="svg2"
   inkscape:version="0.48.4 r9939"
   sodipodi:docname="Disney_XD_HD.svg">
  <metadata
     id="metadata47">
    <rdf:RDF>
      <cc:Work
         rdf:about="">
        <dc:format>image/svg+xml</dc:format>
        <dc:type
           rdf:resource="http://purl.org/dc/dcmitype/StillImage" />
        <dc:title></dc:title>
      </cc:Work>
    </rdf:RDF>
  </metadata>
  <defs
     id="defs45" />
  <sodipodi:namedview
     pagecolor="#ffffff"
     bordercolor="#666666"
     borderopacity="1"
     objecttolerance="10"
     gridtolerance="10"
     guidetolerance="10"
     inkscape:pageopacity="0"
     inkscape:pageshadow="2"
     inkscape:window-width="1600"
     inkscape:window-height="837"
     id="namedview43"
     showgrid="false"
     inkscape:zoom="0.37855228"
     inkscape:cx="466.25"
     inkscape:cy="265"
     inkscape:window-x="-8"
     inkscape:window-y="-8"
     inkscape:window-maximized="1"
     inkscape:current-layer="svg2" />
  <g
     id="#ffffffff" />
  <g
     id="#00264cff">
    <path
       fill="#00264c"
       opacity="1.00"
       d=" M 22.04 5.60 C 29.90 3.89 37.97 3.38 45.99 2.98 C 64.49 3.58 82.90 8.02 99.50 16.29 C 108.94 20.80 118.08 26.12 126.11 32.87 C 133.12 19.73 148.19 11.64 163.02 12.68 C 169.54 12.68 174.79 16.93 180.54 19.34 C 185.70 21.51 189.79 26.25 190.69 31.84 C 192.18 37.98 190.44 44.47 187.18 49.74 C 194.93 49.66 203.10 49.78 210.04 53.71 C 212.50 53.46 214.98 53.35 217.46 53.43 C 219.81 48.60 224.23 44.32 229.94 44.43 C 236.70 43.86 242.04 48.66 246.18 53.37 C 253.93 51.50 261.89 50.88 269.82 50.33 C 276.00 49.14 282.26 51.22 287.46 54.51 C 290.34 51.84 293.91 49.40 298.02 49.61 C 302.33 49.38 306.24 51.65 309.01 54.80 C 312.55 53.85 316.31 52.37 319.96 53.63 C 324.17 54.65 327.45 57.72 330.44 60.69 C 344.73 75.06 359.12 89.34 373.43 103.71 C 468.94 103.65 564.45 103.71 659.96 103.68 C 664.29 103.67 668.75 103.38 672.90 104.90 C 678.33 106.64 682.07 111.16 685.97 115.04 C 702.98 132.00 719.92 149.01 736.96 165.93 C 740.76 169.98 743.13 175.45 743.01 181.05 C 742.97 236.06 743.04 291.07 742.98 346.08 C 742.85 353.85 737.42 359.97 731.90 364.81 C 716.18 380.77 700.20 396.47 684.42 412.37 C 679.92 417.33 674.10 421.81 667.12 421.98 C 568.74 422.03 470.37 421.98 371.99 422.00 C 368.37 421.96 364.71 422.24 361.13 421.57 C 356.73 420.85 352.81 418.36 349.66 415.30 C 334.72 400.29 319.66 385.39 304.72 370.39 C 290.70 384.47 276.60 398.46 262.57 412.53 C 257.96 418.06 251.45 422.36 243.98 422.01 C 216.64 421.97 189.30 422.03 161.97 421.98 C 153.08 421.98 145.22 413.88 145.46 405.02 C 145.47 377.66 145.46 350.31 145.46 322.96 C 145.44 317.36 147.94 311.85 152.02 308.04 C 167.07 292.99 182.11 277.94 197.17 262.92 C 142.16 207.94 87.14 152.97 32.11 98.00 C 27.16 93.10 22.70 87.09 21.75 80.00 C 20.89 73.53 24.30 67.06 29.42 63.25 C 35.92 58.07 43.80 55.08 51.76 52.98 C 52.59 47.56 53.61 42.15 56.16 37.23 C 49.19 35.80 42.07 34.99 34.95 35.30 C 33.11 36.74 31.66 38.65 29.64 39.87 C 25.44 41.92 20.58 41.91 16.04 41.32 C 8.69 40.33 2.87 33.32 3.03 25.94 C 4.08 15.96 12.36 7.62 22.04 5.60 M 18.26 20.30 C 16.70 21.97 15.00 24.10 15.47 26.54 C 17.72 29.39 22.31 29.03 25.10 27.19 C 23.97 26.14 22.80 25.14 21.58 24.18 C 25.35 22.07 29.83 22.52 33.99 22.06 C 55.13 21.63 76.08 27.54 94.69 37.39 C 105.23 43.25 115.43 50.35 122.74 60.08 C 127.76 66.62 131.21 75.69 127.86 83.75 C 125.35 90.68 118.40 94.61 111.88 97.09 C 100.25 100.96 87.56 101.34 75.56 99.15 C 74.97 90.03 75.00 80.91 74.66 71.78 C 80.10 71.64 85.57 71.91 90.91 73.00 C 95.13 73.92 99.66 74.60 103.11 77.43 C 103.05 80.12 98.15 81.69 99.88 84.15 C 105.64 86.62 112.25 82.07 112.39 75.95 C 111.83 70.50 106.89 66.91 102.21 64.95 C 93.41 61.80 83.93 61.14 74.65 61.22 C 73.73 54.24 74.65 45.82 68.93 40.66 C 67.61 42.09 66.02 43.45 65.57 45.44 C 64.04 50.83 64.01 56.49 63.40 62.02 C 54.53 63.82 45.35 65.86 37.86 71.23 C 35.98 72.61 33.85 74.38 33.96 76.97 C 33.72 79.69 35.45 81.97 36.96 84.04 C 43.83 92.60 53.13 98.92 63.12 103.31 C 63.37 106.20 64.07 109.02 65.28 111.65 C 67.10 112.31 68.92 113.73 70.96 113.08 C 73.80 112.92 74.81 109.90 75.54 107.65 C 93.30 111.69 113.50 110.65 128.74 99.77 C 137.56 93.85 143.63 82.88 141.51 72.14 C 139.05 62.16 132.29 53.97 125.09 46.93 C 113.54 36.52 100.09 28.16 85.56 22.60 C 69.04 15.67 50.72 13.03 32.93 15.25 C 27.86 15.99 21.81 16.01 18.26 20.30 M 152.91 24.97 C 145.75 27.01 139.23 32.18 136.25 39.07 C 134.38 43.12 136.22 47.42 138.22 51.02 C 138.56 52.84 138.91 54.65 139.28 56.47 C 140.22 56.94 141.15 57.41 142.09 57.88 C 143.32 57.09 144.55 56.28 145.76 55.46 C 154.15 57.26 162.97 55.18 169.56 49.69 C 173.95 45.85 179.54 41.42 179.06 34.93 C 179.30 30.69 174.82 28.84 171.43 27.90 C 166.37 23.40 159.13 23.07 152.91 24.97 M 229.00 57.90 C 229.49 68.13 236.59 77.71 234.26 88.08 C 227.73 80.21 223.50 70.25 215.07 64.08 C 214.17 64.55 213.28 65.02 212.38 65.48 C 207.69 75.16 206.11 86.21 206.57 96.87 C 206.51 100.45 211.23 104.42 214.08 101.02 C 217.35 94.14 214.84 86.18 217.19 79.04 C 222.57 85.58 225.86 93.85 232.43 99.40 C 235.00 101.61 238.69 99.76 240.59 97.53 C 245.30 91.85 245.62 83.83 243.80 76.97 C 241.54 68.67 238.29 59.80 230.75 54.88 C 229.86 55.74 229.27 56.75 229.00 57.90 M 166.18 65.30 C 161.63 67.67 158.10 74.50 162.25 78.79 C 167.01 82.60 173.52 80.23 179.05 81.23 C 185.15 82.31 191.78 82.70 197.03 86.36 C 197.21 89.48 193.39 90.49 191.05 91.39 C 183.84 93.38 176.14 94.61 168.69 93.31 C 167.52 91.68 166.86 89.02 169.25 88.09 C 172.82 86.94 176.16 89.35 179.47 90.35 C 183.89 92.13 189.38 91.53 192.70 87.89 C 191.35 86.50 189.98 84.89 187.97 84.48 C 182.02 83.29 175.94 82.53 169.87 83.09 C 165.30 83.62 161.60 88.93 163.71 93.29 C 166.56 99.05 173.16 101.64 179.19 102.41 C 186.08 103.03 193.79 103.01 199.54 98.60 C 203.97 95.40 205.96 89.07 203.65 84.02 C 201.64 79.62 196.70 77.58 192.21 76.79 C 184.83 75.67 177.28 75.69 170.00 73.92 C 171.94 70.88 175.94 71.23 179.06 70.80 C 187.21 69.93 195.60 70.34 203.46 67.71 C 204.01 66.70 204.57 65.70 205.13 64.70 C 202.83 62.12 199.36 61.29 196.03 61.25 C 186.00 61.00 175.38 60.60 166.18 65.30 M 262.95 62.18 C 257.85 62.74 252.16 62.32 247.86 65.58 C 248.41 66.59 248.97 67.59 249.53 68.60 C 251.39 69.52 253.26 70.43 255.13 71.33 C 254.74 73.10 254.32 74.86 253.92 76.62 C 251.89 77.66 249.94 78.88 248.29 80.47 C 251.13 85.96 245.03 91.23 246.90 96.85 C 247.90 101.20 251.04 105.78 256.01 105.60 C 264.12 105.13 272.38 101.85 278.07 95.97 C 277.87 93.44 275.62 91.16 273.03 91.22 C 267.79 91.45 262.70 92.95 257.48 93.35 C 257.88 90.52 257.81 87.14 260.13 85.08 C 264.71 84.07 269.49 85.21 274.06 84.25 C 276.73 83.06 275.73 79.86 274.52 77.95 C 270.59 78.13 266.64 78.01 262.77 77.22 C 263.04 75.48 263.36 73.76 263.73 72.04 C 268.82 71.36 273.95 71.02 279.08 70.77 C 281.10 70.80 282.55 69.17 284.16 68.20 C 282.68 66.00 281.22 63.47 278.58 62.52 C 273.63 60.07 268.14 62.24 262.95 62.18 M 297.43 61.31 C 290.74 67.15 285.66 75.33 283.87 84.07 C 282.59 88.44 284.79 92.64 285.28 96.91 C 282.37 108.45 277.98 119.88 277.79 131.91 C 278.58 136.42 282.37 141.85 287.51 141.10 C 289.35 128.69 293.97 116.96 297.18 104.88 C 305.01 105.08 312.39 101.22 317.78 95.74 C 321.50 91.97 324.87 87.48 325.74 82.13 C 326.56 76.75 325.65 70.64 321.67 66.65 C 319.54 65.06 316.61 63.38 314.05 65.10 C 304.80 70.10 298.53 78.88 291.53 86.45 C 290.45 78.30 297.92 72.45 299.92 65.06 C 300.35 63.47 299.73 59.74 297.43 61.31 M 150.36 61.51 C 146.46 66.85 147.00 73.78 146.39 80.04 C 146.50 86.88 145.42 94.00 147.65 100.62 C 149.12 103.63 152.91 103.87 155.73 102.83 C 157.33 98.03 156.78 92.91 156.79 87.94 C 156.64 80.28 156.50 72.49 154.61 65.03 C 154.21 62.96 152.08 62.20 150.36 61.51 M 161.48 116.52 C 158.99 117.01 158.03 119.74 158.24 122.00 C 158.27 148.68 158.25 175.35 158.25 202.03 C 158.00 204.91 159.72 207.39 161.72 209.27 C 178.05 225.59 194.38 241.91 210.75 258.20 C 212.24 259.81 213.98 261.76 213.28 264.16 C 211.67 266.84 209.16 268.80 207.00 271.02 C 191.72 286.28 176.45 301.55 161.17 316.81 C 159.51 318.44 158.13 320.55 158.28 322.98 C 158.20 348.34 158.31 373.72 158.24 399.08 C 158.27 401.59 158.06 404.14 158.51 406.62 C 159.68 409.05 162.57 409.61 165.02 409.51 C 191.34 409.44 217.67 409.54 243.99 409.46 C 248.48 409.69 251.26 405.88 254.11 403.08 C 268.91 388.20 283.81 373.43 298.62 358.56 C 300.34 356.74 302.27 355.14 304.29 353.67 C 306.07 354.46 307.95 355.22 309.32 356.69 C 324.96 372.38 340.68 387.99 356.31 403.70 C 358.96 406.45 361.80 409.76 366.05 409.46 C 392.70 409.52 419.36 409.49 446.01 409.48 C 448.24 409.68 449.96 408.11 451.61 406.85 C 451.63 379.21 451.61 351.57 451.62 323.93 C 451.87 321.07 450.29 318.56 448.25 316.72 C 431.52 299.79 414.50 283.13 397.76 266.21 C 395.67 264.31 396.08 260.91 398.19 259.21 C 414.80 242.45 431.59 225.87 448.22 209.13 C 450.16 207.28 451.90 204.89 451.61 202.05 C 451.63 175.36 451.60 148.66 451.63 121.96 C 452.20 118.78 449.17 115.83 446.02 116.30 C 420.34 116.31 394.66 116.28 368.99 116.31 C 364.72 115.95 361.93 119.54 359.29 122.30 C 342.41 139.06 325.65 155.96 308.77 172.74 C 306.89 175.13 303.06 175.14 301.12 172.82 C 284.09 155.88 267.13 138.85 250.11 121.89 C 247.64 119.36 245.05 116.02 241.09 116.32 C 217.08 116.25 193.06 116.35 169.04 116.28 C 166.52 116.31 163.98 116.10 161.48 116.52 M 465.26 117.19 C 464.71 119.08 464.18 121.01 464.20 123.00 C 464.24 216.70 464.18 310.41 464.23 404.11 C 463.71 407.42 466.95 409.76 470.01 409.48 C 533.00 409.52 595.99 409.45 658.98 409.51 C 662.49 409.41 666.23 409.94 669.55 408.50 C 671.74 407.10 673.40 405.05 675.26 403.26 C 691.95 386.59 708.69 369.97 725.37 353.32 C 728.37 351.14 730.60 347.84 730.47 343.99 C 730.53 290.00 730.46 236.01 730.50 182.01 C 730.64 179.21 729.49 176.47 727.55 174.48 C 709.15 156.19 690.85 137.81 672.49 119.50 C 670.50 117.56 667.85 116.13 665.01 116.30 C 600.34 116.30 535.67 116.32 471.00 116.28 C 469.04 116.28 467.13 116.70 465.26 117.19 Z"
       id="path6" />
    <path
       fill="#00264c"
       opacity="1.00"
       d=" M 142.05 42.28 C 142.81 36.28 149.01 33.73 154.10 32.25 C 149.80 35.24 145.75 38.57 142.05 42.28 Z"
       id="path8" />
    <path
       fill="#00264c"
       opacity="1.00"
       d=" M 165.56 34.49 C 167.78 33.29 171.49 33.17 172.43 36.06 C 173.11 38.86 171.12 41.34 169.02 42.93 C 163.28 47.01 155.98 49.53 148.93 47.72 C 153.83 42.63 159.12 37.58 165.56 34.49 Z"
       id="path10" />
    <path
       fill="#00264c"
       opacity="1.00"
       d=" M 39.91 75.85 C 47.29 72.63 55.53 73.06 63.35 71.94 C 63.27 80.04 63.18 88.13 63.21 96.22 C 53.94 91.78 43.51 88.09 37.10 79.57 C 36.41 77.71 38.65 76.68 39.91 75.85 Z"
       id="path12" />
    <path
       fill="#00264c"
       opacity="1.00"
       d=" M 301.91 93.75 C 306.78 86.35 310.49 77.61 317.97 72.39 C 319.33 74.74 320.70 77.39 319.58 80.14 C 317.68 88.08 309.62 92.93 301.91 93.75 Z"
       id="path14" />
    <path
       fill="#00264c"
       opacity="1.00"
       d=" M 590.64 221.00 C 603.09 220.99 615.54 221.02 627.99 220.98 C 632.77 220.87 637.97 222.12 641.28 225.79 C 644.39 229.80 645.68 234.98 645.57 240.00 C 645.56 254.68 645.58 269.36 645.56 284.04 C 645.61 288.68 644.27 293.65 640.65 296.78 C 637.64 299.11 633.77 300.15 630.00 300.03 C 616.88 299.98 603.76 300.01 590.64 300.00 C 590.64 273.66 590.64 247.33 590.64 221.00 M 602.00 231.00 C 602.01 250.89 601.97 270.77 602.02 290.66 C 610.01 290.63 618.00 290.62 625.99 290.68 C 628.23 290.64 630.70 290.88 632.66 289.53 C 634.44 288.33 634.38 285.90 634.46 283.99 C 634.39 268.31 634.48 252.63 634.42 236.96 C 634.58 234.33 633.05 231.08 630.09 231.06 C 620.73 230.88 611.36 231.07 602.00 231.00 Z"
       id="path16" />
    <path
       fill="#00264c"
       opacity="1.00"
       d=" M 472.00 221.62 C 484.35 233.35 496.12 245.69 508.30 257.60 C 510.45 259.52 513.00 262.63 510.81 265.50 C 506.06 270.84 500.62 275.53 495.74 280.76 C 487.79 288.47 480.29 296.66 472.01 304.02 C 471.99 276.55 472.00 249.08 472.00 221.62 Z"
       id="path18" />
    <path
       fill="#00264c"
       opacity="1.00"
       d=" M 522.00 221.44 C 525.71 221.43 529.43 221.43 533.15 221.44 C 533.26 232.36 533.18 243.28 533.20 254.20 C 544.34 254.59 555.51 254.57 566.66 254.22 C 566.60 243.28 566.69 232.35 566.60 221.42 C 570.26 221.44 573.93 221.44 577.59 221.41 C 577.53 247.61 577.59 273.80 577.56 300.00 C 573.92 300.00 570.28 300.00 566.64 300.00 C 566.64 288.12 566.63 276.23 566.65 264.35 C 555.50 264.36 544.35 264.37 533.20 264.34 C 533.21 276.23 533.20 288.11 533.20 300.00 C 529.46 300.00 525.73 300.00 522.00 300.00 C 522.00 273.81 522.00 247.63 522.00 221.44 Z"
       id="path20" />
  </g>
  <g
     id="#c1d82fff">
    <path
       fill="#c1d82f"
       opacity="1.00"
       d=" M 18.26 20.30 C 21.81 16.01 27.86 15.99 32.93 15.25 C 50.72 13.03 69.04 15.67 85.56 22.60 C 100.09 28.16 113.54 36.52 125.09 46.93 C 132.29 53.97 139.05 62.16 141.51 72.14 C 143.63 82.88 137.56 93.85 128.74 99.77 C 113.50 110.65 93.30 111.69 75.54 107.65 C 74.81 109.90 73.80 112.92 70.96 113.08 C 68.92 113.73 67.10 112.31 65.28 111.65 C 64.07 109.02 63.37 106.20 63.12 103.31 C 53.13 98.92 43.83 92.60 36.96 84.04 C 35.45 81.97 33.72 79.69 33.96 76.97 C 33.85 74.38 35.98 72.61 37.86 71.23 C 45.35 65.86 54.53 63.82 63.40 62.02 C 64.01 56.49 64.04 50.83 65.57 45.44 C 66.02 43.45 67.61 42.09 68.93 40.66 C 74.65 45.82 73.73 54.24 74.65 61.22 C 83.93 61.14 93.41 61.80 102.21 64.95 C 106.89 66.91 111.83 70.50 112.39 75.95 C 112.25 82.07 105.64 86.62 99.88 84.15 C 98.15 81.69 103.05 80.12 103.11 77.43 C 99.66 74.60 95.13 73.92 90.91 73.00 C 85.57 71.91 80.10 71.64 74.66 71.78 C 75.00 80.91 74.97 90.03 75.56 99.15 C 87.56 101.34 100.25 100.96 111.88 97.09 C 118.40 94.61 125.35 90.68 127.86 83.75 C 131.21 75.69 127.76 66.62 122.74 60.08 C 115.43 50.35 105.23 43.25 94.69 37.39 C 76.08 27.54 55.13 21.63 33.99 22.06 C 29.83 22.52 25.35 22.07 21.58 24.18 C 22.80 25.14 23.97 26.14 25.10 27.19 C 22.31 29.03 17.72 29.39 15.47 26.54 C 15.00 24.10 16.70 21.97 18.26 20.30 M 39.91 75.85 C 38.65 76.68 36.41 77.71 37.10 79.57 C 43.51 88.09 53.94 91.78 63.21 96.22 C 63.18 88.13 63.27 80.04 63.35 71.94 C 55.53 73.06 47.29 72.63 39.91 75.85 Z"
       id="path23" />
    <path
       fill="#c1d82f"
       opacity="1.00"
       d=" M 152.91 24.97 C 159.13 23.07 166.37 23.40 171.43 27.90 C 174.82 28.84 179.30 30.69 179.06 34.93 C 179.54 41.42 173.95 45.85 169.56 49.69 C 162.97 55.18 154.15 57.26 145.76 55.46 C 144.55 56.28 143.32 57.09 142.09 57.88 C 141.15 57.41 140.22 56.94 139.28 56.47 C 138.91 54.65 138.56 52.84 138.22 51.02 C 136.22 47.42 134.38 43.12 136.25 39.07 C 139.23 32.18 145.75 27.01 152.91 24.97 M 142.05 42.28 C 145.75 38.57 149.80 35.24 154.10 32.25 C 149.01 33.73 142.81 36.28 142.05 42.28 M 165.56 34.49 C 159.12 37.58 153.83 42.63 148.93 47.72 C 155.98 49.53 163.28 47.01 169.02 42.93 C 171.12 41.34 173.11 38.86 172.43 36.06 C 171.49 33.17 167.78 33.29 165.56 34.49 Z"
       id="path25" />
    <path
       fill="#c1d82f"
       opacity="1.00"
       d=" M 229.00 57.90 C 229.27 56.75 229.86 55.74 230.75 54.88 C 238.29 59.80 241.54 68.67 243.80 76.97 C 245.62 83.83 245.30 91.85 240.59 97.53 C 238.69 99.76 235.00 101.61 232.43 99.40 C 225.86 93.85 222.57 85.58 217.19 79.04 C 214.84 86.18 217.35 94.14 214.08 101.02 C 211.23 104.42 206.51 100.45 206.57 96.87 C 206.11 86.21 207.69 75.16 212.38 65.48 C 213.28 65.02 214.17 64.55 215.07 64.08 C 223.50 70.25 227.73 80.21 234.26 88.08 C 236.59 77.71 229.49 68.13 229.00 57.90 Z"
       id="path27" />
    <path
       fill="#c1d82f"
       opacity="1.00"
       d=" M 166.18 65.30 C 175.38 60.60 186.00 61.00 196.03 61.25 C 199.36 61.29 202.83 62.12 205.13 64.70 C 204.57 65.70 204.01 66.70 203.46 67.71 C 195.60 70.34 187.21 69.93 179.06 70.80 C 175.94 71.23 171.94 70.88 170.00 73.92 C 177.28 75.69 184.83 75.67 192.21 76.79 C 196.70 77.58 201.64 79.62 203.65 84.02 C 205.96 89.07 203.97 95.40 199.54 98.60 C 193.79 103.01 186.08 103.03 179.19 102.41 C 173.16 101.64 166.56 99.05 163.71 93.29 C 161.60 88.93 165.30 83.62 169.87 83.09 C 175.94 82.53 182.02 83.29 187.97 84.48 C 189.98 84.89 191.35 86.50 192.70 87.89 C 189.38 91.53 183.89 92.13 179.47 90.35 C 176.16 89.35 172.82 86.94 169.25 88.09 C 166.86 89.02 167.52 91.68 168.69 93.31 C 176.14 94.61 183.84 93.38 191.05 91.39 C 193.39 90.49 197.21 89.48 197.03 86.36 C 191.78 82.70 185.15 82.31 179.05 81.23 C 173.52 80.23 167.01 82.60 162.25 78.79 C 158.10 74.50 161.63 67.67 166.18 65.30 Z"
       id="path29" />
    <path
       fill="#c1d82f"
       opacity="1.00"
       d=" M 262.95 62.18 C 268.14 62.24 273.63 60.07 278.58 62.52 C 281.22 63.47 282.68 66.00 284.16 68.20 C 282.55 69.17 281.10 70.80 279.08 70.77 C 273.95 71.02 268.82 71.36 263.73 72.04 C 263.36 73.76 263.04 75.48 262.77 77.22 C 266.64 78.01 270.59 78.13 274.52 77.95 C 275.73 79.86 276.73 83.06 274.06 84.25 C 269.49 85.21 264.71 84.07 260.13 85.08 C 257.81 87.14 257.88 90.52 257.48 93.35 C 262.70 92.95 267.79 91.45 273.03 91.22 C 275.62 91.16 277.87 93.44 278.07 95.97 C 272.38 101.85 264.12 105.13 256.01 105.60 C 251.04 105.78 247.90 101.20 246.90 96.85 C 245.03 91.23 251.13 85.96 248.29 80.47 C 249.94 78.88 251.89 77.66 253.92 76.62 C 254.32 74.86 254.74 73.10 255.13 71.33 C 253.26 70.43 251.39 69.52 249.53 68.60 C 248.97 67.59 248.41 66.59 247.86 65.58 C 252.16 62.32 257.85 62.74 262.95 62.18 Z"
       id="path31" />
    <path
       fill="#c1d82f"
       opacity="1.00"
       d=" M 297.43 61.31 C 299.73 59.74 300.35 63.47 299.92 65.06 C 297.92 72.45 290.45 78.30 291.53 86.45 C 298.53 78.88 304.80 70.10 314.05 65.10 C 316.61 63.38 319.54 65.06 321.67 66.65 C 325.65 70.64 326.56 76.75 325.74 82.13 C 324.87 87.48 321.50 91.97 317.78 95.74 C 312.39 101.22 305.01 105.08 297.18 104.88 C 293.97 116.96 289.35 128.69 287.51 141.10 C 282.37 141.85 278.58 136.42 277.79 131.91 C 277.98 119.88 282.37 108.45 285.28 96.91 C 284.79 92.64 282.59 88.44 283.87 84.07 C 285.66 75.33 290.74 67.15 297.43 61.31 M 301.91 93.75 C 309.62 92.93 317.68 88.08 319.58 80.14 C 320.70 77.39 319.33 74.74 317.97 72.39 C 310.49 77.61 306.78 86.35 301.91 93.75 Z"
       id="path33" />
    <path
       fill="#c1d82f"
       opacity="1.00"
       d=" M 150.36 61.51 C 152.08 62.20 154.21 62.96 154.61 65.03 C 156.50 72.49 156.64 80.28 156.79 87.94 C 156.78 92.91 157.33 98.03 155.73 102.83 C 152.91 103.87 149.12 103.63 147.65 100.62 C 145.42 94.00 146.50 86.88 146.39 80.04 C 147.00 73.78 146.46 66.85 150.36 61.51 Z"
       id="path35" />
    <path
       fill="#c1d82f"
       opacity="1.00"
       d=" M 161.48 116.52 C 163.98 116.10 166.52 116.31 169.04 116.28 C 193.06 116.35 217.08 116.25 241.09 116.32 C 245.05 116.02 247.64 119.36 250.11 121.89 C 267.13 138.85 284.09 155.88 301.12 172.82 C 303.06 175.14 306.89 175.13 308.77 172.74 C 325.65 155.96 342.41 139.06 359.29 122.30 C 361.93 119.54 364.72 115.95 368.99 116.31 C 394.66 116.28 420.34 116.31 446.02 116.30 C 449.17 115.83 452.20 118.78 451.63 121.96 C 451.60 148.66 451.63 175.36 451.61 202.05 C 451.90 204.89 450.16 207.28 448.22 209.13 C 431.59 225.87 414.80 242.45 398.19 259.21 C 396.08 260.91 395.67 264.31 397.76 266.21 C 414.50 283.13 431.52 299.79 448.25 316.72 C 450.29 318.56 451.87 321.07 451.62 323.93 C 451.61 351.57 451.63 379.21 451.61 406.85 C 449.96 408.11 448.24 409.68 446.01 409.48 C 419.36 409.49 392.70 409.52 366.05 409.46 C 361.80 409.76 358.96 406.45 356.31 403.70 C 340.68 387.99 324.96 372.38 309.32 356.69 C 307.95 355.22 306.07 354.46 304.29 353.67 C 302.27 355.14 300.34 356.74 298.62 358.56 C 283.81 373.43 268.91 388.20 254.11 403.08 C 251.26 405.88 248.48 409.69 243.99 409.46 C 217.67 409.54 191.34 409.44 165.02 409.51 C 162.57 409.61 159.68 409.05 158.51 406.62 C 158.06 404.14 158.27 401.59 158.24 399.08 C 158.31 373.72 158.20 348.34 158.28 322.98 C 158.13 320.55 159.51 318.44 161.17 316.81 C 176.45 301.55 191.72 286.28 207.00 271.02 C 209.16 268.80 211.67 266.84 213.28 264.16 C 213.98 261.76 212.24 259.81 210.75 258.20 C 194.38 241.91 178.05 225.59 161.72 209.27 C 159.72 207.39 158.00 204.91 158.25 202.03 C 158.25 175.35 158.27 148.68 158.24 122.00 C 158.03 119.74 158.99 117.01 161.48 116.52 Z"
       id="path37" />
    <path
       fill="#c1d82f"
       opacity="1.00"
       d=" M 465.26 117.19 C 467.13 116.70 469.04 116.28 471.00 116.28 C 535.67 116.32 600.34 116.30 665.01 116.30 C 667.85 116.13 670.50 117.56 672.49 119.50 C 690.85 137.81 709.15 156.19 727.55 174.48 C 729.49 176.47 730.64 179.21 730.50 182.01 C 730.46 236.01 730.53 290.00 730.47 343.99 C 730.60 347.84 728.37 351.14 725.37 353.32 C 708.69 369.97 691.95 386.59 675.26 403.26 C 673.40 405.05 671.74 407.10 669.55 408.50 C 666.23 409.94 662.49 409.41 658.98 409.51 C 595.99 409.45 533.00 409.52 470.01 409.48 C 466.95 409.76 463.71 407.42 464.23 404.11 C 464.18 310.41 464.24 216.70 464.20 123.00 C 464.18 121.01 464.71 119.08 465.26 117.19 M 590.64 221.00 C 590.64 247.33 590.64 273.66 590.64 300.00 C 603.76 300.01 616.88 299.98 630.00 300.03 C 633.77 300.15 637.64 299.11 640.65 296.78 C 644.27 293.65 645.61 288.68 645.56 284.04 C 645.58 269.36 645.56 254.68 645.57 240.00 C 645.68 234.98 644.39 229.80 641.28 225.79 C 637.97 222.12 632.77 220.87 627.99 220.98 C 615.54 221.02 603.09 220.99 590.64 221.00 M 472.00 221.62 C 472.00 249.08 471.99 276.55 472.01 304.02 C 480.29 296.66 487.79 288.47 495.74 280.76 C 500.62 275.53 506.06 270.84 510.81 265.50 C 513.00 262.63 510.45 259.52 508.30 257.60 C 496.12 245.69 484.35 233.35 472.00 221.62 M 522.00 221.44 C 522.00 247.63 522.00 273.81 522.00 300.00 C 525.73 300.00 529.46 300.00 533.20 300.00 C 533.20 288.11 533.21 276.23 533.20 264.34 C 544.35 264.37 555.50 264.36 566.65 264.35 C 566.63 276.23 566.64 288.12 566.64 300.00 C 570.28 300.00 573.92 300.00 577.56 300.00 C 577.59 273.80 577.53 247.61 577.59 221.41 C 573.93 221.44 570.26 221.44 566.60 221.42 C 566.69 232.35 566.60 243.28 566.66 254.22 C 555.51 254.57 544.34 254.59 533.20 254.20 C 533.18 243.28 533.26 232.36 533.15 221.44 C 529.43 221.43 525.71 221.43 522.00 221.44 Z"
       id="path39" />
    <path
       fill="#c1d82f"
       opacity="1.00"
       d=" M 602.00 231.00 C 611.36 231.07 620.73 230.88 630.09 231.06 C 633.05 231.08 634.58 234.33 634.42 236.96 C 634.48 252.63 634.39 268.31 634.46 283.99 C 634.38 285.90 634.44 288.33 632.66 289.53 C 630.70 290.88 628.23 290.64 625.99 290.68 C 618.00 290.62 610.01 290.63 602.02 290.66 C 601.97 270.77 602.01 250.89 602.00 231.00 Z"
       id="path41" />
  </g>
</svg>
