<?xml version="1.0" encoding="UTF-8" standalone="no"?>
<!-- Created with Inkscape (http://www.inkscape.org/) -->

<svg
   xmlns:dc="http://purl.org/dc/elements/1.1/"
   xmlns:cc="http://creativecommons.org/ns#"
   xmlns:rdf="http://www.w3.org/1999/02/22-rdf-syntax-ns#"
   xmlns:svg="http://www.w3.org/2000/svg"
   xmlns="http://www.w3.org/2000/svg"
   xmlns:inkscape="http://www.inkscape.org/namespaces/inkscape"
   version="1.0"
   width="250.707"
   height="141.80315"
   id="svg2">
  <metadata
     id="metadata16">
    <rdf:RDF>
      <cc:Work
         rdf:about="">
        <dc:format>image/svg+xml</dc:format>
        <dc:type
           rdf:resource="http://purl.org/dc/dcmitype/StillImage" />
      </cc:Work>
    </rdf:RDF>
  </metadata>
  <defs
     id="defs4" />
  <g
     transform="matrix(0.33892756,0,0,0.33892756,61.427644,-96.775732)"
     id="layer1">
    <path
       d="m -26.63721,703.25051 c -4.32539,-1.33514 -8.41533,-4.71898 -10.16807,-8.41262 -1.42321,-2.99918 -1.62329,-8.98354 -1.62329,-48.55181 0,-38.31213 0.23214,-45.69272 1.53643,-48.84887 1.00536,-2.43278 9.90226,-12.09894 25.7394,-27.96493 l 24.20296,-24.24705 -85.59985,-85.75295 c -67.50369,-67.62442 -86.07773,-86.77097 -87.86033,-90.56849 -2.74589,-5.84962 -2.42927,-12.66589 0.83355,-17.94525 2.90312,-4.69735 11.18204,-10.24876 19.69267,-13.20487 l 6.95517,-2.41583 1.62829,-6.30926 c 0.89556,-3.47009 1.93392,-7.03868 2.30747,-7.93021 0.92694,-2.21226 -0.98737,-2.79804 -11.60727,-3.55186 -8.62018,-0.61188 -8.98672,-0.54995 -11.61478,1.9624 -3.4288,3.27783 -9.70966,4.7332 -15.64302,3.62473 -6.22417,-1.16281 -9.08632,-3.28229 -11.68692,-8.65442 -2.00077,-4.13303 -2.09639,-5.01586 -0.99093,-9.14905 3.3747,-12.61763 12.98789,-17.83913 36.10716,-19.61199 15.00736,-1.15081 36.8021,3.19937 54.91586,10.96109 9.03552,3.87171 23.12223,12.01834 28.26703,16.3474 2.48941,2.0947 3.2649,2.34929 3.64871,1.19785 0.95484,-2.8645 10.22512,-11.71771 14.90758,-14.23688 6.18949,-3.32995 14.67523,-5.14862 21.39573,-4.58555 6.70979,0.56218 19.81234,6.85419 23.85037,11.45325 4.56832,5.20304 5.19282,15.25132 1.40331,22.57944 l -1.43995,2.78455 5.30775,0 c 2.91926,0 7.76832,0.71073 10.77568,1.57941 3.00736,0.86867 7.52924,1.7334 10.04862,1.92162 4.16728,0.31133 4.73672,0.0781 6.30956,-2.58452 2.2245,-3.76578 6.4448,-5.91651 11.60975,-5.91651 4.82666,0 8.43025,1.69597 12.33688,5.80613 2.48123,2.6105 3.23343,2.87898 6,2.14154 5.52863,-1.47368 25.05718,-2.87371 28.68174,-2.05624 1.91929,0.43287 4.79709,1.47209 6.39509,2.30937 2.73167,1.43126 3.12024,1.37558 6.49588,-0.9309 4.53864,-3.10112 11.8406,-2.79266 15.51072,0.65523 2.09006,1.96352 2.79316,2.09448 6.24889,1.16394 8.0733,-2.17391 9.58144,-1.116 36.37415,25.51538 l 24.54335,24.39555 148.45665,0.022 c 142.72299,0.0211 148.61114,0.094 152.45665,1.88595 2.62845,1.22485 14.67868,12.61833 35.14339,33.22804 30.85765,31.07629 31.15411,31.41451 32.31171,36.86405 0.85318,4.01643 1.08424,28.29299 0.85661,90 l -0.31171,84.5 -2.1818,4 c -2.70365,4.95673 -60.50667,62.61336 -65.3182,65.15278 -3.36021,1.77344 -9.73061,1.84722 -159.5,1.84722 l -156,0 -4.5,-2.68421 c -2.475,-1.47631 -14.62125,-12.83881 -26.99167,-25.25 -12.37041,-12.41118 -22.85843,-22.56579 -23.30669,-22.56579 -0.44827,0 -11.47702,10.61461 -24.50834,23.58802 -13.03131,12.97342 -25.0433,24.33592 -26.6933,25.25 -2.65714,1.47204 -8.14288,1.68297 -48,1.84562 -24.75,0.101 -46.21889,-0.19261 -47.70864,-0.65246 z"
       inkscape:connector-curvature="0"
       id="path2463"
       style="fill:#344d6b;fill-opacity:1" />
    <path
       d="m 91.55355,663.71933 c 15.16045,-15.125 28.2185,-27.5 29.01788,-27.5 0.79938,0 13.85743,12.375 29.01788,27.5 l 27.56445,27.5 44.23359,0 44.23358,0 1.01603,-2.67235 c 0.6468,-1.70123 0.91036,-17.86415 0.72525,-44.47712 l -0.29078,-41.80478 -27.75,-27.81404 c -15.2625,-15.29772 -27.75,-28.45167 -27.75,-29.23098 0,-0.77932 12.12602,-13.58579 26.94671,-28.45884 14.82069,-14.87304 27.42069,-28.30868 28,-29.85699 0.67472,-1.8033 1.05329,-17.52789 1.05329,-43.75 0,-39.8149 -0.0556,-40.99049 -2.03177,-42.96667 -1.98643,-1.98643 -2.95644,-2.02547 -43.47817,-1.75 l -41.44642,0.28177 -29.31095,29.25 c -16.12102,16.0875 -29.95044,29.25 -30.73203,29.25 -0.7816,0 -14.26399,-12.7748 -29.96087,-28.38844 -15.69689,-15.61365 -29.52271,-28.88865 -30.72405,-29.5 -1.49395,-0.76027 -14.77622,-1.11156 -42.02749,-1.11156 -34.44277,0 -40.14448,0.211 -42.06574,1.5567 l -2.22251,1.55671 0,43.15213 0,43.15213 27.5,27.56445 c 21.03737,21.08668 27.5,28.14102 27.5,30.01788 0,1.87686 -6.46263,8.9312 -27.5,30.01788 l -27.5,27.56445 0,42.27458 c 0,27.22859 0.36843,42.963 1.03518,44.20883 0.99948,1.86753 2.5591,1.93426 45.20884,1.93426 l 44.17365,0 27.56445,-27.5 z"
       inkscape:connector-curvature="0"
       id="path2461"
       style="fill:#c3d93f;fill-opacity:1" />
    <path
       d="m 515.30314,660.95104 30.26829,-30.2683 0,-85.48785 0,-85.48786 -30.50596,-30.49385 -30.50596,-30.49385 -100.4799,-0.26414 c -99.55958,-0.26172 -100.49835,-0.24569 -102.49404,1.75 -2.00002,2.00002 -2.01414,3.01388 -2.01414,144.57988 0,96.36183 0.33549,143.19261 1.03518,144.5 1.01304,1.89288 3.21079,1.93426 102.73171,1.93426 l 101.69652,0 30.2683,-30.26829 z"
       inkscape:connector-curvature="0"
       id="path2459"
       style="fill:#c3d93f;fill-opacity:1" />
    <path
       d="m 45.35268,336.21933 c -0.57352,5e-5 -0.93981,0.32148 -1.0625,0.9375 -0.12274,0.61612 -0.15627,1.16294 -0.15625,1.65625 l 0,0.5 0.34375,1.46875 c 0.73877,2.87254 1.43758,5.35522 2.09375,7.40625 0.65612,2.05111 1.22662,3.99682 1.71875,5.84375 0.49207,1.847 0.89947,3.77153 1.1875,5.78125 0.28796,2.00977 0.43747,4.39766 0.4375,7.1875 -4e-5,1.06687 -0.02121,1.87284 -0.0625,2.40625 -0.04137,0.53344 -0.27681,0.81251 -0.6875,0.8125 0.08262,2e-5 -0.21889,-0.34384 -0.875,-1 -1.64037,-2.05106 -3.28585,-4.41651 -4.96875,-7.125 -1.68296,-2.70844 -3.31606,-5.29826 -4.875,-7.71875 -1.55899,-2.42043 -3.02016,-4.44329 -4.375,-6.125 -1.35487,-1.68164 -2.47344,-2.53121 -3.375,-2.53125 -0.90158,4e-5 -1.72997,0.57054 -2.46875,1.71875 -0.7388,1.14829 -1.43636,2.63189 -2.09375,4.4375 -0.65741,1.80568 -1.22665,3.79374 -1.71875,5.96875 -0.49211,2.17506 -0.89068,4.35749 -1.21875,6.53125 -0.32807,2.1738 -0.58597,4.1843 -0.75,6.03125 -0.16404,1.84698 -0.25,3.2769 -0.25,4.34375 -10e-6,0.7388 0.06478,1.67433 0.1875,2.78125 0.12271,1.10693 0.3806,2.16072 0.75,3.1875 0.36939,1.02679 0.85267,1.91872 1.46875,2.65625 0.61607,0.73753 1.42203,1.125 2.40625,1.125 0.65613,-1e-5 1.2042,-0.23671 1.65625,-0.6875 0.45203,-0.45079 0.81706,-0.97768 1.0625,-1.59375 0.24541,-0.61607 0.4297,-1.2501 0.59375,-1.90625 0.16402,-0.65614 0.29235,-1.21428 0.375,-1.625 0.16528,-0.9842 0.31478,-2.37303 0.4375,-4.21875 0.1227,-1.8457 0.2311,-3.78031 0.3125,-5.75 0.08138,-1.96966 0.16734,-3.72227 0.25,-5.28125 0.08263,-1.55894 0.16734,-2.52676 0.25,-2.9375 0.24542,-0.90405 0.51567,-1.37497 0.84375,-1.375 0.24542,3e-5 0.66516,0.56927 1.28125,1.71875 0.61606,1.14953 1.33606,2.56834 2.15625,4.25 0.82016,1.68169 1.73327,3.49909 2.71875,5.46875 0.98545,1.96969 2.01805,3.81708 3.125,5.5 1.1069,1.68293 2.30033,3.10176 3.53125,4.25 1.23086,1.14825 2.41297,1.71875 3.5625,1.71875 1.47754,0 2.8104,-0.50571 4,-1.53125 1.18955,-1.02553 2.17853,-2.33721 3,-3.9375 0.8214,-1.60028 1.4655,-3.38413 1.875,-5.3125 0.40943,-1.92834 0.59371,-3.83045 0.59375,-5.71875 -4e-5,-4.26741 -0.52693,-8.20244 -1.59375,-11.8125 -1.0669,-3.61 -2.31504,-6.72671 -3.75,-9.3125 -1.43504,-2.58571 -2.91864,-4.59496 -4.4375,-6.03125 -1.51893,-1.4362 -2.6786,-2.1562 -3.5,-2.15625 z"
       inkscape:connector-curvature="0"
       id="path2477"
       style="font-size:123.09429169px;font-style:normal;font-variant:normal;font-weight:normal;font-stretch:normal;text-align:start;line-height:125%;writing-mode:lr-tb;text-anchor:start;fill:#c3d93f;fill-opacity:1;stroke:none;font-family:'Walt Disney Script v4.1';-inkscape-font-specification:'Walt Disney Script v4.1'" />
    <path
       d="m 1.97768,342.50058 c -0.1628,4e-5 -0.88406,0.0437 -2.15625,0.125 -1.27223,0.0814 -2.84056,0.27579 -4.6875,0.5625 -1.84698,0.28679 -3.79269,0.68536 -5.84375,1.21875 -2.05108,0.53347 -3.95444,1.25347 -5.71875,2.15625 -1.76433,0.90286 -3.2255,2.07386 -4.375,3.46875 -1.1495,1.39496 -1.71875,3.01799 -1.71875,4.90625 -10e-6,1.31231 0.17068,2.41853 0.5,3.28125 0.32933,0.86277 1.01807,1.56035 2.125,2.09375 1.10692,0.53345 2.74128,0.91085 4.875,1.15625 2.1337,0.24545 4.97134,0.41738 8.5,0.5 1.31477,2e-5 2.98016,0.15077 5.03125,0.4375 2.05105,0.28677 4.06154,0.66291 6.03125,1.15625 1.96965,0.49338 3.66754,1.12741 5.0625,1.90625 1.39489,0.77887 2.09371,1.71441 2.09375,2.78125 -4e-5,1.14952 -0.91314,2.11734 -2.71875,2.9375 -1.80568,0.82019 -3.83735,1.49783 -6.09375,2.03125 -2.25646,0.53344 -4.43888,0.94083 -6.53125,1.1875 -2.09241,0.24669 -3.42401,0.34376 -4,0.34375 -1.14701,10e-6 -2.28801,-0.0212 -3.4375,-0.0625 -1.14951,-0.0413 -2.2033,-0.1172 -3.1875,-0.28125 -0.98423,-0.16403 -1.79019,-0.4867 -2.40625,-0.9375 -0.61607,-0.45077 -0.93751,-1.04245 -0.9375,-1.78125 -10e-6,-1.39491 0.42856,-2.26441 1.25,-2.59375 0.82142,-0.3293 1.66092,-0.49998 2.5625,-0.5 1.22964,10e-6 2.46541,0.17069 3.65625,0.5 1.1908,0.32934 2.35173,0.69437 3.5,1.0625 1.14823,0.36816 2.22445,0.68076 3.25,0.96875 1.02551,0.28802 2.00215,0.43751 2.90625,0.4375 1.56019,10e-6 3.00019,-0.30024 4.3125,-0.875 1.31226,-0.57474 2.19411,-1.10038 2.6875,-1.59375 0.16276,-0.16277 0.24997,-0.39066 0.25,-0.71875 -2e-5,-0.16527 -0.08725,-0.3372 -0.25,-0.5 -2.54445,-1.31477 -5.23135,-2.29141 -8.0625,-2.90625 -2.83119,-0.6148 -5.43338,-0.90623 -7.8125,-0.90625 -1.23216,2e-5 -2.50023,0.12834 -3.8125,0.375 -1.31229,0.2467 -2.51683,0.64527 -3.625,1.21875 -1.10818,0.57352 -2.02129,1.3583 -2.71875,2.34375 -0.69747,0.98548 -1.03125,2.20994 -1.03125,3.6875 -10e-6,1.22965 0.52689,2.54258 1.59375,3.9375 1.06685,1.39494 2.5081,2.66301 4.3125,3.8125 1.80438,1.1495 3.90084,2.10497 6.28125,2.84375 2.38038,0.73879 4.87291,1.09375 7.5,1.09375 0.9842,0 2.5114,-0.10714 4.5625,-0.3125 2.05104,-0.20535 4.12633,-0.7746 6.21875,-1.71875 2.09236,-0.94414 3.93093,-2.34053 5.53125,-4.1875 1.60025,-1.84696 2.40621,-4.44913 2.40625,-7.8125 -5e-5,-2.87248 -0.69886,-5.11844 -2.09375,-6.71875 -1.39497,-1.60026 -3.13647,-2.78362 -5.1875,-3.5625 -2.0511,-0.77883 -4.28824,-1.26337 -6.75,-1.46875 -2.46181,-0.20533 -4.7302,-0.39718 -6.78125,-0.5625 -2.4618,-0.16275 -4.60062,-0.39065 -6.40625,-0.71875 -1.80566,-0.32804 -3.89961,-0.9709 -6.28125,-1.875 -0.1628,3e-5 -0.21876,-0.0559 -0.21875,-0.21875 0,-0.16526 0.05596,-0.33468 0.21875,-0.5 0.65863,-0.40818 1.48453,-0.75329 2.46875,-1 0.98421,-0.24665 2.51142,-0.51565 4.5625,-0.84375 0.9842,-0.16525 2.4242,-0.33593 4.3125,-0.5 1.88827,-0.164 3.87633,-0.33593 5.96875,-0.5 2.09237,-0.164 4.12404,-0.31475 6.09375,-0.4375 1.96964,-0.12268 3.49561,-0.24093 4.5625,-0.40625 0.49081,-0.0801 1.16846,-0.1885 2.03125,-0.3125 0.86271,-0.12393 1.54036,-0.27468 2.03125,-0.4375 0.65611,-0.24539 1.24778,-0.57918 1.78125,-1.03125 0.53339,-0.452 0.82356,-1.07368 0.90625,-1.8125 -4e-5,-0.6561 -0.12836,-1.09703 -0.375,-1.34375 -0.24672,-0.24664 -0.56058,-0.41982 -0.96875,-0.5 -2.05362,-0.49332 -4.42664,-0.95542 -7.09375,-1.40625 -2.66717,-0.45074 -5.53835,-0.68746 -8.65625,-0.6875 z"
       inkscape:connector-curvature="0"
       id="path2473"
       style="font-size:123.09429169px;font-style:normal;font-variant:normal;font-weight:normal;font-stretch:normal;text-align:start;line-height:125%;writing-mode:lr-tb;text-anchor:start;fill:#c3d93f;fill-opacity:1;stroke:none;font-family:'Walt Disney Script v4.1';-inkscape-font-specification:'Walt Disney Script v4.1'" />
    <path
       d="m -25.45982,304.21933 c -2.95516,8e-5 -5.85633,0.61294 -8.6875,1.84375 -2.83118,1.23097 -5.36858,2.77936 -7.625,4.625 -2.25643,1.84579 -4.10507,3.87746 -5.5,6.09375 -1.39492,2.21642 -2.09375,4.35524 -2.09375,6.40625 1e-5,1.39499 0.32268,2.66306 0.9375,3.8125 0.61483,1.14956 1.37718,2.33292 2.28125,3.5625 -0.08264,0.32813 -0.16735,0.69316 -0.25,1.0625 -0.08264,0.36945 -0.125,0.70323 -0.125,1.03125 0.16529,1.39498 0.54143,2.60833 1.15625,3.59375 0.61482,0.98551 1.25011,1.55601 1.90625,1.71875 0.90407,-0.16273 1.58046,-0.5502 2.03125,-1.125 0.45078,-0.5747 1.03135,-1.27227 1.6875,-2.09375 1.1495,0.41077 2.41756,0.71101 3.8125,0.875 1.39491,0.16408 2.70534,0.25005 3.9375,0.25 2.05106,5e-5 4.46013,-0.61281 7.25,-1.84375 2.78983,-1.23084 5.45554,-2.82159 8,-4.75 2.54439,-1.9283 4.7044,-4.11073 6.46875,-6.53125 1.76429,-2.4204 2.65621,-4.80579 2.65625,-7.1875 -4e-5,-1.14693 -0.27911,-2.14725 -0.8125,-2.96875 -0.53347,-0.82136 -1.1675,-1.52018 -1.90625,-2.09375 -0.73882,-0.57342 -1.50243,-0.97199 -2.28125,-1.21875 -0.77889,-0.2466 -1.41292,-0.37492 -1.90625,-0.375 -0.16532,7e-5 -0.27246,0.0213 -0.3125,0.0625 -0.04009,0.0414 -0.10489,0.0626 -0.1875,0.0625 -0.41074,-1.39485 -1.57167,-2.5346 -3.5,-3.4375 -1.92838,-0.90274 -4.23031,-1.37492 -6.9375,-1.375 z m -7.40625,8.375 c 0.16528,0.16286 0.24999,0.37714 0.25,0.625 l 0,0.125 c -0.7388,0.65621 -1.58712,1.441 -2.53125,2.34375 -0.94416,0.90289 -1.84844,1.80718 -2.75,2.75 -0.90158,0.94296 -1.75115,1.83488 -2.53125,2.65625 -0.78011,0.8215 -1.37054,1.52031 -1.78125,2.09375 -0.16279,0.16535 -0.37707,0.25006 -0.625,0.25 -0.16279,6e-5 -0.33471,-0.0847 -0.5,-0.25 0.24793,-2.37907 1.28936,-4.58268 3.09375,-6.59375 1.80439,-2.01093 4.25706,-3.34379 7.375,-4 z m 16.125,1.25 c 1.64032,7e-5 2.59704,0.27032 2.84375,0.84375 0.24664,0.57357 0.37497,1.31475 0.375,2.21875 -3e-5,1.88585 -0.67767,3.56381 -2.03125,5 -1.35363,1.43631 -3.03035,2.63959 -5,3.625 -1.9697,0.98553 -4.02256,1.74788 -6.15625,2.28125 -2.13373,0.53348 -3.97105,0.78131 -5.53125,0.78125 l -2.71875,0 c -0.16279,6e-5 -0.34708,-0.12826 -0.59375,-0.375 -0.24669,-0.24662 -0.37501,-0.43091 -0.375,-0.59375 1.23213,-1.72294 2.60735,-3.42083 4.125,-5.0625 1.51762,-1.64154 3.07713,-3.1239 4.71875,-4.4375 1.64158,-1.31347 3.33948,-2.34607 5.0625,-3.125 1.72297,-0.77878 3.47558,-1.15618 5.28125,-1.15625 z m -19.6875,29.03125 c -0.41072,4e-5 -0.66987,0.30154 -0.75,0.875 -0.82144,6.2384 -1.34708,11.0641 -1.59375,14.46875 -0.24669,3.4047 -0.41987,5.53345 -0.5,6.4375 -0.08265,1.64037 -0.11493,2.93087 -0.15625,3.875 -0.04133,0.94416 -0.08368,1.83609 -0.125,2.65625 -0.04132,0.82019 -0.06251,1.73455 -0.0625,2.71875 0,0.90409 -10e-6,2.1298 0,3.6875 0,0.33058 0.06353,0.81261 0.1875,1.46875 0.12395,0.65614 0.26464,1.33379 0.46875,2.03125 0.2041,0.69747 0.46199,1.35393 0.75,1.96875 0.288,0.61482 0.62053,0.97986 1.03125,1.0625 0.49085,0.16529 1.0926,0.33596 1.75,0.5 0.65739,0.16403 1.22788,0.21875 1.71875,0.21875 1.5602,0 2.57038,-0.46211 3.0625,-1.40625 0.4921,-0.94414 0.74999,-1.89078 0.75,-2.875 -10e-6,-4.92356 -0.17194,-9.96481 -0.5,-15.09375 -0.32809,-5.12891 -0.58473,-10.18126 -0.75,-15.1875 -0.1628,-2.3791 -0.51901,-4.20657 -1.09375,-5.4375 -0.57476,-1.23085 -1.97115,-1.88606 -4.1875,-1.96875 z"
       inkscape:connector-curvature="0"
       id="path2483"
       style="font-size:123.09429169px;font-style:normal;font-variant:normal;font-weight:normal;font-stretch:normal;text-align:start;line-height:125%;writing-mode:lr-tb;text-anchor:start;fill:#c3d93f;fill-opacity:1;stroke:none;font-family:'Walt Disney Script v4.1';-inkscape-font-specification:'Walt Disney Script v4.1'" />
    <path
       d="m 88.69643,343.00058 c -2.54445,5e-5 -4.8552,0.12961 -6.90625,0.375 -2.05109,0.24547 -3.91084,0.52454 -5.59375,0.8125 -1.68293,0.28804 -3.25126,0.53586 -4.6875,0.78125 -1.43627,0.24547 -2.81272,0.4174 -4.125,0.5 -1.06688,0.0827 -1.87283,0.25461 -2.40625,0.5 -0.53342,0.24546 -0.78125,0.68514 -0.78125,1.34375 0,0.65618 0.20546,1.24786 0.65625,1.78125 0.45079,0.53346 1.02128,1.018 1.71875,1.46875 0.69746,0.45082 1.45981,0.88064 2.28125,1.25 0.82141,0.36942 1.60495,0.70321 2.34375,1.03125 l -2.9375,6.78125 c -0.5735,0.0827 -1.15408,0.23217 -1.6875,0.4375 -0.53342,0.20538 -1.0379,0.36849 -1.53125,0.53125 -0.16279,0.49339 -0.31479,0.92195 -0.4375,1.25 -0.12272,0.32809 -0.15625,0.72541 -0.15625,1.21875 10e-6,0.65616 0.09832,1.18306 0.34375,1.59375 0.24541,0.41073 0.45971,0.96888 0.625,1.625 -0.65614,1.8858 -1.33254,3.7468 -2.03125,5.59375 -0.69871,1.84698 -1.03125,3.44883 -1.03125,4.84375 -10e-6,2.62708 0.75228,5.02254 2.3125,7.15625 1.5602,2.13371 4.08524,3.1875 7.53125,3.1875 2.05106,0 4.0192,-0.29018 5.90625,-0.90625 1.88701,-0.61607 3.6608,-1.37843 5.34375,-2.28125 1.6829,-0.90282 3.18769,-1.83836 4.5,-2.78125 1.31224,-0.94288 2.36604,-1.7476 3.1875,-2.40625 0.49332,-0.32806 0.74997,-0.94217 0.75,-1.84375 -2e-5,-0.82142 -0.34264,-1.61731 -1,-2.4375 -0.65742,-0.82017 -1.32625,-1.24999 -2.0625,-1.25 -0.65867,10e-6 -1.36506,0.0212 -2.0625,0.0625 -0.6975,0.0413 -1.37513,0.10737 -2.03125,0.1875 -3.93937,0.41072 -7.02484,0.82922 -9.28125,1.28125 -2.25644,0.45204 -3.54694,0.68751 -3.875,0.6875 0.65612,-1.39492 1.22663,-2.79131 1.71875,-4.1875 0.4921,-1.39616 0.89067,-2.7502 1.21875,-4.0625 0.16527,-0.32806 0.42191,-0.49998 0.75,-0.5 3.11792,2e-5 5.93437,-0.0123 8.4375,-0.0937 2.5031,-0.0814 4.31922,-0.16734 5.46875,-0.25 0.57348,-0.0826 0.96094,-0.49002 1.125,-1.1875 0.164,-0.69745 0.24997,-1.28787 0.25,-1.78125 -2e-5,-0.57347 -0.04364,-1.20876 -0.125,-1.90625 -0.08143,-0.69744 -0.29696,-1.24551 -0.625,-1.65625 l -1.71875,-0.25 -9.125,0 c -0.41073,2e-5 -0.67973,-0.14947 -0.84375,-0.4375 -0.16406,-0.28797 -0.25002,-0.5358 -0.25,-0.78125 -1e-5,-1.56019 0.19309,-2.77354 0.5625,-3.59375 0.36936,-0.82014 0.6608,-1.34829 0.90625,-1.59375 0.4107,-0.0826 1.0223,-0.12497 1.84375,-0.125 0.8214,4e-5 1.56259,-0.0212 2.21875,-0.0625 0.65613,-0.0413 1.31258,-0.0625 1.96875,-0.0625 0.65611,3e-5 1.4409,-0.0212 2.34375,-0.0625 0.90279,-0.0413 2.00019,-0.10733 3.3125,-0.1875 0.57596,4e-5 1.25236,-0.0759 2.03125,-0.28125 0.77882,-0.20533 1.49882,-0.44079 2.15625,-0.6875 0.65737,-0.24664 1.22661,-0.52572 1.71875,-0.8125 0.49206,-0.28671 0.74996,-0.57814 0.75,-0.90625 -5e-5,-1.06682 -0.50575,-2.19421 -1.53125,-3.34375 -1.02558,-1.14946 -1.83028,-2.03132 -2.40625,-2.6875 -1.31232,-0.41067 -2.32374,-0.66857 -3.0625,-0.75 -0.73883,-0.0813 -1.39528,-0.12496 -1.96875,-0.125 z"
       inkscape:connector-curvature="0"
       id="path2469"
       style="font-size:123.09429169px;font-style:normal;font-variant:normal;font-weight:normal;font-stretch:normal;text-align:start;line-height:125%;writing-mode:lr-tb;text-anchor:start;fill:#c3d93f;fill-opacity:1;stroke:none;font-family:'Walt Disney Script v4.1';-inkscape-font-specification:'Walt Disney Script v4.1'" />
    <path
       d="m -138.70982,295.62558 c -1.39494,9e-5 -3.06158,0.0213 -5.03125,0.0625 -1.96968,0.0414 -4.00136,0.16091 -6.09375,0.40625 -2.09239,0.24552 -4.18886,0.65416 -6.28125,1.1875 -2.09239,0.53351 -3.96221,1.23234 -5.5625,2.09375 -1.60028,0.86158 -2.91195,1.93655 -3.9375,3.25 -1.02552,1.31362 -1.53124,2.92429 -1.53125,4.8125 1e-5,0.819 0.6353,1.34715 1.90625,1.59375 1.27097,0.24676 2.60258,0.37507 4,0.375 0.65615,7e-5 1.24783,-0.0211 1.78125,-0.0625 0.53343,-0.0412 0.94208,-0.0624 1.1875,-0.0625 0.32808,-0.328 0.46876,-0.67185 0.46875,-1 1e-5,-0.41064 -0.18303,-0.72325 -0.59375,-0.96875 -0.16278,-0.0826 -0.50663,-0.16853 -1,-0.25 -0.49335,-0.0813 -0.99781,-0.18846 -1.53125,-0.3125 -0.53342,-0.12389 -1.01796,-0.27339 -1.46875,-0.4375 -0.45078,-0.16396 -0.68749,-0.34824 -0.6875,-0.59375 1e-5,-0.57342 0.95547,-1.0892 2.84375,-1.5 1.64036,-0.41064 3.30825,-0.67963 5.03125,-0.84375 1.723,-0.16395 3.41964,-0.24992 5.0625,-0.25 8.12413,8e-5 15.71387,0.6989 22.8125,2.09375 7.09857,1.39501 14.32225,3.49147 21.625,6.28125 3.44595,1.31236 7.01595,2.85068 10.75,4.65625 3.73394,1.80571 7.39872,3.81496 10.96875,6.03125 3.56989,2.21642 6.97678,4.65549 10.21875,7.28125 3.24182,2.62587 6.07945,5.44234 8.5,8.4375 2.42037,2.99526 4.34491,6.14551 5.78125,9.46875 1.43616,3.32332 2.15615,6.79499 2.15625,10.40625 -9e-5,3.69145 -0.72009,6.82052 -2.15625,9.40625 -1.43634,2.58576 -3.31727,4.78812 -5.65625,6.59375 -2.33916,1.80565 -4.98369,3.24565 -7.9375,4.3125 -2.95397,1.06686 -5.98472,1.91643 -9.0625,2.53125 -3.07792,0.61482 -6.07742,0.99222 -9.03125,1.15625 -2.95395,0.16404 -5.56495,0.25 -7.78125,0.25 -1.55776,0 -3.41876,-0.15075 -5.59375,-0.4375 -2.17508,-0.28675 -4.24786,-1.0491 -6.21875,-2.28125 l -0.125,-26.59375 c 0.49082,-0.16275 0.96424,-0.26107 1.375,-0.34375 0.41067,-0.0826 1.02228,-0.12497 1.84375,-0.125 2.46174,3e-5 5.04274,0.18307 7.75,0.59375 2.70716,0.41075 5.26573,0.91646 7.6875,1.53125 2.42165,0.61485 4.53929,1.29249 6.34375,2.03125 1.80432,0.73882 3.02878,1.47999 3.6875,2.21875 -0.41078,0.82145 -1.17314,1.69095 -2.28125,2.59375 -1.10824,0.90285 -2.0985,1.90191 -3,2.96875 0.65607,0.49088 1.51801,0.86827 2.625,1.15625 1.10686,0.28802 2.04239,0.43752 2.78125,0.4375 1.06679,2e-5 2.07696,-0.32141 3.0625,-0.9375 0.98538,-0.61605 1.8985,-1.35723 2.71875,-2.21875 0.82009,-0.86147 1.47657,-1.76576 1.96875,-2.75 0.49203,-0.98419 0.74992,-1.85494 0.75,-2.59375 -7e-5,-2.05104 -0.65654,-3.846 -1.96875,-5.40625 -1.31237,-1.56018 -3.05386,-2.87061 -5.1875,-3.9375 -2.13378,-1.06682 -4.49925,-1.95875 -7.125,-2.65625 -2.62589,-0.69743 -5.22681,-1.22432 -7.8125,-1.59375 -2.58581,-0.36935 -5.04605,-0.64842 -7.34375,-0.8125 -2.2978,-0.16399 -4.13637,-0.24996 -5.53125,-0.25 l -1.71875,0 c -0.16283,-1.39488 -0.2924,-2.72774 -0.375,-4 -0.0827,-1.27216 -0.1699,-2.52031 -0.25,-3.75 -0.0827,-1.39488 -0.21101,-2.70655 -0.375,-3.9375 -0.16408,-1.23084 -0.4119,-2.34941 -0.78125,-3.375 -0.36943,-1.02548 -0.87515,-2.04572 -1.53125,-3.03125 -0.65618,-0.9854 -1.56929,-1.91087 -2.71875,-2.8125 -0.73883,0.65621 -1.35168,1.81838 -1.84375,3.5 -0.49214,1.68174 -0.89071,3.45552 -1.21875,5.34375 -0.32811,1.88834 -0.60718,3.62859 -0.8125,5.1875 -0.20539,1.55901 -0.31253,2.48447 -0.3125,2.8125 l -0.25,5.0625 c -6.0731,1.0669 -11.06192,2.249 -15,3.5625 -3.93812,1.31358 -7.34626,3.05382 -10.21875,5.1875 -2.70972,1.88831 -4.0625,3.7705 -4.0625,5.65625 0,1.88831 0.65521,3.76924 1.96875,5.65625 1.31353,1.88705 2.66756,3.5537 4.0625,5.03125 1.64034,1.8883 4.2637,4.1978 7.875,6.90625 3.61126,2.70847 8.24387,5.68804 13.90625,8.96875 0.41069,1.88828 0.808,3.69332 1.21875,5.375 0.41068,1.68166 1.06715,3.10049 1.96875,4.25 l 2.84375,0.25 c 0.81889,-1e-5 1.56132,-0.0424 2.21875,-0.125 0.65736,-0.0827 1.35492,-0.21223 2.09375,-0.375 0.40817,-1.39494 0.70085,-2.45754 0.90625,-3.15625 0.20532,-0.69872 0.39717,-1.37511 0.5625,-2.03125 2.78981,0.41071 5.7782,0.83928 8.9375,1.25 3.15919,0.4107 6.15869,0.62499 9.03125,0.625 5.57965,-1e-5 11.14778,-0.67765 16.6875,-2.03125 5.53957,-1.35361 10.50595,-3.40646 14.9375,-6.15625 4.43137,-2.74978 8.03261,-6.19903 10.78125,-10.34375 2.74843,-4.1447 4.12489,-9.01401 4.125,-14.59375 -1.1e-4,-4.18476 -0.95682,-8.29171 -2.84375,-12.3125 -1.88714,-4.02071 -4.38092,-7.84734 -7.5,-11.5 -3.11928,-3.65255 -6.65573,-7.08187 -10.59375,-10.28125 -3.93818,-3.19925 -7.95918,-6.10168 -12.0625,-8.6875 -4.10347,-2.58568 -8.12321,-4.85282 -12.0625,-6.78125 -3.93941,-1.92828 -7.40227,-3.44417 -10.4375,-4.59375 -6.07312,-2.13363 -12.42479,-3.98227 -19.03125,-5.5 -6.60652,-1.51755 -12.70156,-2.24991 -18.28125,-2.25 z m 16.125,56.96875 1.34375,0 -1.09375,23.90625 c -2.87253,-0.65864 -5.68899,-1.65646 -8.4375,-2.96875 -2.74855,-1.31227 -5.09159,-2.79463 -7.0625,-4.4375 -0.90159,-0.65612 -1.88073,-1.39856 -2.90625,-2.21875 -1.02554,-0.82016 -1.99337,-1.63848 -2.9375,-2.5 -0.94416,-0.86148 -1.72894,-1.75341 -2.34375,-2.65625 -0.61483,-0.9028 -0.93751,-1.7723 -0.9375,-2.59375 0,-1.06683 0.78478,-1.95876 2.34375,-2.65625 1.55895,-0.69743 3.5271,-1.28911 5.90625,-1.78125 2.37913,-0.49207 5.00248,-0.86947 7.875,-1.15625 2.87248,-0.28672 5.6229,-0.6094 8.25,-0.9375 z"
       inkscape:connector-curvature="0"
       id="path2485"
       style="font-size:123.09429169px;font-style:normal;font-variant:normal;font-weight:normal;font-stretch:normal;text-align:start;line-height:125%;writing-mode:lr-tb;text-anchor:start;fill:#c3d93f;fill-opacity:1;stroke:none;font-family:'Walt Disney Script v4.1';-inkscape-font-specification:'Walt Disney Script v4.1'" />
    <path
       d="m 115.35268,341.78183 c -0.65615,0.0827 -1.77473,0.96454 -3.375,2.6875 -1.60029,1.72303 -3.25583,3.92664 -4.9375,6.59375 -1.68168,2.66717 -3.18647,5.65556 -4.5,8.9375 -1.31353,3.28198 -1.96875,6.5182 -1.96875,9.71875 10e-6,1.47759 0.21428,2.98112 0.625,4.5 0.41071,1.51891 0.9376,2.99369 1.59375,4.46875 -1.723,4.10465 -3.163,8.00489 -4.3125,11.65625 -1.1495,3.65135 -2.03136,6.88756 -2.6875,9.71875 -0.65614,2.83117 -1.15075,5.17544 -1.4375,7.0625 -0.28675,1.887 -0.40625,3.14272 -0.40625,3.71875 -1e-5,2.62454 0.76361,4.8405 2.28125,6.6875 1.51763,1.84693 3.50696,2.91079 5.96875,3.15625 l 0.34375,-1 c 0.82142,-3.28325 1.51899,-6.22803 2.09375,-8.8125 0.57474,-2.58452 1.16642,-5.10074 1.78125,-7.5625 0.6148,-2.4618 1.31363,-5.02037 2.09375,-7.6875 0.7801,-2.66715 1.8016,-5.75261 3.03125,-9.28125 0.49336,-0.0826 0.95545,-0.14618 1.40625,-0.1875 0.45077,-0.0413 0.90177,-0.0625 1.3125,-0.0625 2.05357,0 4.5897,-0.61286 7.625,-1.84375 3.03526,-1.23089 5.95886,-2.97239 8.75,-5.1875 2.79107,-2.2151 5.15654,-4.83845 7.125,-7.875 1.96837,-3.03652 2.93746,-6.35744 2.9375,-9.96875 -5e-5,-1.22961 -0.0984,-2.71447 -0.34375,-4.4375 -0.24546,-1.72297 -0.67529,-3.36843 -1.25,-4.96875 -0.57479,-1.60025 -1.40193,-2.97546 -2.46875,-4.125 -1.0669,-1.14946 -2.34857,-1.71871 -3.90625,-1.71875 -1.56025,4e-5 -3.44999,0.79593 -5.625,2.4375 -2.17507,1.64164 -4.38977,3.66096 -6.6875,6 -2.29776,2.3391 -4.52255,4.79053 -6.65625,7.375 -2.13373,2.58452 -3.95994,4.84409 -5.4375,6.8125 -0.24544,0.32809 -0.38612,0.50002 -0.46875,0.5 l -0.25,0 c -0.16531,-0.16277 -0.27244,-0.36948 -0.3125,-0.65625 -0.0401,-0.28674 -0.0625,-0.56455 -0.0625,-0.8125 0,-2.21383 0.54931,-4.48348 1.65625,-6.78125 1.10691,-2.29773 2.17202,-4.22101 3.15625,-5.78125 1.88826,-2.87246 3.24105,-4.92532 4.0625,-6.15625 0.8214,-1.23086 1.21873,-2.45532 1.21875,-3.6875 -3e-5,-1.14696 -0.10716,-1.9766 -0.3125,-2.46875 -0.20538,-0.49207 -0.75219,-0.80342 -1.65625,-0.96875 z m 18.09375,12.53125 c 0.82141,3e-5 1.2835,0.4286 1.40625,1.25 0.12267,0.82146 0.18746,1.56264 0.1875,2.21875 -5e-5,5.00624 -1.75264,9.02723 -5.28125,12.0625 -3.77411,3.28322 -7.79509,5.16541 -12.0625,5.65625 0.2454,-0.49085 0.66516,-1.38402 1.28125,-2.65625 0.61606,-1.2722 1.31487,-2.62624 2.09375,-4.0625 0.77883,-1.43623 1.52126,-2.76909 2.21875,-4 0.69744,-1.23087 1.20315,-2.06912 1.53125,-2.5625 0.49333,-0.57347 1.10494,-1.3159 1.84375,-2.21875 0.73877,-0.9028 1.52354,-1.77355 2.34375,-2.59375 0.82014,-0.82015 1.64729,-1.54015 2.46875,-2.15625 0.82139,-0.61604 1.47786,-0.93747 1.96875,-0.9375 z"
       inkscape:connector-curvature="0"
       id="path2475"
       style="font-size:123.09429169px;font-style:normal;font-variant:normal;font-weight:normal;font-stretch:normal;text-align:start;line-height:125%;writing-mode:lr-tb;text-anchor:start;fill:#c3d93f;fill-opacity:1;stroke:none;font-family:'Walt Disney Script v4.1';-inkscape-font-specification:'Walt Disney Script v4.1'" />
  </g>
</svg>
