<?xml version="1.0" encoding="UTF-8" standalone="no"?>
<!-- Created with Inkscape (http://www.inkscape.org/) -->
<svg
   xmlns:dc="http://purl.org/dc/elements/1.1/"
   xmlns:cc="http://web.resource.org/cc/"
   xmlns:rdf="http://www.w3.org/1999/02/22-rdf-syntax-ns#"
   xmlns:svg="http://www.w3.org/2000/svg"
   xmlns="http://www.w3.org/2000/svg"
   xmlns:sodipodi="http://sodipodi.sourceforge.net/DTD/sodipodi-0.dtd"
   xmlns:inkscape="http://www.inkscape.org/namespaces/inkscape"
   width="426"
   height="167"
   id="svg2"
   sodipodi:version="0.32"
   inkscape:version="0.45.1"
   version="1.0"
   inkscape:output_extension="org.inkscape.output.svg.inkscape">
  <g
     inkscape:label="Layer 1"
     inkscape:groupmode="layer"
     id="layer1"
     transform="translate(-69,-761.82738)">
    <g
       clip-path="url(#id3)"
       id="g2190"
       transform="matrix(0.24,0,0,-0.24,69,928.36218)">
          <g
   transform="scale(4.16667,4.16667)"
   id="g2192">


          </g>

        </g>
    <g
       clip-path="url(#id4)"
       id="g2200"
       transform="matrix(0.24,0,0,-0.24,69.403,928.59538)">
          <path
   style="fill:#0b305d;fill-rule:nonzero;stroke:none"
   d="M 96.9727,693.895 C 43.4102,693.895 0,650.461 0,596.902 L 0,96.9844 C 0,43.4375 43.4102,0 96.9727,0 L 775.086,0 L 775.086,693.895 L 96.9727,693.895"
   id="path2202" />

          <path
   style="fill:#619bbc;fill-rule:nonzero;stroke:none"
   d="M 370.984,476.629 C 386.035,550.266 451.184,605.66 529.27,605.66 C 618.496,605.66 690.828,533.324 690.828,444.094 C 690.828,429 688.762,414.391 684.891,400.531 L 682.379,396.816 L 666.105,363.922 L 646.848,336.43 L 624.414,316.734 L 600.754,300.898 L 563.246,287.801 L 525.07,284.719 L 476.879,293.516 L 440.246,311.234 L 413.07,334.453 L 388.66,366.906 L 372.262,411.016 L 368.082,448.531 L 370.984,476.629"
   id="path2204" />

          <path
   style="fill:#619bbc;fill-rule:nonzero;stroke:none"
   d="M 774.328,693.895 L 774.543,0 L 1674.68,0 C 1728.22,0 1771.64,43.4375 1771.64,96.9844 L 1771.64,596.902 C 1771.64,650.461 1728.22,693.895 1674.68,693.895 L 774.328,693.895"
   id="path2206" />

          <path
   style="fill:#ffffff;fill-rule:nonzero;stroke:none"
   d="M 982.203,490.305 C 953.465,495.422 934.309,480.031 934.309,455.047 L 934.309,353.102 L 889.148,353.102 L 889.148,455.047 C 889.148,505 923.703,539.898 982.203,532.707 L 982.203,490.305"
   id="path2208" />

          <path
   style="fill:#ffffff;fill-rule:nonzero;stroke:none"
   d="M 1123.8,459.809 C 1118.31,480.348 1101.21,493.332 1079.66,493.332 C 1059.13,493.332 1042.7,480.348 1036.21,459.809 L 1123.8,459.809 z M 1035.53,422.859 C 1041.33,401.32 1058.45,387.98 1079.66,387.98 C 1094.7,387.98 1109.43,394.461 1116.95,408.492 L 1165.18,408.492 C 1154.93,372.566 1123.8,348.289 1080,348.289 C 1030.39,348.289 989.68,389.34 989.68,440.32 C 989.68,491.281 1030.39,533.02 1080,533.02 C 1132.01,533.02 1175.11,492.664 1168.61,422.859 L 1035.53,422.859"
   id="path2210" />

          <path
   style="fill:#ffffff;fill-rule:nonzero;stroke:none"
   d="M 1278.73,490.613 C 1253.76,490.613 1233.57,468.715 1233.57,439.965 C 1233.57,411.922 1253.76,390.363 1278.73,390.363 C 1303.71,390.363 1323.88,412.613 1323.88,439.965 C 1323.88,468.027 1303.71,490.613 1278.73,490.613 z M 1369.04,352.387 L 1325.94,352.387 L 1325.94,371.207 C 1312.25,356.844 1293.44,348.625 1271.88,348.625 C 1226.05,348.625 1188.07,388.313 1188.07,440.32 C 1188.07,492.664 1226.05,532.352 1271.88,532.352 C 1293.44,532.352 1312.25,524.133 1325.94,509.77 L 1325.94,528.59 L 1369.04,528.59 L 1369.04,352.387"
   id="path2212" />

          <path
   style="fill:#ffffff;fill-rule:nonzero;stroke:none"
   d="M 1398.06,352.387 L 1443.2241,352.387 L 1443.2241,606.922 L 1398.06,606.922 L 1398.06,352.387 z "
   id="path2214" />

          <path
   style="fill:#ffffff;fill-rule:nonzero;stroke:none"
   d="M 968.223,96.1602 C 916.559,90.7031 889.191,121.816 889.191,170.059 L 889.191,231.984 L 867.98,231.984 L 867.98,272.027 L 889.191,272.027 L 889.191,316.836 L 934.332,316.836 L 934.332,272.027 L 968.305,272.027 L 968.305,231.984 L 934.332,231.984 L 934.332,169.727 C 934.332,145.09 945.629,135.848 968.223,137.23 L 968.223,96.1602"
   id="path2216" />

          <path
   style="fill:#ffffff;fill-rule:nonzero;stroke:none"
   d="M 996.711,95.8242 L 1041.8751,95.8242 L 1041.8751,272.0272 L 996.711,272.0272 L 996.711,95.8242 z "
   id="path2218" />

          <path
   style="fill:#ffffff;fill-rule:nonzero;stroke:none"
   d="M 1340.68,95.8242 L 1295.52,95.8242 L 1295.52,198.813 C 1295.52,209.059 1292.11,233.691 1262.68,233.691 C 1242.49,233.691 1228.46,218.633 1228.46,198.813 L 1228.46,95.8242 L 1182.96,95.8242 L 1182.96,198.813 C 1182.96,209.059 1179.89,233.691 1150.13,233.691 C 1130.29,233.691 1116.26,218.633 1116.26,198.813 L 1116.26,95.8242 L 1070.76,95.8242 L 1070.76,272.027 L 1114.21,272.027 L 1114.21,254.922 C 1125.15,268.262 1140.54,276.453 1159.7,276.453 C 1181.61,276.453 1200.07,267.238 1212.39,251.488 C 1225.05,266.879 1243.52,276.453 1266.1,276.453 C 1313.3,276.453 1340.68,244.988 1340.68,198.813 L 1340.68,95.8242"
   id="path2220" />

          <path
   style="fill:#ffffff;fill-rule:nonzero;stroke:none"
   d="M 1494.39,203.246 C 1488.92,223.789 1471.81,236.766 1450.26,236.766 C 1429.74,236.766 1413.31,223.789 1406.82,203.246 L 1494.39,203.246 z M 1406.13,166.301 C 1411.94,144.758 1429.05,131.422 1450.26,131.422 C 1465.31,131.422 1480.03,137.898 1487.56,151.93 L 1535.79,151.93 C 1525.53,116.008 1494.39,91.7305 1450.61,91.7305 C 1401.01,91.7305 1360.3,132.777 1360.3,183.754 C 1360.3,234.715 1401.01,276.453 1450.61,276.453 C 1502.61,276.453 1545.71,236.102 1539.21,166.301 L 1406.13,166.301"
   id="path2222" />

          <path
   style="fill:#ffffff;fill-rule:nonzero;stroke:none"
   d="M 1045.06,312.477 C 1045.06,298.129 1033.41,286.48 1019.05,286.48 C 1004.7,286.48 993.051,298.129 993.051,312.477 C 993.051,326.84 1004.7,338.488 1019.05,338.488 C 1033.41,338.488 1045.06,326.84 1045.06,312.477"
   id="path2224" />

          <path
   style="fill:#619bbc;fill-rule:evenodd;stroke:none"
   d="M 111.461,119.801 L 116.008,119.801 C 125.492,119.801 124.926,124.008 124.926,134.57 L 124.926,182.121 C 124.926,192.547 125.492,196.891 116.008,196.891 L 111.461,196.891 L 111.461,119.801 z M 120.746,220.563 C 143.156,220.563 152.801,210.539 152.801,187.043 L 152.801,129.645 C 152.801,105.973 143.156,96.1016 120.746,96.1016 L 83.9336,96.1016 L 83.9336,220.563 L 120.746,220.563 z M 162.109,204.523 L 187.785,204.523 L 187.785,96.1016 L 162.109,96.1016 L 162.109,204.523 z M 233.5,170.477 L 233.5,180.492 C 233.5,183.965 231.301,186.328 227.656,186.328 C 223.473,186.328 222,184.121 222,179.578 C 222,172.453 231.121,168.461 241.516,160.605 C 254.813,150.777 260.469,140.934 260.469,125.813 C 260.469,103.961 250.262,94.4766 228.949,94.4766 C 204.715,94.4766 196.145,103.23 196.145,127.441 L 196.145,140.762 L 221.82,140.762 L 221.82,125.633 C 221.82,118 222,114.32 227.656,114.32 C 232.398,114.32 234.051,117.461 234.051,124.363 C 234.051,133.66 231.301,136.93 224.406,142.203 C 207.434,155.523 196.504,161.715 196.504,178.133 C 196.504,196.891 206.723,206.176 227.656,206.176 C 249.531,206.176 259.172,197.801 259.172,177.555 L 259.172,170.477 L 233.5,170.477 z M 306.84,160.605 L 306.84,175.043 C 306.84,182.676 306.633,186.328 300.98,186.328 C 295.348,186.328 295.145,182.48 295.145,175.043 L 295.145,125.633 C 295.145,118 295.348,114.32 300.98,114.32 C 306.633,114.32 306.84,118.152 306.84,125.633 L 306.84,140.047 L 332.871,140.047 L 332.871,129.262 C 332.871,105.59 325.945,94.4766 300.98,94.4766 C 276.012,94.4766 269.086,105.59 269.086,129.262 L 269.086,171.387 C 269.086,194.879 276.012,206.176 300.98,206.176 C 325.945,206.176 332.871,195.059 332.871,171.387 L 332.871,160.605 L 306.84,160.605 z M 378.535,175.043 C 378.535,182.676 378.355,186.328 372.699,186.328 C 367.066,186.328 366.887,182.48 366.887,175.043 L 366.887,125.633 C 366.887,118 367.066,114.32 372.699,114.32 C 378.355,114.32 378.535,118.152 378.535,125.633 L 378.535,175.043 z M 372.699,206.176 C 397.668,206.176 404.582,195.059 404.582,171.387 L 404.582,129.262 C 404.582,105.59 397.668,94.4766 372.699,94.4766 C 347.738,94.4766 340.805,105.59 340.805,129.262 L 340.805,171.387 C 340.805,194.879 347.738,206.176 372.699,206.176 z M 445.199,116.887 C 449.016,128.555 451.012,144.41 451.012,164.258 L 451.012,204.523 L 476.711,204.523 L 476.711,160.605 C 476.711,132.559 470.516,110.691 459.598,96.1016 L 430.813,96.1016 C 419.875,110.691 413.684,132.559 413.684,160.605 L 413.684,204.523 L 439.359,204.523 L 439.359,164.258 C 439.359,144.41 441.563,128.555 445.199,116.887 z M 509.711,166.078 L 522.105,166.078 L 522.105,174.285 C 522.105,182.676 521.926,186.328 515.887,186.328 C 509.895,186.328 509.711,182.676 509.711,174.285 L 509.711,166.078 z M 509.711,146.238 L 509.711,125.633 C 509.711,118 509.895,114.32 515.887,114.32 C 521.926,114.32 522.105,118.332 522.105,125.633 L 522.105,140.047 L 547.797,140.047 L 547.797,129.262 C 547.797,105.59 540.879,94.4766 515.887,94.4766 C 490.938,94.4766 484.012,105.59 484.012,129.262 L 484.012,171.387 C 484.012,194.879 490.938,206.176 515.887,206.176 C 540.879,206.176 547.797,195.059 547.797,171.387 L 547.797,146.238 L 509.711,146.238 z M 580.59,204.523 L 580.59,198.688 C 584.238,202.895 589.527,205.793 597.188,205.793 C 615.23,205.793 619.414,194.328 619.414,172.832 L 619.414,152.793 L 593.723,152.793 L 593.723,175.043 C 593.723,182.676 593.535,186.328 587.883,186.328 C 582.246,186.328 582.066,182.48 582.066,175.043 L 582.066,96.1016 L 556.359,96.1016 L 556.359,204.523 L 580.59,204.523 z M 653.777,204.523 L 653.777,164.438 C 653.777,144.059 655.984,126.352 659.613,112.16 C 663.285,125.813 665.453,143.648 665.453,164.438 L 665.453,204.523 L 691.152,204.523 L 691.152,165.551 C 691.152,137.289 687.324,112.875 668.371,83.5469 L 628.105,83.5469 L 628.105,98.668 L 645.227,98.668 C 633.203,119.801 628.105,140.762 628.105,165.551 L 628.105,204.523 L 653.777,204.523"
   id="path2226" />

          <path
   style="fill:#145093;fill-rule:nonzero;stroke:none"
   d="M 683.152,452.934 C 683.832,458.059 683.277,463.367 682.273,468.633 C 682.148,468.973 682.055,469.344 681.945,469.691 C 679.43,477.848 671.086,497.723 671.086,493.59 C 670.922,487.512 675.137,480.652 671.273,475.371 C 669.355,473.102 666.746,480.262 663.352,478.332 C 661.727,477.348 664.301,472.273 663.016,469.691 C 662.262,468.16 661.008,467.211 660.227,465.262 C 657.438,460.453 651.141,460.176 648.664,455.188 C 647.762,453.551 651.391,454.813 652.871,454.617 C 660.992,453.574 671.004,462.777 673.359,462.23 C 673.359,462.23 679.168,462.723 683.152,452.934 z M 676.148,437.297 C 676.336,440.938 672.188,440.668 669.68,440.801 C 666.707,440.734 663.09,440.262 660.582,438.504 C 659.465,437.535 657.988,435.598 658.102,434.184 C 658.234,433.398 665.887,437.445 669.797,435.871 C 672.332,434.66 670.727,431.188 671.074,429.246 C 671.348,428.359 672.039,429.453 672.461,429.797 C 675.066,431.504 673.941,434.703 673.613,436.895 C 673.438,437.723 675.34,437.781 676.148,437.297 z M 672.184,408.602 C 671.938,411.23 668.027,415.836 665.348,410.973 C 663.527,407.684 663.816,396.707 658.848,391.102 C 656.414,388.855 664.563,392.637 666.355,394.805 C 669.93,398.945 672.395,403.684 672.184,408.602 z M 658.34,410.426 C 658.289,412.488 655.453,409.719 655.832,411.207 C 656.773,415.629 657.043,420.328 655.926,424.848 C 653.668,434.859 649.523,444.875 638.461,449.387 C 636.367,450.305 636.398,449.09 636.875,448.73 C 642.246,443.863 650.367,437.961 647.09,429.539 C 646.613,428.621 645.102,427.988 644.41,428.82 C 639.914,435.43 633.949,440.895 626.891,445.367 C 622.484,447.488 617.992,450.359 613.637,449.801 C 615.223,446.066 620.941,446.211 622.965,443.215 C 624.563,440.668 629.523,439.238 628.902,436.555 C 628.023,433.184 624.039,435.348 621.699,434.281 C 620.918,433.938 619.48,433.695 619.715,432.492 C 620.07,430.871 629.879,430.367 633.102,425.93 C 636.766,421.168 638.867,414.555 636.887,409.004 C 635.758,404.969 631.707,403.559 628.816,401.336 C 626.934,399.863 633.438,401.23 633.359,398.051 C 633.078,394.449 629.324,393.078 626.273,391.824 C 618.891,389.008 604.41,388.496 603.414,389.598 C 602.621,390.602 602.398,390.277 602.109,393.168 C 601.945,394.055 600.961,393.973 600.289,393.688 C 597.316,392.715 594.734,388.609 595.738,386.531 C 602.141,376.527 614.676,378.008 624.75,378.492 C 628.023,378.844 632.383,379.789 634.754,381.426 C 644.824,388.211 658.766,395.852 658.34,410.426 z M 626.977,366.324 C 612.93,360.797 598.809,362.609 585.621,367.84 C 584.398,368.348 582.672,369.941 581.766,367.906 C 580.922,366.121 589.574,362.852 593.629,361.051 C 604.273,357.188 619.082,356.137 627.523,364.953 C 627.734,365.359 627.703,366.191 626.977,366.324 z M 619.652,333.441 C 616.566,331.336 612.633,330.121 608.945,329.281 C 603.953,328.82 599.387,331.293 594.684,332.008 C 595.059,327.781 602.309,329.188 602.453,325.941 C 602.434,323.141 599.563,322.109 597.582,320.969 C 606.297,320.746 615.305,325.891 619.652,333.441 z M 587.074,335.074 C 582.754,335.039 581.25,340.969 577.73,341.426 C 576.871,341.516 575.566,341.168 575.313,339.992 C 574.84,337.582 577.785,333.598 581.77,333.309 C 583.418,333.164 586.586,332.145 587.074,335.074 z M 573.828,372.055 C 577.84,371.773 564.848,379.68 559.363,380.441 C 557.641,380.559 556.02,379.961 555.164,378.723 C 552.324,374.598 550.379,371.137 550.609,367.125 C 550.758,365.383 552.57,362.621 554.852,364.258 C 557.16,366.121 554.508,369.004 555.895,371.188 C 560.809,376.926 567.879,372.434 573.828,372.055 z M 546.824,398.418 C 550.793,400.672 556.25,403.809 556.277,408.75 C 556.285,409.168 555.914,408.965 555.602,408.75 C 553.164,407.082 549.445,403.477 548.223,403.641 C 546.289,403.809 544.078,401.59 543.117,399.898 C 542.457,398.617 545.563,397.73 546.824,398.418 z M 531.422,414.945 C 532.902,413.816 534.16,414.242 535.113,415.766 C 540.762,424.832 540.715,434.777 538.18,444.961 C 537.309,448.48 534.52,451.91 530.484,452.336 C 528.82,452.453 526.699,450.957 526.328,448.582 C 525.852,444.309 525.383,440.961 522.871,437.039 C 521.871,435.207 521.336,432.57 523.813,431.258 C 526.516,430.113 527.23,437.883 531.188,436.379 C 532.293,435.883 532.285,434.566 532.109,433.309 C 531.422,427.523 534.668,424.047 532.492,418.875 C 530.707,414.871 531.422,414.945 531.422,414.945 z M 522.371,474.082 C 522.895,475.629 523.863,477.098 523.121,478.844 C 522,481.516 520.59,483.957 517.375,485.137 C 514.813,486.738 511.633,483.09 514.914,481.34 C 518.602,480.262 518.922,475.5 522.371,474.082 z M 507.375,445.984 L 506.277,444.078 C 506.07,434.672 503.484,426.23 497.992,417.887 C 502,418.102 504.559,421.59 506.305,424.605 C 508.277,431.504 513.836,439.973 507.375,445.984 z M 499.172,370.684 C 494.066,370.684 494.23,363.992 489.891,362.488 C 492.77,361.895 495.629,363.879 497.91,365.246 C 499.504,366.59 500.137,368.891 499.172,370.684 z M 482.516,369.965 C 468.785,361.023 453.129,365.738 438.676,365.523 C 433.563,365.254 428.691,363.113 426.176,358.508 C 425.797,357.621 425.391,356.695 426.188,356.227 C 427.324,356.793 427.684,358.191 428.758,359.027 C 434.434,362.602 441.941,362.152 447.801,358.375 C 449.316,357.117 449.742,355.227 448.336,353.238 C 444.359,348.027 438.934,340.16 442.551,332.973 C 444.188,329.082 452.348,324.27 453.027,326.539 C 453.859,329.813 450.246,330.863 448.254,332.914 C 445.555,336.074 447.066,340.051 449.125,342.727 C 457.086,351.664 467.758,357.152 478.57,362.453 C 481.223,364.066 483.395,367.047 482.516,369.965 z M 436.957,349.766 C 433.828,350.633 431.961,347.387 430.465,345.047 C 429.434,342.832 429.855,339.781 431.223,337.512 C 431.934,336.684 433.188,335.145 434.348,335.723 C 431.035,340.441 434.477,345.949 436.957,349.766 z M 425.289,389.977 C 419.434,391.898 413.34,392.059 407.715,395.738 C 406.586,396.129 403.887,396.059 405.102,394 C 410.316,388.199 418.609,387.438 425.289,389.977 z M 424.965,374.781 C 421.523,378.77 415.719,374.094 411.645,373.082 C 409.332,372.539 405.121,374.191 404.746,372.234 C 403.887,367.492 407.273,363.133 410.832,360.281 C 412.336,359.219 413.43,362.934 414.316,364.699 C 415.91,367.914 419.254,368.828 422.383,369.828 C 424.293,370.594 426.75,372.383 424.965,374.781 z M 400.805,377.723 C 403.734,377.25 407.121,378.234 409.887,379.309 C 406.223,379.68 402.27,382.117 398.879,380.441 C 398.879,380.441 395.402,378.172 400.805,377.723 z M 384.848,453.438 C 379.41,443.559 383.445,432.938 387.527,422.809 C 389.555,418.402 394.398,414.945 399.609,413.547 C 414.273,411.512 432.352,413.816 445.27,421.77 C 445.895,422.203 445.645,423.672 444.277,423.277 C 434.555,420.855 425.039,424.336 415.785,427.125 C 413.813,427.641 410.246,424.305 407.273,424.68 C 404.766,425.27 402.66,425.996 402.137,428.563 C 401.965,430.23 403.781,430.734 404.621,431.727 C 401.129,432.73 396.359,436.461 396.359,436.461 C 391.074,440.996 388.863,447.637 385.637,453.648 C 385.262,454.469 384.848,453.438 384.848,453.438 z M 393.617,476.539 C 392.965,474.375 393.012,471.988 393.535,469.691 C 394.059,467.402 395.055,465.172 396.336,463.316 C 397.551,460.602 401.195,459.965 403.371,459.246 C 404.375,459.859 405.844,458.91 406.273,460.371 C 403.195,463.055 400.926,466.301 398.84,469.691 C 397.508,471.883 396.227,474.148 394.844,476.352 C 393.891,477.988 393.617,476.539 393.617,476.539 z M 394.363,457.621 C 393.145,453.176 397.18,449.965 399.816,447.09 C 401.801,444.734 405.379,443.742 406.668,440.848 C 407.078,439.758 405.016,439.953 405.699,439.129 C 407.699,437.012 410.934,435.535 413.121,436.445 C 417.133,438.289 421.996,437.883 425.938,436.828 C 427.492,436.379 429.211,436.004 429.863,438.031 C 430.309,439.809 427.203,441.805 424.801,442.035 C 414.566,443.117 404.004,449.223 397.57,456.43 C 395.09,459.355 394.363,457.621 394.363,457.621 z M 409.004,470.211 C 409.004,470.023 409.023,469.859 409.031,469.691 C 409.195,463.813 412.105,457.84 417.301,456.031 C 417.152,458.773 421.316,459.469 420.18,462.145 C 418.855,464.59 417.59,466.77 417.246,469.691 C 416.973,472.016 416.949,474.457 416.879,476.645 C 417.09,478.934 416.391,483.84 414.441,482.871 C 409.574,480.465 409.324,474.711 409.004,470.211 z M 426.777,502.578 C 421.301,498.238 419.664,490.734 419.477,484.379 C 419.441,481.996 420.688,479.27 423.398,478.906 C 424.934,478.973 424.961,481.098 424.395,482.223 C 422.613,485.453 424.625,494.422 428.402,495.438 C 435.125,497.074 438.313,504.234 443.102,508.582 C 444.301,509.746 445.973,508.938 446.664,510.82 C 446.828,511.5 446.57,512.082 446.133,512.543 C 445.73,512.953 445.227,513.281 444.73,513.512 C 443.688,514.059 441.887,513.039 440.582,512.543 C 436.07,510.789 432.762,506.945 430.195,502.488 C 429.863,501.957 428.816,502.219 428.164,502.715 C 427.535,502.938 426.777,502.578 426.777,502.578 z M 454.398,398.781 C 449.316,404.43 442.008,400.316 436.07,397.984 C 433.613,397.117 430.176,399.801 427.379,399.141 C 424.727,398.434 440.059,387.867 443.723,391.688 C 446.766,394.637 456.902,396.039 454.398,398.781 z M 456.297,385.379 C 457.063,385.078 458.457,385.195 458.688,386.266 C 459.422,388 457.164,388.492 456.387,389.465 C 455.043,389.727 453.914,388.898 453.168,387.852 C 453.168,387.852 452.434,386.145 456.297,385.379 z M 465.004,386.09 C 469.215,385.438 472.914,384.215 476.148,387.477 C 477.102,388.961 478.25,391.336 475.977,392.777 C 473.992,394.297 465.063,391.289 459.586,390.602 C 459.586,390.602 452.863,390.691 465.004,386.09 z M 465.191,403.559 C 477.309,405.555 485.32,414.727 490.68,425.848 C 492.871,430.367 494.398,435.102 494.586,439.387 C 494.723,443.926 496.758,449.426 492.027,453.523 C 489.598,455.188 487.395,448.523 485.934,445.773 C 482.035,436.211 473.699,432.434 466.891,426.715 C 465.555,425.621 467.625,424.965 468.711,424.746 C 471.188,424.625 474.348,425.891 476.598,427.266 C 478.613,427.988 480.234,430.574 482.715,429.512 C 484.328,427.648 482.805,425.727 482.637,423.797 C 479.84,413.348 469.063,411.672 463.289,404.934 C 463.289,404.934 461.516,403.113 465.191,403.559 z M 422.598,458.457 C 420.367,454.797 422.398,450.414 424.988,447.969 C 432.352,441.426 441.895,440.766 450.773,440.848 C 455.664,441.109 460.273,442.195 464.676,445.184 C 465.953,446.105 461.004,446.898 462.789,447.465 L 471.688,450.121 C 472.949,450.418 473.523,451.32 474.949,451.828 C 478.961,453.398 481.77,456.867 482.035,461.27 C 481.918,463.633 481.059,466.535 479.113,468.07 C 478.25,468.672 477.371,469.211 476.457,469.691 C 471.688,472.266 466.266,473.219 461.039,471.391 C 460.395,471.133 459.445,470.578 458.883,469.992 C 457.445,468.484 456.598,466.516 457.641,464.363 C 458.746,461.625 460.727,465.262 462.301,463.578 C 463.023,462.738 463.832,461.625 462.789,460.473 C 459.898,457.621 456.988,457.188 454.691,457.629 C 451.082,458.773 447.332,460.422 447.035,465.004 C 447.098,466.613 447.699,468.176 448.477,469.691 C 448.879,470.504 449.086,471.242 449.793,472.125 C 455.645,478.512 466.215,478.727 473.82,477.934 L 473.625,478.074 C 472.563,478.801 472.664,480.375 473.609,481.289 C 477.277,483.215 480.84,481.281 484.34,479.926 C 488.348,477.848 491.453,474.191 492.359,469.691 C 492.547,468.773 492.645,467.809 492.555,466.738 C 492.387,464.203 491.262,461.055 493.43,459.246 C 494.945,458.141 496.438,459.75 496.988,460.945 C 498.16,463.684 498.496,466.695 498.168,469.691 C 497.637,474.711 495.301,479.691 492.137,483.215 C 487.332,489.75 477.879,494.52 469.918,492.82 C 467.18,491.563 470.707,490.223 469.051,488.504 C 466.602,486.469 458.301,487.996 453.223,486.906 C 450.695,486.469 447.141,482.273 445.484,484.645 C 443.328,488.316 453.727,493.621 449.465,492.691 C 439.359,490.754 435.891,479.863 433.578,471.453 C 432.609,466.641 435.145,460.875 438.441,458.02 C 441.316,454.625 448.051,452.625 446.246,447.359 C 445.539,445.465 440.418,448.215 437.516,448.504 C 431.961,449.441 425.824,452.422 424.02,458.59 C 423.461,460.031 422.598,458.457 422.598,458.457 z M 457.402,496.422 C 467.512,497.695 477.383,497.367 486.793,493.664 C 488.352,492.957 490.566,490.359 490.078,493.109 C 489.438,496.422 486.426,501.363 483.805,499.68 C 479.648,497.109 477.637,500.836 474.723,502.258 C 470.414,503.949 464.621,500.578 459.793,498.953 C 458.652,498.523 455.293,496.082 457.402,496.422 z M 480.105,505.563 C 484.48,506.41 490.223,501.746 493.133,507.441 C 493.84,509.207 490.477,509.375 489.012,509.141 C 486.016,508.844 481.703,508.805 479.77,506.176 C 479.148,505.387 480.105,505.563 480.105,505.563 z M 502.941,452.68 C 506.305,453.84 508.352,457.91 508.805,461.254 C 509.035,464.129 508.566,467.125 507.332,469.691 C 506.391,471.703 504.98,473.449 503.012,474.637 C 502.449,474.836 501.461,474.734 501.316,474.008 C 502.227,472.645 502.84,471.172 503.309,469.691 C 505.047,464.16 504.125,458.039 502.941,452.68 z M 529.371,490.793 C 523.813,496.969 516.633,504.734 507.457,505.328 C 505.305,502.559 501.945,503.578 498.957,503.391 C 497.602,503.375 496.605,501.508 497.762,500.859 C 505.125,498.254 510.684,489.809 518.77,491.973 C 520.266,492.355 517.188,494.086 517.848,495.438 C 519.195,497.922 525.074,491.289 529.207,489.82 C 529.207,489.82 530.383,489.559 529.371,490.793 z M 529.828,482.07 C 528.207,482.895 523.738,482.938 526.016,479.445 C 528.398,476.906 529.125,473.273 529.754,469.691 C 529.902,468.773 529.422,467.445 530.234,466.98 L 531.633,466.152 C 533.898,465.66 534.137,479.887 529.828,482.07 z M 550.324,514.117 C 552.066,513.383 553.895,512.898 555.754,512.543 C 559.363,511.887 563.137,511.895 566.875,512.543 C 570.633,513.207 574.348,514.48 577.785,516.352 C 579.895,517.43 580.711,519.355 580.445,520.984 C 571.02,515.84 558.246,515.277 548.066,514.832 L 550.324,514.117 z M 580.773,484.223 C 581.715,484.695 584.129,483.695 583.34,485.121 C 579.598,488.887 574.012,489.84 570.965,494.129 C 569.352,495.73 568.004,493.184 567.758,491.828 C 567.371,489.512 564.379,489.629 562.566,488.395 C 560.391,486.703 562.703,485.367 563.777,484.461 C 569.328,481.281 575.313,481.465 580.773,484.223 z M 585.621,432.207 C 584.68,432.863 583.664,432.508 582.727,432.27 C 581.082,431.316 580.613,430.223 579.625,428.543 C 578.441,426.672 579.387,424.637 580.984,423.43 C 581.543,423.262 582.941,423.141 583.063,424.27 C 581.23,427.609 584.289,429.871 585.621,432.207 z M 590.336,395.551 C 588.438,393.836 586.875,391.602 586.875,389.086 C 586.93,388.023 588.637,386.582 590.172,387.586 C 590.625,388.152 590.492,388.617 590.582,389.246 C 590.758,392.078 593.109,393.816 593.547,396.223 C 593.523,398.352 590.336,395.551 590.336,395.551 z M 595.086,426.297 C 596.051,429.797 600.195,429.797 602.691,431.555 C 604.008,432.695 606.828,431.066 606.48,433.012 L 596.836,432.125 C 593.078,430.699 590.172,427.543 588.5,423.688 C 587.754,422.359 588.625,420.684 589.816,419.965 C 593.316,418.086 598.176,418.391 600.824,420.445 C 598.68,421.82 594.961,423.027 595.086,426.297 z M 615.305,486.371 C 613.648,489.336 609.063,491.859 611.449,495.965 C 613.188,498.953 598.266,508.066 595.938,505.328 C 592.09,500.977 581.16,504.672 581.949,503.625 C 581.949,503.625 582.699,502.273 583.453,501.141 C 585.566,497.836 577.57,501.582 575.559,498.578 C 574.48,497.066 582.813,496.281 586.383,494.355 C 588.977,493.254 591.352,489.258 593.129,490.469 C 594.809,491.777 592.145,494.063 592.828,495.055 C 595.035,497.938 599.043,497.723 601.629,496.816 C 607.82,494.313 601.16,490.387 601.18,487.027 C 601.195,484.766 613.52,484.16 614.578,485.199 C 614.578,485.199 615.734,485.785 615.305,486.371 z M 587.934,527.918 C 588.73,527.184 589.629,527.227 590.613,527.445 C 595.652,528.98 600.246,532.746 601.293,538.027 C 601.527,539.441 601.055,542.004 598.602,542.41 C 597.449,542.508 596.516,542.672 596.648,542.328 C 598.746,536.813 592.23,530.934 587.934,527.918 z M 610.82,536.684 C 610.016,529.23 602.848,526.816 597.652,523.383 C 605.852,523.871 614.691,525.762 619.777,531.523 C 622.141,534.441 621.699,538.316 620.621,542.035 C 618.746,547.734 610.215,549.555 605.93,552.793 C 606.664,547.398 611.723,542.871 610.82,536.684 z M 626.863,463.883 C 634.914,457.895 645.613,462.695 653.117,467.332 C 644.703,470.211 635.934,461.469 627.133,464.379 C 625.93,464.758 626.863,463.883 626.863,463.883 z M 641.59,497.32 C 641.121,496.133 648.5,492.195 649.059,493.297 C 650.188,496.395 646.5,496.516 644.91,497.957 C 644.172,498.789 642.211,498.855 641.59,497.32 z M 653.207,487.676 C 653.422,485.02 654.621,481.789 657.543,480.609 C 657.324,481.809 657.074,482.316 657.758,483.723 C 658.98,486.086 656.172,487.039 654.879,488.301 C 654.242,488.91 653.184,488.609 653.207,487.676 z M 657.926,520.512 L 658.336,517.707 C 658.418,516.223 660.234,514.398 660.992,512.543 C 662.148,509.703 663.176,506.773 664.938,504.785 C 665.922,507.609 665.398,510.18 664.207,512.543 C 662.68,515.563 660.066,518.215 657.926,520.512 z M 571.957,549.484 C 570.793,554.43 564.707,557.043 560.672,557.324 C 557.723,557.547 553.77,556.766 551.559,554.816 C 550.047,553.527 547.977,551.117 548.723,548.938 C 551.961,545.07 555.52,550.508 559.438,549.609 C 562.012,548.504 565.59,549.375 567.352,546.375 C 567.996,545.25 567.816,543.086 567.578,542.328 C 567.578,542.328 567.059,541.402 568.688,542.637 C 570.313,543.895 572.543,546.988 571.957,549.484 z M 545.367,569.371 C 541.422,572.742 539.742,573.551 535.016,572.129 C 533.898,571.672 534.563,569.496 534.059,568.129 C 533.668,566.754 532.699,566.102 531.301,566.133 C 529.527,566.324 529.34,569.078 527.348,568.801 C 524.027,568.43 521.023,566.199 518.426,564.223 C 517.887,563.809 517.93,563.113 517.938,562.594 C 517.938,561.723 518.152,560.828 518.488,559.883 C 519.121,557.758 522.805,556.457 525.605,557.441 L 536.168,561.375 L 538.582,562.32 C 541.52,563.656 548.492,567.063 545.367,569.371 z M 538.445,542.277 C 535.164,544.973 527.367,545.148 526.598,543.605 C 526.285,542.566 527.285,541.797 527.934,541.242 C 528.348,540.781 538.789,537.047 540.043,538.789 C 540.863,540.484 538.715,540.906 538.445,542.277 z M 388.043,505.691 L 387.953,504.578 C 387.559,497.574 383.18,489.223 387.93,483.09 C 388.57,482.199 389.227,482.051 390.082,482.797 C 390.824,483.422 388.832,499.965 393.492,507.344 C 394.469,508.891 395.836,504.777 397.195,503.602 C 399.055,501.434 402.094,501.957 404.813,503.117 C 407.664,504.754 411.164,506.547 411.699,510.039 C 412.125,512.324 399.48,506.082 397.34,510.695 C 397.164,511.035 397.109,511.371 397.035,511.711 C 396.59,513.484 397.199,515.242 397.934,516.887 C 398.617,518.758 401.836,520.277 403.703,518.867 C 406.34,516.82 409.73,516.086 412.984,516.777 C 419.523,518.867 425.316,523.254 426.949,530.074 C 422.16,526.988 415.879,522.473 409.598,524.594 C 407.91,525.418 406.613,527.66 407.297,529.559 C 412.125,540.953 423.762,549.336 436.855,548.855 C 438.324,548.832 440.262,547.73 440.918,546.223 C 441.91,544.168 436.492,540.996 438.625,540.629 C 441.184,540.375 444.488,542.539 447.574,541.988 C 449.871,541.5 449.895,539.414 449.813,537.832 C 449.348,535.129 446.988,533.895 444.871,532.809 C 441.137,531.203 439.539,536.828 437.238,532.574 C 436.574,531.328 436.66,529.23 437.684,527.719 C 438.938,525.949 441.73,526.445 443.762,526.895 C 449.133,528.168 451.82,533.566 456.949,534.395 C 462.23,535.207 455.395,525.375 462.215,525.391 C 464.797,525.391 465.637,527.727 467.379,528.652 C 482.457,536.828 498.063,528.926 510.793,520.367 C 515.625,517.145 527.438,513.711 528.227,515.891 C 529.551,519.617 525.492,519.641 523.824,521.969 C 523.039,523.637 520.516,524.008 520.453,526.199 C 520.434,527.98 522.945,527.918 524.109,527.367 C 539.023,519.738 555.586,519.414 571.566,524.891 C 572.316,525.055 573.277,526.078 572.574,526.621 C 571.566,527.5 570.066,529.844 572.355,530.289 C 580.828,533.145 590.234,538.332 590.445,548.152 C 589.898,553.781 585.621,557.441 580.309,558.891 C 577.234,559.867 570.789,558.188 572.316,557.516 C 575.984,556.082 580.523,553.605 581.488,549.641 C 581.949,545.684 580.539,541.348 577.395,538.535 C 568.035,531.289 554.828,527.75 543.242,531.035 C 541.828,531.523 542.289,535.266 539.742,535.102 C 531.414,535.531 523.039,535.891 515.078,539.094 C 514.273,539.586 513.766,540.801 514.043,541.73 C 514.785,543.77 517.797,542.867 518.898,544.531 C 520.539,547.922 510.055,549.223 505.633,552.172 C 501.203,554.188 491.582,552.172 492.191,556.277 C 492.957,560.594 499.617,558.77 503.055,560.211 C 503.813,560.555 503.43,561.055 503.199,561.898 C 502.305,565.176 499.875,569.703 504.316,571.57 C 513.738,576.047 523.082,579.813 533.145,581.215 C 539.41,582.051 541.551,577.566 541.551,577.566 C 547.063,581.215 553.391,580.246 558.559,577.309 C 558.973,577.086 559.387,576.859 559.777,576.602 C 561.293,575.672 564.047,573.871 564.762,571.793 C 565.258,570.438 566.023,573.172 565.797,574.066 C 565.16,576.809 562.762,577.141 561.145,579.422 C 559.68,581.48 556.902,581.711 558.578,584.477 C 559.223,585.625 561.332,585.871 562.785,585.82 C 568.863,585.578 577.371,583.723 582.141,581.336 C 583.602,580.605 585.418,579.879 585.32,578.5 C 585.301,577 581.004,579.313 579.699,579.242 C 577.84,579.137 577.563,583.188 577.883,580.84 C 578.07,579.496 582.051,579.16 584.289,578.34 C 589.332,576.461 594.578,574.359 597.855,570.395 C 597.52,568.465 598.254,567.152 599.449,566.117 C 601.648,564.277 605.336,563.199 607.805,561.668 C 616.953,556.535 623.277,549.074 627.465,540.125 C 627.766,539.406 629.34,539.809 629.723,540.457 C 631.645,544.242 629.141,548.426 627.211,551.426 C 624.863,556.016 620.598,559.086 616.332,562.219 C 614,563.961 611.68,565.734 609.684,567.801 C 609.086,568.496 609.895,569.496 610.688,569.516 C 614.777,569.742 617.914,567.152 621.832,565 C 623.613,564.18 625.027,562.961 626.387,561.711 C 627.879,560.305 629.285,558.891 630.926,557.848 C 629.863,559.199 628.703,560.469 627.496,561.723 C 620.813,568.66 612.02,574.254 602.723,578.34 C 601.543,578.887 600.121,580.055 600.68,581.148 C 601.508,582.586 603.332,582.211 604.645,582.133 C 605.539,582.035 609.215,582.609 610.441,581.996 C 618.238,577.688 621.852,575.02 628.707,569.566 C 629.848,568.648 631.535,567.746 632.633,566.793 C 632.332,567.063 634.09,565.602 633.805,565.855 C 634.914,564.969 636.559,562.445 636.734,562.188 C 646.48,553.254 655.102,543.125 662.414,532.063 C 666.84,525.59 670.816,518.785 674.246,511.711 C 680.777,498.328 685.398,483.906 687.91,468.836 C 689.648,458.395 690.383,447.613 689.949,436.621 C 689.582,379.422 651.258,324 600.816,299.367 C 573.703,285.543 544.246,281.098 515.609,283.984 C 433.035,290.555 368.035,359.586 368.035,443.848 C 368.035,452.359 368.711,460.699 369.98,468.836 L 371.082,474.637 C 371.359,476.063 371.25,473.879 371.68,473.133 C 372.648,471.969 375.793,466.516 377.508,466.223 C 378.379,466.152 379.172,467.141 378.945,467.988 C 378.898,468.273 378.84,468.566 378.789,468.836 C 378.027,473.297 376.875,477.648 376.297,481.902 C 375.711,486.258 379.43,490.602 381.262,494.672 C 383.059,498.016 381.727,502.047 385.379,505.105 C 385.379,505.105 388.172,507.609 388.043,505.691 z M 508.492,581.367 C 507.801,580.508 507.926,579.059 508.848,579.719 C 514.242,582.297 519.445,577.953 523.957,580.473 C 525.32,581.258 524.047,583.145 522.277,583.586 C 517.93,584.34 511.648,585.074 508.492,581.367 z M 488.02,568.355 C 488.297,562.152 479.047,562.59 477.102,559.398 C 476.43,558.398 469.684,552.738 469.879,556.336 C 470.414,562.836 477.289,564.332 481.398,567.688 C 484.176,569.797 487.938,569.711 488.02,568.355"
   id="path2228" />

          <path
   style="fill:#ffffff;fill-rule:nonzero;stroke:none"
   d="M 1541.95,309.957 L 1541.95,273.07 L 1533.43,273.07 L 1533.43,309.957 L 1521.41,309.957 L 1521.41,317.902 L 1553.97,317.902 L 1553.97,309.957 L 1541.95,309.957"
   id="path2230" />

          <path
   style="fill:#ffffff;fill-rule:nonzero;stroke:none"
   d="M 1603.25,273.07 L 1594.85,273.07 L 1594.85,305.953 L 1585.74,273.07 L 1576.64,273.07 L 1567.53,305.953 L 1567.53,273.07 L 1559.13,273.07 L 1559.13,317.902 L 1571.79,317.902 L 1581.15,284.313 L 1590.52,317.902 L 1603.25,317.902 L 1603.25,273.07"
   id="path2232" />

        </g>
  </g>
</svg>
