<?xml version="1.0" encoding="UTF-8" standalone="no"?>
<!-- Created with Inkscape (http://www.inkscape.org/) -->

<svg
   xmlns:dc="http://purl.org/dc/elements/1.1/"
   xmlns:cc="http://creativecommons.org/ns#"
   xmlns:rdf="http://www.w3.org/1999/02/22-rdf-syntax-ns#"
   xmlns:svg="http://www.w3.org/2000/svg"
   xmlns="http://www.w3.org/2000/svg"
   xmlns:inkscape="http://www.inkscape.org/namespaces/inkscape"
   version="1.1"
   width="444.90634"
   height="310"
   id="svg2">
  <metadata
     id="metadata8">
    <rdf:RDF>
      <cc:Work
         rdf:about="">
        <dc:format>image/svg+xml</dc:format>
        <dc:type
           rdf:resource="http://purl.org/dc/dcmitype/StillImage" />
        <dc:title />
      </cc:Work>
    </rdf:RDF>
  </metadata>
  <defs
     id="defs6" />
  <path
     d="M 155,5 C 72.157287,5 5,72.157287 5,155 5,237.84271 72.157287,305 155,305 237.84271,305 305,237.84271 305,155 305,72.157287 237.84271,5 155,5 z m 211.59375,111.09375 0,15.59375 0,15.59375 -13.96875,0 -14,0 0,-15.53125 0,-15.53125 -10.5625,0 -10.5625,0 0,42.25 0,42.25 10.5625,0 10.5625,0 0,-18.65625 0,-18.625 14,0 13.96875,0 0,18.625 0,18.65625 15.375,0 c 26.8666,-0.004 36.78209,-2.86617 46.71875,-13.46875 7.57394,-8.08154 11.19685,-17.51427 11.21875,-29.28125 0.0254,-13.63058 -5.44344,-25.55048 -15.0625,-32.78125 -4.96794,-3.73448 -7.27472,-4.86855 -13.9375,-6.90625 -5.35505,-1.63776 -5.93791,-1.69218 -24.90625,-1.9375 z m 21.75,15.46875 5.4375,0.34375 c 6.33389,0.3939 9.78549,1.51588 14.28125,4.59375 5.78488,3.9604 8.67284,9.90402 9.3125,19.21875 0.88591,12.90076 -3.82228,22.46369 -13.09375,26.6875 -1.77051,0.80659 -5.56972,1.76483 -8.46875,2.125 -2.89581,0.35977 -5.76799,0.65625 -6.375,0.65625 -1.04024,0 -1.09375,-1.54839 -1.09375,-26.8125 z"
     inkscape:connector-curvature="0"
     id="path2998"
     style="fill:#0088aa;fill-opacity:1;fill-rule:nonzero;stroke:none" />
  <path
     d="m 92.78125,73.65625 -37.625,3.28125 0,18.5 37.625,-3.3125 0,-18.46875 z m 81.34375,0 -37.625,3.28125 0,18.5 37.625,-3.3125 0,-18.46875 z M 74.1875,103.9375 c -6.149324,1e-4 -11.815348,1.25248 -17,3.75 -5.064141,2.37877 -9.516649,5.78703 -13.375,10.1875 -3.737813,4.40064 -6.704677,9.55338 -8.875,15.5 -2.049768,5.94676 -3.062506,12.48902 -3.0625,19.625 l 0,1.625 c -6e-6,7.49288 1.146584,14.27815 3.4375,20.34375 2.411471,5.94672 5.614788,11.06214 9.59375,15.34375 4.099498,4.1627 8.922311,7.43382 14.46875,9.8125 5.546371,2.25974 11.515775,3.375 17.90625,3.375 7.23439,0 13.6767,-1.32095 19.34375,-3.9375 5.66691,-2.73548 10.72617,-6.52995 15.1875,-11.40625 L 98.625,172.8125 c -3.134998,2.97337 -6.338315,5.3037 -9.59375,6.96875 -3.134988,1.6651 -6.70861,2.50002 -10.6875,2.5 -5.425884,2e-5 -9.980994,-1.60126 -13.71875,-4.8125 C 60.887166,174.25756 58.460134,169.42247 57.375,163 l 56.25,0 c 0.54356,4.2533 1.50228,8.2515 2.90625,11.96875 2.41147,5.94672 5.61479,11.06214 9.59375,15.34375 4.0995,4.1627 8.92231,7.43382 14.46875,9.8125 5.54637,2.25974 11.51577,3.375 17.90625,3.375 7.23439,0 13.6767,-1.32095 19.34375,-3.9375 5.66691,-2.73548 10.72617,-6.52995 15.1875,-11.40625 l -13.1875,-15.34375 c -3.135,2.97337 -6.33831,5.3037 -9.59375,6.96875 -3.13499,1.6651 -6.67736,2.50002 -10.65625,2.5 -5.42588,2e-5 -10.01224,-1.60126 -13.75,-4.8125 -3.73783,-3.21119 -6.16487,-8.04628 -7.25,-14.46875 l 56.6875,0 0,38.34375 25.65625,0 0,-57.59375 c -4e-5,-5.70877 1.28041,-9.95195 3.8125,-12.6875 2.65259,-2.85434 6.09236,-4.28118 10.3125,-4.28125 4.34061,7e-5 7.71346,1.42691 10.125,4.28125 2.41142,2.73555 3.62494,6.97873 3.625,12.6875 l 0,57.59375 25.6875,0 0,-65.09375 c -9e-5,-9.99038 -2.52972,-17.85359 -7.59375,-23.5625 -4.94362,-5.82767 -11.95701,-8.7499 -21,-8.75 -6.14934,1e-4 -11.14168,1.4955 -15,4.46875 -3.85841,2.97344 -7.19558,6.3817 -9.96875,10.1875 l 0,-12.84375 -25.65625,0 0,33.96875 c -0.32444,-1.6696 -0.71807,-3.30076 -1.15625,-4.90625 -1.68812,-6.18449 -4.28468,-11.54293 -7.78125,-16.0625 -3.37615,-4.63834 -7.65913,-8.25836 -12.84375,-10.875 -5.18475,-2.61645 -11.18983,-3.9374 -18.0625,-3.9375 -6.14932,1e-4 -11.81535,1.25248 -17,3.75 -5.06414,2.37877 -9.5479,5.78703 -13.40625,10.1875 -3.73781,4.40064 -6.67343,9.55338 -8.84375,15.5 -0.81874,2.37531 -1.47704,4.87246 -1.96875,7.4375 -0.3646,-2.04666 -0.77977,-4.0481 -1.3125,-6 -1.68812,-6.18449 -4.28468,-11.54293 -7.78125,-16.0625 -3.37615,-4.63834 -7.659134,-8.25836 -12.84375,-10.875 -5.18475,-2.61645 -11.221079,-3.9374 -18.09375,-3.9375 z m 0,20.875 c 4.822912,8e-5 8.632987,1.91294 11.40625,5.71875 2.773143,3.80595 4.459565,9.02726 5.0625,15.6875 l -33.46875,0 c 0.723413,-6.77917 2.543686,-12.00048 5.4375,-15.6875 3.014314,-3.80581 6.860064,-5.71867 11.5625,-5.71875 z m 81.25,0 c 4.82291,8e-5 8.60174,1.91294 11.375,5.71875 2.77314,3.80595 4.45956,9.02726 5.0625,15.6875 l -33.4375,0 c 0.72341,-6.77917 2.51244,-12.00048 5.40625,-15.6875 3.01431,-3.80581 6.89131,-5.71867 11.59375,-5.71875 z"
     inkscape:connector-curvature="0"
     id="path3069"
     style="fill:#ffffff;stroke:none" />
</svg>
