<?xml version="1.0" encoding="UTF-8" standalone="no"?>
<!-- Created with Inkscape (http://www.inkscape.org/) -->
<svg
   xmlns:svg="http://www.w3.org/2000/svg"
   xmlns="http://www.w3.org/2000/svg"
   version="1.0"
   width="983.9491"
   height="237.12901"
   id="svg33884">
  <defs
     id="defs33886">
    <clipPath
       id="clp84">
      <path
         d="M 47.956,773.68 L 547.04,773.68 L 547.04,67.32 L 47.956,67.32 L 47.956,773.68 z "
         id="path10686" />
    </clipPath>
    <clipPath
       id="clp83">
      <path
         d="M 36.77,783.96 L 559.42,783.96 L 559.42,54.632 L 36.77,54.632 L 36.77,783.96 z "
         id="path10680" />
    </clipPath>
    <clipPath
       id="clp82">
      <path
         d="M 21.411,33.313 L 580.41,33.313 L 580.41,799.32 L 21.411,799.32 L 21.411,33.313 z "
         id="path10674" />
    </clipPath>
    <clipPath
       id="clp85">
      <path
         d="M 302.66,313.44 L 310.59,313.44 C 315.6,313.44 319.66,309.38 319.66,304.37 C 319.66,299.37 315.6,295.31 310.59,295.31 L 294.73,295.31 C 289.72,295.31 285.66,299.37 285.66,304.37 C 285.66,309.38 289.72,313.44 294.73,313.44"
         id="path10694" />
    </clipPath>
    <clipPath
       id="clp32">
      <path
         d="M 389.83,597.55 L 397.45,597.55 C 402.57,597.55 406.72,593.4 406.72,588.28 C 406.72,583.17 402.57,579.02 397.45,579.02 L 382.21,579.02 C 377.09,579.02 372.94,583.17 372.94,588.28 C 372.94,593.4 377.09,597.55 382.21,597.55"
         id="path9684" />
    </clipPath>
    <clipPath
       id="clp36">
      <path
         d="M 464.98,619.88 L 472.61,619.88 C 477.72,619.88 481.87,615.73 481.87,610.61 C 481.87,605.5 477.72,601.35 472.61,601.35 L 457.36,601.35 C 452.24,601.35 448.1,605.5 448.1,610.61 C 448.1,615.73 452.24,619.88 457.36,619.88"
         id="path9752" />
    </clipPath>
    <clipPath
       id="clp20">
      <path
         d="M 352.25,597.55 L 359.88,597.55 C 364.99,597.55 369.14,593.4 369.14,588.28 C 369.14,583.17 364.99,579.02 359.88,579.02 L 344.63,579.02 C 339.51,579.02 335.36,583.17 335.36,588.28 C 335.36,593.4 339.51,597.55 344.63,597.55"
         id="path9544" />
    </clipPath>
    <clipPath
       id="clp24">
      <path
         d="M 314.68,597.55 L 322.3,597.55 C 327.41,597.55 331.56,593.4 331.56,588.28 C 331.56,583.17 327.41,579.02 322.3,579.02 L 307.05,579.02 C 301.94,579.02 297.79,583.17 297.79,588.28 C 297.79,593.4 301.94,597.55 307.05,597.55"
         id="path9616" />
    </clipPath>
    <clipPath
       id="clp28">
      <path
         d="M 502.56,642.41 L 510.18,642.41 C 515.3,642.41 519.45,638.26 519.45,633.14 C 519.45,628.02 515.3,623.88 510.18,623.88 L 494.94,623.88 C 489.82,623.88 485.67,628.02 485.67,633.14 C 485.67,638.26 489.82,642.41 494.94,642.41"
         id="path9650" />
    </clipPath>
    <clipPath
       id="clp95">
      <path
         d="M 0.511,1.051 L 1.097,1.051 C 1.147,1.051 1.188,0.949 1.188,0.822 L 1.188,-0.644 C 1.188,-0.771 1.147,-0.873 1.097,-0.873 L -0.074,-0.873 C -0.125,-0.873 -0.166,-0.771 -0.166,-0.644 L -0.166,0.822 C -0.166,0.949 -0.125,1.051 -0.074,1.051"
         id="path11406" />
    </clipPath>
    <clipPath
       id="clp94">
      <path
         d="M -0.166,-0.873 L 1.188,-0.873 L 1.188,1.051 L -0.166,1.051 L -0.166,-0.873 z "
         id="path11400" />
    </clipPath>
    <clipPath
       id="clp93">
      <path
         d="M 133.96,854.21 L 191.59,854.21 C 196.56,854.21 200.59,850.18 200.59,845.2 L 200.59,787.56 C 200.59,782.59 196.56,778.55 191.59,778.55 L 76.332,778.55 C 71.359,778.55 67.328,782.59 67.328,787.56 L 67.328,845.2 C 67.328,850.18 71.359,854.21 76.332,854.21"
         id="path11392" />
    </clipPath>
    <clipPath
       id="clp92">
      <path
         d="M 67.328,778.55 L 200.59,778.55 L 200.59,854.21 L 67.328,854.21 L 67.328,778.55 z "
         id="path11386" />
    </clipPath>
    <clipPath
       id="clp91">
      <path
         d="M 119.38,839.38 L 177.01,839.38 C 181.98,839.38 186.01,835.35 186.01,830.38 L 186.01,772.73 C 186.01,767.76 181.98,763.73 177.01,763.73 L 61.749,763.73 C 56.776,763.73 52.745,767.76 52.745,772.73 L 52.745,830.38 C 52.745,835.35 56.776,839.38 61.749,839.38"
         id="path11378" />
    </clipPath>
    <clipPath
       id="clp103">
      <path
         d="M 0.5,1.262 L 0.932,1.262 C 0.97,1.262 1,1.142 1,0.994 L 1,-0.722 C 1,-0.87 0.97,-0.99 0.932,-0.99 L 0.067,-0.99 C 0.029,-0.99 -0.001,-0.87 -0.001,-0.722 L -0.001,0.994 C -0.001,1.142 0.029,1.262 0.067,1.262"
         id="path11544" />
    </clipPath>
    <clipPath
       id="clp102">
      <path
         d="M -0.001,-0.99 L 1,-0.99 L 1,1.262 L -0.001,1.262 L -0.001,-0.99 z "
         id="path11538" />
    </clipPath>
    <clipPath
       id="clp101">
      <path
         d="M 133.96,763.18 L 191.59,763.18 C 196.56,763.18 200.59,759.15 200.59,754.18 L 200.59,696.53 C 200.59,691.56 196.56,687.53 191.59,687.53 L 76.332,687.53 C 71.359,687.53 67.328,691.56 67.328,696.53 L 67.328,754.18 C 67.328,759.15 71.359,763.18 76.332,763.18"
         id="path11530" />
    </clipPath>
    <clipPath
       id="clp100">
      <path
         d="M 67.328,687.53 L 200.59,687.53 L 200.59,763.18 L 67.328,763.18 L 67.328,687.53 z "
         id="path11524" />
    </clipPath>
    <clipPath
       id="clp99">
      <path
         d="M 119.38,748.35 L 177.01,748.35 C 181.98,748.35 186.01,744.32 186.01,739.35 L 186.01,681.71 C 186.01,676.74 181.98,672.7 177.01,672.7 L 61.749,672.7 C 56.776,672.7 52.745,676.74 52.745,681.71 L 52.745,739.35 C 52.745,744.32 56.776,748.35 61.749,748.35"
         id="path11516" />
    </clipPath>
  </defs>
  <rect
     width="983.9491"
     height="237.12901"
     x="0"
     y="0"
     style="opacity:1;color:#000000;fill:#323232;fill-opacity:1;fill-rule:nonzero;stroke:none;stroke-width:2.46852446;stroke-linecap:round;stroke-linejoin:round;marker:none;marker-start:none;marker-mid:none;marker-end:none;stroke-miterlimit:3.86400008;stroke-dasharray:none;stroke-dashoffset:0;stroke-opacity:1;visibility:visible;display:inline;overflow:visible;enable-background:accumulate"
     id="rect2314" />
  <g
     transform="translate(-53.031202,-58.600853)"
     id="g4254">
    <path
       d="M 225.69298,115.2543 C 281.69838,115.2543 327.85708,143.1369 327.85708,177.3152 C 327.85708,211.19391 281.69838,239.07641 225.69298,239.07641 C 169.68758,239.07641 123.52888,211.19391 123.52888,177.3152 C 123.52888,143.1369 169.68758,115.2543 225.69298,115.2543 M 225.69298,108.3587 C 297.70038,108.3587 356.78308,139.2392 356.78308,177.3152 C 356.78308,215.09161 297.70038,245.97201 225.69298,245.97201 C 153.68598,245.97201 94.603181,215.09161 94.603181,177.3152 C 94.603181,139.2392 153.68598,108.3587 225.69298,108.3587 M 278.00608,149.7324 C 271.23608,133.8423 260.15798,123.349 223.84668,123.0493 C 208.46068,123.0493 196.76728,125.7476 187.53568,130.2446 C 178.30398,135.0417 173.37988,141.0378 173.37988,148.2333 C 173.37988,156.3285 178.91928,162.3248 188.76628,166.5219 C 198.61368,171.0189 211.53798,173.1179 226.92398,173.1179 C 238.00198,173.1179 247.84898,171.9187 257.08068,169.5203 C 265.69698,167.1217 271.85138,163.2241 276.15968,158.1272 L 241.69428,158.1272 C 223.23138,165.6226 202.30598,157.2278 204.15228,149.7324 L 278.00608,149.7324 z M 207.84538,139.8386 C 209.07598,134.7421 217.69228,132.3436 228.77038,132.6432 C 238.61728,132.9431 246.61838,135.3416 248.46468,139.8386 L 207.84538,139.8386 M 153.68598,203.39891 L 158.60958,220.48791 L 225.69298,204.89771 L 292.16098,220.18841 L 296.46938,203.39891 L 262.00438,193.50511 L 300.77698,181.81261 L 300.77698,161.425 L 225.07768,184.21101 L 150.60898,162.6243 L 150.60898,182.11211 L 189.99728,194.10451 L 153.68598,203.39891 z "
       style="fill:#ffffff;fill-rule:evenodd;stroke:none"
       id="path5243" />
    <g
       transform="translate(316.17202,-162.35337)"
       id="g2279">
      <path
         d="M 295.814,387.03871 C 295.814,388.53789 296.4297,390.03699 297.0446,390.93637 C 298.276,391.83572 298.891,392.73499 300.122,393.33482 C 301.353,393.63468 302.584,394.2342 303.815,394.2342 C 304.4303,394.5341 305.6614,394.5341 306.2767,394.5341 C 309.3536,394.5341 311.8157,393.93427 313.662,393.03488 C 316.1237,391.83572 317.3543,390.03699 317.3543,387.33864 C 317.3543,386.43922 317.3543,385.5395 316.7394,384.94008 C 316.1237,384.04081 315.5083,383.74088 314.893,383.14109 C 314.2773,382.8415 313.662,382.24166 313.0467,381.94177 C 311.8157,381.64229 311.2,381.64229 310.5847,381.34236 C 308.7383,381.0425 306.892,380.74253 305.6614,380.14315 C 305.0457,380.14315 304.4303,379.84326 304.4303,379.54332 C 303.815,379.24373 303.815,378.94383 303.815,378.64394 C 303.815,378.34404 303.815,378.04453 303.815,378.04453 C 303.815,377.74459 304.4303,377.74459 304.4303,377.44477 C 305.0457,377.44477 305.6614,377.44477 306.2767,377.44477 C 306.892,377.44477 307.5073,377.44477 308.1226,377.74459 C 308.7383,378.04453 309.3536,378.64394 309.3536,379.54332 L 316.1237,379.54332 C 315.5083,376.84532 314.893,375.04621 313.0467,374.1469 C 311.2,373.24752 308.7383,372.64776 306.2767,372.64776 C 303.815,372.64776 301.353,373.24752 299.5067,374.1469 C 297.6607,375.34611 297.0446,377.1448 297.0446,379.54332 C 297.0446,380.74253 297.0446,381.34236 297.6607,382.24166 C 298.276,382.8415 298.891,383.44102 299.5067,383.74088 C 300.122,384.34033 301.353,384.64023 301.9683,384.94008 C 303.1993,385.23998 303.815,385.5395 305.0457,385.5395 C 306.892,386.13929 308.1226,386.43922 309.3536,386.73881 C 309.9693,387.03871 309.9693,387.63854 309.9693,387.93806 C 309.9693,388.83774 309.9693,389.13722 308.7383,389.43716 C 308.1226,389.73705 307.5073,390.03699 306.892,390.03699 C 306.2767,390.03699 305.6614,389.73705 305.0457,389.73705 C 303.815,389.43716 303.815,389.13722 303.1993,388.53789 C 303.1993,387.93806 303.1993,387.63854 303.1993,387.03871 L 295.814,387.03871"
         style="fill:#ffffff;fill-rule:evenodd;stroke:none"
         id="path5261" />
      <path
         d="M 257.6567,393.93427 L 264.4263,393.93427 L 264.4263,378.64394 L 271.1963,378.64394 L 271.1963,373.24752 L 250.8863,373.24752 L 250.8863,378.64394 L 257.6567,378.64394 L 257.6567,393.93427 z "
         style="fill:#ffffff;fill-rule:evenodd;stroke:none"
         id="path5263" />
      <path
         d="M 63.7911,387.03871 C 63.7911,388.53789 64.4065,390.03699 65.0222,390.93637 C 65.6375,391.83572 66.8685,392.73499 68.0991,393.33482 C 69.3302,393.63468 70.5608,394.2342 71.7918,394.2342 C 72.4075,394.5341 73.6381,394.5341 74.2538,394.5341 C 76.7155,394.5341 79.7925,393.93427 81.6388,393.03488 C 84.1008,391.83572 85.3318,390.03699 85.3318,387.33864 C 85.3318,386.43922 85.3318,385.5395 84.7161,384.94008 C 84.1008,384.04081 83.4855,383.74088 82.8698,383.14109 C 82.2545,382.8415 81.6388,382.24166 81.0235,381.94177 C 79.7925,381.64229 79.1771,381.64229 77.9465,381.34236 C 76.7155,381.0425 74.8692,380.74253 73.6381,380.14315 C 73.0228,380.14315 72.4075,379.84326 72.4075,379.54332 C 71.7918,379.24373 71.1765,378.94383 71.1765,378.64394 C 71.1765,378.34404 71.7918,378.04453 71.7918,378.04453 C 71.7918,377.74459 72.4075,377.74459 72.4075,377.44477 C 73.0228,377.44477 73.6381,377.44477 74.2538,377.44477 C 74.8692,377.44477 75.4849,377.44477 76.1002,377.74459 C 76.7155,378.04453 77.3312,378.64394 76.7155,379.54332 L 84.1008,379.54332 C 83.4855,376.84532 82.8698,375.04621 81.0235,374.1469 C 79.1771,373.24752 76.7155,372.64776 74.2538,372.64776 C 71.7918,372.64776 69.3302,373.24752 67.4834,374.1469 C 65.6375,375.34611 65.0222,377.1448 64.4065,379.54332 C 64.4065,380.74253 65.0222,381.34236 65.6375,382.24166 C 66.2532,382.8415 66.8685,383.44102 67.4834,383.74088 C 68.0991,384.34033 69.3302,384.64023 69.9455,384.94008 C 71.1765,385.23998 71.7918,385.5395 73.0228,385.5395 C 74.8692,386.13929 76.1002,386.43922 76.7155,386.73881 C 77.9465,387.03871 77.9465,387.63854 77.9465,387.93806 C 77.9465,388.83774 77.3312,389.13722 76.7155,389.43716 C 76.1002,389.73705 75.4849,390.03699 74.8692,390.03699 C 74.2538,390.03699 73.6381,389.73705 73.0228,389.73705 C 71.7918,389.43716 71.1765,389.13722 71.1765,388.53789 C 71.1765,387.93806 71.1765,387.63854 71.1765,387.03871 L 63.7911,387.03871"
         style="fill:#ffffff;fill-rule:evenodd;stroke:none"
         id="path5265" />
      <path
         d="M 117.3349,378.64394 L 120.4118,378.64394 C 121.6428,378.64394 122.2585,378.64394 122.8739,378.94383 C 123.4892,378.94383 124.1049,379.54332 124.1049,380.44309 C 124.1049,381.0425 124.1049,381.34236 123.4892,381.64229 C 123.4892,381.94177 123.4892,382.24166 122.8739,382.5416 C 122.2585,382.8415 121.0275,382.8415 119.7965,382.8415 L 117.3349,382.8415 L 117.3349,378.64394 z M 109.9495,393.93427 L 117.3349,393.93427 L 117.3349,387.63854 L 121.6428,387.63854 C 124.1049,387.63854 126.5665,387.03871 128.4129,385.83943 C 129.6435,384.64023 130.8745,382.8415 130.8745,380.44309 C 130.8745,378.64394 130.2592,377.1448 129.0282,375.64604 C 128.4129,374.74643 127.1822,374.4468 125.9512,373.84697 C 125.3359,373.54707 123.4892,373.24752 122.2585,373.24752 L 109.9495,373.24752 L 109.9495,393.93427"
         style="fill:#ffffff;fill-rule:evenodd;stroke:none"
         id="path5267" />
      <path
         d="M 162.8779,383.74088 C 162.8779,382.5416 162.8779,381.34236 163.4932,380.74253 C 163.4932,380.44309 163.4932,379.84326 163.4932,379.54332 C 164.1089,379.54332 164.1089,379.24373 164.1089,378.94383 C 164.7242,378.64394 165.3395,378.34404 165.9552,378.04453 C 166.5702,378.04453 167.1863,377.74459 167.1863,377.74459 C 168.4165,377.74459 169.6475,378.04453 170.2632,378.94383 C 170.8786,379.24373 171.4939,379.84326 171.4939,380.74253 C 172.1096,381.34236 172.1096,382.5416 172.1096,383.74088 C 172.1096,384.64023 172.1096,385.5395 171.4939,386.43922 C 171.4939,387.03871 170.8786,387.63854 170.2632,388.23795 C 169.6475,388.53789 169.6475,388.83774 169.0322,389.13722 C 168.4165,389.13722 167.8016,389.43716 167.1863,389.43716 C 166.5702,389.43716 165.3395,389.13722 164.1089,388.23795 C 164.1089,387.93806 163.4932,387.03871 163.4932,386.43922 C 162.8779,385.5395 162.8779,384.64023 162.8779,383.74088 M 155.4926,383.74088 C 155.4926,386.73881 156.7236,389.43716 158.5695,391.53578 C 161.0316,393.33482 163.4932,394.5341 167.1863,394.5341 C 170.8786,394.5341 173.9559,393.33482 175.8022,391.53578 C 178.2639,389.43716 178.8792,386.73881 178.8792,383.74088 C 178.8792,380.44309 178.2639,377.74459 175.8022,375.64604 C 173.9559,373.84697 170.8786,372.64776 167.1863,372.64776 C 163.4932,372.64776 161.0316,373.84697 158.5695,375.64604 C 156.7236,377.74459 155.4926,380.44309 155.4926,383.74088"
         style="fill:#ffffff;fill-rule:evenodd;stroke:none"
         id="path5269" />
      <path
         d="M 210.8826,378.04453 L 214.5753,378.04453 C 215.8063,378.04453 217.0369,378.34404 217.6522,378.64394 C 218.2679,378.94383 218.2679,379.54332 218.2679,380.14315 C 218.2679,381.0425 218.2679,381.64229 217.0369,381.94177 C 216.4216,382.24166 215.8063,382.24166 215.1906,382.24166 L 210.8826,382.24166 L 210.8826,378.04453 z M 204.1126,393.93427 L 210.8826,393.93427 L 210.8826,386.73881 L 215.1906,386.73881 C 215.8063,386.73881 216.4216,386.73881 217.0369,387.03871 C 217.0369,387.33864 217.6522,387.63854 217.6522,387.93806 C 218.2679,388.53789 218.2679,388.83774 218.2679,389.13722 C 218.2679,389.73705 218.2679,390.33658 218.2679,390.93637 C 218.2679,391.83572 218.8833,393.03488 218.8833,393.93427 L 226.269,393.93427 C 226.269,393.33482 225.6533,392.73499 225.6533,391.83572 C 225.6533,391.23627 225.6533,390.93637 225.6533,390.63647 C 225.6533,390.03699 225.6533,389.73705 225.6533,389.43716 C 225.038,386.73881 223.8069,385.23998 221.9606,384.34033 C 223.1916,384.04081 224.4223,383.14109 224.4223,382.24166 C 225.038,381.34236 225.6533,380.14315 225.6533,379.24373 C 225.6533,377.1448 225.038,375.64604 223.1916,374.74643 C 221.9606,373.54707 220.1143,373.24752 217.6522,373.24752 L 204.1126,373.24752 L 204.1126,393.93427"
         style="fill:#ffffff;fill-rule:evenodd;stroke:none"
         id="path5271" />
      <path
         d="M 662.0039,393.93427 L 679.2363,393.93427 L 679.2363,388.83774 L 668.7743,388.83774 L 668.7743,373.24752 L 662.0039,373.24752 L 662.0039,393.93427 z "
         style="fill:#ffffff;fill-rule:evenodd;stroke:none"
         id="path5273" />
      <path
         d="M 615.2302,393.93427 L 634.9246,393.93427 L 634.9246,388.83774 L 621.9999,388.83774 L 621.9999,386.13929 L 633.0783,386.13929 L 633.0783,381.0425 L 621.9999,381.0425 L 621.9999,378.64394 L 634.3089,378.64394 L 634.3089,373.24752 L 615.2302,373.24752 L 615.2302,393.93427 z "
         style="fill:#ffffff;fill-rule:evenodd;stroke:none"
         id="path5275" />
      <path
         d="M 567.2256,393.93427 L 573.9956,393.93427 L 573.9956,382.5416 L 573.9956,382.5416 L 580.7652,393.93427 L 588.1505,393.93427 L 588.1505,373.24752 L 581.3805,373.24752 L 581.3805,384.34033 L 581.3805,384.34033 L 574.6109,373.24752 L 567.2256,373.24752 L 567.2256,393.93427 z "
         style="fill:#ffffff;fill-rule:evenodd;stroke:none"
         id="path5277" />
      <path
         d="M 519.2205,393.93427 L 525.9909,393.93427 L 525.9909,382.5416 L 525.9909,382.5416 L 532.7605,393.93427 L 540.1459,393.93427 L 540.1459,373.24752 L 533.3758,373.24752 L 533.3758,384.34033 L 533.3758,384.34033 L 526.6062,373.24752 L 519.2205,373.24752 L 519.2205,393.93427 z "
         style="fill:#ffffff;fill-rule:evenodd;stroke:none"
         id="path5279" />
      <path
         d="M 419.5184,393.93427 L 426.288,393.93427 L 426.288,385.83943 L 433.6738,385.83943 L 433.6738,393.93427 L 441.0591,393.93427 L 441.0591,373.24752 L 433.6738,373.24752 L 433.6738,380.44309 L 426.288,380.44309 L 426.288,373.24752 L 419.5184,373.24752 L 419.5184,393.93427 z "
         style="fill:#ffffff;fill-rule:evenodd;stroke:none"
         id="path5281" />
      <path
         d="M 391.8234,381.0425 C 391.2081,375.64604 388.1307,372.9477 381.3607,372.64776 C 377.668,372.64776 375.2068,373.54707 372.7447,375.64604 C 370.8984,377.74459 369.6674,380.14315 369.6674,383.74088 C 369.6674,386.73881 370.8984,389.43716 372.7447,391.23627 C 375.2068,393.33482 377.668,394.5341 381.3607,394.5341 C 385.0537,394.5341 387.515,393.63468 389.3617,391.83572 C 391.2081,390.03699 392.4391,387.93806 392.4391,385.83943 L 385.0537,385.83943 C 385.0537,386.73881 384.438,387.63854 383.8227,388.23795 C 383.2074,389.13722 382.5917,389.43716 381.3607,389.43716 C 379.5144,389.43716 378.899,388.83774 377.668,387.63854 C 377.0527,386.43922 377.0527,384.94008 377.0527,383.74088 C 377.0527,382.24166 377.0527,380.74253 377.668,379.54332 C 378.899,378.64394 379.5144,378.04453 381.3607,377.74459 C 381.9764,377.74459 382.5917,378.04453 383.2074,378.04453 C 383.8227,378.34404 383.8227,378.64394 384.438,379.24373 C 384.438,379.54332 385.0537,379.84326 385.0537,380.14315 C 385.0537,380.44309 385.0537,380.74253 385.0537,381.0425 L 391.8234,381.0425"
         style="fill:#ffffff;fill-rule:evenodd;stroke:none"
         id="path5283" />
      <path
         d="M 477.9858,386.73881 L 479.8321,380.14315 L 479.8321,380.14315 L 482.2938,386.73881 L 477.9858,386.73881 z M 468.1384,393.93427 L 474.9088,393.93427 L 476.1395,390.93637 L 483.5248,390.93637 L 484.7558,393.93427 L 492.1412,393.93427 L 483.5248,373.24752 L 476.7548,373.24752 L 468.1384,393.93427 z "
         style="fill:#ffffff;fill-rule:evenodd;stroke:none"
         id="path5285" />
      <path
         d="M 589.3812,349.86212 L 570.3025,349.86212 L 570.3025,321.97958 L 553.6855,345.36501 L 536.4532,321.97958 L 536.4532,349.86212 L 518.6052,349.86212 L 518.6052,284.80296 L 536.4532,284.80296 L 553.6855,312.3856 L 570.9182,284.80296 L 589.3812,284.80296 L 589.3812,349.86212 z "
         style="fill:#ffffff;fill-rule:evenodd;stroke:none"
         id="path5287" />
      <path
         d="M 297.6607,300.39318 L 278.5813,300.39318 L 278.5813,349.86212 L 261.3489,349.86212 L 261.3489,300.39318 L 244.1166,300.39318 L 244.1166,284.80296 L 297.6607,284.80296 L 297.6607,300.39318 z "
         style="fill:#ffffff;fill-rule:evenodd;stroke:none"
         id="path5289" />
      <path
         d="M 213.3442,349.86212 L 193.6503,349.86212 L 179.4949,328.57555 L 165.3395,349.86212 L 146.2609,349.86212 L 169.6475,317.18253 L 146.8766,284.80296 L 166.5702,284.80296 L 180.1102,305.19007 L 194.2656,284.80296 L 213.3442,284.80296 L 189.9572,316.5832 L 213.3442,349.86212 z "
         style="fill:#ffffff;fill-rule:evenodd;stroke:none"
         id="path5291" />
      <path
         d="M 114.8732,349.86212 L 63.7911,349.86212 L 63.7911,284.80296 L 114.8732,284.80296 L 114.8732,300.69304 L 81.6388,300.69304 L 81.6388,310.58691 L 109.9495,310.58691 L 109.9495,323.17882 L 81.6388,323.17882 L 81.6388,335.4711 L 114.8732,335.4711 L 114.8732,349.86212 z "
         style="fill:#ffffff;fill-rule:evenodd;stroke:none"
         id="path5293" />
      <path
         d="M 479.8321,349.56223 L 428.7505,349.56223 L 428.7505,284.50336 L 479.8321,284.50336 L 479.8321,300.39318 L 446.5977,300.39318 L 446.5977,310.28698 L 474.9088,310.28698 L 474.9088,322.87923 L 446.5977,322.87923 L 446.5977,335.17128 L 479.8321,335.17128 L 479.8321,349.56223 z "
         style="fill:#ffffff;fill-rule:evenodd;stroke:none"
         id="path5295" />
      <path
         d="M 679.2363,350.16202 L 628.1542,350.16202 L 628.1542,285.10289 L 679.2363,285.10289 L 679.2363,300.69304 L 646.0026,300.69304 L 646.0026,310.88677 L 674.313,310.88677 L 674.313,323.47876 L 646.0026,323.47876 L 646.0026,335.77104 L 679.2363,335.77104 L 679.2363,350.16202 z "
         style="fill:#ffffff;fill-rule:evenodd;stroke:none"
         id="path5297" />
      <path
         d="M 364.1284,300.39318 C 362.8977,300.39318 361.051,300.09359 358.5894,300.09359 L 353.6661,300.09359 L 353.6661,312.98543 L 357.9737,312.98543 C 360.4357,312.98543 362.8977,312.98543 364.7441,312.68546 C 375.2068,311.18636 375.2068,300.99297 364.1284,300.39318 M 392.4391,349.86212 L 371.5137,349.86212 L 358.5894,326.17706 L 353.6661,326.17706 L 353.6661,349.86212 L 335.818,349.86212 L 335.818,285.70272 L 364.1284,285.70272 C 368.4364,285.70272 371.5137,285.70272 374.5911,286.30206 C 379.5144,287.20144 385.0537,291.09906 388.1307,295.89603 C 389.3617,298.29452 389.9771,300.99297 389.9771,304.59074 C 389.9771,309.38763 389.3617,313.28529 386.8997,316.28326 C 384.438,319.28143 381.3607,320.7803 377.0527,322.87923 L 392.4391,349.86212"
         style="fill:#ffffff;fill-rule:evenodd;stroke:none"
         id="path5299" />
    </g>
  </g>
</svg>
