<?xml version="1.0" encoding="UTF-8" standalone="no"?>
<!-- Created with Inkscape (http://www.inkscape.org/) -->

<svg
   xmlns:dc="http://purl.org/dc/elements/1.1/"
   xmlns:cc="http://creativecommons.org/ns#"
   xmlns:rdf="http://www.w3.org/1999/02/22-rdf-syntax-ns#"
   xmlns:svg="http://www.w3.org/2000/svg"
   xmlns="http://www.w3.org/2000/svg"
   xmlns:inkscape="http://www.inkscape.org/namespaces/inkscape"
   version="1.0"
   width="136.64114"
   height="136.64114"
   id="svg2">
  <metadata
     id="metadata128">
    <rdf:RDF>
      <cc:Work
         rdf:about="">
        <dc:format>image/svg+xml</dc:format>
        <dc:type
           rdf:resource="http://purl.org/dc/dcmitype/StillImage" />
      </cc:Work>
    </rdf:RDF>
  </metadata>
  <defs
     id="defs126" />
  <g
     transform="translate(-76.02175,-909.35066)"
     id="layer1">
    <path
       d="m 144.34232,1045.9918 c 37.73354,0 68.32057,-30.587 68.32057,-68.32057 0,-37.73354 -30.58703,-68.32057 -68.32057,-68.32057 -37.73354,0 -68.32057,30.58703 -68.32057,68.32057 0,37.73357 30.58703,68.32057 68.32057,68.32057"
       inkscape:connector-curvature="0"
       id="path20676"
       style="fill:#008ac0;fill-opacity:1;fill-rule:nonzero;stroke:none" />
    <g
       transform="matrix(0,-13.612387,-13.612387,0,137.0243,979.6981)"
       id="g20678">
      <path
         d="M 0,0 C 0.276,-0.109 0.47,-0.378 0.47,-0.691 0.47,-1.005 0.276,-1.274 0,-1.382 L 0,0 z M 0,2.621 C 0.276,2.512 0.47,2.244 0.47,1.93 0.47,1.616 0.276,1.347 0,1.239 l 0,1.382 z m 1.089,-5.895 c 0,0.264 -0.106,0.491 -0.233,0.606 l 0.231,0 0,0.662 -1.073,0 c 0.613,0.131 1.073,0.676 1.073,1.328 0,0.627 -0.424,1.154 -1.002,1.31 0.578,0.157 1.002,0.684 1.002,1.311 0,0.75 -0.608,1.358 -1.358,1.358 -0.75,0 -1.358,-0.608 -1.358,-1.358 0,-0.605 0.395,-1.117 0.941,-1.293 l 0,0.664 c -0.197,0.134 -0.327,0.36 -0.327,0.616 0,0.315 0.196,0.584 0.473,0.692 l 0,-1.969 c -0.62,-0.126 -1.087,-0.674 -1.087,-1.331 0,-0.605 0.395,-1.117 0.941,-1.293 l 0,0.664 c -0.197,0.133 -0.327,0.359 -0.327,0.616 0,0.315 0.196,0.584 0.473,0.692 l 0,-2.007 -1.087,0 0,-0.662 1.456,0 c 0.42,0 0.603,-0.294 0.603,-0.567 -0.017,-0.302 -0.251,-0.479 -0.618,-0.479 l -1.441,0 0,-0.662 1.501,0 c 0.751,0 1.217,0.459 1.217,1.102 M 1.926,-1.382 1.644,0 1.102,0 l 0.282,-1.382 0.542,0 z m 0,2.621 -0.282,1.383 -0.542,0 0.282,-1.383 0.542,0 z"
         inkscape:connector-curvature="0"
         id="path20680"
         style="fill:#ffffff;fill-rule:nonzero;stroke:none" />
    </g>
  </g>
</svg>
