<?xml version="1.0" encoding="UTF-8" standalone="no"?>
<!-- Generator: Adobe Illustrator 15.0.0, SVG Export Plug-In . SVG Version: 6.00 Build 0)  -->

<svg
   xmlns:dc="http://purl.org/dc/elements/1.1/"
   xmlns:cc="http://creativecommons.org/ns#"
   xmlns:rdf="http://www.w3.org/1999/02/22-rdf-syntax-ns#"
   xmlns:svg="http://www.w3.org/2000/svg"
   xmlns="http://www.w3.org/2000/svg"
   xmlns:xlink="http://www.w3.org/1999/xlink"
   xmlns:sodipodi="http://sodipodi.sourceforge.net/DTD/sodipodi-0.dtd"
   xmlns:inkscape="http://www.inkscape.org/namespaces/inkscape"
   version="1.1"
   id="Calque_1"
   x="0px"
   y="0px"
   width="510.50198"
   height="816.43921"
   viewBox="-0.5 -7.721 510.50199 816.43923"
   enable-background="new -0.5 -7.721 3660.501 1389.387"
   xml:space="preserve"
   inkscape:version="0.48.4 r9939"
   sodipodi:docname="tv.france2.svg"><metadata
   id="metadata229"><rdf:RDF><cc:Work
       rdf:about=""><dc:format>image/svg+xml</dc:format><dc:type
         rdf:resource="http://purl.org/dc/dcmitype/StillImage" /><dc:title></dc:title></cc:Work></rdf:RDF></metadata><defs
   id="defs227">
	
	
	
	
	
	
<linearGradient
   inkscape:collect="always"
   xlink:href="#SVGID_1_"
   id="linearGradient3524"
   gradientUnits="userSpaceOnUse"
   gradientTransform="matrix(1,0,0,-1,4,1384.3867)"
   x1="3372.2368"
   y1="1359.9609"
   x2="3441.5239"
   y2="568.00562" /><linearGradient
   inkscape:collect="always"
   xlink:href="#SVGID_2_"
   id="linearGradient3526"
   gradientUnits="userSpaceOnUse"
   gradientTransform="matrix(1,0,0,-1,4,1384.3867)"
   x1="3467.5728"
   y1="1166.3867"
   x2="3467.5728"
   y2="710.26758" /><linearGradient
   inkscape:collect="always"
   xlink:href="#SVGID_3_"
   id="linearGradient3528"
   gradientUnits="userSpaceOnUse"
   gradientTransform="matrix(1,0,0,-1,4,1384.3867)"
   x1="2742.2368"
   y1="1359.96"
   x2="2811.5239"
   y2="568.00513" /><linearGradient
   inkscape:collect="always"
   xlink:href="#SVGID_4_"
   id="linearGradient3530"
   gradientUnits="userSpaceOnUse"
   gradientTransform="matrix(1,0,0,-1,4,1384.3867)"
   x1="2837.6958"
   y1="1228.9727"
   x2="2837.6958"
   y2="739.91888" /><linearGradient
   inkscape:collect="always"
   xlink:href="#SVGID_5_"
   id="linearGradient3532"
   gradientUnits="userSpaceOnUse"
   gradientTransform="matrix(1,0,0,-1,4,1384.3867)"
   x1="2112.2378"
   y1="1359.96"
   x2="2181.5249"
   y2="568.00513" /><linearGradient
   inkscape:collect="always"
   xlink:href="#SVGID_6_"
   id="linearGradient3534"
   gradientUnits="userSpaceOnUse"
   gradientTransform="matrix(1,0,0,-1,4,1384.3867)"
   x1="2200.3208"
   y1="1228.9209"
   x2="2200.3208"
   y2="739.9209" /><linearGradient
   inkscape:collect="always"
   xlink:href="#SVGID_7_"
   id="linearGradient3536"
   gradientUnits="userSpaceOnUse"
   gradientTransform="matrix(1,0,0,-1,4,1384.3867)"
   x1="1482.2363"
   y1="1359.9609"
   x2="1551.5233"
   y2="568.0061" /><linearGradient
   inkscape:collect="always"
   xlink:href="#SVGID_8_"
   id="linearGradient3538"
   gradientUnits="userSpaceOnUse"
   gradientTransform="matrix(1,0,0,-1,4,1384.3867)"
   x1="1577.625"
   y1="1228.6318"
   x2="1577.625"
   y2="739.92291" /><linearGradient
   inkscape:collect="always"
   xlink:href="#SVGID_9_"
   id="linearGradient3540"
   gradientUnits="userSpaceOnUse"
   gradientTransform="matrix(1,0,0,-1,4,1384.3867)"
   x1="852.23682"
   y1="1359.96"
   x2="921.52368"
   y2="568.00562" /><linearGradient
   inkscape:collect="always"
   xlink:href="#SVGID_10_"
   id="linearGradient3542"
   gradientUnits="userSpaceOnUse"
   gradientTransform="matrix(1,0,0,-1,4,1384.3867)"
   x1="942.58148"
   y1="1228.8809"
   x2="942.58148"
   y2="739.91412" /><linearGradient
   inkscape:collect="always"
   xlink:href="#SVGID_11_"
   id="linearGradient3544"
   gradientUnits="userSpaceOnUse"
   gradientTransform="matrix(1,0,0,-1,4,1384.3867)"
   x1="222.2368"
   y1="1359.96"
   x2="291.5238"
   y2="568.00562" /><linearGradient
   inkscape:collect="always"
   xlink:href="#SVGID_12_"
   id="linearGradient3546"
   gradientUnits="userSpaceOnUse"
   x1="335.88281"
   y1="186.5298"
   x2="335.88281"
   y2="674.12061" /></defs><sodipodi:namedview
   pagecolor="#ffffff"
   bordercolor="#666666"
   borderopacity="1"
   objecttolerance="10"
   gridtolerance="10"
   guidetolerance="10"
   inkscape:pageopacity="0"
   inkscape:pageshadow="2"
   inkscape:window-width="1600"
   inkscape:window-height="837"
   id="namedview225"
   showgrid="false"
   inkscape:zoom="0.27275905"
   inkscape:cx="368.11119"
   inkscape:cy="53.608301"
   inkscape:window-x="-8"
   inkscape:window-y="-8"
   inkscape:window-maximized="1"
   inkscape:current-layer="Calque_1"
   fit-margin-top="0"
   fit-margin-left="0"
   fit-margin-right="0"
   fit-margin-bottom="0" />

<g
   id="France_3"
   transform="translate(-1260,1.132535e-4)">
		<g
   id="g125">
			<path
   style="fill:#187cc0"
   inkscape:connector-curvature="0"
   id="path127"
   d="m 1259.5,683.941 c 0,11 8.804,21.87 19.563,24.157 l 471.373,100.193 c 10.761,2.287 19.563,-4.842 19.563,-15.842 V 8.548 c 0,-11 -8.804,-18.129 -19.563,-15.842 L 1279.063,92.9 c -10.759,2.287 -19.563,13.158 -19.563,24.158 v 566.883 z" />
		</g>
		<g
   id="g129">
			
				<linearGradient
   gradientTransform="matrix(1,0,0,-1,4,1384.3867)"
   y2="568.0061"
   x2="1551.5233"
   y1="1359.9609"
   x1="1482.2363"
   gradientUnits="userSpaceOnUse"
   id="SVGID_7_">
				<stop
   id="stop132"
   style="stop-color:#649DCB"
   offset="0" />
				<stop
   id="stop134"
   style="stop-color:#619BCA"
   offset="0.0067" />
				<stop
   id="stop136"
   style="stop-color:#4C8FC7"
   offset="0.0557" />
				<stop
   id="stop138"
   style="stop-color:#3F88C6"
   offset="0.1039" />
				<stop
   id="stop140"
   style="stop-color:#3B86C5"
   offset="0.15" />
				<stop
   id="stop142"
   style="stop-color:#488CC6"
   offset="0.2966" />
				<stop
   id="stop144"
   style="stop-color:#6199C9"
   offset="0.5" />
				<stop
   id="stop146"
   style="stop-color:#5193C7"
   offset="0.6381" />
				<stop
   id="stop148"
   style="stop-color:#2882C2"
   offset="0.9061" />
				<stop
   id="stop150"
   style="stop-color:#187CC0"
   offset="1" />
			</linearGradient>
			<path
   inkscape:connector-curvature="0"
   style="fill:url(#linearGradient3536)"
   id="path152"
   d="m 1265,677.106 c 0,11 8.804,21.87 19.563,24.157 l 459.875,97.749 c 10.76,2.287 19.563,-4.842 19.563,-15.842 V 17.828 c 0,-11 -8.804,-18.129 -19.563,-15.842 l -459.875,97.75 C 1273.804,102.023 1265,112.894 1265,123.894 v 553.212 z" />
		</g>
		<path
   style="fill:#187cc0"
   inkscape:connector-curvature="0"
   id="path154"
   d="m 1263.957,112.973 c 0,0 449.839,-53.555 506.035,68.021 l 0.01,244.633 c 0,0 -3.381,147.555 -72.47,169.701 l -226.662,48.103 c 0,0 -196.492,65.773 -209.223,-352.325 -5.93,-136.053 2.311,-178.133 2.311,-178.133 z" />
		
			<linearGradient
   gradientTransform="matrix(1,0,0,-1,4,1384.3867)"
   y2="739.92291"
   x2="1577.625"
   y1="1228.6318"
   x1="1577.625"
   gradientUnits="userSpaceOnUse"
   id="SVGID_8_">
			<stop
   id="stop157"
   style="stop-color:#FFFFFF"
   offset="0.5" />
			<stop
   id="stop159"
   style="stop-color:#BFBFBF"
   offset="1" />
		</linearGradient>
		<path
   inkscape:connector-curvature="0"
   style="fill:url(#linearGradient3538)"
   id="path161"
   d="m 1769.97,436.273 c -15.153,-53.333 -58.707,-81.896 -119.455,-88.688 0.054,0 63.135,-46.483 119.484,-92.173 v -99.658 h -362.271 l -0.012,110.994 H 1611.9 c -0.416,0.328 -127.899,98.919 -127.899,98.919 l 47.757,71.403 c 0,0 28.704,-14.787 54.582,-14.787 45.85,0 63.898,19.212 63.898,62.508 0,46.937 -21.528,67.675 -64.813,67.675 -52.431,0 -63.173,-37.479 -63.173,-64.371 h -128.927 c -2.422,91.233 53.345,156.368 185.791,156.368 102.512,0 171.098,-35.749 190.853,-112.68 v -95.51 l 10e-4,0 z" />
	</g>
</svg>