<?xml version="1.0" encoding="UTF-8" standalone="no"?>
<!-- Created with Inkscape (http://www.inkscape.org/) -->

<svg
   xmlns:dc="http://purl.org/dc/elements/1.1/"
   xmlns:cc="http://creativecommons.org/ns#"
   xmlns:rdf="http://www.w3.org/1999/02/22-rdf-syntax-ns#"
   xmlns:svg="http://www.w3.org/2000/svg"
   xmlns="http://www.w3.org/2000/svg"
   xmlns:xlink="http://www.w3.org/1999/xlink"
   xmlns:sodipodi="http://sodipodi.sourceforge.net/DTD/sodipodi-0.dtd"
   xmlns:inkscape="http://www.inkscape.org/namespaces/inkscape"
   width="479"
   height="206"
   id="svg2"
   version="1.1"
   inkscape:version="0.47 r22583">
  <g
     inkscape:label="Layer 1"
     inkscape:groupmode="layer"
     id="layer1"
     transform="translate(-184.27278,-559.05672)">
    <path
       id="path26380"
       d="m 395.97969,628.42713 0,-14.52501 -4.69446,0 0,-5.90488 4.69446,0 0,-13.93615 20.33174,0 0,6.01937 -13.72352,0 0,7.91678 10.84469,0 0,5.90488 -10.84469,0 0,14.52501 -6.60822,0 z"
       style="fill:#000000;fill-rule:nonzero;stroke:none" />
    <path
       style="fill:#000000;fill-rule:nonzero;stroke:none"
       d="m 419.22788,593.99729 6.85358,0 0,34.36604 -6.85358,0 0,-34.36604 z"
       id="path26382" />
    <path
       id="path26386"
       d="m 453.99156,628.36333 -23.86485,0 0,-34.36604 6.62458,0 0,28.34667 11.69525,0.0654 0,-4.69446 5.54502,-0.0654 0,10.71382 z"
       style="fill:#000000;fill-rule:nonzero;stroke:none" />
    <path
       id="path26390"
       d="m 486.39313,628.36333 -5.65952,0 0,-22.42543 -8.66921,7.52422 -8.60378,-7.52422 0.14722,22.42543 -6.01938,0 0,-34.36604 14.41051,12.44768 14.39416,-12.44768 0,34.36604 z"
       style="fill:#000000;fill-rule:nonzero;stroke:none" />
    <path
       id="path26394"
       d="m 593.83714,616.28042 -6.93537,12.08782 -7.55693,0 11.04097,-17.35477 -10.74654,-17.01127 7.63871,0 6.55916,11.95696 6.64093,-11.95696 7.62236,0 -10.71383,17.01127 11.00826,17.35477 -7.62236,0 -6.93536,-12.08782 z"
       style="fill:#000000;fill-rule:nonzero;stroke:none" />
    <path
       id="path26398"
       d="m 530.43743,593.72577 c 8.48928,0 10.68112,6.77179 10.68112,9.89598 0,1.55391 -0.65428,4.48181 -3.66397,6.33015 3.2714,0.85057 5.54502,4.12197 5.54502,8.04764 0,2.45355 -2.14276,10.37034 -12.51309,10.37034 -1.24314,0 -12.31682,-0.0164 -12.31682,-0.0164 l -0.0491,-15.212 -4.71081,0 0.0163,-5.44688 4.69446,0 -0.0818,-13.9198 c 0,0 10.71383,-0.0491 12.3986,-0.0491 m -5.93758,6.06844 0,7.835 5.93758,0.0327 c 2.17548,0 4.15468,-1.96284 4.15468,-4.00747 0,-2.28998 -2.07734,-3.82753 -4.15468,-3.82753 l -5.93758,-0.0327 z m 5.92123,13.34731 -5.92123,0 0,9.15991 5.92123,0 c 3.3859,0 5.5123,-2.22455 5.5123,-4.4491 0,-2.19184 -1.61934,-4.71081 -5.5123,-4.71081"
       style="fill:#000000;fill-rule:nonzero;stroke:none" />
    <path
       id="path26404"
       d="m 563.35752,592.79015 c -9.91234,0 -17.95998,8.04764 -17.95998,17.94362 0,9.91234 8.04764,17.95998 17.95998,17.95998 9.91233,0 17.94362,-8.04764 17.94362,-17.95998 0,-9.89598 -8.03129,-17.94362 -17.94362,-17.94362 m 0.16357,29.1318 c -6.18295,0 -11.18819,-5.00524 -11.18819,-11.18818 0,-6.16659 5.00524,-11.17183 11.18819,-11.17183 6.16658,0 11.17182,5.00524 11.17182,11.17183 0,6.18294 -5.00524,11.18818 -11.17182,11.18818"
       style="fill:#000000;fill-rule:nonzero;stroke:none" />
    <path
       id="path26408"
       d="m 663.03048,748.86202 c -1.60298,-9.0127 -33.40097,-173.82575 -35.57645,-182.80574 -1.21042,-4.92345 -4.80896,-8.21121 -11.20454,-6.57551 -6.39559,1.65206 -92.38429,19.28489 -104.35761,22.14737 -4.93981,1.1777 -8.30935,2.89518 -9.61791,7.78593 -0.62157,2.38812 -6.18295,23.83213 -10.22312,38.92964 l 6.93536,0 c 3.25504,-12.70939 7.67143,-30.65301 8.09671,-32.77942 0.39257,-2.04462 1.60299,-6.15022 6.39559,-6.96807 4.79259,-0.81785 87.9679,-17.20756 92.77685,-18.04177 4.7926,-0.81785 8.78371,1.65206 9.5852,7.39336 0.80149,5.74131 19.20311,139.34522 19.20311,145.08652 0,5.74131 -3.20597,9.84691 -11.20454,10.66476 -5.08702,0.50707 -98.14195,-12.2841 -111.76733,-14.16515 l 0,19.98824 c 50.19961,9.17627 128.92582,23.68493 137.36602,25.33698 8.39114,1.61934 15.19565,-6.98443 13.59266,-15.99714"
       style="fill:#be1f4f;fill-rule:nonzero;stroke:none" />
    <path
       id="path26414"
       d="m 397.43072,659.92252 -16.50421,45.35793 26.95633,0 16.5042,-45.35793 -26.95632,0 z"
       style="fill:#000000;fill-rule:nonzero;stroke:none" />
    <path
       id="path26418"
       d="m 582.43468,680.94616 -18.5979,0 18.82689,-25.72955 -0.22899,25.72955 z m -72.0362,-22.68715 c -1.09591,2.97697 -2.86247,5.0216 -5.29966,6.15023 -1.39035,0.62156 -3.90932,0.91599 -7.55693,0.91599 l -17.86184,0 5.00524,-13.75623 18.09084,0 c 3.94203,0 6.37922,0.49071 7.31157,1.43941 1.06321,1.09592 1.16135,2.84612 0.31078,5.2506 m -211.3814,47.02635 19.80831,-16.88041 6.8863,16.88041 35.2166,0 -16.83134,-36.65602 20.20088,-17.04398 93.41478,0 -19.5466,53.7 26.95632,0 9.15992,-25.15705 15.31014,0 2.17548,0 c 2.87883,0 4.9071,0.34349 6.06844,1.04684 1.17771,0.70336 1.78292,1.88106 1.78292,3.51676 0,1.7502 -0.94871,5.52866 -2.78069,11.35175 -1.2922,4.04018 -1.96284,7.18072 -2.55169,9.2417 l 53.14386,0 4.98889,-6.46101 28.77195,0 0.57249,6.46101 29.44259,0 -2.63348,-70.08971 -35.60917,0 -50.62489,66.14768 c 0.19628,-1.21042 0.67063,-2.84612 1.42306,-4.93982 0.75242,-2.06098 1.53755,-4.64538 2.37176,-7.78592 0.83421,-3.12419 1.30856,-5.26696 1.4067,-6.44466 0.27807,-2.42083 -0.0981,-4.23646 -1.12863,-5.39781 -1.03049,-1.19406 -3.20597,-2.33905 -6.52644,-3.43496 3.00969,-0.60521 5.39781,-1.30856 7.19708,-2.0937 1.78291,-0.78513 3.48404,-1.88105 5.13609,-3.28775 3.36954,-2.94426 6.03573,-7.1153 7.99857,-12.48039 3.84389,-10.5339 1.65206,-16.92949 -6.52644,-19.15404 -2.76433,-0.73606 -8.68556,-1.12863 -17.79641,-1.12863 l -165.95804,0 -15.16293,13.51088 -5.65952,-13.51088 -34.84039,0 15.11386,32.64856 -39.22407,33.61361 5.08703,-14.03429 -56.00634,0 3.17325,-8.73464 43.59139,0 6.51008,-17.86183 -43.59138,0 2.8134,-7.75322 52.73494,0 6.49373,-17.87819 -79.67491,0 -9.33984,25.63141 -11.17183,0 -6.51008,17.86183 11.18818,0 -9.68334,26.59647 113.23946,0 z"
       style="fill:#000000;fill-rule:nonzero;stroke:none" />
  </g>
</svg>
