<?xml version="1.0" encoding="UTF-8" standalone="no"?>
<!-- Created with Inkscape (http://www.inkscape.org/) -->

<svg
   xmlns:dc="http://purl.org/dc/elements/1.1/"
   xmlns:cc="http://creativecommons.org/ns#"
   xmlns:rdf="http://www.w3.org/1999/02/22-rdf-syntax-ns#"
   xmlns:svg="http://www.w3.org/2000/svg"
   xmlns="http://www.w3.org/2000/svg"
   xmlns:xlink="http://www.w3.org/1999/xlink"
   xmlns:sodipodi="http://sodipodi.sourceforge.net/DTD/sodipodi-0.dtd"
   xmlns:inkscape="http://www.inkscape.org/namespaces/inkscape"
   width="346"
   height="327"
   id="svg2"
   sodipodi:version="0.32"
   inkscape:version="0.48.4 r9939"
   version="1.0"
   inkscape:output_extension="org.inkscape.output.svg.inkscape"
   sodipodi:docname="tv.foxnews.svg">
  <metadata
     id="metadata155">
    <rdf:RDF>
      <cc:Work
         rdf:about="">
        <dc:format>image/svg+xml</dc:format>
        <dc:type
           rdf:resource="http://purl.org/dc/dcmitype/StillImage" />
      </cc:Work>
    </rdf:RDF>
  </metadata>
  <defs
     id="defs153" />
  <sodipodi:namedview
     pagecolor="#ffffff"
     bordercolor="#666666"
     borderopacity="1"
     objecttolerance="10"
     gridtolerance="10"
     guidetolerance="10"
     inkscape:pageopacity="0"
     inkscape:pageshadow="2"
     inkscape:window-width="1600"
     inkscape:window-height="837"
     id="namedview151"
     showgrid="false"
     inkscape:zoom="1"
     inkscape:cx="244.12562"
     inkscape:cy="108.97113"
     inkscape:window-x="-8"
     inkscape:window-y="-8"
     inkscape:window-maximized="1"
     inkscape:current-layer="layer1" />
  <g
     inkscape:label="Layer 1"
     inkscape:groupmode="layer"
     id="layer1"
     transform="translate(-21.668096,-716.22965)">
    <g
       id="g3766"
       clip-path="url(#id36)"
       transform="matrix(1,0,0,-1,-271.40791,1800.7103)">
      <g
         id="g3768"
         clip-path="url(#id37)">
        <g
           id="g3770"
           transform="matrix(5.0401,0,0,4.9633,536.9738,923.9075)">
          <use
             id="use3772"
             xlink:href="#id38"
             x="0"
             y="0"
             width="744.09448"
             height="1052.3622" />
        </g>
      </g>
    </g>
    <g
       id="g9522"
       clip-path="url(#id123)"
       transform="matrix(1,0,0,-1,-271.40791,1800.7103)">
      <g
         id="g9524"
         transform="matrix(2.98877,-5.627914,-2.368079,-1.2576,127.81424,907.27368)">
        <g
           id="g9526"
           clip-path="url(#id124)">
          <g
             id="g9528"
             transform="matrix(0.461702,0,0,-0.928993,-9.701e-2,0.964531)">
            <use
               id="use9530"
               xlink:href="#id125"
               x="0"
               y="0"
               width="744.09448"
               height="1052.3622" />
          </g>
        </g>
      </g>
    </g>
    <g
       id="g9532"
       clip-path="url(#id126)"
       transform="matrix(1,0,0,-1,-271.40791,1800.7103)">
      <g
         id="g9534"
         transform="matrix(2.98877,-5.627914,-1.607287,-0.853574,125.84421,906.22748)">
        <g
           id="g9536"
           clip-path="url(#id127)">
          <g
             id="g9538"
             transform="matrix(0.592333,0,0,-1.611694,0.256922,1.09642)">
            <use
               id="use9540"
               xlink:href="#id128"
               x="0"
               y="0"
               width="744.09448"
               height="1052.3622" />
          </g>
        </g>
      </g>
    </g>
    <g
       id="g9542"
       clip-path="url(#id129)"
       transform="matrix(1,0,0,-1,-271.40791,1800.7103)">
      <g
         id="g9544"
         transform="matrix(2.98877,-5.627914,-3.64952,-1.938136,130.57352,908.73907)">
        <g
           id="g9546"
           clip-path="url(#id130)">
          <g
             id="g9548"
             transform="matrix(0.953197,0,0,-1.019833,0.156406,1.042942)">
            <use
               id="use9550"
               xlink:href="#id131"
               x="0"
               y="0"
               width="744.09448"
               height="1052.3622" />
          </g>
        </g>
      </g>
    </g>
    <g
       id="g9552"
       clip-path="url(#id132)"
       transform="matrix(1,0,0,-1,-271.40791,1800.7103)">
      <g
         id="g9554"
         transform="matrix(3.04801,0,0,-0.767771,128.26166,907.26373)">
        <g
           id="g9556"
           clip-path="url(#id133)">
          <g
             id="g9558"
             transform="matrix(0.999985,0,0,-0.751587,-3.304e-3,0.875854)">
            <use
               id="use9560"
               xlink:href="#id134"
               x="0"
               y="0"
               width="744.09448"
               height="1052.3622" />
          </g>
        </g>
      </g>
    </g>
    <g
       id="g9570"
       clip-path="url(#id138)"
       transform="matrix(1,0,0,-1,-271.40791,1800.7103)">
      <g
         id="g9572"
         transform="matrix(0,7.154098,7.154098,0,128.10525,898.52161)">
        <g
           id="g9574"
           clip-path="url(#id139)">
          <g
             id="g9576"
             transform="matrix(9.5924e-2,0,0,-0.481243,0.755779,0.228798)">
            <use
               id="use9578"
               xlink:href="#id140"
               x="0"
               y="0"
               width="744.09448"
               height="1052.3622" />
          </g>
        </g>
      </g>
    </g>
    <g
       id="g9580"
       clip-path="url(#id141)"
       transform="matrix(1,0,0,-1,-271.40791,1800.7103)">
      <g
         id="g9582"
         transform="matrix(-1.303587,5.850471,2.852159,0.635516,124.5257,901.55084)">
        <g
           id="g9584"
           clip-path="url(#id142)">
          <g
             id="g9586"
             transform="matrix(1.042439,0,0,-0.977676,-0.134702,1.010315)">
            <use
               id="use9588"
               xlink:href="#id143"
               x="0"
               y="0"
               width="744.09448"
               height="1052.3622" />
          </g>
        </g>
      </g>
    </g>
    <g
       id="g9590"
       clip-path="url(#id144)"
       transform="matrix(1,0,0,-1,-271.40791,1800.7103)">
      <g
         id="g9592"
         transform="matrix(3.042443,0,0,-0.767953,124.73013,907.26392)">
        <g
           id="g9594"
           clip-path="url(#id145)">
          <g
             id="g9596"
             transform="matrix(0.999992,0,0,-0.751556,-3.273e-3,0.875916)">
            <use
               id="use9598"
               xlink:href="#id146"
               x="0"
               y="0"
               width="744.09448"
               height="1052.3622" />
          </g>
        </g>
      </g>
    </g>
    <g
       id="g9600"
       clip-path="url(#id147)"
       transform="matrix(1,0,0,-1,-271.40791,1800.7103)">
      <g
         id="g9602"
         transform="matrix(1.094848,0,0,-0.767569,126.25134,901.79102)">
        <g
           id="g9604"
           clip-path="url(#id148)">
          <g
             id="g9606"
             transform="matrix(2.778687,0,0,-0.751404,-1.398529,0.875854)">
            <use
               id="use9608"
               xlink:href="#id149"
               x="0"
               y="0"
               width="744.09448"
               height="1052.3622" />
          </g>
        </g>
      </g>
    </g>
    <g
       id="g9610"
       clip-path="url(#id150)"
       transform="matrix(1,0,0,-1,-271.40791,1800.7103)">
      <g
         id="g9612"
         transform="matrix(-4.419651,4.419651,1.202455,1.202455,130.80536,903.25671)">
        <g
           id="g9614"
           clip-path="url(#id151)">
          <g
             id="g9616"
             transform="matrix(0.45751,0,0,-1.68158,0.273922,1.18438)">
            <use
               id="use9618"
               xlink:href="#id152"
               x="0"
               y="0"
               width="744.09448"
               height="1052.3622" />
          </g>
        </g>
      </g>
    </g>
    <g
       id="g9620"
       clip-path="url(#id153)"
       transform="matrix(1,0,0,-1,-271.40791,1800.7103)">
      <g
         id="g9622"
         transform="matrix(-4.419651,4.419651,2.627123,2.627123,128.393,900.84448)">
        <g
           id="g9624"
           clip-path="url(#id154)">
          <g
             id="g9626"
             transform="matrix(0.563894,0,0,-0.948647,-0.121582,0.974327)">
            <use
               id="use9628"
               xlink:href="#id155"
               x="0"
               y="0"
               width="744.09448"
               height="1052.3622" />
          </g>
        </g>
      </g>
    </g>
    <g
       id="g9630"
       clip-path="url(#id156)"
       transform="matrix(1,0,0,-1,-271.40791,1800.7103)">
      <g
         id="g9632"
         transform="matrix(1.098599,0,0,-0.772229,129.78348,901.79553)">
        <g
           id="g9634"
           clip-path="url(#id157)">
          <g
             id="g9636"
             transform="matrix(2.772614,0,0,-0.75296,-1.392609,0.876465)">
            <use
               id="use9638"
               xlink:href="#id158"
               x="0"
               y="0"
               width="744.09448"
               height="1052.3622" />
          </g>
        </g>
      </g>
    </g>
    <g
       id="g10128"
       clip-path="url(#id189)"
       transform="matrix(1,0,0,-1,-271.40791,1800.7103)">
      <g
         id="g10130"
         clip-path="url(#id190)">
        <g
           id="g10132"
           transform="matrix(5.0395,0,0,4.8479,279.143,797.9768)">
          <use
             id="use10134"
             xlink:href="#id191"
             x="0"
             y="0"
             width="744.09448"
             height="1052.3622" />
        </g>
      </g>
    </g>
    <g
       id="g10492"
       clip-path="url(#id223)"
       transform="matrix(1,0,0,-1,-271.40791,1800.7103)">
      <g
         id="g10494"
         clip-path="url(#id224)">
        <g
           id="g10496"
           clip-path="url(#id225)">
          <g
             id="g10498"
             transform="matrix(40.0893,0,0,20.0998,350.61,945.9702)">
            <use
               id="use10500"
               xlink:href="#id226"
               x="0"
               y="0"
               width="744.09448"
               height="1052.3622" />
          </g>
        </g>
      </g>
    </g>
    <g
       id="g3981">
      <path
         id="path10598"
         d="m 367.60543,992.59298 0.047,-276.29866 -345.953001,0 0,276.32999 345.906001,-0.0313"
         style="fill:#032a61;fill-rule:nonzero;stroke:none;fill-opacity:1"
         inkscape:connector-curvature="0" />
      <path
         id="path10600"
         d="m 21.699429,754.38017 c 24.23645,-8.38171 49.976907,-13.48907 76.861037,-14.74241 120.022914,-5.59302 225.695084,66.88133 269.076294,173.2115 l 0,-6.00036 C 322.43821,802.4144 217.2517,731.77306 98.05913,737.33475 c -26.680462,1.25334 -52.264251,6.23537 -76.359701,14.44474 l 0,2.60068"
         style="fill:#ffffff;fill-rule:nonzero;stroke:none"
         inkscape:connector-curvature="0" />
      <path
         id="path10602"
         d="m 367.66809,1043.2279 -0.10966,-43.58489 -345.812,0.12534 0,43.45955 345.92166,0"
         style="fill:#e11048;fill-rule:nonzero;stroke:none"
         inkscape:connector-curvature="0" />
      <path
         id="path10604"
         d="m 46.468549,1037.1492 c -9.478379,0 -15.698076,-4.418 -15.698076,-11.0294 0,-7.2067 6.329364,-11.5464 16.246412,-11.5464 8.710708,0 14.319402,3.102 14.977405,8.2407 l -10.449717,0 c -0.595336,-1.9427 -2.146344,-2.9453 -4.590355,-2.9453 -3.587684,0 -5.499027,2.068 -5.499027,6.0473 0,3.8697 1.739008,5.7811 5.373693,5.7811 2.694679,0 4.292687,-1.0027 4.90369,-3.0707 l 10.199049,0 c -1.018338,5.3737 -6.736699,8.5227 -15.463074,8.5227"
         style="fill:#ffffff;fill-rule:nonzero;stroke:none"
         inkscape:connector-curvature="0" />
      <path
         id="path10606"
         d="m 156.80941,1036.4755 c -0.235,-0.6893 -0.40733,-1.3943 -0.53267,-2.1933 -2.92968,1.9427 -6.14136,2.867 -10.08938,2.867 -6.20403,0 -9.90138,-2.4754 -9.90138,-6.204 0,-3.5564 2.80435,-5.7027 8.41304,-6.5801 7.3477,-1.1436 11.28006,-0.8303 11.28006,-2.4596 l 0,-0.517 c 0,-1.2377 -1.42568,-1.8801 -4.12036,-1.8801 -2.97668,0 -4.71569,0.8304 -5.12302,2.3971 l -9.55672,0 c 1.01834,-4.8254 5.90637,-7.0971 14.91474,-7.0971 5.5617,0 9.43138,0.8774 11.64039,2.7574 1.97401,1.7076 2.08368,3.854 2.08368,6.768 l 0,7.99 c 0,1.88 0.48567,2.9924 1.56667,3.3527 l 0,0.799 -10.57505,0 z m -7.26937,-8.6794 c -2.33434,0.4387 -3.39968,1.0654 -3.39968,2.3501 0,1.4726 1.48834,2.5066 3.80702,2.5066 3.52502,0 6.0317,-1.4726 6.0317,-3.713 l 0,-2.4283 c -1.78601,0.7676 -4.12036,0.846 -6.43904,1.2846"
         style="fill:#ffffff;fill-rule:nonzero;stroke:none"
         inkscape:connector-curvature="0" />
      <path
         id="path10608"
         d="m 190.55557,1015.3411 10.13639,0 0,2.8983 c 2.16201,-2.303 5.24836,-3.431 9.60371,-3.431 7.70804,0 10.57505,2.5067 10.57505,7.9274 l 0,13.7397 -10.38705,0 0,-10.6377 c 0,-3.901 -0.235,-5.7654 -4.35535,-5.7654 -3.76002,0 -5.24836,1.6294 -5.24836,5.0917 l 0,11.3114 -10.32439,0 0,-21.1344"
         style="fill:#ffffff;fill-rule:nonzero;stroke:none"
         inkscape:connector-curvature="0" />
      <path
         id="path10610"
         d="m 84.444731,1007.8524 10.38705,0 0,10.2304 c 2.381345,-2.2717 5.420689,-3.3057 9.713379,-3.3057 6.62703,0 10.21472,2.4753 10.21472,7.1597 l 0,14.5387 -10.38705,0 0,-10.6377 c 0,-3.901 -0.235,-5.7654 -4.35536,-5.7654 -3.760015,0 -5.248356,1.6294 -5.248356,5.0917 l 0,11.3114 -10.324383,0 0,-28.6231"
         style="fill:#ffffff;fill-rule:nonzero;stroke:none"
         inkscape:connector-curvature="0" />
      <path
         id="path10612"
         d="m 243.7285,1015.3411 10.15205,0 0,2.8983 c 2.14634,-2.303 5.24835,-3.431 9.60371,-3.431 7.69237,0 10.57505,2.5067 10.57505,7.9274 l 0,13.7397 -10.38705,0 0,-10.6377 c 0,-3.901 -0.25067,-5.7654 -4.35535,-5.7654 -3.77569,0 -5.26403,1.6294 -5.26403,5.0917 l 0,11.3114 -10.32438,0 0,-21.1344"
         style="fill:#ffffff;fill-rule:nonzero;stroke:none"
         inkscape:connector-curvature="0" />
      <path
         id="path10614"
         d="m 327.8119,1029.8172 c -1.84867,4.6216 -7.52003,7.285 -15.63541,7.285 -9.79171,0 -15.93307,-4.2144 -15.93307,-11.1077 0,-7.0814 6.26669,-11.3741 15.93307,-11.3741 9.96405,0 16.16808,4.3397 16.16808,11.7031 0,0.3916 0,0.8303 -0.047,1.222 l -21.4321,0 c 0,2.9923 1.97401,4.5903 5.67136,4.5903 2.80434,0 4.59035,-0.799 5.31102,-2.3186 l 9.96405,0 z m -9.43138,-6.1571 c -0.047,-2.7573 -2.31868,-4.3397 -5.90636,-4.3397 -3.33702,0 -5.48336,1.504 -5.90636,4.3397 l 11.81272,0"
         style="fill:#ffffff;fill-rule:nonzero;stroke:none"
         inkscape:connector-curvature="0" />
      <path
         id="path10616"
         d="m 348.022,1007.8524 10.38705,0 0,28.6231 -10.38705,0 0,-28.6231 z"
         style="fill:#ffffff;fill-rule:nonzero;stroke:none"
         inkscape:connector-curvature="0" />
      <path
         id="path10618"
         d="m 21.668096,992.65565 0.376002,0 95.911792,-276.424 -39.182519,0 -57.105275,271.89631 0,4.52769"
         style="fill:#ffffff;fill-rule:nonzero;stroke:none"
         inkscape:connector-curvature="0" />
      <path
         id="path10620"
         d="m 23.90844,992.65565 174.80951,-276.39267 -44.11755,0 -132.211634,276.39267 1.519674,0"
         style="fill:#ffffff;fill-rule:nonzero;stroke:none"
         inkscape:connector-curvature="0" />
      <path
         id="path10622"
         stroke-miterlimit="3.864"
         d="m 139.45066,883.22345 0,-89.04976 55.5856,0 1.70768,24.34612 -31.11415,0 0,11.62472 25.36445,0 0,24.29912 -25.56812,0 -0.0157,28.7798 -25.95979,0 z"
         style="fill:none;fill-rule:nonzero;stroke:#032a61;stroke-width:6.79936600000000000;stroke-linecap:butt;stroke-linejoin:miter;stroke-miterlimit:3.86400007999999980;fill-opacity:1;stroke-opacity:1"
         inkscape:connector-curvature="0" />
      <path
         id="path10624"
         stroke-miterlimit="4"
         d="m 356.34104,883.09812 -27.62047,-46.21689 24.86312,-42.5822 -28.56047,0 -10.71605,18.50242 -11.04505,-18.50242 -28.63881,0 25.59946,42.87987 -26.55513,45.91922 28.09047,-0.0313 12.78406,-21.88644 13.06606,21.91777 28.73281,0 z"
         style="fill:none;fill-rule:nonzero;stroke:#032a61;stroke-width:6.79936600000000000;stroke-linecap:butt;stroke-linejoin:miter;stroke-miterlimit:4;fill-opacity:1;stroke-opacity:1"
         inkscape:connector-curvature="0" />
      <path
         id="path10626"
         stroke-miterlimit="3.864"
         d="m 248.99252,857.483 0.17234,-37.85085 c 0,-4.32402 -3.83836,-8.19371 -8.22504,-8.19371 -4.38669,0 -7.92737,3.86969 -7.92737,8.19371 l -0.0157,37.74118 c 0,4.32402 3.55635,7.8177 7.94304,7.8177 4.38668,0 8.0527,-3.38401 8.0527,-7.70803 z m -53.53326,-18.28309 c 0,-24.80045 20.41377,-44.90088 45.62156,-44.90088 25.19212,0 45.60588,20.10043 45.60588,44.90088 0,24.80045 -20.41376,44.90088 -45.60588,44.90088 -25.20779,0 -45.62156,-20.10043 -45.62156,-44.90088 z"
         style="fill:none;fill-rule:nonzero;stroke:#032a61;stroke-width:6.79936600000000000;stroke-linecap:butt;stroke-linejoin:miter;stroke-miterlimit:3.86400007999999980;fill-opacity:1;stroke-opacity:1"
         inkscape:connector-curvature="0" />
      <path
         id="path10628"
         stroke-miterlimit="4"
         d="m 148.52171,897.99719 52.71858,0 0,18.98809 -32.25782,0 0,11.95373 26.50813,0 0,17.57808 -26.50813,0 0,13.8494 32.66516,0 0,18.98809 -53.12592,0 0,-81.35739 z"
         style="fill:#221e1f;fill-rule:nonzero;stroke:#032a61;stroke-width:6.79936600000000000;stroke-linecap:butt;stroke-linejoin:miter;stroke-miterlimit:4;stroke-opacity:1"
         inkscape:connector-curvature="0" />
      <path
         id="path10630"
         stroke-miterlimit="4"
         d="m 205.21965,897.99719 20.89943,0 9.83871,47.47023 9.43138,-47.47023 17.51542,0 9.94838,47.00023 10.13638,-47.00023 16.90442,0 -19.05076,81.35739 -18.64342,0 -9.63505,-46.31089 -9.32171,46.31089 -19.06643,0 -18.95675,-81.35739 z"
         style="fill:#221e1f;fill-rule:nonzero;stroke:#032a61;stroke-width:6.79936600000000000;stroke-linecap:butt;stroke-linejoin:miter;stroke-miterlimit:4;stroke-opacity:1"
         inkscape:connector-curvature="0" />
      <path
         id="path10632"
         stroke-miterlimit="4"
         d="m 315.60751,950.90378 c 1.51967,6.79937 5.85936,10.19905 13.44206,10.19905 4.95069,0 7.88038,-2.45968 7.88038,-5.62436 0,-5.96903 -4.9507,-5.7497 -14.24107,-8.55404 -15.87041,-4.68436 -23.54712,-11.24872 -23.54712,-24.61245 0,-15.47875 11.42106,-26.96247 30.11148,-26.96247 13.73973,0 23.34345,7.14404 27.7928,20.3981 l -17.89142,5.96903 c -2.11501,-5.85936 -5.56169,-8.19371 -11.31139,-8.19371 -4.24568,0 -7.17536,2.69468 -7.17536,5.8437 0,4.80969 4.54335,5.04469 12.83106,7.3947 6.8777,1.98968 13.2384,3.27435 18.69042,8.31904 4.44936,4.10469 6.76803,10.08938 6.76803,17.34308 0,6.81504 -2.41267,13.25407 -6.86203,18.06376 -5.76536,6.21969 -13.8494,9.61938 -23.45311,9.61938 -17.78175,0 -29.40648,-9.14938 -32.74349,-24.86312 l 19.70876,-4.33969 z"
         style="fill:#221e1f;fill-rule:nonzero;stroke:#032a61;stroke-width:6.79936600000000000;stroke-linecap:butt;stroke-linejoin:miter;stroke-miterlimit:4;stroke-opacity:1"
         inkscape:connector-curvature="0" />
      <path
         id="path10634"
         stroke-miterlimit="4"
         d="m 123.04758,898.31053 0,40.87453 -24.455781,-40.82753 -23.56278,0 -0.203667,80.93439 20.836766,-0.047 0,-46.89056 27.918132,46.93756 19.72443,0 0,-80.93439 -20.2571,-0.047 z"
         style="fill:#221e1f;fill-rule:nonzero;stroke:#032a61;stroke-width:6.79936600000000000;stroke-linecap:butt;stroke-linejoin:miter;stroke-miterlimit:4;stroke-opacity:1"
         inkscape:connector-curvature="0" />
      <path
         id="path10636"
         d="m 139.40366,883.08245 0,-89.06542 55.60127,0 1.70767,24.34611 -31.11415,0 0,11.62473 25.34879,0 0,24.29911 -25.56812,0 -0.0157,28.79547 -25.95979,0"
         style="fill:#ffffff;fill-rule:nonzero;stroke:#032a61;stroke-opacity:1"
         inkscape:connector-curvature="0" />
      <path
         id="path10638"
         d="m 356.30971,882.95712 -27.63614,-46.21689 24.86312,-42.59787 -28.56047,0 -10.70038,18.50242 -11.06072,-18.50242 -28.63881,0 25.59946,42.89554 -26.55513,45.91922 28.10614,-0.0313 12.76839,-21.88644 13.08173,21.91777 28.73281,0"
         style="fill:#ffffff;fill-rule:nonzero;stroke:#032a61;stroke-opacity:1"
         inkscape:connector-curvature="0" />
      <path
         id="path10640"
         d="m 248.94552,857.342 0.17234,-37.86652 c 0,-4.30835 -3.82269,-8.17804 -8.20938,-8.17804 -4.40235,0 -7.94303,3.86969 -7.94303,8.17804 l -0.0157,37.75685 c 0,4.30835 3.55635,7.8177 7.9587,7.8177 4.38669,0 8.03704,-3.39968 8.03704,-7.70803 z m -53.51759,-18.29876 c 0,-24.78478 20.41377,-44.90088 45.60589,-44.90088 25.19212,0 45.62155,20.1161 45.62155,44.90088 0,24.80045 -20.42943,44.90088 -45.62155,44.90088 -25.19212,0 -45.60589,-20.10043 -45.60589,-44.90088"
         style="fill:#ffffff;fill-rule:nonzero;stroke:#032a61;stroke-opacity:1"
         inkscape:connector-curvature="0" />
      <path
         id="path10642"
         d="m 148.47471,898.01286 52.71858,0 0,18.98809 -32.25782,0 0,11.95372 26.52379,0 0,17.57809 -26.52379,0 0,13.83373 32.66516,0 0,18.98809 -53.12592,0 0,-81.34172"
         style="fill:#ffffff;fill-rule:nonzero;stroke:#032a61;stroke-opacity:1"
         inkscape:connector-curvature="0" />
      <path
         id="path10644"
         d="m 205.17265,898.01286 20.9151,0 9.83871,47.47023 9.41571,-47.47023 17.51542,0 9.94838,47.00022 10.13638,-47.00022 16.92008,0 -19.06642,81.34172 -18.64342,0 -9.63505,-46.29522 -9.32171,46.29522 -19.06643,0 -18.95675,-81.34172"
         style="fill:#ffffff;fill-rule:nonzero;stroke:#032a61;stroke-opacity:1"
         inkscape:connector-curvature="0" />
      <path
         id="path10646"
         d="m 315.56051,950.91945 c 1.51967,6.79936 5.87503,10.19905 13.44206,10.19905 4.95069,0 7.88038,-2.45968 7.88038,-5.62436 0,-5.96903 -4.9507,-5.7497 -14.24107,-8.55405 -15.87041,-4.68435 -23.54712,-11.26438 -23.54712,-24.61245 0,-15.47874 11.42106,-26.96246 30.11148,-26.96246 13.73973,0 23.34345,7.14403 27.7928,20.38243 l -17.89142,5.9847 c -2.11501,-5.85937 -5.54602,-8.20938 -11.31139,-8.20938 -4.24568,0 -7.17536,2.69468 -7.17536,5.85936 0,4.80969 4.54335,5.0447 12.83106,7.39471 6.8777,1.98967 13.2384,3.27435 18.69042,8.31904 4.44936,4.10468 6.7837,10.08938 6.7837,17.34308 0,6.79937 -2.42834,13.25406 -6.8777,18.06375 -5.76536,6.20403 -13.8494,9.60372 -23.45311,9.60372 -17.78175,0 -29.40648,-9.13371 -32.74349,-24.84746 l 19.70876,-4.33968"
         style="fill:#ffffff;fill-rule:nonzero;stroke:#032a61;stroke-opacity:1"
         inkscape:connector-curvature="0" />
      <path
         id="path10648"
         d="m 123.01625,898.21653 0,40.89019 -24.455784,-40.85886 -23.56278,0 -0.203668,80.95006 20.836767,-0.047 0,-46.89056 27.918135,46.93756 19.72443,0 0,-80.95006 -20.2571,-0.0313"
         style="fill:#ffffff;fill-rule:nonzero;stroke:#032a61;stroke-opacity:1"
         inkscape:connector-curvature="0" />
    </g>
    <g
       id="g10728"
       clip-path="url(#id242)"
       transform="matrix(1,0,0,-1,-271.40791,1800.7103)">
      <g
         id="g10730"
         transform="matrix(8.3998,0,0,8.3914,437.8569,826.4144)">
        <use
           id="use10732"
           xlink:href="#id243"
           x="0"
           y="0"
           width="744.09448"
           height="1052.3622" />
      </g>
    </g>
    <g
       id="g11250"
       clip-path="url(#id290)"
       transform="matrix(1,0,0,-1,-271.40791,1800.7103)">
      <g
         id="g11252"
         transform="matrix(-8.678422,12.388888,14.344501,10.039913,421.36868,789.32349)">
        <g
           id="g11254"
           clip-path="url(#id291)">
          <g
             id="g11256"
             transform="matrix(1.090526,0,0,-1.094668,-0.100624,0.99128)">
            <use
               id="use11258"
               xlink:href="#id292"
               x="0"
               y="0"
               width="744.09448"
               height="1052.3622" />
          </g>
        </g>
      </g>
    </g>
    <g
       id="g11322"
       clip-path="url(#id299)"
       transform="matrix(1,0,0,-1,-271.40791,1800.7103)">
      <g
         id="g11324"
         transform="matrix(9.419251,-9.498138,-6.989892,-7.048432,211.69089,779.40576)">
        <g
           id="g11326"
           clip-path="url(#id300)">
          <g
             id="g11328"
             transform="matrix(1.151451,0,0,-1.551641,-1.7009e-2,1.202825)">
            <use
               id="use11330"
               xlink:href="#id301"
               x="0"
               y="0"
               width="744.09448"
               height="1052.3622" />
          </g>
        </g>
      </g>
    </g>
    <g
       id="g11332"
       clip-path="url(#id302)"
       transform="matrix(1,0,0,-1,-271.40791,1800.7103)">
      <g
         id="g11334"
         transform="matrix(-11.075449,-2.992517,-3.116866,11.729728,221.5865,769.21942)">
        <g
           id="g11336"
           clip-path="url(#id303)">
          <g
             id="g11338"
             transform="matrix(1.081403,0,0,-1.085418,-4.0782e-2,1.040157)">
            <use
               id="use11340"
               xlink:href="#id304"
               x="0"
               y="0"
               width="744.09448"
               height="1052.3622" />
          </g>
        </g>
      </g>
    </g>
    <g
       id="g12370"
       clip-path="url(#id349)"
       transform="matrix(1,0,0,-1,-271.40791,1800.7103)">
      <g
         id="g12372"
         transform="matrix(14.425248,-14.425248,-14.425597,-14.425597,186.89969,834.87714)">
        <g
           id="g12374"
           clip-path="url(#id350)">
          <g
             id="g12376"
             transform="matrix(0.969971,0,0,-0.969947,1.4997e-2,0.984974)">
            <use
               id="use12378"
               xlink:href="#id351"
               x="0"
               y="0"
               width="744.09448"
               height="1052.3622" />
          </g>
        </g>
      </g>
    </g>
    <g
       id="g12380"
       clip-path="url(#id352)"
       transform="matrix(1,0,0,-1,-271.40791,1800.7103)">
      <g
         id="g12382"
         transform="matrix(0,6.514376,6.637661,0,171.65855,818.68323)">
        <g
           id="g12384"
           clip-path="url(#id353)">
          <g
             id="g12386"
             transform="matrix(0.90596,0,0,-0.907677,4.6989e-2,0.953827)">
            <use
               id="use12388"
               xlink:href="#id354"
               x="0"
               y="0"
               width="744.09448"
               height="1052.3622" />
          </g>
        </g>
      </g>
    </g>
    <g
       id="g12390"
       clip-path="url(#id355)"
       transform="matrix(1,0,0,-1,-271.40791,1800.7103)">
      <g
         id="g12392"
         transform="matrix(0,6.514376,6.637967,0,195.49745,818.6828)">
        <g
           id="g12394"
           clip-path="url(#id356)">
          <g
             id="g12396"
             transform="matrix(0.90596,0,0,-0.907642,4.7058e-2,0.953825)">
            <use
               id="use12398"
               xlink:href="#id357"
               x="0"
               y="0"
               width="744.09448"
               height="1052.3622" />
          </g>
        </g>
      </g>
    </g>
    <g
       id="g14230"
       transform="matrix(21.8228,0,0,-14.534,46.57208,805.07423)">
      <use
         id="use14232"
         xlink:href="#id399"
         x="0"
         y="0"
         width="744.09448"
         height="1052.3622" />
    </g>
    <g
       id="g14242"
       clip-path="url(#id403)"
       transform="matrix(1,0,0,-1,-271.40791,1800.7103)">
      <g
         id="g14244"
         transform="matrix(5.761,0,0,8.0655,152.7613,996.3373)">
        <use
           id="use14246"
           xlink:href="#id404"
           x="0"
           y="0"
           width="744.09448"
           height="1052.3622" />
      </g>
    </g>
    <g
       id="g14288"
       clip-path="url(#id408)"
       transform="matrix(1,0,0,-1,-271.40791,1800.7103)">
      <g
         id="g14290"
         clip-path="url(#id409)">
        <g
           id="g14292"
           clip-path="url(#id410)">
          <g
             id="g14294"
             transform="matrix(29.7555,0,0,24.7666,179.53,993.2234)">
            <use
               id="use14296"
               xlink:href="#id411"
               x="0"
               y="0"
               width="744.09448"
               height="1052.3622" />
          </g>
        </g>
      </g>
    </g>
    <g
       id="g14298"
       clip-path="url(#id412)"
       transform="matrix(1,0,0,-1,-271.40791,1800.7103)">
      <g
         id="g14300"
         clip-path="url(#id413)">
        <g
           id="g14302"
           clip-path="url(#id414)">
          <g
             id="g14304"
             transform="matrix(30.4652,0,0,18.219,221.58,994.991)">
            <use
               id="use14306"
               xlink:href="#id415"
               x="0"
               y="0"
               width="744.09448"
               height="1052.3622" />
          </g>
        </g>
      </g>
    </g>
    <g
       id="g14356"
       transform="matrix(38.1582,0,0,-10.6474,124.29208,803.41763)">
      <use
         id="use14358"
         xlink:href="#id416"
         x="0"
         y="0"
         width="744.09448"
         height="1052.3622" />
    </g>
  </g>
</svg>
