<?xml version="1.0" encoding="UTF-8" standalone="no"?>
<!-- Generator: Adobe Illustrator 15.0.0, SVG Export Plug-In . SVG Version: 6.00 Build 0)  -->

<svg
   xmlns:dc="http://purl.org/dc/elements/1.1/"
   xmlns:cc="http://creativecommons.org/ns#"
   xmlns:rdf="http://www.w3.org/1999/02/22-rdf-syntax-ns#"
   xmlns:svg="http://www.w3.org/2000/svg"
   xmlns="http://www.w3.org/2000/svg"
   xmlns:xlink="http://www.w3.org/1999/xlink"
   xmlns:sodipodi="http://sodipodi.sourceforge.net/DTD/sodipodi-0.dtd"
   xmlns:inkscape="http://www.inkscape.org/namespaces/inkscape"
   version="1.1"
   id="Calque_1"
   x="0px"
   y="0px"
   width="510.50299"
   height="816.43921"
   viewBox="-0.5 -7.721 510.503 816.43923"
   enable-background="new -0.5 -7.721 3660.501 1389.387"
   xml:space="preserve"
   inkscape:version="0.48.4 r9939"
   sodipodi:docname="tv.france3.svg"><metadata
   id="metadata229"><rdf:RDF><cc:Work
       rdf:about=""><dc:format>image/svg+xml</dc:format><dc:type
         rdf:resource="http://purl.org/dc/dcmitype/StillImage" /><dc:title></dc:title></cc:Work></rdf:RDF></metadata><defs
   id="defs227">
	
	
	
	
	
	
<linearGradient
   inkscape:collect="always"
   xlink:href="#SVGID_1_"
   id="linearGradient3524"
   gradientUnits="userSpaceOnUse"
   gradientTransform="matrix(1,0,0,-1,4,1384.3867)"
   x1="3372.2368"
   y1="1359.9609"
   x2="3441.5239"
   y2="568.00562" /><linearGradient
   inkscape:collect="always"
   xlink:href="#SVGID_2_"
   id="linearGradient3526"
   gradientUnits="userSpaceOnUse"
   gradientTransform="matrix(1,0,0,-1,4,1384.3867)"
   x1="3467.5728"
   y1="1166.3867"
   x2="3467.5728"
   y2="710.26758" /><linearGradient
   inkscape:collect="always"
   xlink:href="#SVGID_3_"
   id="linearGradient3528"
   gradientUnits="userSpaceOnUse"
   gradientTransform="matrix(1,0,0,-1,4,1384.3867)"
   x1="2742.2368"
   y1="1359.96"
   x2="2811.5239"
   y2="568.00513" /><linearGradient
   inkscape:collect="always"
   xlink:href="#SVGID_4_"
   id="linearGradient3530"
   gradientUnits="userSpaceOnUse"
   gradientTransform="matrix(1,0,0,-1,4,1384.3867)"
   x1="2837.6958"
   y1="1228.9727"
   x2="2837.6958"
   y2="739.91888" /><linearGradient
   inkscape:collect="always"
   xlink:href="#SVGID_5_"
   id="linearGradient3532"
   gradientUnits="userSpaceOnUse"
   gradientTransform="matrix(1,0,0,-1,4,1384.3867)"
   x1="2112.2378"
   y1="1359.96"
   x2="2181.5249"
   y2="568.00513" /><linearGradient
   inkscape:collect="always"
   xlink:href="#SVGID_6_"
   id="linearGradient3534"
   gradientUnits="userSpaceOnUse"
   gradientTransform="matrix(1,0,0,-1,4,1384.3867)"
   x1="2200.3208"
   y1="1228.9209"
   x2="2200.3208"
   y2="739.9209" /><linearGradient
   inkscape:collect="always"
   xlink:href="#SVGID_7_"
   id="linearGradient3536"
   gradientUnits="userSpaceOnUse"
   gradientTransform="matrix(1,0,0,-1,4,1384.3867)"
   x1="1482.2363"
   y1="1359.9609"
   x2="1551.5233"
   y2="568.0061" /><linearGradient
   inkscape:collect="always"
   xlink:href="#SVGID_8_"
   id="linearGradient3538"
   gradientUnits="userSpaceOnUse"
   gradientTransform="matrix(1,0,0,-1,4,1384.3867)"
   x1="1577.625"
   y1="1228.6318"
   x2="1577.625"
   y2="739.92291" /><linearGradient
   inkscape:collect="always"
   xlink:href="#SVGID_9_"
   id="linearGradient3540"
   gradientUnits="userSpaceOnUse"
   gradientTransform="matrix(1,0,0,-1,4,1384.3867)"
   x1="852.23682"
   y1="1359.96"
   x2="921.52368"
   y2="568.00562" /><linearGradient
   inkscape:collect="always"
   xlink:href="#SVGID_10_"
   id="linearGradient3542"
   gradientUnits="userSpaceOnUse"
   gradientTransform="matrix(1,0,0,-1,4,1384.3867)"
   x1="942.58148"
   y1="1228.8809"
   x2="942.58148"
   y2="739.91412" /><linearGradient
   inkscape:collect="always"
   xlink:href="#SVGID_11_"
   id="linearGradient3544"
   gradientUnits="userSpaceOnUse"
   gradientTransform="matrix(1,0,0,-1,4,1384.3867)"
   x1="222.2368"
   y1="1359.96"
   x2="291.5238"
   y2="568.00562" /><linearGradient
   inkscape:collect="always"
   xlink:href="#SVGID_12_"
   id="linearGradient3546"
   gradientUnits="userSpaceOnUse"
   x1="335.88281"
   y1="186.5298"
   x2="335.88281"
   y2="674.12061" /><linearGradient
   inkscape:collect="always"
   xlink:href="#SVGID_1_"
   id="linearGradient3933"
   gradientUnits="userSpaceOnUse"
   gradientTransform="matrix(1,0,0,-1,4,1384.3867)"
   x1="3372.2368"
   y1="1359.9609"
   x2="3441.5239"
   y2="568.00562" /><linearGradient
   inkscape:collect="always"
   xlink:href="#SVGID_2_"
   id="linearGradient3935"
   gradientUnits="userSpaceOnUse"
   gradientTransform="matrix(1,0,0,-1,4,1384.3867)"
   x1="3467.5728"
   y1="1166.3867"
   x2="3467.5728"
   y2="710.26758" /><linearGradient
   inkscape:collect="always"
   xlink:href="#SVGID_3_"
   id="linearGradient3937"
   gradientUnits="userSpaceOnUse"
   gradientTransform="matrix(1,0,0,-1,4,1384.3867)"
   x1="2742.2368"
   y1="1359.96"
   x2="2811.5239"
   y2="568.00513" /><linearGradient
   inkscape:collect="always"
   xlink:href="#SVGID_4_"
   id="linearGradient3939"
   gradientUnits="userSpaceOnUse"
   gradientTransform="matrix(1,0,0,-1,4,1384.3867)"
   x1="2837.6958"
   y1="1228.9727"
   x2="2837.6958"
   y2="739.91888" /><linearGradient
   inkscape:collect="always"
   xlink:href="#SVGID_5_"
   id="linearGradient3941"
   gradientUnits="userSpaceOnUse"
   gradientTransform="matrix(1,0,0,-1,4,1384.3867)"
   x1="2112.2378"
   y1="1359.96"
   x2="2181.5249"
   y2="568.00513" /><linearGradient
   inkscape:collect="always"
   xlink:href="#SVGID_6_"
   id="linearGradient3943"
   gradientUnits="userSpaceOnUse"
   gradientTransform="matrix(1,0,0,-1,4,1384.3867)"
   x1="2200.3208"
   y1="1228.9209"
   x2="2200.3208"
   y2="739.9209" /><linearGradient
   inkscape:collect="always"
   xlink:href="#SVGID_9_"
   id="linearGradient3945"
   gradientUnits="userSpaceOnUse"
   gradientTransform="matrix(1,0,0,-1,4,1384.3867)"
   x1="852.23682"
   y1="1359.96"
   x2="921.52368"
   y2="568.00562" /><linearGradient
   inkscape:collect="always"
   xlink:href="#SVGID_10_"
   id="linearGradient3947"
   gradientUnits="userSpaceOnUse"
   gradientTransform="matrix(1,0,0,-1,4,1384.3867)"
   x1="942.58148"
   y1="1228.8809"
   x2="942.58148"
   y2="739.91412" /><linearGradient
   inkscape:collect="always"
   xlink:href="#SVGID_11_"
   id="linearGradient3949"
   gradientUnits="userSpaceOnUse"
   gradientTransform="matrix(1,0,0,-1,4,1384.3867)"
   x1="222.2368"
   y1="1359.96"
   x2="291.5238"
   y2="568.00562" /><linearGradient
   inkscape:collect="always"
   xlink:href="#SVGID_12_"
   id="linearGradient3951"
   gradientUnits="userSpaceOnUse"
   x1="335.88281"
   y1="186.5298"
   x2="335.88281"
   y2="674.12061" /></defs><sodipodi:namedview
   pagecolor="#ffffff"
   bordercolor="#666666"
   borderopacity="1"
   objecttolerance="10"
   gridtolerance="10"
   guidetolerance="10"
   inkscape:pageopacity="0"
   inkscape:pageshadow="2"
   inkscape:window-width="1600"
   inkscape:window-height="837"
   id="namedview225"
   showgrid="false"
   inkscape:zoom="0.27275905"
   inkscape:cx="-261.8888"
   inkscape:cy="53.608298"
   inkscape:window-x="-8"
   inkscape:window-y="-8"
   inkscape:window-maximized="1"
   inkscape:current-layer="Calque_1"
   fit-margin-top="0"
   fit-margin-left="0"
   fit-margin-right="0"
   fit-margin-bottom="0" />

<g
   id="France_4A_2_"
   transform="translate(-1890,1.132535e-4)">
		<g
   id="g98">
			<path
   style="fill:#76246f"
   inkscape:connector-curvature="0"
   id="path100"
   d="m 1889.5,683.941 c 0,11 8.803,21.87 19.563,24.157 l 471.373,100.193 c 10.76,2.287 19.563,-4.842 19.563,-15.842 V 8.548 c 0,-11 -8.803,-18.129 -19.563,-15.842 L 1909.063,92.9 c -10.76,2.287 -19.563,13.158 -19.563,24.158 v 566.883 z" />
		</g>
		<g
   id="g102">
			
				<linearGradient
   gradientTransform="matrix(1,0,0,-1,4,1384.3867)"
   y2="568.00513"
   x2="2181.5249"
   y1="1359.96"
   x1="2112.2378"
   gradientUnits="userSpaceOnUse"
   id="SVGID_5_">
				<stop
   id="stop105"
   style="stop-color:#9E639A"
   offset="0" />
				<stop
   id="stop107"
   style="stop-color:#802A75"
   offset="0.25" />
				<stop
   id="stop109"
   style="stop-color:#985D93"
   offset="0.5" />
				<stop
   id="stop111"
   style="stop-color:#76246F"
   offset="1" />
			</linearGradient>
			<path
   inkscape:connector-curvature="0"
   style="fill:url(#linearGradient3941)"
   id="path113"
   d="m 1895,677.106 c 0,11 8.803,21.87 19.563,24.157 l 459.875,97.749 c 10.76,2.287 19.563,-4.842 19.563,-15.842 V 17.828 c 0,-11 -8.803,-18.129 -19.563,-15.842 l -459.875,97.75 c -10.76,2.287 -19.563,13.158 -19.563,24.158 v 553.212 z" />
		</g>
		<path
   style="fill:#76246f"
   inkscape:connector-curvature="0"
   id="path115"
   d="m 1893.958,112.973 c 0,0 449.838,-53.555 506.035,68.021 l 0.01,244.633 c 0,0 -3.381,147.555 -72.469,169.701 l -226.662,48.103 c 0,0 -196.492,65.773 -209.225,-352.325 -5.929,-136.053 2.314,-178.133 2.314,-178.133 z" />
		
			<linearGradient
   gradientTransform="matrix(1,0,0,-1,4,1384.3867)"
   y2="739.9209"
   x2="2200.3208"
   y1="1228.9209"
   x1="2200.3208"
   gradientUnits="userSpaceOnUse"
   id="SVGID_6_">
			<stop
   id="stop118"
   style="stop-color:#FFFFFF"
   offset="0.5" />
			<stop
   id="stop120"
   style="stop-color:#BFBFBF"
   offset="1" />
		</linearGradient>
		<path
   inkscape:connector-curvature="0"
   style="fill:url(#linearGradient3943)"
   id="path122"
   d="m 2320.92,155.466 h -100.943 l -201.322,276.572 c -8.307,10.459 -9.854,21.002 -10.012,26.795 v 0.125 c 0,0.595 0,1.136 0,1.589 l 0.045,90.651 h 209.281 l -0.02,93.268 h 102.971 v -94.211 h 79.078 V 447.316 l -79.078,-0.084 c 0,0 0,-272.624 0,-291.766 z m -102.949,291.655 c 0,0 -101.959,0.063 -101.959,0 0,-3.104 1.076,-5.969 2.705,-8.295 l 5.807,-8.007 93.447,-127.134 v 143.436 l 0,0 z" />
	</g>
</svg>