<?xml version="1.0" encoding="UTF-8" standalone="no"?>
<!-- Generator: Adobe Illustrator 15.0.0, SVG Export Plug-In . SVG Version: 6.00 Build 0)  -->

<svg
   xmlns:dc="http://purl.org/dc/elements/1.1/"
   xmlns:cc="http://creativecommons.org/ns#"
   xmlns:rdf="http://www.w3.org/1999/02/22-rdf-syntax-ns#"
   xmlns:svg="http://www.w3.org/2000/svg"
   xmlns="http://www.w3.org/2000/svg"
   xmlns:xlink="http://www.w3.org/1999/xlink"
   xmlns:sodipodi="http://sodipodi.sourceforge.net/DTD/sodipodi-0.dtd"
   xmlns:inkscape="http://www.inkscape.org/namespaces/inkscape"
   version="1.1"
   id="Calque_1"
   x="0px"
   y="0px"
   width="510.50198"
   height="816.43921"
   viewBox="-0.5 -7.721 510.50199 816.43923"
   enable-background="new -0.5 -7.721 3660.501 1389.387"
   xml:space="preserve"
   inkscape:version="0.48.4 r9939"
   sodipodi:docname="tv.france1.svg"><metadata
   id="metadata229"><rdf:RDF><cc:Work
       rdf:about=""><dc:format>image/svg+xml</dc:format><dc:type
         rdf:resource="http://purl.org/dc/dcmitype/StillImage" /><dc:title></dc:title></cc:Work></rdf:RDF></metadata><defs
   id="defs227">
	
	
	
	
	
	
<linearGradient
   inkscape:collect="always"
   xlink:href="#SVGID_1_"
   id="linearGradient3524"
   gradientUnits="userSpaceOnUse"
   gradientTransform="matrix(1,0,0,-1,4,1384.3867)"
   x1="3372.2368"
   y1="1359.9609"
   x2="3441.5239"
   y2="568.00562" /><linearGradient
   inkscape:collect="always"
   xlink:href="#SVGID_2_"
   id="linearGradient3526"
   gradientUnits="userSpaceOnUse"
   gradientTransform="matrix(1,0,0,-1,4,1384.3867)"
   x1="3467.5728"
   y1="1166.3867"
   x2="3467.5728"
   y2="710.26758" /><linearGradient
   inkscape:collect="always"
   xlink:href="#SVGID_3_"
   id="linearGradient3528"
   gradientUnits="userSpaceOnUse"
   gradientTransform="matrix(1,0,0,-1,4,1384.3867)"
   x1="2742.2368"
   y1="1359.96"
   x2="2811.5239"
   y2="568.00513" /><linearGradient
   inkscape:collect="always"
   xlink:href="#SVGID_4_"
   id="linearGradient3530"
   gradientUnits="userSpaceOnUse"
   gradientTransform="matrix(1,0,0,-1,4,1384.3867)"
   x1="2837.6958"
   y1="1228.9727"
   x2="2837.6958"
   y2="739.91888" /><linearGradient
   inkscape:collect="always"
   xlink:href="#SVGID_5_"
   id="linearGradient3532"
   gradientUnits="userSpaceOnUse"
   gradientTransform="matrix(1,0,0,-1,4,1384.3867)"
   x1="2112.2378"
   y1="1359.96"
   x2="2181.5249"
   y2="568.00513" /><linearGradient
   inkscape:collect="always"
   xlink:href="#SVGID_6_"
   id="linearGradient3534"
   gradientUnits="userSpaceOnUse"
   gradientTransform="matrix(1,0,0,-1,4,1384.3867)"
   x1="2200.3208"
   y1="1228.9209"
   x2="2200.3208"
   y2="739.9209" /><linearGradient
   inkscape:collect="always"
   xlink:href="#SVGID_7_"
   id="linearGradient3536"
   gradientUnits="userSpaceOnUse"
   gradientTransform="matrix(1,0,0,-1,4,1384.3867)"
   x1="1482.2363"
   y1="1359.9609"
   x2="1551.5233"
   y2="568.0061" /><linearGradient
   inkscape:collect="always"
   xlink:href="#SVGID_8_"
   id="linearGradient3538"
   gradientUnits="userSpaceOnUse"
   gradientTransform="matrix(1,0,0,-1,4,1384.3867)"
   x1="1577.625"
   y1="1228.6318"
   x2="1577.625"
   y2="739.92291" /><linearGradient
   inkscape:collect="always"
   xlink:href="#SVGID_9_"
   id="linearGradient3540"
   gradientUnits="userSpaceOnUse"
   gradientTransform="matrix(1,0,0,-1,4,1384.3867)"
   x1="852.23682"
   y1="1359.96"
   x2="921.52368"
   y2="568.00562" /><linearGradient
   inkscape:collect="always"
   xlink:href="#SVGID_10_"
   id="linearGradient3542"
   gradientUnits="userSpaceOnUse"
   gradientTransform="matrix(1,0,0,-1,4,1384.3867)"
   x1="942.58148"
   y1="1228.8809"
   x2="942.58148"
   y2="739.91412" /><linearGradient
   inkscape:collect="always"
   xlink:href="#SVGID_11_"
   id="linearGradient3544"
   gradientUnits="userSpaceOnUse"
   gradientTransform="matrix(1,0,0,-1,4,1384.3867)"
   x1="222.2368"
   y1="1359.96"
   x2="291.5238"
   y2="568.00562" /><linearGradient
   inkscape:collect="always"
   xlink:href="#SVGID_12_"
   id="linearGradient3546"
   gradientUnits="userSpaceOnUse"
   x1="335.88281"
   y1="186.5298"
   x2="335.88281"
   y2="674.12061" /></defs><sodipodi:namedview
   pagecolor="#ffffff"
   bordercolor="#666666"
   borderopacity="1"
   objecttolerance="10"
   gridtolerance="10"
   guidetolerance="10"
   inkscape:pageopacity="0"
   inkscape:pageshadow="2"
   inkscape:window-width="1600"
   inkscape:window-height="837"
   id="namedview225"
   showgrid="false"
   inkscape:zoom="0.27275905"
   inkscape:cx="998.11118"
   inkscape:cy="53.608305"
   inkscape:window-x="-8"
   inkscape:window-y="-8"
   inkscape:window-maximized="1"
   inkscape:current-layer="Calque_1"
   fit-margin-top="0"
   fit-margin-left="0"
   fit-margin-right="0"
   fit-margin-bottom="0" />

<g
   id="France_2"
   transform="translate(-630,1.132535e-4)">
		<g
   id="g164">
			<path
   style="fill:#ed1b2f"
   inkscape:connector-curvature="0"
   id="path166"
   d="m 629.5,683.941 c 0,11 8.804,21.87 19.563,24.157 l 471.373,100.193 c 10.761,2.287 19.563,-4.842 19.563,-15.842 V 8.548 c 0,-11 -8.804,-18.129 -19.563,-15.842 L 649.063,92.9 C 638.304,95.187 629.5,106.058 629.5,117.058 v 566.883 z" />
		</g>
		<g
   id="g168">
			
				<linearGradient
   gradientTransform="matrix(1,0,0,-1,4,1384.3867)"
   y2="568.00562"
   x2="921.52368"
   y1="1359.96"
   x1="852.23682"
   gradientUnits="userSpaceOnUse"
   id="SVGID_9_">
				<stop
   id="stop171"
   style="stop-color:#F37364"
   offset="0" />
				<stop
   id="stop173"
   style="stop-color:#F16152"
   offset="0.15" />
				<stop
   id="stop175"
   style="stop-color:#F26758"
   offset="0.5" />
				<stop
   id="stop177"
   style="stop-color:#ED1B2F"
   offset="1" />
			</linearGradient>
			<path
   inkscape:connector-curvature="0"
   style="fill:url(#linearGradient3540)"
   id="path179"
   d="m 635,677.106 c 0,11 8.804,21.87 19.563,24.157 l 459.875,97.749 c 10.76,2.287 19.563,-4.842 19.563,-15.842 V 17.828 c 0,-11 -8.804,-18.129 -19.563,-15.842 L 654.563,99.736 C 643.804,102.022 635,112.894 635,123.894 v 553.212 z" />
		</g>
		<path
   style="fill:#ed1b2f"
   inkscape:connector-curvature="0"
   id="path181"
   d="m 633.957,112.973 c 0,0 449.839,-53.555 506.035,68.021 l 0.01,244.633 c 0,0 -3.381,147.555 -72.47,169.701 L 840.87,643.431 c 0,0 -196.492,65.773 -209.223,-352.325 -5.93,-136.053 2.311,-178.133 2.311,-178.133 z" />
		
			<linearGradient
   gradientTransform="matrix(1,0,0,-1,4,1384.3867)"
   y2="739.91412"
   x2="942.58148"
   y1="1228.8809"
   x1="942.58148"
   gradientUnits="userSpaceOnUse"
   id="SVGID_10_">
			<stop
   id="stop184"
   style="stop-color:#FFFFFF"
   offset="0.5" />
			<stop
   id="stop186"
   style="stop-color:#BFBFBF"
   offset="1" />
		</linearGradient>
		<path
   inkscape:connector-curvature="0"
   style="fill:url(#linearGradient3542)"
   id="path188"
   d="M 1139.997,530.844 H 916.685 c 0,0 31.011,-17.461 84.729,-47.266 92.2,-51.167 126.452,-91.167 138.583,-130.516 v -93.541 c -18.865,-63.62 -80.795,-104.016 -185.904,-104.016 -104.054,0 -203.706,40.942 -196.452,186.195 0,0 129.411,-0.37 131.271,0 0,-59.805 11.646,-91.156 62.604,-91.156 44.412,0 65.772,19.867 65.772,54.067 0,32.535 -29.177,54.354 -57.735,73.636 -39.348,26.563 -57.564,38.664 -121.563,82.036 -79.448,53.875 -84.825,92.667 -84.825,184.136 0.151,0.106 334.602,0.023 386.837,0 V 530.844 h 0 z" />
	</g>
</svg>