<?xml version="1.0" encoding="utf-8"?>
<!-- Generator: Adobe Illustrator 12.0.0, SVG Export Plug-In . SVG Version: 6.00 Build 51448)  -->
<!DOCTYPE svg PUBLIC "-//W3C//DTD SVG 1.1//EN" "http://www.w3.org/Graphics/SVG/1.1/DTD/svg11.dtd" [
	<!ENTITY ns_svg "http://www.w3.org/2000/svg">
	<!ENTITY ns_xlink "http://www.w3.org/1999/xlink">
]>
<svg  version="1.1" id="logo" xmlns="&ns_svg;" xmlns:xlink="&ns_xlink;" width="178.836" height="168.618"
	 viewBox="0 0 178.836 168.618" overflow="visible" enable-background="new 0 0 178.836 168.618" xml:space="preserve">
<path fill="#FFFFFF" d="M69.118,168.618c16.548-0.08,35.958-2.31,56.338-6.87c19.489-4.36,37.939-10.439,53.38-17.56V0H0v168.618
	H69.118"/>
<path fill="#29B1E6" d="M85.466,103.458c4.04,2.565,15.109,2.509,26.91-0.127c14.71-3.295,25.91-9.432,24.96-13.675
	c-0.15-0.71-0.66-1.332-1.5-1.864c-4.04-2.562-15.11-2.513-26.91,0.126c-11.8,2.643-21.83,7.313-24.4,11.354
	c-0.532,0.841-0.723,1.622-0.561,2.324C84.12,102.303,84.626,102.929,85.466,103.458 M37.454,131.032
	c0.555,2.477,2.297,4.666,5.179,6.493c12.492,7.923,43.653,8.152,77.522,0.569c23.86-5.338,45.23-13.696,58.681-22.945V0H0v168.618
	h25.37c-5.603-3.08-8.98-6.91-9.989-11.41c-0.21-0.95-0.315-1.91-0.315-2.89c0-4.13,1.866-8.54,5.582-13.168
	c0.066-0.084,0.184-0.104,0.27-0.042c0.087,0.054,0.115,0.174,0.062,0.268c-2.088,3.622-2.787,7.052-2.083,10.202
	c2.455,10.97,21.453,16.92,48.437,17.04h1.784c16.548-0.08,35.958-2.31,56.338-6.87c19.489-4.36,37.939-10.439,53.38-17.56v-20.764
	c-14.48,8.738-34.761,16.313-57.19,21.344c-35.79,8-68.982,7.59-82.577-1.03c-3.329-2.119-5.345-4.661-5.995-7.561
	c-1.036-4.612,1.534-9.968,7.422-15.483c0.078-0.073,0.198-0.073,0.277,0c0.077,0.071,0.087,0.19,0.02,0.277
	C37.894,124.592,36.77,127.979,37.454,131.032z M108.636,86.631c17.91-4.008,33.52-2.637,34.79,3.059
	c0.25,1.09-0.03,2.275-0.82,3.518c-3.319,5.231-15.11,10.889-29.34,14.074c-17.91,4.004-33.524,2.637-34.801-3.055
	C77.194,98.532,90.726,90.643,108.636,86.631z M65.019,103.626c0.09-0.061,0.209-0.042,0.275,0.046
	c0.061,0.091,0.048,0.21-0.037,0.278c-4.604,3.701-6.688,7.226-6.025,10.19c0.352,1.572,1.461,2.964,3.303,4.128
	c8.243,5.227,30.131,5.272,53.21,0.105c29.17-6.53,51.291-19.05,49.311-27.914c-0.67-2.965-4.05-5.263-9.79-6.649
	c-0.11-0.026-0.18-0.127-0.16-0.237c0.03-0.104,0.12-0.175,0.23-0.16c9.43,1.421,14.93,4.501,15.92,8.896
	c0.439,1.965-0.07,4.099-1.49,6.349c-6.01,9.466-27.21,19.671-52.75,25.389c-25.55,5.718-49.083,5.523-58.553-0.483
	c-2.25-1.427-3.614-3.146-4.051-5.107C53.429,114.06,57.095,108.933,65.019,103.626z"/>
<path fill="#FFFFFF" d="M104.906,29.416h-0.069l-7.141-13.114h-7.75v24.532h7.16V27.425h0.07l7.52,13.409h7.36V16.302h-7.15V29.416
	 M127.906,35.299c-3.52,0-4.66-3.422-4.66-6.731c0-3.298,1.141-6.741,4.66-6.741c3.131,0,3.82,2.719,3.96,3.611h7.36
	c-0.66-6.149-4.36-9.688-11.11-9.724c-7.55,0-12.439,5.121-12.439,12.854c0,7.254,4.51,12.844,12.439,12.844
	c7.19,0,11.21-5.256,11.21-10.195h-7.42C131.457,33.52,130.457,35.299,127.906,35.299z M60.317,24.583
	c0-5.343-3.227-8.281-9.088-8.281H38.701v24.532h7.421c0,0,0-7.185,0-8.334h2.603c0.343,0.646,4.288,8.334,4.288,8.334h8.033
	c0,0-4.545-8.472-5.212-9.653C58.577,30.065,60.317,27.559,60.317,24.583z M50.748,26.854c0,0-3.605,0-4.626,0v-4.903
	c1.021,0,4.626,0,4.626,0c1.619,0,2.41,0.801,2.41,2.442C53.158,26.036,52.367,26.854,50.748,26.854z M162.946,22.01v-5.73h-20.26
	v24.555h20.26v-5.732h-12.21v-3.685h10.13v-5.714h-10.13V22.01H162.946z M16.435,40.834h8.047v-8.311h8.813v-5.734h-8.813V22.01
	h11.064v-5.73H16.435V40.834z M70.985,16.302l-8.79,24.532h7.867l0.923-3.258h7.985l0.958,3.258h8.008l-8.774-24.532H70.985z
	 M72.51,32.475l2.495-8.778l2.587,8.778H72.51z"/>
<path fill="#FFFFFF" d="M80.175,68.186V45.744H68.661L50.259,67.148v9.02h-17.5v-0.06c7.584-4.628,17.642-7.859,17.642-18.174
	c0-8.545-6.649-12.653-16.423-12.653c-10.824,0-17.7,6.358-17.06,17.411H27.78c-0.117-4.923,1.455-8.277,6.079-8.277
	c2.714,0,4.858,1.275,4.858,4.923c0,2.948-3.359,4.558-5.435,5.837c-5.149,3.123-10.928,6.197-14.291,10.881
	c-1.963,2.715-3.126,6.069-2.888,9.946h34.88v-7.984h17.161v7.984h12.031v-7.984h5.441v-9.832H80.175 M68.144,68.186h-9.839
	l9.839-11.282V68.186z"/>
</svg>
