<?xml version="1.0" encoding="UTF-8" standalone="no"?>
<!-- Created with Inkscape (http://www.inkscape.org/) -->

<svg
   xmlns:dc="http://purl.org/dc/elements/1.1/"
   xmlns:cc="http://creativecommons.org/ns#"
   xmlns:rdf="http://www.w3.org/1999/02/22-rdf-syntax-ns#"
   xmlns:svg="http://www.w3.org/2000/svg"
   xmlns="http://www.w3.org/2000/svg"
   xmlns:inkscape="http://www.inkscape.org/namespaces/inkscape"
   version="1.1"
   width="22.792"
   height="14.096"
   viewBox="496.238 307.076 22.792 14.096"
   id="Layer_1"
   xml:space="preserve"><metadata
   id="metadata13"><rdf:RDF><cc:Work
       rdf:about=""><dc:format>image/svg+xml</dc:format><dc:type
         rdf:resource="http://purl.org/dc/dcmitype/StillImage" /></cc:Work></rdf:RDF></metadata><defs
   id="defs11" />

<g
   transform="translate(-12.75,-6.84)"
   id="g3">
	<path
   d="m 508.988,313.916 c 2.598,-10e-4 5.195,-0.002 7.793,10e-4 0.887,0.941 1.779,1.877 2.671,2.813 0.884,-0.943 1.782,-1.874 2.668,-2.814 2.612,-10e-4 5.225,-10e-4 7.836,0 10e-4,1.932 -10e-4,3.863 10e-4,5.796 -0.006,0.088 0.019,0.186 -0.024,0.268 -0.648,1.059 -1.21,2.173 -1.632,3.341 -0.054,0.126 -0.104,0.271 -0.226,0.348 -0.104,0.044 -0.257,0.025 -0.313,-0.085 -0.074,-0.139 -0.07,-0.301 -0.091,-0.453 -0.068,-0.589 -0.13,-1.181 -0.227,-1.767 -0.058,-0.299 -0.124,-0.622 -0.347,-0.847 -0.209,-0.204 -0.529,-0.224 -0.801,-0.158 -0.25,0.055 -0.485,0.204 -0.611,0.431 -0.164,0.281 -0.162,0.622 -0.103,0.933 0.103,0.545 0.287,1.07 0.475,1.591 0.372,0.982 0.749,1.964 1.122,2.945 0.093,0.251 0.24,0.51 0.497,0.623 0.221,0.093 0.471,0.092 0.705,0.058 0.203,-0.031 0.378,-0.166 0.479,-0.341 0.188,-0.32 0.261,-0.689 0.372,-1.04 0.222,-0.716 0.435,-1.438 0.721,-2.132 0.006,1.528 0,3.057 0.002,4.585 -1.63,10e-4 -3.261,0 -4.892,10e-4 -0.066,-0.568 -0.114,-1.141 -0.084,-1.712 0.007,-0.558 0.03,-1.113 0.024,-1.671 0.017,-0.809 -0.088,-1.611 -0.134,-2.418 -0.052,-0.626 0.016,-1.256 -0.04,-1.882 0.463,-0.29 0.946,-0.545 1.412,-0.83 0.313,-0.194 0.649,-0.361 0.917,-0.619 0.148,-0.144 0.263,-0.364 0.174,-0.57 -0.188,-0.382 -0.683,-0.589 -1.082,-0.421 -0.327,0.15 -0.521,0.477 -0.819,0.667 -0.372,0.23 -0.747,0.456 -1.129,0.671 -0.289,-0.151 -0.636,-0.201 -0.948,-0.103 -0.17,0.055 -0.327,0.171 -0.395,0.34 -0.08,0.186 -0.013,0.39 -0.049,0.581 -0.023,0.118 -0.115,0.202 -0.215,0.258 -0.422,0.25 -0.848,0.494 -1.269,0.746 -0.433,0.253 -0.853,0.544 -1.34,0.685 -0.296,0.087 -0.643,0.187 -0.786,0.489 -0.137,0.294 0.025,0.632 0.254,0.828 0.197,0.188 0.498,0.228 0.75,0.139 0.329,-0.108 0.6,-0.336 0.873,-0.54 0.34,-0.26 0.688,-0.508 1.036,-0.757 0.188,-0.129 0.377,-0.27 0.598,-0.339 0.15,-0.056 0.339,0.009 0.402,0.161 0.149,0.334 0.102,0.712 0.109,1.068 0.009,1.188 -0.1,2.372 -0.141,3.559 -0.003,0.557 -0.008,1.113 0.018,1.67 -0.432,-0.002 -0.863,0.004 -1.295,-0.004 0.004,-1.314 0.003,-2.629 10e-4,-3.943 -0.82,0.689 -1.639,1.381 -2.458,2.07 -0.821,-0.688 -1.639,-1.38 -2.458,-2.068 -0.002,1.314 -10e-4,2.63 0,3.944 -2.668,0.002 -5.337,10e-4 -8.004,0 0.003,-4.699 0.003,-9.397 0.003,-14.096 l 0,0 z"
   inkscape:connector-curvature="0"
   id="path5" />
	<path
   d="m 517.514,313.918 c 0.791,0.343 1.577,0.693 2.367,1.037 0.12,0.05 0.197,0.158 0.287,0.246 -0.235,0.258 -0.483,0.504 -0.718,0.763 -0.644,-0.683 -1.297,-1.357 -1.936,-2.046 z"
   inkscape:connector-curvature="0"
   id="path7" />
	<path
   d="m 530.483,313.909 c 0.433,0.26 0.867,0.518 1.297,0.781 -0.003,0.957 -10e-4,1.915 -10e-4,2.873 -0.461,0.507 -0.892,1.042 -1.294,1.598 -0.005,-1.75 -10e-4,-3.501 -0.002,-5.252 z"
   inkscape:connector-curvature="0"
   id="path9" />
	<path
   d="m 530.581,322.084 c 0.354,-0.661 0.75,-1.302 1.196,-1.905 0.002,2.611 0,5.222 10e-4,7.832 -0.432,10e-4 -0.864,10e-4 -1.296,0 -10e-4,-1.873 10e-4,-3.747 -10e-4,-5.621 -0.01,-0.111 0.05,-0.21 0.1,-0.306 l 0,0 z"
   inkscape:connector-curvature="0"
   id="path11" />
	<path
   d="m 517.518,325.204 c 0.358,0.297 0.71,0.604 1.072,0.896 0.007,0.637 0.002,1.274 0.003,1.912 -0.358,0 -0.717,0 -1.075,0 0,-0.936 -10e-4,-1.873 0,-2.808 z"
   inkscape:connector-curvature="0"
   id="path13" />
	<path
   d="m 520.227,326.175 c 0.381,-0.322 0.763,-0.643 1.145,-0.964 -0.003,0.259 0.004,0.518 -0.005,0.775 -0.08,0.063 -0.158,0.126 -0.235,0.191 -0.303,10e-4 -0.603,0.004 -0.905,-0.002 z"
   inkscape:connector-curvature="0"
   id="path15" />
</g>
</svg>