<?xml version="1.0" encoding="UTF-8" standalone="no"?>
<!-- Created with Inkscape (http://www.inkscape.org/) -->
<svg
   xmlns:dc="http://purl.org/dc/elements/1.1/"
   xmlns:cc="http://web.resource.org/cc/"
   xmlns:rdf="http://www.w3.org/1999/02/22-rdf-syntax-ns#"
   xmlns:svg="http://www.w3.org/2000/svg"
   xmlns="http://www.w3.org/2000/svg"
   xmlns:xlink="http://www.w3.org/1999/xlink"
   xmlns:sodipodi="http://sodipodi.sourceforge.net/DTD/sodipodi-0.dtd"
   xmlns:inkscape="http://www.inkscape.org/namespaces/inkscape"
   width="587"
   height="143"
   id="svg2"
   sodipodi:version="0.32"
   inkscape:version="0.45.1"
   version="1.0"
   inkscape:output_extension="org.inkscape.output.svg.inkscape">
  <g
     inkscape:label="Layer 1"
     inkscape:groupmode="layer"
     id="layer1"
     transform="translate(-37.319531,-778.52344)">
    <path
       style="fill:#231f20;fill-rule:nonzero;stroke:none"
       d="M 75.227111,839.86097 L 75.227111,874.92839 L 68.068574,874.92839 L 68.068574,837.01527 C 68.068574,833.01801 65.959214,830.90865 61.956413,830.90865 C 59.116251,830.90865 54.377112,832.17094 50.584693,833.54396 C 47.008193,834.70107 44.478068,836.38412 44.478068,839.86097 L 44.478068,874.92839 L 37.319532,874.92839 L 37.319532,825.0124 L 44.372877,825.0124 L 44.372877,829.1204 C 50.269119,826.16951 58.485104,823.96049 63.7502,823.96049 C 68.278957,823.96049 71.855457,826.16951 73.754434,829.43597 C 79.650677,826.48508 89.339338,823.96049 94.493706,823.96049 C 101.55259,823.96049 105.97615,828.59444 105.97615,835.4374 L 105.97615,874.92839 L 98.812081,874.92839 L 98.812081,837.01527 C 98.812081,833.01801 96.708257,830.90865 92.705456,830.90865 C 89.865294,830.90865 85.126155,832.17094 81.333736,833.54396 C 77.962082,834.70107 75.227111,836.38412 75.227111,839.86097"
       id="path11495" />
    <path
       style="fill:#231f20;fill-rule:nonzero;stroke:none"
       d="M 149.4644,862.29437 C 149.4644,866.08125 151.67341,868.40099 155.46583,868.40099 L 168.00019,868.40099 C 171.78708,868.40099 174.10682,866.08125 174.10682,862.29437 L 174.10682,837.65195 C 174.10682,833.85953 171.78708,831.54533 168.00019,831.54533 L 155.46583,831.54533 C 151.67341,831.54533 149.4644,833.85953 149.4644,837.65195 L 149.4644,862.29437 z M 169.78844,874.92838 L 153.67758,874.92838 C 147.045,874.92838 142.30586,870.18924 142.30586,863.45147 L 142.30586,836.49485 C 142.30586,829.75154 147.045,825.01794 153.67758,825.01794 L 169.78844,825.01794 C 176.42102,825.01794 181.26535,829.75154 181.26535,836.49485 L 181.26535,863.45147 C 181.26535,870.18924 176.42102,874.92838 169.78844,874.92838"
       id="path11499" />
    <path
       style="fill:#231f20;fill-rule:nonzero;stroke:none"
       d="M 211.27806,825.0124 L 218.54179,825.0124 L 232.54882,866.29163 L 246.45067,825.0124 L 253.81959,825.0124 L 236.44643,874.92838 L 228.65121,874.92838 L 211.27806,825.0124"
       id="path11503" />
    <path
       style="fill:#231f20;fill-rule:nonzero;stroke:none"
       d="M 284.88421,825.0124 L 292.04441,825.0124 L 292.04441,874.92617 L 284.88421,874.92617 L 284.88421,825.0124 z M 284.88421,804.79355 L 292.04441,804.79355 L 292.04441,816.27157 L 284.88421,816.27157 L 284.88421,804.79355 z "
       id="path11507" />
    <path
       style="fill:#231f20;fill-rule:nonzero;stroke:none"
       d="M 336.06248,845.12607 L 359.64745,845.12607 L 359.64745,837.33639 C 359.64745,833.54397 357.33324,831.22976 353.54083,831.22976 L 342.1691,831.22976 C 338.37669,831.22976 336.06248,833.54397 336.06248,837.33639 L 336.06248,845.12607 z M 336.06248,851.34342 L 336.06248,862.39957 C 336.06248,866.18645 338.37669,868.50619 342.1691,868.50619 L 353.65155,868.50619 C 357.43844,868.50619 359.64745,866.18645 359.64745,862.39957 L 359.64745,859.65906 L 366.60114,860.81616 L 366.60114,863.45148 C 366.60114,870.18925 361.862,874.92839 355.22388,874.92839 L 340.27566,874.92839 C 333.74827,874.92839 328.90394,870.08406 328.90394,863.45148 L 328.90394,836.49486 C 328.90394,829.75155 333.74827,825.01241 340.27566,825.01241 L 355.11869,825.01241 C 361.75681,825.01241 366.60114,829.75155 366.60114,836.49486 L 366.60114,851.34342 L 336.06248,851.34342"
       id="path11511" />
    <path
       style="fill:#231f20;fill-rule:nonzero;stroke:none"
       d="M 424.62238,854.91992 C 418.62095,853.02094 416.3012,852.2846 410.62088,850.49635 C 405.1454,848.8133 400.82703,845.86241 400.82703,840.17655 L 400.82703,836.38413 C 400.82703,829.64635 405.67136,825.01241 412.30394,825.01241 L 424.72757,825.01241 C 431.36015,825.01241 436.20448,829.75155 436.20448,836.48932 L 436.20448,839.01944 L 429.15114,840.17655 L 429.15114,837.44157 C 429.15114,833.64916 426.83693,831.32941 423.04451,831.32941 L 414.19738,831.32941 C 410.29977,831.32941 407.98556,833.1232 407.98556,837.33638 L 407.98556,839.01944 C 407.98556,842.17518 409.35305,843.33228 413.04028,844.49492 C 419.04171,846.38836 420.82996,846.91432 427.14697,848.91849 C 433.15394,850.81193 436.73044,853.9732 436.73044,859.55387 L 436.73044,863.55113 C 436.73044,870.18925 431.88611,874.92839 425.25353,874.92839 L 411.98283,874.92839 C 405.35578,874.92839 400.61665,870.08406 400.61665,863.44594 L 400.61665,861.02654 L 407.66999,859.86944 L 407.66999,862.49922 C 407.66999,866.18645 409.87901,868.60585 413.67142,868.60585 L 423.57047,868.60585 C 427.67846,868.60585 429.5719,866.39683 429.5719,862.60441 L 429.5719,860.50059 C 429.5719,857.65489 428.62518,856.18221 424.62238,854.91992"
       id="path11515" />
    <path
       style="fill:#231f20;fill-rule:nonzero;stroke:none"
       d="M 597.82243,869.70758 L 587.8348,869.70758 L 587.8348,886.20045 L 579.43612,886.20045 L 579.43612,869.70758 L 553.75286,869.70758 L 553.75286,861.78502 L 577.69216,812.00191 L 587.8348,812.00191 L 587.8348,861.62447 L 597.82243,861.62447 L 597.82243,869.70758 z M 548.63725,877.79623 L 548.63725,885.87934 L 511.53798,885.87934 L 511.53798,877.79623 C 516.29927,865.11239 522.79897,858.13655 528.50698,852.42854 C 534.84613,846.08939 540.07247,841.48866 540.07247,832.76887 C 540.07247,824.20963 536.42954,819.45941 530.56651,819.45941 C 525.01906,819.45941 520.41833,824.84077 518.51935,835.46508 L 510.90683,832.92942 C 513.44803,819.77499 520.26331,811.37077 531.0371,811.37077 C 541.50086,811.37077 548.63725,820.40613 548.63725,832.45329 C 548.63725,844.34543 542.2981,851.00016 535.32226,857.49987 C 529.4537,863.20787 523.11455,868.91588 520.26331,877.79623 L 548.63725,877.79623 z M 552.73417,778.52344 C 513.26533,778.52344 481.32043,810.4628 481.32043,849.93164 C 481.32043,889.40048 513.26533,921.52254 552.73417,921.52254 C 592.19747,921.52254 624.31953,889.40048 624.31953,849.93164 C 624.31953,810.4628 592.19747,778.52344 552.73417,778.52344 z M 579.43612,861.78502 L 579.43612,825.32244 L 562.15155,861.78502 L 579.43612,861.78502"
       id="path11519" />
  </g>
</svg>
