<?xml version="1.0" encoding="UTF-8" standalone="no"?>
<!-- Created with Inkscape (http://www.inkscape.org/) -->
<svg
   xmlns:dc="http://purl.org/dc/elements/1.1/"
   xmlns:cc="http://creativecommons.org/ns#"
   xmlns:rdf="http://www.w3.org/1999/02/22-rdf-syntax-ns#"
   xmlns:svg="http://www.w3.org/2000/svg"
   xmlns="http://www.w3.org/2000/svg"
   xmlns:sodipodi="http://sodipodi.sourceforge.net/DTD/sodipodi-0.dtd"
   xmlns:inkscape="http://www.inkscape.org/namespaces/inkscape"
   width="1024"
   height="365"
   id="svg2"
   sodipodi:version="0.32"
   inkscape:version="0.46"
   version="1.0"
   sodipodi:docname="natgeo.svg"
   inkscape:output_extension="org.inkscape.output.svg.inkscape">
  <defs
     id="defs4" />
  <sodipodi:namedview
     id="base"
     pagecolor="#ffffff"
     bordercolor="#666666"
     borderopacity="1.0"
     inkscape:pageopacity="0.0"
     inkscape:pageshadow="2"
     inkscape:zoom="0.35"
     inkscape:cx="325.68003"
     inkscape:cy="515.4423"
     inkscape:document-units="px"
     inkscape:current-layer="layer1"
     showgrid="false"
     inkscape:window-width="1024"
     inkscape:window-height="718"
     inkscape:window-x="-8"
     inkscape:window-y="-8" />
  <metadata
     id="metadata7">
    <rdf:RDF>
      <cc:Work
         rdf:about="">
        <dc:format>image/svg+xml</dc:format>
        <dc:type
           rdf:resource="http://purl.org/dc/dcmitype/StillImage" />
      </cc:Work>
    </rdf:RDF>
  </metadata>
  <g
     inkscape:label="Ebene 1"
     inkscape:groupmode="layer"
     id="layer1">
    <g
       transform="matrix(0,35.503476,35.503476,0,-36422.909,-9494.5265)"
       id="g17557">
      <path
         d="M 268.633,1027.122 L 276.552,1027.122 L 276.552,1032.042 L 268.633,1032.042 L 268.633,1027.122 z M 267.635,1033.042 L 277.551,1033.042 L 277.551,1026.122 L 267.635,1026.122 L 267.635,1033.042 z"
         style="fill:#ffd800;fill-opacity:1;fill-rule:nonzero;stroke:none"
         id="path10746" />
      <path
         d="M 270.409,1036.722 L 270.409,1036.372 C 269.775,1035.922 269.143,1035.482 268.432,1035.032 L 270.409,1035.032 L 270.409,1034.652 L 267.652,1034.652 L 267.652,1034.992 C 268.282,1035.442 268.908,1035.892 269.617,1036.332 L 269.617,1036.342 L 267.652,1036.342 L 267.652,1036.722"
         style="fill:#231f20;fill-opacity:1;fill-rule:nonzero;stroke:none"
         id="path10748" />
      <path
         d="M 267.652,1037.792 L 270.409,1036.842 L 270.409,1037.252 L 269.656,1037.492 L 269.656,1038.322 L 270.409,1038.542 L 270.409,1039.072 L 267.652,1038.192 L 267.652,1037.792 z M 269.318,1037.612 C 268.954,1037.722 268.62,1037.832 268.195,1037.932 L 268.195,1037.942 C 268.62,1038.052 268.954,1038.152 269.318,1038.252"
         style="fill:#231f20;fill-opacity:1;fill-rule:nonzero;stroke:none"
         id="path10750" />
      <path
         d="M 270.409,1039.512 L 268.022,1039.512 L 268.022,1038.792 L 267.652,1038.792 L 267.652,1040.712 L 268.022,1040.712 L 268.022,1039.982 L 270.409,1039.982"
         style="fill:#231f20;fill-opacity:1;fill-rule:nonzero;stroke:none"
         id="path10752" />
      <path
         d="M 267.651,1041.331 L 270.408,1041.331 L 270.408,1040.862 L 267.651,1040.862 L 267.651,1041.331 z"
         style="fill:#231f20;fill-opacity:1;fill-rule:nonzero;stroke:none"
         id="path10754" />
      <path
         d="M 270.456,1042.792 C 270.456,1043.512 269.814,1043.962 268.991,1043.962 C 268.218,1043.962 267.604,1043.462 267.604,1042.792 C 267.604,1042.122 268.218,1041.622 268.991,1041.622 C 269.814,1041.622 270.456,1042.072 270.456,1042.792 z M 270.062,1042.792 C 270.062,1042.302 269.518,1042.122 268.991,1042.122 C 268.483,1042.122 267.998,1042.322 267.998,1042.792 C 267.998,1043.262 268.483,1043.452 268.991,1043.452 C 269.518,1043.452 270.062,1043.282 270.062,1042.792"
         style="fill:#231f20;fill-opacity:1;fill-rule:nonzero;stroke:none"
         id="path10756" />
      <path
         d="M 270.409,1046.312 L 270.409,1045.972 C 269.775,1045.522 269.143,1045.072 268.432,1044.632 L 270.409,1044.632 L 270.409,1044.252 L 267.652,1044.252 L 267.652,1044.592 C 268.282,1045.042 268.908,1045.482 269.617,1045.922 L 269.617,1045.932 L 267.652,1045.932 L 267.652,1046.312"
         style="fill:#231f20;fill-opacity:1;fill-rule:nonzero;stroke:none"
         id="path10758" />
      <path
         d="M 267.652,1047.392 L 270.409,1046.442 L 270.409,1046.852 L 269.656,1047.092 L 269.656,1047.922 L 270.409,1048.132 L 270.409,1048.662 L 267.652,1047.782 L 267.652,1047.392 z M 269.318,1047.212 C 268.954,1047.322 268.62,1047.432 268.195,1047.532 L 268.195,1047.542 C 268.62,1047.652 268.954,1047.742 269.318,1047.852"
         style="fill:#231f20;fill-opacity:1;fill-rule:nonzero;stroke:none"
         id="path10760" />
      <path
         d="M 267.652,1048.802 L 267.652,1049.272 L 270.039,1049.272 L 270.039,1050.202 L 270.409,1050.202 L 270.409,1048.802"
         style="fill:#231f20;fill-opacity:1;fill-rule:nonzero;stroke:none"
         id="path10762" />
      <path
         d="M 272.715,1036.422 L 273.853,1036.422 C 273.952,1036.172 274.022,1035.912 274.022,1035.642 C 274.022,1034.832 273.392,1034.322 272.58,1034.322 C 271.829,1034.322 271.171,1034.832 271.171,1035.662 C 271.171,1035.912 271.265,1036.172 271.383,1036.332 L 271.71,1036.172 C 271.631,1036.052 271.564,1035.852 271.564,1035.672 C 271.564,1035.162 271.962,1034.822 272.588,1034.822 C 273.242,1034.822 273.629,1035.222 273.629,1035.622 C 273.629,1035.752 273.613,1035.852 273.562,1035.952 L 272.715,1035.952"
         style="fill:#231f20;fill-opacity:1;fill-rule:nonzero;stroke:none"
         id="path10764" />
      <path
         d="M 271.588,1038.112 L 271.588,1037.332 L 272.345,1037.332 L 272.345,1038.102 L 272.715,1038.102 L 272.715,1037.332 L 273.605,1037.332 L 273.605,1038.262 L 273.975,1038.262 L 273.975,1036.852 L 271.218,1036.852 L 271.218,1038.112"
         style="fill:#231f20;fill-opacity:1;fill-rule:nonzero;stroke:none"
         id="path10766" />
      <path
         d="M 274.022,1039.572 C 274.022,1040.292 273.38,1040.742 272.557,1040.742 C 271.785,1040.742 271.171,1040.252 271.171,1039.572 C 271.171,1038.902 271.785,1038.402 272.557,1038.402 C 273.38,1038.402 274.022,1038.852 274.022,1039.572 z M 273.629,1039.572 C 273.629,1039.082 273.085,1038.912 272.557,1038.912 C 272.049,1038.912 271.564,1039.102 271.564,1039.572 C 271.564,1040.042 272.049,1040.242 272.557,1040.242 C 273.085,1040.242 273.629,1040.062 273.629,1039.572"
         style="fill:#231f20;fill-opacity:1;fill-rule:nonzero;stroke:none"
         id="path10768" />
      <path
         d="M 272.715,1043.012 L 273.853,1043.012 C 273.952,1042.762 274.022,1042.492 274.022,1042.232 C 274.022,1041.422 273.392,1040.902 272.58,1040.902 C 271.829,1040.902 271.171,1041.422 271.171,1042.242 C 271.171,1042.502 271.265,1042.752 271.383,1042.912 L 271.71,1042.762 C 271.631,1042.632 271.564,1042.442 271.564,1042.252 C 271.564,1041.752 271.962,1041.412 272.588,1041.412 C 273.242,1041.412 273.629,1041.802 273.629,1042.212 C 273.629,1042.332 273.613,1042.442 273.562,1042.542 L 272.715,1042.542"
         style="fill:#231f20;fill-opacity:1;fill-rule:nonzero;stroke:none"
         id="path10770" />
      <path
         d="M 273.975,1045.112 L 272.833,1044.562 C 272.671,1044.862 272.345,1045.042 272.014,1045.042 C 271.478,1045.042 271.218,1044.712 271.218,1044.182 L 271.218,1043.442 L 273.975,1043.442 L 273.975,1043.922 L 272.935,1043.922 L 272.935,1044.132 L 273.975,1044.572 L 273.975,1045.112 z M 271.588,1043.922 L 271.588,1044.132 C 271.588,1044.412 271.749,1044.562 272.033,1044.562 C 272.403,1044.562 272.569,1044.342 272.58,1044.112 C 272.585,1044.072 272.588,1043.962 272.593,1043.922"
         style="fill:#231f20;fill-opacity:1;fill-rule:nonzero;stroke:none"
         id="path10772" />
      <path
         d="M 271.218,1046.082 L 273.975,1045.122 L 273.975,1045.532 L 273.223,1045.772 L 273.223,1046.602 L 273.975,1046.822 L 273.975,1047.352 L 271.218,1046.472 L 271.218,1046.082 z M 272.884,1045.892 C 272.522,1046.002 272.187,1046.112 271.762,1046.212 L 271.762,1046.222 C 272.187,1046.332 272.522,1046.432 272.884,1046.532"
         style="fill:#231f20;fill-opacity:1;fill-rule:nonzero;stroke:none"
         id="path10774" />
      <path
         d="M 273.975,1047.972 L 273.975,1047.502 L 271.218,1047.502 L 271.218,1048.232 C 271.218,1048.762 271.478,1049.092 272.014,1049.092 C 272.478,1049.092 272.935,1048.752 272.935,1048.182 L 272.935,1047.962 L 272.593,1047.962 C 272.588,1047.992 272.585,1048.122 272.58,1048.172 C 272.569,1048.392 272.403,1048.622 272.033,1048.622 C 271.749,1048.622 271.588,1048.462 271.588,1048.182 L 271.588,1047.972"
         style="fill:#231f20;fill-opacity:1;fill-rule:nonzero;stroke:none"
         id="path10776" />
      <path
         d="M 273.975,1051.282 L 273.975,1050.812 L 272.648,1050.812 L 272.648,1049.832 L 273.975,1049.832 L 273.975,1049.362 L 271.218,1049.362 L 271.218,1049.832 L 272.278,1049.832 L 272.278,1050.812 L 271.226,1050.812 L 271.226,1051.282"
         style="fill:#231f20;fill-opacity:1;fill-rule:nonzero;stroke:none"
         id="path10778" />
      <path
         d="M 271.218,1052.2 L 273.975,1052.2 L 273.975,1051.731 L 271.218,1051.731 L 271.218,1052.2 z"
         style="fill:#231f20;fill-opacity:1;fill-rule:nonzero;stroke:none"
         id="path10788" />
      <path
         d="M 271.718,1054.332 C 271.647,1054.212 271.564,1054.022 271.564,1053.842 C 271.564,1053.362 271.962,1053.012 272.588,1053.012 C 273.242,1053.012 273.629,1053.402 273.629,1053.852 C 273.629,1054.042 273.569,1054.212 273.491,1054.332 L 273.833,1054.462 C 273.932,1054.322 274.022,1054.062 274.022,1053.842 C 274.022,1053.022 273.392,1052.512 272.58,1052.512 C 271.829,1052.512 271.171,1053.022 271.171,1053.842 C 271.171,1054.092 271.273,1054.322 271.383,1054.482"
         style="fill:#231f20;fill-opacity:1;fill-rule:nonzero;stroke:none"
         id="path10790" />
      <path
         d="M 275.301,1036.122 C 275.23,1036.012 275.147,1035.822 275.147,1035.642 C 275.147,1035.162 275.544,1034.812 276.169,1034.812 C 276.821,1034.812 277.206,1035.192 277.206,1035.652 C 277.206,1035.832 277.147,1036.002 277.068,1036.122 L 277.41,1036.252 C 277.508,1036.112 277.598,1035.862 277.598,1035.632 C 277.598,1034.822 276.97,1034.312 276.161,1034.312 C 275.41,1034.312 274.754,1034.812 274.754,1035.642 C 274.754,1035.882 274.856,1036.112 274.966,1036.272"
         style="fill:#6d6f71;fill-opacity:1;fill-rule:nonzero;stroke:none"
         id="path10792" />
      <path
         d="M 277.551,1038.332 L 277.551,1037.862 L 276.228,1037.862 L 276.228,1036.882 L 277.551,1036.882 L 277.551,1036.412 L 274.801,1036.412 L 274.801,1036.882 L 275.858,1036.882 L 275.858,1037.862 L 274.809,1037.862 L 274.809,1038.332"
         style="fill:#6d6f71;fill-opacity:1;fill-rule:nonzero;stroke:none"
         id="path10794" />
      <path
         d="M 274.801,1039.452 L 277.551,1038.502 L 277.551,1038.912 L 276.801,1039.152 L 276.801,1039.982 L 277.551,1040.192 L 277.551,1040.722 L 274.801,1039.842 L 274.801,1039.452 z M 276.463,1039.272 C 276.102,1039.382 275.768,1039.492 275.344,1039.592 L 275.344,1039.602 C 275.768,1039.712 276.102,1039.802 276.463,1039.912"
         style="fill:#6d6f71;fill-opacity:1;fill-rule:nonzero;stroke:none"
         id="path10796" />
      <path
         d="M 277.551,1042.952 L 277.551,1042.612 C 276.919,1042.162 276.29,1041.712 275.579,1041.272 L 277.551,1041.272 L 277.551,1040.892 L 274.801,1040.892 L 274.801,1041.232 C 275.43,1041.682 276.055,1042.122 276.762,1042.562 L 276.762,1042.572 L 274.801,1042.572 L 274.801,1042.952"
         style="fill:#6d6f71;fill-opacity:1;fill-rule:nonzero;stroke:none"
         id="path10798" />
      <path
         d="M 277.551,1045.452 L 277.551,1045.112 C 276.919,1044.662 276.29,1044.222 275.579,1043.772 L 277.551,1043.772 L 277.551,1043.392 L 274.801,1043.392 L 274.801,1043.732 C 275.43,1044.182 276.055,1044.622 276.762,1045.062 L 276.762,1045.072 L 274.801,1045.072 L 274.801,1045.452"
         style="fill:#6d6f71;fill-opacity:1;fill-rule:nonzero;stroke:none"
         id="path10800" />
      <path
         d="M 275.171,1047.082 L 275.171,1046.292 L 275.925,1046.292 L 275.925,1047.062 L 276.294,1047.062 L 276.294,1046.292 L 277.182,1046.292 L 277.182,1047.222 L 277.551,1047.222 L 277.551,1045.822 L 274.801,1045.822 L 274.801,1047.082"
         style="fill:#6d6f71;fill-opacity:1;fill-rule:nonzero;stroke:none"
         id="path10802" />
      <path
         d="M 274.801,1047.482 L 274.801,1047.952 L 277.182,1047.952 L 277.182,1048.882 L 277.551,1048.882 L 277.551,1047.482"
         style="fill:#6d6f71;fill-opacity:1;fill-rule:nonzero;stroke:none"
         id="path10804" />
    </g>
  </g>
</svg>
