<?xml version="1.0" encoding="UTF-8" standalone="no"?>
<!-- Created with Inkscape (http://www.inkscape.org/) -->

<svg
   xmlns:dc="http://purl.org/dc/elements/1.1/"
   xmlns:cc="http://creativecommons.org/ns#"
   xmlns:rdf="http://www.w3.org/1999/02/22-rdf-syntax-ns#"
   xmlns:svg="http://www.w3.org/2000/svg"
   xmlns="http://www.w3.org/2000/svg"
   xmlns:sodipodi="http://sodipodi.sourceforge.net/DTD/sodipodi-0.dtd"
   xmlns:inkscape="http://www.inkscape.org/namespaces/inkscape"
   width="1024"
   height="365"
   id="svg2"
   sodipodi:version="0.32"
   inkscape:version="0.48.4 r9939"
   version="1.0"
   sodipodi:docname="tv.nationalgeographic.svg"
   inkscape:output_extension="org.inkscape.output.svg.inkscape">
  <defs
     id="defs4" />
  <sodipodi:namedview
     id="base"
     pagecolor="#ffffff"
     bordercolor="#666666"
     borderopacity="1.0"
     inkscape:pageopacity="0.0"
     inkscape:pageshadow="2"
     inkscape:zoom="0.98994949"
     inkscape:cx="503.08687"
     inkscape:cy="114.73627"
     inkscape:document-units="px"
     inkscape:current-layer="layer1"
     showgrid="false"
     inkscape:window-width="1600"
     inkscape:window-height="837"
     inkscape:window-x="-8"
     inkscape:window-y="-8"
     inkscape:window-maximized="1" />
  <metadata
     id="metadata7">
    <rdf:RDF>
      <cc:Work
         rdf:about="">
        <dc:format>image/svg+xml</dc:format>
        <dc:type
           rdf:resource="http://purl.org/dc/dcmitype/StillImage" />
        <dc:title></dc:title>
      </cc:Work>
    </rdf:RDF>
  </metadata>
  <g
     inkscape:label="Ebene 1"
     inkscape:groupmode="layer"
     id="layer1">
    <path
       inkscape:connector-curvature="0"
       id="path10746"
       style="fill:#ffd800;fill-opacity:1;fill-rule:nonzero;stroke:none"
       d="m 43.492276,42.878768 0,281.152022 174.677104,0 0,-281.152022 -174.677104,0 z M 253.67285,7.4462993 l 0,352.0524707 -245.6840499,0 0,-352.0524707 245.6840499,0 z" />
    <path
       inkscape:connector-curvature="0"
       id="path10748"
       style="fill:#000000;fill-opacity:1;fill-rule:nonzero;stroke:none"
       d="m 384.32565,105.93294 -12.42622,0 C 355.92286,83.423738 340.30134,60.985541 324.32477,35.74257 l 0,70.19037 -13.49132,0 0,-97.8830816 12.07118,0 C 338.8812,30.417048 354.85776,52.642224 370.47929,77.814189 l 0.35503,0 0,-69.7643306 13.49133,0" />
    <path
       inkscape:connector-curvature="0"
       id="path10750"
       style="fill:#000000;fill-opacity:1;fill-rule:nonzero;stroke:none"
       d="m 422.31436,8.0498584 -33.7283,97.8830816 14.55643,0 8.52083,-26.734116 29.46789,0 7.81076,26.734116 18.81684,0 -31.24305,-97.8830816 -14.2014,0 z m -6.39062,59.1487906 c 3.90538,-12.923265 7.81076,-24.781426 11.36111,-39.870403 l 0.35504,0 c 3.90538,15.088977 7.45573,26.947138 11.00607,39.870403" />
    <path
       inkscape:connector-curvature="0"
       id="path10752"
       style="fill:#000000;fill-opacity:1;fill-rule:nonzero;stroke:none"
       d="m 483.38034,105.93294 0,-84.746796 -25.5625,0 0,-13.1362856 68.16667,0 0,13.1362856 -25.91753,0 0,84.746796" />
    <path
       inkscape:connector-curvature="0"
       id="path10754"
       style="fill:#000000;fill-opacity:1;fill-rule:nonzero;stroke:none"
       d="m 547.96117,8.0143549 0,97.8830851 -16.65113,0 0,-97.8830851 16.65113,0 z" />
    <path
       inkscape:connector-curvature="0"
       id="path10756"
       style="fill:#000000;fill-opacity:1;fill-rule:nonzero;stroke:none"
       d="m 599.83174,107.60161 c 25.56251,0 41.53907,-22.793237 41.53907,-52.012597 0,-27.444187 -17.75174,-49.2433215 -41.53907,-49.2433215 -23.78732,0 -41.53906,21.7991345 -41.53906,49.2433215 0,29.21936 15.97656,52.012597 41.53906,52.012597 z m 0,-13.988374 c -17.3967,0 -23.78732,-19.313891 -23.78732,-38.024223 0,-18.035766 7.10069,-35.254952 23.78732,-35.254952 16.68664,0 23.4323,17.219186 23.4323,35.254952 0,18.710332 -6.03559,38.024223 -23.4323,38.024223" />
    <path
       inkscape:connector-curvature="0"
       id="path10758"
       style="fill:#000000;fill-opacity:1;fill-rule:nonzero;stroke:none"
       d="m 724.80398,105.93294 -12.07118,0 C 696.75623,83.423738 680.77967,60.985541 665.15814,35.74257 l 0,70.19037 -13.49132,0 0,-97.8830816 12.07118,0 c 15.97657,22.3671896 31.5981,44.5923656 47.21962,69.7643306 l 0.35504,0 0,-69.7643306 13.49132,0" />
    <path
       inkscape:connector-curvature="0"
       id="path10760"
       style="fill:#000000;fill-opacity:1;fill-rule:nonzero;stroke:none"
       d="m 763.14773,8.0498584 -33.7283,97.8830816 14.55643,0 8.52083,-26.734116 29.46789,0 7.45573,26.734116 18.81684,0 -31.24306,-97.8830816 -13.84636,0 z m -6.39062,59.1487906 c 3.90538,-12.923265 7.81076,-24.781426 11.36111,-39.870403 l 0.35504,0 c 3.90538,15.088977 7.10069,26.947138 11.00607,39.870403" />
    <path
       inkscape:connector-curvature="0"
       id="path10762"
       style="fill:#000000;fill-opacity:1;fill-rule:nonzero;stroke:none"
       d="m 813.20764,8.0498584 16.68663,0 0,84.7467976 33.01823,0 0,13.136284 -49.70486,0" />
    <path
       inkscape:connector-curvature="0"
       id="path10764"
       style="fill:#000000;fill-opacity:1;fill-rule:nonzero;stroke:none"
       d="m 373.6746,187.80396 0,40.40295 c -8.87587,3.51485 -18.10677,6.00009 -27.69271,6.00009 -28.75781,0 -46.86459,-22.36719 -46.86459,-51.19601 0,-26.66311 18.10678,-50.0244 47.57466,-50.0244 8.87587,0 18.10677,3.33733 23.78733,7.52674 l -5.68056,11.60963 c -4.26041,-2.80477 -11.36111,-5.1835 -17.75173,-5.1835 -18.10678,0 -30.17796,14.13038 -30.17796,36.35556 0,23.21927 14.20139,36.95911 28.40278,36.95911 4.61545,0 8.1658,-0.56805 11.71615,-2.37873 l 0,-30.07144" />
    <path
       inkscape:connector-curvature="0"
       id="path10766"
       style="fill:#000000;fill-opacity:1;fill-rule:nonzero;stroke:none"
       d="m 433.67548,147.79154 -27.69271,0 0,26.87613 27.33767,0 0,13.13629 -27.33767,0 0,31.59809 33.01823,0 0,13.13629 -50.0599,0 0,-97.88309 44.73438,0" />
    <path
       inkscape:connector-curvature="0"
       id="path10768"
       style="fill:#000000;fill-opacity:1;fill-rule:nonzero;stroke:none"
       d="m 485.51055,234.207 c 25.5625,0 41.53907,-22.79323 41.53907,-52.01259 0,-27.40869 -17.3967,-49.20782 -41.53907,-49.20782 -23.78733,0 -41.53906,21.79913 -41.53906,49.20782 0,29.21936 15.97656,52.01259 41.53906,52.01259 z m 0,-13.95287 c -17.3967,0 -23.43229,-19.31389 -23.43229,-38.05972 0,-18.03577 6.74566,-35.25495 23.43229,-35.25495 16.68664,0 23.78733,17.21918 23.78733,35.25495 0,18.74583 -6.39062,38.05972 -23.78733,38.05972" />
    <path
       inkscape:connector-curvature="0"
       id="path10770"
       style="fill:#000000;fill-opacity:1;fill-rule:nonzero;stroke:none"
       d="m 607.64251,187.80396 0,40.40295 c -8.87587,3.51485 -18.46181,6.00009 -27.69271,6.00009 -28.75782,0 -47.21962,-22.36719 -47.21962,-51.19601 0,-26.66311 18.4618,-50.0244 47.57465,-50.0244 9.23091,0 18.10678,3.33733 23.78733,7.52674 l -5.32552,11.60963 c -4.61545,-2.80477 -11.36111,-5.1835 -18.10677,-5.1835 -17.75174,0 -29.82292,14.13038 -29.82292,36.35556 0,23.21927 13.84635,36.95911 28.40278,36.95911 4.26042,0 8.1658,-0.56805 11.71615,-2.37873 l 0,-30.07144" />
    <path
       inkscape:connector-curvature="0"
       id="path10772"
       style="fill:#000000;fill-opacity:1;fill-rule:nonzero;stroke:none"
       d="M 682.19981,232.53834 662.6729,191.99337 c 10.65104,-5.75157 17.04167,-17.3257 17.04167,-29.07735 0,-19.02986 -11.71615,-28.26077 -30.53299,-28.26077 l -26.27258,0 0,97.88309 17.04167,0 0,-36.92362 7.45573,0 15.62153,36.92362 19.17188,0 z m -42.24914,-84.7468 7.45573,0 c 9.94098,0 15.2665,5.71606 15.2665,15.79905 0,13.13628 -7.81077,19.02986 -15.97657,19.4204 -1.42014,0.17752 -5.32552,0.28403 -6.74566,0.46154" />
    <path
       inkscape:connector-curvature="0"
       id="path10774"
       style="fill:#000000;fill-opacity:1;fill-rule:nonzero;stroke:none"
       d="m 716.63818,134.65525 -34.08334,97.88309 14.55643,0 8.52083,-26.69862 29.46789,0 7.81076,26.69862 18.81685,0 -31.24306,-97.88309 -13.84636,0 z m -6.74566,59.14879 c 3.90538,-12.85225 7.81077,-24.74592 11.36111,-39.8349 l 0.35504,0 c 3.90538,15.08898 7.45573,26.98265 11.00608,39.8349" />
    <path
       inkscape:connector-curvature="0"
       id="path10776"
       style="fill:#000000;fill-opacity:1;fill-rule:nonzero;stroke:none"
       d="m 783.73975,232.53834 -16.68663,0 0,-97.88309 25.91753,0 c 18.81685,0 30.53299,9.23091 30.53299,28.26077 0,16.47361 -12.07118,32.6987 -32.30816,32.6987 l -7.81076,0 0,-12.14219 c 1.0651,-0.17751 5.68055,-0.28402 7.45573,-0.46154 7.81076,-0.39054 15.97656,-6.28412 15.97656,-19.4204 0,-10.08299 -5.68056,-15.79905 -15.62153,-15.79905 l -7.45573,0" />
    <path
       inkscape:connector-curvature="0"
       id="path10778"
       style="fill:#000000;fill-opacity:1;fill-rule:nonzero;stroke:none"
       d="m 901.25626,232.53834 -16.68664,0 0,-47.11312 -34.7934,0 0,47.11312 -16.68664,0 0,-97.88309 16.68664,0 0,37.63369 34.7934,0 0,-37.34966 16.68664,0" />
    <path
       inkscape:connector-curvature="0"
       id="path10788"
       style="fill:#000000;fill-opacity:1;fill-rule:nonzero;stroke:none"
       d="m 933.84845,134.65525 0,97.88309 -16.65113,0 0,-97.88309 16.65113,0 z" />
    <path
       inkscape:connector-curvature="0"
       id="path10790"
       style="fill:#000000;fill-opacity:1;fill-rule:nonzero;stroke:none"
       d="m 1009.5419,152.40699 c -4.2605,-2.52075 -11.00612,-5.46753 -17.39675,-5.46753 -17.04166,0 -29.46788,14.13038 -29.46788,36.35556 0,23.21927 13.84636,36.95911 29.82292,36.95911 6.74566,0 12.78121,-2.1302 17.04171,-4.89948 l 4.6154,12.14219 c -4.9705,3.51485 -14.20138,6.71016 -22.01215,6.71016 -29.11285,0 -47.21962,-22.36719 -47.21962,-51.19601 0,-26.66311 18.10677,-50.0244 47.21962,-50.0244 8.87585,0 17.04165,3.62135 22.72225,7.52674" />
    <path
       inkscape:connector-curvature="0"
       id="path10792"
       style="fill:#000000;fill-opacity:1;fill-rule:nonzero;stroke:none"
       d="m 363.02356,279.61595 c -3.90538,-2.52075 -10.65104,-5.46754 -17.04167,-5.46754 -17.04167,0 -29.46788,14.09488 -29.46788,36.28455 0,23.14827 13.49132,36.81711 29.82292,36.81711 6.39062,0 12.42621,-2.09471 16.68663,-4.89948 l 4.61545,12.14219 c -4.97048,3.47934 -13.84635,6.67465 -22.01215,6.67465 -28.75782,0 -46.86459,-22.29618 -46.86459,-51.01849 0,-26.66311 17.75174,-49.9534 47.21962,-49.9534 8.52084,0 16.68664,3.62136 22.36719,7.52674" />
    <path
       inkscape:connector-curvature="0"
       id="path10794"
       style="fill:#000000;fill-opacity:1;fill-rule:nonzero;stroke:none"
       d="m 441.48624,359.49877 -16.68663,0 0,-46.9711 -34.79341,0 0,46.9711 -16.68663,0 0,-97.63456 16.68663,0 0,37.52717 34.79341,0 0,-37.24314 16.68663,0" />
    <path
       inkscape:connector-curvature="0"
       id="path10796"
       style="fill:#000000;fill-opacity:1;fill-rule:nonzero;stroke:none"
       d="m 481.25014,261.86421 -33.72831,97.63456 14.55643,0 8.52083,-26.62761 29.46789,0 7.45573,26.62761 18.81684,0 -31.24306,-97.63456 -13.84635,0 z m -6.39063,59.00678 c 3.90538,-12.81676 7.81076,-24.67492 11.36111,-39.72839 l 0.35504,0 c 3.90538,15.05347 7.10069,26.91163 11.00607,39.72839" />
    <path
       inkscape:connector-curvature="0"
       id="path10798"
       style="fill:#000000;fill-opacity:1;fill-rule:nonzero;stroke:none"
       d="m 605.5123,359.49877 -12.07118,0 c -15.97656,-22.4382 -31.95313,-44.76989 -47.57466,-70.01286 l 0,70.01286 -13.49132,0 0,-97.63456 12.07118,0 c 15.97657,22.33168 31.5981,44.52136 47.21963,69.62231 l 0.35503,0 0,-69.62231 13.49132,0" />
    <path
       inkscape:connector-curvature="0"
       id="path10800"
       style="fill:#000000;fill-opacity:1;fill-rule:nonzero;stroke:none"
       d="m 694.27099,359.49877 -12.07118,0 c -15.97656,-22.4382 -31.59809,-44.76989 -47.57466,-70.01286 l 0,70.01286 -13.49132,0 0,-97.63456 12.07118,0 c 15.97657,22.33168 31.5981,44.52136 47.21963,69.62231 l 0.35503,0 0,-69.62231 13.49132,0" />
    <path
       inkscape:connector-curvature="0"
       id="path10802"
       style="fill:#000000;fill-opacity:1;fill-rule:nonzero;stroke:none"
       d="m 752.14166,275.00049 -28.04775,0 0,26.76963 27.33768,0 0,13.10078 -27.33768,0 0,31.52708 33.01823,0 0,13.10079 -49.70486,0 0,-97.63456 44.73438,0" />
    <path
       inkscape:connector-curvature="0"
       id="path10804"
       style="fill:#000000;fill-opacity:1;fill-rule:nonzero;stroke:none"
       d="m 766.34305,261.86421 16.68663,0 0,84.53377 33.01823,0 0,13.10079 -49.70486,0" />
    <text
       xml:space="preserve"
       style="font-size:40px;font-style:normal;font-variant:normal;font-weight:normal;font-stretch:normal;line-height:125%;letter-spacing:0px;word-spacing:0px;fill:#000000;fill-opacity:1;stroke:none;font-family:Arial;-inkscape-font-specification:Arial"
       x="840.4469"
       y="358.93909"
       id="text3012"
       sodipodi:linespacing="125%"><tspan
         sodipodi:role="line"
         id="tspan3014"
         x="840.4469"
         y="358.93909"
         style="font-size:144px;font-weight:bold;-inkscape-font-specification:Arial Bold">+1</tspan></text>
  </g>
</svg>
