<?xml version="1.0" encoding="UTF-8" standalone="no"?>
<!-- Created with Inkscape (http://www.inkscape.org/) -->

<svg
   xmlns:dc="http://purl.org/dc/elements/1.1/"
   xmlns:cc="http://creativecommons.org/ns#"
   xmlns:rdf="http://www.w3.org/1999/02/22-rdf-syntax-ns#"
   xmlns:svg="http://www.w3.org/2000/svg"
   xmlns="http://www.w3.org/2000/svg"
   xmlns:sodipodi="http://sodipodi.sourceforge.net/DTD/sodipodi-0.dtd"
   xmlns:inkscape="http://www.inkscape.org/namespaces/inkscape"
   width="743.05591"
   height="267.54062"
   id="svg3354"
   sodipodi:version="0.32"
   inkscape:version="0.48.4 r9939"
   version="1.0"
   sodipodi:docname="tv.natgeowild.svg"
   inkscape:output_extension="org.inkscape.output.svg.inkscape">
  <defs
     id="defs3356">
    <inkscape:perspective
       sodipodi:type="inkscape:persp3d"
       inkscape:vp_x="0 : 526.18109 : 1"
       inkscape:vp_y="0 : 1000 : 0"
       inkscape:vp_z="744.09448 : 526.18109 : 1"
       inkscape:persp3d-origin="372.04724 : 350.78739 : 1"
       id="perspective3362" />
  </defs>
  <sodipodi:namedview
     id="base"
     pagecolor="#ffffff"
     bordercolor="#666666"
     borderopacity="1.0"
     inkscape:pageopacity="0.0"
     inkscape:pageshadow="2"
     inkscape:zoom="1.1267179"
     inkscape:cx="371.52795"
     inkscape:cy="133.77031"
     inkscape:document-units="px"
     inkscape:current-layer="layer1"
     showgrid="false"
     inkscape:window-width="1600"
     inkscape:window-height="837"
     inkscape:window-x="-8"
     inkscape:window-y="-8"
     inkscape:window-maximized="1" />
  <metadata
     id="metadata3359">
    <rdf:RDF>
      <cc:Work
         rdf:about="">
        <dc:format>image/svg+xml</dc:format>
        <dc:type
           rdf:resource="http://purl.org/dc/dcmitype/StillImage" />
      </cc:Work>
    </rdf:RDF>
  </metadata>
  <g
     inkscape:label="Ebene 1"
     inkscape:groupmode="layer"
     id="layer1"
     transform="translate(-17.237626,-380.02044)">
    <path
       inkscape:connector-curvature="0"
       style="fill:#000000;fill-opacity:1"
       d="m 276.78028,646.11922 c -1.91978,-7.86987 -34.15057,-162.62903 -33.9182,-162.8614 0.30158,-0.30158 41.67064,-5.14743 41.82151,-4.89884 0.42039,0.69267 12.23585,74.73892 15.58137,97.64682 1.72039,11.78011 3.23367,21.52406 3.36284,21.65324 0.32296,0.32296 0.43752,-0.11292 4.31559,-16.42123 5.72586,-24.07865 20.18503,-78.45478 26.46741,-99.53512 0.29481,-0.98922 1.66753,-1.07357 17.47089,-1.07357 l 17.15093,0 0.57068,1.50099 c 0.95666,2.51623 17.47218,60.52848 21.14173,74.26226 1.8932,7.08555 5.02215,19.29509 6.95323,27.1323 1.93108,7.83722 3.65515,14.25562 3.83129,14.26313 0.17613,0.007 0.95383,-4.88644 1.72823,-10.87542 3.42998,-26.52661 15.53383,-107.82189 16.14186,-108.41645 0.28593,-0.27961 35.46357,4.35807 35.82906,4.72355 0.15736,0.15736 -7.10158,37.18597 -16.13096,82.2858 l -16.41707,81.99971 -23.28308,-0.15969 -23.28307,-0.15975 -2.35553,-7.97508 c -9.58812,-32.4624 -18.74501,-65.97027 -22.88365,-83.7383 -0.90379,-3.88018 -1.82986,-7.25899 -2.05791,-7.50846 -0.22806,-0.24947 -1.74294,5.5478 -3.36639,12.88282 -2.81984,12.74045 -15.20988,62.51157 -19.58432,78.67068 l -2.0759,7.66834 -23.33603,0.16061 -23.33604,0.16061 -0.33847,-1.38755 z m 187.92292,-82.0585 0,-83.4316 20.55116,0 20.55117,0 0,83.4316 0,83.43157 -20.55117,0 -20.55116,0 0,-83.43157 z m 60.11982,0 0,-83.4316 20.8579,0 20.85788,0 0,68.09491 0,68.09488 25.4589,0 25.45891,0 0,15.33669 0,15.33669 -46.31681,0 -46.31678,0 0,-83.43157 z m 105.51641,0.0344 0,-83.46598 29.42239,0 c 31.11876,0 38.32345,0.41745 47.56779,2.75618 12.77884,3.23288 21.99429,8.15118 30.68246,16.37524 11.71723,11.09134 18.69745,25.65213 21.52504,44.90135 1.2324,8.3893 0.90542,28.49923 -0.59273,36.46001 -3.7154,19.74253 -10.09338,32.94335 -21.5548,44.61278 -10.56059,10.75224 -21.20052,16.56724 -37.11485,20.28424 -4.00146,0.93456 -8.85749,1.10504 -37.26815,1.30841 l -32.66715,0.23373 0,-83.46596 z m 62.66271,50.75922 c 7.58025,-2.82118 13.2555,-8.18502 17.36377,-16.41096 4.12477,-8.25892 6.1094,-16.494 7.19585,-29.85832 1.74182,-21.42678 -3.2069,-38.65834 -13.99682,-48.73688 -6.71759,-6.27468 -11.65864,-7.93219 -23.64598,-7.93219 l -8.4772,0 0,52.0425 c 0,28.62338 0.20704,52.25636 0.4601,52.51769 0.25305,0.26134 4.18691,0.34471 8.74191,0.18527 6.82747,-0.23901 8.99773,-0.55635 12.35837,-1.80711 z M 491.94246,462.26278 c -9.01156,-1.42465 -15.7289,-5.39796 -21.69614,-12.8333 -5.18827,-6.4647 -7.88345,-14.34734 -8.42955,-24.65403 -0.70575,-13.3199 3.41208,-24.72437 11.85714,-32.83872 10.1471,-9.74974 26.59363,-12.3142 38.9189,-6.06852 1.69721,0.86005 3.21897,1.91063 3.38167,2.33462 0.1627,0.424 -0.53697,2.60759 -1.55483,4.85243 l -1.85065,4.08153 -3.3616,-1.48666 c -11.95392,-5.28659 -24.63973,-1.2286 -30.14946,9.64434 -2.46821,4.87078 -3.33826,8.28859 -3.73069,14.6552 -0.81705,13.25547 4.3049,24.50017 13.40792,29.43564 3.57697,1.93937 4.28906,2.1016 9.09528,2.07218 2.86796,-0.0175 5.97364,-0.35579 6.90151,-0.75165 l 1.68704,-0.71973 0,-11.9778 0,-11.9778 6.44141,0 6.44141,0 0,15.94192 0,15.94192 -2.30051,0.96813 c -6.47561,2.72515 -18.73905,4.37942 -25.05885,3.3803 z m 110.94503,-0.35452 c -11.21407,-2.43607 -20.2402,-12.41202 -23.85843,-26.36901 -1.56692,-6.04437 -1.59103,-21.06479 -0.0429,-26.68584 3.60915,-13.10318 12.98447,-23.23149 23.81567,-25.7285 3.45161,-0.79572 9.90756,-0.79572 13.35917,0 7.58694,1.74908 16.10187,8.6189 20.10389,16.21975 3.88914,7.38655 4.8129,11.76787 4.7856,22.69831 -0.0282,11.25754 -0.73346,14.73045 -4.64653,22.87667 -4.30887,8.97023 -11.79146,15.14631 -20.61588,17.01621 -5.04847,1.06977 -7.87705,1.06372 -12.90074,-0.0276 z m 14.21723,-12.20033 c 6.806,-3.98858 10.78084,-14.36905 10.78084,-28.15444 0,-16.87142 -7.21107,-28.1375 -18.07509,-28.23916 -8.88504,-0.0831 -15.31559,6.56783 -17.83209,18.4432 -2.93103,13.83182 1.20847,31.92084 8.49156,37.10686 4.78234,3.40533 11.6676,3.75448 16.63478,0.84354 z m -361.59397,-28.8919 0,-40.79559 5.06111,0.0234 5.0611,0.0234 2.41161,3.50405 c 8.05459,11.70325 28.88966,43.09331 31.94869,48.13381 1.9965,3.28972 3.8471,5.98131 4.11245,5.98131 0.26535,0 0.48245,-12.97484 0.48245,-28.83297 l 0,-28.83298 5.21447,0 5.21448,0 0,40.79559 0,40.7956 -4.79979,0 -4.79979,0 -11.57942,-16.98091 c -6.36869,-9.33951 -15.04415,-22.46958 -19.27882,-29.17795 l -7.69939,-12.19704 -0.15932,29.17795 -0.15931,29.17795 -5.51526,0 -5.51526,0 0,-40.7956 z m 65.64061,40.3355 c -2.3e-4,-0.25306 6.11133,-18.61108 13.58125,-40.7956 l 13.58168,-40.33549 5.58961,0.008 5.58961,0.008 11.29575,36.34008 c 6.21266,19.98705 11.91954,38.34152 12.68196,40.78772 l 1.3862,4.44764 -7.5304,0 -7.53041,0 -2.94192,-10.58231 c -1.61805,-5.82028 -3.21572,-10.93322 -3.55037,-11.3621 -0.46263,-0.59289 -3.4065,-0.73992 -12.28294,-0.61347 l -11.67447,0.16632 -3.42299,11.18806 -3.42299,11.18805 -5.67457,0.008 c -3.12102,0.004 -5.67477,-0.19932 -5.675,-0.45238 z m 39.98163,-31.75052 c 0.2696,-0.2696 -7.50543,-29.73209 -8.49836,-32.20348 -0.23365,-0.58153 -0.59098,-0.0171 -0.97092,1.53367 -0.33067,1.34963 -2.36204,8.63953 -4.51415,16.1998 -2.15212,7.56026 -3.91295,13.97867 -3.91295,14.26312 0,0.54323 17.35936,0.74391 17.89638,0.20689 z m 37.92918,-3.06377 0,-35.27439 -10.42895,0 -10.42895,0 0,-5.52121 0,-5.5212 27.60604,0 27.60604,0 0,5.5212 0,5.52121 -10.42895,0 -10.42895,0 0,35.27439 0,35.27439 -6.74814,0 -6.74814,0 0,-35.27439 z m 134.3494,-3.68081 0,-38.95519 17.17707,0 17.17709,0 0,5.21448 0,5.21447 -10.73568,0 -10.73566,0 0,10.73568 0,10.73569 10.42893,0 10.42894,0 0,4.90774 0,4.90774 -10.42894,0 -10.42893,0 0,12.88282 0,12.88282 12.57606,0 12.57609,0 0,5.21447 0,5.21448 -19.0175,0 -19.01747,0 0,-38.9552 z"
       id="path2457" />
    <path
       inkscape:connector-curvature="0"
       style="fill:#ffcc00;fill-opacity:1;stroke:none"
       d="m 17.237626,380.31326 0,266.82007 186.091564,0 0,-266.82007 -186.091564,0 z M 44.2302,407.30584 c 44.035471,0 88.07094,0 132.10641,0 0,70.94497 0,141.88994 0,212.83491 -44.03547,0 -88.070939,0 -132.10641,0 0,-70.94497 0,-141.88994 0,-212.83491 z"
       id="rect2529" />
  </g>
</svg>
