<?xml version="1.0" encoding="UTF-8" standalone="no"?>
<!-- Created with Inkscape (http://www.inkscape.org/) -->

<svg
   xmlns:dc="http://purl.org/dc/elements/1.1/"
   xmlns:cc="http://creativecommons.org/ns#"
   xmlns:rdf="http://www.w3.org/1999/02/22-rdf-syntax-ns#"
   xmlns:svg="http://www.w3.org/2000/svg"
   xmlns="http://www.w3.org/2000/svg"
   xmlns:inkscape="http://www.inkscape.org/namespaces/inkscape"
   version="1.0"
   width="211"
   height="50.000767"
   id="svg5701">
  <metadata
     id="metadata30">
    <rdf:RDF>
      <cc:Work
         rdf:about="">
        <dc:format>image/svg+xml</dc:format>
        <dc:type
           rdf:resource="http://purl.org/dc/dcmitype/StillImage" />
      </cc:Work>
    </rdf:RDF>
  </metadata>
  <defs
     id="defs5703" />
  <g
     transform="translate(-19.8,-75.199619)"
     id="g5486">
    <path
       d="m 49.7,120.15 0,-39.75 -24.7,0 0,39.75 24.7,0 z m 5.05,-44.8 0,49.85 -34.75,0 0,-49.85 34.75,0 z"
       inkscape:connector-curvature="0"
       id="path5488"
       style="fill:#fdd500;stroke-linecap:round;stroke-linejoin:round" />
  </g>
  <g
     transform="matrix(1,0,0,1.0000153,124.6,25.00038)"
     id="g5490"
     style="fill:#000000">
    <g
       id="g5492"
       style="fill:#000000">
      <path
         d="m -67.2,-24.7 0,18.2 -2.2,0 c -3.9,-5.633333 -6.783334,-9.983334 -8.65,-13.05 l 0,13.05 -2.45,0 0,-18.2 2.2,0 c 3.83333,5.533334 6.7,9.850002 8.6,12.95 l 0.05,-12.95 2.45,0 z m -2.5,12.95 0.05,0 -0.05,0 z"
         inkscape:connector-curvature="0"
         id="path5494"
         style="fill:#000000;stroke-linecap:round;stroke-linejoin:round" />
      <path
         d="m -60.95,-13.7 4.05,0 -2,-7.4 c -0.333334,1.433332 -1.016668,3.9 -2.05,7.4 z m 2.05,-7.4 -0.05,0 0.05,0 z m 1.6,-3.6 5.65,18.2 -3.4,0 -1.4,-4.95 -5.35,0 -1.55,4.95 -2.6,0 6.1,-18.2 2.55,0 z"
         inkscape:connector-curvature="0"
         id="path5496"
         style="fill:#000000;stroke-linecap:round;stroke-linejoin:round" />
      <path
         d="m -40.8,-22.25 -4.65,0 0,15.75 -3.05,0 0,-15.75 -4.6,0 0,-2.45 12.3,0 0,2.45 z"
         inkscape:connector-curvature="0"
         id="path5498"
         style="fill:#000000;stroke-linecap:round;stroke-linejoin:round" />
      <path
         d="m -20.95,-14.8 0,7.5 c -1.866668,0.7333334 -3.55,1.1 -5.05,1.1 -2.566668,0 -4.633335,-0.9166663 -6.2,-2.75 -1.533334,-1.766667 -2.3,-4.016667 -2.3,-6.75 0,-2.566666 0.766666,-4.733334 2.3,-6.5 1.633332,-1.866668 3.733333,-2.8 6.3,-2.8 1.666666,0 3.099999,0.466667 4.3,1.4 l -1,2.15 c -1,-0.633334 -2.083334,-0.95 -3.25,-0.95 -1.633334,0 -2.933333,0.616667 -3.9,1.85 -1.033333,1.233332 -1.55,2.866666 -1.55,4.9 0,2.066667 0.533334,3.75 1.6,5.05 1,1.199999 2.183334,1.8 3.55,1.8 l 2.15,-0.4 0,-5.6 3.05,0 z"
         inkscape:connector-curvature="0"
         id="path5500"
         style="fill:#000000;stroke-linecap:round;stroke-linejoin:round" />
      <path
         d="m -9.7,-22.25 -5.05,0 0,5 4.95,0 0,2.45 -4.95,0 0,5.85 6,0 0,2.45 -9.05,0 0,-18.2 8.1,0 0,2.45 z"
         inkscape:connector-curvature="0"
         id="path5502"
         style="fill:#000000;stroke-linecap:round;stroke-linejoin:round" />
      <path
         d="m 7.55,-15.85 c 0,2.766667 -0.6666663,5.050001 -2,6.85 -1.4,1.866667 -3.2333334,2.8 -5.5,2.8 -2.3000002,0 -4.1333335,-0.933333 -5.5,-2.8 -1.3333333,-1.8 -2,-4.083334 -2,-6.85 0,-2.566668 0.7,-4.733334 2.1,-6.5 1.4333335,-1.766667 3.2333337,-2.65 5.4,-2.65 2.1333334,0 3.9166667,0.883333 5.35,2.65 1.4333335,1.766666 2.15,3.933332 2.15,6.5 z m -11.8,0 c 0,1.966667 0.3166666,3.583334 0.95,4.85 0.7666667,1.466666 1.8833334,2.2 3.35,2.2 1.4666667,0 2.5666668,-0.733334 3.3,-2.2 0.6333336,-1.266666 0.95,-2.883333 0.95,-4.85 0,-1.833334 -0.3333333,-3.333334 -1,-4.5 -0.7666667,-1.366667 -1.8500001,-2.05 -3.25,-2.05 -1.4333333,0 -2.5333333,0.683333 -3.3,2.05 -0.6666667,1.166666 -1,2.666666 -1,4.5 z"
         inkscape:connector-curvature="0"
         id="path5504"
         style="fill:#000000;stroke-linecap:round;stroke-linejoin:round" />
      <path
         d="m -77.15,-0.25 c 0,-0.5333333 -0.08334,-0.9 -0.25,-1.1 0.16666,-0.6333333 0.63333,-1.1333333 1.4,-1.5 l 0.2,0 0.9,0.25 c 0.23333,0.2666667 0.699995,1.8666669 1.4,4.8 l 1.65,5.85 0.45,1.75 0.45,1.7 0,0.15 0.5,1.6 0.55,1.75 0.1,0.5 0.3,0.45 0.55,2.05 c 0.16667,0.03333 0.25,0.266666 0.25,0.7 l 0.4,1.3 c 0.233334,0.633333 0.35,1.116667 0.35,1.45 l 0.35,1.3 c -1.03333,0.6 -1.75,0.9 -2.15,0.9 L -70.6,22.8 -71.35,21.65 -71.9,19.7 c -0.2,-0.733333 -0.55,-1.3 -1.05,-1.7 -0.03333,-0.233334 -0.216664,-0.416666 -0.55,-0.55 -0.299995,-0.1 -0.45,-0.4 -0.45,-0.9 0,-0.166667 -0.116666,-0.316666 -0.35,-0.45 l -0.4,-0.45 0.05,-0.15 0.25,-0.2 -0.05,-0.1 -0.25,-0.35 0,-0.5 c 0.06667,-0.199999 0.3,-0.366666 0.7,-0.5 0.299995,-0.133334 0.45,-0.383334 0.45,-0.75 0,-0.366666 -0.133334,-0.949999 -0.4,-1.75 -0.233334,-0.733333 -0.33333,-1.316666 -0.3,-1.75 L -74.6,8.75 -75,7.85 -75.15,6.45 c -0.533334,-0.6 -1.2,-2.8333334 -2,-6.7 z"
         inkscape:connector-curvature="0"
         id="path5506"
         style="fill:#000000;stroke-linecap:round;stroke-linejoin:round" />
      <path
         d="m -77.9,3.15 0.55,2.15 c 0,0.3666665 -0.466666,1.483333 -1.4,3.35 -0.9,1.9 -1.35,3.1 -1.35,3.6 l 0.65,0.45 1,0.3 1.45,0.15 1.2,0.35 0.1,2.9 -3.05,0.3 c -0.23333,0 -0.649994,0.2 -1.25,0.6 l -1.05,0.95 c -0.633334,0.300001 -1.15,0.966667 -1.55,2 l -0.65,1.65 c -0.03333,0.7 -0.25,1.1 -0.65,1.2 -0.46667,0.633334 -0.933336,0.966668 -1.4,1 l -0.9,-0.55 c -0.133336,-0.966666 -0.03334,-1.633332 0.3,-2 l 0.6,-2.35 0.6,-2.1 0.45,-1.35 0.45,-1.3 c 2.26667,-6.033333 3.58333,-9.816667 3.95,-11.35 0.533334,-0.6333333 0.8,-1.1666666 0.8,-1.6 l 0.25,-0.15 0.25,0 c 0.3,0.3666667 0.51667,0.9666666 0.65,1.8 z"
         inkscape:connector-curvature="0"
         id="path5508"
         style="fill:#000000;stroke-linecap:round;stroke-linejoin:round" />
      <path
         d="m -50.65,-1.2 0.5,0.45 0.6,0.15 1.55,1.55 1.4,2.35 c 0.16667,0.1666667 0.21667,0.5333335 0.15,1.1 l 0.7,1.9 0.15,2.05 0.2,1.6 -0.1,1.9 -0.1,1.45 -0.2,1.2 -0.5,1.85 -0.45,0.9 0.15,0.2 -1,1.75 -0.55,0.75 -0.45,0.6 c -0.03334,0.266668 -0.400004,0.516668 -1.1,0.75 -0.3,0.466666 -0.55,0.7 -0.75,0.7 -0.633336,0.166666 -0.95,0.4 -0.95,0.7 -0.200002,-0.166665 -0.533334,-0.166665 -1,0 -0.466665,0.2 -0.7,0.416667 -0.7,0.65 l -0.85,0.05 c -0.366666,0.1 -0.616666,0.233333 -0.75,0.4 l -0.9,-0.1 -0.95,0.2 -0.6,0.05 -1.65,-0.2 -1,-1.8 0.35,-0.8 c 0.06667,-0.233334 0.4,-0.366667 1,-0.4 L -56,20.8 c 0.633335,-0.03333 1.61667,-0.483332 2.95,-1.35 0.133336,-0.1 0.466668,-0.25 1,-0.45 0.43333,-0.133333 0.749997,-0.316666 0.95,-0.55 0.633333,-0.666665 0.9,-1.066665 0.8,-1.2 l 0.75,-2.45 c 0.5,-2.666667 0.66667,-5.15 0.5,-7.45 -0.133334,-1.266667 -0.4,-2.2333337 -0.8,-2.9 -0.266665,-0.6333334 -0.516665,-1.1 -0.75,-1.4 l -0.35,-0.55 -0.8,-0.75 c -0.133335,-0.2333333 -0.466667,-0.4833333 -1,-0.75 -0.5,-0.23333335 -0.866665,-0.35 -1.1,-0.35 L -56.9,0.5 -58.55,0.6 c -0.4,0.0666667 -0.583335,-0.15 -0.55,-0.65 l 0.2,-1.3 0.2,-1.6 0.55,-0.05 0.65,0.1 2.85,0.2 1.6,0.5 2.4,1 z"
         inkscape:connector-curvature="0"
         id="path5510"
         style="fill:#000000;stroke-linecap:round;stroke-linejoin:round" />
      <path
         d="m -64.3,0.05 c 0,-0.86666666 0.416665,-1.7333334 1.25,-2.6 l 0.4,0.1 0.3,-0.25 0.5,-0.2 0.25,0.1 0.5,1.3 -0.1,0.4 c 0.1,0.33333335 0.116668,0.88333342 0.05,1.65 l 0,1.6 -0.15,2.65 0.15,4.15 -0.15,2.5 0.3,10.7 -0.05,1.45 -0.4,0.45 -1.2,-0.05 -1.6,-1.1 c 0.06667,-5.4 0.04999,-8.583333 -0.05,-9.55 l 0.1,-0.35 -0.1,-0.8 0.15,-3.35 -0.15,-8.8 z m 2.45,-2.95 0.05,0 -0.05,0 z"
         inkscape:connector-curvature="0"
         id="path5512"
         style="fill:#000000;stroke-linecap:round;stroke-linejoin:round" />
      <path
         d="m -28,-2.1 c 0.03333,-0.4333333 0.449999,-0.8333334 1.25,-1.2 0.133333,0.1333335 0.483334,0.2333334 1.05,0.3 0.5,0.1666667 0.75,0.6000001 0.75,1.3 0,0.4666667 -0.3,1.65000005 -0.9,3.55 -0.566668,1.8 -0.983334,2.95 -1.25,3.45 -0.266667,1.366667 -0.6,2.3333337 -1,2.9 l 0,0.1 c 0.03333,0.433334 -0.133332,1.05 -0.5,1.85 l -1.1,3.3 -1,3.6 c -0.2,1.033334 -0.499999,1.766668 -0.9,2.2 -0.133334,0.03333 -0.2,0.199999 -0.2,0.5 L -31.85,20 c -0.166666,0.666666 -0.366667,1.15 -0.6,1.45 l -0.4,1 -0.4,1 -0.9,0.5 c -0.200002,0 -0.316667,-0.1 -0.35,-0.3 l -0.2,-0.35 -0.25,0.25 0.05,0.1 c 0,0.2 -0.116666,0.3 -0.35,0.3 -0.3,0 -0.566666,-0.383332 -0.8,-1.15 -0.233333,-0.833335 -0.416667,-1.283334 -0.55,-1.35 l -1.05,-3.7 -0.2,-0.65 c 0,-0.3 -0.08333,-0.500002 -0.25,-0.6 l -0.4,-1.2 -0.25,-0.95 c -0.06667,-0.4 -0.2,-0.7 -0.4,-0.9 l 0.1,-0.25 -0.3,-0.95 L -41.6,5 -41.75,4.35 -42,3.95 c -1.066666,-2.7999999 -1.6,-4.6166665 -1.6,-5.45 l 0.45,-1.1 c 0.299998,-0.3666667 0.666666,-0.55 1.1,-0.55 0.43333,0 0.833333,0.1833333 1.2,0.55 0.366666,0.3666667 0.533334,0.7166667 0.5,1.05 l 0.2,0.6 0.25,0.45 -0.05,0.15 0.25,0.35 0,0.1 0.2,1.5 c 0.233334,0.2666667 0.433334,0.7166666 0.6,1.35 l 0.25,1.2 c 0.1,0.5333334 0.26667,0.9333335 0.5,1.2 l 1.1,3.15 0.4,0.8 c 0.233332,0.3 0.35,0.55 0.35,0.75 0.1,0.06667 0.3,0.45 0.6,1.15 0.233333,0.566666 0.5,0.85 0.8,0.85 l 1.1,0.95 0.85,-0.6 c 0.4,-0.333333 0.716666,-1.1 0.95,-2.3 0.199999,-1.266667 0.449999,-2.066667 0.75,-2.4 0.333334,-0.9000003 0.516666,-1.6 0.55,-2.1 0.233333,-0.3333336 0.416667,-0.9 0.55,-1.7 0.133334,-0.7666668 0.366667,-1.3333334 0.7,-1.7 0,-0.3666667 0.116666,-0.65 0.35,-0.85 l 0.4,-1.75 c 0.133332,-0.7 0.366666,-1.2666667 0.7,-1.7 z"
         inkscape:connector-curvature="0"
         id="path5514"
         style="fill:#000000;stroke-linecap:round;stroke-linejoin:round" />
      <path
         d="m -22.35,-0.7 c 0.266666,-1.0666667 0.583334,-1.7166667 0.95,-1.95 l 2.15,-0.2 4.9,-0.1 0.15,0.1 0.5,0 1.75,0.15 0.45,0.15 c 0.2,0.033333 0.366667,0.3333333 0.5,0.9 l -0.4,0.05 -0.1,0.15 0.4,0.2 c 0.1,0.066667 0.15,0.2166667 0.15,0.45 0,0.43333333 -0.416667,0.70000001 -1.25,0.8 l -0.2,0 -0.95,0.05 -2.2,0.05 -0.35,0.1 c -1.766666,-0.10000001 -3.033332,0.23333334 -3.8,1 l -0.45,2.05 0.1,0.6 0.2,1.75 0.3,1.5 c 0.533334,0.733333 1.1,1.183333 1.7,1.35 l 1.65,0.1 1.85,-0.1 1.9,0.05 c 0.633333,0.3 1,0.583334 1.1,0.85 l 0.55,0.95 c -0.06667,0.733333 -0.416667,1.183333 -1.05,1.35 l -1.7,0.25 -1.85,-0.1 c -2.233333,0 -3.45,0.333333 -3.65,1 l -0.25,1.4 0,1.3 -0.05,0.35 c 0.1,0.233334 0.1,0.633334 0,1.2 l -0.15,0.5 0.15,1.05 0.25,0.65 0.45,0.55 0.8,0.55 0.55,-0.1 1.75,0.3 0.4,-0.05 0.2,-0.1 0.1,0 0.55,0.05 0.95,-0.1 0.45,0.1 0.4,0 0.1,-0.05 c 0.966667,0.06667 1.65,0.283334 2.05,0.65 l 0.25,1.1 c 0,0.4 -0.133334,0.633333 -0.4,0.7 l 0,0.15 -1,0.75 -1,-0.05 -0.6,0 -2,0.2 -5.05,-0.4 -0.4,0.1 c -1.266668,0 -1.9,-0.433334 -1.9,-1.3 0.233333,-6.666667 0.35,-11.583333 0.35,-14.75 0,-3.9999998 -0.08333,-6.7499998 -0.25,-8.25 z m 7.4,21.1 0.05,0 -0.05,0 z"
         inkscape:connector-curvature="0"
         id="path5516"
         style="fill:#000000;stroke-linecap:round;stroke-linejoin:round" />
      <path
         d="m -6.35,-2.05 0.9,-0.65 0.3,0.25 0.25,0.35 -0.25,0.35 c 0,0.066667 0.066667,0.1 0.2,0.1 0.2,0 0.35,-0.1 0.45,-0.3 l 0.3,-0.25 c 0.3666667,0 0.6833333,0.2333333 0.95,0.7 l 0.75,1 1.85,2.4 1,1.55 1.15,1.6 1.4,1.7 c 0.6333333,0.9 0.9333333,1.5 0.9,1.8 l 1.45,1.5 0.55,0.55 c 0.2333333,0.266667 0.4833333,0.416666 0.75,0.45 L 6.8,11 8.65,11.05 9.05,11.1 C 9.283333,11 9.4,10.816667 9.4,10.55 L 9.35,4.3 9.25,4 C 9.116667,3.233333 9.05,1.3999997 9.05,-1.5 9.05,-1.7333333 9.366667,-2.1166668 10,-2.65 l 0.85,0 0.85,-0.1 0.3,0.3 c 0.566667,0.3 0.85,0.7666666 0.85,1.4 l -0.25,1.9 0.2,6.1 -0.05,0.8 0.1,0.25 c -0.1,0.633333 -0.08333,1.633333 0.05,3 l 0.15,7.15 0.25,2.65 c -0.133333,0.233333 -0.166667,0.55 -0.1,0.95 l 0.1,0.95 -0.25,0.65 -1.4,0.65 C 10.95,23.733334 10.533333,23.4 10.4,23 L 7.9,19.9 C 6.633333,18.2 5.9666667,17.116667 5.9,16.65 4.866667,14.916667 3.9166667,13.733334 3.05,13.1 3.0166667,12.833333 2.8,12.483333 2.4,12.05 L 1.6,11 0.85,10.2 C 0.5833333,9.9 0.2833333,9.716666 -0.05,9.65 c -1.1333334,0.1 -1.7666668,0.416667 -1.9,0.95 -0.3,0.366666 -0.4833334,0.883333 -0.55,1.55 l -0.15,1.7 0.2,0.25 -0.2,0.7 0.35,6.55 -0.1,1.45 -0.7,0.9 c -0.2666666,0.3 -0.6166667,0.45 -1.05,0.45 -0.6666666,0 -1.183333,-0.183333 -1.55,-0.55 -0.4,-0.133333 -0.6,-0.733333 -0.6,-1.8 l 0.05,-2.25 -0.2,-8.3 0.1,-3.1 -0.1,-2.2 0,-3.85 0.15,-1.2 C -6.3333335,0.36666667 -6.416667,0 -6.55,-0.2 l 0.05,-0.15 -0.15,-0.75 0.3,-0.95 z"
         inkscape:connector-curvature="0"
         id="path5518"
         style="fill:#000000;stroke-linecap:round;stroke-linejoin:round" />
      <path
         d="m 14.3,-0.5 c 0,-0.5666667 0.166667,-1 0.5,-1.3 l 1.2,-0.75 1.85,0 0.9,-0.1 3.15,0.05 0.85,0 2.05,-0.1 0.95,-0.1 0.8,0.05 4.95,-0.2 0.85,0.4 0.5,0.7 0,0.15 -0.15,0.2 0.4,0.45 0,0.25 c 0,0.2 -0.3,0.61666666 -0.9,1.25 l -0.1,0 L 30.75,0.8 26.8,0.7 c -0.866668,0 -1.383334,0.2666667 -1.55,0.8 L 24.85,3.4 24.9,4.55 25.15,5 25.1,6.9 25.05,7.05 25.2,7.55 25.15,8 l 0,2.55 0.1,7.5 -0.1,4.25 c 0,0.866666 -0.200001,1.45 -0.6,1.75 l -1.85,0.4 -0.75,-0.6 c -0.266668,-1.066667 -0.4,-2.616666 -0.4,-4.65 l 0,-2.2 c -0.03333,-1.2 0.01667,-2.083333 0.15,-2.65 -0.233333,-1.066666 -0.233333,-2.283333 0,-3.65 -0.1,-0.133333 -0.15,-0.45 -0.15,-0.95 l -0.3,-4.8 c 0.266666,-0.2666666 0.4,-0.7333333 0.4,-1.4 C 21.71667,2.6833334 21.61667,2.0666666 21.35,1.7 20.383333,1.2 19.516666,0.9166667 18.75,0.85 l -2.7,0 -0.65,0 C 14.666667,0.38333333 14.3,-0.06666669 14.3,-0.5 z"
         inkscape:connector-curvature="0"
         id="path5520"
         style="fill:#000000;stroke-linecap:round;stroke-linejoin:round" />
      <path
         d="m 34.25,0.55 c 0,-2.1 0.533333,-3.15 1.6,-3.15 l 1.15,0.35 0.5,0.95 -0.2,0.4 0.2,0.85 -0.15,2.25 c -0.1,0.2 -0.116666,0.4833334 -0.05,0.85 l -0.1,0.8 0.05,3.8 0.1,0.45 -0.1,1.1 0.2,1 -0.2,1.4 0.25,0.75 0,0.15 0.15,0.8 -0.4,0.1 -0.2,1.15 0.2,2.4 0.65,1.45 c 0.133333,0.8 0.366666,1.35 0.7,1.65 l 1.4,0.8 1.45,0.65 0.8,-0.05 0.75,-0.15 1.25,0.05 0.15,0.25 -0.75,0.55 0.65,0.4 0.2,-0.05 0.55,-0.6 1.85,-2.2 c 0.700002,-0.866666 1.016668,-1.7 0.95,-2.5 l 0.15,-1.65 -0.05,-1.8 -0.1,-0.3 0.1,-0.75 0.05,-5.05 0.1,-5.4 0,-2.5 c 0.1,-1.1666667 0.433333,-1.8833334 1,-2.15 l 1.2,-0.25 c 0.6,0 0.95,0.3333334 1.05,1 l -0.05,1.6 0.25,2.6 -0.2,0.2 0.3,6.45 -0.1,0.75 -0.05,0.5 0.1,0.4 -0.1,0.55 0.1,2.35 c 0,2.699999 -0.200002,4.349998 -0.6,4.95 l 0.05,0.15 c 0,0.766667 -0.6,1.766667 -1.8,3 -1.166668,1.2 -2.2,1.933333 -3.1,2.2 -0.299998,0.333333 -0.78333,0.55 -1.45,0.65 L 42.95,25 42,25 C 41.600002,24.96667 41.300003,24.866667 41.1,24.7 L 39.3,24.35 38.4,23.7 37.45,23.05 C 37.016666,22.916666 36.6,22.6 36.2,22.1 L 35.15,20.95 C 34.45,19.316668 34.1,17.566668 34.1,15.7 l 0.05,-4 0.2,-1.3 C 34.18333,9.766666 34.13333,8.85 34.2,7.65 L 34.15,4.85 34.2,4.6 34.25,0.55 z"
         inkscape:connector-curvature="0"
         id="path5522"
         style="fill:#000000;stroke-linecap:round;stroke-linejoin:round" />
      <path
         d="m 55.75,-0.6 0.3,-0.55 c 0.2,-1.0666667 0.516666,-1.6 0.95,-1.6 l 1.05,-0.1 0.45,0.6 0.9,0.1 0.05,0.6 -0.05,2.25 -0.05,0.3 0.2,0.9 -0.2,2.2 0.1,2.65 -0.1,1.25 0,2.05 0.15,1.25 -0.05,2.7 0,2.65 0.1,0.15 -0.1,2.75 -0.2,4.05 -0.65,1 -0.85,0.3 -0.15,0 c -0.4,0 -0.78333,-0.15 -1.15,-0.45 -0.4,-0.3 -0.6,-0.666667 -0.6,-1.1 l -0.15,-2.15 0.05,-0.8 0.1,-0.25 -0.1,-0.35 0.05,-8 0.05,-0.2 -0.05,-0.5 0.1,-0.2 -0.05,-1.05 0.1,-2 0,-0.55 0.1,-2.85 0,-3.65 -0.3,-1.4 z"
         inkscape:connector-curvature="0"
         id="path5524"
         style="fill:#000000;stroke-linecap:round;stroke-linejoin:round" />
      <path
         d="m 61.4,-0.6 -0.15,-0.7 0.05,-0.25 0,-0.4 c 0,-0.4333332 0.4,-0.6666666 1.2,-0.7 l 1.6,-0.05 1.25,0.05 0.9,0.3 0.85,0.55 c 0.86667,0.6333334 1.7,1.81666677 2.5,3.55 0,0.6333334 0.1,1.0500002 0.3,1.25 L 70.05,3.7 70,5.4 69.75,7.75 c -0.166664,1 -0.416664,1.666667 -0.75,2 l -0.8,0.4 c -0.33334,0.199999 -0.5,0.449999 -0.5,0.75 l -0.75,0.8 0,0.1 -0.15,0.85 c 0,0.199999 0.05,0.333333 0.15,0.4 l 0.65,2.65 c 0.466666,0.7 0.966666,1.883332 1.5,3.55 l 1.1,2 0.95,1.95 c 0,0.7 -0.15,1.149998 -0.45,1.35 L 69,24.8 c -0.4,0 -1.13333,-1.233334 -2.2,-3.7 l -2.1,-4.85 -1.5,-1.9 C 63.1,14.216666 62.666664,14.099999 61.9,14 61.233334,13.933333 60.866665,13.75 60.8,13.45 L 60.85,13 60.75,11.35 60.8,10.8 c 0.133334,-0.233333 0.533336,-0.333334 1.2,-0.3 L 63,10.45 63.35,10.3 65,10.25 c 0.299995,0 0.6,-0.383333 0.9,-1.15 l 0.65,-2.35 0.2,-1.4 c 0,-1.5333334 -0.4,-2.7000001 -1.2,-3.5 C 64.78333,1.1166667 63.816666,0.8333333 62.65,1 L 61.3,0.55 61.45,-0.4 61.4,-0.6 z"
         inkscape:connector-curvature="0"
         id="path5526"
         style="fill:#000000;stroke-linecap:round;stroke-linejoin:round" />
      <path
         d="m 73.7,-0.35 c 0.2,-1.0333333 0.633336,-1.6666667 1.3,-1.9 l 2.4,-0.2 4.85,-0.15 2.25,0.15 -1.25,-0.05 1.45,0.2 c 0.03333,0.1 0.18333,0.15 0.45,0.15 l 0.4,0.9 -0.35,0.05 -0.1,0.15 0.35,0.15 0.15,0.5 C 85.6,2.9802322e-8 85.23333,0.2666667 84.5,0.4 L 84.3,0.35 83.45,0.45 80.6,0.5 80.3,0.6 C 78.8,0.5 77.683334,0.81666666 76.95,1.55 76.71667,2.65 76.6,3.3333335 76.6,3.6 l 0.05,0.65 0.15,1.7 c 0.06667,0.7666667 0.16667,1.2833336 0.3,1.55 0.43333,0.733334 0.93333,1.166667 1.5,1.3 l 1.75,0.15 1.95,-0.15 1.65,0.1 c 0.53333,0.266667 0.866666,0.550001 1,0.85 l 0.45,0.95 c -0.03333,0.733333 -0.35,1.183333 -0.95,1.35 l -1.75,0.2 -1.9,-0.1 c -2,0 -3.08333,0.333333 -3.25,1 -0.2,0.8 -0.28334,1.283333 -0.25,1.45 l 0,1.25 -0.05,0.35 0.05,1.2 -0.1,0.55 0.1,1.05 0.2,0.65 c 0.03333,0.266666 0.166664,0.433332 0.4,0.5 l 0.65,0.6 0.5,-0.1 1.55,0.25 0.65,-0.1 1.25,0.1 c 0.36667,-0.133334 0.950005,-0.133334 1.75,0 l 0.2,0.05 0.45,-0.15 c 0.433336,0.03333 0.83334,0.250001 1.2,0.65 l 0.2,1.1 c 0,0.399999 -0.13333,0.633332 -0.4,0.7 l 0,0.1 -0.8,0.75 -0.2,0.1 -0.4,0.05 -0.5,-0.05 -1.7,0.05 -5.7,-0.35 -0.4,0.05 c -0.5,0 -0.98333,-0.183334 -1.45,-0.55 -0.46667,-0.366667 -0.7,-0.766667 -0.7,-1.2 L 73.9,7.95 73.7,-0.35 z m 10.9,21.2 -0.35,0.05 0.15,-0.2 c 0.166666,0 0.23333,0.05 0.2,0.15 z"
         inkscape:connector-curvature="0"
         id="path5528"
         style="fill:#000000;stroke-linecap:round;stroke-linejoin:round" />
    </g>
  </g>
</svg>
