<?xml version="1.0" encoding="UTF-8" standalone="no"?>
<!-- Created with Inkscape (http://www.inkscape.org/) -->
<svg
   xmlns:svg="http://www.w3.org/2000/svg"
   xmlns="http://www.w3.org/2000/svg"
   version="1.0"
   width="740.72113"
   height="755.25867"
   id="svg2">
  <defs
     id="defs4" />
  <g
     transform="translate(209.1667,-42.855054)"
     id="layer1">
    <g
       id="g2395">
      <path
         d="M -171.1448,596.0038 C -189.9594,589.68586 -203.56738,577.74642 -209.1667,559.00483 L -209.1667,85.332995 C -205.9827,70.308005 -196.76714,47.974308 -173.97032,42.855054 L 488.35522,44.398289 C 509.09118,45.502742 525.71631,61.411464 531.39856,80.044504 L 531.39856,596.0038 L -171.1448,596.0038 z M 191.35522,550.54371 C 230.25272,547.91004 265.56542,539.05482 300.88202,523.07813 C 313.41002,517.41068 330.08742,508.2053 339.99252,501.49041 C 356.58222,490.24396 382.66602,466.14566 381.51002,463.13321 C 380.94882,461.67057 377.90352,461.5346 351.59492,461.79754 L 322.30472,462.09027 L 312.64412,468.35001 C 279.25212,489.98701 241.53132,503.89164 201.85522,509.18903 C 184.62752,511.48919 152.58663,511.47648 135.35523,509.16264 C 103.34203,504.8639 75.7657,494.83348 51.7534,478.75395 C 8.4774,449.77468 -16.2288,408.16047 -22.0871,354.37968 C -23.4299,342.0524 -23.4371,315.79449 -22.101,304.09027 C -15.336,244.8308 15.7385,194.50004 62.5815,166.93147 C 107.14413,140.70497 167.95493,131.85468 222.45832,143.6633 C 296.61252,159.72942 343.65012,220.73398 340.57242,296.84914 C 339.38342,326.25536 333.31202,345.72717 318.30642,368.25975 C 306.32482,386.25136 296.58572,395.10725 280.52852,402.61176 L 272.35522,406.43163 L 212.85522,407.07937 C 173.13743,407.51176 152.86493,407.38923 151.88063,406.71086 C 150.60363,405.83082 150.68743,405.11796 152.50543,401.39244 C 153.66013,399.02624 156.64503,394.39027 159.13863,391.09027 C 165.49603,382.67699 189.57982,359.35027 200.50832,351.02104 C 229.60142,328.84746 245.41362,310.97179 253.44492,291.17627 C 262.11822,269.79834 261.76552,246.66844 252.46762,227.09027 C 241.66712,204.348 221.42172,190.41058 192.85522,186.05165 C 180.40903,184.1525 152.15113,184.17164 137.52363,186.08914 C 114.07043,189.16359 101.56103,194.72575 88.2405,208.00234 C 81.5162,214.70444 79.3255,217.73855 75.4547,225.70993 C 70.5711,235.76722 64.8552,255.70268 64.8552,262.6779 C 64.8552,265.88321 65.2437,266.63712 67.1052,267.04416 C 68.3427,267.31476 83.0461,268.69134 99.77943,270.10324 C 124.58223,272.196 130.42643,272.43197 131.40903,271.3803 C 132.07193,270.67078 133.33173,266.82487 134.20853,262.83382 C 137.49533,247.87275 144.07023,239.08873 154.24303,236.06774 C 175.54513,229.74169 194.07182,245.52428 190.68632,267.11321 C 188.23672,282.73426 179.51673,292.58088 139.01833,325.45642 C 95.30113,360.94494 74.3702,387.65456 64.4671,420.59027 C 61.1341,431.67498 59.1545,443.30805 60.4021,444.47764 C 60.9446,444.98616 107.88323,445.52598 169.35523,445.73066 C 256.86612,446.02205 278.39862,445.83745 282.85522,444.75761 C 298.75402,440.90529 322.89692,424.65277 341.51742,405.26747 C 356.50922,389.65977 364.91812,375.82913 372.28112,354.66845 C 380.86562,329.99703 384.17072,311.14786 384.13042,287.09027 C 384.09892,268.29752 382.61582,256.92532 377.85992,239.00873 C 369.22172,206.4669 353.61382,178.47581 331.85522,156.50398 C 296.39672,120.69808 249.90692,101.36385 190.03302,97.522805 C 130.85383,93.726335 73.7694,107.17741 31.4591,134.88838 C -14.0955,164.72424 -48.7245,213.08423 -62.6384,266.29717 C -71.2364,299.18012 -72.5414,340.42121 -66.0175,373.09027 C -59.5243,405.60544 -45.7988,436.52867 -26.3419,462.47815 C -19.0288,472.23156 -0.7849,491.10196 8.8552,498.88395 C 55.7204,536.71588 121.32193,555.28551 191.35522,550.54371 z"
         id="path2474"
         style="fill:#fc8a03" />
      <path
         d="M -168.2558,798.11372 C -182.9924,794.91165 -199.3736,790.69574 -209.1667,770.2538 L -209.1667,591.92426 C -198.5032,600.66048 -192.24901,611.00745 -174.5315,617.32116 L 531.55444,617.32116 L 531.55444,756.05397 C 526.61577,781.59407 510.73114,791.26163 489.59954,798.11372 L -168.2558,798.11372 z M -109.5315,716.55397 L -109.0315,685.05397 L -83.0315,684.80976 C -63.5792,684.62706 -56.4019,684.88546 -54.5315,685.83586 C -52.2311,687.00475 -52.0081,687.73034 -51.7378,694.92486 C -51.5535,699.8282 -51.8788,703.26752 -52.6102,704.14877 C -53.5414,705.27078 -57.8445,705.55397 -73.9628,705.55397 C -88.7508,705.55397 -94.6158,705.89514 -95.8939,706.8297 C -97.3051,707.86157 -97.5806,709.34302 -97.3351,714.5797 L -97.0315,721.05397 L -74.6639,721.32342 C -52.8932,721.58567 -52.1564,721.52884 -47.0569,719.19422 C -38.0053,715.05024 -34.5315,708.36837 -34.5315,695.10109 C -34.5315,688.35372 -34.9739,686.05903 -37.0949,681.80254 C -39.8902,676.1931 -46.405,671.02331 -51.9253,670.03394 C -53.6337,669.72774 -70.7815,669.60699 -90.0315,669.7656 L -125.0315,670.05397 L -125.2938,708.05081 C -125.438,728.94908 -125.332,746.63142 -125.0583,747.34492 C -124.6985,748.28249 -122.5463,748.56063 -117.296,748.34807 L -110.0315,748.05397 L -109.5315,716.55397 z M 59.589,747.01144 C 64.95041,745.11983 70.09896,740.37673 72.56862,735.05397 C 74.19907,731.53993 74.42455,728.38119 74.42455,709.05397 C 74.42455,684.13135 73.8958,681.77039 66.94818,675.6703 C 60.1439,669.69605 59.2581,669.55397 28.8163,669.55397 C 2.7547,669.55397 0.8424,669.67863 -3.2131,671.64188 C -8.7999,674.3464 -14.0346,680.52353 -15.4276,686.05531 C -17.1277,692.80706 -16.8593,727.08711 -15.0589,733.14974 C -13.3387,738.9423 -9.011,743.54584 -2.5315,746.47543 C 1.6275,748.35589 3.9857,748.51171 28.5927,748.53201 C 50.0711,748.54973 56.062,748.25583 59.589,747.01144 z M 5.4685,732.85436 C 0.5214,731.88071 0.4685,731.63376 0.4685,709.50411 C -0.03884,686.63662 0.14663,689.40279 3.1033,686.62655 C 5.59478,684.66671 6.9849,684.55397 28.653,684.55397 C 54.5881,684.55397 56.908,685.04959 57.9908,690.8215 C 58.3275,692.6159 58.4602,702.04986 58.2857,711.78587 C 58.0099,727.17379 57.7353,729.72077 56.1847,731.27083 C 54.5847,732.87016 52.0076,733.06904 31.1847,733.20018 C 18.4158,733.28059 6.8435,733.12498 5.4685,732.85436 z M 162.62648,744.55397 C 163.03295,742.62897 163.11087,739.39592 162.79965,737.36941 L 162.23378,733.68485 L 138.88494,733.36941 C 118.06812,733.08818 115.34265,732.86049 113.75228,731.26983 C 112.14477,729.66201 111.91905,726.54878 111.46847,699.76983 L 110.96847,670.05397 L 103.46847,670.05397 L 95.96847,670.05397 L 95.96847,702.21918 L 95.96847,734.38438 L 98.98555,738.67581 C 100.87427,741.36229 104.01466,744.01834 107.38256,745.77775 L 112.76251,748.58827 L 137.32498,748.32112 L 161.88745,748.05397 L 162.62648,744.55397 z M 256.96847,746.17068 C 266.28977,741.76403 270.48368,734.96983 270.44651,724.33609 C 270.41999,716.752 268.09663,711.10404 263.36077,707.11106 C 256.70565,701.49989 255.17658,701.23658 225.68012,700.62228 C 195.28455,699.98926 196.51105,700.31464 196.48378,692.87655 C 196.47157,689.54436 197.00159,688.27978 199.10333,686.62655 C 201.6493,684.62389 202.86313,684.55397 235.08428,684.55397 L 268.43037,684.55397 L 269.01171,682.2377 C 269.33145,680.96375 269.45253,677.70125 269.28076,674.9877 L 268.96847,670.05397 L 233.19329,669.79131 C 201.7601,669.56053 197.02672,669.72657 194.19329,671.15937 C 183.98899,676.31943 180.15177,682.30272 180.15177,693.05397 C 180.15177,701.37662 182.59099,707.02017 187.95721,711.11318 C 194.44843,716.06428 197.08458,716.46283 223.65337,716.51008 C 237.23007,716.53422 249.45088,716.97698 250.81074,717.494 C 255.31146,719.20517 255.5414,729.29069 251.13719,731.81229 C 249.58068,732.70345 239.51165,733.19512 215.46847,733.55397 L 181.96847,734.05397 L 181.66445,739.942 C 181.49724,743.18041 181.59561,746.44291 181.88306,747.192 C 182.31033,748.30543 188.7527,748.55219 217.18709,748.5442 C 251.66594,748.53452 252.01196,748.51387 256.96847,746.17068 z M 302.77269,743.80397 C 303.53262,741.19147 307.01288,727.85786 310.50659,714.17374 C 314.00031,700.48961 317.63034,688.33961 318.57334,687.17374 C 320.09958,685.28679 321.47851,685.02314 331.12818,684.77329 C 338.55374,684.58102 342.75598,684.9012 344.46847,685.7897 C 347.07535,687.14225 349.82775,693.69495 351.08098,701.53223 L 351.72409,705.55397 L 338.71872,705.55397 C 329.50989,705.55397 325.42392,705.91887 324.72187,706.80397 C 323.27778,708.62458 321.16611,718.32364 321.83456,720.06559 C 322.30815,721.29975 325.20835,721.55397 338.81464,721.55397 C 350.74601,721.55397 355.49429,721.89506 356.21567,722.80397 C 356.76131,723.49147 358.4387,728.77897 359.94319,734.55397 C 363.76945,749.24108 363.18042,748.55397 371.94464,748.55397 C 376.01783,748.55397 379.62296,748.11301 379.95605,747.57406 C 380.72612,746.32807 366.00071,689.57015 363.34652,683.55397 C 360.81618,677.81849 357.03424,673.79521 351.96847,671.44983 C 348.63473,669.90636 345.42299,669.59424 332.68635,669.57593 C 322.07872,669.56069 316.41995,669.96644 314.18635,670.90243 C 308.97679,673.08551 304.73746,677.28846 302.13523,682.85013 C 299.58421,688.30236 285.46847,741.87988 285.46847,746.11027 C 285.46847,748.49724 285.6533,748.55397 293.42973,748.55397 L 301.39099,748.55397 L 302.77269,743.80397 z M 429.46847,716.55397 L 429.96847,685.05397 L 444.89947,684.7762 C 453.82915,684.61008 460.36062,684.05844 461.14947,683.40376 C 462.50033,682.28264 462.97835,674.04628 461.86148,671.13576 C 461.32201,669.72991 456.81234,669.55397 421.31767,669.55397 L 381.38085,669.55397 L 381.67466,676.80397 L 381.96847,684.05397 L 397.46847,684.55397 L 412.96847,685.05397 L 413.22136,715.55397 C 413.36044,732.32897 413.69143,746.63632 413.95689,747.34807 C 414.30549,748.28275 416.45718,748.56049 421.70401,748.34807 L 428.96847,748.05397 L 429.46847,716.55397 z"
         id="path2472"
         style="fill:#e41b04" />
    </g>
  </g>
</svg>
