<?xml version="1.0" encoding="UTF-8" standalone="no"?>
<!-- Created with Inkscape (http://www.inkscape.org/) -->

<svg
   xmlns:dc="http://purl.org/dc/elements/1.1/"
   xmlns:cc="http://creativecommons.org/ns#"
   xmlns:rdf="http://www.w3.org/1999/02/22-rdf-syntax-ns#"
   xmlns:svg="http://www.w3.org/2000/svg"
   xmlns="http://www.w3.org/2000/svg"
   version="1.1"
   width="800"
   height="300"
   id="svg2">
  <defs
     id="defs4" />
  <metadata
     id="metadata7">
    <rdf:RDF>
      <cc:Work
         rdf:about="">
        <dc:format>image/svg+xml</dc:format>
        <dc:type
           rdf:resource="http://purl.org/dc/dcmitype/StillImage" />
        <dc:title></dc:title>
      </cc:Work>
    </rdf:RDF>
  </metadata>
  <g
     transform="translate(0,-752)"
     id="layer1">
    <path
       d="m 606.3,923.5 0,100.5"
       id="path3007"
       style="fill:none;stroke:#000000;stroke-width:22.1273;stroke-linecap:butt;stroke-linejoin:miter;stroke-miterlimit:4;stroke-opacity:1;stroke-dasharray:none" />
    <path
       d="m 760.7,923.5 0,100.5"
       id="path3007-1"
       style="fill:none;stroke:#000000;stroke-width:22.1273;stroke-linecap:butt;stroke-linejoin:miter;stroke-miterlimit:4;stroke-opacity:1;stroke-dasharray:none" />
    <path
       d="m 473.7,902.6 c -9.5,-17.2 -19.4,-22.3 -33.6,-22.3 -22.7,0 -32.2,15.2 -32.2,28.5 0,39.3 67.6,27 67.3,68.8 0,19.3 -14.5,37.4 -37.3,37.4 -20.5,-3 -34.5,-15.1 -39.6,-37.4"
       id="path3795"
       style="fill:none;stroke:#000000;stroke-width:22.1273;stroke-linecap:butt;stroke-linejoin:miter;stroke-miterlimit:4;stroke-opacity:1;stroke-dasharray:none" />
    <path
       d="m 677.6,1024 0,-114.2 c 0,-14.3 13.5,-23.6 26.3,-23.6 l 39.1,0"
       id="path3797"
       style="fill:none;stroke:#000000;stroke-width:22.1273;stroke-linecap:butt;stroke-linejoin:miter;stroke-miterlimit:4;stroke-opacity:1;stroke-dasharray:none" />
    <path
       d="m 677.1,950.6 55.8,0"
       id="path3799"
       style="fill:none;stroke:#000000;stroke-width:22.1273;stroke-linecap:butt;stroke-linejoin:miter;stroke-miterlimit:4;stroke-opacity:1;stroke-dasharray:none" />
    <path
       d="m 549.7,921.1 c -29,0 -52.6,22.1 -52.6,51.6 0,29.3 23.6,54.3 52.6,54.3 11.1,0 21.4,-5 29.8,-10 l 0,-32 c -4.7,9.9 -15.3,20 -27.8,20 -16.7,0 -30.3,-15.1 -30.3,-32.3 0,-17.2 13.6,-29.5 30.3,-29.5 12.5,0 23.1,7.4 27.8,17.2 l 0,-31.9 c -8.4,-5 -18.7,-7.4 -29.8,-7.4 z"
       id="path3801"
       style="fill:#000000;stroke:none" />
    <path
       d="M 12.32,999.9 C 153.2,962.9 387.2,847.6 387.2,813.1 c 0,-14.2 -30,-7.8 -59.7,-4.4 22.3,-13.7 74,-20.1 95.8,-20.1 9.1,0 32.5,0.7 32.5,15.7 0,49.7 -291,187.6 -443.48,195.6 z"
       id="path3828"
       style="fill:#7a0093;fill-opacity:1;stroke:none" />
    <path
       d="m 188.8,792.5 c 11.8,-9.4 31.5,-11.1 46,-11.1 74.7,0 123.6,64.2 123.6,122.2 0,56.8 -55,123.4 -122.9,123.4 -44.7,0 -92.9,-35.1 -101.5,-59.2 l 44,-17.2 c 8.9,12.3 36.7,31.9 64.9,31.9 30.2,0 87.8,-22.1 87.8,-83.3 0,-76.2 -55.4,-109.2 -97.9,-109.2 -13,0 -29.7,0.3 -44,2.5 z"
       id="path3830"
       style="fill:#7a0093;fill-opacity:1;stroke:none" />
  </g>
</svg>
