<?xml version="1.0" encoding="UTF-8" standalone="no"?>
<!-- Created with Inkscape (http://www.inkscape.org/) -->

<svg
   xmlns:dc="http://purl.org/dc/elements/1.1/"
   xmlns:cc="http://creativecommons.org/ns#"
   xmlns:rdf="http://www.w3.org/1999/02/22-rdf-syntax-ns#"
   xmlns:svg="http://www.w3.org/2000/svg"
   xmlns="http://www.w3.org/2000/svg"
   xmlns:inkscape="http://www.inkscape.org/namespaces/inkscape"
   version="1.0"
   width="750"
   height="356.29706"
   viewBox="0 0 210 297"
   id="svg2"
   xml:space="preserve"
   style="fill-rule:evenodd"><metadata
   id="metadata16"><rdf:RDF><cc:Work
       rdf:about=""><dc:format>image/svg+xml</dc:format><dc:type
         rdf:resource="http://purl.org/dc/dcmitype/StillImage" /></cc:Work></rdf:RDF></metadata>
 <defs
   id="defs4">
  <style
   type="text/css"
   id="style6" />
 
  <metadata
   id="CorelCorpID_0Corel-Layer" />
  
 
   
   
   
   
  </defs>
 <g
   transform="matrix(0.9939795,0,0,0.9939795,17.022849,1.877745e-5)"
   id="g2188"><path
     d="m -14.96589,102.04131 c -44.65165,7.60976 -150.84503,29.17654 -184.54879,58.89256 -17.99774,15.86823 -9.34556,27.03148 9.17868,35.27405 79.08038,35.18765 178.571255,40.34493 256.076624,40.70031 109.480246,0.50203 228.538116,-7.67592 337.253016,-34.83843 -70.86701,31.25392 -249.77733,80.47267 -310.39135,96.7291 21.90106,-10.03481 38.26138,-18.10585 45.00499,-23.82466 6.20933,-5.26548 2.94378,-11.46324 -10.8632,-13.29318 C 61.273068,253.00443 -6.0367435,252.65447 -71.076328,242.79302 -114.01783,235.33519 -157.3,225.50229 -197.86639,208.93874 c -22.50241,-10.31371 -38.64393,-24.9375 -19.84725,-44.7178 31.18273,-32.81515 161.548597,-58.78923 202.747248,-62.17963 l 5.02e-4,0 z"
     inkscape:connector-curvature="0"
     id="_72860672"
     style="fill:#eb7d26;fill-opacity:1" /><g
     transform="translate(-12.592357,0)"
     id="g2184"><polygon
       points="61.8003,145.716 61.8003,107.375 61.8003,107.375 140.327,107.375 140.327,145.716 "
       transform="matrix(2.6421654,0,0,2.6421654,-158.48466,-283.70251)"
       id="_72860960"
       style="fill:#00458a;fill-opacity:1" /><path
       d="m 84.717946,18.968105 46.807814,0 0,61.875815 -46.807814,0 0,-61.875815 z m 50.249494,0 46.80781,0 0,61.875815 -46.80781,0 0,-61.875815 z m 10.13746,10.197173 0,42.110833 8.44806,0 0,-12.840924 1.81464,0.06288 c 11.45167,0 17.08371,-7.427655 17.08371,-14.855311 0,-7.23874 -5.44418,-14.477481 -16.27019,-14.477481 l -11.07622,0 0,0 z m 8.44806,8.183051 3.06623,0 c 4.81852,0.06288 7.25909,1.699441 7.57192,6.546229 -0.25048,5.035703 -3.12885,6.609377 -8.00999,6.735408 l -2.62816,0 0,-13.281637 z m -45.43098,35.249657 -19.39904,-43.936304 9.386557,0 9.699393,22.220082 0.31309,1.321876 0.31284,-1.321876 9.63677,-22.220082 9.44917,0 -19.39878,43.936304 z m -34.042185,-35.249657 0,-8.183051 -32.477497,0 0,8.183051 11.764506,0 0,33.927782 9.011105,0 0,-33.927782 11.701886,0 0,0 z m -39.611343,-18.380224 46.807809,0 0,61.875815 -46.807809,0 0,-61.875815 0,0 z m -3.441685,-3.02158 154.190163,0 0,67.918975 -154.190163,0 0,-67.918975 0,0 z"
       inkscape:connector-curvature="0"
       id="_72860888"
       style="fill:#ffffff" /></g><path
     d="m -25.37406,151.6752 -2.907304,15.18029 44.546432,0.0539 c 5.870299,-0.0196 8.336887,-1.77923 9.834966,-6.83237 2.497724,-8.42534 -0.524505,-8.45757 -7.812637,-8.46286 l -43.661457,0.061 0,0 z m -12.303073,-13.6201 -14.36616,64.93518 15.560723,-0.006 5.563748,-23.64288 48.20404,0.0148 c 12.8172,0.17069 19.283642,-3.77592 22.333211,-13.61376 4.703074,-15.17237 6.356073,-27.74273 -13.543962,-27.51075 l -63.7516,-0.17623 0,0 z m 296.788043,0.21771 -1.53048,13.11069 33.87003,-0.0589 -10.77765,51.03237 16.09686,-0.0494 10.28758,-50.80726 36.59205,-0.0391 1.57098,-13.19814 -86.10937,0.01 0,0 z m -315.267209,10.7124 c -1.353789,-5.30256 -2.29977,-11.08706 -14.408685,-11.18455 l -46.717106,0.0196 c -7.75087,0 -13.3622,1.36283 -17.438,6.68441 -3.98847,5.20718 -6.74489,13.98763 -5.66652,20.4538 1.50719,9.02669 10.1881,11.91009 18.19565,11.876 l 40.617456,-0.27188 c 7.92427,-0.10621 8.192598,1.61516 7.127895,6.36947 -1.067488,4.76779 -3.349286,7.83191 -13.074642,7.51881 l -35.836169,0.2769 c -2.21547,0.0169 -7.76833,-0.25919 -12.63873,-5.94619 l -12.09019,5.77815 c 4.89369,7.59807 11.76465,11.77798 22.74558,11.93043 l 42.911404,0.13475 c 7.243833,-0.23964 13.89532,-3.5006 17.212456,-9.10569 3.17057,-5.35726 4.86154,-12.62929 4.747374,-19.09757 -0.135176,-7.66968 -5.274663,-10.93513 -18.895832,-10.70474 l -41.238922,-0.41164 c -5.9032,-0.1477 -7.84199,-0.47956 -6.30114,-6.3058 1.34873,-5.09964 1.5839,-5.4846 6.95273,-5.72715 l 41.469522,-0.15668 c 3.534584,0.046 7.538993,-0.65156 8.456623,3.98887 l 13.869246,-6.11925 0,0 z m 234.439599,2.30978 -2.66987,15.72987 46.46017,-0.0325 c 7.47748,-0.1337 8.38169,-1.39586 9.47096,-8.25016 0.73612,-4.63304 0.7303,-7.68633 -6.17356,-7.52225 l -47.0877,0.075 0,0 z m -12.08994,-12.51488 -13.74875,64.58773 15.81032,-0.0684 4.59119,-24.28044 41.82012,-0.12762 9.94559,24.02521 16.25457,0.0227 -10.84625,-24.48415 c 7.14055,-0.39448 11.53074,-3.61792 13.85456,-8.26179 2.42001,-4.83675 4.39095,-14.30865 3.8824,-19.40908 -1.09027,-10.92853 -7.67847,-11.95025 -15.78551,-11.95606 l -65.77824,-0.0481 0,0 z m -46.24499,11.10898 -40.043337,-0.0415 c -5.026332,0.0206 -9.717003,0.98341 -12.202577,6.44107 -2.599993,5.70946 -5.377437,17.61637 -6.425433,22.76226 -1.353789,6.64848 -0.319462,10.0965 8.255377,10.45874 l 43.72601,0.27902 c 5.54805,0.22379 11.72794,-3.07971 13.66091,-8.52072 1.7745,-4.99449 4.21452,-16.17375 4.90255,-21.98995 0.92724,-7.83746 -4.99975,-9.87404 -11.8735,-9.38894 l 0,0 z m 5.18581,-12.1167 -47.107946,-0.0748 c -8.994797,-0.0143 -16.234579,2.56 -21.500888,10.59509 -4.450694,6.79063 -9.044918,23.80881 -10.166579,33.01649 -1.532758,12.57962 6.006488,20.99941 17.729873,21.6433 l 52.75674,0.0454 c 10.23038,0.47823 17.86886,-5.77155 21.55127,-13.307 5.09924,-10.43497 6.45176,-20.76875 8.45409,-32.27115 2.72378,-15.64584 -9.70662,-19.62891 -21.71656,-19.6474 l 0,0 z"
     inkscape:connector-curvature="0"
     id="_72860816"
     style="fill:#eb7d26;fill-opacity:1" /></g>
</svg>