<?xml version="1.0" encoding="UTF-8" standalone="no"?>
<!-- Created with Inkscape (http://www.inkscape.org/) -->
<svg xmlns:dc="http://purl.org/dc/elements/1.1/" xmlns:cc="http://web.resource.org/cc/" xmlns:rdf="http://www.w3.org/1999/02/22-rdf-syntax-ns#" xmlns:svg="http://www.w3.org/2000/svg" xmlns="http://www.w3.org/2000/svg" xmlns:sodipodi="http://sodipodi.sourceforge.net/DTD/sodipodi-0.dtd" xmlns:inkscape="http://www.inkscape.org/namespaces/inkscape" height="1340" width="1340" id="svg2" sodipodi:version="0.32" inkscape:version="0.44" version="1.0" sodipodi:docbase="C:\Documents and Settings\Damian\Pulpit" sodipodi:docname="TVN.svg">
  <defs id="defs4"/>
  <sodipodi:namedview id="base" pagecolor="#ffffff" bordercolor="#666666" borderopacity="1.0" inkscape:pageopacity="0.0" inkscape:pageshadow="2" inkscape:cx="341.34262" inkscape:cy="738.77981" inkscape:zoom="0.28134328" inkscape:document-units="px" inkscape:current-layer="layer1" width="1340px" height="1340px" inkscape:window-width="888" inkscape:window-height="574" inkscape:window-x="44" inkscape:window-y="58"/>
  <metadata id="metadata7">
    <rdf:RDF>
      <cc:Work rdf:about="">
        <dc:format>image/svg+xml</dc:format>
        <dc:type rdf:resource="http://purl.org/dc/dcmitype/StillImage"/>
      </cc:Work>
    </rdf:RDF>
  </metadata>
  <g inkscape:groupmode="layer" inkscape:label="Warstwa 1" id="layer1" transform="translate(342.857, -15.2194)">
    <path sodipodi:type="arc" style="opacity: 1; fill: rgb(31, 96, 169); fill-opacity: 1; fill-rule: nonzero; stroke: none; stroke-width: 10; stroke-linecap: butt; stroke-linejoin: miter; stroke-miterlimit: 4; stroke-dasharray: none; stroke-dashoffset: 0pt; stroke-opacity: 1;" id="path1872" sodipodi:cx="311.42856" sodipodi:cy="669.50507" sodipodi:rx="654.28571" sodipodi:ry="654.28571" d="M 965.71426 669.50507 A 654.28571 654.28571 0 1 1  -342.85715,669.50507 A 654.28571 654.28571 0 1 1  965.71426 669.50507 z" transform="translate(15.7143, 15.7143)"/>
    <path style="fill: rgb(252, 177, 48); fill-opacity: 1; font-family: Franklin Gothic Heavy;" d="M 115.17921,559.54645 L 115.17921,637.54318 L 54.046733,637.54318 L 54.046733,750.47235 C 54.04658,765.93108 56.957618,775.11647 62.779953,778.027 C 68.601877,780.93855 74.624806,782.39408 80.848642,782.39408 C 90.485085,782.39408 101.92859,780.68723 115.17921,777.27457 L 115.17921,862.79969 C 91.488941,867.41707 68.200374,869.72574 45.313515,869.72574 C 8.372928,869.72574 -18.78032,861.79594 -36.146279,845.9353 C -53.512393,830.07519 -62.195399,804.77885 -62.195348,770.04683 L -61.894222,734.21083 L -61.894222,637.54318 L -107.66831,637.54318 L -107.66831,559.54645 L -61.894222,559.54645 L -60.087312,459.86703 L 54.046733,458.06047 L 54.046733,559.54645 L 115.17921,559.54645 z M 447.70574,559.54645 L 335.37861,865.81096 L 245.63731,865.81096 L 131.20209,559.54645 L 254.67166,559.54645 L 298.33769,689.6412 C 301.95131,700.2816 305.16353,710.82178 307.97435,721.26123 C 308.97799,717.64761 310.48373,713.03025 312.49155,707.40861 C 312.89289,706.60582 314.19787,702.79125 316.40645,695.9649 L 361.57821,559.54645 L 447.70574,559.54645 z M 761.9541,865.81096 L 641.79716,865.81096 L 641.79716,673.07798 C 641.79695,657.21787 639.33758,647.07961 634.41909,642.66266 C 629.50018,638.24574 623.32671,636.03728 615.89864,636.03728 C 594.01528,636.03728 583.0737,651.29557 583.07379,681.81111 L 583.07379,865.81096 L 462.91687,865.81096 L 462.91687,559.54645 L 574.34063,559.54645 L 574.34063,602.91137 C 590.80306,569.78545 620.21488,553.22276 662.57615,553.22224 C 684.86068,553.22276 703.68222,557.48857 719.04089,566.02074 C 734.39901,574.55392 745.39079,585.59573 752.0163,599.14718 C 758.64117,612.69861 761.95377,636.23824 761.9541,669.76555 L 761.9541,865.81096 z " id="flowRoot1874" sodipodi:nodetypes="ccccssccscccccccccccccccccccccccccssccccccccscc"/>
  </g>
</svg>