<?xml version="1.0" encoding="UTF-8" standalone="no"?>
<!-- Created with Inkscape (http://www.inkscape.org/) -->
<svg
   xmlns:svg="http://www.w3.org/2000/svg"
   xmlns="http://www.w3.org/2000/svg"
   version="1.0"
   width="956.69287"
   height="723.89764"
   id="svg2">
  <defs
     id="defs4" />
  <g
     transform="translate(-584.90955,-173.10226)"
     id="layer1">
    <g
       transform="matrix(4.2097729,0,0,4.2097729,-1841.9936,-2616.583)"
       id="g2864">
      <path
         d="M 681.90221,772.42837 L 680.75084,771.93752 C 680.1085,772.02842 679.51463,772.44049 678.84805,773.07677 L 678.25418,773.48278 C 677.46034,774.02817 676.82406,774.87655 676.1696,775.62191 C 675.14548,776.08852 674.36982,776.74298 673.50326,777.51258 L 673.27299,778.19734 L 672.86092,778.36096 C 672.23675,779.31841 671.50957,780.28799 670.44304,781.19697 C 669.95219,781.59086 669.7704,781.83931 669.75222,782.48771 C 668.52207,783.74816 667.19496,785.12981 665.70424,786.85686 L 665.56486,787.42043 L 665.89816,788.23851 L 665.57698,788.28699 L 664.52863,788.5415 C 663.57117,789.4323 663.11063,790.03828 662.58342,790.11706 L 661.47447,789.18384 C 661.40175,788.65664 661.23813,786.72355 661.44417,783.54819 L 661.27449,783.13612 L 661.36539,782.25744 L 661.32297,781.93627 C 661.29267,775.54313 662.02591,767.62897 663.08033,758.15137 C 663.4318,757.55751 663.71661,757.29693 663.66207,756.87274 L 663.20758,755.96377 C 663.35908,755.50322 663.74691,752.3521 664.17716,750.013 C 665.66788,749.80696 668.1706,748.98888 668.48571,748.94646 C 668.96444,748.87981 669.65526,747.94659 671.1581,747.5224 C 672.09738,747.24971 673.64264,747.55876 674.78795,747.21941 C 676.07264,746.83764 677.43004,746.42557 678.76321,746.02562 C 679.33284,745.85594 682.21126,745.31056 682.76271,745.14694 C 685.73809,744.25614 685.98655,743.88043 686.79251,743.735 C 688.14385,743.4926 689.19221,742.58968 689.87697,742.49273 C 691.73734,742.22003 691.39193,742.88662 691.10712,740.86263 L 688.41049,740.14151 L 686.43498,741.03836 L 683.73834,740.86263 L 680.51451,741.94128 L 677.82393,741.22016 L 673.50932,742.65634 L 667.58279,743.08659 C 666.89803,742.85632 666.35264,742.82602 665.60728,742.92904 C 665.85574,740.07485 666.16479,737.64485 666.45566,735.86931 L 665.71636,734.45131 C 665.26187,733.54233 664.7892,733.28176 663.94082,733.40296 C 662.6622,733.57869 661.17148,734.54827 661.30479,735.50572 L 661.33509,735.71782 C 660.52913,736.16019 659.98375,736.88737 659.69287,737.90542 C 659.5838,738.67502 659.10507,740.69901 658.14155,743.86831 C 657.53557,744.1713 656.71143,744.5046 655.56006,744.77729 L 654.96619,744.42582 C 653.76634,744.37734 653.00886,744.37734 652.57861,744.43794 C 652.05141,744.51066 651.30605,744.61367 650.46979,744.84395 L 649.66383,745.28026 L 649.22146,745.23178 C 647.93071,745.3045 647.16717,745.3045 646.95508,745.33479 C 645.57343,745.52871 644.2039,745.8317 642.84044,746.12863 C 641.63453,746.08016 640.45286,746.14075 639.28331,746.30437 C 638.64097,746.39527 638.89548,747.08609 637.43506,747.51028 L 635.56862,747.69208 L 635.04142,747.77085 L 633.12045,750.19479 C 633.39314,752.1097 635.48379,752.47935 635.60498,753.33379 C 635.7686,754.50334 635.81102,754.81845 637.10782,754.74574 C 637.9259,755.17599 639.11363,754.70332 639.22271,754.68514 L 640.69525,754.02461 L 645.14924,753.43075 L 648.73667,752.70963 C 649.03966,752.55813 650.86368,752.27332 651.60904,752.1703 C 652.24532,752.0794 653.29973,751.48554 654.30567,750.90985 L 656.45691,751.09165 C 656.16604,752.1097 655.27524,754.36397 654.82076,754.96995 C 652.83313,759.3694 653.13006,762.25995 651.74841,762.45386 L 651.6454,762.46598 C 651.21515,764.0476 650.55462,765.55044 649.77896,766.96239 L 650.08196,767.56837 C 650.14255,767.99256 649.85168,768.25313 649.22752,768.44705 C 647.82769,770.81645 646.76116,772.48291 646.54301,774.03423 C 645.47647,775.70069 644.33116,777.60348 643.09495,779.61535 L 643.21615,780.46978 L 641.986,780.96669 L 640.94977,782.08776 L 640.4468,783.13612 C 639.56206,783.8027 638.9985,784.42686 638.70762,785.44492 L 637.126,786.53569 L 637.3381,787.26287 C 636.98663,787.85674 636.34428,788.70512 635.30805,789.82619 L 635.50197,791.20783 C 634.7869,791.529 634.51421,791.8926 634.30212,792.68038 L 634.34453,793.00155 C 634.46573,793.84993 634.81114,794.0196 635.7686,793.88628 L 636.80483,793.52269 L 637.65927,792.64402 C 638.10164,791.92895 638.79852,791.50477 639.57418,790.85636 C 640.15593,790.34127 640.6286,789.83831 641.23458,789.53532 C 641.78603,788.80813 642.47079,788.27487 643.45854,787.59616 L 644.03423,787.08108 C 644.13119,786.2024 644.3857,785.72973 645.07652,785.19647 L 646.21577,784.06327 L 646.41575,783.16642 C 646.40363,782.29986 646.58542,782.05746 647.4338,781.93627 C 648.07615,781.84537 648.33672,781.37876 648.62759,780.36071 L 649.73654,779.00936 C 649.75472,777.59742 650.82126,777.44592 651.44542,776.49453 C 651.97869,774.90079 652.28774,773.98575 653.16642,773.31917 L 653.65727,772.1678 L 653.56031,773.81001 L 653.9845,774.5069 C 654.03298,774.82807 653.66333,775.31286 653.11794,776.04004 C 652.63921,778.05797 652.29986,781.03941 652.09383,784.97225 L 652.15442,785.39644 L 652.59073,786.2024 L 652.36046,786.88716 C 652.09988,788.11731 652.06959,789.42624 652.2332,790.59579 L 652.46954,792.29861 L 652.82101,793.22576 L 652.88161,793.64995 C 652.87555,794.40743 652.93614,794.83768 652.96644,795.04978 C 653.53607,799.09172 654.06328,800.53392 657.23863,800.74002 L 658.28699,801.24292 L 658.89297,800.93992 L 659.24444,801.10962 L 660.00192,801.10962 C 660.74729,801.00662 661.34115,800.59452 661.70474,800.10972 L 661.9229,800.07942 C 664.37107,798.21912 666.35264,796.09812 667.74035,793.61965 C 667.74035,792.86217 667.91002,792.5107 668.63721,792.30467 C 669.91583,791.36539 671.00055,789.80195 672.27917,787.34165 C 672.31553,786.79626 672.38825,786.56599 672.92152,786.49327 C 673.42448,786.2024 674.13955,785.12981 675.50907,783.30579 L 676.97555,781.36664 L 677.53912,779.985 C 678.60565,779.8335 678.76927,779.48809 678.74503,778.51245 C 679.85398,777.16111 680.7569,775.84612 681.45378,774.65839 L 681.56286,773.88879 C 681.81131,773.30705 681.96281,772.85256 681.90221,772.42837 z"
         id="path3053"
         style="fill:#9e0c47;fill-opacity:1;fill-rule:nonzero;stroke:none" />
      <path
         d="M 726.71235,766.28974 C 726.65175,765.87767 726.10637,765.74436 725.07619,765.88979 C 724.5611,765.96251 724.10056,766.4473 723.48245,767.27144 L 722.06445,768.41675 C 721.85841,769.18029 721.47058,769.44692 720.70704,769.97413 L 719.25874,770.91341 C 718.16797,772.11932 716.956,773.24039 716.34395,774.90079 C 714.05939,776.59148 712.7141,778.25188 711.73847,780.28799 L 711.78089,780.59704 C 711.86573,781.21515 711.58697,781.4636 710.65982,781.59692 L 709.8781,782.02111 L 710.29017,779.75472 L 710.32653,779.22146 C 711.42336,775.8037 712.28992,770.73767 713.02316,764.00518 L 713.11405,763.15074 L 713.47159,761.20553 C 713.34433,759.53907 713.61096,758.4483 713.55642,758.03623 C 713.42311,757.10908 712.17478,756.44249 710.10837,756.73337 C 708.25406,756.99394 707.48446,758.26045 705.73922,760.08446 L 705.64832,760.9389 C 704.16972,762.40538 702.84261,764.17486 701.24282,766.28974 L 700.92164,766.96845 C 700.19446,767.80471 699.36426,769.39844 697.67963,771.63453 L 696.79489,772.81014 L 695.77683,773.79183 C 694.93451,775.28256 694.26793,776.53088 693.24382,777.51864 C 691.63796,778.79727 690.33509,780.03348 689.55337,781.19091 L 688.97769,781.59086 L 688.63833,781.42724 L 688.18385,780.43949 C 688.12931,780.02742 688.06265,776.56118 688.92921,771.49515 L 689.03222,769.27119 C 689.27462,768.70762 689.32916,768.38645 689.27462,767.97438 L 689.21402,767.56231 L 689.33522,766.91391 L 689.3534,766.27762 C 689.11706,764.62935 687.36577,763.3992 685.71749,763.62947 C 683.13599,763.99306 681.74223,767.55625 677.94271,772.7253 L 677.77909,773.79789 L 676.63984,774.69475 C 675.74298,775.76734 675.00368,776.50664 674.23408,777.03385 L 673.58568,777.65196 L 673.5372,778.81545 L 673.22814,778.85787 C 672.09495,779.01542 671.48897,779.94258 671.55563,781.19697 L 670.45274,781.56662 L 670.08308,782.66951 C 669.63466,783.25731 669.02867,784.18447 668.24695,785.34796 L 668.40451,786.48115 L 667.21072,787.69918 L 667.18042,788.23245 C 667.26526,788.85055 667.73792,789.20808 668.25301,789.13536 C 668.56206,789.09295 669.15593,788.79601 669.83463,788.38394 C 670.14368,787.60222 670.60423,787.11744 671.39807,786.79626 L 672.38583,785.60853 C 673.49478,785.23888 674.34922,784.59654 674.94308,783.56031 C 675.85812,783.33003 676.33079,782.20896 677.73061,781.69993 L 677.95483,781.03335 L 678.32448,780.66976 L 678.82744,780.49402 L 679.28193,780.74248 C 679.56068,781.96657 679.82126,783.08764 680.00911,784.42686 L 680.19697,785.77215 L 680.90597,786.30542 L 680.80295,787.05684 L 680.89991,787.77796 C 681.49378,792.00773 682.43911,791.98349 685.53569,791.54718 L 685.94776,791.48659 C 687.6021,791.25631 689.28068,789.75347 691.31073,786.94776 C 691.38344,785.9903 692.19546,785.76609 693.34684,784.97831 C 694.68,783.20883 695.86167,781.88779 696.65551,780.82732 L 697.45541,779.0336 L 697.84324,778.76697 L 697.95838,778.11856 C 698.98249,777.13081 700.1884,776.0158 701.44885,774.47054 L 701.83062,773.47066 L 702.26087,773.51308 L 702.40631,774.54931 C 702.56386,775.68251 702.6487,777.03991 702.44266,778.54275 L 702.48508,778.85181 L 702.35177,779.39719 C 702.44872,780.11831 702.41843,780.65158 702.21239,781.41512 L 702.44872,782.33016 C 702.56386,783.1543 702.35177,783.91784 701.82456,784.62684 C 701.68518,785.90547 701.55187,787.19015 701.09132,788.41424 L 701.25493,788.80813 L 700.64289,791.21389 L 700.89134,791.49265 C 700.58229,792.27437 700.31566,793.36514 700.06115,794.55287 C 698.24319,797.33432 696.52825,800.10372 694.80726,802.87302 C 694.38307,803.56382 694.15885,804.22442 694.15885,804.96372 L 693.31654,805.70902 C 692.07427,808.09662 690.8017,810.27212 689.71699,812.32032 L 689.42005,813.20512 L 689.49277,813.72012 C 688.50502,814.91392 687.83843,815.42902 687.89903,815.84112 L 688.20809,816.53192 C 687.6324,816.93192 687.05671,817.32582 686.8022,817.78022 C 685.85686,820.02242 685.27512,821.88882 684.66913,823.55532 L 684.57824,824.40972 L 684.59036,825.25202 L 684.88123,825.83982 C 685.55993,826.16712 686.20834,826.28222 686.92946,826.18522 C 687.75966,826.07012 688.95345,825.58532 690.52901,824.83392 C 692.21364,823.33712 693.55893,821.67672 694.53457,819.64062 C 694.8315,818.76192 695.36476,818.05292 696.13436,817.52572 L 696.51613,816.51982 L 697.71598,814.56252 L 699.07945,812.27182 L 700.1884,809.69032 C 700.79439,808.76322 701.28523,807.75122 701.46097,806.77562 C 702.12755,806.26052 702.26087,805.71512 702.24875,804.87882 L 702.5275,804.62432 L 702.6487,803.98202 L 703.21227,803.47902 L 703.31528,802.72762 C 703.96369,802.10952 704.36364,801.21262 704.48483,799.82492 C 705.15142,798.57662 705.68468,797.13432 706.11493,795.70422 C 706.57548,795.21942 706.89665,794.54075 707.31478,793.74691 C 708.9873,791.40781 710.28411,789.4323 711.42336,787.8022 C 711.64757,787.14168 712.07782,786.44479 713.22919,785.65701 C 713.53824,784.87529 714.07151,784.16629 714.91383,783.42093 L 715.05927,782.97856 L 715.3259,782.62103 C 715.53799,781.85749 715.90158,781.48784 716.81662,781.25756 L 716.84692,780.7243 C 717.91345,780.05165 718.73759,779.19722 719.52537,778.03373 L 719.65869,777.48834 L 720.25861,777.30048 C 721.26455,776.20971 722.05233,775.04622 722.525,773.93121 C 723.64607,773.66458 723.80968,773.32523 723.66425,772.29505 C 724.6823,771.31336 725.5428,769.92565 726.46996,768.32585 L 726.57903,766.83513 L 726.71235,766.28974 z"
         id="path3057"
         style="fill:#9e0c47;fill-opacity:1;fill-rule:nonzero;stroke:none" />
      <path
         d="M 737.59281,773.32159 L 736.64141,774.30328 L 736.28388,774.28511 C 735.09615,775.02441 733.98114,775.06077 733.2782,775.16378 C 730.53915,775.54555 727.70314,773.41249 726.91536,768.29192 C 727.60012,767.55262 728.00007,766.84967 728.23035,765.95888 L 728.53334,765.55893 C 729.9877,762.63202 731.06636,760.62015 731.32693,759.43242 C 731.21785,758.66282 731.44207,758.20227 732.09653,757.74778 L 732.3874,756.77821 L 732.6298,756.45704 C 732.88431,755.70562 733.0661,754.96025 733.3085,754.14218 L 733.26608,753.85736 L 733.64179,752.94839 C 733.91448,752.33634 734.23566,751.5728 734.55077,750.7426 L 734.49017,750.31841 C 734.67196,749.57911 734.89618,748.6156 735.09615,747.5127 L 735.07797,746.36739 L 735.44156,745.88866 C 736.58688,741.78615 736.56264,739.06528 736.48992,738.57443 L 736.21116,737.61091 L 736.4475,736.72012 C 736.35054,736.01717 736.33236,735.37483 736.24752,734.81126 C 735.93241,732.56306 735.38703,731.70862 733.4297,731.55713 L 732.49648,731.54501 C 731.09059,731.73892 727.60012,736.45954 724.81865,745.73111 L 724.85501,746.01592 C 724.93379,746.57949 724.83683,746.87642 724.32175,747.30667 C 724.00057,748.07021 723.82484,748.88223 723.65516,749.69425 L 723.69152,749.973 L 723.44913,750.79714 C 722.18868,756.06315 721.53422,761.09888 721.74025,766.15279 L 722.15232,767.02541 L 721.75843,767.80107 L 722.05536,768.40099 L 721.39484,769.28573 L 721.03125,769.76446 C 720.4495,770.20683 720.39497,770.85523 719.8617,771.1461 L 719.62537,771.46728 L 718.72851,772.23688 L 718.46793,772.92164 C 717.81347,773.37007 717.44988,773.8488 717.32868,774.50932 L 716.59544,774.90321 L 716.5409,775.55161 C 716.05006,776.1273 715.63799,776.75752 715.30469,777.44834 L 715.45619,777.99979 L 714.65023,778.90271 L 714.57751,779.41174 C 714.62599,779.76321 715.01988,779.99348 715.57739,779.9147 L 715.72282,779.89652 L 716.79542,778.88453 L 717.37716,778.44822 C 717.78923,777.81194 718.30432,777.38169 719.05574,777.13323 C 719.44963,776.36363 719.94654,775.79401 720.74644,775.39406 L 721.03125,774.85473 L 721.29788,774.73959 C 721.54028,774.41842 721.97659,773.93363 722.45531,773.29129 L 722.54015,772.84892 L 722.74013,772.249 C 722.94616,773.72154 723.33399,774.95775 723.84908,776.03034 L 724.52778,776.79388 L 724.53384,777.36957 C 726.04274,779.95106 728.89087,781.33877 730.50885,781.11455 L 731.10877,780.81156 L 731.64204,781.02365 L 732.51466,781.12061 C 734.27201,780.87216 735.78698,779.93894 737.44737,778.49064 L 738.42301,777.78164 L 739.5562,776.69086 C 739.6168,776.10912 739.81071,775.93944 740.36216,775.78795 L 740.53184,775.47889 L 741.0348,774.97593 L 742.08922,773.35795 C 742.45887,772.95194 738.41695,772.06114 737.59281,773.32159 z M 732.58132,742.85268 C 732.73887,743.97375 732.37528,745.96138 731.79354,748.97919 L 731.92079,749.39126 C 731.44813,750.10632 731.24815,750.70624 731.33905,751.33647 L 731.03606,751.73642 L 730.56339,752.94839 L 730.61187,753.29986 L 730.22404,754.64514 C 729.38778,756.83881 728.6303,758.59616 727.96371,759.97781 L 727.99401,760.1899 L 727.46075,760.97768 L 726.89718,762.06239 L 726.37603,762.92289 C 726.14576,760.80801 726.39421,758.97793 727.12746,757.08726 L 727.0002,756.67519 L 727.35167,755.62078 C 727.60012,753.79676 728.57576,751.57886 729.50897,748.51258 L 729.47868,748.30048 L 729.90286,747.24001 C 730.25434,746.68856 730.47249,746.22802 730.66641,745.55537 L 730.66641,745.05241 L 730.9694,744.65246 C 731.47237,743.65258 731.78748,742.82238 732.13895,742.27094 L 732.39952,742.08914 L 732.58132,742.85268 z"
         id="path3061"
         style="fill:#9e0c47;fill-opacity:1;fill-rule:nonzero;stroke:none" />
      <path
         d="M 632.04301,705.30769 C 631.92181,704.42295 629.69179,703.9321 627.33451,704.25934 L 626.32857,704.55021 C 622.29272,705.71976 616.44497,708.9436 608.59746,713.94297 L 608.0036,715.07616 L 606.59771,715.72457 C 604.31921,717.69402 601.50138,720.04524 598.3442,723.18424 L 598.15029,723.96596 C 596.76258,724.7598 595.81725,725.49304 595.24762,726.77167 C 592.26012,728.98957 590.06645,732.60124 587.80613,737.86725 L 587.59404,739.55188 L 586.22451,741.53951 C 585.8791,743.38777 585.37613,745.10876 584.90952,747.12669 L 585.30341,748.87193 C 584.96406,749.67183 584.8974,750.27781 584.98224,750.86562 C 585.33371,753.36833 586.71536,756.77397 589.22413,760.77347 C 589.83618,760.83406 590.02403,761.10676 590.08463,761.54913 L 590.16947,762.13693 L 591.72079,763.57312 L 592.81156,763.87005 L 595.05371,767.00299 C 597.06558,768.51795 599.2653,770.31166 601.67712,772.52351 L 602.59822,772.69318 L 604.82218,774.63234 L 606.08263,775.05046 L 606.67043,776.02004 C 615.81474,783.43729 621.45646,787.29135 622.1594,792.29679 C 622.23818,792.88459 622.3412,793.61783 622.32302,794.52075 C 621.2686,795.56912 620.04451,796.49022 618.80831,797.26582 C 618.57197,797.75062 616.91157,800.16242 615.8814,800.30792 C 615.43903,800.36852 613.19083,804.03472 611.56073,805.07092 L 603.09512,809.95522 L 598.21089,812.02762 C 595.10219,812.91242 595.54455,812.76692 592.55705,813.95472 L 590.77546,817.70572 C 590.56336,818.33592 590.52094,819.09342 590.64214,819.97812 L 590.97543,821.28102 L 591.92077,822.64452 C 595.2961,824.27462 597.94425,824.95332 600.15004,824.63822 L 600.59241,824.57762 L 601.20445,824.64422 C 602.73759,823.82612 604.31315,823.30502 606.05839,822.91112 L 606.71285,822.22032 L 607.55517,821.80222 L 608.18539,820.95982 C 609.99123,819.95392 611.78494,818.80252 613.48776,817.06342 L 613.80287,817.17242 C 616.4995,814.99092 619.0204,812.68822 621.40192,810.40362 L 622.41391,809.05832 L 623.52893,808.45232 C 626.35281,805.05882 628.86159,801.55622 631.38855,798.19912 L 631.89151,797.52642 L 635.72134,794.8904 C 637.26054,794.07232 637.89076,793.23606 637.83016,791.74534 C 637.53929,790.73335 637.30902,790.16372 637.29084,790.01829 L 637.12116,788.84268 C 636.89089,788.27305 636.38792,787.89734 635.95161,787.95794 L 635.40016,788.33365 L 633.99428,788.98205 C 633.89126,787.1944 633.70341,785.87335 633.58221,784.98861 C 633.1459,781.89809 632.18845,779.33478 630.15234,776.61997 C 629.01915,776.03216 628.18289,775.39588 627.5769,774.28086 C 616.14803,764.48815 609.20951,757.8102 606.30078,754.17429 C 604.76764,753.93796 603.86472,752.86537 603.73747,751.98063 L 603.59809,750.95046 L 602.78001,749.41731 C 601.14385,747.39333 600.30759,745.71475 600.08338,744.09677 C 599.50163,739.97607 601.25899,735.37665 605.4524,729.98945 L 605.89477,728.87443 L 606.88253,728.43813 C 609.53674,724.91129 611.76676,722.65097 613.76651,721.91773 C 618.65075,717.30619 627.44359,713.30063 627.17089,712.44013 L 628.74039,710.34948 L 630.1281,710.00407 L 631.21281,708.36791 L 632.04301,705.30769 z"
         id="path3065"
         style="fill:#9e0c47;fill-opacity:1;fill-rule:nonzero;stroke:none" />
      <path
         d="M 702.60325,734.8555 C 700.82166,729.85007 699.79148,724.46286 699.79148,718.84539 C 699.79148,692.46081 721.17668,671.07562 747.56125,671.07562 C 773.94582,671.07562 795.33103,692.46081 795.33103,718.84539 C 795.33103,740.03667 780.73285,761.05222 761.12319,766.38488 L 762.85024,761.31279 C 779.47846,754.53788 791.25273,738.25508 791.25273,719.1908 C 791.25273,694.06061 770.8856,673.69347 745.76148,673.69347 C 720.63129,673.69347 700.26415,694.06061 700.26415,719.1908 C 700.26415,724.69314 701.03981,730.0561 702.83352,734.94034 L 702.60325,734.8555 z"
         id="path3069"
         style="fill:#9e0c47;fill-opacity:1;fill-rule:nonzero;stroke:none" />
      <path
         d="M 731.90564,707.97887 L 731.90564,713.05702 L 727.89402,713.05702 L 727.89402,720.45609 C 727.89402,721.98924 728.36063,722.54068 729.69986,722.54068 C 730.33008,722.54068 731.00272,722.41948 731.90564,722.18921 L 731.90564,727.77639 C 730.01497,728.0915 729.38474,728.17028 727.34258,728.20664 C 725.01559,728.20664 723.79757,727.93395 722.69467,727.18252 C 721.00398,726.00691 720.29497,724.38893 720.33739,721.71654 L 720.33739,719.3532 L 720.33739,713.05702 L 717.34383,713.05702 L 717.34383,707.97887 L 720.33133,707.97887 L 720.33133,701.33122 L 727.88796,701.33122 L 727.89402,707.97887 L 731.90564,707.97887 z"
         id="path3073"
         style="fill:#9e0c47;fill-opacity:1;fill-rule:nonzero;stroke:none" />
      <path
         d="M 754.28162,707.97887 L 746.92497,727.9703 L 741.09539,727.9703 L 733.61754,707.97887 L 741.68926,707.97887 L 744.51921,716.43842 L 744.81008,717.39587 L 745.11307,718.52906 C 745.36759,717.9049 745.70088,716.87473 745.70088,716.87473 L 748.65202,707.97887 L 754.28162,707.97887 z"
         id="path3077"
         style="fill:#9e0c47;fill-opacity:1;fill-rule:nonzero;stroke:none" />
      <path
         d="M 775.44988,727.97212 L 767.57814,727.97212 L 767.57814,715.37976 C 767.57814,713.64665 767.14789,712.93764 765.9238,712.93764 C 764.46944,712.93764 763.76044,713.91934 763.76044,715.96757 L 763.76044,727.97212 L 755.93111,727.97212 L 755.93111,707.98069 L 763.20899,707.98069 L 763.20899,710.81064 C 763.80286,709.70775 764.2331,709.19872 764.94211,708.68969 C 765.88744,708.01705 767.49936,707.5868 769.07492,707.5868 C 770.92317,707.5868 772.73507,708.21702 773.83796,709.2775 C 775.13477,710.49553 775.44988,711.64084 775.44988,715.17979 L 775.44988,727.97212 z"
         id="path3081"
         style="fill:#9e0c47;fill-opacity:1;fill-rule:nonzero;stroke:none" />
      <path
         d="M 769.74575,758.85492 L 764.61912,760.46078 C 762.44969,761.63033 760.40753,762.20601 758.87439,762.53325 C 756.38379,763.06651 753.63262,762.58172 752.37217,761.63639 L 751.71165,761.15766 L 751.05718,760.72135 C 750.43908,760.06689 750.48756,759.60634 750.34212,759.18215 L 750.47544,758.661 L 750.75419,757.85504 L 751.68135,756.66731 L 751.74801,756.17041 L 752.31157,755.74016 C 753.75382,753.51013 754.88701,751.54068 755.62025,749.55305 L 755.68691,749.05615 C 756.15351,748.11081 756.49893,747.28061 756.65042,746.35952 L 756.52922,745.53538 L 756.77768,744.6567 L 756.74132,743.6447 L 756.5474,742.8448 L 756.16563,742.42667 L 756.04444,741.83281 C 755.97172,741.62072 755.63237,741.10563 755.08698,740.42693 L 754.85065,740.43299 L 754.13559,739.96638 L 752.5782,740.02698 L 752.25097,739.98456 L 751.23898,740.25725 C 749.89975,740.7178 748.98472,741.50558 748.12422,742.9054 L 748.08786,743.46897 L 747.75457,743.66288 L 747.57277,744.04465 L 747.2213,744.16585 C 745.85178,746.60797 744.60345,748.92889 744.16108,751.7649 L 744.44589,752.14061 L 744.04594,752.58904 C 743.73083,753.72829 743.76719,754.97662 743.9914,756.55218 L 743.97928,757.19452 L 744.2641,757.56417 L 744.13078,758.32165 L 744.22774,758.60646 L 744.16108,759.33365 L 744.1126,760.15173 L 743.73083,761.40005 L 743.13696,763.91489 C 742.72489,765.58135 742.34918,765.97524 741.97953,766.67818 C 741.97953,766.67818 739.84041,769.15666 739.9616,769.74446 L 737.49525,773.28947 C 738.34363,772.99254 741.43415,773.92576 741.43415,773.92576 C 741.27659,773.87122 742.53098,772.8774 744.2035,769.75052 L 745.24579,766.20551 L 745.76694,763.69068 L 745.95479,764.08457 L 747.01527,765.26018 C 747.46975,765.8904 748.56053,766.04796 748.8514,766.65394 L 749.5907,767.05995 L 750.77843,767.27811 L 752.08736,767.43566 L 753.36598,767.37506 C 754.38404,767.48414 753.91137,767.74471 755.75356,767.52656 L 757.23823,767.3084 L 760.72264,766.52062 L 764.5161,765.30866 L 768.90949,763.25437 C 770.10934,762.8423 769.74575,758.85492 769.74575,758.85492 z M 753.79017,747.0867 L 753.35993,747.826 L 752.36611,749.49852 L 752.00252,750.24388 L 751.87526,750.9953 L 751.76619,751.20739 L 751.67529,751.37707 L 751.41471,751.60734 L 750.86933,751.84368 L 750.37848,752.27393 L 750.00883,752.09819 C 749.87551,751.71036 749.85733,751.13467 749.99065,750.36507 L 750.56634,748.33502 L 751.40259,746.61403 L 752.34187,744.94151 L 752.81454,744.35371 L 752.99633,744.29311 L 753.44476,744.38401 L 753.56596,744.60216 L 753.67504,744.91727 C 753.86895,745.47478 753.83865,745.88079 753.79623,746.2262 L 753.7417,746.68069 L 753.79017,747.0867 z"
         id="path3085"
         style="fill:#9e0c47;fill-opacity:1;fill-rule:nonzero;stroke:none" />
    </g>
  </g>
</svg>
