<?xml version="1.0" encoding="UTF-8" standalone="no"?>
<!-- Created with Inkscape (http://www.inkscape.org/) -->
<svg
   xmlns:svg="http://www.w3.org/2000/svg"
   xmlns="http://www.w3.org/2000/svg"
   version="1.0"
   width="956.69287"
   height="919.84247"
   id="svg2">
  <defs
     id="defs4" />
  <g
     transform="translate(-223.3846,-140.95366)"
     id="layer1">
    <g
       transform="translate(35.433037,35.40569)"
       id="g2554">
      <path
         d="M 1035.3442,596.43776 L 978.67342,596.43776 L 1048.2028,534.68554 L 1035.3442,596.43776 z M 1080.9225,596.43776 L 1101.0934,500.07578 L 1037.3892,500.07578 L 930.80223,594.64066 L 925.34896,621.22543 L 829.82352,621.22543 C 857.52376,592.53371 954.75334,607.93302 967.05417,548.87648 C 974.45951,513.80193 945.51991,496.38862 894.45733,496.38862 C 844.88205,496.38862 805.22182,510.57955 792.45616,556.56064 L 846.92703,556.56064 C 852.1634,538.49664 868.12045,531.12228 886.92809,531.12228 C 906.88215,531.33918 914.87616,538.24876 912.8002,548.1948 C 911.22,555.90995 903.00908,561.48716 893.52782,564.05889 L 854.45626,574.56267 C 827.96445,581.65811 804.54014,591.79006 787.74649,611.83707 C 789.2028,600.46576 790.03936,588.90853 790.03936,577.1344 C 790.03936,427.94367 670.19103,307.01091 519.97789,307.01091 C 454.01176,307.01091 393.87068,330.34232 347.17698,369.13501 C 359.01308,354.69619 371.71671,340.6292 385.31898,326.99595 C 559.91698,151.99514 811.35677,115.37137 947.00716,245.13475 C 1002.0667,297.96344 1029.643,370.18846 1031.0063,449.16812 L 1088.9165,449.16812 C 1087.5532,364.05351 1058.2418,285.87946 998.96831,228.06223 C 853.06197,85.781129 581.23439,121.5373 391.8257,308.00244 C 278.85597,419.1131 221.06977,558.57464 223.45559,683.41145 L 231.23271,681.52139 C 229.52857,635.60228 236.71697,587.32833 252.4881,539.17827 C 250.75297,551.5721 249.79248,564.2448 249.79248,577.1344 C 249.79248,726.2941 369.76469,847.22685 519.97789,847.22685 C 642.61479,847.22685 744.95679,766.60502 778.42016,655.8352 L 942.79325,655.8352 L 948.24657,629.71521 L 1028.3726,629.71521 L 1022.9194,655.8352 L 1068.4976,655.8352 L 1073.9819,629.71521 L 1102.2398,629.71521 L 1109.2114,596.43776 L 1080.9225,596.43776 z"
         id="path2551"
         style="fill:#0c53c0;fill-opacity:1;fill-rule:nonzero;stroke:none" />
      <path
         d="M 779.90121,875.271 L 801.90025,914.59044 C 836.91283,893.79978 870.74796,869.01211 902.44516,839.97955 L 868.57904,804.8121 C 840.53801,831.83066 810.79284,855.28596 779.90121,875.271 z"
         id="path2937"
         style="fill:#0c53c0;fill-opacity:1;fill-rule:nonzero;stroke:none" />
      <path
         d="M 653.27656,935.34699 L 657.14963,975.10018 C 693.9593,965.71187 730.89292,952.10966 767.02092,933.79778 L 749.01889,893.92065 C 717.66248,911.33396 685.53149,925.06011 653.27656,935.34699 z"
         id="path2941"
         style="fill:#0c53c0;fill-opacity:1;fill-rule:nonzero;stroke:none" />
      <path
         d="M 524.25995,956.22749 L 519.14752,989.28804 C 553.32349,991.30204 588.89376,988.9472 624.68092,982.25452 L 623.19367,943.70972 C 589.79233,951.9826 556.63882,956.10355 524.25995,956.22749 z"
         id="path2945"
         style="fill:#0c53c0;fill-opacity:1;fill-rule:nonzero;stroke:none" />
      <path
         d="M 398.19922,960.58078 C 426.79798,973.31545 457.68961,982.02208 489.94454,986.39091 L 498.27935,955.56125 C 467.60467,953.42337 438.20029,947.28842 410.62404,937.34238 L 398.19922,960.58078 z"
         id="path2949"
         style="fill:#0c53c0;fill-opacity:1;fill-rule:nonzero;stroke:none" />
      <path
         d="M 247.86213,806.25599 C 258.67576,832.37597 273.05261,856.94674 291.05464,879.06972 L 303.94418,867.66742 C 285.01265,847.2176 269.86117,824.35097 258.33492,799.56331 L 247.86213,806.25599 z"
         id="path2953"
         style="fill:#0c53c0;fill-opacity:1;fill-rule:nonzero;stroke:none" />
      <path
         d="M 223.92037,700.73185 C 225.8724,730.75589 231.44961,759.81943 240.68304,787.27173 L 250.93894,782.12832 C 240.80698,755.66749 234.64105,727.40957 232.13129,698.06716 L 223.92037,700.73185 z"
         id="path2957"
         style="fill:#0c53c0;fill-opacity:1;fill-rule:nonzero;stroke:none" />
      <path
         d="M 307.35559,897.26692 L 312.9328,903.18497 C 331.86439,921.49685 352.84091,936.8032 375.39768,949.19704 L 388.0394,928.18953 C 363.43764,916.91112 340.75693,902.06955 320.33815,883.75766 L 307.35559,897.26692 z"
         id="path2961"
         style="fill:#0c53c0;fill-opacity:1;fill-rule:nonzero;stroke:none" />
      <path
         d="M 719.2706,658.87166 L 659.78026,658.87166 L 659.78026,565.73205 C 659.78026,556.46768 659.78026,543.51611 646.89066,543.51611 C 630.37588,543.51611 628.88864,557.67606 628.88864,570.31778 L 628.88864,658.87166 L 569.52219,658.87166 L 569.52219,519.71998 L 518.55261,658.87166 L 473.53202,658.87166 L 430.8043,544.41469 L 390.33845,544.41469 L 390.33845,597.33634 C 390.33845,608.3978 388.72726,616.32985 402.85623,616.32985 L 422.68634,616.32985 L 422.68634,662.00113 L 385.19504,661.87719 C 362.9791,662.21798 354.08651,658.87166 342.34337,646.22994 C 330.60023,633.61926 330.94107,618.90158 330.94107,602.35581 L 330.94107,544.41469 L 308.72513,544.41469 L 308.72513,505.43609 L 333.69866,505.43609 L 334.13246,455.51997 L 389.74973,455.51997 L 389.74973,505.43609 L 478.33465,505.43609 L 504.76444,586.49172 L 531.783,505.43609 L 625.5733,505.43609 L 625.5733,526.97034 L 626.13099,526.97034 C 633.44338,509.68098 651.10457,502.39963 669.69532,502.39963 C 684.16512,502.39963 700.67985,506.64447 709.57244,518.26372 C 719.2706,530.90538 719.2706,548.31874 719.2706,564.27579 L 719.2706,658.87166 z"
         id="path2536"
         style="fill:#ffffff;fill-opacity:1;fill-rule:nonzero;stroke:none" />
      <path
         d="M 894.1103,778.56506 L 931.84949,810.94393 C 967.6367,773.76243 997.84665,733.91629 1021.5498,692.45896 L 959.30185,692.45896 C 941.08292,722.29709 919.20782,751.11275 894.1103,778.56506 z"
         id="path2969"
         style="fill:#0c53c0;fill-opacity:1;fill-rule:nonzero;stroke:none" />
    </g>
  </g>
</svg>
