<?xml version="1.0" encoding="UTF-8" standalone="no"?>
<!-- Created with Inkscape (http://www.inkscape.org/) -->
<svg
   xmlns:svg="http://www.w3.org/2000/svg"
   xmlns="http://www.w3.org/2000/svg"
   version="1.0"
   width="956.69287"
   height="632.83466"
   id="svg2">
  <defs
     id="defs4" />
  <g
     transform="translate(-1068.152,-56.905536)"
     id="layer1">
    <g
       transform="matrix(4.0503291,0,0,4.0503291,-3222.7822,-1852.4378)"
       id="g3208">
      <path
         d="M 1158.1227,549.58988 C 1158.0803,528.56221 1167.473,509.64943 1182.2954,496.89345 C 1170.1636,486.54324 1154.4323,480.29554 1137.3011,480.33795 C 1099.124,480.41673 1068.0673,511.61282 1068.1522,549.78985 C 1068.237,587.93659 1099.4331,618.98724 1137.6101,618.9024 C 1154.7413,618.86605 1170.4424,612.55169 1182.5318,602.14693 C 1167.6488,589.45761 1158.1712,570.59937 1158.1227,549.58988 z"
         id="path2973"
         style="fill:#0e5cc6;fill-opacity:1;fill-rule:nonzero;stroke:none" />
      <path
         d="M 1160.1449,549.58988 C 1160.0661,512.35818 1189.5655,481.77414 1226.4457,480.19858 C 1225.5064,480.16828 1224.5671,480.14404 1223.6218,480.1501 C 1185.4811,480.23494 1154.4305,511.42497 1154.5092,549.602 C 1154.6001,587.74873 1185.7841,618.80545 1223.9369,618.71455 C 1224.8701,618.71455 1225.8155,618.69031 1226.7547,618.64183 C 1189.8684,617.24201 1160.2297,586.79128 1160.1449,549.58988 z"
         id="path2977"
         style="fill:#f96619;fill-opacity:1;fill-rule:nonzero;stroke:none" />
      <path
         d="M 1079.0502,541.75389 L 1082.474,541.74783 L 1082.4619,534.59115 L 1091.4608,534.57297 L 1091.479,541.72359 L 1095.7936,541.71753 L 1095.8057,547.02596 L 1091.4911,547.03202 L 1091.5093,555.54004 C 1091.5153,556.79443 1091.7456,557.55191 1092.2728,557.81248 C 1092.7636,558.07912 1093.9574,558.20637 1095.7996,558.20637 L 1095.8118,564.69647 L 1090.7336,564.9025 C 1087.2734,564.91462 1085.001,564.42378 1083.9405,563.47238 C 1082.8861,562.47857 1082.3225,560.3455 1082.3165,557.00652 L 1082.2922,547.05626 L 1079.0623,547.06232 L 1079.0502,541.75389 z"
         id="path2981"
         style="fill:#ffffff;fill-opacity:1;fill-rule:nonzero;stroke:none" />
      <path
         d="M 1096.8522,541.71389 L 1106.0147,541.68965 L 1110.1051,556.19086 L 1114.0622,541.67753 L 1122.8308,541.65935 L 1115.0681,564.65647 L 1104.8512,564.67465 L 1096.8522,541.71389 z"
         id="path3031"
         style="fill:#ffffff;fill-opacity:1;fill-rule:nonzero;stroke:none" />
      <path
         d="M 1123.9191,541.65572 L 1132.1969,541.63148 L 1132.1969,545.29163 C 1133.324,543.74637 1134.5057,542.65559 1135.7904,541.98901 C 1137.0387,541.32849 1138.4567,540.9952 1140.008,540.98914 C 1142.6804,540.98308 1144.7589,541.6739 1146.2436,543.0919 C 1148.0252,544.72806 1148.9221,547.3035 1148.9281,550.76367 L 1148.9584,564.58012 L 1139.7899,564.5983 L 1139.7656,552.36347 C 1139.7596,550.94546 1139.5293,549.89711 1139.0385,549.20629 C 1138.5719,548.54577 1137.7477,548.18217 1136.6266,548.18217 C 1135.4086,548.18823 1134.5542,548.49123 1134.0209,549.08509 C 1133.3664,549.80621 1133.0029,551.09696 1133.0089,552.8725 L 1133.0331,564.61042 L 1123.9676,564.63466 L 1123.9191,541.65572 z"
         id="path3033"
         style="fill:#ffffff;fill-opacity:1;fill-rule:nonzero;stroke:none" />
      <path
         d="M 1192.6572,564.68192 L 1192.6208,550.33826 C 1192.6208,547.30834 1191.2634,545.82974 1188.5607,545.8358 C 1187.7669,545.8358 1186.9731,546.06607 1186.2519,546.52662 C 1185.4945,546.99323 1184.9673,547.55679 1184.6764,548.15066 L 1184.7127,564.7001 L 1179.368,564.71222 L 1179.3316,549.54442 C 1179.3316,548.39305 1178.968,547.50226 1178.2711,546.84779 C 1177.6106,546.18727 1176.6228,545.86004 1175.3442,545.86004 C 1174.6776,545.8661 1173.9565,546.09637 1173.1627,546.62358 C 1172.3385,547.12048 1171.781,547.65375 1171.4235,548.24762 L 1171.4538,564.7304 L 1166.109,564.74252 L 1166.0605,541.83024 L 1169.757,541.81812 L 1170.8478,543.82999 C 1172.3325,542.20595 1174.2413,541.38181 1176.6107,541.37575 C 1179.6164,541.36969 1181.8889,542.18777 1183.4462,543.82999 C 1184.1068,543.07251 1185.0582,542.47864 1186.2398,542.01203 C 1187.4639,541.58179 1188.6516,541.34545 1189.8333,541.34545 C 1192.4027,541.33939 1194.3903,542.06051 1195.8083,543.53912 C 1197.2627,544.98742 1197.9535,546.99929 1197.9596,549.56866 L 1197.9959,564.6698 L 1192.6572,564.68192 z"
         id="path3035"
         style="fill:#00a000;fill-opacity:1;fill-rule:nonzero;stroke:none" />
      <path
         d="M 1222.931,554.78862 L 1206.5512,554.82498 C 1206.6543,556.64293 1207.2784,558.05488 1208.4358,559.07899 C 1209.5933,560.09705 1211.1446,560.58789 1213.0898,560.58183 C 1215.5622,560.57577 1217.4105,559.94555 1218.6588,558.66086 L 1220.7434,562.73914 C 1218.8709,564.29046 1216.0652,565.06006 1212.302,565.06612 C 1208.8176,565.07218 1206.0361,564.06019 1204.0243,562.01802 C 1201.9761,559.97585 1200.9459,557.1156 1200.9398,553.41909 C 1200.9338,549.86196 1202.0427,546.92294 1204.2849,544.67474 C 1206.5209,542.43259 1209.1873,541.30546 1212.3202,541.29334 C 1215.6471,541.28728 1218.3195,542.27504 1220.3434,544.25055 C 1222.3493,546.22 1223.3491,548.75301 1223.3552,551.789 C 1223.3552,552.44952 1223.2279,553.43727 1222.931,554.78862 z M 1206.6967,550.8073 L 1217.9801,550.777 C 1217.6105,547.45015 1215.7561,545.77763 1212.399,545.78369 C 1209.363,545.78975 1207.4542,547.47439 1206.6967,550.8073 z"
         id="path3037"
         style="fill:#00a000;fill-opacity:1;fill-rule:nonzero;stroke:none" />
      <path
         d="M 1227.1316,546.01457 L 1224.4653,546.01457 L 1224.4531,541.69996 L 1227.1255,541.6939 L 1227.1134,537.00964 L 1232.4461,535.02201 L 1232.4643,541.67572 L 1238.7665,541.6636 L 1238.7726,545.98427 L 1232.4764,546.00245 L 1232.4946,555.98908 C 1232.5006,557.63736 1232.7673,558.79479 1233.2945,559.48561 C 1233.7914,560.14007 1234.7185,560.50366 1236.0032,560.4976 C 1237.2879,560.49154 1238.4756,560.12795 1239.5967,559.43713 L 1239.6028,564.34561 C 1238.3544,564.78191 1236.5668,565.01219 1234.3004,565.01825 C 1231.9855,565.02431 1230.2403,564.36985 1229.0102,563.08516 C 1227.7618,561.80047 1227.168,559.96434 1227.1619,557.58282 L 1227.1316,546.01457 z"
         id="path3039"
         style="fill:#00a000;fill-opacity:1;fill-rule:nonzero;stroke:none" />
      <path
         d="M 1262.8902,554.70257 L 1246.5044,554.73893 C 1246.6074,556.55082 1247.2437,557.96277 1248.395,558.99294 C 1249.5525,560.00494 1251.1038,560.49578 1253.0793,560.48972 C 1255.5214,560.48972 1257.3697,559.8595 1258.6483,558.56875 L 1260.7329,562.65309 C 1258.8604,564.21047 1256.0244,564.97401 1252.3036,564.98007 C 1248.8011,564.98613 1246.0317,563.97414 1243.9835,561.93197 C 1241.9353,559.8898 1240.9051,557.02349 1240.899,553.32698 C 1240.8869,549.76985 1242.008,546.83689 1244.238,544.58869 C 1246.4801,542.34048 1249.1465,541.21335 1252.2855,541.20729 C 1255.6063,541.20123 1258.2787,542.18293 1260.2966,544.15844 C 1262.3085,546.13395 1263.3386,548.66696 1263.3507,551.70295 C 1263.3507,552.36347 1263.1871,553.34516 1262.8902,554.70257 z M 1246.6922,550.71519 L 1257.9332,550.69095 C 1257.5697,547.3641 1255.7214,545.68552 1252.3885,545.69158 C 1249.3222,545.69764 1247.4134,547.38228 1246.6922,550.71519 z"
         id="path3041"
         style="fill:#00a000;fill-opacity:1;fill-rule:nonzero;stroke:none" />
      <path
         d="M 1264.799,552.98218 C 1264.7929,549.52201 1265.8049,546.686 1267.8168,544.4681 C 1269.8226,542.25625 1272.4889,541.16548 1275.8158,541.15336 C 1279.282,541.1473 1281.9787,542.19565 1283.936,544.30448 C 1285.8509,546.40725 1286.8508,549.30385 1286.8568,552.9337 C 1286.869,556.59385 1285.8873,559.49651 1283.9118,561.67806 C 1281.9665,563.82325 1279.2639,564.92008 1275.8703,564.92614 C 1272.3738,564.9322 1269.6711,563.84748 1267.7259,561.67806 C 1265.7686,559.50863 1264.8051,556.60597 1264.799,552.98218 z M 1270.3741,552.97006 C 1270.3862,558.04821 1272.2041,560.55093 1275.8643,560.54487 C 1277.5065,560.53881 1278.8336,559.87223 1279.8153,558.55118 C 1280.797,557.26043 1281.2878,555.38794 1281.2818,552.94582 C 1281.2697,548.00099 1279.4517,545.49827 1275.8219,545.50433 C 1274.1493,545.51039 1272.8404,546.17697 1271.8405,547.49196 C 1270.8588,548.81301 1270.368,550.66126 1270.3741,552.97006 z"
         id="path3043"
         style="fill:#00a000;fill-opacity:1;fill-rule:nonzero;stroke:none" />
    </g>
  </g>
</svg>
