<?xml version="1.0" encoding="UTF-8" standalone="no"?>
<!-- Created with Inkscape (http://www.inkscape.org/) -->

<svg
   xmlns:dc="http://purl.org/dc/elements/1.1/"
   xmlns:cc="http://creativecommons.org/ns#"
   xmlns:rdf="http://www.w3.org/1999/02/22-rdf-syntax-ns#"
   xmlns:svg="http://www.w3.org/2000/svg"
   xmlns="http://www.w3.org/2000/svg"
   xmlns:inkscape="http://www.inkscape.org/namespaces/inkscape"
   version="1.0"
   width="223"
   height="86"
   id="svg2">
  <metadata
     id="metadata11">
    <rdf:RDF>
      <cc:Work
         rdf:about="">
        <dc:format>image/svg+xml</dc:format>
        <dc:type
           rdf:resource="http://purl.org/dc/dcmitype/StillImage" />
      </cc:Work>
    </rdf:RDF>
  </metadata>
  <defs
     id="defs9" />
  <g
     transform="translate(-8.6388887,-958.1443)"
     id="layer1">
    <g
       transform="matrix(0,-11.850954,-11.850954,0,6592.0216,4955.8598)"
       id="g20690">
      <g
         transform="translate(332.7158,540.3611)"
         id="g20692">
        <path
           d="m 0,0 c 0.924,0 1.236,-1.533 0.255,-1.601 l -2.921,0 0,-2.071 2.824,0 c 0.221,0 0.471,-0.005 0.933,0.096 2.11,0.461 2.004,3.059 0.688,3.957 1.202,0.723 1.183,2.439 0.392,3.395 l 0.59,0 0,1.904 -3.563,0 0,0.628 c 0,0.567 0.336,0.939 1.029,0.939 l 0.668,0 0,-0.977 1.866,0 0,0.977 1.856,0 -1.856,0.973 0,2.243 -2.808,1.37 2.808,1.087 0,2.235 -5.427,-2.52 0,-1.668 3.454,-1.794 -0.763,0 c -1.562,0 -2.691,-0.929 -2.691,-2.616 l 0,-2.777 2.666,0 c 0.945,0 1.251,-1.695 0.187,-1.695 l -2.852,0 L -2.665,0 0,0 z"
           inkscape:connector-curvature="0"
           id="path20694"
           style="fill:#f58228;fill-rule:nonzero;stroke:none" />
      </g>
    </g>
  </g>
</svg>
