<?xml version="1.0" encoding="UTF-8" standalone="no"?>
<!-- Created with Inkscape (http://www.inkscape.org/) -->

<svg
   xmlns:dc="http://purl.org/dc/elements/1.1/"
   xmlns:cc="http://creativecommons.org/ns#"
   xmlns:rdf="http://www.w3.org/1999/02/22-rdf-syntax-ns#"
   xmlns:svg="http://www.w3.org/2000/svg"
   xmlns="http://www.w3.org/2000/svg"
   xmlns:inkscape="http://www.inkscape.org/namespaces/inkscape"
   version="1.0"
   width="1024"
   height="591"
   viewBox="-3.2186157 -3.2186157 197.18956 113.72442"
   id="svg2477">
  <metadata
     id="metadata12">
    <rdf:RDF>
      <cc:Work
         rdf:about="">
        <dc:format>image/svg+xml</dc:format>
        <dc:type
           rdf:resource="http://purl.org/dc/dcmitype/StillImage" />
      </cc:Work>
    </rdf:RDF>
  </metadata>
  <defs
     id="defs2479" />
  <path
     d="m 101.26286,107.28719 -0.6288,-106.85546 -21.044462,30.535872 0.800166,67.53441 20.873096,8.785178 z"
     inkscape:connector-curvature="0"
     id="path2494"
     style="fill:#71b9e3;fill-opacity:1;fill-rule:evenodd;stroke:none" />
  <path
     d="m 100.625,0.4375 -83.53125,7.71875 0.53125,89.8125 83.625,9.3125 -0.28125,-50.25 -7.5625,0 0,35.40625 -9.5,0 0,-52.125 9.5,0 0,5.0625 c 1.954323,2.265619 4.209193,4.527724 7.5,3.84375 L 100.625,0.4375 z"
     inkscape:connector-curvature="0"
     id="path4465"
     style="fill:#d30069;fill-opacity:1;fill-rule:evenodd;stroke:#000000;stroke-width:0;stroke-linecap:butt;stroke-linejoin:miter;stroke-miterlimit:4;stroke-opacity:1;stroke-dasharray:none" />
  <path
     d="m 106.84752,0 0,106.84752 83.90482,-8.52157 0,-89.80437 L 106.84752,0 z"
     inkscape:connector-curvature="0"
     id="path3944"
     style="fill:#e8b130;fill-opacity:1;fill-rule:evenodd;stroke:#000000;stroke-width:0;stroke-linecap:butt;stroke-linejoin:miter;stroke-miterlimit:4;stroke-opacity:1;stroke-dasharray:none" />
  <path
     d="m 0,7.21057 c 2.08806,4.63434 2.93839,7.44068 3.01846,10.71843 0.52127,21.66669 20.12392,14.01177 30.41236,26.64542 l 0,0 C 31.73145,8.90994 8.53598,25.55034 0,7.21057 z"
     inkscape:connector-curvature="0"
     id="path4455"
     style="fill:#e8b130;fill-opacity:1;fill-rule:evenodd;stroke:#000000;stroke-width:0;stroke-linecap:butt;stroke-linejoin:miter;stroke-miterlimit:4;stroke-opacity:1;stroke-dasharray:none" />
  <path
     d="m 18.68193,38.34712 10.4881,47.85194 14.09339,1.63879 7.53832,-30.80881 0,-34.08633 -3.93304,0 L 37.36386,64.56736 33.75857,47.5242 C 28.33288,42.06425 23.23488,38.57056 18.68193,38.34712 z"
     inkscape:connector-curvature="0"
     id="path4457"
     style="fill:#f5ea2e;fill-opacity:1;fill-rule:evenodd;stroke:#000000;stroke-width:0;stroke-linecap:butt;stroke-linejoin:miter;stroke-miterlimit:4;stroke-opacity:1;stroke-dasharray:none" />
  <path
     d="m 54.07927,88.49335 -0.32776,-65.87839 8.52158,-1.31099 0.98327,26.87574 c 3.80488,-7.67488 9.20337,-11.20635 17.37091,-7.53833 l 0.32775,51.12949 -4.26077,-0.32776 -0.32778,-33.75856 c -0.69706,-6.4613 -12.49355,-6.89041 -12.45459,0.65551 l -0.65552,31.4643 -9.17709,-1.31101 z"
     inkscape:connector-curvature="0"
     id="path4459"
     style="fill:#bbd710;fill-opacity:1;fill-rule:evenodd;stroke:#000000;stroke-width:0;stroke-linecap:butt;stroke-linejoin:miter;stroke-miterlimit:4;stroke-opacity:1;stroke-dasharray:none" />
</svg>
