<?xml version="1.0" encoding="UTF-8" standalone="no"?>
<!-- Created with Inkscape (http://www.inkscape.org/) -->
<svg
   xmlns:dc="http://purl.org/dc/elements/1.1/"
   xmlns:cc="http://web.resource.org/cc/"
   xmlns:rdf="http://www.w3.org/1999/02/22-rdf-syntax-ns#"
   xmlns:svg="http://www.w3.org/2000/svg"
   xmlns="http://www.w3.org/2000/svg"
   xmlns:sodipodi="http://sodipodi.sourceforge.net/DTD/sodipodi-0.dtd"
   xmlns:inkscape="http://www.inkscape.org/namespaces/inkscape"
   width="223"
   height="86"
   id="svg2"
   sodipodi:version="0.32"
   inkscape:version="0.45.1"
   version="1.0"
   inkscape:output_extension="org.inkscape.output.svg.inkscape">
  <g
     inkscape:label="Layer 1"
     inkscape:groupmode="layer"
     id="layer1"
     transform="translate(-8.6388887,-958.1443)">
    <g
       id="g20690"
       clip-path="url(#id633)"
       transform="matrix(0,-11.850954,-11.850954,0,6592.0216,4955.8598)">
      <g
         id="g20692"
         transform="translate(332.7158,540.3611)">
        <path
           id="path20694"
           d="M 0,0 C 0.924,0 1.236,-1.533 0.255,-1.601 L -2.666,-1.601 L -2.666,-3.672 L 0.158,-3.672 C 0.379,-3.672 0.629,-3.677 1.091,-3.576 C 3.201,-3.115 3.095,-0.517 1.779,0.381 C 2.981,1.104 2.962,2.82 2.171,3.776 L 2.761,3.776 L 2.761,5.68 L -0.802,5.68 L -0.802,6.308 C -0.802,6.875 -0.466,7.247 0.227,7.247 L 0.895,7.247 L 0.895,6.27 L 2.761,6.27 L 2.761,7.247 L 4.617,7.247 L 2.761,8.22 L 2.761,10.463 L -0.047,11.833 L 2.761,12.92 L 2.761,15.155 L -2.666,12.635 L -2.666,10.967 L 0.788,9.173 L 0.025,9.173 C -1.537,9.173 -2.666,8.244 -2.666,6.557 L -2.666,3.78 L 0,3.78 C 0.945,3.78 1.251,2.085 0.187,2.085 L -2.665,2.085 L -2.665,0 L 0,0 z "
           style="fill:#f58228;fill-rule:nonzero;stroke:none" />
      </g>
    </g>
  </g>
</svg>
