<?xml version="1.0" encoding="UTF-8" standalone="no"?>
<svg
   xmlns:dc="http://purl.org/dc/elements/1.1/"
   xmlns:cc="http://creativecommons.org/ns#"
   xmlns:rdf="http://www.w3.org/1999/02/22-rdf-syntax-ns#"
   xmlns:svg="http://www.w3.org/2000/svg"
   xmlns="http://www.w3.org/2000/svg"
   xmlns:sodipodi="http://sodipodi.sourceforge.net/DTD/sodipodi-0.dtd"
   xmlns:inkscape="http://www.inkscape.org/namespaces/inkscape"
   version="1.1"
   width="47.77"
   height="50"
   id="svg2"
   inkscape:version="0.48.4 r9939"
   sodipodi:docname="radio.klara.svg">
  <metadata
     id="metadata38">
    <rdf:RDF>
      <cc:Work
         rdf:about="">
        <dc:format>image/svg+xml</dc:format>
        <dc:type
           rdf:resource="http://purl.org/dc/dcmitype/StillImage" />
        <dc:title></dc:title>
      </cc:Work>
    </rdf:RDF>
  </metadata>
  <defs
     id="defs36" />
  <sodipodi:namedview
     pagecolor="#ffffff"
     bordercolor="#666666"
     borderopacity="1"
     objecttolerance="10"
     gridtolerance="10"
     guidetolerance="10"
     inkscape:pageopacity="0"
     inkscape:pageshadow="2"
     inkscape:window-width="1600"
     inkscape:window-height="837"
     id="namedview34"
     showgrid="false"
     inkscape:zoom="4.72"
     inkscape:cx="23.885"
     inkscape:cy="25"
     inkscape:window-x="-8"
     inkscape:window-y="-8"
     inkscape:window-maximized="1"
     inkscape:current-layer="svg2" />
  <g
     transform="matrix(0,-4.5203444,-4.5203444,0,0.00456847,37.256676)"
     id="g8"
     style="fill:#ffffff">
    <path
       d="m 0,0 8.242,0.001 0,-5.206 -1.453,0 0.518,-0.518 c 0.571,-0.508 0.93,-1.248 0.93,-2.071 0,-1.532 -1.242,-2.773 -2.773,-2.773 -0.745,0 -1.421,0.293 -1.92,0.771 L 3.543,-9.797 2.709,-8.963 1.875,-9.797 1.873,-9.796 c -0.498,-0.478 -1.174,-0.771 -1.919,-0.771 -1.531,0 -2.773,1.241 -2.773,2.773 0,0.823 0.359,1.563 0.93,2.071 l 0.531,0.532 c -0.844,0.475 -1.415,1.38 -1.415,2.418 C -2.773,-1.242 -1.531,0 0,0 0.008,0 0.016,0 0.024,0 l 0,0.001"
       id="path10"
       inkscape:connector-curvature="0"
       style="fill:#ffffff" />
  </g>
  <g
     style="fill:#000000"
     id="g12"
     transform="matrix(0,-4.5203444,-4.5203444,0,2383.2332,702.00451)">
    <g
       transform="translate(146.9205,523.7152)"
       id="g14"
       style="fill:#000000">
      <path
         d="M 0,0 C 0,0 -0.029,-0.003 -0.059,-0.003 -0.081,-0.003 -0.117,0 -0.117,0 c 0,0 0.003,0.41 0.003,0.54 0,0.127 -0.003,0.352 -0.003,0.352 0,0 0.036,0.003 0.058,0.003 0.036,0 0.062,-0.003 0.062,-0.003 L 0.026,0.726 0.944,1.487 1.871,0.615 1.936,0.859 c 0,0 0.029,0.003 0.052,0.003 0.023,0 0.059,-0.003 0.059,-0.003 0,0 -0.003,-0.247 -0.003,-0.377 0,-0.13 0.003,-0.404 0.003,-0.404 0,0 -0.036,-0.006 -0.059,-0.006 -0.029,0 -0.058,0.003 -0.058,0.003 L 1.858,0.41 1.139,1.103 0.042,0.189 0,0 z M 1.988,1.305 C 1.959,1.305 1.93,1.308 1.93,1.308 l -0.036,0.215 -1.855,0 -0.036,-0.221 c 0,0 -0.029,-0.004 -0.062,-0.004 -0.022,0 -0.058,0.007 -0.058,0.007 0,0 0.003,0.312 0.003,0.442 0,0.127 -0.003,0.476 -0.003,0.476 0,0 0.036,0.006 0.058,0.006 C -0.026,2.229 0,2.226 0,2.226 l 0.036,-0.257 1.858,0 0.036,0.257 c 0,0 0.029,0.003 0.058,0.003 0.023,0 0.059,-0.006 0.059,-0.006 0,0 -0.003,-0.349 -0.003,-0.476 0,-0.146 0.003,-0.439 0.003,-0.439 0,0 -0.029,-0.003 -0.059,-0.003"
         id="path16"
         inkscape:connector-curvature="0"
         style="fill:#000000" />
    </g>
    <g
       transform="translate(146.9433,522.9579)"
       id="g18"
       style="fill:#000000">
      <path
         d="m 0,0 c -0.01,-0.059 -0.026,-0.231 -0.029,-0.27 0,0 -0.02,-0.003 -0.052,-0.003 -0.023,0 -0.059,0.003 -0.059,0.003 0,0 0.003,0.348 0.003,0.475 0,0.13 -0.003,0.41 -0.003,0.41 0,0 0.036,0.007 0.059,0.007 0.029,0 0.049,-0.004 0.049,-0.004 l 0.029,-0.208 2.076,0 0.084,0.244 c 0,0 0.023,0.003 0.043,0.003 0.029,0 0.049,-0.003 0.049,-0.003 C 2.275,0.465 2.353,-0.01 2.353,-0.01 2.353,-0.01 1.887,0 1.673,0 L 0,0 z"
         id="path20"
         inkscape:connector-curvature="0"
         style="fill:#000000" />
    </g>
    <g
       transform="translate(147.5355,521.7777)"
       id="g22"
       style="fill:#000000">
      <path
         d="m 0,0 c -0.003,0.293 -0.104,0.404 -0.322,0.404 -0.127,0 -0.247,-0.072 -0.247,-0.205 0,-0.085 0.055,-0.186 0.156,-0.241 0.179,0 0.237,0 0.413,-0.004 L 0,0 z m 0.417,-0.459 c -0.267,0 -0.505,0.013 -0.801,0.013 -0.218,0 -0.202,-0.094 -0.137,-0.26 l -0.081,-0.033 c -0.104,0.124 -0.153,0.257 -0.153,0.404 0,0.146 0.072,0.26 0.234,0.27 -0.107,0.059 -0.24,0.257 -0.24,0.443 0,0.257 0.146,0.458 0.387,0.458 0.296,0 0.468,-0.306 0.475,-0.826 l 0,-0.056 c 0.059,-0.003 0.26,-0.003 0.299,-0.003 0.303,0 0.388,0.098 0.388,0.27 0,0.072 -0.017,0.16 -0.049,0.228 C 0.592,0.41 0.423,0.41 0.29,0.443 c 0,0.195 0.101,0.299 0.253,0.299 0.225,0 0.381,-0.361 0.381,-0.664 0,-0.374 -0.182,-0.537 -0.507,-0.537"
         id="path24"
         inkscape:connector-curvature="0"
         style="fill:#000000" />
    </g>
    <g
       transform="translate(148.0464,520.3473)"
       id="g26"
       style="fill:#000000">
      <path
         d="m 0,0 -1.09,0 -0.042,-0.332 c 0,0 -0.02,-0.003 -0.052,-0.003 -0.023,0 -0.059,0.003 -0.059,0.003 0,0 0.003,0.413 0.003,0.54 0,0.127 -0.003,0.41 -0.003,0.41 0,0 0.036,0.004 0.059,0.004 0.029,0 0.048,-0.004 0.048,-0.004 l 0.03,-0.205 1.246,0 0.081,0.244 c 0,0 0.023,0.004 0.046,0.004 0.029,0 0.049,-0.004 0.049,-0.004 C 0.342,0.469 0.417,0.006 0.417,0.006 l -0.274,0 c 0.153,-0.078 0.27,-0.27 0.27,-0.39 0,-0.221 -0.13,-0.316 -0.315,-0.316 -0.137,0 -0.283,0.121 -0.283,0.342 0.165,0.033 0.38,0.013 0.471,-0.003 C 0.267,-0.225 0.117,-0.049 0,0"
         id="path28"
         inkscape:connector-curvature="0"
         style="fill:#000000" />
    </g>
    <g
       transform="translate(147.5355,518.8004)"
       id="g30"
       style="fill:#000000">
      <path
         d="m 0,0 c -0.003,0.293 -0.104,0.404 -0.322,0.404 -0.127,0 -0.247,-0.072 -0.247,-0.206 0,-0.084 0.055,-0.185 0.156,-0.24 0.179,0 0.237,0 0.413,-0.004 L 0,0 z m 0.417,-0.459 c -0.267,0 -0.505,0.013 -0.801,0.013 -0.218,0 -0.202,-0.094 -0.137,-0.26 l -0.081,-0.033 c -0.104,0.124 -0.153,0.257 -0.153,0.404 0,0.146 0.072,0.26 0.234,0.27 -0.107,0.058 -0.24,0.257 -0.24,0.442 0,0.258 0.146,0.459 0.387,0.459 0.296,0 0.468,-0.306 0.475,-0.826 l 0,-0.056 c 0.059,-0.003 0.26,-0.003 0.299,-0.003 0.303,0 0.388,0.098 0.388,0.27 0,0.072 -0.017,0.16 -0.049,0.228 C 0.592,0.41 0.423,0.41 0.29,0.443 c 0,0.195 0.101,0.299 0.253,0.299 0.225,0 0.381,-0.361 0.381,-0.664 0,-0.374 -0.182,-0.537 -0.507,-0.537"
         id="path32"
         inkscape:connector-curvature="0"
         style="fill:#000000" />
    </g>
  </g>
</svg>
