<?xml version="1.0" encoding="UTF-8" standalone="no"?>
<!-- Created with Inkscape (http://www.inkscape.org/) -->

<svg
   xmlns:dc="http://purl.org/dc/elements/1.1/"
   xmlns:cc="http://creativecommons.org/ns#"
   xmlns:rdf="http://www.w3.org/1999/02/22-rdf-syntax-ns#"
   xmlns:svg="http://www.w3.org/2000/svg"
   xmlns="http://www.w3.org/2000/svg"
   xmlns:inkscape="http://www.inkscape.org/namespaces/inkscape"
   version="1.1"
   width="610pt"
   height="728pt"
   viewBox="0 0 610 728"
   id="svg3033">
  <metadata
     id="metadata3079">
    <rdf:RDF>
      <cc:Work
         rdf:about="">
        <dc:format>image/svg+xml</dc:format>
        <dc:type
           rdf:resource="http://purl.org/dc/dcmitype/StillImage" />
      </cc:Work>
    </rdf:RDF>
  </metadata>
  <defs
     id="defs3077" />
  <path
     d="m 0,0 610,0 0,728 -41.03,0 c -0.18,-5.64 -0.12,-11.29 -0.01,-16.92 -0.61,0.93 -1.21,1.88 -1.8,2.84 -10.62,-0.01 -21.24,-0.01 -31.86,0 -0.08,-11.61 0.1,-23.22 -0.09,-34.82 1.4,-0.59 2.73,-1.32 3.95,-2.23 -7.33,-0.21 -14.66,-0.15 -21.99,-0.05 1.18,1.3 3.81,1.92 3.46,4.11 0.03,13.37 0.06,26.76 -0.02,40.14 0.29,2.16 -2.25,2.83 -3.46,4.11 15.97,0.18 31.96,-0.06 47.93,0.11 1.69,-0.15 2.86,1.15 3.22,2.71 l -255.17,0 c 0.02,-5.12 0.14,-10.24 0.04,-15.35 -1.84,1.34 -3.56,3.42 -6.1,3.04 -9.91,-0.01 -19.83,0.01 -29.74,-0.04 -0.06,-3.61 -0.05,-7.21 -0.04,-10.81 7.4,-0.01 14.8,-0.1 22.19,0.07 0.52,0.68 1.54,2.05 2.06,2.74 0.5,-5 0.22,-10.04 0.31,-15.05 -1.51,1.11 -2.73,3.1 -4.86,2.81 -6.57,0.11 -13.13,0.01 -19.7,-0.02 -0.01,-3.09 -0.01,-6.17 0.01,-9.25 10.59,0.04 21.18,-0.1 31.77,0.04 2.06,-0.22 2.8,2.13 4.07,3.29 0.08,-5.34 0.15,-10.68 -0.09,-16.01 -0.83,1.08 -1.66,2.18 -2.47,3.29 -17.36,0.11 -34.72,-0.23 -52.06,0.18 1.32,0.81 2.71,1.5 4.13,2.17 -0.24,14.59 -0.06,29.19 -0.1,43.78 -1.36,0.73 -2.74,1.42 -4.08,2.19 16.51,0.41 33.03,0.04 49.54,0.18 2.17,-0.29 3.48,1.72 5.12,2.75 L 0,728 0,315.6 c 1.48,11.88 8.72,22.02 16.33,30.87 9.67,10.37 19.98,20.11 29.89,30.26 9.85,9.52 19.09,19.85 30.48,27.6 7.74,4.79 16.82,8.93 26.13,6.91 7.82,-1.78 15.01,-6.04 20.76,-11.57 8.11,-7.15 15.2,-16.12 17.73,-26.83 1.4,-5.61 0.66,-11.55 -1.38,-16.89 -4.57,-12.69 -14.12,-22.73 -23.81,-31.75 -7.25,7 -14.19,14.33 -21.71,21.04 7.05,6.99 15.58,13.28 19.42,22.75 3.44,7.76 -5.42,17.71 -13.46,14.59 -4.13,-1.47 -7.64,-4.22 -10.89,-7.08 C 76.16,362.18 62.8,348.89 49.49,335.56 43.05,328.98 35.62,323.19 30.81,315.21 28.46,311.7 27.7,306.72 29.97,303 c 1.85,-2.48 4.6,-4.2 7.4,-5.45 4.04,-1.3 8.1,0.62 11.5,2.67 6.42,3.96 10.76,10.29 16.13,15.43 7.36,-6.81 14.12,-14.23 21.33,-21.19 -7.34,-7.7 -15.24,-15.02 -24.48,-20.38 -8.29,-4.12 -18.23,-6.1 -27.07,-2.51 -6.29,1.74 -11.39,5.94 -16.36,9.97 C 9.62,289.39 1.73,299.38 0,311.38 L 0,0 z"
     inkscape:connector-curvature="0"
     id="path3035"
     style="fill:#ffffff" />
  <path
     d="m 302.6,0.63 c 2.47,1.36 4.29,3.55 6.25,5.51 4.63,4.61 9.23,9.26 13.89,13.85 -9.78,9.41 -19.34,19.07 -28.83,28.77 7.41,8.13 15.51,15.63 23.21,23.49 6.84,-5.53 12.36,-12.45 18.95,-18.26 2.34,-2.59 4.67,-5.19 7.45,-7.33 6.35,6.28 12.66,12.6 18.96,18.93 -8.46,8.72 -17.24,17.14 -25.68,25.88 2.01,2.85 4.64,5.17 7.21,7.5 6.11,6.67 12.98,12.58 18.98,19.35 9.39,-9.95 19.26,-19.44 28.96,-29.09 6.65,6.47 13.28,12.99 19.67,19.73 -16.99,17.07 -34.11,34 -51.07,51.1 -9.89,-10.62 -20.54,-20.52 -30.64,-30.94 -26.22,-25.84 -51.93,-52.15 -78.31,-77.83 8.86,-8.01 16.92,-16.85 25.55,-25.1 8.39,-8.62 17.08,-16.93 25.45,-25.56 z"
     inkscape:connector-curvature="0"
     id="path3037"
     style="fill:#ffffff" />
  <path
     d="m 208.7,94.58 c 1.83,-2.22 4.05,-4.06 6.22,-5.94 29.95,29.37 59.45,59.24 89.19,88.85 6.49,-5.63 12.04,-12.24 18.45,-17.97 3.41,-4.11 7.77,-7.27 11.04,-11.51 6.23,6.71 13.21,12.72 19.15,19.68 -14.72,14.98 -29.74,29.67 -44.53,44.56 -1.96,2.24 -4.2,4.21 -6.57,6.01 -9.31,-8.67 -18.03,-17.95 -27.15,-26.83 -27.06,-27.06 -54.14,-54.15 -81.27,-81.16 4.83,-5.54 10.34,-10.44 15.47,-15.69 z"
     inkscape:connector-curvature="0"
     id="path3039"
     style="fill:#ffffff" />
  <path
     d="m 418,150.99 c 5.99,-6.14 12.3,-11.96 18.08,-18.31 6.6,7.47 13.99,14.18 20.95,21.29 9.16,9.45 18.82,18.39 27.77,28.05 -17.28,17.95 -35.2,35.25 -52.74,52.97 -87.98,87.75 -175.86,175.7 -263.82,263.34 -15.49,-15.13 -30.62,-30.63 -46.07,-45.79 -1,-1.1 -1.99,-2.2 -3,-3.28 C 218.76,349.96 318.35,250.47 418,150.99 z"
     inkscape:connector-curvature="0"
     id="path3041"
     style="fill:#ffffff" />
  <path
     d="m 134.19,169.08 c 7.04,-7.45 14.55,-14.43 21.62,-21.85 7.44,8.57 16.06,15.98 23.83,24.23 21.77,21.78 43.62,43.44 65.39,65.28 9.78,-9.72 19.46,-19.53 29.32,-29.17 2.02,1.73 4.2,3.32 5.84,5.45 2.15,2.82 5.31,4.62 7.47,7.44 1.82,2.35 4.26,4.09 6.47,6.06 -11.9,11.23 -23.09,23.15 -34.88,34.48 -5.31,5.82 -11.37,10.92 -16.51,16.9 -35.53,-35.43 -70.98,-70.94 -106.53,-106.29 -0.7,-0.82 -1.41,-1.64 -2.02,-2.53 z"
     inkscape:connector-curvature="0"
     id="path3043"
     style="fill:#ffffff" />
  <path
     d="m 127.125,251.75 c -11.725,11.325 -23.03125,23.04375 -34.65625,34.46875 4.8375,5.8125 8.08125,12.7 12.59375,18.75 31.3875,48.5375 63.3625,96.71875 94.625,145.34375 9.6625,-9.4375 19.4,-18.825 28.625,-28.6875 -8.4,-11.95 -17.06875,-23.74375 -25.34375,-35.78125 -1.9875,-2.6375 -4.6375,-5.00625 -5.5,-8.28125 7.3625,-6.95 14.43125,-14.23125 21.59375,-21.40625 14.975,9.7125 29.13125,20.61875 43.84375,30.71875 5.225,-3.5125 8.6125,-8.975 13.5625,-12.8125 4.5875,-5.525 10.475,-9.7375 14.875,-15.4375 -6.55,-5.35 -14.15625,-9.125 -20.96875,-14.0625 -19.4375,-12.625 -38.93125,-25.15 -58.28125,-37.9375 -3.55,-1.6625 -6.5375,-4.2 -9.75,-6.375 -25.2625,-15.8625 -49.83125,-32.85 -75.21875,-48.5 z m 7.34375,42.15625 c 6.3625,3.5375 11.3,8.95 17.375,12.875 13.45,10.9 28.03125,20.2375 41.59375,30.9375 -4.8,4.8125 -9.36875,9.85625 -14.53125,14.28125 -15.05,-19.175 -28.2,-39.85625 -44.4375,-58.09375 z"
     inkscape:connector-curvature="0"
     transform="scale(0.8,0.8)"
     id="path3045"
     style="fill:#ffffff" />
  <path
     d="m 476.07,246.19 c 14.22,-4.35 29.26,-6.87 44.12,-4.89 6.66,0.67 13.12,2.53 19.62,4.02 5.62,1.56 10.71,4.49 16.04,6.77 21.74,11.39 39.15,30.89 47.66,53.94 1.71,6.64 3.9,13.19 4.66,20.04 1.86,13.33 0,26.93 -3.69,39.79 -1.43,7.14 -5.58,13.25 -8.79,19.66 -8.66,13.97 -19.7,26.24 -31.07,38.05 -12.87,12.92 -25.6,26.08 -40.04,37.29 -3.44,2.15 -6.66,4.67 -10.2,6.66 -6.34,2.87 -12.96,5.53 -19.99,6 -9.15,0.84 -18.21,-1.14 -27.11,-2.98 3.37,14.32 3.93,29.79 -1.85,43.58 -6.97,14.62 -18.5,26.21 -29.53,37.77 -15.75,15.63 -31.15,31.68 -48.14,45.98 -7.72,6.54 -16.15,12.3 -25.3,16.63 -16.99,6.16 -35.47,9.74 -53.49,6.57 -14,-2.45 -27.53,-7.89 -39.03,-16.27 -15.18,-10.73 -27.76,-25.26 -35.77,-42.05 -2.83,-4.72 -4.12,-10.09 -5.82,-15.27 -5.11,-15.63 -5.56,-32.84 -0.71,-48.6 2.06,-6.1 3.65,-12.45 7.19,-17.92 5.79,-11.57 14.26,-21.51 23.47,-30.49 8.64,-8.47 17.07,-17.19 25.76,-25.62 16.93,16.91 34.01,33.65 50.65,50.83 -9.48,10.24 -19.88,19.55 -29.35,29.81 -3.52,4.15 -5.62,9.38 -6.8,14.65 -2.45,16.04 13.45,31.96 29.51,29.5 6.92,-1.56 13.4,-5.06 18.3,-10.22 13.21,-12.8 26.06,-25.99 39.18,-38.9 8.17,-8.51 18,-16.42 21.75,-28.04 1.98,-7.27 -2.24,-14.06 -6.05,-19.89 -5.62,-7.22 -11.75,-14.09 -18.61,-20.13 15.29,-15.34 30.69,-30.55 45.95,-45.91 4.72,5.21 9.8,10.12 15.25,14.58 4.75,4.51 10.53,8.08 16.72,10.26 7.82,2.37 14.94,-2.6 20.94,-6.93 15.17,-14.13 29.43,-29.2 44.24,-43.67 5.75,-5.22 10.81,-11.92 11.56,-19.91 0.72,-6.6 -2.41,-12.81 -6.1,-18.04 -2.3,-2.36 -4.73,-4.6 -7.23,-6.74 -6.6,-3.94 -14.96,-5.46 -22.24,-2.47 -7.94,2.05 -12.86,9.12 -18.63,14.38 -6.88,7.05 -14.04,13.83 -20.83,20.97 -2.7,-3.98 -6.79,-6.61 -9.79,-10.3 -8,-7.71 -15.75,-15.65 -23.53,-23.56 -6.18,-5.46 -11.36,-11.94 -17.69,-17.24 12.24,-11.7 23.6,-24.3 36.32,-35.48 8.49,-7.01 18.29,-12.18 28.49,-16.21 z"
     inkscape:connector-curvature="0"
     id="path3049"
     style="fill:#ffffff" />
  <path
     d="m 34.78,271.57 c 8.84,-3.59 18.78,-1.61 27.07,2.51 9.24,5.36 17.14,12.68 24.48,20.38 -7.21,6.96 -13.97,14.38 -21.33,21.19 -5.37,-5.14 -9.71,-11.47 -16.13,-15.43 -3.4,-2.05 -7.46,-3.97 -11.5,-2.67 -2.8,1.25 -5.55,2.97 -7.4,5.45 -2.27,3.72 -1.51,8.7 0.84,12.21 4.81,7.98 12.24,13.77 18.68,20.35 13.31,13.33 26.67,26.62 40,39.94 3.25,2.86 6.76,5.61 10.89,7.08 8.04,3.12 16.9,-6.83 13.46,-14.59 -3.84,-9.47 -12.37,-15.76 -19.42,-22.75 7.52,-6.71 14.46,-14.04 21.71,-21.04 9.69,9.02 19.24,19.06 23.81,31.75 2.04,5.34 2.78,11.28 1.38,16.89 -2.53,10.71 -9.62,19.68 -17.73,26.83 -5.75,5.53 -12.94,9.79 -20.76,11.57 -9.31,2.02 -18.39,-2.12 -26.13,-6.91 C 65.31,396.58 56.07,386.25 46.22,376.73 36.31,366.58 26,356.84 16.33,346.47 8.72,337.62 1.48,327.48 0,315.6 l 0,-4.22 c 1.73,-12 9.62,-21.99 18.42,-29.84 4.97,-4.03 10.07,-8.23 16.36,-9.97 z"
     inkscape:connector-curvature="0"
     id="path3051"
     style="fill:#ffffff" />
  <path
     d="m 310.58,676.75 c 0.81,-1.11 1.64,-2.21 2.47,-3.29 0.24,5.33 0.17,10.67 0.09,16.01 -1.27,-1.16 -2.01,-3.51 -4.07,-3.29 -10.59,-0.14 -21.18,0 -31.77,-0.04 -0.02,3.08 -0.02,6.16 -0.01,9.25 6.57,0.03 13.13,0.13 19.7,0.02 2.13,0.29 3.35,-1.7 4.86,-2.81 -0.09,5.01 0.19,10.05 -0.31,15.05 -0.52,-0.69 -1.54,-2.06 -2.06,-2.74 -7.39,-0.17 -14.79,-0.08 -22.19,-0.07 -0.01,3.6 -0.02,7.2 0.04,10.81 9.91,0.05 19.83,0.03 29.74,0.04 2.54,0.38 4.26,-1.7 6.1,-3.04 0.1,5.11 -0.02,10.23 -0.04,15.35 l 0,0 c -1.64,-1.03 -2.95,-3.04 -5.12,-2.75 -16.51,-0.14 -33.03,0.23 -49.54,-0.18 1.34,-0.77 2.72,-1.46 4.08,-2.19 0.04,-14.59 -0.14,-29.19 0.1,-43.78 -1.42,-0.67 -2.81,-1.36 -4.13,-2.17 17.34,-0.41 34.7,-0.07 52.06,-0.18 z"
     inkscape:connector-curvature="0"
     id="path3053"
     style="fill:#ffffff" />
  <path
     d="m 397.39,680.2 c 9.11,-4.87 19.9,-4.84 29.81,-2.82 4.3,0.61 8.92,2.77 13.05,0.39 -2.03,5.1 -4.21,10.17 -7.2,14.79 -0.22,-0.79 -0.65,-2.38 -0.86,-3.17 -6.36,-3.69 -14.05,-4.15 -21.2,-3.36 -2.76,0.46 -6.21,1.65 -6.81,4.76 0.29,2.65 3.69,2.72 5.66,3.49 9.18,1.7 19.15,1.55 27.26,6.8 4.87,4.87 4.3,13.04 0.22,18.22 -3.78,3.11 -8.33,5.35 -13.2,6.08 -10.8,2.12 -21.6,-1.06 -32.02,-3.6 -1.15,0.66 -2.3,1.3 -3.46,1.94 1.37,-5.27 3.25,-10.38 4.92,-15.55 0.77,0.85 1.25,1.85 1.44,3 0.98,0.93 2,1.93 3.38,2.23 7.68,1.69 15.65,3.51 23.52,2.05 2.04,-0.71 4.76,-1.79 4.58,-4.41 -1.03,-3.17 -4.6,-4.03 -7.53,-4.23 -7.33,-0.61 -14.9,-1.08 -21.71,-4.12 -3.07,-1.69 -6.31,-4.04 -6.86,-7.77 -1.45,-5.92 2.7,-11.22 7.01,-14.72 z"
     inkscape:connector-curvature="0"
     id="path3055"
     style="fill:#ffffff" />
  <path
     d="m 24.22,676.85 c 6.7,-0.06 13.42,-0.4 20.1,0.21 -0.74,0.42 -2.22,1.27 -2.96,1.69 -0.06,8.78 -0.07,17.56 -0.02,26.33 0.32,3.17 1.45,7.08 4.7,8.37 3.93,1.04 8.09,1.14 12.08,0.43 3.78,-0.42 6.82,-4.09 6.74,-7.85 0.06,-9.17 0.04,-18.34 -0.01,-27.51 -0.76,-0.3 -2.29,-0.91 -3.05,-1.22 6.56,-1.18 13.32,-0.31 19.97,-0.49 -0.84,1.08 -3.1,1.32 -2.83,3.06 -0.16,8.7 0.06,17.41 -0.07,26.12 -0.21,6.1 -3.03,12.4 -8.32,15.71 -6.04,3.89 -13.5,4.81 -20.54,4.4 -6.46,-0.47 -13.16,-2.46 -17.84,-7.15 -3.07,-3.19 -3.99,-7.71 -4.43,-11.95 -0.16,-8.98 0.08,-17.96 -0.07,-26.93 0.21,-1.99 -2.43,-2.06 -3.45,-3.22 z"
     inkscape:connector-curvature="0"
     id="path3057"
     style="fill:#ffffff" />
  <path
     d="m 92.17,676.93 c 9.05,-0.32 18.13,-0.25 27.19,-0.04 -1.1,0.91 -2.26,1.73 -3.43,2.55 2.88,3.93 6.47,7.27 9.72,10.9 3.72,3.66 6.84,7.93 11.03,11.11 0.08,-7.49 0.04,-14.97 0.03,-22.45 -1.3,-0.59 -2.59,-1.2 -3.74,-2.03 6.84,-0.38 13.72,-0.33 20.57,-0.02 -1.09,0.9 -2.41,1.41 -3.6,2.17 0.07,13.98 -0.02,27.97 0.01,41.96 -0.4,2.26 2.19,2.85 3.5,4.03 -7.22,0.19 -14.46,0.27 -21.68,-0.05 1.53,-0.92 3.14,-1.69 4.63,-2.67 -5.72,-6.53 -11.72,-12.8 -17.8,-18.99 -3.51,-3.55 -6.51,-7.58 -10.17,-10.98 -0.21,9.54 -0.08,19.1 -0.09,28.65 -0.43,2.37 2.49,2.82 3.9,4.01 -6.62,0.3 -13.26,0.16 -19.89,0.09 1.12,-1.25 3.31,-2.06 3.01,-4.09 -0.01,-13.97 0.07,-27.94 -0.05,-41.91 -1.04,-0.77 -2.09,-1.51 -3.14,-2.24 z"
     inkscape:connector-curvature="0"
     id="path3059"
     style="fill:#ffffff" />
  <path
     d="m 164.46,676.96 c 6.16,-0.45 12.35,-0.1 18.52,-0.23 1.51,-0.16 2.95,0.22 4.32,0.82 -1.26,0.84 -4.29,0.3 -3.91,2.52 -0.16,13.66 0.04,27.33 -0.1,41 -0.65,2.59 2.69,2.76 4.18,3.99 -7.7,0.29 -15.42,0.3 -23.11,0 1.48,-1.25 4.65,-1.51 4.24,-4.08 0.06,-13.34 0.01,-26.69 0.03,-40.03 0.53,-2.53 -2.76,-2.7 -4.17,-3.99 z"
     inkscape:connector-curvature="0"
     id="path3061"
     style="fill:#ffffff" />
  <path
     d="m 194.44,676.92 c 7.38,-0.28 14.79,-0.3 22.17,0.02 -1.08,0.7 -2.17,1.36 -3.3,1.99 2.64,9.74 7.34,18.76 9.92,28.5 4.67,-8.81 7.91,-18.27 11.75,-27.44 0.98,-1.73 -2.09,-2 -2.76,-3.14 6.5,0.13 13.15,-0.76 19.56,0.45 -1.12,0.84 -2.9,1.22 -3.29,2.8 -1.39,3.49 -2.98,6.9 -4.08,10.5 -2.08,5.94 -5.23,11.44 -7.23,17.42 -1.52,5 -4.23,9.53 -5.91,14.48 1,0.93 2.11,1.74 3.17,2.63 -8.18,0.18 -16.37,0.19 -24.55,-0.01 0.89,-1.07 3.14,-1.48 2.93,-3.12 -1.14,-4.44 -3.24,-8.59 -4.17,-13.09 -1.96,-6.42 -4.73,-12.56 -6.82,-18.93 -1.04,-3.86 -2.53,-7.58 -4.35,-11.13 -1.06,-0.58 -2.08,-1.22 -3.04,-1.93 z"
     inkscape:connector-curvature="0"
     id="path3063"
     style="fill:#ffffff" />
  <path
     d="m 422.125,845.875 c -5.81257,0.0173 -11.60312,0.10938 -17.40625,0.34375 0.9375,1.2875 2.44375,1.85 3.78125,2.625 0.075,18.1875 0.0313,36.375 0.0313,54.5625 -1.1875,0.9625 -2.34375,1.9625 -3.46875,3 8.5,0.1875 17.03125,0.30625 25.53125,-0.0937 -1.575,-1.3875 -4.775,-1.6625 -4.875,-4.1875 -0.2625,-6.1625 0,-12.3375 -0.0625,-18.5 4.625,-0.0375 9.25,-0.05 13.875,0.0625 2.4625,7.3 8.68125,12.775 10.53125,20.3125 -1.5125,0.675 -3,1.4625 -4.4375,2.3125 9.925,0.45 19.8875,0.325 29.8125,0.0625 -3.15,-1.8625 -6.625,-3.7375 -8.1875,-7.25 -2.7125,-5.4875 -7.24375,-9.8375 -9.78125,-15.4375 5.6875,-2.1 10.81875,-5.90625 13.65625,-11.34375 2.6625,-5.85 1.95,-12.96875 -1.8125,-18.15625 -3.4375,-6.45 -11.6,-7.475 -18.125,-8.1875 -9.67969,0.0313 -19.37488,-0.15381 -29.0625,-0.125 z m 14.5,11.28125 c 3.62969,-0.0219 7.25,-0.025 10.875,0.15625 3.6,0.0875 7.5625,2.5875 7.75,6.5 0.8375,4.55 -3.36875,8.44375 -7.65625,8.71875 -7.275,0.3625 -14.56875,0.0375 -21.84375,0.125 -0.0625,-5.1625 -0.0688,-10.3 -0.0313,-15.4375 3.63125,0.0187 7.27656,-0.0406 10.90625,-0.0625 z"
     inkscape:connector-curvature="0"
     transform="scale(0.8,0.8)"
     id="path3065"
     style="fill:#ffffff" />
  <path
     d="m 596.1875,845.875 c -5.01719,0.0203 -10.05,0.13125 -15.0625,0.1875 0.6625,0.675 1.99375,2.0125 2.65625,2.6875 -2.3375,6.1375 -5.6,11.8875 -8,18 -2.85,7.8375 -7.4125,14.9375 -10,22.875 -2.875,5.7125 -4.66875,12.175 -9.21875,16.875 7.1625,0.05 14.3375,0.2125 21.5,-0.125 -0.7875,-0.575 -2.36875,-1.7375 -3.15625,-2.3125 1.3,-3.425 3.0875,-6.65 4.6875,-9.9375 10.6125,0 21.24375,0.1875 31.84375,-0.125 1.4375,3.2125 3.25,6.275 4.5625,9.5625 -0.8625,0.9875 -1.74375,1.94375 -2.65625,2.90625 8.1375,0.1125 16.2875,0.13125 24.4375,-0.0313 -4.3,-2.7625 -6.20625,-7.59375 -8.09375,-12.09375 -2.125,-6.0125 -5.45625,-11.48125 -8.15625,-17.21875 -3.9125,-9.6875 -9.49375,-18.56875 -12.90625,-28.46875 0.65,-0.6 1.94375,-1.80625 2.59375,-2.40625 -5.00625,-0.325 -10.01406,-0.39531 -15.03125,-0.375 z m -1.03125,14.5 c 4.75,7.55 7.69375,15.975 11.78125,23.875 -7.725,-0.025 -15.4125,0.0562 -23.125,-0.0313 3.7,-8 7.93125,-15.71875 11.34375,-23.84375 z"
     inkscape:connector-curvature="0"
     transform="scale(0.8,0.8)"
     id="path3067"
     style="fill:#ffffff" />
  <path
     d="m 517.17,676.82 c 7.33,-0.1 14.66,-0.16 21.99,0.05 -1.22,0.91 -2.55,1.64 -3.95,2.23 0.19,11.6 0.01,23.21 0.09,34.82 10.62,-0.01 21.24,-0.01 31.86,0 0.59,-0.96 1.19,-1.91 1.8,-2.84 -0.11,5.63 -0.17,11.28 0.01,16.92 l -0.67,0 c -0.36,-1.56 -1.53,-2.86 -3.22,-2.71 -15.97,-0.17 -31.96,0.07 -47.93,-0.11 1.21,-1.28 3.75,-1.95 3.46,-4.11 0.08,-13.38 0.05,-26.77 0.02,-40.14 0.35,-2.19 -2.28,-2.81 -3.46,-4.11 z"
     inkscape:connector-curvature="0"
     id="path3069"
     style="fill:#ffffff" />
</svg>
