<?xml version="1.0" encoding="UTF-8" standalone="no"?>
<svg
   xmlns:dc="http://purl.org/dc/elements/1.1/"
   xmlns:cc="http://creativecommons.org/ns#"
   xmlns:rdf="http://www.w3.org/1999/02/22-rdf-syntax-ns#"
   xmlns:svg="http://www.w3.org/2000/svg"
   xmlns="http://www.w3.org/2000/svg"
   xmlns:sodipodi="http://sodipodi.sourceforge.net/DTD/sodipodi-0.dtd"
   xmlns:inkscape="http://www.inkscape.org/namespaces/inkscape"
   width="748pt"
   height="728pt"
   viewBox="0 0 748 728"
   version="1.1"
   id="svg3137"
   inkscape:version="0.48.4 r9939"
   sodipodi:docname="tv.calle13hd.svg">
  <metadata
     id="metadata3191">
    <rdf:RDF>
      <cc:Work
         rdf:about="">
        <dc:format>image/svg+xml</dc:format>
        <dc:type
           rdf:resource="http://purl.org/dc/dcmitype/StillImage" />
      </cc:Work>
    </rdf:RDF>
  </metadata>
  <defs
     id="defs3189" />
  <sodipodi:namedview
     pagecolor="#ffffff"
     objecttolerance="10"
     gridtolerance="10"
     guidetolerance="10"
     inkscape:pageopacity="0"
     inkscape:pageshadow="2"
     inkscape:window-width="1280"
     inkscape:window-height="747"
     id="namedview3187"
     showgrid="false"
     inkscape:zoom="0.36676308"
     inkscape:cx="429.68074"
     inkscape:cy="205.5088"
     inkscape:window-x="-8"
     inkscape:window-y="-8"
     inkscape:window-maximized="1"
     inkscape:current-layer="svg3137" />
  <path
     fill="#ffffff"
     d=" M 0.00 0.00 L 748.00 0.00 L 748.00 443.93 C 720.83 417.09 693.83 390.07 666.90 362.98 C 639.68 389.90 612.77 417.13 585.52 444.02 C 612.68 471.10 639.85 498.17 666.95 525.30 C 684.83 506.74 703.44 488.88 721.49 470.49 C 730.42 461.88 738.91 452.81 748.00 444.36 L 748.00 728.00 L 569.08 728.00 C 568.69 722.38 568.89 716.73 568.97 711.11 C 568.36 712.03 567.75 712.97 567.15 713.92 C 556.53 713.91 545.92 713.91 535.30 713.92 C 535.25 702.27 535.35 690.63 535.25 678.99 C 536.58 678.44 537.90 677.88 539.23 677.32 C 531.86 676.19 524.36 676.85 516.94 676.91 C 518.16 677.71 519.41 678.52 520.66 679.32 C 520.60 693.23 520.72 707.14 520.62 721.05 C 520.89 723.18 518.41 723.88 517.22 725.18 C 533.17 725.35 549.13 725.12 565.07 725.29 C 566.80 725.12 567.85 726.74 568.69 728.00 L 0.00 728.00 L 0.00 315.51 C 1.47 327.66 8.97 337.98 16.77 346.97 C 30.32 361.14 44.45 374.75 58.24 388.68 C 63.85 394.14 69.66 399.41 76.07 403.93 C 83.98 408.92 93.29 413.32 102.88 411.23 C 110.67 409.43 117.86 405.20 123.60 399.66 C 131.71 392.51 138.80 383.54 141.33 372.82 C 142.66 367.46 142.04 361.79 140.19 356.63 C 135.71 343.65 126.00 333.37 116.12 324.20 C 108.90 331.26 101.82 338.47 94.44 345.36 C 101.60 352.20 110.00 358.60 113.85 368.02 C 117.27 375.78 108.39 385.71 100.35 382.57 C 93.96 380.22 89.07 375.24 84.46 370.43 C 71.39 357.56 58.53 344.48 45.47 331.60 C 39.61 326.09 33.52 320.51 29.74 313.29 C 28.05 309.50 28.00 304.28 31.38 301.38 C 33.37 299.70 35.56 298.09 38.08 297.34 C 42.24 296.43 46.16 298.56 49.58 300.66 C 55.62 304.67 59.82 310.69 65.00 315.64 C 72.34 308.80 79.21 301.46 86.32 294.37 C 78.90 286.78 71.09 279.41 61.85 274.08 C 54.23 270.38 45.34 268.21 37.03 270.83 C 26.06 273.74 17.46 281.78 10.10 290.04 C 5.20 296.24 1.05 303.41 0.00 311.37 L 0.00 0.00 Z"
     id="path3139" />
  <path
     fill="#000000"
     d=" M 302.60 0.63 C 305.08 1.97 306.88 4.19 308.85 6.14 C 313.48 10.75 318.08 15.40 322.74 19.99 C 316.51 25.69 310.82 31.93 304.72 37.77 C 301.23 41.59 297.17 44.88 293.90 48.92 C 301.48 56.85 309.39 64.46 317.12 72.25 C 320.16 69.93 322.89 67.26 325.36 64.33 C 328.11 62.11 330.46 59.48 332.84 56.86 C 336.77 53.84 339.52 49.61 343.52 46.66 C 349.88 52.93 356.16 59.27 362.48 65.58 C 354.03 74.33 345.22 82.72 336.79 91.49 C 345.03 100.89 354.61 109.03 362.98 118.32 C 372.39 108.38 382.25 98.88 391.95 89.23 C 398.59 95.71 405.23 102.22 411.61 108.96 C 394.65 126.05 377.46 142.92 360.58 160.08 C 338.80 137.61 316.27 115.85 294.31 93.58 C 279.94 79.61 266.12 65.11 251.60 51.29 C 263.15 40.63 273.83 29.07 285.18 18.19 C 290.87 12.22 296.91 6.60 302.60 0.63 Z"
     id="path3141"
     style="fill:#ffffff" />
  <path
     fill="#000000"
     d=" M 203.04 100.04 C 207.24 96.49 210.59 92.07 214.91 88.64 C 244.88 118.00 274.37 147.89 304.11 177.50 C 310.58 171.87 316.12 165.27 322.52 159.57 C 325.92 155.43 330.33 152.28 333.59 148.01 C 339.82 154.73 346.83 160.72 352.74 167.71 C 342.04 178.68 331.01 189.33 320.27 200.27 C 313.89 206.09 308.40 212.85 301.66 218.26 C 292.35 209.62 283.67 200.34 274.55 191.49 C 247.48 164.41 220.38 137.31 193.23 110.27 C 196.05 106.43 200.08 103.76 203.04 100.04 Z"
     id="path3143"
     style="fill:#ffffff" />
  <path
     fill="#000000"
     d=" M 418.02 150.96 C 424.01 144.83 430.32 139.02 436.09 132.67 C 443.80 141.39 452.51 149.13 460.53 157.54 C 468.60 165.72 477.01 173.56 484.80 182.02 C 472.18 195.31 458.91 207.97 446.05 221.03 C 379.70 287.20 313.32 353.55 247.01 419.77 C 220.66 445.92 194.57 472.34 168.09 498.35 C 151.87 481.89 135.24 465.84 119.17 449.26 C 218.76 349.96 318.36 250.46 418.02 150.96 Z"
     id="path3145"
     style="fill:#ffffff" />
  <path
     fill="#000000"
     d=" M 134.01 169.10 C 141.28 161.81 148.66 154.63 155.81 147.23 C 163.24 155.79 171.86 163.20 179.62 171.44 C 201.40 193.23 223.26 214.89 245.03 236.74 C 254.80 227.02 264.50 217.23 274.32 207.57 C 278.65 210.60 281.52 215.13 285.71 218.32 C 288.27 221.30 291.01 224.10 294.13 226.51 C 285.21 234.81 276.95 243.73 268.14 252.12 C 259.85 260.89 250.87 268.98 242.73 277.90 C 216.74 251.94 190.76 225.98 164.76 200.07 C 154.60 189.65 143.97 179.70 134.01 169.10 Z"
     id="path3147"
     style="fill:#ffffff" />
  <path
     style="fill:#ffffff"
     d="M 127.125 251.75 C 115.4 263.0625 104.0625 274.825 92.4375 286.25 C 95.1125 289.5375 97.49375 293.04375 99.59375 296.71875 C 123.43125 333.24375 147.275 369.75625 171.125 406.28125 C 180.4875 421.00625 190.5125 435.3125 199.5625 450.25 C 209.4375 441.0125 219.025 431.4375 228.3125 421.625 C 219.9125 409.6625 211.225 397.875 202.9375 385.8125 C 200.95 383.225 198.3875 380.825 197.4375 377.625 C 204.85 370.6125 211.8375 363.16875 219.25 356.15625 C 234.0375 366.06875 248.28125 376.7375 262.90625 386.875 C 268.11875 383.3625 271.53125 377.93125 276.46875 374.09375 C 281.04375 368.55625 286.95625 364.35625 291.34375 358.65625 C 284.80625 353.29375 277.16875 349.5125 270.34375 344.5625 C 234.48125 321.3 198.625 298.0125 162.8125 274.625 C 150.825 267.175 139.3375 258.8375 127.125 251.75 z M 134.46875 293.8125 C 140.76875 297.4875 145.8 302.80625 151.875 306.78125 C 165.3125 317.68125 179.8875 327.0375 193.4375 337.75 C 188.6375 342.55 184.0625 347.55625 178.875 351.96875 C 163.8375 332.75625 150.63125 312.15 134.46875 293.8125 z "
     transform="scale(0.8,0.8)"
     id="path3149" />
  <path
     fill="#000000"
     d=" M 484.08 244.05 C 500.84 239.37 518.81 239.61 535.53 244.32 C 543.03 245.54 549.64 249.42 556.52 252.39 C 572.70 261.18 586.52 274.29 595.99 290.10 C 599.34 296.95 603.49 303.56 604.88 311.18 C 610.57 328.62 609.85 347.63 604.67 365.09 C 603.31 372.50 599.07 378.85 595.72 385.46 C 585.18 402.46 571.21 416.96 557.19 431.12 C 546.91 441.19 536.73 451.41 525.36 460.27 C 519.69 464.19 514.08 468.37 507.40 470.44 C 494.58 475.86 480.37 473.47 467.27 470.54 C 470.61 484.64 471.16 499.81 465.73 513.47 C 460.16 525.58 451.25 535.64 442.26 545.28 C 425.90 562.01 409.51 578.75 392.00 594.27 C 383.00 602.14 373.35 609.42 362.46 614.50 C 345.17 620.79 326.31 624.35 307.99 620.90 C 278.36 615.75 252.92 595.43 237.85 569.88 C 234.95 563.85 231.19 558.15 229.65 551.54 C 223.70 535.19 222.34 517.00 227.25 500.20 C 229.41 493.65 231.08 486.81 234.84 480.93 C 241.36 467.79 251.46 456.94 261.94 446.87 C 269.36 439.58 276.56 432.06 284.06 424.85 C 300.99 441.76 318.07 458.51 334.71 475.68 C 329.41 481.35 323.94 486.85 318.29 492.17 C 311.68 499.62 302.69 505.67 299.78 515.71 C 292.50 533.84 313.11 555.18 331.47 548.70 C 339.99 546.22 346.41 539.82 352.32 533.54 C 363.51 522.65 374.40 511.48 385.54 500.53 C 392.51 493.18 400.71 486.57 405.26 477.31 C 407.72 473.35 408.42 468.37 407.15 463.90 C 404.36 455.50 398.41 448.80 392.67 442.29 C 389.14 439.17 386.39 435.27 382.63 432.41 C 397.96 417.14 413.33 401.91 428.56 386.55 C 433.18 391.57 438.07 396.39 443.35 400.71 C 448.41 405.48 454.47 409.45 461.13 411.53 C 468.54 413.54 475.13 408.89 480.92 404.95 C 491.26 395.79 500.54 385.52 510.57 376.03 C 517.30 368.96 524.43 362.28 531.21 355.24 C 535.64 349.18 538.87 341.46 536.73 333.89 C 533.62 322.78 523.87 313.02 512.02 312.12 C 506.89 311.58 501.94 313.34 497.30 315.33 C 491.56 318.75 487.39 324.09 482.53 328.57 C 475.86 335.46 468.87 342.02 462.27 348.98 C 454.91 340.56 446.47 333.15 438.76 325.07 C 436.20 321.99 432.81 319.75 430.45 316.51 C 423.68 310.67 418.09 303.65 411.26 297.89 C 423.64 286.05 435.12 273.29 448.02 262.02 C 452.30 258.60 456.97 255.66 461.62 252.77 C 468.90 249.39 476.06 245.39 484.08 244.05 Z"
     id="path3153"
     style="fill:#ffffff" />
  <path
     fill="#000000"
     d=" M 37.03 270.83 C 45.34 268.21 54.23 270.38 61.85 274.08 C 71.09 279.41 78.90 286.78 86.32 294.37 C 79.21 301.46 72.34 308.80 65.00 315.64 C 59.82 310.69 55.62 304.67 49.58 300.66 C 46.16 298.56 42.24 296.43 38.08 297.34 C 35.56 298.09 33.37 299.70 31.38 301.38 C 28.00 304.28 28.05 309.50 29.74 313.29 C 33.52 320.51 39.61 326.09 45.47 331.60 C 58.53 344.48 71.39 357.56 84.46 370.43 C 89.07 375.24 93.96 380.22 100.35 382.57 C 108.39 385.71 117.27 375.78 113.85 368.02 C 110.00 358.60 101.60 352.20 94.44 345.36 C 101.82 338.47 108.90 331.26 116.12 324.20 C 126.00 333.37 135.71 343.65 140.19 356.63 C 142.04 361.79 142.66 367.46 141.33 372.82 C 138.80 383.54 131.71 392.51 123.60 399.66 C 117.86 405.20 110.67 409.43 102.88 411.23 C 93.29 413.32 83.98 408.92 76.07 403.93 C 69.66 399.41 63.85 394.14 58.24 388.68 C 44.45 374.75 30.32 361.14 16.77 346.97 C 8.97 337.98 1.47 327.66 0.00 315.51 L 0.00 311.37 C 1.05 303.41 5.20 296.24 10.10 290.04 C 17.46 281.78 26.06 273.74 37.03 270.83 Z"
     id="path3155"
     style="fill:#ffffff" />
  <g
     id="g3106"
     style="fill:#ffffff">
    <path
       id="path3157"
       transform="scale(0.8,0.8)"
       d="M 833.625 453.71875 C 799.6 487.36875 765.96875 521.41875 731.90625 555.03125 C 765.85625 588.88125 799.8125 622.7125 833.6875 656.625 C 856.0375 633.425 879.3125 611.1125 901.875 588.125 C 913.0375 577.3625 923.6375 566 935 555.4375 L 935 554.90625 C 901.0375 521.35625 867.2875 487.58125 833.625 453.71875 z M 862.46875 526.5 C 869.95008 526.45174 877.32266 527.10859 883.8125 531.25 C 897.3 538.2625 901.71875 557.8625 892.84375 570.1875 C 889.01875 577.275 881.175 581.11875 873.625 582.90625 C 864.1875 584.13125 854.64375 583.24375 845.15625 583.53125 C 845.13125 564.56875 845.125 545.5875 845.125 526.625 C 850.74687 527.00781 856.64994 526.53753 862.46875 526.5 z M 829.21875 526.59375 C 829.28125 545.58125 829.225 564.54375 829.25 583.53125 C 824.6 583.49375 819.98125 583.50625 815.34375 583.53125 C 815.31875 576.15625 815.325 568.78125 815.3125 561.40625 C 808.6375 561.41875 801.975 561.40625 795.3125 561.40625 C 795.3125 568.76875 795.325 576.125 795.3125 583.5 C 790.675 583.5 786.03125 583.51875 781.40625 583.53125 C 781.41875 564.56875 781.41875 545.5875 781.40625 526.625 C 786.04375 526.6125 790.70625 526.60625 795.34375 526.65625 C 795.30625 533.90625 795.35 541.1875 795.3125 548.4375 C 801.9875 548.4375 808.65625 548.4125 815.34375 548.4375 C 815.33125 541.1625 815.33125 533.9 815.34375 526.625 C 819.96875 526.65 824.58125 526.65625 829.21875 526.59375 z "
       style="fill:#ffffff" />
    <path
       style="fill:#ffffff"
       id="path3163"
       d=" M 687.36 432.02 C 692.79 431.72 699.24 431.50 703.35 435.69 C 706.64 440.51 706.69 447.53 703.46 452.40 C 699.44 456.81 692.83 456.21 687.40 456.25 C 687.34 448.17 687.41 440.10 687.36 432.02 Z"
       fill="#000000" />
  </g>
  <path
     fill="#000000"
     d=" M 310.58 676.75 C 311.38 675.66 312.19 674.57 313.02 673.52 C 313.31 678.85 313.25 684.20 313.09 689.54 C 311.85 688.35 311.22 685.85 309.09 686.16 C 298.49 686.10 287.89 686.14 277.29 686.16 C 277.27 689.23 277.27 692.31 277.32 695.40 C 283.92 695.44 290.52 695.45 297.13 695.43 C 299.27 695.76 300.39 693.63 301.81 692.47 C 301.81 697.41 301.85 702.35 301.81 707.30 C 300.84 706.51 299.93 705.62 298.91 704.92 C 291.71 704.69 284.49 704.83 277.28 704.87 C 277.28 708.46 277.26 712.05 277.34 715.64 C 287.59 715.70 297.86 715.69 308.12 715.66 C 310.26 715.76 311.51 713.64 313.13 712.59 C 313.25 717.50 313.22 722.42 313.14 727.33 C 311.48 726.54 309.99 725.09 308.02 725.25 C 291.57 725.09 275.10 725.52 258.66 725.03 C 259.94 724.26 261.25 723.56 262.56 722.85 C 262.58 708.26 262.42 693.67 262.64 679.09 C 261.27 678.42 259.90 677.75 258.59 677.00 C 275.90 676.42 293.25 676.91 310.58 676.75 Z"
     id="path3165"
     style="fill:#ffffff" />
  <path
     fill="#000000"
     d=" M 405.91 677.07 C 415.25 674.77 424.84 676.90 434.06 678.71 C 436.20 679.26 438.29 678.69 440.25 677.78 C 438.23 682.88 436.02 687.93 433.06 692.57 C 432.84 691.78 432.40 690.20 432.18 689.41 C 425.85 685.68 418.15 685.25 411.00 686.03 C 408.21 686.48 404.70 687.71 404.16 690.90 C 404.64 693.43 407.81 693.51 409.77 694.26 C 418.98 695.98 428.98 695.81 437.12 701.09 C 441.97 705.96 441.39 714.14 437.31 719.31 C 429.82 725.73 419.27 726.97 409.82 725.56 C 403.80 724.90 397.99 723.15 392.11 721.78 C 390.96 722.44 389.81 723.08 388.64 723.71 C 390.01 718.45 391.89 713.34 393.57 708.17 C 394.34 709.01 394.81 710.01 394.99 711.16 C 396.00 712.10 397.02 713.13 398.43 713.42 C 406.09 715.08 414.05 716.93 421.90 715.44 C 423.94 714.74 426.77 713.62 426.44 710.95 C 424.87 706.75 419.70 706.92 416.01 706.54 C 407.74 705.75 398.27 705.22 392.14 698.86 C 388.51 694.09 390.12 687.16 394.25 683.23 C 396.94 679.38 401.67 678.29 405.91 677.07 Z"
     id="path3167"
     style="fill:#ffffff" />
  <path
     fill="#000000"
     d=" M 24.18 676.92 C 30.82 676.60 37.48 676.73 44.12 676.84 C 43.29 677.87 41.27 678.34 41.35 679.90 C 41.27 688.28 41.31 696.67 41.34 705.05 C 41.66 708.25 42.80 712.20 46.10 713.47 C 50.53 714.59 55.26 714.64 59.69 713.52 C 63.09 712.26 65.25 708.57 64.89 704.99 C 64.77 696.26 65.13 687.50 64.72 678.78 C 64.02 678.30 62.63 677.34 61.93 676.86 C 68.55 676.67 75.19 676.70 81.81 676.83 C 80.88 677.82 78.71 678.13 78.95 679.87 C 78.76 688.61 79.01 697.37 78.86 706.12 C 78.67 711.23 76.64 716.33 72.92 719.91 C 67.50 724.63 60.06 726.18 53.04 726.20 C 45.80 726.21 38.15 724.45 32.67 719.46 C 29.03 716.02 27.99 710.81 27.70 706.02 C 27.70 696.99 27.69 687.96 27.72 678.94 C 26.53 678.27 25.34 677.60 24.18 676.92 Z"
     id="path3169"
     style="fill:#ffffff" />
  <path
     fill="#000000"
     d=" M 92.29 676.85 C 98.52 676.63 104.76 676.81 111.00 676.74 C 113.77 676.74 116.60 676.51 119.30 677.31 C 118.15 677.98 117.01 678.64 115.87 679.31 C 120.08 684.96 125.34 689.70 129.99 694.97 C 132.03 697.29 134.17 699.55 136.70 701.36 C 136.74 693.90 136.72 686.45 136.71 679.00 C 135.41 678.41 134.11 677.81 132.96 676.97 C 139.78 676.58 146.65 676.64 153.48 676.95 C 152.30 677.70 151.12 678.44 149.92 679.16 C 150.06 693.12 149.91 707.08 149.95 721.05 C 149.52 723.32 152.10 723.91 153.43 725.10 C 146.25 725.30 139.06 725.39 131.88 725.05 C 133.09 723.91 135.84 723.95 135.95 721.99 C 130.07 714.94 123.48 708.54 117.17 701.88 C 114.20 698.76 111.57 695.34 108.45 692.37 C 108.22 701.93 108.34 711.50 108.36 721.06 C 107.81 723.46 110.67 723.76 112.13 724.80 C 105.58 725.60 98.87 725.41 92.30 724.90 C 93.58 723.81 95.85 723.19 95.35 721.06 C 95.38 707.69 95.37 694.32 95.36 680.95 C 95.83 678.81 93.45 678.09 92.29 676.85 Z"
     id="path3171"
     style="fill:#ffffff" />
  <path
     fill="#000000"
     d=" M 164.46 676.96 C 172.11 676.61 179.80 676.61 187.46 676.98 C 186.12 677.72 184.67 678.28 183.42 679.18 C 183.23 693.66 183.37 708.16 183.35 722.65 C 184.56 723.66 186.06 724.23 187.41 725.06 C 179.73 725.35 172.04 725.37 164.37 725.04 C 165.83 723.82 168.96 723.55 168.60 721.07 C 168.67 707.72 168.61 694.36 168.63 681.01 C 169.21 678.41 165.88 678.29 164.46 676.96 Z"
     id="path3173"
     style="fill:#ffffff" />
  <path
     fill="#000000"
     d=" M 194.44 676.94 C 201.81 676.63 209.21 676.62 216.58 676.95 C 215.51 677.63 214.42 678.30 213.32 678.94 C 215.96 688.68 220.66 697.70 223.24 707.44 C 227.82 698.85 230.89 689.59 234.75 680.69 C 236.26 678.66 233.35 677.98 232.24 676.85 C 238.73 676.99 245.38 676.08 251.77 677.31 C 250.66 678.17 248.85 678.52 248.49 680.11 C 247.11 683.59 245.50 687.00 244.40 690.60 C 242.43 696.27 239.46 701.54 237.46 707.21 C 235.79 712.44 233.35 717.37 231.10 722.36 C 232.21 723.29 233.33 724.18 234.44 725.12 C 226.31 725.23 218.14 725.51 210.02 724.96 C 211.09 723.85 213.78 723.25 212.64 721.27 C 209.67 713.13 207.60 704.72 204.27 696.72 C 201.82 690.84 200.60 684.49 197.49 678.89 C 196.45 678.26 195.44 677.61 194.44 676.94 Z"
     id="path3175"
     style="fill:#ffffff" />
  <path
     style="fill:#ffffff"
     d="M 425.96875 845.90625 C 418.77969 845.87656 411.5875 845.89375 404.40625 846.1875 C 405.73125 847.125 407.125 848.01875 408.5 848.90625 C 408.575 867.09375 408.5375 885.28125 408.5 903.46875 C 407.3125 904.41875 406.14375 905.3875 404.96875 906.375 C 413.49375 906.5125 422.075 907 430.5625 906.125 C 429.025 905.3375 427.51875 904.50625 426.03125 903.65625 C 425.13125 897.03125 425.85625 890.2875 425.65625 883.625 C 430.28125 883.575 434.90625 883.56875 439.53125 883.65625 C 442.04375 890.41875 447.05625 895.85 449.90625 902.4375 C 450.31875 904.75 447.0625 905.025 445.8125 906.375 C 455.6 906.5 465.5 907.05 475.25 906.0625 C 472.3625 904.5125 469.2125 902.95 467.6875 899.875 C 464.8875 894.0875 460.15625 889.5375 457.46875 883.6875 C 463.86875 881.3125 469.9625 876.625 472 869.875 C 474.2875 862.575 471.05 854.4625 465.375 849.6875 C 459.8375 847.0375 453.68125 845.65625 447.53125 845.90625 C 440.34375 846.00625 433.15781 845.93594 425.96875 845.90625 z M 436.625 857.15625 C 440.25625 857.13594 443.9 857.13125 447.53125 857.3125 C 451.59375 857.3375 455.76875 860.65625 455.28125 865.03125 C 455.38125 869.69375 450.49375 872.7875 446.21875 872.625 C 439.39375 872.7625 432.575 872.63125 425.75 872.65625 C 425.6875 867.49375 425.7 862.3375 425.75 857.1875 C 429.38125 857.2125 432.99375 857.17656 436.625 857.15625 z "
     transform="scale(0.8,0.8)"
     id="path3177" />
  <path
     style="fill:#ffffff"
     d="M 596.1875 845.90625 C 591.13594 845.91094 586.08125 845.96875 581.03125 846.0625 C 581.71875 846.725 583.09375 848.05625 583.78125 848.71875 C 581.44375 854.86875 578.18125 860.59375 575.78125 866.71875 C 572.93125 874.55625 568.3875 881.675 565.8125 889.625 C 562.9125 895.3375 561.1375 901.8125 556.5625 906.5 C 563.5875 906.6 570.6 906.59375 577.625 906.46875 C 576.9875 905.75625 575.73125 904.3375 575.09375 903.625 C 576.18125 900.275 578.14375 897.3125 579.59375 894.125 C 590.21875 894.1125 600.84375 894.3 611.46875 894 C 612.95625 897.2875 614.6 900.50625 616.25 903.71875 C 615.475 904.39375 613.93125 905.7125 613.15625 906.375 C 621.33125 906.675 629.53125 906.58125 637.71875 906.46875 C 632.60625 902.99375 630.8125 896.84375 628.5 891.46875 C 626.6 886.50625 623.75 882.0125 621.5625 877.1875 C 617.6625 867.5 612.05 858.6 608.625 848.6875 L 611.34375 846.09375 C 606.3 845.95625 601.23906 845.90156 596.1875 845.90625 z M 595.0625 860.25 C 599.925 867.8 602.8375 876.3125 606.9375 884.25 C 599.225 884.225 591.525 884.31875 583.8125 884.21875 C 587.475 876.19375 591.9375 868.525 595.0625 860.25 z "
     transform="scale(0.8,0.8)"
     id="path3179" />
  <path
     fill="#000000"
     d=" M 516.94 676.91 C 524.36 676.85 531.86 676.19 539.23 677.32 C 537.90 677.88 536.58 678.44 535.25 678.99 C 535.35 690.63 535.25 702.27 535.30 713.92 C 545.92 713.91 556.53 713.91 567.15 713.92 C 567.75 712.97 568.36 712.03 568.97 711.11 C 568.89 716.73 568.69 722.38 569.08 728.00 L 568.69 728.00 C 567.85 726.74 566.80 725.12 565.07 725.29 C 549.13 725.12 533.17 725.35 517.22 725.18 C 518.41 723.88 520.89 723.18 520.62 721.05 C 520.72 707.14 520.60 693.23 520.66 679.32 C 519.41 678.52 518.16 677.71 516.94 676.91 Z"
     id="path3181"
     style="fill:#ffffff" />
</svg>
