<?xml version="1.0" encoding="UTF-8" standalone="no"?>
<!-- Created with Inkscape (http://www.inkscape.org/) -->

<svg
   xmlns:dc="http://purl.org/dc/elements/1.1/"
   xmlns:cc="http://creativecommons.org/ns#"
   xmlns:rdf="http://www.w3.org/1999/02/22-rdf-syntax-ns#"
   xmlns:svg="http://www.w3.org/2000/svg"
   xmlns="http://www.w3.org/2000/svg"
   xmlns:sodipodi="http://sodipodi.sourceforge.net/DTD/sodipodi-0.dtd"
   xmlns:inkscape="http://www.inkscape.org/namespaces/inkscape"
   version="1.1"
   width="764.5"
   height="912"
   viewBox="0 0 611.6 729.6"
   id="svg3033"
   inkscape:version="0.48.4 r9939"
   sodipodi:docname="tv.calle13.svg">
  <sodipodi:namedview
     pagecolor="#ffffff"
     bordercolor="#666666"
     borderopacity="1"
     objecttolerance="10"
     gridtolerance="10"
     guidetolerance="10"
     inkscape:pageopacity="0"
     inkscape:pageshadow="2"
     inkscape:window-width="1280"
     inkscape:window-height="747"
     id="namedview3027"
     showgrid="false"
     inkscape:zoom="4.1494505"
     inkscape:cx="82.741468"
     inkscape:cy="509.98155"
     inkscape:window-x="-8"
     inkscape:window-y="-8"
     inkscape:window-maximized="1"
     inkscape:current-layer="svg3033"
     fit-margin-top="1"
     fit-margin-left="1"
     fit-margin-right="1"
     fit-margin-bottom="1" />
  <metadata
     id="metadata3079">
    <rdf:RDF>
      <cc:Work
         rdf:about="">
        <dc:format>image/svg+xml</dc:format>
        <dc:type
           rdf:resource="http://purl.org/dc/dcmitype/StillImage" />
      </cc:Work>
    </rdf:RDF>
  </metadata>
  <defs
     id="defs3077" />
  <path
     d="m 0.8,0.8 610,0 0,728 -41.03,0 c -0.18,-5.64 -0.12,-11.29 -0.01,-16.92 -0.61,0.93 -1.21,1.88 -1.8,2.84 -10.62,-0.01 -21.24,-0.01 -31.86,0 -0.08,-11.61 0.1,-23.22 -0.09,-34.82 1.4,-0.59 2.73,-1.32 3.95,-2.23 -7.33,-0.21 -14.66,-0.15 -21.99,-0.05 1.18,1.3 3.81,1.92 3.46,4.11 0.03,13.37 0.06,26.76 -0.02,40.14 0.29,2.16 -2.25,2.83 -3.46,4.11 15.97,0.18 31.96,-0.06 47.93,0.11 1.69,-0.15 2.86,1.15 3.22,2.71 l -255.17,0 c 0.02,-5.12 0.14,-10.24 0.04,-15.35 -1.84,1.34 -3.56,3.42 -6.1,3.04 -9.91,-0.01 -19.83,0.01 -29.74,-0.04 -0.06,-3.61 -0.05,-7.21 -0.04,-10.81 7.4,-0.01 14.8,-0.1 22.19,0.07 0.52,0.68 1.54,2.05 2.06,2.74 0.5,-5 0.22,-10.04 0.31,-15.05 -1.51,1.11 -2.73,3.1 -4.86,2.81 -6.57,0.11 -13.13,0.01 -19.7,-0.02 -0.01,-3.09 -0.01,-6.17 0.01,-9.25 10.59,0.04 21.18,-0.1 31.77,0.04 2.06,-0.22 2.8,2.13 4.07,3.29 0.08,-5.34 0.15,-10.68 -0.09,-16.01 -0.83,1.08 -1.66,2.18 -2.47,3.29 -17.36,0.11 -34.72,-0.23 -52.06,0.18 1.32,0.81 2.71,1.5 4.13,2.17 -0.24,14.59 -0.06,29.19 -0.1,43.78 -1.36,0.73 -2.74,1.42 -4.08,2.19 16.51,0.41 33.03,0.04 49.54,0.18 2.17,-0.29 3.48,1.72 5.12,2.75 l -313.13,0 0,-412.4 c 1.48,11.88 8.72,22.02 16.33,30.87 9.67,10.37 19.98,20.11 29.89,30.26 9.85,9.52 19.09,19.85 30.48,27.6 7.74,4.79 16.82,8.93 26.13,6.91 7.82,-1.78 15.01,-6.04 20.76,-11.57 8.11,-7.15 15.2,-16.12 17.73,-26.83 1.4,-5.61 0.66,-11.55 -1.38,-16.89 -4.57,-12.69 -14.12,-22.73 -23.81,-31.75 -7.25,7 -14.19,14.33 -21.71,21.04 7.05,6.99 15.58,13.28 19.42,22.75 3.44,7.76 -5.42,17.71 -13.46,14.59 -4.13,-1.47 -7.64,-4.22 -10.89,-7.08 -13.33,-13.32 -26.69,-26.61 -40,-39.94 -6.44,-6.58 -13.87,-12.37 -18.68,-20.35 -2.35,-3.51 -3.11,-8.49 -0.84,-12.21 1.85,-2.48 4.6,-4.2 7.4,-5.45 4.04,-1.3 8.1,0.62 11.5,2.67 6.42,3.96 10.76,10.29 16.13,15.43 7.36,-6.81 14.12,-14.23 21.33,-21.19 -7.34,-7.7 -15.24,-15.02 -24.48,-20.38 -8.29,-4.12 -18.23,-6.1 -27.07,-2.51 -6.29,1.74 -11.39,5.94 -16.36,9.97 -8.8,7.85 -16.69,17.84 -18.42,29.84 L 0.8,0.8 z"
     inkscape:connector-curvature="0"
     id="path3035"
     style="fill:#ffffff;fill-opacity:0" />
  <path
     d="m 303.4,1.43 c 2.47,1.36 4.29,3.55 6.25,5.51 4.63,4.61 9.23,9.26 13.89,13.85 -9.78,9.41 -19.34,19.07 -28.83,28.77 7.41,8.13 15.51,15.63 23.21,23.49 6.84,-5.53 12.36,-12.45 18.95,-18.26 2.34,-2.59 4.67,-5.19 7.45,-7.33 6.35,6.28 12.66,12.6 18.96,18.93 -8.46,8.72 -17.24,17.14 -25.68,25.88 2.01,2.85 4.64,5.17 7.21,7.5 6.11,6.67 12.98,12.58 18.98,19.35 9.39,-9.95 19.26,-19.44 28.96,-29.09 6.65,6.47 13.28,12.99 19.67,19.73 -16.99,17.07 -34.11,34 -51.07,51.1 -9.89,-10.62 -20.54,-20.52 -30.64,-30.94 -26.22,-25.84 -51.93,-52.15 -78.31,-77.83 8.86,-8.01 16.92,-16.85 25.55,-25.1 8.39,-8.62 17.08,-16.93 25.45,-25.56 z"
     inkscape:connector-curvature="0"
     id="path3037"
     style="fill:#ffffff" />
  <path
     d="m 209.5,95.38 c 1.83,-2.22 4.05,-4.06 6.22,-5.94 29.95,29.37 59.45,59.24 89.19,88.85 6.49,-5.63 12.04,-12.24 18.45,-17.97 3.41,-4.11 7.77,-7.27 11.04,-11.51 6.23,6.71 13.21,12.72 19.15,19.68 -14.72,14.98 -29.74,29.67 -44.53,44.56 -1.96,2.24 -4.2,4.21 -6.57,6.01 -9.31,-8.67 -18.03,-17.95 -27.15,-26.83 -27.06,-27.06 -54.14,-54.15 -81.27,-81.16 4.83,-5.54 10.34,-10.44 15.47,-15.69 z"
     inkscape:connector-curvature="0"
     id="path3039"
     style="fill:#ffffff" />
  <path
     d="m 418.8,151.79 c 5.99,-6.14 12.3,-11.96 18.08,-18.31 6.6,7.47 13.99,14.18 20.95,21.29 9.16,9.45 18.82,18.39 27.77,28.05 -17.28,17.95 -35.2,35.25 -52.74,52.97 C 344.88,323.54 257,411.49 169.04,499.13 153.55,484 138.42,468.5 122.97,453.34 c -1,-1.1 -1.99,-2.2 -3,-3.28 99.59,-99.3 199.18,-198.79 298.83,-298.27 z"
     inkscape:connector-curvature="0"
     id="path3041"
     style="fill:#ffffff" />
  <path
     d="m 134.99,169.88 c 7.04,-7.45 14.55,-14.43 21.62,-21.85 7.44,8.57 16.06,15.98 23.83,24.23 21.77,21.78 43.62,43.44 65.39,65.28 9.78,-9.72 19.46,-19.53 29.32,-29.17 2.02,1.73 4.2,3.32 5.84,5.45 2.15,2.82 5.31,4.62 7.47,7.44 1.82,2.35 4.26,4.09 6.47,6.06 -11.9,11.23 -23.09,23.15 -34.88,34.48 -5.31,5.82 -11.37,10.92 -16.51,16.9 -35.53,-35.43 -70.98,-70.94 -106.53,-106.29 -0.7,-0.82 -1.41,-1.64 -2.02,-2.53 z"
     inkscape:connector-curvature="0"
     id="path3043"
     style="fill:#ffffff" />
  <path
     d="m 102.5,202.2 c -9.38,9.06 -18.425,18.435 -27.725,27.575 3.87,4.65 6.465,10.16 10.075,15 25.11,38.83 50.69,77.375 75.7,116.275 7.73,-7.55 15.52,-15.06 22.9,-22.95 -6.72,-9.56 -13.655,-18.995 -20.275,-28.625 -1.59,-2.11 -3.71,-4.005 -4.4,-6.625 5.89,-5.56 11.545,-11.385 17.275,-17.125 11.98,7.77 23.305,16.495 35.075,24.575 4.18,-2.81 6.89,-7.18 10.85,-10.25 3.67,-4.42 8.38,-7.79 11.9,-12.35 -5.24,-4.28 -11.325,-7.3 -16.775,-11.25 -15.55,-10.1 -31.145,-20.12 -46.625,-30.35 -2.84,-1.33 -5.23,-3.36 -7.8,-5.1 -20.21,-12.69 -39.865,-26.28 -60.175,-38.8 z m 5.875,33.725 c 5.09,2.83 9.04,7.16 13.9,10.3 10.76,8.72 22.425,16.19 33.275,24.75 -3.84,3.85 -7.495,7.885 -11.625,11.425 -12.04,-15.34 -22.56,-31.885 -35.55,-46.475 z"
     inkscape:connector-curvature="0"
     id="path3045"
     style="fill:#ffffff" />
  <path
     d="m 476.87,246.99 c 14.22,-4.35 29.26,-6.87 44.12,-4.89 6.66,0.67 13.12,2.53 19.62,4.02 5.62,1.56 10.71,4.49 16.04,6.77 21.74,11.39 39.15,30.89 47.66,53.94 1.71,6.64 3.9,13.19 4.66,20.04 1.86,13.33 0,26.93 -3.69,39.79 -1.43,7.14 -5.58,13.25 -8.79,19.66 -8.66,13.97 -19.7,26.24 -31.07,38.05 -12.87,12.92 -25.6,26.08 -40.04,37.29 -3.44,2.15 -6.66,4.67 -10.2,6.66 -6.34,2.87 -12.96,5.53 -19.99,6 -9.15,0.84 -18.21,-1.14 -27.11,-2.98 3.37,14.32 3.93,29.79 -1.85,43.58 -6.97,14.62 -18.5,26.21 -29.53,37.77 -15.75,15.63 -31.15,31.68 -48.14,45.98 -7.72,6.54 -16.15,12.3 -25.3,16.63 -16.99,6.16 -35.47,9.74 -53.49,6.57 -14,-2.45 -27.53,-7.89 -39.03,-16.27 -15.18,-10.73 -27.76,-25.26 -35.77,-42.05 -2.83,-4.72 -4.12,-10.09 -5.82,-15.27 -5.11,-15.63 -5.56,-32.84 -0.71,-48.6 2.06,-6.1 3.65,-12.45 7.19,-17.92 5.79,-11.57 14.26,-21.51 23.47,-30.49 8.64,-8.47 17.07,-17.19 25.76,-25.62 16.93,16.91 34.01,33.65 50.65,50.83 -9.48,10.24 -19.88,19.55 -29.35,29.81 -3.52,4.15 -5.62,9.38 -6.8,14.65 -2.45,16.04 13.45,31.96 29.51,29.5 6.92,-1.56 13.4,-5.06 18.3,-10.22 13.21,-12.8 26.06,-25.99 39.18,-38.9 8.17,-8.51 18,-16.42 21.75,-28.04 1.98,-7.27 -2.24,-14.06 -6.05,-19.89 -5.62,-7.22 -11.75,-14.09 -18.61,-20.13 15.29,-15.34 30.69,-30.55 45.95,-45.91 4.72,5.21 9.8,10.12 15.25,14.58 4.75,4.51 10.53,8.08 16.72,10.26 7.82,2.37 14.94,-2.6 20.94,-6.93 15.17,-14.13 29.43,-29.2 44.24,-43.67 5.75,-5.22 10.81,-11.92 11.56,-19.91 0.72,-6.6 -2.41,-12.81 -6.1,-18.04 -2.3,-2.36 -4.73,-4.6 -7.23,-6.74 -6.6,-3.94 -14.96,-5.46 -22.24,-2.47 -7.94,2.05 -12.86,9.12 -18.63,14.38 -6.88,7.05 -14.04,13.83 -20.83,20.97 -2.7,-3.98 -6.79,-6.61 -9.79,-10.3 -8,-7.71 -15.75,-15.65 -23.53,-23.56 -6.18,-5.46 -11.36,-11.94 -17.69,-17.24 12.24,-11.7 23.6,-24.3 36.32,-35.48 8.49,-7.01 18.29,-12.18 28.49,-16.21 z"
     inkscape:connector-curvature="0"
     id="path3049"
     style="fill:#ffffff" />
  <path
     d="m 35.58,272.37 c 8.84,-3.59 18.78,-1.61 27.07,2.51 9.24,5.36 17.14,12.68 24.48,20.38 -7.21,6.96 -13.97,14.38 -21.33,21.19 -5.37,-5.14 -9.71,-11.47 -16.13,-15.43 -3.4,-2.05 -7.46,-3.97 -11.5,-2.67 -2.8,1.25 -5.55,2.97 -7.4,5.45 -2.27,3.72 -1.51,8.7 0.84,12.21 4.81,7.98 12.24,13.77 18.68,20.35 13.31,13.33 26.67,26.62 40,39.94 3.25,2.86 6.76,5.61 10.89,7.08 8.04,3.12 16.9,-6.83 13.46,-14.59 -3.84,-9.47 -12.37,-15.76 -19.42,-22.75 7.52,-6.71 14.46,-14.04 21.71,-21.04 9.69,9.02 19.24,19.06 23.81,31.75 2.04,5.34 2.78,11.28 1.38,16.89 -2.53,10.71 -9.62,19.68 -17.73,26.83 -5.75,5.53 -12.94,9.79 -20.76,11.57 -9.31,2.02 -18.39,-2.12 -26.13,-6.91 C 66.11,397.38 56.87,387.05 47.02,377.53 37.11,367.38 26.8,357.64 17.13,347.27 9.52,338.42 2.28,328.28 0.8,316.4 l 0,-4.22 c 1.73,-12 9.62,-21.99 18.42,-29.84 4.97,-4.03 10.07,-8.23 16.36,-9.97 z"
     inkscape:connector-curvature="0"
     id="path3051"
     style="fill:#ffffff" />
  <path
     d="m 311.38,677.55 c 0.81,-1.11 1.64,-2.21 2.47,-3.29 0.24,5.33 0.17,10.67 0.09,16.01 -1.27,-1.16 -2.01,-3.51 -4.07,-3.29 -10.59,-0.14 -21.18,0 -31.77,-0.04 -0.02,3.08 -0.02,6.16 -0.01,9.25 6.57,0.03 13.13,0.13 19.7,0.02 2.13,0.29 3.35,-1.7 4.86,-2.81 -0.09,5.01 0.19,10.05 -0.31,15.05 -0.52,-0.69 -1.54,-2.06 -2.06,-2.74 -7.39,-0.17 -14.79,-0.08 -22.19,-0.07 -0.01,3.6 -0.02,7.2 0.04,10.81 9.91,0.05 19.83,0.03 29.74,0.04 2.54,0.38 4.26,-1.7 6.1,-3.04 0.1,5.11 -0.02,10.23 -0.04,15.35 l 0,0 c -1.64,-1.03 -2.95,-3.04 -5.12,-2.75 -16.51,-0.14 -33.03,0.23 -49.54,-0.18 1.34,-0.77 2.72,-1.46 4.08,-2.19 0.04,-14.59 -0.14,-29.19 0.1,-43.78 -1.42,-0.67 -2.81,-1.36 -4.13,-2.17 17.34,-0.41 34.7,-0.07 52.06,-0.18 z"
     inkscape:connector-curvature="0"
     id="path3053"
     style="fill:#ffffff" />
  <path
     d="m 398.19,681 c 9.11,-4.87 19.9,-4.84 29.81,-2.82 4.3,0.61 8.92,2.77 13.05,0.39 -2.03,5.1 -4.21,10.17 -7.2,14.79 -0.22,-0.79 -0.65,-2.38 -0.86,-3.17 -6.36,-3.69 -14.05,-4.15 -21.2,-3.36 -2.76,0.46 -6.21,1.65 -6.81,4.76 0.29,2.65 3.69,2.72 5.66,3.49 9.18,1.7 19.15,1.55 27.26,6.8 4.87,4.87 4.3,13.04 0.22,18.22 -3.78,3.11 -8.33,5.35 -13.2,6.08 -10.8,2.12 -21.6,-1.06 -32.02,-3.6 -1.15,0.66 -2.3,1.3 -3.46,1.94 1.37,-5.27 3.25,-10.38 4.92,-15.55 0.77,0.85 1.25,1.85 1.44,3 0.98,0.93 2,1.93 3.38,2.23 7.68,1.69 15.65,3.51 23.52,2.05 2.04,-0.71 4.76,-1.79 4.58,-4.41 -1.03,-3.17 -4.6,-4.03 -7.53,-4.23 -7.33,-0.61 -14.9,-1.08 -21.71,-4.12 -3.07,-1.69 -6.31,-4.04 -6.86,-7.77 -1.45,-5.92 2.7,-11.22 7.01,-14.72 z"
     inkscape:connector-curvature="0"
     id="path3055"
     style="fill:#ffffff" />
  <path
     d="m 25.02,677.65 c 6.7,-0.06 13.42,-0.4 20.1,0.21 -0.74,0.42 -2.22,1.27 -2.96,1.69 -0.06,8.78 -0.07,17.56 -0.02,26.33 0.32,3.17 1.45,7.08 4.7,8.37 3.93,1.04 8.09,1.14 12.08,0.43 3.78,-0.42 6.82,-4.09 6.74,-7.85 0.06,-9.17 0.04,-18.34 -0.01,-27.51 -0.76,-0.3 -2.29,-0.91 -3.05,-1.22 6.56,-1.18 13.32,-0.31 19.97,-0.49 -0.84,1.08 -3.1,1.32 -2.83,3.06 -0.16,8.7 0.06,17.41 -0.07,26.12 -0.21,6.1 -3.03,12.4 -8.32,15.71 -6.04,3.89 -13.5,4.81 -20.54,4.4 -6.46,-0.47 -13.16,-2.46 -17.84,-7.15 -3.07,-3.19 -3.99,-7.71 -4.43,-11.95 -0.16,-8.98 0.08,-17.96 -0.07,-26.93 0.21,-1.99 -2.43,-2.06 -3.45,-3.22 z"
     inkscape:connector-curvature="0"
     id="path3057"
     style="fill:#ffffff" />
  <path
     d="m 92.97,677.73 c 9.05,-0.32 18.13,-0.25 27.19,-0.04 -1.1,0.91 -2.26,1.73 -3.43,2.55 2.88,3.93 6.47,7.27 9.72,10.9 3.72,3.66 6.84,7.93 11.03,11.11 0.08,-7.49 0.04,-14.97 0.03,-22.45 -1.3,-0.59 -2.59,-1.2 -3.74,-2.03 6.84,-0.38 13.72,-0.33 20.57,-0.02 -1.09,0.9 -2.41,1.41 -3.6,2.17 0.07,13.98 -0.02,27.97 0.01,41.96 -0.4,2.26 2.19,2.85 3.5,4.03 -7.22,0.19 -14.46,0.27 -21.68,-0.05 1.53,-0.92 3.14,-1.69 4.63,-2.67 -5.72,-6.53 -11.72,-12.8 -17.8,-18.99 -3.51,-3.55 -6.51,-7.58 -10.17,-10.98 -0.21,9.54 -0.08,19.1 -0.09,28.65 -0.43,2.37 2.49,2.82 3.9,4.01 -6.62,0.3 -13.26,0.16 -19.89,0.09 1.12,-1.25 3.31,-2.06 3.01,-4.09 -0.01,-13.97 0.07,-27.94 -0.05,-41.91 -1.04,-0.77 -2.09,-1.51 -3.14,-2.24 z"
     inkscape:connector-curvature="0"
     id="path3059"
     style="fill:#ffffff" />
  <path
     d="m 165.26,677.76 c 6.16,-0.45 12.35,-0.1 18.52,-0.23 1.51,-0.16 2.95,0.22 4.32,0.82 -1.26,0.84 -4.29,0.3 -3.91,2.52 -0.16,13.66 0.04,27.33 -0.1,41 -0.65,2.59 2.69,2.76 4.18,3.99 -7.7,0.29 -15.42,0.3 -23.11,0 1.48,-1.25 4.65,-1.51 4.24,-4.08 0.06,-13.34 0.01,-26.69 0.03,-40.03 0.53,-2.53 -2.76,-2.7 -4.17,-3.99 z"
     inkscape:connector-curvature="0"
     id="path3061"
     style="fill:#ffffff" />
  <path
     d="m 195.24,677.72 c 7.38,-0.28 14.79,-0.3 22.17,0.02 -1.08,0.7 -2.17,1.36 -3.3,1.99 2.64,9.74 7.34,18.76 9.92,28.5 4.67,-8.81 7.91,-18.27 11.75,-27.44 0.98,-1.73 -2.09,-2 -2.76,-3.14 6.5,0.13 13.15,-0.76 19.56,0.45 -1.12,0.84 -2.9,1.22 -3.29,2.8 -1.39,3.49 -2.98,6.9 -4.08,10.5 -2.08,5.94 -5.23,11.44 -7.23,17.42 -1.52,5 -4.23,9.53 -5.91,14.48 1,0.93 2.11,1.74 3.17,2.63 -8.18,0.18 -16.37,0.19 -24.55,-0.01 0.89,-1.07 3.14,-1.48 2.93,-3.12 -1.14,-4.44 -3.24,-8.59 -4.17,-13.09 -1.96,-6.42 -4.73,-12.56 -6.82,-18.93 -1.04,-3.86 -2.53,-7.58 -4.35,-11.13 -1.06,-0.58 -2.08,-1.22 -3.04,-1.93 z"
     inkscape:connector-curvature="0"
     id="path3063"
     style="fill:#ffffff" />
  <path
     d="m 338.5,677.5 c -4.65006,0.0138 -9.2825,0.0875 -13.925,0.275 0.75,1.03 1.955,1.48 3.025,2.1 0.06,14.55 0.025,29.1 0.025,43.65 -0.95,0.77 -1.875,1.57 -2.775,2.4 6.8,0.15 13.625,0.245 20.425,-0.075 -1.26,-1.11 -3.82,-1.33 -3.9,-3.35 -0.21,-4.93 0,-9.87 -0.05,-14.8 3.7,-0.03 7.4,-0.04 11.1,0.05 1.97,5.84 6.945,10.22 8.425,16.25 -1.21,0.54 -2.4,1.17 -3.55,1.85 7.94,0.36 15.91,0.26 23.85,0.05 -2.52,-1.49 -5.3,-2.99 -6.55,-5.8 -2.17,-4.39 -5.795,-7.87 -7.825,-12.35 4.55,-1.68 8.655,-4.725 10.925,-9.075 2.13,-4.68 1.56,-10.375 -1.45,-14.525 -2.75,-5.16 -9.28,-5.98 -14.5,-6.55 -7.74375,0.025 -15.4999,-0.12305 -23.25,-0.1 z m 11.6,9.025 c 2.90375,-0.0175 5.8,-0.02 8.7,0.125 2.88,0.07 6.05,2.07 6.2,5.2 0.67,3.64 -2.695,6.755 -6.125,6.975 -5.82,0.29 -11.655,0.03 -17.475,0.1 -0.05,-4.13 -0.055,-8.24 -0.025,-12.35 2.905,0.015 5.82125,-0.0325 8.725,-0.05 z"
     inkscape:connector-curvature="0"
     id="path3065"
     style="fill:#ffffff" />
  <path
     d="m 477.75,677.5 c -4.01375,0.0162 -8.04,0.105 -12.05,0.15 0.53,0.54 1.595,1.61 2.125,2.15 -1.87,4.91 -4.48,9.51 -6.4,14.4 -2.28,6.27 -5.93,11.95 -8,18.3 -2.3,4.57 -3.735,9.74 -7.375,13.5 5.73,0.04 11.47,0.17 17.2,-0.1 -0.63,-0.46 -1.895,-1.39 -2.525,-1.85 1.04,-2.74 2.47,-5.32 3.75,-7.95 8.49,0 16.995,0.15 25.475,-0.1 1.15,2.57 2.6,5.02 3.65,7.65 -0.69,0.79 -1.395,1.555 -2.125,2.325 6.51,0.09 13.03,0.105 19.55,-0.025 -3.44,-2.21 -4.965,-6.075 -6.475,-9.675 -1.7,-4.81 -4.365,-9.185 -6.525,-13.775 -3.13,-7.75 -7.595,-14.855 -10.325,-22.775 0.52,-0.48 1.555,-1.445 2.075,-1.925 -4.005,-0.26 -8.01125,-0.31625 -12.025,-0.3 z m -0.825,11.6 c 3.8,6.04 6.155,12.78 9.425,19.1 -6.18,-0.02 -12.33,0.045 -18.5,-0.025 2.96,-6.4 6.345,-12.575 9.075,-19.075 z"
     inkscape:connector-curvature="0"
     id="path3067"
     style="fill:#ffffff" />
  <path
     d="m 517.97,677.62 c 7.33,-0.1 14.66,-0.16 21.99,0.05 -1.22,0.91 -2.55,1.64 -3.95,2.23 0.19,11.6 0.01,23.21 0.09,34.82 10.62,-0.01 21.24,-0.01 31.86,0 0.59,-0.96 1.19,-1.91 1.8,-2.84 -0.11,5.63 -0.17,11.28 0.01,16.92 l -0.67,0 c -0.36,-1.56 -1.53,-2.86 -3.22,-2.71 -15.97,-0.17 -31.96,0.07 -47.93,-0.11 1.21,-1.28 3.75,-1.95 3.46,-4.11 0.08,-13.38 0.05,-26.77 0.02,-40.14 0.35,-2.19 -2.28,-2.81 -3.46,-4.11 z"
     inkscape:connector-curvature="0"
     id="path3069"
     style="fill:#ffffff" />
</svg>
