<?xml version="1.0" encoding="UTF-8" standalone="no"?>
<!-- Created with Inkscape (http://www.inkscape.org/) -->

<svg
   xmlns:dc="http://purl.org/dc/elements/1.1/"
   xmlns:cc="http://creativecommons.org/ns#"
   xmlns:rdf="http://www.w3.org/1999/02/22-rdf-syntax-ns#"
   xmlns:svg="http://www.w3.org/2000/svg"
   xmlns="http://www.w3.org/2000/svg"
   xmlns:sodipodi="http://sodipodi.sourceforge.net/DTD/sodipodi-0.dtd"
   xmlns:inkscape="http://www.inkscape.org/namespaces/inkscape"
   version="1.1"
   width="533"
   height="263"
   id="svg2"
   inkscape:version="0.48.4 r9939"
   sodipodi:docname="tv.canalhollywood.svg">
  <sodipodi:namedview
     pagecolor="#ffffff"
     bordercolor="#666666"
     borderopacity="1"
     objecttolerance="10"
     gridtolerance="10"
     guidetolerance="10"
     inkscape:pageopacity="0"
     inkscape:pageshadow="2"
     inkscape:window-width="1280"
     inkscape:window-height="747"
     id="namedview3025"
     showgrid="false"
     inkscape:zoom="1.9846749"
     inkscape:cx="183.11103"
     inkscape:cy="131.5"
     inkscape:window-x="-8"
     inkscape:window-y="-8"
     inkscape:window-maximized="1"
     inkscape:current-layer="layer1" />
  <metadata
     id="metadata23">
    <rdf:RDF>
      <cc:Work
         rdf:about="">
        <dc:format>image/svg+xml</dc:format>
        <dc:type
           rdf:resource="http://purl.org/dc/dcmitype/StillImage" />
      </cc:Work>
    </rdf:RDF>
  </metadata>
  <defs
     id="defs21" />
  <g
     inkscape:groupmode="layer"
     id="layer1"
     inkscape:label="Capa">
    <path
       style="fill:#ffffff;fill-opacity:1;stroke:none"
       d="m 166.05304,99.57437 -93.214261,38.79729 21.162157,51.39381 90.191094,-39.30115 z"
       id="path3821"
       inkscape:connector-curvature="0"
       sodipodi:nodetypes="ccccc" />
  </g>
  <path
     style="fill:#7b7c7e"
     id="path829"
     inkscape:connector-curvature="0"
     d="m 151.1993,263.00012 c -8.94093,0 -12.69201,-7.7077 -12.69201,-23.88101 0,-17.3937 4.3677,-26.12909 13.30862,-26.12909 7.64347,0 11.80562,5.79361 11.80562,16.91839 v 1.09192 h -9.14646 v -2.24808 c 0,-5.72938 -0.55239,-8.52985 -2.80047,-8.52985 -3.19869,0 -3.60977,6.14047 -3.60977,19.51332 0,10.23839 0.47531,15.00432 3.67401,15.00432 2.46646,0 3.4813,-3.40424 3.4813,-10.43109 v -0.68084 h 8.26009 c -0.20554,12.96177 -4.22639,19.37201 -12.28093,19.37201" />
  <path
     style="fill:#7b7c7e"
     id="path831"
     inkscape:connector-curvature="0"
     d="m 171.32923,213.94063 h 12.34516 l 6.21754,48.1731 h -8.32431 l -1.37454,-10.30262 h -6.88554 l -1.23323,10.30262 h -7.56639 l 6.82131,-48.1731 z m 7.91323,29.95725 -2.51784,-21.35032 -2.5307,21.35032 h 5.04854 z" />
  <path
     style="fill:#7b7c7e"
     id="path833"
     inkscape:connector-curvature="0"
     d="m 192.47401,213.94063 h 8.52985 l 5.79362,16.9184 c 1.09192,3.21154 2.05538,6.28177 2.46646,9.352 v -26.2704 h 7.50216 v 48.1731 h -7.23239 l -6.61577,-18.62693 c -1.169,-3.21154 -2.26093,-6.42308 -2.94177,-9.76308 v 28.39001 h -7.50216 v -48.1731 z" />
  <path
     style="fill:#7b7c7e"
     id="path835"
     inkscape:connector-curvature="0"
     d="m 226.24656,213.94063 h 12.34516 l 6.21754,48.1731 h -8.32431 l -1.37454,-10.30262 h -6.88554 l -1.23323,10.30262 h -7.56639 l 6.82131,-48.1731 z m 7.91324,29.95725 -2.51785,-21.35032 -2.53069,21.35032 h 5.04854 z" />
  <polygon
     style="fill:#7b7c7e"
     id="polygon837"
     transform="matrix(12.84616,0,0,12.84616,-413.77482,-2278.5741)"
     points="52.19,194.028 52.19,197.162 53.094,197.162 53.094,197.778 51.469,197.778 51.469,194.028 " />
  <polygon
     id="polygon839"
     transform="matrix(12.84616,0,0,12.84616,-413.77482,-2278.5741)"
     points="55.133,197.778 55.133,196.153 54.708,196.153 54.708,197.778 53.986,197.778 53.986,194.028 54.708,194.028 54.708,195.537 55.133,195.537 55.133,194.028 55.856,194.028 55.856,197.778 "
     style="fill:#ffffff" />
  <path
     id="path841"
     inkscape:connector-curvature="0"
     d="m 321.42376,213.05425 c 9.48047,0 13.16732,8.11877 13.16732,24.97293 0,16.85416 -3.62262,24.97294 -13.10309,24.97294 -9.82731,0 -13.51416,-7.97747 -13.51416,-24.97294 0.0128,-16.98262 3.63547,-24.97293 13.44993,-24.97293 m 3.41708,26.68147 c 0,-12.96177 -0.26977,-18.8967 -3.48131,-18.8967 -3.40423,0 -3.60977,5.52385 -3.60977,17.53501 0,11.45877 0.334,16.58439 3.68685,16.58439 2.78762,0 3.40423,-4.98431 3.40423,-15.2227"
     style="fill:#ffffff" />
  <polygon
     id="polygon843"
     transform="matrix(12.84616,0,0,12.84616,-413.77482,-2278.5741)"
     points="59.307,194.028 59.307,197.162 60.21,197.162 60.21,197.778 58.585,197.778 58.585,194.028 "
     style="fill:#ffffff" />
  <polygon
     id="polygon845"
     transform="matrix(12.84616,0,0,12.84616,-413.77482,-2278.5741)"
     points="61.086,194.028 61.086,197.162 61.99,197.162 61.99,197.778 60.365,197.778 60.365,194.028 "
     style="fill:#ffffff" />
  <polygon
     id="polygon847"
     transform="matrix(12.84616,0,0,12.84616,-413.77482,-2278.5741)"
     points="62.925,195.437 63.35,194.028 63.934,194.028 63.196,196.264 63.196,197.778 62.468,197.778 62.468,196.264 61.847,194.028 62.569,194.028 "
     style="fill:#ffffff" />
  <path
     id="path849"
     inkscape:connector-curvature="0"
     d="m 416.12565,213.94063 1.91408,20.3997 c 0.334,3.27578 0.53954,6.55155 0.68085,9.82732 0.20554,-4.49616 0.82215,-7.91324 1.15615,-10.30262 l 2.8647,-19.9244 h 8.52985 l 2.86469,19.9244 c 0.28262,2.04254 0.88639,5.45961 1.09192,10.30262 0.20554,-4.77877 0.47531,-8.05455 0.68085,-9.82732 l 2.59493,-20.3997 h 6.88554 l -6.74424,48.1731 h -8.40139 l -2.92892,-22.17247 c -0.53954,-4.23923 -0.88639,-8.26008 -1.02769,-12.07539 0,4.56039 -0.74508,8.52985 -1.29747,12.07539 l -3.26292,22.17247 h -8.52985 l -5.53669,-48.1731 h 8.46561 z"
     style="fill:#ffffff" />
  <path
     id="path851"
     inkscape:connector-curvature="0"
     d="m 460.53483,213.05425 c 9.49331,0 13.16731,8.11877 13.16731,24.97293 0,16.85416 -3.60977,24.97294 -13.09023,24.97294 -9.82732,0 -13.51416,-7.97747 -13.51416,-24.97294 0,-16.98262 3.62261,-24.97293 13.43708,-24.97293 m 3.41708,26.68147 c 0,-12.96177 -0.26977,-18.8967 -3.48131,-18.8967 -3.40423,0 -3.60977,5.52385 -3.60977,17.53501 0,11.45877 0.334,16.58439 3.674,16.58439 2.80046,0 3.41708,-4.98431 3.41708,-15.2227"
     style="fill:#ffffff" />
  <path
     id="path853"
     inkscape:connector-curvature="0"
     d="m 490.415,213.05425 c 9.49331,0 13.16731,8.11877 13.16731,24.97293 0,16.85416 -3.60977,24.97294 -13.09024,24.97294 -9.82731,0 -13.51416,-7.97747 -13.51416,-24.97294 0,-16.98262 3.62262,-24.97293 13.43709,-24.97293 m 3.41708,26.68147 c 0,-12.96177 -0.26977,-18.8967 -3.48131,-18.8967 -3.41708,0 -3.60977,5.52385 -3.60977,17.53501 0,11.45877 0.334,16.58439 3.674,16.58439 2.80046,0 3.41708,-4.98431 3.41708,-15.2227"
     style="fill:#ffffff" />
  <path
     id="path855"
     inkscape:connector-curvature="0"
     d="m 507.82154,213.95348 h 10.22555 c 11.60008,0 14.95293,7.15531 14.95293,24.0737 0,16.99547 -3.27577,24.08655 -14.95293,24.08655 h -10.22555 v -48.16025 z m 9.27493,40.18279 c 0.34685,0.0642 0.74508,0.0642 1.02769,0.0642 4.77878,0 5.11278,-4.63747 5.11278,-15.08139 0,-8.51701 -0.14131,-13.50132 -1.15616,-15.14563 -0.88638,-1.36169 -2.32515,-2.04254 -4.36769,-2.04254 h -0.61662 v 32.20533 z"
     style="fill:#ffffff" />
  <path
     style="fill:#009dd5"
     d="M 73.25 0 L 80.90625 112.5625 L 0 153 L 83 168.09375 L 96.5 263 L 139.40625 187.8125 L 245 200.75 L 179.71875 129.4375 L 263 4.125 L 141.375 79.28125 L 73.25 0 z M 157.0625 108.53125 C 163.97059 108.42597 168.62933 114.34861 173.6875 126.5625 C 180.18766 142.26051 179.87168 150.09204 169.09375 154.5625 L 159.65625 158.46875 L 141.21875 113.96875 L 150.6875 110.03125 C 153.03112 109.06177 155.12824 108.56073 157.0625 108.53125 z M 138.25 115.21875 L 150.46875 162.28125 L 142.6875 165.5 L 131.5 146.125 C 129.38038 142.42531 127.53042 138.85631 125.9375 135.375 C 127.68458 139.60138 128.51431 143.54994 129.375 147.03125 L 134.8125 168.75 L 126.9375 172.03125 L 103.40625 129.65625 L 111.21875 126.40625 L 120.78125 144.53125 C 122.34848 147.42164 123.81296 150.37629 125.1875 153.34375 C 123.6588 149.10452 122.90343 145.713 122.3125 143.375 L 117.3125 123.875 L 125.1875 120.625 L 135.46875 137.90625 C 136.50929 139.69186 138.37656 142.60661 140.40625 147 C 138.77479 142.51669 137.80066 139.40889 137.3125 137.6875 L 131.90625 117.84375 L 138.25 115.21875 z M 155.40625 117.03125 C 154.77917 117.08371 154.11439 117.26865 153.40625 117.5625 L 152.84375 117.78125 L 165.15625 147.53125 C 165.5031 147.46702 165.86808 147.32152 166.125 147.21875 C 170.53123 145.38175 169.08891 140.94712 165.09375 131.3125 C 161.83083 123.42496 159.79882 118.89886 158.21875 117.78125 C 157.38375 117.20318 156.45138 116.94381 155.40625 117.03125 z M 100.4375 130.875 L 118.875 175.375 L 110.3125 178.9375 L 102.3125 159.625 L 97.25 161.71875 L 105.25 181.03125 L 96.6875 184.5625 L 78.25 140.0625 L 86.8125 136.5 L 94.21875 154.40625 L 99.28125 152.3125 L 91.875 134.4375 L 100.4375 130.875 z "
     id="path857" />
</svg>
