<?xml version="1.0" encoding="UTF-8" standalone="no"?>
<svg
   xmlns:dc="http://purl.org/dc/elements/1.1/"
   xmlns:cc="http://creativecommons.org/ns#"
   xmlns:rdf="http://www.w3.org/1999/02/22-rdf-syntax-ns#"
   xmlns:svg="http://www.w3.org/2000/svg"
   xmlns="http://www.w3.org/2000/svg"
   xmlns:sodipodi="http://sodipodi.sourceforge.net/DTD/sodipodi-0.dtd"
   xmlns:inkscape="http://www.inkscape.org/namespaces/inkscape"
   width="610pt"
   height="728pt"
   viewBox="0 0 610 728"
   version="1.1"
   id="svg3033"
   inkscape:version="0.48.4 r9939"
   sodipodi:docname="tv.calle13.svg">
  <metadata
     id="metadata3079">
    <rdf:RDF>
      <cc:Work
         rdf:about="">
        <dc:format>image/svg+xml</dc:format>
        <dc:type
           rdf:resource="http://purl.org/dc/dcmitype/StillImage" />
      </cc:Work>
    </rdf:RDF>
  </metadata>
  <defs
     id="defs3077" />
  <sodipodi:namedview
     pagecolor="#ffffff"
     objecttolerance="10"
     gridtolerance="10"
     guidetolerance="10"
     inkscape:pageopacity="0"
     inkscape:pageshadow="2"
     inkscape:window-width="1280"
     inkscape:window-height="747"
     id="namedview3075"
     showgrid="false"
     inkscape:zoom="0.25934066"
     inkscape:cx="424.07551"
     inkscape:cy="75.445862"
     inkscape:window-x="-8"
     inkscape:window-y="-8"
     inkscape:window-maximized="1"
     inkscape:current-layer="svg3033" />
  <path
     fill="#ffffff"
     d=" M 0.00 0.00 L 610.00 0.00 L 610.00 728.00 L 568.97 728.00 C 568.79 722.36 568.85 716.71 568.96 711.08 C 568.35 712.01 567.75 712.96 567.16 713.92 C 556.54 713.91 545.92 713.91 535.30 713.92 C 535.22 702.31 535.40 690.70 535.21 679.10 C 536.61 678.51 537.94 677.78 539.16 676.87 C 531.83 676.66 524.50 676.72 517.17 676.82 C 518.35 678.12 520.98 678.74 520.63 680.93 C 520.66 694.30 520.69 707.69 520.61 721.07 C 520.90 723.23 518.36 723.90 517.15 725.18 C 533.12 725.36 549.11 725.12 565.08 725.29 C 566.77 725.14 567.94 726.44 568.30 728.00 L 313.13 728.00 C 313.15 722.88 313.27 717.76 313.17 712.65 C 311.33 713.99 309.61 716.07 307.07 715.69 C 297.16 715.68 287.24 715.70 277.33 715.65 C 277.27 712.04 277.28 708.44 277.29 704.84 C 284.69 704.83 292.09 704.74 299.48 704.91 C 300.00 705.59 301.02 706.96 301.54 707.65 C 302.04 702.65 301.76 697.61 301.85 692.60 C 300.34 693.71 299.12 695.70 296.99 695.41 C 290.42 695.52 283.86 695.42 277.29 695.39 C 277.28 692.30 277.28 689.22 277.30 686.14 C 287.89 686.18 298.48 686.04 309.07 686.18 C 311.13 685.96 311.87 688.31 313.14 689.47 C 313.22 684.13 313.29 678.79 313.05 673.46 C 312.22 674.54 311.39 675.64 310.58 676.75 C 293.22 676.86 275.86 676.52 258.52 676.93 C 259.84 677.74 261.23 678.43 262.65 679.10 C 262.41 693.69 262.59 708.29 262.55 722.88 C 261.19 723.61 259.81 724.30 258.47 725.07 C 274.98 725.48 291.50 725.11 308.01 725.25 C 310.18 724.96 311.49 726.97 313.13 728.00 L 0.00 728.00 L 0.00 315.60 C 1.48 327.48 8.72 337.62 16.33 346.47 C 26.00 356.84 36.31 366.58 46.22 376.73 C 56.07 386.25 65.31 396.58 76.70 404.33 C 84.44 409.12 93.52 413.26 102.83 411.24 C 110.65 409.46 117.84 405.20 123.59 399.67 C 131.70 392.52 138.79 383.55 141.32 372.84 C 142.72 367.23 141.98 361.29 139.94 355.95 C 135.37 343.26 125.82 333.22 116.13 324.20 C 108.88 331.20 101.94 338.53 94.42 345.24 C 101.47 352.23 110.00 358.52 113.84 367.99 C 117.28 375.75 108.42 385.70 100.38 382.58 C 96.25 381.11 92.74 378.36 89.49 375.50 C 76.16 362.18 62.80 348.89 49.49 335.56 C 43.05 328.98 35.62 323.19 30.81 315.21 C 28.46 311.70 27.70 306.72 29.97 303.00 C 31.82 300.52 34.57 298.80 37.37 297.55 C 41.41 296.25 45.47 298.17 48.87 300.22 C 55.29 304.18 59.63 310.51 65.00 315.65 C 72.36 308.84 79.12 301.42 86.33 294.46 C 78.99 286.76 71.09 279.44 61.85 274.08 C 53.56 269.96 43.62 267.98 34.78 271.57 C 28.49 273.31 23.39 277.51 18.42 281.54 C 9.62 289.39 1.73 299.38 0.00 311.38 L 0.00 0.00 Z"
     id="path3035" />
  <path
     fill="#000000"
     d=" M 302.60 0.63 C 305.07 1.99 306.89 4.18 308.85 6.14 C 313.48 10.75 318.08 15.40 322.74 19.99 C 312.96 29.40 303.40 39.06 293.91 48.76 C 301.32 56.89 309.42 64.39 317.12 72.25 C 323.96 66.72 329.48 59.80 336.07 53.99 C 338.41 51.40 340.74 48.80 343.52 46.66 C 349.87 52.94 356.18 59.26 362.48 65.59 C 354.02 74.31 345.24 82.73 336.80 91.47 C 338.81 94.32 341.44 96.64 344.01 98.97 C 350.12 105.64 356.99 111.55 362.99 118.32 C 372.38 108.37 382.25 98.88 391.95 89.23 C 398.60 95.70 405.23 102.22 411.62 108.96 C 394.63 126.03 377.51 142.96 360.55 160.06 C 350.66 149.44 340.01 139.54 329.91 129.12 C 303.69 103.28 277.98 76.97 251.60 51.29 C 260.46 43.28 268.52 34.44 277.15 26.19 C 285.54 17.57 294.23 9.26 302.60 0.63 Z"
     id="path3037"
     style="fill:#ffffff" />
  <path
     fill="#000000"
     d=" M 208.70 94.58 C 210.53 92.36 212.75 90.52 214.92 88.64 C 244.87 118.01 274.37 147.88 304.11 177.49 C 310.60 171.86 316.15 165.25 322.56 159.52 C 325.97 155.41 330.33 152.25 333.60 148.01 C 339.83 154.72 346.81 160.73 352.75 167.69 C 338.03 182.67 323.01 197.36 308.22 212.25 C 306.26 214.49 304.02 216.46 301.65 218.26 C 292.34 209.59 283.62 200.31 274.50 191.43 C 247.44 164.37 220.36 137.28 193.23 110.27 C 198.06 104.73 203.57 99.83 208.70 94.58 Z"
     id="path3039"
     style="fill:#ffffff" />
  <path
     fill="#000000"
     d=" M 418.00 150.99 C 423.99 144.85 430.30 139.03 436.08 132.68 C 442.68 140.15 450.07 146.86 457.03 153.97 C 466.19 163.42 475.85 172.36 484.80 182.02 C 467.52 199.97 449.60 217.27 432.06 234.99 C 344.08 322.74 256.20 410.69 168.24 498.33 C 152.75 483.20 137.62 467.70 122.17 452.54 C 121.17 451.44 120.18 450.34 119.17 449.26 C 218.76 349.96 318.35 250.47 418.00 150.99 Z"
     id="path3041"
     style="fill:#ffffff" />
  <path
     fill="#000000"
     d=" M 134.19 169.08 C 141.23 161.63 148.74 154.65 155.81 147.23 C 163.25 155.80 171.87 163.21 179.64 171.46 C 201.41 193.24 223.26 214.90 245.03 236.74 C 254.81 227.02 264.49 217.21 274.35 207.57 C 276.37 209.30 278.55 210.89 280.19 213.02 C 282.34 215.84 285.50 217.64 287.66 220.46 C 289.48 222.81 291.92 224.55 294.13 226.52 C 282.23 237.75 271.04 249.67 259.25 261.00 C 253.94 266.82 247.88 271.92 242.74 277.90 C 207.21 242.47 171.76 206.96 136.21 171.61 C 135.51 170.79 134.80 169.97 134.19 169.08 Z"
     id="path3043"
     style="fill:#ffffff" />
  <path
     style="fill:#ffffff"
     d="M 127.125 251.75 C 115.4 263.075 104.09375 274.79375 92.46875 286.21875 C 97.30625 292.03125 100.55 298.91875 105.0625 304.96875 C 136.45 353.50625 168.425 401.6875 199.6875 450.3125 C 209.35 440.875 219.0875 431.4875 228.3125 421.625 C 219.9125 409.675 211.24375 397.88125 202.96875 385.84375 C 200.98125 383.20625 198.33125 380.8375 197.46875 377.5625 C 204.83125 370.6125 211.9 363.33125 219.0625 356.15625 C 234.0375 365.86875 248.19375 376.775 262.90625 386.875 C 268.13125 383.3625 271.51875 377.9 276.46875 374.0625 C 281.05625 368.5375 286.94375 364.325 291.34375 358.625 C 284.79375 353.275 277.1875 349.5 270.375 344.5625 C 250.9375 331.9375 231.44375 319.4125 212.09375 306.625 C 208.54375 304.9625 205.55625 302.425 202.34375 300.25 C 177.08125 284.3875 152.5125 267.4 127.125 251.75 z M 134.46875 293.90625 C 140.83125 297.44375 145.76875 302.85625 151.84375 306.78125 C 165.29375 317.68125 179.875 327.01875 193.4375 337.71875 C 188.6375 342.53125 184.06875 347.575 178.90625 352 C 163.85625 332.825 150.70625 312.14375 134.46875 293.90625 z "
     id="path3045"
     transform="scale(0.8,0.8)" />
  <path
     fill="#000000"
     d=" M 476.07 246.19 C 490.29 241.84 505.33 239.32 520.19 241.30 C 526.85 241.97 533.31 243.83 539.81 245.32 C 545.43 246.88 550.52 249.81 555.85 252.09 C 577.59 263.48 595.00 282.98 603.51 306.03 C 605.22 312.67 607.41 319.22 608.17 326.07 C 610.03 339.40 608.17 353.00 604.48 365.86 C 603.05 373.00 598.90 379.11 595.69 385.52 C 587.03 399.49 575.99 411.76 564.62 423.57 C 551.75 436.49 539.02 449.65 524.58 460.86 C 521.14 463.01 517.92 465.53 514.38 467.52 C 508.04 470.39 501.42 473.05 494.39 473.52 C 485.24 474.36 476.18 472.38 467.28 470.54 C 470.65 484.86 471.21 500.33 465.43 514.12 C 458.46 528.74 446.93 540.33 435.90 551.89 C 420.15 567.52 404.75 583.57 387.76 597.87 C 380.04 604.41 371.61 610.17 362.46 614.50 C 345.47 620.66 326.99 624.24 308.97 621.07 C 294.97 618.62 281.44 613.18 269.94 604.80 C 254.76 594.07 242.18 579.54 234.17 562.75 C 231.34 558.03 230.05 552.66 228.35 547.48 C 223.24 531.85 222.79 514.64 227.64 498.88 C 229.70 492.78 231.29 486.43 234.83 480.96 C 240.62 469.39 249.09 459.45 258.30 450.47 C 266.94 442.00 275.37 433.28 284.06 424.85 C 300.99 441.76 318.07 458.50 334.71 475.68 C 325.23 485.92 314.83 495.23 305.36 505.49 C 301.84 509.64 299.74 514.87 298.56 520.14 C 296.11 536.18 312.01 552.10 328.07 549.64 C 334.99 548.08 341.47 544.58 346.37 539.42 C 359.58 526.62 372.43 513.43 385.55 500.52 C 393.72 492.01 403.55 484.10 407.30 472.48 C 409.28 465.21 405.06 458.42 401.25 452.59 C 395.63 445.37 389.50 438.50 382.64 432.46 C 397.93 417.12 413.33 401.91 428.59 386.55 C 433.31 391.76 438.39 396.67 443.84 401.13 C 448.59 405.64 454.37 409.21 460.56 411.39 C 468.38 413.76 475.50 408.79 481.50 404.46 C 496.67 390.33 510.93 375.26 525.74 360.79 C 531.49 355.57 536.55 348.87 537.30 340.88 C 538.02 334.28 534.89 328.07 531.20 322.84 C 528.90 320.48 526.47 318.24 523.97 316.10 C 517.37 312.16 509.01 310.64 501.73 313.63 C 493.79 315.68 488.87 322.75 483.10 328.01 C 476.22 335.06 469.06 341.84 462.27 348.98 C 459.57 345.00 455.48 342.37 452.48 338.68 C 444.48 330.97 436.73 323.03 428.95 315.12 C 422.77 309.66 417.59 303.18 411.26 297.88 C 423.50 286.18 434.86 273.58 447.58 262.40 C 456.07 255.39 465.87 250.22 476.07 246.19 Z"
     id="path3049"
     style="fill:#ffffff" />
  <path
     fill="#000000"
     d=" M 34.78 271.57 C 43.62 267.98 53.56 269.96 61.85 274.08 C 71.09 279.44 78.99 286.76 86.33 294.46 C 79.12 301.42 72.36 308.84 65.00 315.65 C 59.63 310.51 55.29 304.18 48.87 300.22 C 45.47 298.17 41.41 296.25 37.37 297.55 C 34.57 298.80 31.82 300.52 29.97 303.00 C 27.70 306.72 28.46 311.70 30.81 315.21 C 35.62 323.19 43.05 328.98 49.49 335.56 C 62.80 348.89 76.16 362.18 89.49 375.50 C 92.74 378.36 96.25 381.11 100.38 382.58 C 108.42 385.70 117.28 375.75 113.84 367.99 C 110.00 358.52 101.47 352.23 94.42 345.24 C 101.94 338.53 108.88 331.20 116.13 324.20 C 125.82 333.22 135.37 343.26 139.94 355.95 C 141.98 361.29 142.72 367.23 141.32 372.84 C 138.79 383.55 131.70 392.52 123.59 399.67 C 117.84 405.20 110.65 409.46 102.83 411.24 C 93.52 413.26 84.44 409.12 76.70 404.33 C 65.31 396.58 56.07 386.25 46.22 376.73 C 36.31 366.58 26.00 356.84 16.33 346.47 C 8.72 337.62 1.48 327.48 0.00 315.60 L 0.00 311.38 C 1.73 299.38 9.62 289.39 18.42 281.54 C 23.39 277.51 28.49 273.31 34.78 271.57 Z"
     id="path3051"
     style="fill:#ffffff" />
  <path
     fill="#000000"
     d=" M 310.58 676.75 C 311.39 675.64 312.22 674.54 313.05 673.46 C 313.29 678.79 313.22 684.13 313.14 689.47 C 311.87 688.31 311.13 685.96 309.07 686.18 C 298.48 686.04 287.89 686.18 277.30 686.14 C 277.28 689.22 277.28 692.30 277.29 695.39 C 283.86 695.42 290.42 695.52 296.99 695.41 C 299.12 695.70 300.34 693.71 301.85 692.60 C 301.76 697.61 302.04 702.65 301.54 707.65 C 301.02 706.96 300.00 705.59 299.48 704.91 C 292.09 704.74 284.69 704.83 277.29 704.84 C 277.28 708.44 277.27 712.04 277.33 715.65 C 287.24 715.70 297.16 715.68 307.07 715.69 C 309.61 716.07 311.33 713.99 313.17 712.65 C 313.27 717.76 313.15 722.88 313.13 728.00 L 313.13 728.00 C 311.49 726.97 310.18 724.96 308.01 725.25 C 291.50 725.11 274.98 725.48 258.47 725.07 C 259.81 724.30 261.19 723.61 262.55 722.88 C 262.59 708.29 262.41 693.69 262.65 679.10 C 261.23 678.43 259.84 677.74 258.52 676.93 C 275.86 676.52 293.22 676.86 310.58 676.75 Z"
     id="path3053"
     style="fill:#ffffff" />
  <path
     fill="#000000"
     d=" M 397.39 680.20 C 406.50 675.33 417.29 675.36 427.20 677.38 C 431.50 677.99 436.12 680.15 440.25 677.77 C 438.22 682.87 436.04 687.94 433.05 692.56 C 432.83 691.77 432.40 690.18 432.19 689.39 C 425.83 685.70 418.14 685.24 410.99 686.03 C 408.23 686.49 404.78 687.68 404.18 690.79 C 404.47 693.44 407.87 693.51 409.84 694.28 C 419.02 695.98 428.99 695.83 437.10 701.08 C 441.97 705.95 441.40 714.12 437.32 719.30 C 433.54 722.41 428.99 724.65 424.12 725.38 C 413.32 727.50 402.52 724.32 392.10 721.78 C 390.95 722.44 389.80 723.08 388.64 723.72 C 390.01 718.45 391.89 713.34 393.56 708.17 C 394.33 709.02 394.81 710.02 395.00 711.17 C 395.98 712.10 397.00 713.10 398.38 713.40 C 406.06 715.09 414.03 716.91 421.90 715.45 C 423.94 714.74 426.66 713.66 426.48 711.04 C 425.45 707.87 421.88 707.01 418.95 706.81 C 411.62 706.20 404.05 705.73 397.24 702.69 C 394.17 701.00 390.93 698.65 390.38 694.92 C 388.93 689.00 393.08 683.70 397.39 680.20 Z"
     id="path3055"
     style="fill:#ffffff" />
  <path
     fill="#000000"
     d=" M 24.22 676.85 C 30.92 676.79 37.64 676.45 44.32 677.06 C 43.58 677.48 42.10 678.33 41.36 678.75 C 41.30 687.53 41.29 696.31 41.34 705.08 C 41.66 708.25 42.79 712.16 46.04 713.45 C 49.97 714.49 54.13 714.59 58.12 713.88 C 61.90 713.46 64.94 709.79 64.86 706.03 C 64.92 696.86 64.90 687.69 64.85 678.52 C 64.09 678.22 62.56 677.61 61.80 677.30 C 68.36 676.12 75.12 676.99 81.77 676.81 C 80.93 677.89 78.67 678.13 78.94 679.87 C 78.78 688.57 79.00 697.28 78.87 705.99 C 78.66 712.09 75.84 718.39 70.55 721.70 C 64.51 725.59 57.05 726.51 50.01 726.10 C 43.55 725.63 36.85 723.64 32.17 718.95 C 29.10 715.76 28.18 711.24 27.74 707.00 C 27.58 698.02 27.82 689.04 27.67 680.07 C 27.88 678.08 25.24 678.01 24.22 676.85 Z"
     id="path3057"
     style="fill:#ffffff" />
  <path
     fill="#000000"
     d=" M 92.17 676.93 C 101.22 676.61 110.30 676.68 119.36 676.89 C 118.26 677.80 117.10 678.62 115.93 679.44 C 118.81 683.37 122.40 686.71 125.65 690.34 C 129.37 694.00 132.49 698.27 136.68 701.45 C 136.76 693.96 136.72 686.48 136.71 679.00 C 135.41 678.41 134.12 677.80 132.97 676.97 C 139.81 676.59 146.69 676.64 153.54 676.95 C 152.45 677.85 151.13 678.36 149.94 679.12 C 150.01 693.10 149.92 707.09 149.95 721.08 C 149.55 723.34 152.14 723.93 153.45 725.11 C 146.23 725.30 138.99 725.38 131.77 725.06 C 133.30 724.14 134.91 723.37 136.40 722.39 C 130.68 715.86 124.68 709.59 118.60 703.40 C 115.09 699.85 112.09 695.82 108.43 692.42 C 108.22 701.96 108.35 711.52 108.34 721.07 C 107.91 723.44 110.83 723.89 112.24 725.08 C 105.62 725.38 98.98 725.24 92.35 725.17 C 93.47 723.92 95.66 723.11 95.36 721.08 C 95.35 707.11 95.43 693.14 95.31 679.17 C 94.27 678.40 93.22 677.66 92.17 676.93 Z"
     id="path3059"
     style="fill:#ffffff" />
  <path
     fill="#000000"
     d=" M 164.46 676.96 C 170.62 676.51 176.81 676.86 182.98 676.73 C 184.49 676.57 185.93 676.95 187.30 677.55 C 186.04 678.39 183.01 677.85 183.39 680.07 C 183.23 693.73 183.43 707.40 183.29 721.07 C 182.64 723.66 185.98 723.83 187.47 725.06 C 179.77 725.35 172.05 725.36 164.36 725.06 C 165.84 723.81 169.01 723.55 168.60 720.98 C 168.66 707.64 168.61 694.29 168.63 680.95 C 169.16 678.42 165.87 678.25 164.46 676.96 Z"
     id="path3061"
     style="fill:#ffffff" />
  <path
     fill="#000000"
     d=" M 194.44 676.92 C 201.82 676.64 209.23 676.62 216.61 676.94 C 215.53 677.64 214.44 678.30 213.31 678.93 C 215.95 688.67 220.65 697.69 223.23 707.43 C 227.90 698.62 231.14 689.16 234.98 679.99 C 235.96 678.26 232.89 677.99 232.22 676.85 C 238.72 676.98 245.37 676.09 251.78 677.30 C 250.66 678.14 248.88 678.52 248.49 680.10 C 247.10 683.59 245.51 687.00 244.41 690.60 C 242.33 696.54 239.18 702.04 237.18 708.02 C 235.66 713.02 232.95 717.55 231.27 722.50 C 232.27 723.43 233.38 724.24 234.44 725.13 C 226.26 725.31 218.07 725.32 209.89 725.12 C 210.78 724.05 213.03 723.64 212.82 722.00 C 211.68 717.56 209.58 713.41 208.65 708.91 C 206.69 702.49 203.92 696.35 201.83 689.98 C 200.79 686.12 199.30 682.40 197.48 678.85 C 196.42 678.27 195.40 677.63 194.44 676.92 Z"
     id="path3063"
     style="fill:#ffffff" />
  <path
     style="fill:#ffffff"
     d="M 422.125 845.875 C 416.31243 845.89229 410.52188 845.98438 404.71875 846.21875 C 405.65625 847.50625 407.1625 848.06875 408.5 848.84375 C 408.575 867.03125 408.53125 885.21875 408.53125 903.40625 C 407.34375 904.36875 406.1875 905.36875 405.0625 906.40625 C 413.5625 906.59375 422.09375 906.7125 430.59375 906.3125 C 429.01875 904.925 425.81875 904.65 425.71875 902.125 C 425.45625 895.9625 425.71875 889.7875 425.65625 883.625 C 430.28125 883.5875 434.90625 883.575 439.53125 883.6875 C 441.99375 890.9875 448.2125 896.4625 450.0625 904 C 448.55 904.675 447.0625 905.4625 445.625 906.3125 C 455.55 906.7625 465.5125 906.6375 475.4375 906.375 C 472.2875 904.5125 468.8125 902.6375 467.25 899.125 C 464.5375 893.6375 460.00625 889.2875 457.46875 883.6875 C 463.15625 881.5875 468.2875 877.78125 471.125 872.34375 C 473.7875 866.49375 473.075 859.375 469.3125 854.1875 C 465.875 847.7375 457.7125 846.7125 451.1875 846 C 441.50781 846.03125 431.81262 845.84619 422.125 845.875 z M 436.625 857.15625 C 440.25469 857.13437 443.875 857.13125 447.5 857.3125 C 451.1 857.4 455.0625 859.9 455.25 863.8125 C 456.0875 868.3625 451.88125 872.25625 447.59375 872.53125 C 440.31875 872.89375 433.025 872.56875 425.75 872.65625 C 425.6875 867.49375 425.68125 862.35625 425.71875 857.21875 C 429.35 857.2375 432.99531 857.17813 436.625 857.15625 z "
     transform="scale(0.8,0.8)"
     id="path3065" />
  <path
     style="fill:#ffffff"
     d="M 596.1875 845.875 C 591.17031 845.89531 586.1375 846.00625 581.125 846.0625 C 581.7875 846.7375 583.11875 848.075 583.78125 848.75 C 581.44375 854.8875 578.18125 860.6375 575.78125 866.75 C 572.93125 874.5875 568.36875 881.6875 565.78125 889.625 C 562.90625 895.3375 561.1125 901.8 556.5625 906.5 C 563.725 906.55 570.9 906.7125 578.0625 906.375 C 577.275 905.8 575.69375 904.6375 574.90625 904.0625 C 576.20625 900.6375 577.99375 897.4125 579.59375 894.125 C 590.20625 894.125 600.8375 894.3125 611.4375 894 C 612.875 897.2125 614.6875 900.275 616 903.5625 C 615.1375 904.55 614.25625 905.50625 613.34375 906.46875 C 621.48125 906.58125 629.63125 906.6 637.78125 906.4375 C 633.48125 903.675 631.575 898.84375 629.6875 894.34375 C 627.5625 888.33125 624.23125 882.8625 621.53125 877.125 C 617.61875 867.4375 612.0375 858.55625 608.625 848.65625 C 609.275 848.05625 610.56875 846.85 611.21875 846.25 C 606.2125 845.925 601.20469 845.85469 596.1875 845.875 z M 595.15625 860.375 C 599.90625 867.925 602.85 876.35 606.9375 884.25 C 599.2125 884.225 591.525 884.30625 583.8125 884.21875 C 587.5125 876.21875 591.74375 868.5 595.15625 860.375 z "
     transform="scale(0.8,0.8)"
     id="path3067" />
  <path
     fill="#000000"
     d=" M 517.17 676.82 C 524.50 676.72 531.83 676.66 539.16 676.87 C 537.94 677.78 536.61 678.51 535.21 679.10 C 535.40 690.70 535.22 702.31 535.30 713.92 C 545.92 713.91 556.54 713.91 567.16 713.92 C 567.75 712.96 568.35 712.01 568.96 711.08 C 568.85 716.71 568.79 722.36 568.97 728.00 L 568.30 728.00 C 567.94 726.44 566.77 725.14 565.08 725.29 C 549.11 725.12 533.12 725.36 517.15 725.18 C 518.36 723.90 520.90 723.23 520.61 721.07 C 520.69 707.69 520.66 694.30 520.63 680.93 C 520.98 678.74 518.35 678.12 517.17 676.82 Z"
     id="path3069"
     style="fill:#ffffff" />
</svg>
