<?xml version="1.0" encoding="UTF-8" standalone="no"?>
<!-- Created with Inkscape (http://www.inkscape.org/) -->

<svg
   xmlns:dc="http://purl.org/dc/elements/1.1/"
   xmlns:cc="http://creativecommons.org/ns#"
   xmlns:rdf="http://www.w3.org/1999/02/22-rdf-syntax-ns#"
   xmlns:svg="http://www.w3.org/2000/svg"
   xmlns="http://www.w3.org/2000/svg"
   xmlns:inkscape="http://www.inkscape.org/namespaces/inkscape"
   version="1.1"
   width="800pt"
   height="280pt"
   viewBox="0 0 800 280"
   id="svg2">
  <metadata
     id="metadata41">
    <rdf:RDF>
      <cc:Work
         rdf:about="">
        <dc:format>image/svg+xml</dc:format>
        <dc:type
           rdf:resource="http://purl.org/dc/dcmitype/StillImage" />
      </cc:Work>
    </rdf:RDF>
  </metadata>
  <defs
     id="defs39" />
  <g
     id="#808184ff"
     style="fill:#ffffff">
    <path
       d="m 227.93,22.04 c 3.16,0.02 6.33,0.02 9.49,0.08 11.18,16.67 22.77,33.09 33.01,50.37 0.16,-16.81 0.03,-33.62 0.07,-50.43 3.38,0 6.76,0 10.15,0 -0.04,23.89 0.04,47.79 -0.04,71.69 -3.06,0.09 -6.11,0.08 -9.16,0.02 -11.54,-16.69 -22.87,-33.52 -33.57,-50.76 0.2,16.93 -0.14,33.86 0.2,50.79 -3.39,0.03 -6.77,0.03 -10.15,0.03 0,-23.93 0,-47.86 0,-71.79 z"
       inkscape:connector-curvature="0"
       id="path5"
       style="fill:#ffffff" />
    <path
       d="m 308.97,22.06 c 3.44,0 6.89,0 10.33,0.03 7.43,23.92 14.98,47.8 22.27,71.76 -4.57,-0.04 -9.15,-0.02 -13.72,-0.02 -1.9,-6.59 -3.85,-13.16 -5.66,-19.78 -6.79,0.03 -13.57,0.01 -20.36,0.01 -2.34,6.44 -3.63,13.23 -6.29,19.54 -3.55,0.46 -7.14,0.18 -10.7,0.21 7.85,-23.98 16.08,-47.83 24.13,-71.75 m 3.86,14.04 c -2.08,9.85 -4.88,19.54 -7.9,29.14 5.08,0.01 10.16,0.01 15.24,0 -1.89,-9.85 -5.65,-19.25 -7.34,-29.14 z"
       inkscape:connector-curvature="0"
       id="path7"
       style="fill:#ffffff" />
    <path
       d="m 335.23,22.07 c 16.17,-0.02 32.33,-0.01 48.5,0 -0.01,3.33 -0.01,6.67 -0.01,10 -5.97,0 -11.93,0 -17.9,0 0.01,20.57 0.02,41.13 0,61.7 -4.22,0.09 -8.43,0.09 -12.63,0 -0.03,-20.57 -0.01,-41.13 -0.01,-61.7 -5.98,0 -11.95,0 -17.93,0 -0.01,-3.33 -0.01,-6.67 -0.02,-10 z"
       inkscape:connector-curvature="0"
       id="path9"
       style="fill:#ffffff" />
    <path
       d="m 434.49,24.26 c 7.7,-1.69 15.8,0.55 22.28,4.82 -1.27,2.85 -2.57,5.68 -3.86,8.51 -5.31,-2.8 -11.51,-4.59 -17.47,-2.94 -8.21,2.14 -13.36,10.37 -14.61,18.36 -0.51,6.38 -0.78,13.13 2.04,19.07 2.33,5.73 7.08,10.83 13.28,12.2 3.8,0.85 7.69,0.04 11.36,-1 -0.03,-7 0.01,-13.99 -0.03,-20.99 3.86,-0.02 7.72,-0.02 11.59,0.01 -0.25,9.55 -0.11,19.1 -0.11,28.64 -10.68,3.91 -23,5.93 -33.6,0.66 -7.88,-4.43 -14.02,-12.2 -15.99,-21.08 -2.53,-9.52 -1.8,-19.91 2.28,-28.9 4.45,-8.79 12.96,-15.82 22.84,-17.36 z"
       inkscape:connector-curvature="0"
       id="path11"
       style="fill:#ffffff" />
    <path
       d="m 531.37,24.59 c 8.54,-2.6 18.05,0.72 24.23,6.88 6,5.53 8.81,13.64 9.97,21.52 1.13,11.94 -1.16,25.12 -9.6,34.15 -9.55,10.48 -28.28,10.28 -37.4,-0.65 -7.68,-8.06 -9.63,-19.77 -9.11,-30.5 -0.13,-13.52 8.3,-27.88 21.91,-31.4 m 2.1,10.03 c -7,2.28 -10.06,10 -11.32,16.63 -1.2,9.21 -0.7,19.28 4.34,27.36 2.4,3.85 6.68,5.96 11.13,6.21 2.85,-0.54 5.92,-0.99 8.11,-3.1 4.75,-3.88 5.95,-10.26 7.01,-15.97 1.19,-7.93 0.53,-16.34 -2.86,-23.68 -2.8,-5.99 -9.98,-9.68 -16.41,-7.45 z"
       inkscape:connector-curvature="0"
       id="path13"
       style="fill:#ffffff" />
    <path
       d="m 470.72,24.94 c 10.09,-0.01 20.19,0 30.28,-0.01 0.06,3.22 0.06,6.44 0.07,9.66 -6.38,0.04 -12.76,0 -19.14,0.04 -0.01,6.1 0.01,12.21 0.15,18.31 6.24,0.22 12.48,0.05 18.72,0.12 -0.01,3.18 -0.01,6.35 0.02,9.53 -6.3,0.05 -12.59,0 -18.88,0.04 -0.04,7.22 0.01,14.43 0.14,21.65 7.57,0 15.15,-0.01 22.73,0.01 -0.02,3.18 -0.02,6.35 -0.02,9.52 -11.36,0.04 -22.71,0 -34.07,0.02 0,-22.96 0,-45.93 0,-68.89 z"
       inkscape:connector-curvature="0"
       id="path15"
       style="fill:#ffffff" />
    <path
       d="m 216.41,112.1 c 12.5,-1.4 24.98,-3.01 37.5,-4.2 5.87,34.58 11.37,69.24 16.44,103.94 8.08,-34.19 17.02,-68.17 26.79,-101.91 10.21,0 20.41,-0.02 30.62,0.01 3.4,12.61 7.39,25.05 10.89,37.63 4.08,15.52 8.96,30.83 12.49,46.49 1.6,6.25 3.15,12.51 4.8,18.75 3.84,-35.11 9.73,-69.97 14.97,-104.89 10.83,1.1 21.59,2.79 32.4,4.16 -3.65,19.74 -7.71,39.4 -11.79,59.06 -3.61,19.35 -7.72,38.59 -11.55,57.9 -1.59,9.39 -3.69,18.69 -5.55,28.03 -13.67,-0.02 -27.35,0 -41.03,-0.01 -8.56,-29.07 -16.99,-58.21 -23.79,-87.76 -3.02,13.88 -6.16,27.73 -9.65,41.5 -3.44,15.55 -8.29,30.75 -11.9,46.27 -13.75,-0.01 -27.51,-0.01 -41.27,-0.01 -10.19,-48.3 -20.39,-96.61 -30.37,-144.96 z"
       inkscape:connector-curvature="0"
       id="path17"
       style="fill:#ffffff" />
    <path
       d="m 410.21,109.94 c 12.46,0.05 24.92,-0.17 37.38,0.12 0.11,49 0.04,98 0.04,147 -12.48,0 -24.97,0 -37.45,0 0,-49.04 -0.05,-98.08 0.03,-147.12 z"
       inkscape:connector-curvature="0"
       id="path19"
       style="fill:#ffffff" />
    <path
       d="m 463.46,109.92 c 12.28,0.01 24.56,0 36.85,0.01 -0.01,39.78 0.01,79.57 -0.01,119.35 14.73,-0.01 29.47,0 44.21,0 -0.02,9.26 -0.01,18.52 -0.01,27.78 -27.01,0 -54.02,0.01 -81.03,0 -0.01,-49.04 0,-98.09 -0.01,-147.14 z"
       inkscape:connector-curvature="0"
       id="path21"
       style="fill:#ffffff" />
    <path
       d="m 555.21,109.93 c 16.28,0.04 32.56,-0.1 48.84,0.07 13.4,0.14 27.08,3.22 38.43,10.55 14.05,9.21 22.92,24.87 25.8,41.21 1.93,8.67 1.53,17.57 1.38,26.38 -1.32,17.52 -6.66,35.58 -19.01,48.58 -12.23,13.52 -30.72,20.12 -48.67,20.35 -15.59,-0.01 -31.18,0 -46.76,-0.01 -0.02,-49.04 -0.01,-98.09 -0.01,-147.13 m 36.72,28.18 c 0.12,30.39 -0.19,60.78 0.15,91.17 9.21,0.45 19.43,0.02 26.6,-6.61 8.01,-7.95 11.27,-19.36 12.61,-30.28 1.2,-12.06 1.3,-24.78 -3.76,-36.05 -3.23,-6.82 -8.06,-13.4 -15.2,-16.42 -6.44,-2.85 -13.59,-1.62 -20.4,-1.81 z"
       inkscape:connector-curvature="0"
       id="path23"
       style="fill:#ffffff" />
    <path
       d="m 680.73,189.68 c 34.08,-0.02 68.15,-0.01 102.22,-0.01 -0.02,21.87 -0.01,43.74 -0.01,65.61 -46.79,-0.03 -93.59,0.06 -140.39,-0.05 15,-6.95 26.07,-20.75 31.85,-36.02 3.78,-9.4 5.78,-19.44 6.33,-29.53 m 17.54,13.44 c 0.03,13.02 -0.02,26.04 0.03,39.06 2.8,-0.03 5.61,-0.04 8.42,-0.05 0.01,-5.58 0.01,-11.17 -0.04,-16.75 3.86,-0.05 7.72,-0.07 11.58,-0.09 0.02,5.62 0.02,11.25 0.03,16.87 2.8,-0.01 5.61,-0.01 8.42,-0.01 0.03,-13.01 -0.01,-26.02 0.02,-39.03 -2.82,0 -5.65,0 -8.46,0 0.01,4.91 0,9.82 0.01,14.73 -3.86,-0.01 -7.71,-0.01 -11.56,0 0,-4.91 -0.01,-9.82 0.01,-14.73 -2.82,0 -5.65,0 -8.46,0 m 37.36,0 c -0.01,13 -0.02,26 0,39.01 6.23,0.13 12.58,0.67 18.69,-0.82 5.97,-2.07 10.21,-7.88 10.89,-14.1 1.14,-7.34 0.08,-16.5 -6.67,-20.89 -6.75,-4.62 -15.26,-2.88 -22.91,-3.2 z"
       inkscape:connector-curvature="0"
       id="path25"
       style="fill:#ffffff" />
    <path
       d="m 744.5,210.27 c 2.91,0.22 6.3,-0.51 8.73,1.52 3.18,2.28 3.63,6.57 3.62,10.19 -0.24,4.1 -0.94,8.91 -4.64,11.38 -2.36,1.16 -5.12,0.77 -7.65,1 -0.04,-8.03 0.03,-16.06 -0.06,-24.09 z"
       inkscape:connector-curvature="0"
       id="path27"
       style="fill:#ffffff" />
  </g>
  <g
     id="#fad91aff">
    <path
       d="m 17.45,23.43 c 54.44,0.13 108.88,0 163.32,0.07 -0.05,78.09 -0.07,156.18 0.01,234.28 -54.45,-0.1 -108.9,-0.09 -163.35,-0.01 0.14,-78.11 0.08,-156.22 0.02,-234.34 m 23.54,24.11 c 0.16,62.24 0.03,124.49 0.06,186.74 38.63,-0.04 77.25,0.08 115.87,-0.06 0.17,-62.23 -0.18,-124.46 0.13,-186.68 -38.69,-0.03 -77.37,-0.03 -116.06,0 z"
       inkscape:connector-curvature="0"
       id="path30"
       style="fill:#fad91a" />
  </g>
  <g
     id="#ffffffff"
     style="fill:#000000">
    <path
       d="m 698.27,203.12 c 2.81,0 5.64,0 8.46,0 -0.02,4.91 -0.01,9.82 -0.01,14.73 3.85,-0.01 7.7,-0.01 11.56,0 -0.01,-4.91 0,-9.82 -0.01,-14.73 2.81,0 5.64,0 8.46,0 -0.03,13.01 0.01,26.02 -0.02,39.03 -2.81,0 -5.62,0 -8.42,0.01 -0.01,-5.62 -0.01,-11.25 -0.03,-16.87 -3.86,0.02 -7.72,0.04 -11.58,0.09 0.05,5.58 0.05,11.17 0.04,16.75 -2.81,0.01 -5.62,0.02 -8.42,0.05 -0.05,-13.02 0,-26.04 -0.03,-39.06 z"
       inkscape:connector-curvature="0"
       id="path33"
       style="fill:#000000" />
    <path
       d="m 735.63,203.12 c 7.65,0.32 16.16,-1.42 22.91,3.2 6.75,4.39 7.81,13.55 6.67,20.89 -0.68,6.22 -4.92,12.03 -10.89,14.1 -6.11,1.49 -12.46,0.95 -18.69,0.82 -0.02,-13.01 -0.01,-26.01 0,-39.01 m 8.87,7.15 c 0.09,8.03 0.02,16.06 0.06,24.09 2.53,-0.23 5.29,0.16 7.65,-1 3.7,-2.47 4.4,-7.28 4.64,-11.38 0.01,-3.62 -0.44,-7.91 -3.62,-10.19 -2.43,-2.03 -5.82,-1.3 -8.73,-1.52 z"
       inkscape:connector-curvature="0"
       id="path35"
       style="fill:#000000" />
  </g>
</svg>
