<?xml version="1.0" encoding="UTF-8" standalone="no"?>
<svg
   xmlns:dc="http://purl.org/dc/elements/1.1/"
   xmlns:cc="http://creativecommons.org/ns#"
   xmlns:rdf="http://www.w3.org/1999/02/22-rdf-syntax-ns#"
   xmlns:svg="http://www.w3.org/2000/svg"
   xmlns="http://www.w3.org/2000/svg"
   xmlns:sodipodi="http://sodipodi.sourceforge.net/DTD/sodipodi-0.dtd"
   xmlns:inkscape="http://www.inkscape.org/namespaces/inkscape"
   width="354pt"
   height="222pt"
   viewBox="0 0 354 222"
   version="1.1"
   id="svg2"
   inkscape:version="0.48.4 r9939"
   sodipodi:docname="tv.ocscity.svg">
  <metadata
     id="metadata23">
    <rdf:RDF>
      <cc:Work
         rdf:about="">
        <dc:format>image/svg+xml</dc:format>
        <dc:type
           rdf:resource="http://purl.org/dc/dcmitype/StillImage" />
        <dc:title></dc:title>
      </cc:Work>
    </rdf:RDF>
  </metadata>
  <defs
     id="defs21" />
  <sodipodi:namedview
     pagecolor="#ffffff"
     bordercolor="#666666"
     borderopacity="1"
     objecttolerance="10"
     gridtolerance="10"
     guidetolerance="10"
     inkscape:pageopacity="0"
     inkscape:pageshadow="2"
     inkscape:window-width="640"
     inkscape:window-height="480"
     id="namedview19"
     showgrid="false"
     inkscape:zoom="0.79774011"
     inkscape:cx="221.25"
     inkscape:cy="138.75"
     inkscape:window-x="0"
     inkscape:window-y="0"
     inkscape:window-maximized="0"
     inkscape:current-layer="svg2" />
  <g
     id="#ffffffff" />
  <g
     id="#ee7f01ff">
    <path
       fill="#ee7f01"
       opacity="1.00"
       d=" M 53.50 6.76 C 68.62 4.44 84.77 7.05 97.78 15.30 C 108.90 22.32 116.58 33.90 120.43 46.34 C 126.10 64.77 123.89 85.56 114.18 102.25 C 106.49 115.32 92.65 124.05 77.96 127.07 C 61.32 130.71 43.04 127.84 28.94 118.06 C 17.18 109.85 9.23 96.80 6.38 82.82 C 3.60 69.34 4.48 55.03 9.14 42.06 C 16.06 23.38 33.70 9.24 53.50 6.76 M 59.27 36.19 C 52.00 37.96 46.13 43.93 43.90 50.99 C 39.85 62.98 40.23 76.66 45.91 88.07 C 49.69 94.74 57.30 99.33 65.05 98.88 C 72.36 98.58 79.09 93.95 82.57 87.60 C 85.81 81.63 86.78 74.69 87.04 67.99 C 87.05 59.98 85.69 51.58 81.32 44.73 C 76.49 37.94 67.47 34.04 59.27 36.19 Z"
       id="path6" />
    <path
       fill="#ee7f01"
       opacity="1.00"
       d=" M 167.83 8.69 C 177.87 5.53 188.59 5.66 198.97 6.63 C 210.02 7.78 221.34 11.60 229.05 19.94 C 236.38 27.41 238.90 38.00 240.56 47.99 C 228.82 48.05 217.08 48.11 205.34 48.05 C 202.32 36.53 187.59 32.62 177.72 37.63 C 171.33 40.47 168.23 47.24 166.39 53.57 C 163.05 65.11 164.13 77.89 169.37 88.69 C 174.67 99.20 189.99 102.24 199.25 95.25 C 202.94 92.20 204.04 87.30 205.42 82.95 C 217.28 82.96 229.14 82.83 241.00 82.87 C 241.13 94.90 236.10 106.96 227.06 114.96 C 216.26 124.68 201.36 128.77 187.05 128.49 C 176.86 128.23 166.43 126.54 157.40 121.57 C 145.03 114.75 135.35 103.02 131.42 89.42 C 126.02 71.03 126.97 50.28 136.36 33.32 C 142.84 21.19 154.75 12.51 167.83 8.69 Z"
       id="path8" />
    <path
       fill="#ee7f01"
       opacity="1.00"
       d=" M 275.21 9.19 C 292.06 3.57 311.41 5.11 326.75 14.25 C 338.16 21.33 344.51 34.85 344.62 48.06 C 333.20 48.07 321.78 48.08 310.36 48.06 C 309.88 43.38 309.60 37.63 305.20 34.80 C 299.74 31.84 292.68 31.27 287.06 34.14 C 284.95 35.28 282.56 37.22 283.01 39.93 C 283.72 43.07 286.51 45.32 289.32 46.59 C 302.56 51.77 317.08 52.88 330.01 58.98 C 336.05 61.85 341.86 65.86 345.30 71.74 C 352.22 83.44 350.82 99.03 343.02 109.96 C 337.05 118.34 327.42 123.27 317.68 125.85 C 304.34 129.12 290.02 129.69 276.83 125.41 C 267.06 122.28 257.69 116.78 251.50 108.43 C 246.20 101.07 244.10 91.93 243.48 83.01 C 255.70 82.98 267.92 82.80 280.14 82.87 C 280.69 88.71 280.75 96.11 286.46 99.48 C 293.29 102.74 301.79 103.16 308.61 99.62 C 313.07 97.33 315.01 89.71 310.27 86.73 C 294.46 78.15 275.19 78.09 260.15 67.83 C 254.88 64.55 251.21 59.13 249.56 53.19 C 246.23 41.39 249.81 28.06 258.15 19.16 C 262.74 14.27 268.95 11.33 275.21 9.19 Z"
       id="path10" />
  </g>
  <g
     id="#000000ff"
     style="fill:#ffffff">
    <path
       fill="#000000"
       opacity="1.00"
       d=" M 113.47 147.50 C 118.92 141.50 127.20 139.35 135.04 138.96 C 141.71 139.38 148.76 140.66 153.99 145.16 C 159.28 149.48 161.84 156.33 162.37 162.99 C 156.54 163.01 150.71 163.00 144.88 163.00 C 144.58 159.09 142.71 154.90 138.84 153.40 C 135.55 152.64 131.57 152.59 128.94 155.04 C 127.20 156.46 126.38 158.61 125.36 160.55 C 123.46 166.22 123.92 172.30 124.25 178.17 C 125.04 183.08 126.94 188.98 132.14 190.75 C 135.37 191.28 139.30 191.39 141.68 188.72 C 144.21 186.55 145.05 183.21 145.10 180.00 C 151.08 179.99 157.06 180.01 163.04 179.99 C 162.35 188.08 158.82 196.36 151.56 200.62 C 140.23 207.14 124.40 206.46 114.57 197.43 C 107.38 190.63 105.30 180.39 104.96 170.90 C 105.45 162.54 107.25 153.61 113.47 147.50 Z"
       id="path13"
       style="fill:#ffffff" />
    <path
       fill="#000000"
       opacity="1.00"
       d=" M 166.00 141.00 C 171.67 141.00 177.33 141.00 183.00 141.00 C 183.00 145.33 183.00 149.67 183.00 154.00 C 177.33 154.00 171.67 154.00 166.00 154.00 C 166.00 149.67 166.00 145.33 166.00 141.00 Z"
       id="path15"
       style="fill:#ffffff" />
    <path
       fill="#000000"
       opacity="1.00"
       d=" M 189.00 144.00 C 194.67 144.00 200.33 144.00 206.00 144.00 C 206.00 148.67 206.00 153.33 206.00 158.00 C 213.99 158.06 221.99 157.90 229.97 158.06 C 230.19 158.31 230.63 158.81 230.85 159.06 C 232.27 169.21 235.71 179.09 236.21 189.35 C 237.80 186.91 237.62 183.94 238.04 181.18 C 239.70 173.45 241.62 165.77 243.08 158.00 C 248.97 158.00 254.85 158.00 260.74 158.00 C 256.98 170.95 252.98 183.82 249.19 196.76 C 247.38 202.60 245.75 208.83 241.45 213.41 C 238.17 216.67 233.46 217.52 229.04 217.99 C 224.33 218.33 219.71 217.02 215.00 217.17 C 215.00 212.78 215.00 208.39 215.00 204.00 C 218.52 203.75 222.05 204.16 225.57 203.77 C 225.80 203.03 226.25 201.57 226.48 200.84 C 223.35 190.08 219.46 179.56 215.80 168.98 C 212.53 169.01 209.27 169.00 206.00 169.00 C 206.27 176.23 205.43 183.54 206.47 190.71 C 208.64 190.97 210.82 191.03 213.00 190.93 C 213.00 194.95 213.00 198.97 213.00 202.99 C 207.33 203.00 201.60 205.15 196.08 202.87 C 190.96 201.41 189.35 195.72 189.06 191.00 C 188.90 183.67 189.05 176.33 189.00 169.00 C 187.00 169.00 185.00 169.00 183.00 169.00 C 183.00 180.33 183.00 191.67 183.00 203.00 C 177.33 203.00 171.67 203.00 166.00 203.00 C 166.00 188.00 166.00 173.00 166.00 158.00 C 173.67 158.00 181.33 158.00 189.00 158.00 C 189.00 153.33 189.00 148.67 189.00 144.00 Z"
       id="path17"
       style="fill:#ffffff" />
  </g>
</svg>
