<?xml version="1.0" encoding="UTF-8" standalone="no"?>
<!-- Creator: CorelDRAW -->

<svg
   xmlns:dc="http://purl.org/dc/elements/1.1/"
   xmlns:cc="http://creativecommons.org/ns#"
   xmlns:rdf="http://www.w3.org/1999/02/22-rdf-syntax-ns#"
   xmlns:svg="http://www.w3.org/2000/svg"
   xmlns="http://www.w3.org/2000/svg"
   xmlns:sodipodi="http://sodipodi.sourceforge.net/DTD/sodipodi-0.dtd"
   xmlns:inkscape="http://www.inkscape.org/namespaces/inkscape"
   xml:space="preserve"
   width="714.7702"
   height="140.50533"
   style="fill-rule:evenodd"
   viewBox="0 0 201.72402 39.653724"
   id="svg2985"
   version="1.1"
   inkscape:version="0.48.4 r9939"
   sodipodi:docname="tv.tvnturbo.svg"><metadata
   id="metadata3013"><rdf:RDF><cc:Work
       rdf:about=""><dc:format>image/svg+xml</dc:format><dc:type
         rdf:resource="http://purl.org/dc/dcmitype/StillImage" /><dc:title></dc:title></cc:Work></rdf:RDF></metadata><sodipodi:namedview
   pagecolor="#ffffff"
   bordercolor="#666666"
   borderopacity="1"
   objecttolerance="10"
   gridtolerance="10"
   guidetolerance="10"
   inkscape:pageopacity="0"
   inkscape:pageshadow="2"
   inkscape:window-width="1280"
   inkscape:window-height="747"
   id="namedview3011"
   showgrid="false"
   inkscape:snap-global="false"
   inkscape:zoom="1.0842286"
   inkscape:cx="220.6111"
   inkscape:cy="97.843244"
   inkscape:window-x="-8"
   inkscape:window-y="-8"
   inkscape:window-maximized="1"
   inkscape:current-layer="svg2985"
   fit-margin-top="5"
   fit-margin-left="5"
   fit-margin-right="5"
   fit-margin-bottom="5"><sodipodi:guide
     position="729.15662,1.3490529"
     orientation="0,750.00122"
     id="guide3023" /><sodipodi:guide
     position="716.39464,-48.989847"
     orientation="-250.00017,0"
     id="guide3025" /><sodipodi:guide
     position="756.09857,141.02178"
     orientation="0,-750.00122"
     id="guide3027" /><sodipodi:guide
     position="-1.823517,198.4957"
     orientation="250.00017,0"
     id="guide3029" /><sodipodi:guide
     position="-18.12789,-53.243838"
     orientation="0,750.00122"
     id="guide3813" /><sodipodi:guide
     position="731.87332,-53.243838"
     orientation="-250.00017,0"
     id="guide3815" /><sodipodi:guide
     position="731.87332,196.75633"
     orientation="0,-750.00122"
     id="guide3817" /><sodipodi:guide
     position="-18.12789,196.75633"
     orientation="250.00017,0"
     id="guide3819" /><inkscape:grid
     type="xygrid"
     id="grid3821"
     empspacing="5"
     visible="true"
     enabled="true"
     snapvisiblegridlinesonly="true"
     originx="-18.12789px"
     originy="-53.243838px" /><sodipodi:guide
     position="-18.12789,-53.243838"
     orientation="0,750.00122"
     id="guide3823" /><sodipodi:guide
     position="731.87332,-53.243838"
     orientation="-250.00017,0"
     id="guide3825" /><sodipodi:guide
     position="731.87332,196.75633"
     orientation="0,-750.00122"
     id="guide3827" /><sodipodi:guide
     position="-18.12789,196.75633"
     orientation="250.00017,0"
     id="guide3829" /></sodipodi:namedview>
 <defs
   id="defs2987">
  <style
   type="text/css"
   id="style2989">
   
    .fil1 {fill:white}
    .fil0 {fill:#9B2322}
    .fil3 {fill:#C9761D}
    .fil2 {fill:#E2E2E0}
   
  </style>
 
  
  
  
  
  
  
  
  
  
 
  
  
  
  
  
 </defs>
 <polygon
   style="fill:#db0000;fill-opacity:1"
   id="polygon2993"
   points="64.2831,28.3776 14.7478,28.8102 6.5272,54.1179 56.0625,53.6853 "
   class="fil0"
   transform="translate(-5.1160935,-15.875289)" /><path
   style="fill:#ffffff"
   inkscape:connector-curvature="0"
   d="m 38.079806,30.541011 2.5937,-7.5166 c 1.4612,-1.1578 2.5061,-1.1045 3.1336,0.1597 l -2.5397,7.3569 4.3499,0.0122 2.58,-7.4725 c 0.5131,-1.7178 -0.0263,-2.6888 -1.6174,-2.9127 l -4.3481,0 c -0.318,0 -0.8528,0.4632 -1.0701,0.7529 l 0.1763,-0.7529 -3.5033,0 -3.5802,10.373 3.8253,0 z"
   class="fil1"
   id="_n_" /><polygon
   style="fill:#ffffff"
   points="41.578,36.0433 38.5306,36.0433 34.5345,42.0702 34.0882,42.0702 34.0882,36.0433 30.1869,36.0433 30.1869,46.7389 33.6005,46.7389 "
   class="fil1"
   id="_v_"
   transform="translate(-5.1160935,-15.875289)" /><path
   style="fill:#ffffff"
   inkscape:connector-curvature="0"
   d="m 22.153306,22.209611 0.704,-2.0416 -2.0623,0 1.2964,-3.7576 -4.0434,0 -1.2964,3.7576 -1.9124,0 -0.7062,2.0477 1.9139,-0.0015 -2.1723,6.2883 c -0.2484,1.2657 0.3126,2.0622 1.6839,2.3878 l 3.6711,0 0,-2.4834 -0.3523,-0.0412 c -0.6535,-0.0535 -0.8133,-0.4709 -0.48,-1.2513 l 1.693,-4.9033 2.063,-0.0015 z"
   class="fil1"
   id="_t_" />
 <path
   style="fill:#ffffff"
   inkscape:connector-curvature="0"
   d="m 198.02491,12.583911 -30.3901,0 -8.6855,25.2261 30.39,0 8.6856,-25.2261 z m -23.3861,6.5864 11.5359,0 -4.0518,11.7684 -11.5359,0 4.0518,-11.7684 z"
   class="fil2"
   id="o" /><path
   style="fill:#ffffff"
   inkscape:connector-curvature="0"
   d="m 138.42491,1.4111122 -4.5204,13.1286988 -7.4511,21.6411 -0.5608,1.6291 29.4459,0 8.6855,-25.2261 -19.8598,0 3.8469,-11.1727988 -9.5862,0 z m 3.4717,17.7591988 10.7636,0 -4.0518,11.7684 -10.7639,0 4.0521,-11.7684 z"
   class="fil2"
   id="b" /><polygon
   style="fill:#ffffff"
   points="133.961,35.0456 136.228,28.4592 116.543,28.4592 107.857,53.6853 116.632,53.6853 123.107,35.0456 "
   class="fil2"
   id="r"
   transform="translate(-5.1160935,-15.875289)" /><polygon
   style="fill:#ffffff"
   points="111.785,28.4592 103.272,28.4592 96.9525,46.814 85.4941,46.814 91.8137,28.4592 82.5793,28.4592 73.894,53.6853 103.1,53.6853 "
   class="fil2"
   id="u"
   transform="translate(-5.1160935,-15.875289)" /><polygon
   style="fill:#ffffff"
   points="51.3941,21.8121 50.6318,24.0267 69.8356,24.0267 59.6236,53.6853 69.7609,53.6853 79.9732,24.0267 93.3399,24.0267 94.1022,21.8121 80.7352,21.8121 82.2932,17.2864 72.1559,17.2864 70.5979,21.8121 "
   class="fil2"
   id="t"
   transform="translate(-5.1160935,-15.875289)" /><polygon
   style="fill:#ff9000;fill-opacity:1"
   id="polygon3005"
   points="154.687,24.0267 204.667,24.0267 205.429,21.8121 155.45,21.8121 "
   class="fil3"
   transform="translate(-5.1160935,-15.875289)" /><polygon
   style="fill:#ff9000;fill-opacity:1"
   id="polygon3007"
   points="97.3833,21.8121 96.6207,24.0267 137.754,24.0267 138.517,21.8121 "
   class="fil3"
   transform="translate(-5.1160935,-15.875289)" /><polygon
   style="fill:#db0000;fill-opacity:1"
   id="polygon3009"
   points="47.8095,21.8121 17.1573,21.8121 16.3947,24.0267 47.047,24.0267 "
   class="fil0"
   transform="translate(-5.1160935,-15.875289)" />
</svg>