<?xml version="1.0" encoding="UTF-8" standalone="no"?>
<!-- Created with Inkscape (http://www.inkscape.org/) -->

<svg
   xmlns:dc="http://purl.org/dc/elements/1.1/"
   xmlns:cc="http://creativecommons.org/ns#"
   xmlns:rdf="http://www.w3.org/1999/02/22-rdf-syntax-ns#"
   xmlns:svg="http://www.w3.org/2000/svg"
   xmlns="http://www.w3.org/2000/svg"
   xmlns:sodipodi="http://sodipodi.sourceforge.net/DTD/sodipodi-0.dtd"
   xmlns:inkscape="http://www.inkscape.org/namespaces/inkscape"
   width="716.18536"
   height="212.62433"
   id="svg3263"
   version="1.1"
   inkscape:version="0.48.4 r9939"
   sodipodi:docname="tv.tvnturbohd.svg">
  <defs
     id="defs3265">
    <style
       id="style2989"
       type="text/css">
   
    .fil1 {fill:white}
    .fil0 {fill:#9B2322}
    .fil3 {fill:#C9761D}
    .fil2 {fill:#E2E2E0}
   
  </style>
  </defs>
  <sodipodi:namedview
     id="base"
     pagecolor="#ffffff"
     bordercolor="#666666"
     borderopacity="1.0"
     inkscape:pageopacity="0.0"
     inkscape:pageshadow="2"
     inkscape:zoom="0.9899495"
     inkscape:cx="561.96559"
     inkscape:cy="64.131926"
     inkscape:document-units="px"
     inkscape:current-layer="layer1"
     showgrid="true"
     showguides="false"
     inkscape:guide-bbox="true"
     fit-margin-top="5"
     fit-margin-left="5"
     fit-margin-right="5"
     fit-margin-bottom="5"
     inkscape:window-width="1280"
     inkscape:window-height="747"
     inkscape:window-x="-8"
     inkscape:window-y="-8"
     inkscape:window-maximized="1">
    <inkscape:grid
       type="xygrid"
       id="grid3341"
       empspacing="5"
       visible="true"
       enabled="true"
       snapvisiblegridlinesonly="true" />
  </sodipodi:namedview>
  <metadata
     id="metadata3268">
    <rdf:RDF>
      <cc:Work
         rdf:about="">
        <dc:format>image/svg+xml</dc:format>
        <dc:type
           rdf:resource="http://purl.org/dc/dcmitype/StillImage" />
        <dc:title />
      </cc:Work>
    </rdf:RDF>
  </metadata>
  <g
     inkscape:label="Capa 1"
     inkscape:groupmode="layer"
     id="layer1"
     transform="translate(-16.900625,-156.39524)">
    <polygon
       style="fill:#db0000;fill-opacity:1;fill-rule:evenodd"
       id="polygon2993"
       points="14.7478,28.8102 6.5272,54.1179 56.0625,53.6853 64.2831,28.3776 "
       class="fil0"
       transform="matrix(3.5433072,0,0,3.5433072,-1.2272499,100.14421)" />
    <path
       style="fill:#ffffff;fill-rule:evenodd"
       inkscape:connector-curvature="0"
       d="m 151.82909,264.61142 9.19028,-26.63362 c 5.17748,-4.10244 8.87988,-3.91358 11.10331,0.56587 l -8.99894,26.06775 15.41303,0.0432 9.14173,-26.47736 c 1.81807,-6.08669 -0.0932,-9.52724 -5.73094,-10.32059 l -15.40666,0 c -1.12677,0 -3.02173,1.64126 -3.79169,2.66775 l 0.62469,-2.66775 -12.41327,0 -12.68575,36.75472 13.55421,0 z"
       class="fil1"
       id="_n_" />
    <polygon
       style="fill:#ffffff;fill-rule:evenodd"
       points="38.5306,36.0433 34.5345,42.0702 34.0882,42.0702 34.0882,36.0433 30.1869,36.0433 30.1869,46.7389 33.6005,46.7389 41.578,36.0433 "
       class="fil1"
       id="_v_"
       transform="matrix(3.5433072,0,0,3.5433072,-1.2272499,100.14421)" />
    <path
       style="fill:#ffffff;fill-rule:evenodd"
       inkscape:connector-curvature="0"
       d="m 95.39661,235.09071 2.494488,-7.23401 -7.307363,0 4.593544,-13.31433 -14.327008,0 -4.593544,13.31433 -6.776221,0 -2.502283,7.25563 6.781536,-0.005 -7.697127,22.28138 c -0.880157,4.48477 1.107638,7.30701 5.966575,8.46071 l 13.007835,0 0,-8.79945 -1.248307,-0.14598 c -2.315551,-0.18957 -2.881771,-1.66855 -1.700787,-4.43374 l 5.998819,-17.3739 7.309843,-0.005 z"
       class="fil1"
       id="_t_" />
    <path
       style="fill:#ffffff;fill-rule:evenodd"
       inkscape:connector-curvature="0"
       d="m 718.56373,200.9839 -107.68146,0 -30.77539,89.38382 107.6811,0 30.77575,-89.38382 z m -82.86414,23.33764 40.87524,0 -14.35677,41.69906 -40.87524,0 14.35677,-41.69906 z"
       class="fil2"
       id="o" />
    <path
       style="fill:#ffffff;fill-rule:evenodd"
       inkscape:connector-curvature="0"
       d="m 507.38262,161.39524 -16.01716,46.51902 -26.40154,76.68106 -1.98709,5.7724 104.33587,0 30.7754,-89.38382 -70.36938,0 13.63075,-39.58866 -33.96685,0 z m 12.3013,62.9263 38.13874,0 -14.35677,41.69906 -38.1398,0 14.35783,-41.69906 z"
       class="fil2"
       id="b" />
    <polygon
       style="fill:#ffffff;fill-rule:evenodd"
       points="107.857,53.6853 116.632,53.6853 123.107,35.0456 133.961,35.0456 136.228,28.4592 116.543,28.4592 "
       class="fil2"
       id="r"
       transform="matrix(3.5433072,0,0,3.5433072,-1.2272499,100.14421)" />
    <polygon
       style="fill:#ffffff;fill-rule:evenodd"
       points="103.272,28.4592 96.9525,46.814 85.4941,46.814 91.8137,28.4592 82.5793,28.4592 73.894,53.6853 103.1,53.6853 111.785,28.4592 "
       class="fil2"
       id="u"
       transform="matrix(3.5433072,0,0,3.5433072,-1.2272499,100.14421)" />
    <polygon
       style="fill:#ffffff;fill-rule:evenodd"
       points="82.2932,17.2864 72.1559,17.2864 70.5979,21.8121 51.3941,21.8121 50.6318,24.0267 69.8356,24.0267 59.6236,53.6853 69.7609,53.6853 79.9732,24.0267 93.3399,24.0267 94.1022,21.8121 80.7352,21.8121 "
       class="fil2"
       id="t"
       transform="matrix(3.5433072,0,0,3.5433072,-1.2272499,100.14421)" />
    <polygon
       style="fill:#ff9000;fill-opacity:1;fill-rule:evenodd"
       id="polygon3005"
       points="204.667,24.0267 205.429,21.8121 155.45,21.8121 154.687,24.0267 "
       class="fil3"
       transform="matrix(3.5433072,0,0,3.5433072,-1.2272499,100.14421)" />
    <polygon
       style="fill:#ff9000;fill-opacity:1;fill-rule:evenodd"
       id="polygon3007"
       points="96.6207,24.0267 137.754,24.0267 138.517,21.8121 97.3833,21.8121 "
       class="fil3"
       transform="matrix(3.5433072,0,0,3.5433072,-1.2272499,100.14421)" />
    <polygon
       style="fill:#db0000;fill-opacity:1;fill-rule:evenodd"
       id="polygon3009"
       points="17.1573,21.8121 16.3947,24.0267 47.047,24.0267 47.8095,21.8121 "
       class="fil0"
       transform="matrix(3.5433072,0,0,3.5433072,-1.2272499,100.14421)" />
    <path
       inkscape:connector-curvature="0"
       id="path3021"
       d="m 611.22256,303.60107 c 38.95448,-0.005 77.90896,-0.0107 116.86344,-0.016 -7.47253,21.00277 -14.83226,43.26244 -20.60052,60.4345 -15.58486,0 -100.58486,0 -115.58486,0 10,-31 10,-31 19.32194,-60.4185 z m 17.76173,28.09477 6.53053,0 c 3.59181,0 6.53054,0.30181 6.53054,0.67064 0,0.36886 -1.54113,4.87133 -3.42476,10.00551 -1.88362,5.13417 -3.42476,9.92839 -3.42476,10.65379 0,0.72543 2.53491,1.12446 5.63316,0.88678 l 5.63314,-0.43219 4.64817,-13.35181 c 2.55649,-7.34349 4.99476,-14.45861 5.41838,-15.81135 0.69556,-2.22111 -0.44811,-2.45954 -11.79778,-2.45954 -9.48435,0 -12.41009,-0.43105 -11.92447,-1.7568 2.98111,-8.1384 3.00973,-8.08138 -4.05497,-8.08138 l -6.62898,0 -7.11534,21.08182 -7.11533,21.08179 6.65232,0 6.65232,0 c 2.59592,-7.49576 5.19187,-14.99151 7.78783,-22.48726 z m 74.82972,2.10819 c 3.69334,-10.79975 6.62518,-20.15069 6.66112,-20.73044 -0.57451,-0.054 -4.91627,-0.054 -8.57451,-0.054 -6.32952,0 -4.94171,0 -5.93665,3.56764 l -1.27385,4.56775 -13.03216,0.39883 -13.03215,0.39884 -4.7186,14.35842 c -2.59519,7.89711 -4.75353,16.72067 -5.00659,17.70852 13.86202,-0.0464 20.44568,-0.13615 38,0 z m -29.48532,7.37861 c 2.84066,-9.3554 2.97176,-9.4868 9.46479,-9.4868 6.93787,0 6.78756,-0.23515 4.61173,7.21556 -1.56198,5.34876 -1.69164,5.43352 -8.31173,5.43352 -6.34529,0 -6.67078,-0.17853 -5.76479,-3.16228 z"
       style="fill:#ffffff"
       sodipodi:nodetypes="ccccccssssscsssssccccccscsscccsccssssss" />
  </g>
</svg>
